<?xml version="1.0" encoding="UTF-8"?>
<!DOCTYPE svg PUBLIC "-//W3C//DTD SVG 1.1//EN" "http://www.w3.org/Graphics/SVG/1.1/DTD/svg11.dtd">
<svg version="1.1" xmlns="http://www.w3.org/2000/svg" xmlns:xlink="http://www.w3.org/1999/xlink" x="0" y="0" width="500" height="100" viewBox="0, 0, 500, 100">
  <g id="Layer_1">
    <path d="M25.8,14.536 L25.8,11.872 L6.792,11.872 L6.792,14.536 L14.784,14.536 L14.784,37 L17.808,37 L17.808,14.536 z" fill="#000000"/>
    <path d="M29.652,37 L32.532,37 L32.532,24.112 C32.532,21.736 34.764,20.584 37.068,20.584 C39.84,20.584 41.28,22.276 41.28,25.588 L41.28,37 L44.16,37 L44.16,25.084 C44.16,20.584 41.748,17.992 37.932,17.992 C35.16,17.992 33.576,19.36 32.676,21.448 L32.532,21.448 L32.532,10.36 L29.652,10.36 z" fill="#000000"/>
    <path d="M57.084,37.432 C60.576,37.432 63.24,35.704 64.428,33.184 L62.376,31.708 C61.404,33.76 59.604,34.912 57.264,34.912 C53.808,34.912 51.756,32.5 51.756,29.296 L51.756,28.432 L65.112,28.432 L65.112,27.064 C65.112,21.808 62.052,17.992 57.084,17.992 C52.044,17.992 48.732,21.808 48.732,27.712 C48.732,33.616 52.044,37.432 57.084,37.432 z M57.084,20.404 C60.036,20.404 62.016,22.6 62.016,25.876 L62.016,26.272 L51.756,26.272 L51.756,26.02 C51.756,22.78 53.952,20.404 57.084,20.404 z" fill="#000000"/>
    <path d="M79.368,37 L82.248,37 L82.248,20.944 L89.772,20.944 L89.772,37 L92.652,37 L92.652,18.424 L82.248,18.424 L82.248,12.88 L86.244,12.88 L86.244,10.36 L83.436,10.36 C80.7,10.36 79.368,12.124 79.368,14.68 L79.368,18.424 L76.344,18.424 L76.344,20.944 L79.368,20.944 z M91.212,14.068 C92.436,14.068 92.976,13.42 92.976,12.448 L92.976,11.98 C92.976,11.008 92.436,10.36 91.212,10.36 C89.988,10.36 89.448,11.008 89.448,11.98 L89.448,12.448 C89.448,13.42 89.988,14.068 91.212,14.068 z" fill="#000000"/>
    <path d="M106.224,37 L112.776,18.424 L110.004,18.424 L106.692,27.64 L104.676,33.976 L104.496,33.976 L102.48,27.64 L99.24,18.424 L96.36,18.424 L102.876,37 z" fill="#000000"/>
    <path d="M123.468,37.432 C126.96,37.432 129.624,35.704 130.812,33.184 L128.76,31.708 C127.788,33.76 125.988,34.912 123.648,34.912 C120.192,34.912 118.14,32.5 118.14,29.296 L118.14,28.432 L131.496,28.432 L131.496,27.064 C131.496,21.808 128.436,17.992 123.468,17.992 C118.428,17.992 115.116,21.808 115.116,27.712 C115.116,33.616 118.428,37.432 123.468,37.432 z M123.468,20.404 C126.42,20.404 128.4,22.6 128.4,25.876 L128.4,26.272 L118.14,26.272 L118.14,26.02 C118.14,22.78 120.336,20.404 123.468,20.404 z" fill="#000000"/>
    <path d="M144.744,37 L147.624,37 L147.624,33.976 L147.768,33.976 C148.884,36.28 150.648,37.432 153.204,37.432 C157.848,37.432 160.764,33.652 160.764,27.712 C160.764,21.772 157.848,17.992 153.204,17.992 C150.648,17.992 148.74,19.108 147.768,21.448 L147.624,21.448 L147.624,10.36 L144.744,10.36 z M152.412,34.84 C149.784,34.84 147.624,33.472 147.624,31.06 L147.624,24.148 C147.624,22.096 149.784,20.584 152.412,20.584 C155.652,20.584 157.668,22.816 157.668,26.128 L157.668,29.296 C157.668,32.608 155.652,34.84 152.412,34.84 z" fill="#000000"/>
    <path d="M172.644,37.432 C177.612,37.432 181.032,33.616 181.032,27.712 C181.032,21.808 177.612,17.992 172.644,17.992 C167.676,17.992 164.256,21.808 164.256,27.712 C164.256,33.616 167.676,37.432 172.644,37.432 z M172.644,34.876 C169.548,34.876 167.352,32.968 167.352,29.044 L167.352,26.38 C167.352,22.456 169.548,20.548 172.644,20.548 C175.74,20.548 177.936,22.456 177.936,26.38 L177.936,29.044 C177.936,32.968 175.74,34.876 172.644,34.876 z" fill="#000000"/>
    <path d="M186.576,37 L191.904,29.548 L192.012,29.548 L196.944,37 L200.22,37 L193.524,27.424 L200.076,18.424 L196.872,18.424 L191.976,25.336 L191.868,25.336 L187.152,18.424 L183.768,18.424 L190.356,27.64 L183.48,37 z" fill="#000000"/>
    <path d="M205.476,14.068 C206.7,14.068 207.24,13.42 207.24,12.448 L207.24,11.98 C207.24,11.008 206.7,10.36 205.476,10.36 C204.252,10.36 203.712,11.008 203.712,11.98 L203.712,12.448 C203.712,13.42 204.252,14.068 205.476,14.068 z M204.036,37 L206.916,37 L206.916,18.424 L204.036,18.424 z" fill="#000000"/>
    <path d="M215.916,37 L215.916,24.112 C215.916,21.736 218.148,20.584 220.452,20.584 C223.224,20.584 224.664,22.276 224.664,25.588 L224.664,37 L227.544,37 L227.544,25.084 C227.544,20.584 225.132,17.992 221.316,17.992 C218.544,17.992 216.96,19.36 216.06,21.448 L215.916,21.448 L215.916,18.424 L213.036,18.424 L213.036,37 z" fill="#000000"/>
    <path d="M249.144,39.052 C249.144,35.992 247.164,34.12 242.556,34.12 L238.596,34.12 C236.904,34.12 235.752,33.832 235.752,32.716 C235.752,31.564 236.976,30.952 238.2,30.628 C238.74,30.736 239.388,30.808 240,30.808 C244.248,30.808 247.02,28.18 247.02,24.4 C247.02,22.42 246.228,20.764 244.896,19.612 L244.896,18.424 L248.424,18.424 L248.424,15.904 L245.652,15.904 C244.104,15.904 243.492,16.948 243.492,18.388 L243.492,18.712 C242.484,18.244 241.296,17.992 239.964,17.992 C235.752,17.992 232.98,20.62 232.98,24.4 C232.98,26.992 234.276,29.044 236.472,30.088 L236.472,30.232 C234.6,30.7 233.268,31.6 233.268,33.472 C233.268,34.732 233.88,35.56 234.924,36.064 L234.924,36.46 C233.088,36.964 231.972,38.044 231.972,40.06 C231.972,42.976 234.348,44.632 240.144,44.632 C246.12,44.632 249.144,42.868 249.144,39.052 z M246.444,39.268 C246.444,41.284 244.572,42.292 241.368,42.292 L238.704,42.292 C235.788,42.292 234.672,40.96 234.672,39.34 C234.672,38.188 235.212,37.36 236.4,36.82 L242.592,36.82 C245.472,36.82 246.444,37.792 246.444,39.268 z M240,28.504 C237.552,28.504 236.004,27.352 236.004,24.904 L236.004,23.896 C236.004,21.448 237.552,20.296 240,20.296 C242.448,20.296 243.996,21.448 243.996,23.896 L243.996,24.904 C243.996,27.352 242.448,28.504 240,28.504 z" fill="#000000"/>
    <path d="M264.012,37 L267.504,37 L270.096,28.072 L271.68,22.42 L271.752,22.42 L273.372,28.072 L275.964,37 L279.528,37 L284.46,18.424 L281.76,18.424 L279.744,26.452 L277.836,34.588 L277.764,34.588 L275.46,26.452 L273.048,18.424 L270.492,18.424 L268.152,26.452 L265.884,34.588 L265.812,34.588 L263.832,26.452 L261.852,18.424 L259.044,18.424 z" fill="#000000"/>
    <path d="M290.076,14.068 C291.3,14.068 291.84,13.42 291.84,12.448 L291.84,11.98 C291.84,11.008 291.3,10.36 290.076,10.36 C288.852,10.36 288.312,11.008 288.312,11.98 L288.312,12.448 C288.312,13.42 288.852,14.068 290.076,14.068 z M288.636,37 L291.516,37 L291.516,18.424 L288.636,18.424 z" fill="#000000"/>
    <path d="M310.092,37 L310.092,34.48 L299.04,34.48 L309.804,20.584 L309.804,18.424 L296.088,18.424 L296.088,20.944 L306.312,20.944 L295.764,34.588 L295.764,37 z" fill="#000000"/>
    <path d="M326.688,37 L326.688,34.48 L324.564,34.48 L324.564,24.256 C324.564,20.332 321.9,17.992 317.436,17.992 C314.088,17.992 311.856,19.648 310.848,21.628 L312.576,23.248 C313.584,21.556 315.06,20.476 317.292,20.476 C320.244,20.476 321.684,21.916 321.684,24.544 L321.684,26.38 L318.012,26.38 C312.612,26.38 310.092,28.324 310.092,31.816 C310.092,35.272 312.396,37.432 316.32,37.432 C318.912,37.432 320.892,36.244 321.684,33.976 L321.864,33.976 C322.08,35.704 322.944,37 325.068,37 z M316.788,34.984 C314.556,34.984 313.116,33.94 313.116,32.104 L313.116,31.348 C313.116,29.548 314.592,28.54 317.868,28.54 L321.684,28.54 L321.684,31.6 C321.684,33.508 319.632,34.984 316.788,34.984 z" fill="#000000"/>
    <path d="M336.444,37 L336.444,24.4 C336.444,22.636 338.316,21.304 341.412,21.304 L343.104,21.304 L343.104,18.424 L341.988,18.424 C338.964,18.424 337.272,20.08 336.624,21.844 L336.444,21.844 L336.444,18.424 L333.564,18.424 L333.564,37 z" fill="#000000"/>
    <path d="M358.656,37 L361.536,37 L361.536,10.36 L358.656,10.36 L358.656,21.448 L358.512,21.448 C357.54,19.108 355.632,17.992 353.076,17.992 C348.432,17.992 345.516,21.772 345.516,27.712 C345.516,33.652 348.432,37.432 353.076,37.432 C355.632,37.432 357.396,36.28 358.512,33.976 L358.656,33.976 z M353.868,34.84 C350.628,34.84 348.612,32.608 348.612,29.296 L348.612,26.128 C348.612,22.816 350.628,20.584 353.868,20.584 C356.496,20.584 358.656,22.096 358.656,24.148 L358.656,31.06 C358.656,33.472 356.496,34.84 353.868,34.84 z" fill="#000000"/>
    <path d="M373.236,37.432 C377.484,37.432 380.112,35.236 380.112,31.636 C380.112,28.828 378.528,27.028 374.424,26.416 L372.984,26.2 C370.68,25.84 369.42,25.12 369.42,23.32 C369.42,21.556 370.68,20.44 373.056,20.44 C375.432,20.44 377.016,21.556 377.844,22.708 L379.752,20.98 C378.24,19.108 376.26,17.992 373.272,17.992 C369.492,17.992 366.648,19.792 366.648,23.464 C366.648,26.92 369.204,28.324 372.624,28.828 L374.1,29.044 C376.548,29.404 377.34,30.52 377.34,31.96 C377.34,33.868 375.9,34.984 373.452,34.984 C371.112,34.984 369.384,33.94 367.944,32.14 L365.892,33.796 C367.548,35.992 369.816,37.432 373.236,37.432 z" fill="#000000"/>
    <path d="M9.06,88.68 L6.036,88.68 L6.036,91.2 L7.908,91.2 C10.68,91.2 11.94,89.436 11.94,86.88 L11.94,65.424 L9.06,65.424 z M10.5,61.068 C11.724,61.068 12.264,60.42 12.264,59.448 L12.264,58.98 C12.264,58.008 11.724,57.36 10.5,57.36 C9.276,57.36 8.736,58.008 8.736,58.98 L8.736,59.448 C8.736,60.42 9.276,61.068 10.5,61.068 z" fill="#000000"/>
    <path d="M29.508,84 L32.388,84 L32.388,65.424 L29.508,65.424 L29.508,78.276 C29.508,80.724 27.276,81.84 25.008,81.84 C22.236,81.84 20.76,80.148 20.76,76.836 L20.76,65.424 L17.88,65.424 L17.88,77.34 C17.88,81.84 20.328,84.432 24.144,84.432 C27.24,84.432 28.644,82.74 29.364,80.976 L29.508,80.976 z" fill="#000000"/>
    <path d="M41.388,84 L41.388,71.112 C41.388,68.736 43.548,67.584 45.816,67.584 C48.552,67.584 49.812,69.276 49.812,72.588 L49.812,84 L52.692,84 L52.692,71.112 C52.692,68.736 54.78,67.584 57.048,67.584 C59.856,67.584 61.116,69.312 61.116,72.588 L61.116,84 L63.996,84 L63.996,72.084 C63.996,67.584 61.728,64.992 57.948,64.992 C54.78,64.992 52.98,66.756 52.296,68.772 L52.224,68.772 C51.216,66.108 48.984,64.992 46.536,64.992 C43.656,64.992 42.36,66.54 41.532,68.448 L41.388,68.448 L41.388,65.424 L38.508,65.424 L38.508,84 z" fill="#000000"/>
    <path d="M69.936,91.2 L72.816,91.2 L72.816,80.976 L72.96,80.976 C74.076,83.28 75.84,84.432 78.396,84.432 C83.04,84.432 85.956,80.652 85.956,74.712 C85.956,68.772 83.04,64.992 78.396,64.992 C75.84,64.992 73.932,66.108 72.96,68.448 L72.816,68.448 L72.816,65.424 L69.936,65.424 z M77.604,81.84 C74.976,81.84 72.816,80.472 72.816,78.06 L72.816,71.148 C72.816,69.096 74.976,67.584 77.604,67.584 C80.844,67.584 82.86,69.816 82.86,73.128 L82.86,76.296 C82.86,79.608 80.844,81.84 77.604,81.84 z" fill="#000000"/>
    <path d="M111.192,91.2 L114.072,91.2 L114.072,65.424 L111.192,65.424 L111.192,68.448 L111.048,68.448 C110.076,66.108 108.168,64.992 105.612,64.992 C100.968,64.992 98.052,68.772 98.052,74.712 C98.052,80.652 100.968,84.432 105.612,84.432 C108.168,84.432 109.932,83.28 111.048,80.976 L111.192,80.976 z M106.404,81.84 C103.164,81.84 101.148,79.608 101.148,76.296 L101.148,73.128 C101.148,69.816 103.164,67.584 106.404,67.584 C109.032,67.584 111.192,69.096 111.192,71.148 L111.192,78.06 C111.192,80.472 109.032,81.84 106.404,81.84 z" fill="#000000"/>
    <path d="M131.64,84 L134.52,84 L134.52,65.424 L131.64,65.424 L131.64,78.276 C131.64,80.724 129.408,81.84 127.14,81.84 C124.368,81.84 122.892,80.148 122.892,76.836 L122.892,65.424 L120.012,65.424 L120.012,77.34 C120.012,81.84 122.46,84.432 126.276,84.432 C129.372,84.432 130.776,82.74 131.496,80.976 L131.64,80.976 z" fill="#000000"/>
    <path d="M142.08,61.068 C143.304,61.068 143.844,60.42 143.844,59.448 L143.844,58.98 C143.844,58.008 143.304,57.36 142.08,57.36 C140.856,57.36 140.316,58.008 140.316,58.98 L140.316,59.448 C140.316,60.42 140.856,61.068 142.08,61.068 z M140.64,84 L143.52,84 L143.52,65.424 L140.64,65.424 z" fill="#000000"/>
    <path d="M156.552,84.432 C160.08,84.432 162.492,82.704 163.68,80.04 L161.592,78.636 C160.584,80.76 158.892,81.876 156.552,81.876 C153.132,81.876 151.368,79.536 151.368,76.296 L151.368,73.128 C151.368,69.888 153.132,67.548 156.552,67.548 C158.82,67.548 160.404,68.664 161.088,70.572 L163.5,69.348 C162.42,66.792 160.224,64.992 156.552,64.992 C151.332,64.992 148.272,68.772 148.272,74.712 C148.272,80.652 151.332,84.432 156.552,84.432 z" fill="#000000"/>
    <path d="M167.748,84 L170.628,84 L170.628,77.376 L173.4,74.532 L179.556,84 L183.048,84 L175.488,72.768 L182.364,65.424 L178.872,65.424 L173.616,71.076 L170.772,74.244 L170.628,74.244 L170.628,57.36 L167.748,57.36 z" fill="#000000"/>
    <path d="M192.336,84 L192.336,81.48 L189.6,81.48 L189.6,57.36 L186.72,57.36 L186.72,81.012 C186.72,82.74 187.8,84 189.78,84 z" fill="#000000"/>
    <path d="M203.46,78.06 L202.452,81.084 L202.272,81.084 L201.408,78.06 L196.944,65.424 L194.064,65.424 L201.012,84.72 L199.608,88.68 L196.692,88.68 L196.692,91.2 L198.168,91.2 C200.904,91.2 201.66,90.552 202.488,88.32 L210.804,65.424 L207.96,65.424 z" fill="#000000"/>
    <path d="M216.312,84.432 C217.824,84.432 218.508,83.568 218.508,82.344 L218.508,81.876 C218.508,80.652 217.824,79.788 216.312,79.788 C214.8,79.788 214.116,80.652 214.116,81.876 L214.116,82.344 C214.116,83.568 214.8,84.432 216.312,84.432 z" fill="#000000"/>
  </g>
</svg>
