<?xml version="1.0" standalone="no"?>
<!DOCTYPE svg PUBLIC "-//W3C//DTD SVG 1.1//EN" "http://www.w3.org/Graphics/SVG/1.1/DTD/svg11.dtd" >
<svg xmlns="http://www.w3.org/2000/svg">
<metadata></metadata>
<defs>
<font id="knilemedium_italic" horiz-adv-x="1298" >
<font-face units-per-em="2048" ascent="1536" descent="-512" />
<missing-glyph horiz-adv-x="524" />
<glyph unicode=" "  horiz-adv-x="524" />
<glyph unicode="&#x09;" horiz-adv-x="524" />
<glyph unicode="&#xa0;" horiz-adv-x="524" />
<glyph unicode="!" horiz-adv-x="589" d="M86 115q0 56 40 95.5t97 39.5t97 -39.5t40 -95.5q0 -60 -40 -101t-97 -41t-97 41t-40 101zM178 406l154 1075h235l-215 -1075h-174z" />
<glyph unicode="&#x22;" horiz-adv-x="702" d="M219 1034l53 447h189l-99 -447h-143zM528 1034l54 447h188l-98 -447h-144z" />
<glyph unicode="#" horiz-adv-x="1310" d="M39 389v143h274l144 371h-219v144h274l150 387h172l-150 -387h266l150 387h172l-150 -387h219v-144h-274l-143 -371h219v-143h-275l-151 -389h-172l151 389h-266l-149 -389h-172l149 389h-219zM485 532h267l143 371h-266z" />
<glyph unicode="$" horiz-adv-x="1097" d="M43 51l68 387h174l-43 -241q115 -54 252 -54q109 0 185.5 73.5t76.5 184.5q0 56 -29 104t-76 84t-103.5 70.5t-112.5 72t-103 80t-76 103.5t-29 134q0 170 122.5 287.5t299.5 125.5l31 178h147l-32 -186q153 -18 295 -82l-60 -338h-174l37 211q-98 53 -227 53 q-98 0 -163 -61.5t-65 -157.5q0 -51 29 -94t76 -75.5t103 -65t112.5 -70t103.5 -81.5t76 -108.5t29 -142.5q0 -195 -121.5 -324.5t-310.5 -140.5l-35 -200h-148l35 203q-176 14 -344 71z" />
<glyph unicode="%" horiz-adv-x="1509" d="M47 0l1264 1434h209l-1264 -1434h-209zM176 1065q0 169 96 282t254 113q115 0 187.5 -72t72.5 -182q0 -172 -95.5 -287.5t-254.5 -115.5q-115 0 -187.5 73.5t-72.5 188.5zM344 1071q0 -64 26.5 -101.5t78.5 -37.5q55 0 95 42t57 101t17 125q0 61 -26 96t-78 35 q-56 0 -95.5 -40t-57 -97t-17.5 -123zM791 233q0 169 96 282.5t254 113.5q115 0 187.5 -72t72.5 -182q0 -172 -95.5 -288t-254.5 -116q-115 0 -187.5 73.5t-72.5 188.5zM958 240q0 -64 26.5 -102t78.5 -38q55 0 95 42t57.5 101.5t17.5 125.5q0 61 -26.5 96t-78.5 35 q-56 0 -95.5 -40t-57 -97t-17.5 -123z" />
<glyph unicode="&#x26;" horiz-adv-x="1415" d="M61 371q0 146 103.5 265.5t265.5 178.5q-100 148 -100 287q0 153 116 255.5t293 102.5q200 0 375 -98l-55 -313h-174l35 196q-81 49 -181 49q-84 0 -141 -53.5t-57 -130.5q0 -103 104 -250l305 -420q69 136 84 281h332l-27 -150h-145q-43 -152 -131 -278l104 -143h187 l-27 -150h-305l-100 141q-86 -79 -196.5 -123.5t-229.5 -44.5q-191 0 -313 115t-122 283zM283 389q0 -107 65 -174.5t176 -67.5q162 0 299 134l-299 405q-105 -44 -173 -125.5t-68 -171.5z" />
<glyph unicode="'" horiz-adv-x="393" d="M143 1044q115 112 115 246q0 55 -35 119l207 100q41 -70 41 -149q0 -109 -71 -209t-189 -178z" />
<glyph unicode="(" horiz-adv-x="604" d="M98 438q0 309 151 600t419 525l98 -97q-218 -231 -340.5 -494t-122.5 -534q0 -327 170 -628l-117 -82q-121 158 -189.5 340t-68.5 370z" />
<glyph unicode=")" horiz-adv-x="604" d="M-121 -188q218 231 340.5 494t122.5 534q0 327 -170 628l117 82q121 -158 189.5 -340t68.5 -370q0 -309 -151 -600t-419 -525z" />
<glyph unicode="*" horiz-adv-x="843" d="M156 1010l260 114l-213 119l92 121l188 -158l31 275h152l-68 -271l238 154l63 -135l-260 -117l213 -115l-92 -120l-189 155l-30 -272h-152l68 266l-238 -152z" />
<glyph unicode="+" horiz-adv-x="1193" d="M133 555v166h393v422h181v-422h395v-166h-395v-424h-181v424h-393z" />
<glyph unicode="," horiz-adv-x="499" d="M-27 -193q115 112 115 246q0 55 -35 119l207 100q41 -70 41 -149q0 -109 -71 -209t-189 -178z" />
<glyph unicode="-" horiz-adv-x="696" d="M84 526l31 183h530l-31 -183h-530z" />
<glyph unicode="." horiz-adv-x="538" d="M53 117q0 59 44.5 102t103.5 43q58 0 99.5 -42.5t41.5 -102.5q0 -59 -41.5 -101.5t-99.5 -42.5q-59 0 -103.5 43t-44.5 101z" />
<glyph unicode="/" horiz-adv-x="813" d="M-135 -221l932 1757h194l-932 -1757h-194z" />
<glyph unicode="0" horiz-adv-x="1255" d="M139 440q0 125 15.5 245t47 234.5t83.5 210t120 168.5t161.5 113.5t203.5 40.5q192 0 302 -128t110 -341q0 -125 -15.5 -244.5t-47.5 -233.5t-84 -209.5t-120 -167.5t-161 -112.5t-203 -40.5q-191 0 -301.5 126.5t-110.5 338.5zM354 446q0 -138 56 -216t159 -78 q96 0 174 75t125.5 197t73 266.5t25.5 292.5q0 137 -56 215t-159 78q-96 0 -174.5 -75t-126 -196.5t-72.5 -265.5t-25 -293z" />
<glyph unicode="1" horiz-adv-x="804" d="M43 0l27 150h211l188 1071l-248 -199l-96 125l385 287h201l-226 -1284h195l-27 -150h-610z" />
<glyph unicode="2" horiz-adv-x="1060" d="M-12 0l18 96q21 107 77.5 205t130 172t158 142t164.5 127.5t145.5 116t105.5 119t40 126.5q0 77 -50 126.5t-138 49.5q-98 0 -174 -72.5t-121 -177.5l-178 80q72 158 201 252t295 94q167 0 276 -99t109 -241q0 -69 -24 -133.5t-66 -118t-96.5 -105t-116 -98.5 t-124.5 -92.5t-123.5 -93.5t-110.5 -96t-87.5 -104.5t-52.5 -114.5h483l39 221h178l-67 -381h-891z" />
<glyph unicode="3" horiz-adv-x="1036" d="M-27 291l181 74q23 -95 91 -157.5t161 -62.5q127 0 218 88.5t91 229.5q0 104 -76.5 171.5t-200.5 67.5h-63l26 154q96 8 181.5 42.5t142.5 96t57 135.5q0 71 -50.5 116.5t-123.5 45.5q-88 0 -156 -45.5t-112 -118.5l-166 91q74 112 191 177.5t258 65.5q154 0 261 -87.5 t107 -233.5q0 -103 -57 -181.5t-143 -119.5t-187 -49q150 -11 240 -99.5t90 -226.5q0 -141 -73 -255t-195 -176.5t-267 -62.5q-163 0 -273.5 85.5t-152.5 234.5z" />
<glyph unicode="4" horiz-adv-x="1134" d="M12 428l23 129l792 877h209l-147 -856h172l-27 -150h-172l-49 -278h172l-27 -150h-573l27 150h200l50 278h-650zM248 578h440l107 604z" />
<glyph unicode="5" horiz-adv-x="1099" d="M29 283l176 79q24 -93 92.5 -155t161.5 -62q142 0 233.5 102.5t91.5 248.5q0 114 -63 183t-168 69q-135 0 -236 -93l-145 54l176 725h729l-55 -314h-178l26 154h-370l-111 -424q107 72 234 72q160 0 270.5 -122.5t110.5 -295.5q0 -149 -71 -271t-197 -192t-281 -70 q-163 0 -273.5 84t-152.5 228z" />
<glyph unicode="6" horiz-adv-x="1171" d="M137 444q0 155 26 301t82 275.5t135.5 226t193.5 153t249 56.5q192 0 334 -92l-100 -162q-107 80 -250 80q-150 0 -261.5 -141t-158.5 -377q55 74 140.5 121t187.5 47q154 0 259 -113.5t105 -275.5q0 -247 -151 -409.5t-391 -162.5q-189 0 -294.5 123.5t-105.5 349.5z M340 420q0 -109 57 -192t148 -83q95 0 168 54.5t110 141t37 189.5q0 104 -55.5 167t-149.5 63q-139 0 -227 -99t-88 -241z" />
<glyph unicode="7" horiz-adv-x="993" d="M123 1073l63 361h949l-29 -162q-575 -587 -705 -1272h-217q162 757 688 1274h-536l-35 -201h-178z" />
<glyph unicode="8" horiz-adv-x="1212" d="M94 344q0 152 95.5 267.5t246.5 162.5q-73 32 -126.5 105t-53.5 153q0 121 66 220.5t177.5 154.5t243.5 55q160 0 269.5 -97t109.5 -239q0 -122 -77 -216t-201 -142q94 -30 163.5 -110t69.5 -181q0 -219 -160.5 -365.5t-398.5 -146.5q-188 0 -306 108.5t-118 270.5z M309 356q0 -98 58 -159.5t168 -61.5q142 0 234.5 100.5t92.5 235.5q0 96 -65 150.5t-176 54.5q-136 0 -224 -94t-88 -226zM465 1034q0 -79 49.5 -131.5t138.5 -52.5q107 0 183.5 79t76.5 187q0 80 -48.5 130t-137.5 50q-114 0 -188 -76.5t-74 -185.5z" />
<glyph unicode="9" horiz-adv-x="1153" d="M74 72l102 161q101 -83 250 -83q146 0 259.5 152.5t150.5 387.5q-53 -73 -136.5 -118.5t-177.5 -45.5q-152 0 -257 114t-105 271q0 151 68 275.5t192 197t278 72.5q182 0 285.5 -116t103.5 -318q0 -129 -18 -254.5t-53.5 -243.5t-91.5 -217t-128 -173.5t-168 -116.5 t-206 -42q-101 0 -194 26.5t-154 70.5zM379 922q0 -95 54 -159.5t149 -64.5q133 0 218 101t85 239q0 103 -59 173.5t-146 70.5q-130 0 -215.5 -108t-85.5 -252z" />
<glyph unicode=":" horiz-adv-x="548" d="M53 117q0 59 44.5 102t103.5 43q58 0 99.5 -42.5t41.5 -102.5q0 -59 -41.5 -101.5t-99.5 -42.5q-59 0 -103.5 43t-44.5 101zM201 893q0 59 44 102t103 43q58 0 99.5 -42.5t41.5 -102.5q0 -59 -41.5 -101t-99.5 -42q-59 0 -103 42.5t-44 100.5z" />
<glyph unicode=";" horiz-adv-x="518" d="M-18 -193q114 111 114 246q0 55 -35 119l207 100q41 -70 41 -149q0 -109 -71 -209t-189 -178zM168 893q0 59 44 102t103 43t100.5 -42.5t41.5 -102.5q0 -59 -42 -101t-100 -42q-59 0 -103 42.5t-44 100.5z" />
<glyph unicode="&#x3c;" horiz-adv-x="1107" d="M127 563v156l846 385v-186l-641 -275l641 -278v-187z" />
<glyph unicode="=" horiz-adv-x="1277" d="M174 350v168h967v-168h-967zM174 741v166h967v-166h-967z" />
<glyph unicode="&#x3e;" horiz-adv-x="1107" d="M176 178v187l641 274l-641 279v186l846 -385v-156z" />
<glyph unicode="?" horiz-adv-x="868" d="M102 1219q63 127 174.5 201.5t272.5 74.5q165 0 274 -97.5t109 -240.5q0 -68 -24.5 -130.5t-64 -111t-88 -93.5t-98.5 -85.5t-92.5 -79t-74 -83t-39.5 -89.5l-15 -79h-192l16 100q10 62 40.5 118.5t71 100t87.5 85.5t91.5 80.5t81 78t59 86t22.5 96.5q0 75 -54.5 123.5 t-136.5 48.5q-83 0 -148 -55.5t-104 -134.5zM178 115q0 56 40 95.5t97 39.5t97.5 -39.5t40.5 -95.5q0 -60 -40.5 -101t-97.5 -41t-97 41t-40 101z" />
<glyph unicode="@" horiz-adv-x="1892" d="M121 393q0 162 47.5 313t135.5 273.5t206.5 214t268.5 142t313 50.5q128 0 239.5 -33t195 -92t143.5 -139t91 -177.5t31 -203.5q0 -110 -32 -219t-87.5 -197t-138.5 -143t-178 -55q-93 0 -148 42t-69 112q-48 -69 -120 -111.5t-163 -42.5q-127 0 -212 96t-85 236 q0 199 120 337t294 138q77 0 134 -40.5t93 -105.5l23 125h153l-90 -514q-4 -24 -4 -37q0 -92 90 -92q75 0 134.5 76.5t88.5 181.5t29 207q0 228 -146 366t-401 138q-162 0 -308 -68.5t-249.5 -182t-164 -267t-60.5 -318.5q0 -161 63 -286.5t184 -197t283 -71.5q97 0 196 30 t181 81l74 -129q-198 -129 -467 -129q-196 0 -353.5 88.5t-246 246.5t-88.5 357zM733 473q0 -93 43.5 -147t124.5 -54q115 0 190.5 96.5t75.5 227.5q0 91 -48.5 141.5t-137.5 50.5q-104 0 -176 -95.5t-72 -219.5z" />
<glyph unicode="A" horiz-adv-x="1392" d="M-98 0l26 150h129l684 1288h230l223 -1288h133l-27 -150h-518l27 150h170l-51 307h-518l-162 -307h172l-27 -150h-491zM494 616h409l-94 621z" />
<glyph unicode="B" horiz-adv-x="1316" d="M16 0l27 150h164l201 1134h-164l26 150h586q155 0 256.5 -85t101.5 -219q0 -121 -76.5 -220t-197.5 -146q101 -26 171.5 -105t70.5 -182q0 -138 -70.5 -247.5t-192 -169.5t-270.5 -60h-633zM420 143h198q138 0 237 94.5t99 227.5q0 101 -68.5 158t-174.5 57h-197z M539 823h184q116 0 194 84.5t78 202.5q0 82 -56 131t-144 49h-174z" />
<glyph unicode="C" horiz-adv-x="1398" d="M147 588q0 184 64 347.5t171 278.5t250.5 181.5t297.5 66.5q276 0 493 -119l-67 -382h-174l45 253q-137 72 -303 72q-144 0 -271 -96t-201.5 -254.5t-74.5 -333.5q0 -201 93.5 -326.5t264.5 -125.5q119 0 227 70.5t177 185.5l147 -109q-94 -155 -246 -242.5t-329 -87.5 q-127 0 -234 49.5t-178.5 134t-111.5 197.5t-40 240z" />
<glyph unicode="D" horiz-adv-x="1503" d="M16 0l27 150h164l201 1134h-164l26 150h572q256 0 420.5 -155t164.5 -407t-100.5 -449.5t-287.5 -310t-431 -112.5h-592zM420 150h176q168 0 306.5 96t217 260.5t78.5 359.5q0 192 -113.5 305t-293.5 113h-170z" />
<glyph unicode="E" horiz-adv-x="1181" d="M16 0l27 150h164l201 1134h-164l26 150h947l-62 -349h-174l37 201h-397l-82 -459h422l-29 -161h-422l-90 -519h407l39 230h174l-65 -377h-959z" />
<glyph unicode="F" horiz-adv-x="1144" d="M16 0l27 150h164l201 1134h-164l26 150h963l-62 -353h-174l37 205h-413l-89 -491h429l-27 -162h-430l-84 -483h205l-27 -150h-582z" />
<glyph unicode="G" horiz-adv-x="1531" d="M150 598q0 183 65 345t175.5 275t261 178.5t315.5 65.5q290 0 532 -116l-61 -355h-174l39 221q-158 76 -338 76q-161 0 -296 -92t-212.5 -247.5t-77.5 -336.5q0 -202 94.5 -333.5t247.5 -131.5q171 0 305.5 111.5t175.5 296.5h-297l31 168h485l-129 -723h-174l37 199 q-88 -110 -210 -171t-255 -61q-155 0 -279.5 85t-192.5 229t-68 317z" />
<glyph unicode="H" horiz-adv-x="1642" d="M16 0l27 150h164l201 1134h-164l26 150h541l-27 -150h-163l-84 -469h669l84 469h-164l27 150h541l-27 -150h-164l-200 -1134h163l-26 -150h-541l27 150h164l88 497h-670l-88 -497h164l-27 -150h-541z" />
<glyph unicode="I" horiz-adv-x="759" d="M16 0l27 150h164l201 1134h-164l26 150h541l-27 -150h-163l-201 -1134h162l-27 -150h-539z" />
<glyph unicode="J" horiz-adv-x="718" d="M-176 -236l43 154q57 -33 127 -33q76 0 134 57.5t73 147.5l211 1194h-197l27 150h565l-27 -150h-155l-213 -1206q-30 -167 -144 -259.5t-272 -92.5q-98 0 -172 38z" />
<glyph unicode="K" horiz-adv-x="1415" d="M16 0l27 150h164l199 1134h-164l26 150h508l-26 -150h-132l-92 -520l602 528h-151l24 142h535l-27 -150h-147l-621 -536l447 -598h162l-27 -150h-555l25 145h147l-420 578l-100 -573h137l-27 -150h-514z" />
<glyph unicode="L" horiz-adv-x="1146" d="M16 0l27 150h164l201 1134h-164l26 150h549l-26 -150h-175l-198 -1137h411l48 267h174l-74 -414h-963z" />
<glyph unicode="M" horiz-adv-x="1984" d="M16 0l27 150h164l201 1134h-164l26 150h439l258 -1033l618 1033h451l-27 -150h-164l-200 -1134h163l-26 -150h-527l27 150h156l186 1050l-629 -1048h-166l-258 1048l-186 -1050h156l-27 -150h-498z" />
<glyph unicode="N" horiz-adv-x="1617" d="M16 0l27 150h164l201 1134h-164l26 150h373l508 -1139l174 989h-164l27 150h508l-27 -150h-164l-227 -1284h-213l-502 1143l-176 -993h164l-27 -150h-508z" />
<glyph unicode="O" horiz-adv-x="1613" d="M145 580q0 178 62 341t167.5 281.5t254 189t313.5 70.5q175 0 312 -77t211.5 -211.5t74.5 -303.5q0 -179 -62 -344.5t-167 -288.5t-254.5 -196.5t-315.5 -73.5q-175 0 -311.5 80.5t-210.5 220t-74 312.5zM375 596q0 -198 103.5 -324.5t275.5 -126.5q153 0 283 103.5 t202 266t72 339.5q0 195 -103 312.5t-280 117.5q-152 0 -280.5 -97.5t-200.5 -255.5t-72 -335z" />
<glyph unicode="P" horiz-adv-x="1224" d="M16 0l27 150h164l201 1134h-164l26 150h588q175 0 285 -94t110 -248q0 -151 -73 -270t-197.5 -183t-277.5 -64h-209l-76 -425h205l-27 -150h-582zM522 725h178q136 0 230 105.5t94 248.5q0 96 -63.5 151.5t-161.5 55.5h-178z" />
<glyph unicode="Q" horiz-adv-x="1613" d="M145 580q0 178 62 341t167.5 281.5t254 189t313.5 70.5q175 0 312 -77t211.5 -211.5t74.5 -303.5q0 -233 -99 -436t-275.5 -329.5t-389.5 -137.5l-90 -117q99 -47 219 -47q217 0 383 177l98 -140q-92 -98 -208.5 -150t-247.5 -52q-171 0 -322 110q-55 -65 -121 -65 q-45 0 -76.5 33t-31.5 83t36.5 84.5t84.5 34.5q30 0 55 -14l59 76q-213 40 -341 205t-128 395zM375 596q0 -198 103.5 -324.5t275.5 -126.5q153 0 283 103.5t202 266t72 339.5q0 195 -103 312.5t-280 117.5q-152 0 -280.5 -97.5t-200.5 -255.5t-72 -335z" />
<glyph unicode="R" horiz-adv-x="1314" d="M16 0l27 150h164l201 1134h-164l26 150h596q162 0 270.5 -92t108.5 -240q0 -157 -105.5 -280.5t-267.5 -176.5l203 -495h174l-26 -150h-322l-231 608h-170l-82 -458h153l-26 -150h-529zM524 752h168q132 0 228 98.5t96 234.5q0 93 -58 147t-151 54h-189z" />
<glyph unicode="S" horiz-adv-x="1099" d="M31 51l69 387h174l-43 -235q127 -60 261 -60q116 0 193 77t77 192q0 58 -30 106t-78.5 83t-107 68t-116.5 69t-106.5 77.5t-78.5 102.5t-30 135q0 183 133.5 298t327.5 115q199 0 424 -82l-62 -350h-174l39 215q-109 56 -231 56q-102 0 -173 -63.5t-71 -156.5 q0 -51 30.5 -93.5t79 -74.5t107 -63t117.5 -68t107.5 -80.5t79 -109t30.5 -145.5q0 -212 -138 -346t-349 -134q-228 0 -461 80z" />
<glyph unicode="T" horiz-adv-x="1222" d="M123 1020l74 414h1151l-74 -414h-174l47 266h-295l-201 -1136h178l-26 -150h-570l27 150h178l201 1136h-295l-47 -266h-174z" />
<glyph unicode="U" horiz-adv-x="1527" d="M201 1284l26 150h541l-27 -150h-168l-137 -780q-8 -44 -8 -90q0 -116 74.5 -191.5t204.5 -75.5q137 0 240 94t130 236l144 807h-168l26 150h541l-27 -150h-159l-144 -809q-39 -232 -196 -369t-400 -137q-215 0 -348 119.5t-133 302.5q0 55 10 123l137 770h-159z" />
<glyph unicode="V" horiz-adv-x="1411" d="M127 1284l27 150h565l-27 -150h-192l159 -1065l529 1065h-191l27 150h547l-27 -150h-153l-666 -1290h-233l-211 1290h-154z" />
<glyph unicode="W" horiz-adv-x="2109" d="M127 1284l27 150h577l-26 -150h-207l80 -1087l526 1237h242l94 -1231l452 1081h-206l26 150h557l-26 -150h-154l-573 -1290h-252l-101 1157l-512 -1157h-250l-118 1290h-156z" />
<glyph unicode="X" horiz-adv-x="1288" d="M-98 0l26 150h142l491 591l-260 543h-141l26 150h512l-26 -144h-146l195 -409l338 409h-156l27 144h487l-26 -150h-140l-458 -551l278 -583h152l-27 -150h-530l26 143h154l-215 451l-363 -451h160l-27 -143h-499z" />
<glyph unicode="Y" d="M127 1284l27 150h524l-27 -144h-151l198 -512l385 512h-151l26 144h496l-27 -150h-141l-520 -674l-82 -460h178l-26 -150h-570l27 150h178l82 464l-272 670h-154z" />
<glyph unicode="Z" horiz-adv-x="1200" d="M0 0l25 135l938 1145h-529l-43 -246h-178l72 400h972l-24 -136l-936 -1144h565l49 276h179l-76 -430h-1014z" />
<glyph unicode="[" horiz-adv-x="612" d="M47 -289l326 1848h368l-24 -146h-182l-275 -1556h182l-24 -146h-371z" />
<glyph unicode="\" horiz-adv-x="800" d="M190 1536h179l313 -1757h-178z" />
<glyph unicode="]" horiz-adv-x="612" d="M-90 -289l24 146h183l274 1556h-182l24 146h371l-325 -1848h-369z" />
<glyph unicode="^" horiz-adv-x="1017" d="M76 651l514 783h162l235 -783h-180l-162 582l-373 -582h-196z" />
<glyph unicode="_" horiz-adv-x="1232" d="M-72 -209l27 150h1118l-26 -150h-1119z" />
<glyph unicode="`" horiz-adv-x="575" d="M276 1501h211l95 -295h-162z" />
<glyph unicode="a" d="M94 418q0 180 74.5 332.5t202 240.5t276.5 88q102 0 179 -57t118 -148l31 175h199l-160 -904h164l-25 -145h-360l30 174q-64 -92 -158 -147.5t-208 -55.5q-157 0 -260 127.5t-103 319.5zM305 434q0 -139 58 -218t165 -79q104 0 191.5 69t135.5 180.5t48 238.5 q0 140 -62.5 214t-176.5 74q-95 0 -178.5 -67t-132 -178t-48.5 -234z" />
<glyph unicode="b" horiz-adv-x="1290" d="M111 0l235 1335h-164l29 146h360l-106 -600q143 198 362 198q160 0 266.5 -130t106.5 -316q0 -177 -73.5 -329t-204 -242.5t-287.5 -90.5q-105 0 -181 57t-116 154l-33 -182h-194zM381 428q0 -136 62.5 -213.5t174.5 -77.5q102 0 188.5 70t134.5 182t48 236 q0 134 -62.5 211t-172.5 77q-104 0 -191 -70.5t-134.5 -181.5t-47.5 -233z" />
<glyph unicode="c" horiz-adv-x="1091" d="M96 430q0 179 78 328.5t209.5 235t286.5 85.5q206 0 379 -98l-52 -299h-157l30 182q-85 51 -200 51q-96 0 -180 -66t-133.5 -176t-49.5 -235q0 -133 64 -217t166 -84q86 0 166 52t137 135l127 -101q-76 -120 -194 -187t-261 -67q-185 0 -300.5 130t-115.5 331z" />
<glyph unicode="d" horiz-adv-x="1308" d="M94 418q0 135 45 257.5t120.5 211t179 140.5t216.5 52q102 0 179 -57t118 -148l82 461h-164l25 146h365l-236 -1336h164l-25 -145h-360l31 174q-64 -92 -159.5 -147.5t-211.5 -55.5q-160 0 -264.5 127.5t-104.5 319.5zM305 434q0 -139 59.5 -218t170.5 -79q105 0 193 69 t136.5 180.5t48.5 238.5q0 140 -63 214t-178 74q-97 0 -182.5 -67t-135 -178t-49.5 -234z" />
<glyph unicode="e" horiz-adv-x="1177" d="M96 444q0 132 47.5 250.5t127.5 202.5t188 133t225 49q182 0 292.5 -115.5t110.5 -285.5q0 -84 -28 -184h-756q-2 -14 -2 -43q0 -135 68.5 -224.5t183.5 -89.5q88 0 176 45.5t156 118.5l116 -111q-83 -102 -205.5 -159.5t-263.5 -57.5q-200 0 -318 131t-118 340zM332 633 h542q7 49 7 61q0 102 -58.5 165t-156.5 63q-110 0 -201.5 -79.5t-132.5 -209.5z" />
<glyph unicode="f" horiz-adv-x="751" d="M-168 -369l37 148q34 -17 82 -17q75 0 126.5 49.5t65.5 131.5l168 960h-170l25 146h172l20 118q26 150 133.5 237t262.5 87q85 0 178 -29l-33 -151q-60 24 -131 24q-82 0 -140.5 -45.5t-70.5 -120.5l-20 -120h249l-24 -146h-252l-170 -969q-28 -155 -127 -241t-252 -86 q-69 0 -129 24z" />
<glyph unicode="g" horiz-adv-x="1253" d="M57 -262l99 123q48 -45 120.5 -74t157.5 -29q144 0 246.5 71t126.5 208l27 151q-63 -94 -158.5 -146t-214.5 -52q-159 0 -263 124.5t-104 311.5q0 133 45 254t120 208.5t179 139t217 51.5q102 0 180.5 -57t118.5 -148l33 175h199l-176 -998q-40 -226 -199.5 -337 t-394.5 -111q-105 0 -200 37t-159 98zM305 442q0 -135 59 -212.5t168 -77.5q105 0 193.5 67t138 175.5t49.5 230.5q0 140 -63 214t-178 74q-97 0 -182.5 -66t-135 -175t-49.5 -230z" />
<glyph unicode="h" d="M115 0l233 1335h-164l25 146h364l-106 -604q61 87 155 141.5t199 54.5q131 0 217 -88t86 -217q0 -42 -6 -76l-96 -547h164l-25 -145h-364l118 672q0 1 3.5 21.5t3.5 31.5q0 83 -52 132.5t-143 49.5q-104 0 -193.5 -84.5t-109.5 -201.5l-111 -621h-198z" />
<glyph unicode="i" horiz-adv-x="632" d="M121 903l24 146h363l-160 -904h164l-25 -145h-362l160 903h-164zM313 1376q0 54 38 91.5t95 37.5t95.5 -37.5t38.5 -91.5q0 -57 -38.5 -94t-95.5 -37q-58 0 -95.5 37t-37.5 94z" />
<glyph unicode="j" horiz-adv-x="595" d="M-168 -377l27 150q39 -13 80 -13q70 0 118.5 49.5t63.5 133.5l170 960h-164l25 146h362l-197 -1110q-27 -153 -123.5 -242.5t-244.5 -89.5q-55 0 -117 16zM313 1376q0 54 38 91.5t95 37.5t95.5 -37.5t38.5 -91.5q0 -57 -38.5 -94t-95.5 -37q-58 0 -95.5 37t-37.5 94z" />
<glyph unicode="k" horiz-adv-x="1122" d="M113 0l235 1335h-164l25 146h362l-143 -819q153 48 268 150t164 237h238q-60 -161 -192.5 -277.5t-305.5 -181.5l295 -445h160l-25 -145h-274l-348 551l-97 -551h-198z" />
<glyph unicode="l" horiz-adv-x="622" d="M113 0l235 1335h-164l25 146h364l-235 -1336h164l-25 -145h-364z" />
<glyph unicode="m" horiz-adv-x="1886" d="M121 903l24 146h359l-33 -187q55 90 147 150.5t189 60.5q98 0 166.5 -57t89.5 -146q63 93 158 148t211 55q123 0 202.5 -83.5t79.5 -207.5q0 -42 -6 -82l-96 -555h162l-25 -145h-363l121 686q6 48 6 55q0 74 -44.5 120t-120.5 46q-101 0 -180 -74t-99 -188l-115 -645 h-198l121 684q4 32 4 55q0 77 -42 122.5t-120 45.5q-98 0 -181.5 -85.5t-105.5 -207.5l-108 -614h-199l160 903h-164z" />
<glyph unicode="n" horiz-adv-x="1308" d="M121 903l24 146h359l-29 -172q61 87 156 141.5t200 54.5q131 0 217.5 -88t86.5 -217q0 -36 -7 -76l-96 -547h164l-25 -145h-364l119 672q6 24 6 53q0 83 -52 132.5t-143 49.5q-104 0 -194.5 -84.5t-110.5 -201.5l-108 -621h-199l160 903h-164z" />
<glyph unicode="o" horiz-adv-x="1241" d="M96 432q0 180 76 328.5t213.5 235.5t308.5 87q204 0 330.5 -126.5t126.5 -327.5q0 -136 -44.5 -257.5t-123 -210.5t-191 -141.5t-241.5 -52.5q-207 0 -331 128.5t-124 336.5zM307 440q0 -137 68 -222t182 -85q106 0 195 69.5t138.5 180.5t49.5 235q0 135 -69.5 217.5 t-184.5 82.5q-106 0 -194 -68t-136.5 -177t-48.5 -233z" />
<glyph unicode="p" horiz-adv-x="1304" d="M59 -383l226 1286h-164l24 146h361l-31 -168q65 90 158 144t209 54q105 0 191 -60t133.5 -162t47.5 -224q0 -177 -73.5 -329t-204 -242.5t-287.5 -90.5q-105 0 -179 56t-114 153l-98 -563h-199zM395 428q0 -136 63 -213.5t175 -77.5q102 0 188.5 70t134.5 182t48 236 q0 134 -63 211t-173 77q-104 0 -191 -70.5t-134.5 -181.5t-47.5 -233z" />
<glyph unicode="q" horiz-adv-x="1251" d="M94 418q0 135 45 257.5t120.5 211t179 140.5t216.5 52q102 0 180.5 -57t118.5 -148l31 175h199l-252 -1432h-199l98 557q-66 -92 -160 -147.5t-210 -55.5q-159 0 -263 128t-104 319zM305 434q0 -138 59 -217.5t168 -79.5q106 0 194.5 69t137.5 180.5t49 238.5 q0 140 -63 214t-178 74q-97 0 -182.5 -67t-135 -178t-49.5 -234z" />
<glyph unicode="r" horiz-adv-x="925" d="M117 903l24 146h361l-41 -236q66 113 160 188.5t190 75.5q100 0 170 -45l-111 -196q-63 34 -137 34q-118 0 -202.5 -86t-108.5 -219l-100 -565h-199l158 903h-164z" />
<glyph unicode="s" horiz-adv-x="976" d="M35 53l47 271h158l-27 -150q100 -49 223 -49q89 0 146 47t57 121q0 39 -26.5 70.5t-68.5 54t-93.5 45t-102.5 49.5t-93 59.5t-68.5 83t-26.5 113.5q0 136 110 221.5t262 85.5q187 0 373 -80l-45 -250h-158l25 140q-92 47 -197 47q-75 0 -125.5 -39.5t-50.5 -99.5 q0 -37 27 -67.5t69.5 -52.5t94.5 -43.5t104 -49t94.5 -60.5t69.5 -85.5t27 -117.5q0 -154 -116.5 -249t-289.5 -95q-203 0 -399 80z" />
<glyph unicode="t" horiz-adv-x="716" d="M111 903l24 146h166l43 245h199l-43 -245h223l-25 -146h-223l-104 -586q-4 -32 -4 -47q0 -51 30.5 -83.5t81.5 -32.5q41 0 99 16l26 -150q-79 -26 -174 -26q-116 0 -191 68.5t-75 170.5q0 24 8 78l104 592h-165z" />
<glyph unicode="u" horiz-adv-x="1277" d="M113 903l24 146h365l-119 -668q-6 -30 -6 -62q0 -78 41 -128t114 -50q105 0 198.5 85t113.5 196l110 627h199l-160 -904h164l-24 -145h-361l33 176q-66 -91 -156.5 -146t-195.5 -55q-123 0 -202 86t-79 209q0 20 10 92l94 541h-163z" />
<glyph unicode="v" horiz-adv-x="1140" d="M27 903l24 146h338l88 -877q118 98 209 203t153 235t62 252q0 27 -2 41h-192l24 146h338q18 -82 18 -175q0 -229 -157 -458t-430 -426h-199l-98 913h-176z" />
<glyph unicode="w" horiz-adv-x="1734" d="M27 903l24 146h332l80 -877q156 181 266.5 385.5t110.5 349.5q0 50 -6 84l-9 58h199l92 -877q171 163 275 336.5t104 333.5q0 21 -4 61h-180l24 146h324q18 -91 18 -196q-1 -216 -143 -439q-144 -225 -404 -424h-176l-73 571q-124 -274 -408 -571h-180l-96 913h-170z" />
<glyph unicode="x" horiz-adv-x="1083" d="M-23 0l21 119l434 424l-168 360h-143l24 146h267l184 -396l272 265h-157l22 131h363l-21 -119l-422 -398l181 -387h153l-24 -145h-277l-194 418l-285 -287h149l-22 -131h-357z" />
<glyph unicode="y" horiz-adv-x="1134" d="M-141 -371l45 150q38 -15 84 -15q84 0 194.5 62t196.5 154l-174 923h-178l24 146h328l166 -914q154 183 250 370.5t96 344.5q0 21 -4 53h-193l25 146h344q18 -99 18 -183q0 -118 -51.5 -262t-135.5 -281.5t-197.5 -269t-232.5 -230t-244.5 -158.5t-229.5 -60 q-76 0 -131 24z" />
<glyph unicode="z" horiz-adv-x="1024" d="M8 0l23 123l694 782h-381l-29 -162h-157l55 306h786l-22 -123l-688 -783h418l30 181h158l-57 -324h-830z" />
<glyph unicode="{" horiz-adv-x="626" d="M78 592l24 145q73 0 122.5 53.5t66.5 153.5l57 324q14 80 49 137.5t89.5 90.5t121 48t150.5 15l-27 -150q-79 0 -131.5 -43.5t-64.5 -114.5l-60 -327q-21 -116 -79.5 -186t-139.5 -85q60 -21 95.5 -73.5t35.5 -126.5q0 -36 -6 -66l-62 -352q-4 -28 -4 -49 q0 -129 142 -129l-25 -146q-138 0 -222.5 69.5t-84.5 182.5q0 30 8 84l60 332q8 46 8 74q0 68 -32 103.5t-91 35.5z" />
<glyph unicode="|" horiz-adv-x="688" d="M281 -422v2026h188v-2026h-188z" />
<glyph unicode="}" horiz-adv-x="626" d="M-78 -289l27 150q79 0 131.5 43t64.5 114l60 328q21 116 79 185.5t140 84.5q-60 21 -95.5 74t-35.5 127q0 36 6 66l61 352q5 35 5 49q0 129 -142 129l25 146q138 0 222.5 -69.5t84.5 -182.5q0 -30 -8 -84l-60 -332q-8 -46 -8 -74q0 -68 32 -103.5t91 -35.5l-24 -146 q-73 0 -122.5 -53t-66.5 -153l-57 -324q-14 -80 -49 -137.5t-89.5 -90.5t-121 -48t-150.5 -15z" />
<glyph unicode="~" horiz-adv-x="1026" d="M72 473q19 137 99.5 224t203.5 87q51 0 102.5 -21t85.5 -46.5t75.5 -46.5t74.5 -21q49 0 82.5 36.5t44.5 90.5h151q-20 -138 -99 -224.5t-204 -86.5q-50 0 -101.5 21t-86 46.5t-75.5 46.5t-75 21q-51 0 -83 -36.5t-44 -90.5h-151z" />
<glyph unicode="&#xa1;" horiz-adv-x="589" d="M33 -383l215 1075h174l-154 -1075h-235zM240 983q0 60 40 100.5t97 40.5t97 -40.5t40 -100.5q0 -56 -40 -95.5t-97 -39.5t-97 39.5t-40 95.5z" />
<glyph unicode="&#xa2;" horiz-adv-x="1120" d="M139 602q0 249 147.5 433t360.5 214l35 201h147l-34 -201q164 -17 301 -94l-54 -299h-157l33 182q-87 52 -205 52q-97 0 -181 -66t-133 -176.5t-49 -235.5q0 -134 63.5 -217.5t166.5 -83.5q85 0 165.5 50.5t135.5 130.5l125 -99q-67 -108 -173.5 -172.5t-232.5 -75.5 l-35 -194h-147l37 203q-145 34 -230.5 155.5t-85.5 292.5z" />
<glyph unicode="&#xa3;" horiz-adv-x="1159" d="M59 0l25 141q112 114 182.5 250.5t79.5 274.5h-199l27 149h166q-18 142 -18 184q0 203 124 331t318 128q210 0 416 -92l-58 -324h-174l35 193q-96 57 -211 57q-108 0 -172.5 -82.5t-64.5 -210.5q0 -42 14 -184h276l-26 -149h-246q-18 -291 -219 -512h475l41 227h178 l-67 -381h-902z" />
<glyph unicode="&#xa5;" horiz-adv-x="1269" d="M141 1284l27 150h510l-27 -144h-151l182 -516l377 516h-152l27 144h487l-26 -150h-133l-420 -545h266l-23 -118h-333l-25 -134h334l-21 -118h-333l-39 -219h178l-27 -150h-561l27 150h178l39 219h-334l22 118h332l23 134h-330l23 118h264l-215 545h-146z" />
<glyph unicode="&#xa7;" horiz-adv-x="1191" d="M170 592q0 186 188 311q-116 104 -116 262q0 139 96 237.5t237 98.5q80 0 143 -36t101 -97v109h180v-357h-163q-19 102 -81 159.5t-149 57.5q-80 0 -127 -44.5t-47 -114.5q0 -41 21.5 -77t57.5 -63t83 -52.5t98.5 -50t103.5 -51t99 -60t83 -72.5t57.5 -93t21.5 -118 q0 -193 -183 -320q121 -106 121 -258q0 -154 -95.5 -255t-242.5 -101q-91 0 -157 39t-103 106v-119h-180v377h164q21 -105 85 -170t152 -65q81 0 134 45.5t53 122.5q0 41 -21.5 77t-58.5 64t-84.5 54t-100.5 51.5t-105.5 53t-100 62t-84.5 74.5t-58.5 94.5t-21.5 118.5z M367 627q0 -39 17 -73t42 -59t67.5 -52t78.5 -45t91 -46t89 -47q50 31 79 82t29 113q0 39 -17 73t-41.5 58.5t-66 51t-76.5 44t-88.5 44.5t-87.5 46q-54 -31 -85 -82t-31 -108z" />
<glyph unicode="&#xa8;" horiz-adv-x="890" d="M283 1358q0 50 33.5 83.5t84.5 33.5q52 0 85.5 -33.5t33.5 -83.5q0 -51 -33.5 -84t-85.5 -33t-85 33t-33 84zM666 1358q0 50 33.5 83.5t84.5 33.5q52 0 85.5 -33.5t33.5 -83.5q0 -51 -33.5 -84t-85.5 -33t-85 33t-33 84z" />
<glyph unicode="&#xa9;" horiz-adv-x="1712" d="M145 723q0 207 93 376t264.5 268t388.5 99q216 0 387.5 -99t264.5 -268t93 -376q0 -158 -55 -297.5t-151.5 -240.5t-236 -159.5t-302.5 -58.5q-218 0 -389 100t-264 272t-93 384zM309 723q0 -174 72.5 -314.5t206 -221.5t303.5 -81q169 0 302.5 81t206.5 221.5t73 314.5 q0 170 -73 307.5t-206.5 217t-302.5 79.5q-170 0 -303.5 -79.5t-206 -217t-72.5 -307.5zM512 725q0 159 103 269t253 110q127 0 199 -98v79h127v-251h-109q-18 65 -70 102t-118 37q-93 0 -155 -69.5t-62 -178.5q0 -112 63.5 -184t161.5 -72q61 0 114 31t85 80l106 -82 q-44 -80 -127.5 -126t-183.5 -46q-171 0 -279 112.5t-108 286.5z" />
<glyph unicode="&#xaa;" horiz-adv-x="968" d="M164 975q0 130 55 241t149 175.5t205 64.5q145 0 215 -143l23 121h160l-117 -660h121l-21 -115h-278l22 123q-103 -145 -258 -145q-121 0 -198.5 94t-77.5 244zM336 979q0 -93 42.5 -146t119.5 -53q71 0 131.5 49t94.5 126.5t34 162.5q0 94 -42 144.5t-118 50.5 q-109 0 -185.5 -99.5t-76.5 -234.5z" />
<glyph unicode="&#xab;" horiz-adv-x="976" d="M74 612l313 369h209l-330 -387l191 -377h-187zM461 580l342 401h209l-359 -420l172 -344h-184z" />
<glyph unicode="&#xad;" horiz-adv-x="696" d="M84 526l31 183h530l-31 -183h-530z" />
<glyph unicode="&#xae;" horiz-adv-x="1034" d="M190 1102q0 179 117 298.5t311 119.5q195 0 312 -119.5t117 -298.5q0 -180 -117 -300t-312 -120q-193 0 -310.5 120.5t-117.5 299.5zM295 1102q0 -142 88 -236t235 -94q150 0 237 93.5t87 236.5t-86.5 235.5t-237.5 92.5q-145 0 -234 -93.5t-89 -234.5zM453 1257v66h180 q61 0 102 -34t41 -87q0 -38 -24.5 -68t-63.5 -44l72 -121h55v-66h-115l-94 174h-31v-108h33v-66h-153v66h39v288h-41zM575 1139h33q32 0 54 15t22 44t-20.5 45.5t-47.5 16.5h-41v-121z" />
<glyph unicode="&#xaf;" horiz-adv-x="868" d="M264 1253l27 144h596l-27 -144h-596z" />
<glyph unicode="&#xb0;" horiz-adv-x="735" d="M174 1153q0 127 87 216t218 89q133 0 219 -87.5t86 -215.5q0 -130 -85.5 -217.5t-219.5 -87.5q-132 0 -218.5 87t-86.5 216zM326 1153q0 -71 42 -117.5t111 -46.5q70 0 112 47t42 119t-41.5 118t-112.5 46q-68 0 -110.5 -47t-42.5 -119z" />
<glyph unicode="&#xb2;" horiz-adv-x="714" d="M109 627l10 55q14 77 53 144.5t86 112t99 86.5t94.5 73t70 66.5t27.5 70.5q0 41 -24.5 67.5t-67.5 26.5q-47 0 -87.5 -35.5t-62.5 -85.5l-121 52q41 88 117 140t174 52q102 0 163.5 -61.5t61.5 -149.5q0 -52 -27.5 -100.5t-69.5 -84.5t-93 -75.5t-97 -73.5t-82.5 -78.5 t-47.5 -89.5h227l20 113h125l-41 -225h-507z" />
<glyph unicode="&#xb3;" horiz-adv-x="698" d="M82 799l121 53q13 -49 51 -85t88 -36q67 0 111.5 38.5t44.5 98.5t-39 95.5t-97 35.5h-47l23 115q84 8 142.5 42t58.5 91q0 38 -27.5 62t-69.5 24q-79 0 -141 -90l-104 66q44 67 111 105t149 38q94 0 160.5 -55t66.5 -142q0 -88 -61 -137t-152 -57q84 -9 132 -59.5 t48 -133.5q0 -113 -91.5 -186.5t-223.5 -73.5q-92 0 -159.5 51.5t-94.5 139.5z" />
<glyph unicode="&#xb4;" horiz-adv-x="614" d="M236 1206l202 287h246l-270 -287h-178z" />
<glyph unicode="&#xb6;" horiz-adv-x="1284" d="M150 1053q0 160 110 270.5t270 110.5h674v-154h-182v-1372h-166v1372h-154v-1372h-165v762q-108 1 -197 52.5t-139.5 139t-50.5 191.5z" />
<glyph unicode="&#xb7;" horiz-adv-x="526" d="M135 623q0 59 44.5 102t103.5 43q58 0 99.5 -42.5t41.5 -102.5q0 -59 -41.5 -101.5t-99.5 -42.5q-59 0 -103.5 43t-44.5 101z" />
<glyph unicode="&#xb8;" horiz-adv-x="575" d="M-37 -428l45 115q34 -19 72 -19q44 0 75 21t31 57q0 35 -23.5 53.5t-62.5 18.5q-21 0 -49 -8l80 210h109l-43 -110q58 -5 98.5 -50t40.5 -110q0 -97 -74.5 -150t-183.5 -53q-60 0 -115 25z" />
<glyph unicode="&#xb9;" horiz-adv-x="624" d="M141 627l21 112h129l96 551l-149 -100l-62 96l246 148h135l-121 -695h119l-20 -112h-394z" />
<glyph unicode="&#xba;" horiz-adv-x="935" d="M164 971q0 132 57.5 242.5t159 175.5t225.5 65q151 0 250.5 -94.5t99.5 -241.5q0 -128 -57 -239.5t-160 -179.5t-229 -68q-153 0 -249.5 94t-96.5 246zM336 973q0 -90 48 -144.5t132 -54.5q116 0 192 104t76 236q0 89 -49 143t-133 54q-116 0 -191 -100.5t-75 -237.5z " />
<glyph unicode="&#xbb;" horiz-adv-x="974" d="M-10 211l358 420l-172 344h184l181 -363l-342 -401h-209zM406 211l329 387l-190 377h186l197 -395l-314 -369h-208z" />
<glyph unicode="&#xbc;" horiz-adv-x="1708" d="M158 627l20 112h129l96 551l-149 -100l-61 96l245 148h135l-120 -695h118l-20 -112h-393zM254 -84l1059 1602h178l-1059 -1602h-178zM905 227l17 95l458 489h136l-84 -477h114l-18 -107h-115l-20 -121h114l-20 -106h-377l20 106h127l21 121h-373zM1059 334h237l56 307z " />
<glyph unicode="&#xbd;" horiz-adv-x="1716" d="M158 627l20 112h129l96 551l-149 -100l-61 96l245 148h135l-120 -695h118l-20 -112h-393zM254 -84l1059 1602h178l-1059 -1602h-178zM985 0l10 55q14 77 53 144.5t86 112t99 86.5t94.5 73t70 66.5t27.5 70.5q0 41 -24.5 67.5t-67.5 26.5q-47 0 -87 -35t-62 -85l-121 51 q41 88 117 140t174 52q102 0 163.5 -61.5t61.5 -149.5q0 -61 -38.5 -117t-95.5 -100t-115.5 -86t-107 -93.5t-61.5 -104.5h228l20 112h125l-41 -225h-508z" />
<glyph unicode="&#xbe;" horiz-adv-x="1769" d="M123 799l121 53q13 -49 51 -85t88 -36q67 0 111.5 38.5t44.5 98.5t-39 95.5t-97 35.5h-47l23 115q84 8 142.5 42t58.5 91q0 38 -27.5 62t-69.5 24q-79 0 -141 -90l-104 66q44 67 111 105t149 38q94 0 160.5 -55t66.5 -142q0 -88 -61 -137t-152 -57q84 -9 132 -59.5 t48 -133.5q0 -113 -91.5 -186.5t-223.5 -73.5q-92 0 -159.5 51.5t-94.5 139.5zM305 -84l1059 1602h178l-1059 -1602h-178zM967 227l16 95l459 489h135l-84 -477h115l-19 -107h-114l-21 -121h115l-21 -106h-377l21 106h127l20 121h-372zM1120 334h238l55 307z" />
<glyph unicode="&#xbf;" horiz-adv-x="868" d="M-53 -57q0 68 24.5 130.5t64 111t88 93t98.5 85t92.5 79t74 83t39.5 89.5l14 80h193l-17 -100q-10 -62 -40.5 -118.5t-71 -100t-87 -85.5t-91 -80.5t-81 -78t-59 -86t-22.5 -96.5q0 -75 54 -123.5t136 -48.5q83 0 148 55.5t104 134.5l168 -86q-63 -127 -174.5 -201.5 t-271.5 -74.5q-165 0 -274 97.5t-109 240.5zM426 985q0 60 40 100.5t97 40.5t97 -40.5t40 -100.5q0 -56 -40 -95.5t-97 -39.5t-97 39.5t-40 95.5z" />
<glyph unicode="&#xc0;" horiz-adv-x="1392" d="M-98 0l26 150h129l684 1288h230l223 -1288h133l-27 -150h-518l27 150h170l-51 307h-518l-162 -307h172l-27 -150h-491zM494 616h409l-94 621zM666 1866h211l94 -295h-162z" />
<glyph unicode="&#xc1;" horiz-adv-x="1392" d="M-98 0l26 150h129l684 1288h230l223 -1288h133l-27 -150h-518l27 150h170l-51 307h-518l-162 -307h172l-27 -150h-491zM494 616h409l-94 621zM731 1571l203 287h246l-271 -287h-178z" />
<glyph unicode="&#xc2;" horiz-adv-x="1392" d="M-98 0l26 150h129l684 1288h230l223 -1288h133l-27 -150h-518l27 150h170l-51 307h-518l-162 -307h172l-27 -150h-491zM494 616h409l-94 621zM545 1577l266 268h190l164 -268h-168l-96 164l-158 -164h-198z" />
<glyph unicode="&#xc3;" horiz-adv-x="1392" d="M-98 0l26 150h129l684 1288h230l223 -1288h133l-27 -150h-518l27 150h170l-51 307h-518l-162 -307h172l-27 -150h-491zM494 616h409l-94 621zM549 1593q19 101 83 166.5t150 65.5q47 0 94.5 -22.5t88 -45t71.5 -22.5q30 0 54 23t32 59h123q-19 -101 -82 -166.5 t-149 -65.5q-48 0 -94.5 22.5t-87.5 45t-74 22.5q-30 0 -54 -23t-32 -59h-123z" />
<glyph unicode="&#xc4;" horiz-adv-x="1392" d="M-98 0l26 150h129l684 1288h230l223 -1288h133l-27 -150h-518l27 150h170l-51 307h-518l-162 -307h172l-27 -150h-491zM494 616h409l-94 621zM571 1722q0 50 34 83.5t85 33.5q52 0 85.5 -33.5t33.5 -83.5q0 -51 -33.5 -83.5t-85.5 -32.5t-85.5 32.5t-33.5 83.5zM954 1722 q0 50 34 83.5t85 33.5q52 0 85.5 -33.5t33.5 -83.5q0 -51 -33.5 -83.5t-85.5 -32.5t-85.5 32.5t-33.5 83.5z" />
<glyph unicode="&#xc5;" horiz-adv-x="1392" d="M-98 0l26 150h129l684 1288h230l223 -1288h133l-27 -150h-518l27 150h170l-51 307h-518l-162 -307h172l-27 -150h-491zM494 616h409l-94 621zM700 1704q0 91 67.5 150t160.5 59q70 0 122 -46.5t52 -113.5q0 -90 -68.5 -150.5t-161.5 -60.5q-70 0 -121 47.5t-51 114.5z M811 1708q0 -31 20 -51.5t52 -20.5q43 0 75.5 32t32.5 79q0 31 -20.5 51.5t-52.5 20.5q-43 0 -75 -32t-32 -79z" />
<glyph unicode="&#xc6;" horiz-adv-x="1882" d="M-102 0l26 150h146l927 1284h920l-62 -357h-174l37 209h-397l-84 -475h424l-29 -162h-424l-88 -502h408l37 218h174l-64 -365h-958l26 150h164l88 499h-358l-352 -499h149l-26 -150h-510zM729 782h289l96 547z" />
<glyph unicode="&#xc7;" horiz-adv-x="1398" d="M147 588q0 184 64 347.5t171 278.5t250.5 181.5t297.5 66.5q276 0 493 -119l-67 -382h-174l45 253q-137 72 -303 72q-144 0 -271 -96t-201.5 -254.5t-74.5 -333.5q0 -201 93.5 -326.5t264.5 -125.5q119 0 227 70.5t177 185.5l147 -109q-91 -148 -235 -235.5t-312 -94.5 l-22 -57q58 -5 98.5 -50t40.5 -110q0 -97 -74.5 -150t-183.5 -53q-60 0 -115 25l45 115q34 -19 72 -19q44 0 75.5 21t31.5 57q0 35 -23.5 53.5t-62.5 18.5q-22 0 -50 -8l62 161q-221 29 -353.5 203.5t-132.5 413.5z" />
<glyph unicode="&#xc8;" horiz-adv-x="1181" d="M16 0l27 150h164l201 1134h-164l26 150h947l-62 -349h-174l37 201h-397l-82 -459h422l-29 -161h-422l-90 -519h407l39 230h174l-65 -377h-959zM586 1866h211l94 -295h-162z" />
<glyph unicode="&#xc9;" horiz-adv-x="1181" d="M16 0l27 150h164l201 1134h-164l26 150h947l-62 -349h-174l37 201h-397l-82 -459h422l-29 -161h-422l-90 -519h407l39 230h174l-65 -377h-959zM651 1571l203 287h246l-271 -287h-178z" />
<glyph unicode="&#xca;" horiz-adv-x="1181" d="M16 0l27 150h164l201 1134h-164l26 150h947l-62 -349h-174l37 201h-397l-82 -459h422l-29 -161h-422l-90 -519h407l39 230h174l-65 -377h-959zM465 1577l266 268h191l163 -268h-167l-97 164l-157 -164h-199z" />
<glyph unicode="&#xcb;" horiz-adv-x="1181" d="M16 0l27 150h164l201 1134h-164l26 150h947l-62 -349h-174l37 201h-397l-82 -459h422l-29 -161h-422l-90 -519h407l39 230h174l-65 -377h-959zM492 1722q0 50 33.5 83.5t84.5 33.5q52 0 85.5 -33.5t33.5 -83.5q0 -51 -33.5 -83.5t-85.5 -32.5t-85 32.5t-33 83.5z M874 1722q0 50 34 83.5t85 33.5q52 0 85.5 -33.5t33.5 -83.5q0 -51 -33.5 -83.5t-85.5 -32.5t-85.5 32.5t-33.5 83.5z" />
<glyph unicode="&#xcc;" horiz-adv-x="759" d="M16 0l27 150h164l201 1134h-164l26 150h541l-27 -150h-163l-201 -1134h162l-27 -150h-539zM362 1866h211l95 -295h-162z" />
<glyph unicode="&#xcd;" horiz-adv-x="759" d="M16 0l27 150h164l201 1134h-164l26 150h541l-27 -150h-163l-201 -1134h162l-27 -150h-539zM428 1571l203 287h246l-271 -287h-178z" />
<glyph unicode="&#xce;" horiz-adv-x="759" d="M16 0l27 150h164l201 1134h-164l26 150h541l-27 -150h-163l-201 -1134h162l-27 -150h-539zM242 1577l266 268h190l164 -268h-168l-96 164l-158 -164h-198z" />
<glyph unicode="&#xcf;" horiz-adv-x="759" d="M16 0l27 150h164l201 1134h-164l26 150h541l-27 -150h-163l-201 -1134h162l-27 -150h-539zM268 1722q0 50 34 83.5t85 33.5q52 0 85.5 -33.5t33.5 -83.5q0 -51 -33.5 -83.5t-85.5 -32.5t-85.5 32.5t-33.5 83.5zM651 1722q0 50 34 83.5t85 33.5q52 0 85.5 -33.5 t33.5 -83.5q0 -51 -33.5 -83.5t-85.5 -32.5t-85.5 32.5t-33.5 83.5z" />
<glyph unicode="&#xd0;" horiz-adv-x="1556" d="M70 0l26 150h164l92 520h-217l27 149h217l82 465h-164l27 150h571q256 0 421 -155t165 -407t-100.5 -449.5t-287.5 -310t-431 -112.5h-592zM473 150h176q168 0 306.5 96t217 260.5t78.5 359.5q0 192 -113.5 305t-293.5 113h-170l-82 -465h287l-27 -149h-287z" />
<glyph unicode="&#xd1;" horiz-adv-x="1617" d="M16 0l27 150h164l201 1134h-164l26 150h373l508 -1139l174 989h-164l27 150h508l-27 -150h-164l-227 -1284h-213l-502 1143l-176 -993h164l-27 -150h-508zM668 1593q19 101 83 166.5t150 65.5q47 0 94.5 -22.5t88 -45t71.5 -22.5q30 0 54 23t32 59h123 q-19 -101 -82 -166.5t-149 -65.5q-48 0 -94.5 22.5t-87.5 45t-74 22.5q-30 0 -54 -23t-32 -59h-123z" />
<glyph unicode="&#xd2;" horiz-adv-x="1613" d="M145 580q0 178 62 341t167.5 281.5t254 189t313.5 70.5q175 0 312 -77t211.5 -211.5t74.5 -303.5q0 -179 -62 -344.5t-167 -288.5t-254.5 -196.5t-315.5 -73.5q-175 0 -311.5 80.5t-210.5 220t-74 312.5zM375 596q0 -198 103.5 -324.5t275.5 -126.5q153 0 283 103.5 t202 266t72 339.5q0 195 -103 312.5t-280 117.5q-152 0 -280.5 -97.5t-200.5 -255.5t-72 -335zM764 1866h211l94 -295h-162z" />
<glyph unicode="&#xd3;" horiz-adv-x="1613" d="M145 580q0 178 62 341t167.5 281.5t254 189t313.5 70.5q175 0 312 -77t211.5 -211.5t74.5 -303.5q0 -179 -62 -344.5t-167 -288.5t-254.5 -196.5t-315.5 -73.5q-175 0 -311.5 80.5t-210.5 220t-74 312.5zM375 596q0 -198 103.5 -324.5t275.5 -126.5q153 0 283 103.5 t202 266t72 339.5q0 195 -103 312.5t-280 117.5q-152 0 -280.5 -97.5t-200.5 -255.5t-72 -335zM829 1571l203 287h246l-270 -287h-179z" />
<glyph unicode="&#xd4;" horiz-adv-x="1613" d="M145 580q0 178 62 341t167.5 281.5t254 189t313.5 70.5q175 0 312 -77t211.5 -211.5t74.5 -303.5q0 -179 -62 -344.5t-167 -288.5t-254.5 -196.5t-315.5 -73.5q-175 0 -311.5 80.5t-210.5 220t-74 312.5zM375 596q0 -198 103.5 -324.5t275.5 -126.5q153 0 283 103.5 t202 266t72 339.5q0 195 -103 312.5t-280 117.5q-152 0 -280.5 -97.5t-200.5 -255.5t-72 -335zM643 1577l266 268h191l164 -268h-168l-97 164l-157 -164h-199z" />
<glyph unicode="&#xd5;" horiz-adv-x="1613" d="M145 580q0 178 62 341t167.5 281.5t254 189t313.5 70.5q175 0 312 -77t211.5 -211.5t74.5 -303.5q0 -179 -62 -344.5t-167 -288.5t-254.5 -196.5t-315.5 -73.5q-175 0 -311.5 80.5t-210.5 220t-74 312.5zM375 596q0 -198 103.5 -324.5t275.5 -126.5q153 0 283 103.5 t202 266t72 339.5q0 195 -103 312.5t-280 117.5q-152 0 -280.5 -97.5t-200.5 -255.5t-72 -335zM647 1593q19 100 83.5 166t150.5 66q47 0 94.5 -22.5t88 -45t71.5 -22.5q30 0 54 23t32 59h122q-19 -101 -82 -166.5t-149 -65.5q-48 0 -94.5 22.5t-87.5 45t-74 22.5 q-30 0 -54 -23t-32 -59h-123z" />
<glyph unicode="&#xd6;" horiz-adv-x="1613" d="M145 580q0 178 62 341t167.5 281.5t254 189t313.5 70.5q175 0 312 -77t211.5 -211.5t74.5 -303.5q0 -179 -62 -344.5t-167 -288.5t-254.5 -196.5t-315.5 -73.5q-175 0 -311.5 80.5t-210.5 220t-74 312.5zM375 596q0 -198 103.5 -324.5t275.5 -126.5q153 0 283 103.5 t202 266t72 339.5q0 195 -103 312.5t-280 117.5q-152 0 -280.5 -97.5t-200.5 -255.5t-72 -335zM670 1722q0 50 33.5 83.5t84.5 33.5q52 0 85.5 -33.5t33.5 -83.5q0 -51 -33.5 -83.5t-85.5 -32.5t-85 32.5t-33 83.5zM1053 1722q0 50 33.5 83.5t84.5 33.5q52 0 85.5 -33.5 t33.5 -83.5q0 -51 -33.5 -83.5t-85.5 -32.5t-85 32.5t-33 83.5z" />
<glyph unicode="&#xd7;" horiz-adv-x="1269" d="M190 270l342 369l-342 367l129 120l336 -358l334 358l129 -120l-342 -367l342 -369l-129 -120l-334 358l-336 -358z" />
<glyph unicode="&#xd8;" horiz-adv-x="1613" d="M63 68l173 172q-91 153 -91 340q0 178 62 341t167.5 281.5t254 189t313.5 70.5q228 0 387 -127l139 140l107 -107l-143 -143q108 -148 108 -355q0 -179 -62 -344.5t-167 -288.5t-254.5 -196.5t-315.5 -73.5q-245 0 -411 156l-160 -162zM375 596q0 -99 28 -188l781 782 q-97 94 -256 94q-152 0 -280.5 -97.5t-200.5 -255.5t-72 -335zM479 270q106 -125 275 -125q153 0 283 103.5t202 266t72 339.5q0 116 -39 211z" />
<glyph unicode="&#xd9;" horiz-adv-x="1527" d="M201 1284l26 150h541l-27 -150h-168l-137 -780q-8 -44 -8 -90q0 -116 74.5 -191.5t204.5 -75.5q137 0 240 94t130 236l144 807h-168l26 150h541l-27 -150h-159l-144 -809q-39 -232 -196 -369t-400 -137q-215 0 -348 119.5t-133 302.5q0 55 10 123l137 770h-159zM741 1866 h211l95 -295h-162z" />
<glyph unicode="&#xda;" horiz-adv-x="1527" d="M201 1284l26 150h541l-27 -150h-168l-137 -780q-8 -44 -8 -90q0 -116 74.5 -191.5t204.5 -75.5q137 0 240 94t130 236l144 807h-168l26 150h541l-27 -150h-159l-144 -809q-39 -232 -196 -369t-400 -137q-215 0 -348 119.5t-133 302.5q0 55 10 123l137 770h-159zM807 1571 l203 287h245l-270 -287h-178z" />
<glyph unicode="&#xdb;" horiz-adv-x="1527" d="M201 1284l26 150h541l-27 -150h-168l-137 -780q-8 -44 -8 -90q0 -116 74.5 -191.5t204.5 -75.5q137 0 240 94t130 236l144 807h-168l26 150h541l-27 -150h-159l-144 -809q-39 -232 -196 -369t-400 -137q-215 0 -348 119.5t-133 302.5q0 55 10 123l137 770h-159zM621 1577 l266 268h190l164 -268h-168l-96 164l-158 -164h-198z" />
<glyph unicode="&#xdc;" horiz-adv-x="1527" d="M201 1284l26 150h541l-27 -150h-168l-137 -780q-8 -44 -8 -90q0 -116 74.5 -191.5t204.5 -75.5q137 0 240 94t130 236l144 807h-168l26 150h541l-27 -150h-159l-144 -809q-39 -232 -196 -369t-400 -137q-215 0 -348 119.5t-133 302.5q0 55 10 123l137 770h-159zM647 1722 q0 50 34 83.5t85 33.5q52 0 85.5 -33.5t33.5 -83.5q0 -51 -33.5 -83.5t-85.5 -32.5t-85.5 32.5t-33.5 83.5zM1030 1722q0 50 34 83.5t85 33.5q52 0 85.5 -33.5t33.5 -83.5q0 -51 -33.5 -83.5t-85.5 -32.5t-85.5 32.5t-33.5 83.5z" />
<glyph unicode="&#xdd;" d="M127 1284l27 150h524l-27 -144h-151l198 -512l385 512h-151l26 144h496l-27 -150h-141l-520 -674l-82 -460h178l-26 -150h-570l27 150h178l82 464l-272 670h-154zM694 1571l203 287h246l-271 -287h-178z" />
<glyph unicode="&#xde;" horiz-adv-x="1232" d="M18 0l27 150h164l201 1134h-164l26 150h539l-25 -146h-163l-33 -190h229q167 0 273.5 -86.5t107.5 -233.5q0 -188 -150 -303t-378 -115h-213l-37 -215h164l-25 -145h-543zM485 504h181q132 0 220.5 77.5t88.5 182.5q0 89 -59 139.5t-154 50.5h-197z" />
<glyph unicode="&#xdf;" horiz-adv-x="1290" d="M-168 -369l37 148q34 -17 82 -17q75 0 126.5 49.5t65.5 131.5l168 960h-170l25 146h172l20 118q28 150 141 237t277 87q157 0 262 -87t105 -208q0 -105 -72.5 -186.5t-175.5 -120.5q127 -31 208 -129.5t81 -227.5q0 -114 -50 -214t-134 -169t-196 -109t-233 -40h-45 l27 156q109 0 206 49.5t155.5 135t58.5 183.5q0 116 -85 194t-220 89l24 139q102 1 175 71t73 163q0 68 -49 111.5t-123 43.5q-82 0 -140 -45.5t-71 -120.5l-217 -1235q-28 -155 -127 -241t-252 -86q-69 0 -129 24z" />
<glyph unicode="&#xe0;" d="M94 418q0 180 74.5 332.5t202 240.5t276.5 88q102 0 179 -57t118 -148l31 175h199l-160 -904h164l-25 -145h-360l30 174q-64 -92 -158 -147.5t-208 -55.5q-157 0 -260 127.5t-103 319.5zM305 434q0 -139 58 -218t165 -79q104 0 191.5 69t135.5 180.5t48 238.5 q0 140 -62.5 214t-176.5 74q-95 0 -178.5 -67t-132 -178t-48.5 -234zM475 1501h211l94 -295h-162z" />
<glyph unicode="&#xe1;" d="M94 418q0 180 74.5 332.5t202 240.5t276.5 88q102 0 179 -57t118 -148l31 175h199l-160 -904h164l-25 -145h-360l30 174q-64 -92 -158 -147.5t-208 -55.5q-157 0 -260 127.5t-103 319.5zM305 434q0 -139 58 -218t165 -79q104 0 191.5 69t135.5 180.5t48 238.5 q0 140 -62.5 214t-176.5 74q-95 0 -178.5 -67t-132 -178t-48.5 -234zM541 1206l202 287h246l-270 -287h-178z" />
<glyph unicode="&#xe2;" d="M94 418q0 180 74.5 332.5t202 240.5t276.5 88q102 0 179 -57t118 -148l31 175h199l-160 -904h164l-25 -145h-360l30 174q-64 -92 -158 -147.5t-208 -55.5q-157 0 -260 127.5t-103 319.5zM305 434q0 -139 58 -218t165 -79q104 0 191.5 69t135.5 180.5t48 238.5 q0 140 -62.5 214t-176.5 74q-95 0 -178.5 -67t-132 -178t-48.5 -234zM354 1212l267 269h190l164 -269h-168l-96 164l-158 -164h-199z" />
<glyph unicode="&#xe3;" d="M94 418q0 180 74.5 332.5t202 240.5t276.5 88q102 0 179 -57t118 -148l31 175h199l-160 -904h164l-25 -145h-360l30 174q-64 -92 -158 -147.5t-208 -55.5q-157 0 -260 127.5t-103 319.5zM305 434q0 -139 58 -218t165 -79q104 0 191.5 69t135.5 180.5t48 238.5 q0 140 -62.5 214t-176.5 74q-95 0 -178.5 -67t-132 -178t-48.5 -234zM358 1229q19 100 83.5 165.5t150.5 65.5q47 0 94.5 -22.5t88 -45t71.5 -22.5q30 0 54 23t32 59h123q-19 -101 -82.5 -166t-149.5 -65q-48 0 -94.5 22.5t-87.5 45t-74 22.5q-30 0 -54 -23t-32 -59h-123z " />
<glyph unicode="&#xe4;" d="M94 418q0 180 74.5 332.5t202 240.5t276.5 88q102 0 179 -57t118 -148l31 175h199l-160 -904h164l-25 -145h-360l30 174q-64 -92 -158 -147.5t-208 -55.5q-157 0 -260 127.5t-103 319.5zM305 434q0 -139 58 -218t165 -79q104 0 191.5 69t135.5 180.5t48 238.5 q0 140 -62.5 214t-176.5 74q-95 0 -178.5 -67t-132 -178t-48.5 -234zM381 1358q0 50 34 83.5t85 33.5q52 0 85 -33.5t33 -83.5q0 -51 -33 -84t-85 -33t-85.5 33t-33.5 84zM764 1358q0 50 34 83.5t85 33.5q52 0 85 -33.5t33 -83.5q0 -51 -33 -84t-85 -33t-85.5 33t-33.5 84z " />
<glyph unicode="&#xe5;" d="M94 418q0 180 74.5 332.5t202 240.5t276.5 88q102 0 179 -57t118 -148l31 175h199l-160 -904h164l-25 -145h-360l30 174q-64 -92 -158 -147.5t-208 -55.5q-157 0 -260 127.5t-103 319.5zM305 434q0 -139 58 -218t165 -79q104 0 191.5 69t135.5 180.5t48 238.5 q0 140 -62.5 214t-176.5 74q-95 0 -178.5 -67t-132 -178t-48.5 -234zM510 1339q0 91 67 150t160 59q70 0 122 -46.5t52 -112.5q0 -90 -68 -150.5t-161 -60.5q-70 0 -121 47t-51 114zM621 1343q0 -31 19.5 -51t51.5 -20q44 0 76.5 32t32.5 78q0 31 -21 51.5t-53 20.5 q-43 0 -74.5 -32t-31.5 -79z" />
<glyph unicode="&#xe6;" horiz-adv-x="1970" d="M94 414q0 182 74.5 335t203.5 241.5t283 88.5q218 0 420 -170q81 81 184.5 125.5t217.5 44.5q182 0 292.5 -115.5t110.5 -285.5q0 -81 -29 -184h-755q-2 -14 -2 -43q0 -135 68.5 -224.5t183.5 -89.5q88 0 175.5 45.5t155.5 118.5l117 -111q-83 -102 -205.5 -159.5 t-263.5 -57.5q-155 0 -263.5 82.5t-150.5 223.5q-197 -308 -444 -308q-167 0 -270 123t-103 320zM305 430q0 -132 50.5 -212.5t140.5 -80.5q68 0 133 46t119.5 125.5t98.5 171t81 198.5l30 90q-56 65 -132 105t-160 40q-94 0 -178 -68t-133.5 -180t-49.5 -235zM1124 633h543 q6 42 6 61q0 102 -58.5 165t-156.5 63q-110 0 -201.5 -79.5t-132.5 -209.5z" />
<glyph unicode="&#xe7;" horiz-adv-x="1091" d="M96 430q0 179 78 328.5t209.5 235t286.5 85.5q206 0 379 -98l-52 -299h-157l30 182q-85 51 -200 51q-96 0 -180 -66t-133.5 -176t-49.5 -235q0 -133 64 -217t166 -84q86 0 166 52t137 135l127 -101q-70 -110 -175 -176t-233 -76l-24 -61q58 -5 98.5 -50t40.5 -110 q0 -97 -74.5 -150t-183.5 -53q-60 0 -115 25l45 115q34 -19 72 -19q44 0 75 21t31 57q0 35 -23.5 53.5t-62.5 18.5q-21 0 -49 -8l62 163q-160 22 -257.5 148t-97.5 309z" />
<glyph unicode="&#xe8;" horiz-adv-x="1177" d="M96 444q0 132 47.5 250.5t127.5 202.5t188 133t225 49q182 0 292.5 -115.5t110.5 -285.5q0 -84 -28 -184h-756q-2 -14 -2 -43q0 -135 68.5 -224.5t183.5 -89.5q88 0 176 45.5t156 118.5l116 -111q-83 -102 -205.5 -159.5t-263.5 -57.5q-200 0 -318 131t-118 340zM332 633 h542q7 49 7 61q0 102 -58.5 165t-156.5 63q-110 0 -201.5 -79.5t-132.5 -209.5zM504 1501h211l94 -295h-162z" />
<glyph unicode="&#xe9;" horiz-adv-x="1177" d="M96 444q0 132 47.5 250.5t127.5 202.5t188 133t225 49q182 0 292.5 -115.5t110.5 -285.5q0 -84 -28 -184h-756q-2 -14 -2 -43q0 -135 68.5 -224.5t183.5 -89.5q88 0 176 45.5t156 118.5l116 -111q-83 -102 -205.5 -159.5t-263.5 -57.5q-200 0 -318 131t-118 340zM332 633 h542q7 49 7 61q0 102 -58.5 165t-156.5 63q-110 0 -201.5 -79.5t-132.5 -209.5zM569 1206l203 287h246l-270 -287h-179z" />
<glyph unicode="&#xea;" horiz-adv-x="1177" d="M96 444q0 132 47.5 250.5t127.5 202.5t188 133t225 49q182 0 292.5 -115.5t110.5 -285.5q0 -84 -28 -184h-756q-2 -14 -2 -43q0 -135 68.5 -224.5t183.5 -89.5q88 0 176 45.5t156 118.5l116 -111q-83 -102 -205.5 -159.5t-263.5 -57.5q-200 0 -318 131t-118 340zM332 633 h542q7 49 7 61q0 102 -58.5 165t-156.5 63q-110 0 -201.5 -79.5t-132.5 -209.5zM383 1212l266 269h191l164 -269h-168l-97 164l-157 -164h-199z" />
<glyph unicode="&#xeb;" horiz-adv-x="1177" d="M96 444q0 132 47.5 250.5t127.5 202.5t188 133t225 49q182 0 292.5 -115.5t110.5 -285.5q0 -84 -28 -184h-756q-2 -14 -2 -43q0 -135 68.5 -224.5t183.5 -89.5q88 0 176 45.5t156 118.5l116 -111q-83 -102 -205.5 -159.5t-263.5 -57.5q-200 0 -318 131t-118 340zM332 633 h542q7 49 7 61q0 102 -58.5 165t-156.5 63q-110 0 -201.5 -79.5t-132.5 -209.5zM410 1358q0 50 33.5 83.5t84.5 33.5q52 0 85.5 -33.5t33.5 -83.5q0 -51 -33.5 -84t-85.5 -33t-85 33t-33 84zM793 1358q0 50 33.5 83.5t84.5 33.5q52 0 85.5 -33.5t33.5 -83.5q0 -51 -33.5 -84 t-85.5 -33t-85 33t-33 84z" />
<glyph unicode="&#xec;" horiz-adv-x="628" d="M121 903l24 146h363l-160 -904h164l-25 -145h-362l160 903h-164zM211 1501h211l94 -295h-162z" />
<glyph unicode="&#xed;" horiz-adv-x="628" d="M121 903l24 146h363l-160 -904h164l-25 -145h-362l160 903h-164zM276 1206l203 287h246l-270 -287h-179z" />
<glyph unicode="&#xee;" horiz-adv-x="628" d="M96 1212l266 269h191l164 -269h-168l-96 164l-158 -164h-199zM121 903l24 146h363l-160 -904h164l-25 -145h-362l160 903h-164z" />
<glyph unicode="&#xef;" horiz-adv-x="663" d="M150 903l24 146h363l-160 -904h164l-25 -145h-362l159 903h-163zM158 1358q0 47 32 78.5t82 31.5t82.5 -32t32.5 -78q0 -51 -32 -83t-83 -32q-52 0 -83 32t-31 83zM504 1358q0 47 32 78.5t82 31.5t82.5 -32t32.5 -78q0 -51 -32 -83t-83 -32q-52 0 -83 32t-31 83z" />
<glyph unicode="&#xf0;" horiz-adv-x="1228" d="M92 414q0 168 75 307t203.5 218t282.5 79q84 0 159 -47t126 -127q-36 223 -209 373l-293 -127l-47 106l234 100q-80 54 -183 99l107 112q141 -60 250 -135l297 129l45 -106l-240 -105q242 -224 242 -565q0 -156 -41.5 -293t-117.5 -240t-192.5 -163t-257.5 -60 q-197 0 -318.5 125.5t-121.5 319.5zM303 422q0 -129 65.5 -208t174.5 -79q99 0 187 68.5t138 174t50 214.5q0 123 -68 196.5t-186 73.5q-98 0 -182 -62t-131.5 -163.5t-47.5 -214.5z" />
<glyph unicode="&#xf1;" horiz-adv-x="1308" d="M121 903l24 146h359l-29 -172q61 87 156 141.5t200 54.5q131 0 217.5 -88t86.5 -217q0 -36 -7 -76l-96 -547h164l-25 -145h-364l119 672q6 24 6 53q0 83 -52 132.5t-143 49.5q-104 0 -194.5 -84.5t-110.5 -201.5l-108 -621h-199l160 903h-164zM453 1229q19 100 83 165.5 t150 65.5q47 0 94.5 -22.5t88 -45t71.5 -22.5q30 0 54 23t32 59h123q-19 -101 -82 -166t-149 -65q-48 0 -94.5 22.5t-87.5 45t-74 22.5q-31 0 -55 -23.5t-32 -58.5h-122z" />
<glyph unicode="&#xf2;" horiz-adv-x="1241" d="M96 432q0 180 76 328.5t213.5 235.5t308.5 87q204 0 330.5 -126.5t126.5 -327.5q0 -136 -44.5 -257.5t-123 -210.5t-191 -141.5t-241.5 -52.5q-207 0 -331 128.5t-124 336.5zM307 440q0 -137 68 -222t182 -85q106 0 195 69.5t138.5 180.5t49.5 235q0 135 -69.5 217.5 t-184.5 82.5q-106 0 -194 -68t-136.5 -177t-48.5 -233zM535 1501h210l95 -295h-162z" />
<glyph unicode="&#xf3;" horiz-adv-x="1241" d="M96 432q0 180 76 328.5t213.5 235.5t308.5 87q204 0 330.5 -126.5t126.5 -327.5q0 -136 -44.5 -257.5t-123 -210.5t-191 -141.5t-241.5 -52.5q-207 0 -331 128.5t-124 336.5zM307 440q0 -137 68 -222t182 -85q106 0 195 69.5t138.5 180.5t49.5 235q0 135 -69.5 217.5 t-184.5 82.5q-106 0 -194 -68t-136.5 -177t-48.5 -233zM600 1206l203 287h246l-271 -287h-178z" />
<glyph unicode="&#xf4;" horiz-adv-x="1241" d="M96 432q0 180 76 328.5t213.5 235.5t308.5 87q204 0 330.5 -126.5t126.5 -327.5q0 -136 -44.5 -257.5t-123 -210.5t-191 -141.5t-241.5 -52.5q-207 0 -331 128.5t-124 336.5zM307 440q0 -137 68 -222t182 -85q106 0 195 69.5t138.5 180.5t49.5 235q0 135 -69.5 217.5 t-184.5 82.5q-106 0 -194 -68t-136.5 -177t-48.5 -233zM414 1212l266 269h190l164 -269h-168l-96 164l-158 -164h-198z" />
<glyph unicode="&#xf5;" horiz-adv-x="1241" d="M96 432q0 180 76 328.5t213.5 235.5t308.5 87q204 0 330.5 -126.5t126.5 -327.5q0 -136 -44.5 -257.5t-123 -210.5t-191 -141.5t-241.5 -52.5q-207 0 -331 128.5t-124 336.5zM307 440q0 -137 68 -222t182 -85q106 0 195 69.5t138.5 180.5t49.5 235q0 135 -69.5 217.5 t-184.5 82.5q-106 0 -194 -68t-136.5 -177t-48.5 -233zM418 1229q19 100 83 165.5t150 65.5q47 0 94.5 -22.5t88 -45t71.5 -22.5q30 0 54 23t32 59h123q-19 -101 -82 -166t-149 -65q-48 0 -94.5 22.5t-87.5 45t-74 22.5q-30 0 -54 -23t-32 -59h-123z" />
<glyph unicode="&#xf6;" horiz-adv-x="1241" d="M96 432q0 180 76 328.5t213.5 235.5t308.5 87q204 0 330.5 -126.5t126.5 -327.5q0 -136 -44.5 -257.5t-123 -210.5t-191 -141.5t-241.5 -52.5q-207 0 -331 128.5t-124 336.5zM307 440q0 -137 68 -222t182 -85q106 0 195 69.5t138.5 180.5t49.5 235q0 135 -69.5 217.5 t-184.5 82.5q-106 0 -194 -68t-136.5 -177t-48.5 -233zM440 1358q0 50 34 83.5t85 33.5q52 0 85.5 -33.5t33.5 -83.5q0 -51 -33.5 -84t-85.5 -33t-85.5 33t-33.5 84zM823 1358q0 50 34 83.5t85 33.5q52 0 85.5 -33.5t33.5 -83.5q0 -51 -33.5 -84t-85.5 -33t-85.5 33 t-33.5 84z" />
<glyph unicode="&#xf7;" horiz-adv-x="1193" d="M133 555v166h969v-166h-969zM489 270q0 53 36.5 89t90.5 36t90.5 -36t36.5 -89q0 -51 -36.5 -87t-90.5 -36t-90.5 36t-36.5 87zM489 1006q0 51 36.5 87.5t90.5 36.5t90.5 -36.5t36.5 -87.5q0 -52 -36.5 -87.5t-90.5 -35.5t-90.5 35.5t-36.5 87.5z" />
<glyph unicode="&#xf8;" horiz-adv-x="1241" d="M33 43l129 129q-66 111 -66 260q0 180 76 328.5t213.5 235.5t308.5 87q169 0 289 -90l115 115l92 -88l-119 -119q80 -116 80 -272q0 -136 -44.5 -257.5t-123 -210.5t-191 -141.5t-241.5 -52.5q-184 0 -307 107l-119 -119zM307 440q0 -58 15 -108l526 526q-63 60 -162 60 q-106 0 -194 -68t-136.5 -177t-48.5 -233zM381 211q68 -78 176 -78q106 0 195 69.5t138.5 180.5t49.5 235q0 67 -20 132z" />
<glyph unicode="&#xf9;" horiz-adv-x="1277" d="M113 903l24 146h365l-119 -668q-6 -30 -6 -62q0 -78 41 -128t114 -50q105 0 198.5 85t113.5 196l110 627h199l-160 -904h164l-24 -145h-361l33 176q-66 -91 -156.5 -146t-195.5 -55q-123 0 -202 86t-79 209q0 20 10 92l94 541h-163zM530 1501h211l95 -295h-162z" />
<glyph unicode="&#xfa;" horiz-adv-x="1277" d="M113 903l24 146h365l-119 -668q-6 -30 -6 -62q0 -78 41 -128t114 -50q105 0 198.5 85t113.5 196l110 627h199l-160 -904h164l-24 -145h-361l33 176q-66 -91 -156.5 -146t-195.5 -55q-123 0 -202 86t-79 209q0 20 10 92l94 541h-163zM596 1206l203 287h245l-270 -287h-178 z" />
<glyph unicode="&#xfb;" horiz-adv-x="1277" d="M113 903l24 146h365l-119 -668q-6 -30 -6 -62q0 -78 41 -128t114 -50q105 0 198.5 85t113.5 196l110 627h199l-160 -904h164l-24 -145h-361l33 176q-66 -91 -156.5 -146t-195.5 -55q-123 0 -202 86t-79 209q0 20 10 92l94 541h-163zM410 1212l266 269h190l164 -269h-168 l-96 164l-158 -164h-198z" />
<glyph unicode="&#xfc;" horiz-adv-x="1277" d="M113 903l24 146h365l-119 -668q-6 -30 -6 -62q0 -78 41 -128t114 -50q105 0 198.5 85t113.5 196l110 627h199l-160 -904h164l-24 -145h-361l33 176q-66 -91 -156.5 -146t-195.5 -55q-123 0 -202 86t-79 209q0 20 10 92l94 541h-163zM436 1358q0 50 34 83.5t85 33.5 q52 0 85.5 -33.5t33.5 -83.5q0 -51 -33.5 -84t-85.5 -33t-85.5 33t-33.5 84zM819 1358q0 50 34 83.5t85 33.5q52 0 85.5 -33.5t33.5 -83.5q0 -51 -33.5 -84t-85.5 -33t-85.5 33t-33.5 84z" />
<glyph unicode="&#xfd;" horiz-adv-x="1134" d="M-141 -371l45 150q38 -15 84 -15q84 0 194.5 62t196.5 154l-174 923h-178l24 146h328l166 -914q154 183 250 370.5t96 344.5q0 21 -4 53h-193l25 146h344q18 -99 18 -183q0 -118 -51.5 -262t-135.5 -281.5t-197.5 -269t-232.5 -230t-244.5 -158.5t-229.5 -60 q-76 0 -131 24zM453 1206l202 287h246l-270 -287h-178z" />
<glyph unicode="&#xfe;" horiz-adv-x="1290" d="M45 -383l303 1718h-164l25 146h362l-104 -598q141 196 360 196q160 0 266.5 -130t106.5 -316q0 -177 -73.5 -329t-204 -242.5t-287.5 -90.5q-105 0 -179 56t-114 153l-98 -563h-199zM381 428q0 -136 62.5 -213.5t174.5 -77.5q102 0 188.5 70t134.5 182t48 236 q0 134 -62.5 211t-172.5 77q-104 0 -191 -70.5t-134.5 -181.5t-47.5 -233z" />
<glyph unicode="&#xff;" horiz-adv-x="1134" d="M-141 -371l45 150q38 -15 84 -15q84 0 194.5 62t196.5 154l-174 923h-178l24 146h328l166 -914q154 183 250 370.5t96 344.5q0 21 -4 53h-193l25 146h344q18 -99 18 -183q0 -118 -51.5 -262t-135.5 -281.5t-197.5 -269t-232.5 -230t-244.5 -158.5t-229.5 -60 q-76 0 -131 24zM293 1358q0 50 34 83.5t85 33.5q52 0 85 -33.5t33 -83.5q0 -51 -33 -84t-85 -33t-85.5 33t-33.5 84zM676 1358q0 50 34 83.5t85 33.5q52 0 85 -33.5t33 -83.5q0 -51 -33 -84t-85 -33t-85.5 33t-33.5 84z" />
<glyph unicode="&#x100;" horiz-adv-x="1392" d="M-98 0l26 150h129l684 1288h230l223 -1288h133l-27 -150h-518l27 150h170l-51 307h-518l-162 -307h172l-27 -150h-491zM494 616h409l-94 621zM584 1618l26 143h596l-26 -143h-596z" />
<glyph unicode="&#x101;" d="M94 418q0 180 74.5 332.5t202 240.5t276.5 88q102 0 179 -57t118 -148l31 175h199l-160 -904h164l-25 -145h-360l30 174q-64 -92 -158 -147.5t-208 -55.5q-157 0 -260 127.5t-103 319.5zM305 434q0 -139 58 -218t165 -79q104 0 191.5 69t135.5 180.5t48 238.5 q0 140 -62.5 214t-176.5 74q-95 0 -178.5 -67t-132 -178t-48.5 -234zM393 1253l27 144h596l-27 -144h-596z" />
<glyph unicode="&#x102;" horiz-adv-x="1392" d="M-98 0l26 150h129l684 1288h230l223 -1288h133l-27 -150h-518l27 150h170l-51 307h-518l-162 -307h172l-27 -150h-491zM494 616h409l-94 621zM629 1769q0 26 8 58h147q-6 -21 -6 -39q0 -47 25 -76t78 -29q58 0 95 41.5t52 102.5h152q-21 -122 -101.5 -196.5t-206.5 -74.5 q-111 0 -177 60.5t-66 152.5z" />
<glyph unicode="&#x103;" d="M94 418q0 180 74.5 332.5t202 240.5t276.5 88q102 0 179 -57t118 -148l31 175h199l-160 -904h164l-25 -145h-360l30 174q-64 -92 -158 -147.5t-208 -55.5q-157 0 -260 127.5t-103 319.5zM305 434q0 -139 58 -218t165 -79q104 0 191.5 69t135.5 180.5t48 238.5 q0 140 -62.5 214t-176.5 74q-95 0 -178.5 -67t-132 -178t-48.5 -234zM438 1405q0 25 8 57h148q-6 -21 -6 -39q0 -47 24.5 -75.5t77.5 -28.5q58 0 95.5 41t52.5 102h151q-21 -122 -101 -196t-206 -74q-111 0 -177.5 60.5t-66.5 152.5z" />
<glyph unicode="&#x104;" horiz-adv-x="1392" d="M-98 0l26 150h129l684 1288h230l223 -1288h133l-27 -150h-98q-85 -24 -145 -76.5t-60 -109.5q0 -34 23 -56t55 -22q47 0 94 35l58 -115q-83 -59 -201 -59q-81 0 -138 53t-57 131q0 63 42.5 121t115.5 98h-207l27 150h170l-51 307h-518l-162 -307h172l-27 -150h-491z M494 616h409l-94 621z" />
<glyph unicode="&#x105;" d="M94 418q0 180 74.5 332.5t202 240.5t276.5 88q102 0 179 -57t118 -148l31 175h199l-160 -904h164l-25 -145h-129q-85 -24 -145 -76.5t-60 -109.5q0 -34 23 -56t55 -22q47 0 94 35l58 -115q-83 -59 -201 -59q-81 0 -138 53t-57 131q0 65 44 124t120 99l6 170 q-66 -91 -160 -147t-206 -56q-157 0 -260 127.5t-103 319.5zM305 434q0 -139 58 -218t165 -79q104 0 191.5 69t135.5 180.5t48 238.5q0 140 -62.5 214t-176.5 74q-95 0 -178.5 -67t-132 -178t-48.5 -234z" />
<glyph unicode="&#x106;" horiz-adv-x="1398" d="M147 588q0 184 64 347.5t171 278.5t250.5 181.5t297.5 66.5q276 0 493 -119l-67 -382h-174l45 253q-137 72 -303 72q-144 0 -271 -96t-201.5 -254.5t-74.5 -333.5q0 -201 93.5 -326.5t264.5 -125.5q119 0 227 70.5t177 185.5l147 -109q-94 -155 -246 -242.5t-329 -87.5 q-127 0 -234 49.5t-178.5 134t-111.5 197.5t-40 240zM752 1571l202 287h246l-270 -287h-178z" />
<glyph unicode="&#x107;" horiz-adv-x="1091" d="M96 430q0 179 78 328.5t209.5 235t286.5 85.5q206 0 379 -98l-52 -299h-157l30 182q-85 51 -200 51q-96 0 -180 -66t-133.5 -176t-49.5 -235q0 -133 64 -217t166 -84q86 0 166 52t137 135l127 -101q-76 -120 -194 -187t-261 -67q-185 0 -300.5 130t-115.5 331zM561 1206 l203 287h246l-271 -287h-178z" />
<glyph unicode="&#x108;" horiz-adv-x="1398" d="M147 588q0 184 64 347.5t171 278.5t250.5 181.5t297.5 66.5q276 0 493 -119l-67 -382h-174l45 253q-137 72 -303 72q-144 0 -271 -96t-201.5 -254.5t-74.5 -333.5q0 -201 93.5 -326.5t264.5 -125.5q119 0 227 70.5t177 185.5l147 -109q-94 -155 -246 -242.5t-329 -87.5 q-127 0 -234 49.5t-178.5 134t-111.5 197.5t-40 240zM565 1577l266 268h191l164 -268h-168l-96 164l-158 -164h-199z" />
<glyph unicode="&#x109;" horiz-adv-x="1091" d="M96 430q0 179 78 328.5t209.5 235t286.5 85.5q206 0 379 -98l-52 -299h-157l30 182q-85 51 -200 51q-96 0 -180 -66t-133.5 -176t-49.5 -235q0 -133 64 -217t166 -84q86 0 166 52t137 135l127 -101q-76 -120 -194 -187t-261 -67q-185 0 -300.5 130t-115.5 331zM375 1212 l266 269h190l164 -269h-168l-96 164l-158 -164h-198z" />
<glyph unicode="&#x10a;" horiz-adv-x="1398" d="M147 588q0 184 64 347.5t171 278.5t250.5 181.5t297.5 66.5q276 0 493 -119l-67 -382h-174l45 253q-137 72 -303 72q-144 0 -271 -96t-201.5 -254.5t-74.5 -333.5q0 -201 93.5 -326.5t264.5 -125.5q119 0 227 70.5t177 185.5l147 -109q-94 -155 -246 -242.5t-329 -87.5 q-127 0 -234 49.5t-178.5 134t-111.5 197.5t-40 240zM786 1733q0 51 37 86.5t92 35.5t92 -35.5t37 -86.5q0 -55 -36.5 -91t-92.5 -36t-92.5 36t-36.5 91z" />
<glyph unicode="&#x10b;" horiz-adv-x="1091" d="M96 430q0 179 78 328.5t209.5 235t286.5 85.5q206 0 379 -98l-52 -299h-157l30 182q-85 51 -200 51q-96 0 -180 -66t-133.5 -176t-49.5 -235q0 -133 64 -217t166 -84q86 0 166 52t137 135l127 -101q-76 -120 -194 -187t-261 -67q-185 0 -300.5 130t-115.5 331zM596 1368 q0 51 37 87t92 36t92 -36t37 -87q0 -55 -36.5 -91t-92.5 -36t-92.5 36t-36.5 91z" />
<glyph unicode="&#x10c;" horiz-adv-x="1398" d="M147 588q0 184 64 347.5t171 278.5t250.5 181.5t297.5 66.5q276 0 493 -119l-67 -382h-174l45 253q-137 72 -303 72q-144 0 -271 -96t-201.5 -254.5t-74.5 -333.5q0 -201 93.5 -326.5t264.5 -125.5q119 0 227 70.5t177 185.5l147 -109q-94 -155 -246 -242.5t-329 -87.5 q-127 0 -234 49.5t-178.5 134t-111.5 197.5t-40 240zM625 1845h168l96 -164l158 164h198l-266 -268h-191z" />
<glyph unicode="&#x10d;" horiz-adv-x="1089" d="M94 428q0 133 46.5 254t124.5 207.5t183.5 138t219.5 51.5q206 0 379 -98l-52 -299h-155l30 182q-85 51 -202 51q-97 0 -181 -66t-133 -176t-49 -235q0 -134 63.5 -217.5t166.5 -83.5q85 0 165.5 50t135.5 130l125 -98q-74 -119 -192 -184.5t-259 -65.5 q-184 0 -300 129.5t-116 329.5zM430 1477h172l96 -164l158 164h195l-267 -269h-190z" />
<glyph unicode="&#x10e;" horiz-adv-x="1503" d="M16 0l27 150h164l201 1134h-164l26 150h572q256 0 420.5 -155t164.5 -407t-100.5 -449.5t-287.5 -310t-431 -112.5h-592zM420 150h176q168 0 306.5 96t217 260.5t78.5 359.5q0 192 -113.5 305t-293.5 113h-170zM608 1845h168l96 -164l158 164h199l-266 -268h-191z" />
<glyph unicode="&#x10f;" horiz-adv-x="1439" d="M94 418q0 135 45 257.5t120.5 211t179 140.5t216.5 52q102 0 179 -57t118 -148l82 461h-164l25 146h365l-236 -1336h164l-25 -145h-360l31 174q-64 -92 -159.5 -147.5t-211.5 -55.5q-160 0 -264.5 127.5t-104.5 319.5zM305 434q0 -139 59.5 -218t170.5 -79q105 0 193 69 t136.5 180.5t48.5 238.5q0 140 -63 214t-178 74q-97 0 -182.5 -67t-135 -178t-49.5 -234zM1329 1124l92 357h191l-146 -357h-137z" />
<glyph unicode="&#x110;" horiz-adv-x="1556" d="M70 0l26 150h164l92 520h-217l27 149h217l82 465h-164l27 150h571q256 0 421 -155t165 -407t-100.5 -449.5t-287.5 -310t-431 -112.5h-592zM473 150h176q168 0 306.5 96t217 260.5t78.5 359.5q0 192 -113.5 305t-293.5 113h-170l-82 -465h287l-27 -149h-287z" />
<glyph unicode="&#x111;" horiz-adv-x="1308" d="M94 418q0 135 45 257.5t120.5 211t179 140.5t216.5 52q102 0 179 -57t118 -148l49 273h-276l18 110h277l18 101h-164l21 123h365l-39 -224h161l-18 -110h-164l-176 -1002h164l-25 -145h-360l31 174q-64 -92 -159.5 -147.5t-211.5 -55.5q-160 0 -264.5 127.5t-104.5 319.5 zM305 434q0 -139 59.5 -218t170.5 -79q105 0 193 69t136.5 180.5t48.5 238.5q0 140 -63 214t-178 74q-97 0 -182.5 -67t-135 -178t-49.5 -234z" />
<glyph unicode="&#x112;" horiz-adv-x="1181" d="M16 0l27 150h164l201 1134h-164l26 150h947l-62 -349h-174l37 201h-397l-82 -459h422l-29 -161h-422l-90 -519h407l39 230h174l-65 -377h-959zM504 1618l26 143h596l-26 -143h-596z" />
<glyph unicode="&#x113;" horiz-adv-x="1177" d="M96 444q0 132 47.5 250.5t127.5 202.5t188 133t225 49q182 0 292.5 -115.5t110.5 -285.5q0 -84 -28 -184h-756q-2 -14 -2 -43q0 -135 68.5 -224.5t183.5 -89.5q88 0 176 45.5t156 118.5l116 -111q-83 -102 -205.5 -159.5t-263.5 -57.5q-200 0 -318 131t-118 340zM332 633 h542q7 49 7 61q0 102 -58.5 165t-156.5 63q-110 0 -201.5 -79.5t-132.5 -209.5zM422 1253l27 144h595l-26 -144h-596z" />
<glyph unicode="&#x114;" horiz-adv-x="1181" d="M16 0l27 150h164l201 1134h-164l26 150h947l-62 -349h-174l37 201h-397l-82 -459h422l-29 -161h-422l-90 -519h407l39 230h174l-65 -377h-959zM549 1769q0 26 8 58h148q-7 -25 -7 -39q0 -47 25 -76t78 -29q58 0 95 41.5t52 102.5h152q-21 -122 -101.5 -196.5 t-205.5 -74.5q-111 0 -177.5 60.5t-66.5 152.5z" />
<glyph unicode="&#x115;" horiz-adv-x="1177" d="M96 444q0 132 47.5 250.5t127.5 202.5t188 133t225 49q182 0 292.5 -115.5t110.5 -285.5q0 -84 -28 -184h-756q-2 -14 -2 -43q0 -135 68.5 -224.5t183.5 -89.5q88 0 176 45.5t156 118.5l116 -111q-83 -102 -205.5 -159.5t-263.5 -57.5q-200 0 -318 131t-118 340zM332 633 h542q7 49 7 61q0 102 -58.5 165t-156.5 63q-110 0 -201.5 -79.5t-132.5 -209.5zM467 1405q0 25 8 57h148q-7 -24 -7 -39q0 -47 25 -75.5t78 -28.5q58 0 95 41t52 102h152q-21 -122 -101 -196t-206 -74q-111 0 -177.5 60.5t-66.5 152.5z" />
<glyph unicode="&#x116;" horiz-adv-x="1181" d="M16 0l27 150h164l201 1134h-164l26 150h947l-62 -349h-174l37 201h-397l-82 -459h422l-29 -161h-422l-90 -519h407l39 230h174l-65 -377h-959zM686 1733q0 51 37 86.5t92 35.5t92 -35.5t37 -86.5q0 -55 -36.5 -91t-92.5 -36t-92.5 36t-36.5 91z" />
<glyph unicode="&#x117;" horiz-adv-x="1177" d="M96 444q0 132 47.5 250.5t127.5 202.5t188 133t225 49q182 0 292.5 -115.5t110.5 -285.5q0 -84 -28 -184h-756q-2 -14 -2 -43q0 -135 68.5 -224.5t183.5 -89.5q88 0 176 45.5t156 118.5l116 -111q-83 -102 -205.5 -159.5t-263.5 -57.5q-200 0 -318 131t-118 340zM332 633 h542q7 49 7 61q0 102 -58.5 165t-156.5 63q-110 0 -201.5 -79.5t-132.5 -209.5zM604 1368q0 51 37 87t92 36t92 -36t37 -87q0 -55 -36.5 -91t-92.5 -36t-92.5 36t-36.5 91z" />
<glyph unicode="&#x118;" horiz-adv-x="1181" d="M16 0l27 150h164l201 1134h-164l26 150h947l-62 -349h-174l37 201h-397l-82 -459h422l-29 -161h-422l-90 -519h407l39 230h174l-65 -377h-57q-85 -24 -145 -76.5t-60 -109.5q0 -34 23 -56t55 -22q47 0 94 35l57 -115q-83 -59 -201 -59q-81 0 -137.5 52.5t-56.5 131.5 q0 63 42.5 121t115.5 98h-689z" />
<glyph unicode="&#x119;" horiz-adv-x="1177" d="M96 444q0 132 47.5 250.5t127.5 202.5t188 133t225 49q182 0 292.5 -115.5t110.5 -285.5q0 -84 -28 -184h-756q-2 -14 -2 -43q0 -135 68.5 -224.5t183.5 -89.5q88 0 176 45.5t156 118.5l116 -111q-79 -98 -196 -155q-162 -107 -162 -217q0 -35 22.5 -58.5t55.5 -23.5 q53 0 100 43l68 -107q-88 -75 -211 -75q-82 0 -140.5 50t-58.5 128q0 104 111 200q-18 -2 -58 -2q-200 0 -318 131t-118 340zM332 633h542q7 49 7 61q0 102 -58.5 165t-156.5 63q-110 0 -201.5 -79.5t-132.5 -209.5z" />
<glyph unicode="&#x11a;" horiz-adv-x="1181" d="M16 0l27 150h164l201 1134h-164l26 150h947l-62 -349h-174l37 201h-397l-82 -459h422l-29 -161h-422l-90 -519h407l39 230h174l-65 -377h-959zM524 1845h168l96 -164l158 164h199l-266 -268h-191z" />
<glyph unicode="&#x11b;" horiz-adv-x="1177" d="M96 444q0 132 47.5 250.5t127.5 202.5t188 133t225 49q182 0 292.5 -115.5t110.5 -285.5q0 -84 -28 -184h-756q-2 -14 -2 -43q0 -135 68.5 -224.5t183.5 -89.5q88 0 176 45.5t156 118.5l116 -111q-83 -102 -205.5 -159.5t-263.5 -57.5q-200 0 -318 131t-118 340zM332 633 h542q7 49 7 61q0 102 -58.5 165t-156.5 63q-110 0 -201.5 -79.5t-132.5 -209.5zM442 1481h168l97 -164l157 164h199l-266 -269h-191z" />
<glyph unicode="&#x11c;" horiz-adv-x="1531" d="M150 598q0 183 65 345t175.5 275t261 178.5t315.5 65.5q290 0 532 -116l-61 -355h-174l39 221q-158 76 -338 76q-161 0 -296 -92t-212.5 -247.5t-77.5 -336.5q0 -202 94.5 -333.5t247.5 -131.5q171 0 305.5 111.5t175.5 296.5h-297l31 168h485l-129 -723h-174l37 199 q-88 -110 -210 -171t-255 -61q-155 0 -279.5 85t-192.5 229t-68 317zM625 1577l266 268h190l164 -268h-168l-96 164l-158 -164h-198z" />
<glyph unicode="&#x11d;" horiz-adv-x="1253" d="M57 -262l99 123q48 -45 120.5 -74t157.5 -29q144 0 246.5 71t126.5 208l27 151q-63 -94 -158.5 -146t-214.5 -52q-159 0 -263 124.5t-104 311.5q0 133 45 254t120 208.5t179 139t217 51.5q102 0 180.5 -57t118.5 -148l33 175h199l-176 -998q-40 -226 -199.5 -337 t-394.5 -111q-105 0 -200 37t-159 98zM305 442q0 -135 59 -212.5t168 -77.5q105 0 193.5 67t138 175.5t49.5 230.5q0 140 -63 214t-178 74q-97 0 -182.5 -66t-135 -175t-49.5 -230zM332 1212l266 269h190l164 -269h-168l-96 164l-158 -164h-198z" />
<glyph unicode="&#x11e;" horiz-adv-x="1531" d="M150 598q0 183 65 345t175.5 275t261 178.5t315.5 65.5q290 0 532 -116l-61 -355h-174l39 221q-158 76 -338 76q-161 0 -296 -92t-212.5 -247.5t-77.5 -336.5q0 -202 94.5 -333.5t247.5 -131.5q171 0 305.5 111.5t175.5 296.5h-297l31 168h485l-129 -723h-174l37 199 q-88 -110 -210 -171t-255 -61q-155 0 -279.5 85t-192.5 229t-68 317zM709 1769q0 26 8 58h147q-6 -21 -6 -39q0 -47 25 -76t78 -29q58 0 95 41.5t52 102.5h152q-21 -122 -101.5 -196.5t-206.5 -74.5q-111 0 -177 60.5t-66 152.5z" />
<glyph unicode="&#x11f;" horiz-adv-x="1253" d="M57 -262l99 123q48 -45 120.5 -74t157.5 -29q144 0 246.5 71t126.5 208l27 151q-63 -94 -158.5 -146t-214.5 -52q-159 0 -263 124.5t-104 311.5q0 133 45 254t120 208.5t179 139t217 51.5q102 0 180.5 -57t118.5 -148l33 175h199l-176 -998q-40 -226 -199.5 -337 t-394.5 -111q-105 0 -200 37t-159 98zM305 442q0 -135 59 -212.5t168 -77.5q105 0 193.5 67t138 175.5t49.5 230.5q0 140 -63 214t-178 74q-97 0 -182.5 -66t-135 -175t-49.5 -230zM416 1405q0 25 8 57h147q-6 -21 -6 -39q0 -47 25 -75.5t78 -28.5q58 0 95 41t52 102h152 q-21 -122 -101.5 -196t-206.5 -74q-111 0 -177 60.5t-66 152.5z" />
<glyph unicode="&#x120;" horiz-adv-x="1531" d="M150 598q0 183 65 345t175.5 275t261 178.5t315.5 65.5q290 0 532 -116l-61 -355h-174l39 221q-158 76 -338 76q-161 0 -296 -92t-212.5 -247.5t-77.5 -336.5q0 -202 94.5 -333.5t247.5 -131.5q171 0 305.5 111.5t175.5 296.5h-297l31 168h485l-129 -723h-174l37 199 q-88 -110 -210 -171t-255 -61q-155 0 -279.5 85t-192.5 229t-68 317zM846 1733q0 51 37 86.5t92 35.5t92 -35.5t37 -86.5q0 -55 -36.5 -91t-92.5 -36t-92.5 36t-36.5 91z" />
<glyph unicode="&#x121;" horiz-adv-x="1253" d="M57 -262l99 123q48 -45 120.5 -74t157.5 -29q144 0 246.5 71t126.5 208l27 151q-63 -94 -158.5 -146t-214.5 -52q-159 0 -263 124.5t-104 311.5q0 133 45 254t120 208.5t179 139t217 51.5q102 0 180.5 -57t118.5 -148l33 175h199l-176 -998q-40 -226 -199.5 -337 t-394.5 -111q-105 0 -200 37t-159 98zM305 442q0 -135 59 -212.5t168 -77.5q105 0 193.5 67t138 175.5t49.5 230.5q0 140 -63 214t-178 74q-97 0 -182.5 -66t-135 -175t-49.5 -230zM553 1368q0 51 37 87t92 36t92 -36t37 -87q0 -55 -36.5 -91t-92.5 -36t-92.5 36t-36.5 91z " />
<glyph unicode="&#x122;" horiz-adv-x="1531" d="M150 598q0 183 65 345t175.5 275t261 178.5t315.5 65.5q290 0 532 -116l-61 -355h-174l39 221q-158 76 -338 76q-161 0 -296 -92t-212.5 -247.5t-77.5 -336.5q0 -202 94.5 -333.5t247.5 -131.5q171 0 305.5 111.5t175.5 296.5h-297l31 168h485l-129 -723h-174l37 199 q-88 -110 -210 -171t-255 -61q-155 0 -279.5 85t-192.5 229t-68 317zM528 -457q97 87 97 189q0 49 -27 98l176 84q37 -64 37 -123q0 -90 -63 -170t-162 -139z" />
<glyph unicode="&#x123;" horiz-adv-x="1253" d="M57 -262l99 123q48 -45 120.5 -74t157.5 -29q144 0 246.5 71t126.5 208l27 151q-63 -94 -158.5 -146t-214.5 -52q-159 0 -263 124.5t-104 311.5q0 133 45 254t120 208.5t179 139t217 51.5q102 0 180.5 -57t118.5 -148l33 175h199l-176 -998q-40 -226 -199.5 -337 t-394.5 -111q-105 0 -200 37t-159 98zM305 442q0 -135 59 -212.5t168 -77.5q105 0 193.5 67t138 175.5t49.5 230.5q0 140 -63 214t-178 74q-97 0 -182.5 -66t-135 -175t-49.5 -230zM530 1264q0 90 63.5 170t162.5 139l57 -62q-96 -86 -96 -188q0 -51 26 -98l-176 -84 q-37 64 -37 123z" />
<glyph unicode="&#x124;" horiz-adv-x="1642" d="M16 0l27 150h164l201 1134h-164l26 150h541l-27 -150h-163l-84 -469h669l84 469h-164l27 150h541l-27 -150h-164l-200 -1134h163l-26 -150h-541l27 150h164l88 497h-670l-88 -497h164l-27 -150h-541zM672 1577l266 268h190l164 -268h-168l-96 164l-158 -164h-198z" />
<glyph unicode="&#x125;" d="M115 0l233 1335h-164l25 146h364l-106 -604q61 87 155 141.5t199 54.5q131 0 217 -88t86 -217q0 -42 -6 -76l-96 -547h164l-25 -145h-364l118 672q0 1 3.5 21.5t3.5 31.5q0 83 -52 132.5t-143 49.5q-104 0 -193.5 -84.5t-109.5 -201.5l-111 -621h-198zM510 1571l266 268 h191l163 -268h-167l-97 164l-157 -164h-199z" />
<glyph unicode="&#x126;" horiz-adv-x="1642" d="M16 0l27 150h164l149 835h-159l20 123h160l33 180h-164l24 146h541l-25 -146h-163l-33 -180h670l32 180h-164l25 146h541l-25 -146h-164l-32 -180h163l-20 -123h-164l-149 -835h163l-26 -150h-541l27 150h164l88 497h-670l-88 -497h164l-27 -150h-541zM537 815h669 l31 170h-670z" />
<glyph unicode="&#x127;" d="M115 0l202 1147h-165l18 110h166l18 101h-166l21 123h364l-38 -224h251l-18 -110h-254l-47 -270q61 87 155 141.5t199 54.5q131 0 217 -88t86 -217q0 -42 -6 -76l-96 -547h164l-25 -145h-364l118 672q0 1 3.5 21.5t3.5 31.5q0 83 -52 132.5t-143 49.5 q-104 0 -193.5 -84.5t-109.5 -201.5l-111 -621h-198z" />
<glyph unicode="&#x128;" horiz-adv-x="759" d="M16 0l27 150h164l201 1134h-164l26 150h541l-27 -150h-163l-201 -1134h162l-27 -150h-539zM246 1593q19 101 83 166.5t150 65.5q47 0 94.5 -22.5t88 -45t71.5 -22.5q30 0 54 23t32 59h123q-19 -101 -82 -166.5t-149 -65.5q-48 0 -94.5 22.5t-87.5 45t-74 22.5 q-30 0 -54 -23t-32 -59h-123z" />
<glyph unicode="&#x129;" horiz-adv-x="628" d="M68 1229q19 100 83 165.5t150 65.5q47 0 94.5 -22.5t88 -45t71.5 -22.5q30 0 54 23t32 59h123q-19 -101 -82.5 -166t-149.5 -65q-48 0 -94.5 22.5t-87.5 45t-74 22.5q-30 0 -54 -23t-32 -59h-122zM121 903l24 146h363l-160 -904h164l-25 -145h-362l160 903h-164z" />
<glyph unicode="&#x12a;" horiz-adv-x="759" d="M16 0l27 150h164l201 1134h-164l26 150h541l-27 -150h-163l-201 -1134h162l-27 -150h-539zM281 1618l26 143h596l-26 -143h-596z" />
<glyph unicode="&#x12b;" horiz-adv-x="628" d="M121 903l24 146h363l-160 -904h164l-25 -145h-362l160 903h-164zM125 1253l27 144h596l-27 -144h-596z" />
<glyph unicode="&#x12c;" horiz-adv-x="759" d="M16 0l27 150h164l201 1134h-164l26 150h541l-27 -150h-163l-201 -1134h162l-27 -150h-539zM326 1769q0 26 8 58h147q-6 -21 -6 -39q0 -47 25 -76t78 -29q58 0 95 41.5t52 102.5h152q-21 -122 -101.5 -196.5t-206.5 -74.5q-111 0 -177 60.5t-66 152.5z" />
<glyph unicode="&#x12d;" horiz-adv-x="628" d="M121 903l24 146h363l-160 -904h164l-25 -145h-362l160 903h-164zM172 1405q0 25 8 57h148q-6 -21 -6 -39q0 -47 24.5 -75.5t77.5 -28.5q58 0 95 41t52 102h152q-21 -122 -101 -196t-206 -74q-111 0 -177.5 60.5t-66.5 152.5z" />
<glyph unicode="&#x12e;" horiz-adv-x="759" d="M16 0l27 150h164l201 1134h-164l26 150h541l-27 -150h-163l-201 -1134h162l-27 -150h-84q-85 -24 -145 -76.5t-60 -109.5q0 -34 23 -56t55 -22q47 0 94 35l58 -115q-83 -59 -201 -59q-81 0 -138 53t-57 131q0 63 42.5 121t115.5 98h-242z" />
<glyph unicode="&#x12f;" horiz-adv-x="632" d="M70 -219q0 64 42 121.5t115 97.5h-102l160 903h-164l24 146h363l-160 -904h164l-25 -145h-47q-85 -24 -144.5 -76.5t-59.5 -109.5q0 -34 22.5 -56t54.5 -22q48 0 95 35l57 -115q-83 -59 -201 -59q-81 0 -137.5 52.5t-56.5 131.5zM313 1376q0 54 38 91.5t95 37.5 t95.5 -37.5t38.5 -91.5q0 -57 -38.5 -94t-95.5 -37q-58 0 -95.5 37t-37.5 94z" />
<glyph unicode="&#x130;" horiz-adv-x="759" d="M16 0l27 150h164l201 1134h-164l26 150h541l-27 -150h-163l-201 -1134h162l-27 -150h-539zM463 1733q0 51 37 86.5t92 35.5t92 -35.5t37 -86.5q0 -55 -36.5 -91t-92.5 -36t-92.5 36t-36.5 91z" />
<glyph unicode="&#x131;" horiz-adv-x="632" d="M121 903l24 146h363l-160 -904h164l-25 -145h-362l160 903h-164z" />
<glyph unicode="&#x132;" horiz-adv-x="1478" d="M16 0l27 150h164l201 1134h-164l26 150h541l-27 -150h-163l-201 -1134h162l-27 -150h-539zM584 -236l43 154q57 -33 127 -33q76 0 134 57.5t73 147.5l210 1194h-196l26 150h566l-27 -150h-156l-213 -1206q-30 -168 -143.5 -260t-271.5 -92q-98 0 -172 38z" />
<glyph unicode="&#x133;" horiz-adv-x="1228" d="M121 903l24 146h363l-160 -904h164l-25 -145h-362l160 903h-164zM313 1376q0 54 38 91.5t95 37.5t95.5 -37.5t38.5 -91.5q0 -57 -38.5 -94t-95.5 -37q-58 0 -95.5 37t-37.5 94zM465 -377l27 150q39 -13 79 -13q70 0 119 49.5t64 133.5l170 960h-164l24 146h363 l-197 -1110q-27 -153 -123.5 -242.5t-244.5 -89.5q-55 0 -117 16zM946 1376q0 54 38 91.5t95 37.5t95 -37.5t38 -91.5q0 -57 -38 -94t-95 -37q-58 0 -95.5 37t-37.5 94z" />
<glyph unicode="&#x134;" horiz-adv-x="718" d="M-176 -236l43 154q57 -33 127 -33q76 0 134 57.5t73 147.5l211 1194h-197l27 150h565l-27 -150h-155l-213 -1206q-30 -167 -144 -259.5t-272 -92.5q-98 0 -172 38zM221 1577l266 268h191l164 -268h-168l-96 164l-158 -164h-199z" />
<glyph unicode="&#x135;" horiz-adv-x="581" d="M-168 -377l27 150q39 -13 80 -13q70 0 118.5 49.5t63.5 133.5l170 960h-164l25 146h362l-197 -1110q-27 -153 -123.5 -242.5t-244.5 -89.5q-55 0 -117 16zM86 1212l266 269h191l164 -269h-168l-97 164l-157 -164h-199z" />
<glyph unicode="&#x136;" horiz-adv-x="1415" d="M16 0l27 150h164l199 1134h-164l26 150h508l-26 -150h-132l-92 -520l602 528h-151l24 142h535l-27 -150h-147l-621 -536l447 -598h162l-27 -150h-555l25 145h147l-420 578l-100 -573h137l-27 -150h-514zM471 -457q96 86 96 189q0 51 -26 98l176 84q37 -64 37 -123 q0 -90 -63.5 -170t-162.5 -139z" />
<glyph unicode="&#x137;" horiz-adv-x="1122" d="M113 0l235 1335h-164l25 146h362l-143 -819q153 48 268 150t164 237h238q-60 -161 -192.5 -277.5t-305.5 -181.5l295 -445h160l-25 -145h-274l-348 551l-97 -551h-198zM342 -457q96 86 96 189q0 51 -26 98l176 84q37 -64 37 -123q0 -90 -63.5 -170t-162.5 -139z" />
<glyph unicode="&#x138;" horiz-adv-x="1134" d="M121 903l24 146h363l-68 -387q153 48 268 150t164 237h238q-60 -161 -192.5 -277.5t-305.5 -181.5l295 -445h160l-25 -145h-274l-348 551l-96 -551h-199l160 903h-164z" />
<glyph unicode="&#x139;" horiz-adv-x="1146" d="M16 0l27 150h164l201 1134h-164l26 150h549l-26 -150h-175l-198 -1137h411l48 267h174l-74 -414h-963zM414 1571l202 287h246l-270 -287h-178z" />
<glyph unicode="&#x13a;" horiz-adv-x="622" d="M113 0l235 1335h-164l25 146h364l-235 -1336h164l-25 -145h-364zM346 1599l203 287h246l-271 -287h-178z" />
<glyph unicode="&#x13b;" horiz-adv-x="1146" d="M16 0l27 150h164l201 1134h-164l26 150h549l-26 -150h-175l-198 -1137h411l48 267h174l-74 -414h-963zM393 -457q96 86 96 189q0 51 -26 98l176 84q37 -64 37 -123q0 -90 -63 -170t-162 -139z" />
<glyph unicode="&#x13c;" horiz-adv-x="622" d="M16 -457q97 87 97 189q0 49 -27 98l176 84q37 -64 37 -123q0 -90 -63 -170t-162 -139zM113 0l235 1335h-164l25 146h364l-235 -1336h164l-25 -145h-364z" />
<glyph unicode="&#x13d;" horiz-adv-x="1146" d="M16 0l27 150h164l201 1134h-164l26 150h549l-26 -150h-175l-198 -1137h411l48 267h174l-74 -414h-963zM885 1124l92 357h190l-145 -357h-137z" />
<glyph unicode="&#x13e;" horiz-adv-x="751" d="M113 0l235 1335h-164l25 146h364l-235 -1336h164l-25 -145h-364zM641 1124l92 357h191l-146 -357h-137z" />
<glyph unicode="&#x13f;" horiz-adv-x="1193" d="M16 0l27 150h164l201 1134h-164l26 150h549l-26 -150h-175l-198 -1137h411l48 267h174l-74 -414h-963zM860 750q0 59 44.5 102t103.5 43q58 0 99.5 -42.5t41.5 -102.5q0 -59 -41.5 -101.5t-99.5 -42.5q-59 0 -103.5 43t-44.5 101z" />
<glyph unicode="&#x140;" horiz-adv-x="960" d="M113 0l235 1335h-164l25 146h364l-235 -1336h164l-25 -145h-364zM664 750q0 59 44 102t103 43q58 0 99.5 -42.5t41.5 -102.5q0 -59 -41.5 -101.5t-99.5 -42.5q-59 0 -103 43t-44 101z" />
<glyph unicode="&#x141;" horiz-adv-x="1222" d="M92 0l27 150h164l86 481l-256 -103l28 160l254 103l88 493h-164l27 150h549l-27 -150h-174l-69 -401l303 121l-29 -160l-303 -121l-100 -576h411l47 267h174l-73 -414h-963z" />
<glyph unicode="&#x142;" horiz-adv-x="710" d="M39 563l24 150l234 104l92 518h-164l25 146h364l-100 -568l252 111l-25 -150l-254 -112l-108 -617h164l-25 -145h-364l116 666z" />
<glyph unicode="&#x143;" horiz-adv-x="1617" d="M16 0l27 150h164l201 1134h-164l26 150h373l508 -1139l174 989h-164l27 150h508l-27 -150h-164l-227 -1284h-213l-502 1143l-176 -993h164l-27 -150h-508zM850 1571l203 287h245l-270 -287h-178z" />
<glyph unicode="&#x144;" horiz-adv-x="1308" d="M121 903l24 146h359l-29 -172q61 87 156 141.5t200 54.5q131 0 217.5 -88t86.5 -217q0 -36 -7 -76l-96 -547h164l-25 -145h-364l119 672q6 24 6 53q0 83 -52 132.5t-143 49.5q-104 0 -194.5 -84.5t-110.5 -201.5l-108 -621h-199l160 903h-164zM635 1206l203 287h245 l-270 -287h-178z" />
<glyph unicode="&#x145;" horiz-adv-x="1617" d="M16 0l27 150h164l201 1134h-164l26 150h373l508 -1139l174 989h-164l27 150h508l-27 -150h-164l-227 -1284h-213l-502 1143l-176 -993h164l-27 -150h-508zM571 -457q97 87 97 189q0 49 -27 98l176 84q37 -64 37 -123q0 -90 -63 -170t-162 -139z" />
<glyph unicode="&#x146;" horiz-adv-x="1308" d="M121 903l24 146h359l-29 -172q61 87 156 141.5t200 54.5q131 0 217.5 -88t86.5 -217q0 -36 -7 -76l-96 -547h164l-25 -145h-364l119 672q6 24 6 53q0 83 -52 132.5t-143 49.5q-104 0 -194.5 -84.5t-110.5 -201.5l-108 -621h-199l160 903h-164zM393 -457q96 86 96 189 q0 51 -26 98l176 84q37 -64 37 -123q0 -90 -63 -170t-162 -139z" />
<glyph unicode="&#x147;" horiz-adv-x="1617" d="M16 0l27 150h164l201 1134h-164l26 150h373l508 -1139l174 989h-164l27 150h508l-27 -150h-164l-227 -1284h-213l-502 1143l-176 -993h164l-27 -150h-508zM723 1845h168l96 -164l158 164h198l-266 -268h-190z" />
<glyph unicode="&#x148;" horiz-adv-x="1308" d="M121 903l24 146h359l-29 -172q61 87 156 141.5t200 54.5q131 0 217.5 -88t86.5 -217q0 -36 -7 -76l-96 -547h164l-25 -145h-364l119 672q6 24 6 53q0 83 -52 132.5t-143 49.5q-104 0 -194.5 -84.5t-110.5 -201.5l-108 -621h-199l160 903h-164zM508 1481h168l96 -164 l158 164h198l-266 -269h-190z" />
<glyph unicode="&#x149;" horiz-adv-x="1556" d="M117 1096q110 107 110 239q0 62 -32 117l202 98q39 -63 39 -145q0 -107 -69 -204.5t-185 -174.5zM369 903l24 146h359l-29 -172q61 87 156 141.5t200 54.5q131 0 217 -88t86 -217q0 -42 -6 -76l-96 -547h164l-25 -145h-364l119 672q6 24 6 53q0 83 -52 132.5t-143 49.5 q-104 0 -194.5 -84.5t-110.5 -201.5l-109 -621h-198l159 903h-163z" />
<glyph unicode="&#x14a;" horiz-adv-x="1617" d="M16 0l27 150h164l201 1134h-164l26 150h373l508 -1135l174 985h-164l27 150h508l-27 -150h-164l-237 -1345q-27 -153 -124 -242.5t-245 -89.5q-55 0 -117 16l27 150q39 -13 80 -13q70 0 123 51.5t67 131.5l6 39l-522 1157l-176 -989h164l-27 -150h-508z" />
<glyph unicode="&#x14b;" horiz-adv-x="1263" d="M121 903l24 146h359l-29 -172q61 87 156 141.5t200 54.5q131 0 217.5 -88t86.5 -217q0 -36 -7 -76l-133 -753q-28 -155 -124 -243.5t-244 -88.5q-55 0 -117 16l27 150q39 -13 79 -13q71 0 121 49t62 134l127 729q6 24 6 53q0 83 -52 132.5t-143 49.5q-104 0 -194.5 -84.5 t-110.5 -201.5l-108 -621h-199l160 903h-164z" />
<glyph unicode="&#x14c;" horiz-adv-x="1613" d="M145 580q0 178 62 341t167.5 281.5t254 189t313.5 70.5q175 0 312 -77t211.5 -211.5t74.5 -303.5q0 -179 -62 -344.5t-167 -288.5t-254.5 -196.5t-315.5 -73.5q-175 0 -311.5 80.5t-210.5 220t-74 312.5zM375 596q0 -198 103.5 -324.5t275.5 -126.5q153 0 283 103.5 t202 266t72 339.5q0 195 -103 312.5t-280 117.5q-152 0 -280.5 -97.5t-200.5 -255.5t-72 -335zM682 1618l27 143h596l-27 -143h-596z" />
<glyph unicode="&#x14d;" horiz-adv-x="1241" d="M96 432q0 180 76 328.5t213.5 235.5t308.5 87q204 0 330.5 -126.5t126.5 -327.5q0 -136 -44.5 -257.5t-123 -210.5t-191 -141.5t-241.5 -52.5q-207 0 -331 128.5t-124 336.5zM307 440q0 -137 68 -222t182 -85q106 0 195 69.5t138.5 180.5t49.5 235q0 135 -69.5 217.5 t-184.5 82.5q-106 0 -194 -68t-136.5 -177t-48.5 -233zM453 1253l26 144h596l-26 -144h-596z" />
<glyph unicode="&#x14e;" horiz-adv-x="1613" d="M145 580q0 178 62 341t167.5 281.5t254 189t313.5 70.5q175 0 312 -77t211.5 -211.5t74.5 -303.5q0 -179 -62 -344.5t-167 -288.5t-254.5 -196.5t-315.5 -73.5q-175 0 -311.5 80.5t-210.5 220t-74 312.5zM375 596q0 -198 103.5 -324.5t275.5 -126.5q153 0 283 103.5 t202 266t72 339.5q0 195 -103 312.5t-280 117.5q-152 0 -280.5 -97.5t-200.5 -255.5t-72 -335zM727 1769q0 26 8 58h148q-6 -21 -6 -39q0 -48 24.5 -76.5t77.5 -28.5q58 0 95 41.5t52 102.5h152q-21 -122 -101.5 -196.5t-205.5 -74.5q-111 0 -177.5 60.5t-66.5 152.5z" />
<glyph unicode="&#x14f;" horiz-adv-x="1241" d="M96 432q0 180 76 328.5t213.5 235.5t308.5 87q204 0 330.5 -126.5t126.5 -327.5q0 -136 -44.5 -257.5t-123 -210.5t-191 -141.5t-241.5 -52.5q-207 0 -331 128.5t-124 336.5zM307 440q0 -137 68 -222t182 -85q106 0 195 69.5t138.5 180.5t49.5 235q0 135 -69.5 217.5 t-184.5 82.5q-106 0 -194 -68t-136.5 -177t-48.5 -233zM498 1405q0 25 8 57h147q-6 -21 -6 -39q0 -47 25 -75.5t78 -28.5q58 0 95 41t52 102h152q-21 -122 -101.5 -196t-206.5 -74q-111 0 -177 60.5t-66 152.5z" />
<glyph unicode="&#x150;" horiz-adv-x="1613" d="M145 580q0 178 62 341t167.5 281.5t254 189t313.5 70.5q175 0 312 -77t211.5 -211.5t74.5 -303.5q0 -179 -62 -344.5t-167 -288.5t-254.5 -196.5t-315.5 -73.5q-175 0 -311.5 80.5t-210.5 220t-74 312.5zM375 596q0 -198 103.5 -324.5t275.5 -126.5q153 0 283 103.5 t202 266t72 339.5q0 195 -103 312.5t-280 117.5q-152 0 -280.5 -97.5t-200.5 -255.5t-72 -335zM717 1579l170 287h192l-219 -287h-143zM1022 1579l170 287h192l-219 -287h-143z" />
<glyph unicode="&#x151;" horiz-adv-x="1241" d="M96 432q0 180 76 328.5t213.5 235.5t308.5 87q204 0 330.5 -126.5t126.5 -327.5q0 -136 -44.5 -257.5t-123 -210.5t-191 -141.5t-241.5 -52.5q-207 0 -331 128.5t-124 336.5zM307 440q0 -137 68 -222t182 -85q106 0 195 69.5t138.5 180.5t49.5 235q0 135 -69.5 217.5 t-184.5 82.5q-106 0 -194 -68t-136.5 -177t-48.5 -233zM487 1214l170 287h193l-219 -287h-144zM793 1214l170 287h192l-219 -287h-143z" />
<glyph unicode="&#x152;" horiz-adv-x="2170" d="M145 580q0 178 62 341t167.5 281.5t254 189t313.5 70.5q99 0 191 -28h1073l-62 -349h-174l37 199h-639q156 -169 156 -418v-39h426l-29 -161h-418q-30 -154 -105.5 -287t-183.5 -229h603l38 227h175l-66 -377h-1012q-112 -33 -211 -33q-175 0 -311.5 80.5t-210.5 220 t-74 312.5zM375 596q0 -198 103.5 -324.5t275.5 -126.5q152 0 281 103.5t200.5 265t71.5 336.5q0 196 -102 315t-277 119q-152 0 -280.5 -97.5t-200.5 -255.5t-72 -335z" />
<glyph unicode="&#x153;" horiz-adv-x="1996" d="M96 432q0 180 76 328.5t213.5 235.5t308.5 87q129 0 227 -59.5t150 -161.5q79 103 191 160t241 57q182 0 293 -115.5t111 -285.5q0 -81 -29 -184h-756q-2 -14 -2 -43q0 -135 68.5 -224.5t183.5 -89.5q88 0 176 45.5t156 118.5l117 -111q-83 -102 -205.5 -159.5 t-263.5 -57.5q-129 0 -222 57.5t-141 159.5q-79 -105 -191 -164t-247 -59q-207 0 -331 128.5t-124 336.5zM307 440q0 -137 68 -222t182 -85q106 0 195 69.5t138.5 180.5t49.5 235q0 135 -69.5 217.5t-184.5 82.5q-106 0 -194 -68t-136.5 -177t-48.5 -233zM1151 633h543 q6 42 6 61q0 102 -58.5 165t-156.5 63q-110 0 -201.5 -79.5t-132.5 -209.5z" />
<glyph unicode="&#x154;" horiz-adv-x="1314" d="M16 0l27 150h164l201 1134h-164l26 150h596q162 0 270.5 -92t108.5 -240q0 -157 -105.5 -280.5t-267.5 -176.5l203 -495h174l-26 -150h-322l-231 608h-170l-82 -458h153l-26 -150h-529zM524 752h168q132 0 228 98.5t96 234.5q0 93 -58 147t-151 54h-189zM688 1571 l203 287h246l-271 -287h-178z" />
<glyph unicode="&#x155;" horiz-adv-x="925" d="M117 903l24 146h361l-41 -236q66 113 160 188.5t190 75.5q100 0 170 -45l-111 -196q-63 34 -137 34q-118 0 -202.5 -86t-108.5 -219l-100 -565h-199l158 903h-164zM506 1206l203 287h245l-270 -287h-178z" />
<glyph unicode="&#x156;" horiz-adv-x="1314" d="M16 0l27 150h164l201 1134h-164l26 150h596q162 0 270.5 -92t108.5 -240q0 -157 -105.5 -280.5t-267.5 -176.5l203 -495h174l-26 -150h-322l-231 608h-170l-82 -458h153l-26 -150h-529zM473 -457q96 86 96 189q0 51 -26 98l176 84q37 -64 37 -123q0 -90 -63.5 -170 t-162.5 -139zM524 752h168q132 0 228 98.5t96 234.5q0 93 -58 147t-151 54h-189z" />
<glyph unicode="&#x157;" horiz-adv-x="925" d="M25 -457q96 86 96 189q0 49 -27 98l176 84q37 -64 37 -123q0 -90 -63 -170t-162 -139zM117 903l24 146h361l-41 -236q66 113 160 188.5t190 75.5q100 0 170 -45l-111 -196q-63 34 -137 34q-118 0 -202.5 -86t-108.5 -219l-100 -565h-199l158 903h-164z" />
<glyph unicode="&#x158;" horiz-adv-x="1314" d="M16 0l27 150h164l201 1134h-164l26 150h596q162 0 270.5 -92t108.5 -240q0 -157 -105.5 -280.5t-267.5 -176.5l203 -495h174l-26 -150h-322l-231 608h-170l-82 -458h153l-26 -150h-529zM524 752h168q132 0 228 98.5t96 234.5q0 93 -58 147t-151 54h-189zM561 1845h168 l96 -164l158 164h199l-267 -268h-190z" />
<glyph unicode="&#x159;" horiz-adv-x="925" d="M117 903l24 146h361l-41 -236q66 113 160 188.5t190 75.5q100 0 170 -45l-111 -196q-63 34 -137 34q-118 0 -202.5 -86t-108.5 -219l-100 -565h-199l158 903h-164zM379 1481h168l96 -164l158 164h198l-266 -269h-190z" />
<glyph unicode="&#x15a;" horiz-adv-x="1099" d="M31 51l69 387h174l-43 -235q127 -60 261 -60q116 0 193 77t77 192q0 58 -30 106t-78.5 83t-107 68t-116.5 69t-106.5 77.5t-78.5 102.5t-30 135q0 183 133.5 298t327.5 115q199 0 424 -82l-62 -350h-174l39 215q-109 56 -231 56q-102 0 -173 -63.5t-71 -156.5 q0 -51 30.5 -93.5t79 -74.5t107 -63t117.5 -68t107.5 -80.5t79 -109t30.5 -145.5q0 -212 -138 -346t-349 -134q-228 0 -461 80zM578 1571l202 287h246l-270 -287h-178z" />
<glyph unicode="&#x15b;" horiz-adv-x="976" d="M35 53l47 271h158l-27 -150q100 -49 223 -49q89 0 146 47t57 121q0 39 -26.5 70.5t-68.5 54t-93.5 45t-102.5 49.5t-93 59.5t-68.5 83t-26.5 113.5q0 136 110 221.5t262 85.5q187 0 373 -80l-45 -250h-158l25 140q-92 47 -197 47q-75 0 -125.5 -39.5t-50.5 -99.5 q0 -37 27 -67.5t69.5 -52.5t94.5 -43.5t104 -49t94.5 -60.5t69.5 -85.5t27 -117.5q0 -154 -116.5 -249t-289.5 -95q-203 0 -399 80zM449 1206l202 287h246l-270 -287h-178z" />
<glyph unicode="&#x15c;" horiz-adv-x="1099" d="M31 51l69 387h174l-43 -235q127 -60 261 -60q116 0 193 77t77 192q0 58 -30 106t-78.5 83t-107 68t-116.5 69t-106.5 77.5t-78.5 102.5t-30 135q0 183 133.5 298t327.5 115q199 0 424 -82l-62 -350h-174l39 215q-109 56 -231 56q-102 0 -173 -63.5t-71 -156.5 q0 -51 30.5 -93.5t79 -74.5t107 -63t117.5 -68t107.5 -80.5t79 -109t30.5 -145.5q0 -212 -138 -346t-349 -134q-228 0 -461 80zM391 1577l266 268h191l164 -268h-168l-96 164l-158 -164h-199z" />
<glyph unicode="&#x15d;" horiz-adv-x="976" d="M35 53l47 271h158l-27 -150q100 -49 223 -49q89 0 146 47t57 121q0 39 -26.5 70.5t-68.5 54t-93.5 45t-102.5 49.5t-93 59.5t-68.5 83t-26.5 113.5q0 136 110 221.5t262 85.5q187 0 373 -80l-45 -250h-158l25 140q-92 47 -197 47q-75 0 -125.5 -39.5t-50.5 -99.5 q0 -37 27 -67.5t69.5 -52.5t94.5 -43.5t104 -49t94.5 -60.5t69.5 -85.5t27 -117.5q0 -154 -116.5 -249t-289.5 -95q-203 0 -399 80zM262 1212l266 269h191l164 -269h-168l-97 164l-157 -164h-199z" />
<glyph unicode="&#x15e;" horiz-adv-x="1099" d="M31 51l69 387h174l-43 -235q127 -60 261 -60q116 0 193 77t77 192q0 58 -30 106t-78.5 83t-107 68t-116.5 69t-106.5 77.5t-78.5 102.5t-30 135q0 183 133.5 298t327.5 115q199 0 424 -82l-62 -350h-174l39 215q-109 56 -231 56q-102 0 -173 -63.5t-71 -156.5 q0 -51 30.5 -93.5t79 -74.5t107 -63t117.5 -68t107.5 -80.5t79 -109t30.5 -145.5q0 -196 -120 -326.5t-310 -151.5l-25 -63q58 -5 99 -50t41 -110q0 -97 -74.5 -150t-183.5 -53q-60 0 -115 25l45 115q34 -19 72 -19q44 0 75 21t31 57q0 35 -23.5 53.5t-62.5 18.5 q-21 0 -49 -8l61 163q-198 5 -409 78z" />
<glyph unicode="&#x15f;" horiz-adv-x="976" d="M35 53l47 271h158l-27 -150q100 -49 223 -49q89 0 146 47t57 121q0 39 -26.5 70.5t-68.5 54t-93.5 45t-102.5 49.5t-93 59.5t-68.5 83t-26.5 113.5q0 136 110 221.5t262 85.5q187 0 373 -80l-45 -250h-158l25 140q-92 47 -197 47q-75 0 -125.5 -39.5t-50.5 -99.5 q0 -37 27 -67.5t69.5 -52.5t94.5 -43.5t104 -49t94.5 -60.5t69.5 -85.5t27 -117.5q0 -145 -104 -238t-263 -104l-24 -65q58 -5 98.5 -50t40.5 -110q0 -97 -74.5 -150t-183.5 -53q-60 0 -115 25l45 115q34 -19 72 -19q44 0 75 21t31 57q0 35 -23.5 53.5t-62.5 18.5 q-21 0 -49 -8l64 165q-167 11 -332 78z" />
<glyph unicode="&#x160;" horiz-adv-x="1099" d="M31 51l69 387h174l-43 -235q127 -60 261 -60q116 0 193 77t77 192q0 58 -30 106t-78.5 83t-107 68t-116.5 69t-106.5 77.5t-78.5 102.5t-30 135q0 183 133.5 298t327.5 115q199 0 424 -82l-62 -350h-174l39 215q-109 56 -231 56q-102 0 -173 -63.5t-71 -156.5 q0 -51 30.5 -93.5t79 -74.5t107 -63t117.5 -68t107.5 -80.5t79 -109t30.5 -145.5q0 -212 -138 -346t-349 -134q-228 0 -461 80zM451 1845h167l97 -164l157 164h199l-266 -268h-191z" />
<glyph unicode="&#x161;" horiz-adv-x="976" d="M35 53l47 271h158l-27 -150q100 -49 223 -49q89 0 146 47t57 121q0 39 -26.5 70.5t-68.5 54t-93.5 45t-102.5 49.5t-93 59.5t-68.5 83t-26.5 113.5q0 136 110 221.5t262 85.5q187 0 373 -80l-45 -250h-158l25 140q-92 47 -197 47q-75 0 -125.5 -39.5t-50.5 -99.5 q0 -37 27 -67.5t69.5 -52.5t94.5 -43.5t104 -49t94.5 -60.5t69.5 -85.5t27 -117.5q0 -154 -116.5 -249t-289.5 -95q-203 0 -399 80zM322 1481h167l97 -164l157 164h199l-266 -269h-191z" />
<glyph unicode="&#x162;" horiz-adv-x="1222" d="M123 1020l74 414h1151l-74 -414h-174l47 266h-295l-201 -1136h178l-26 -150h-225l-35 -90q58 -5 98.5 -50t40.5 -110q0 -97 -74.5 -150t-183.5 -53q-60 0 -115 25l45 115q34 -19 72 -19q44 0 75 21t31 57q0 35 -23.5 53.5t-62.5 18.5q-21 0 -49 -8l72 190h-236l27 150 h178l201 1136h-295l-47 -266h-174z" />
<glyph unicode="&#x163;" horiz-adv-x="716" d="M111 903l24 146h166l43 245h199l-43 -245h223l-25 -146h-223l-104 -586q-4 -32 -4 -47q0 -51 30.5 -83.5t81.5 -32.5q41 0 99 16l26 -150q-79 -26 -174 -26h-22l-33 -84q58 -5 98.5 -50t40.5 -110q0 -97 -74.5 -150t-183.5 -53q-60 0 -115 25l45 115q34 -19 72 -19 q44 0 75.5 21t31.5 57q0 35 -23.5 53.5t-62.5 18.5q-22 0 -50 -8l80 208q-68 29 -106.5 86t-38.5 129q0 24 8 78l104 592h-165z" />
<glyph unicode="&#x164;" horiz-adv-x="1222" d="M123 1020l74 414h1151l-74 -414h-174l47 266h-295l-201 -1136h178l-26 -150h-570l27 150h178l201 1136h-295l-47 -266h-174zM532 1845h168l97 -164l157 164h199l-266 -268h-191z" />
<glyph unicode="&#x165;" horiz-adv-x="720" d="M111 903l24 146h166l43 245h199l-43 -245h223l-25 -146h-223l-104 -586q-4 -32 -4 -47q0 -51 30.5 -83.5t81.5 -32.5q41 0 99 16l26 -150q-79 -26 -174 -26q-116 0 -191 68.5t-75 170.5q0 24 8 78l104 592h-165zM625 1174l88 339h190l-141 -339h-137z" />
<glyph unicode="&#x166;" horiz-adv-x="1222" d="M123 1020l74 414h1151l-74 -414h-174l47 266h-295l-88 -498h250l-23 -131h-250l-90 -507h178l-26 -150h-570l27 150h178l90 507h-249l22 131h250l88 498h-295l-47 -266h-174z" />
<glyph unicode="&#x167;" horiz-adv-x="722" d="M53 551l23 131h166l39 221h-166l24 146h166l43 245h199l-43 -245h223l-25 -146h-223l-39 -221h224l-23 -131h-225l-41 -234q-4 -32 -4 -47q0 -51 30.5 -83.5t81.5 -32.5q41 0 99 16l26 -150q-79 -26 -174 -26q-116 0 -191 68.5t-75 170.5q0 24 8 78l43 240h-166z" />
<glyph unicode="&#x168;" horiz-adv-x="1527" d="M201 1284l26 150h541l-27 -150h-168l-137 -780q-8 -44 -8 -90q0 -116 74.5 -191.5t204.5 -75.5q137 0 240 94t130 236l144 807h-168l26 150h541l-27 -150h-159l-144 -809q-39 -232 -196 -369t-400 -137q-215 0 -348 119.5t-133 302.5q0 55 10 123l137 770h-159zM625 1593 q19 101 83 166.5t150 65.5q47 0 94.5 -22.5t88 -45t71.5 -22.5q30 0 54 23t32 59h123q-19 -101 -82 -166.5t-149 -65.5q-48 0 -94.5 22.5t-87.5 45t-74 22.5q-30 0 -54 -23t-32 -59h-123z" />
<glyph unicode="&#x169;" horiz-adv-x="1277" d="M113 903l24 146h365l-119 -668q-6 -30 -6 -62q0 -78 41 -128t114 -50q105 0 198.5 85t113.5 196l110 627h199l-160 -904h164l-24 -145h-361l33 176q-66 -91 -156.5 -146t-195.5 -55q-123 0 -202 86t-79 209q0 20 10 92l94 541h-163zM414 1229q19 100 83 165.5t150 65.5 q47 0 94.5 -22.5t88 -45t71.5 -22.5q30 0 54 23t32 59h123q-19 -101 -82 -166t-149 -65q-48 0 -94.5 22.5t-87.5 45t-74 22.5q-30 0 -54 -23t-32 -59h-123z" />
<glyph unicode="&#x16a;" horiz-adv-x="1527" d="M201 1284l26 150h541l-27 -150h-168l-137 -780q-8 -44 -8 -90q0 -116 74.5 -191.5t204.5 -75.5q137 0 240 94t130 236l144 807h-168l26 150h541l-27 -150h-159l-144 -809q-39 -232 -196 -369t-400 -137q-215 0 -348 119.5t-133 302.5q0 55 10 123l137 770h-159zM659 1618 l27 143h596l-27 -143h-596z" />
<glyph unicode="&#x16b;" horiz-adv-x="1277" d="M113 903l24 146h365l-119 -668q-6 -30 -6 -62q0 -78 41 -128t114 -50q105 0 198.5 85t113.5 196l110 627h199l-160 -904h164l-24 -145h-361l33 176q-66 -91 -156.5 -146t-195.5 -55q-123 0 -202 86t-79 209q0 20 10 92l94 541h-163zM449 1253l26 144h596l-27 -144h-595z " />
<glyph unicode="&#x16c;" horiz-adv-x="1527" d="M201 1284l26 150h541l-27 -150h-168l-137 -780q-8 -44 -8 -90q0 -116 74.5 -191.5t204.5 -75.5q137 0 240 94t130 236l144 807h-168l26 150h541l-27 -150h-159l-144 -809q-39 -232 -196 -369t-400 -137q-215 0 -348 119.5t-133 302.5q0 55 10 123l137 770h-159zM705 1769 q0 26 8 58h147q-6 -21 -6 -39q0 -48 24.5 -76.5t77.5 -28.5q58 0 95.5 41.5t52.5 102.5h151q-21 -122 -101.5 -196.5t-205.5 -74.5q-111 0 -177 60.5t-66 152.5z" />
<glyph unicode="&#x16d;" horiz-adv-x="1277" d="M113 903l24 146h365l-119 -668q-6 -30 -6 -62q0 -78 41 -128t114 -50q105 0 198.5 85t113.5 196l110 627h199l-160 -904h164l-24 -145h-361l33 176q-66 -91 -156.5 -146t-195.5 -55q-123 0 -202 86t-79 209q0 20 10 92l94 541h-163zM494 1405q0 25 8 57h147 q-6 -21 -6 -39q0 -47 24.5 -75.5t77.5 -28.5q58 0 95.5 41t52.5 102h151q-21 -122 -101 -196t-206 -74q-111 0 -177 60.5t-66 152.5z" />
<glyph unicode="&#x16e;" horiz-adv-x="1527" d="M201 1284l26 150h541l-27 -150h-168l-137 -780q-8 -44 -8 -90q0 -116 74.5 -191.5t204.5 -75.5q137 0 240 94t130 236l144 807h-168l26 150h541l-27 -150h-159l-144 -809q-39 -232 -196 -369t-400 -137q-215 0 -348 119.5t-133 302.5q0 55 10 123l137 770h-159zM776 1704 q0 91 67.5 150t160.5 59q70 0 122 -46.5t52 -113.5q0 -90 -68.5 -150.5t-161.5 -60.5q-70 0 -121 47.5t-51 114.5zM887 1708q0 -31 19.5 -51.5t51.5 -20.5q44 0 76.5 32.5t32.5 78.5q0 31 -21 51.5t-53 20.5q-43 0 -74.5 -32t-31.5 -79z" />
<glyph unicode="&#x16f;" horiz-adv-x="1277" d="M113 903l24 146h365l-119 -668q-6 -30 -6 -62q0 -78 41 -128t114 -50q105 0 198.5 85t113.5 196l110 627h199l-160 -904h164l-24 -145h-361l33 176q-66 -91 -156.5 -146t-195.5 -55q-123 0 -202 86t-79 209q0 20 10 92l94 541h-163zM565 1339q0 91 67.5 150t160.5 59 q70 0 122 -46.5t52 -112.5q0 -90 -68.5 -150.5t-161.5 -60.5q-70 0 -121 47t-51 114zM676 1343q0 -31 20 -51t52 -20q44 0 76 32t32 78q0 31 -21 51.5t-53 20.5q-43 0 -74.5 -32t-31.5 -79z" />
<glyph unicode="&#x170;" horiz-adv-x="1527" d="M201 1284l26 150h541l-27 -150h-168l-137 -780q-8 -44 -8 -90q0 -116 74.5 -191.5t204.5 -75.5q137 0 240 94t130 236l144 807h-168l26 150h541l-27 -150h-159l-144 -809q-39 -232 -196 -369t-400 -137q-215 0 -348 119.5t-133 302.5q0 55 10 123l137 770h-159zM694 1579 l170 287h193l-219 -287h-144zM999 1579l170 287h193l-219 -287h-144z" />
<glyph unicode="&#x171;" horiz-adv-x="1277" d="M113 903l24 146h365l-119 -668q-6 -30 -6 -62q0 -78 41 -128t114 -50q105 0 198.5 85t113.5 196l110 627h199l-160 -904h164l-24 -145h-361l33 176q-66 -91 -156.5 -146t-195.5 -55q-123 0 -202 86t-79 209q0 20 10 92l94 541h-163zM483 1214l170 287h193l-219 -287h-144 zM788 1214l170 287h193l-219 -287h-144z" />
<glyph unicode="&#x172;" horiz-adv-x="1527" d="M201 1284l26 150h541l-27 -150h-168l-137 -780q-8 -44 -8 -90q0 -116 74.5 -191.5t204.5 -75.5q137 0 240 94t130 236l144 807h-168l26 150h541l-27 -150h-159l-144 -809q-31 -186 -140 -312.5t-280 -170.5q-76 -29 -126 -77.5t-50 -100.5q0 -34 23 -56t55 -22 q47 0 94 35l58 -115q-83 -59 -201 -59q-81 0 -138 53t-57 131q0 108 113 190q-193 15 -310.5 132t-117.5 288q0 55 10 123l137 770h-159z" />
<glyph unicode="&#x173;" horiz-adv-x="1277" d="M113 903l24 146h365l-119 -668q-6 -30 -6 -62q0 -78 41 -128t114 -50q105 0 198.5 85t113.5 196l110 627h199l-160 -904h164l-24 -145h-127q-85 -24 -145 -76.5t-60 -109.5q0 -34 23 -56t55 -22q47 0 94 35l57 -115q-83 -59 -201 -59q-81 0 -137.5 52.5t-56.5 131.5 q0 65 44 124t120 99l6 172q-66 -91 -156.5 -146t-195.5 -55q-123 0 -202 86t-79 209q0 20 10 92l94 541h-163z" />
<glyph unicode="&#x174;" horiz-adv-x="2109" d="M127 1284l27 150h577l-26 -150h-207l80 -1087l526 1237h242l94 -1231l452 1081h-206l26 150h557l-26 -150h-154l-573 -1290h-252l-101 1157l-512 -1157h-250l-118 1290h-156zM918 1577l266 268h190l164 -268h-168l-96 164l-158 -164h-198z" />
<glyph unicode="&#x175;" horiz-adv-x="1734" d="M27 903l24 146h332l80 -877q156 181 266.5 385.5t110.5 349.5q0 50 -6 84l-9 58h199l92 -877q171 163 275 336.5t104 333.5q0 21 -4 61h-180l24 146h324q18 -91 18 -193q1 -217 -142.5 -442t-404.5 -424h-176l-73 571q-124 -274 -408 -571h-180l-96 913h-170zM627 1212 l266 269h190l164 -269h-168l-96 164l-158 -164h-198z" />
<glyph unicode="&#x176;" d="M127 1284l27 150h524l-27 -144h-151l198 -512l385 512h-151l26 144h496l-27 -150h-141l-520 -674l-82 -460h178l-26 -150h-570l27 150h178l82 464l-272 670h-154zM508 1577l266 268h191l163 -268h-167l-97 164l-157 -164h-199z" />
<glyph unicode="&#x177;" horiz-adv-x="1134" d="M-141 -371l45 150q38 -15 84 -15q84 0 194.5 62t196.5 154l-174 923h-178l24 146h328l166 -914q154 183 250 370.5t96 344.5q0 21 -4 53h-193l25 146h344q18 -99 18 -183q0 -118 -51.5 -262t-135.5 -281.5t-197.5 -269t-232.5 -230t-244.5 -158.5t-229.5 -60 q-76 0 -131 24zM266 1212l266 269h191l164 -269h-168l-96 164l-158 -164h-199z" />
<glyph unicode="&#x178;" d="M127 1284l27 150h524l-27 -144h-151l198 -512l385 512h-151l26 144h496l-27 -150h-141l-520 -674l-82 -460h178l-26 -150h-570l27 150h178l82 464l-272 670h-154zM535 1722q0 50 33.5 83.5t84.5 33.5q52 0 85.5 -33.5t33.5 -83.5q0 -51 -33.5 -83.5t-85.5 -32.5t-85 32.5 t-33 83.5zM918 1722q0 50 33.5 83.5t84.5 33.5q52 0 85.5 -33.5t33.5 -83.5q0 -51 -33.5 -83.5t-85.5 -32.5t-85 32.5t-33 83.5z" />
<glyph unicode="&#x179;" horiz-adv-x="1200" d="M0 0l25 135l938 1145h-529l-43 -246h-178l72 400h972l-24 -136l-936 -1144h565l49 276h179l-76 -430h-1014zM629 1571l202 287h246l-270 -287h-178z" />
<glyph unicode="&#x17a;" horiz-adv-x="1024" d="M8 0l23 123l694 782h-381l-29 -162h-157l55 306h786l-22 -123l-688 -783h418l30 181h158l-57 -324h-830zM477 1206l203 287h246l-271 -287h-178z" />
<glyph unicode="&#x17b;" horiz-adv-x="1200" d="M0 0l25 135l938 1145h-529l-43 -246h-178l72 400h972l-24 -136l-936 -1144h565l49 276h179l-76 -430h-1014zM664 1733q0 51 37 86.5t92 35.5t92 -35.5t37 -86.5q0 -55 -36.5 -91t-92.5 -36t-92.5 36t-36.5 91z" />
<glyph unicode="&#x17c;" horiz-adv-x="1024" d="M8 0l23 123l694 782h-381l-29 -162h-157l55 306h786l-22 -123l-688 -783h418l30 181h158l-57 -324h-830zM512 1368q0 51 37 87t92 36t92 -36t37 -87q0 -55 -36.5 -91t-92.5 -36t-92.5 36t-36.5 91z" />
<glyph unicode="&#x17d;" horiz-adv-x="1200" d="M0 0l25 135l938 1145h-529l-43 -246h-178l72 400h972l-24 -136l-936 -1144h565l49 276h179l-76 -430h-1014zM502 1845h168l96 -164l158 164h198l-266 -268h-190z" />
<glyph unicode="&#x17e;" horiz-adv-x="1024" d="M8 0l23 123l694 782h-381l-29 -162h-157l55 306h786l-22 -123l-688 -783h418l30 181h158l-57 -324h-830zM350 1481h168l96 -164l158 164h199l-266 -269h-191z" />
<glyph unicode="&#x192;" horiz-adv-x="835" d="M-129 -375l27 156q44 -14 94 -14q86 0 131.5 59t69.5 190l122 699h-182l25 145h184l45 258q28 164 135 253t250 89q76 0 146 -18l-29 -156q-47 14 -105 14q-165 0 -206 -227l-37 -213h231l-24 -145h-234l-137 -783q-28 -161 -130 -243t-243 -82q-59 0 -133 18z" />
<glyph unicode="&#x1fa;" horiz-adv-x="1392" d="M-98 0l26 150h129l662 1245q-49 43 -49 104q0 88 67.5 143.5t161.5 55.5q72 0 126 -43.5t54 -108.5q0 -104 -98 -164l213 -1232h133l-27 -150h-518l27 150h170l-51 307h-518l-162 -307h172l-27 -150h-491zM494 616h409l-94 621zM768 1751l170 193h246l-244 -195z M780 1503q0 -30 22.5 -47.5t55.5 -17.5q45 0 78 28.5t33 73.5q0 30 -23.5 48t-56.5 18q-44 0 -76.5 -28.5t-32.5 -74.5z" />
<glyph unicode="&#x1fb;" d="M94 418q0 180 74.5 332.5t202 240.5t276.5 88q102 0 179 -57t118 -148l31 175h199l-160 -904h164l-25 -145h-360l30 174q-64 -92 -158 -147.5t-208 -55.5q-157 0 -260 127.5t-103 319.5zM305 434q0 -139 58 -218t165 -79q104 0 191.5 69t135.5 180.5t48 238.5 q0 140 -62.5 214t-176.5 74q-95 0 -178.5 -67t-132 -178t-48.5 -234zM510 1268q0 86 63 141t150 55q67 0 115.5 -43.5t48.5 -107.5q0 -84 -64 -141.5t-151 -57.5q-65 0 -113.5 45t-48.5 109zM614 1272q0 -30 19 -49t49 -19q40 0 70 30t30 73q0 29 -19 48t-48 19 q-42 0 -71.5 -29t-29.5 -73zM614 1507l185 258h221l-244 -258h-162z" />
<glyph unicode="&#x1fc;" horiz-adv-x="1882" d="M-102 0l26 150h146l927 1284h920l-62 -357h-174l37 209h-397l-84 -475h424l-29 -162h-424l-88 -502h408l37 218h174l-64 -365h-958l26 150h164l88 499h-358l-352 -499h149l-26 -150h-510zM729 782h289l96 547zM1221 1571l202 287h246l-270 -287h-178z" />
<glyph unicode="&#x1fd;" horiz-adv-x="1970" d="M94 414q0 182 74.5 335t203.5 241.5t283 88.5q218 0 420 -170q81 81 184.5 125.5t217.5 44.5q182 0 292.5 -115.5t110.5 -285.5q0 -81 -29 -184h-755q-2 -14 -2 -43q0 -135 68.5 -224.5t183.5 -89.5q88 0 175.5 45.5t155.5 118.5l117 -111q-83 -102 -205.5 -159.5 t-263.5 -57.5q-155 0 -263.5 82.5t-150.5 223.5q-197 -308 -444 -308q-167 0 -270 123t-103 320zM305 430q0 -132 50.5 -212.5t140.5 -80.5q68 0 133 46t119.5 125.5t98.5 171t81 198.5l30 90q-56 65 -132 105t-160 40q-94 0 -178 -68t-133.5 -180t-49.5 -235zM979 1206 l203 287h245l-270 -287h-178zM1124 633h543q6 42 6 61q0 102 -58.5 165t-156.5 63q-110 0 -201.5 -79.5t-132.5 -209.5z" />
<glyph unicode="&#x1fe;" horiz-adv-x="1613" d="M63 68l173 172q-91 153 -91 340q0 178 62 341t167.5 281.5t254 189t313.5 70.5q228 0 387 -127l139 140l107 -107l-143 -143q108 -148 108 -355q0 -179 -62 -344.5t-167 -288.5t-254.5 -196.5t-315.5 -73.5q-245 0 -411 156l-160 -162zM375 596q0 -99 28 -188l781 782 q-97 94 -256 94q-152 0 -280.5 -97.5t-200.5 -255.5t-72 -335zM479 270q106 -125 275 -125q153 0 283 103.5t202 266t72 339.5q0 116 -39 211zM834 1571l202 287h246l-270 -287h-178z" />
<glyph unicode="&#x1ff;" horiz-adv-x="1241" d="M33 43l129 129q-66 111 -66 260q0 180 76 328.5t213.5 235.5t308.5 87q169 0 289 -90l115 115l92 -88l-119 -119q80 -116 80 -272q0 -136 -44.5 -257.5t-123 -210.5t-191 -141.5t-241.5 -52.5q-184 0 -307 107l-119 -119zM307 440q0 -58 15 -108l526 526q-63 60 -162 60 q-106 0 -194 -68t-136.5 -177t-48.5 -233zM381 211q68 -78 176 -78q106 0 195 69.5t138.5 180.5t49.5 235q0 67 -20 132zM575 1206l203 287h246l-270 -287h-179z" />
<glyph unicode="&#x218;" horiz-adv-x="1099" d="M31 51l69 387h174l-43 -235q127 -60 261 -60q116 0 193 77t77 192q0 58 -30 106t-78.5 83t-107 68t-116.5 69t-106.5 77.5t-78.5 102.5t-30 135q0 183 133.5 298t327.5 115q199 0 424 -82l-62 -350h-174l39 215q-109 56 -231 56q-102 0 -173 -63.5t-71 -156.5 q0 -51 30.5 -93.5t79 -74.5t107 -63t117.5 -68t107.5 -80.5t79 -109t30.5 -145.5q0 -212 -138 -346t-349 -134q-228 0 -461 80zM332 -457q96 86 96 189q0 49 -27 98l177 84q36 -62 36 -123q0 -90 -63 -170t-162 -139z" />
<glyph unicode="&#x219;" horiz-adv-x="976" d="M35 53l47 271h158l-27 -150q100 -49 223 -49q89 0 146 47t57 121q0 39 -26.5 70.5t-68.5 54t-93.5 45t-102.5 49.5t-93 59.5t-68.5 83t-26.5 113.5q0 136 110 221.5t262 85.5q187 0 373 -80l-45 -250h-158l25 140q-92 47 -197 47q-75 0 -125.5 -39.5t-50.5 -99.5 q0 -37 27 -67.5t69.5 -52.5t94.5 -43.5t104 -49t94.5 -60.5t69.5 -85.5t27 -117.5q0 -154 -116.5 -249t-289.5 -95q-203 0 -399 80zM256 -457q96 86 96 189q0 51 -26 98l176 84q37 -64 37 -123q0 -90 -63.5 -170t-162.5 -139z" />
<glyph unicode="&#x21a;" horiz-adv-x="1222" d="M123 1020l74 414h1151l-74 -414h-174l47 266h-295l-201 -1136h178l-26 -150h-570l27 150h178l201 1136h-295l-47 -266h-174zM350 -457q96 86 96 189q0 51 -26 98l176 84q37 -64 37 -123q0 -90 -63 -170t-162 -139z" />
<glyph unicode="&#x21b;" horiz-adv-x="716" d="M111 903l24 146h166l43 245h199l-43 -245h223l-25 -146h-223l-104 -586q-4 -32 -4 -47q0 -51 30.5 -83.5t81.5 -32.5q41 0 99 16l26 -150q-79 -26 -174 -26q-116 0 -191 68.5t-75 170.5q0 24 8 78l104 592h-165zM182 -457q97 87 97 189q0 49 -27 98l176 84 q37 -64 37 -123q0 -90 -63 -170t-162 -139z" />
<glyph unicode="&#x237;" horiz-adv-x="595" d="M-168 -377l27 150q39 -13 80 -13q70 0 118.5 49.5t63.5 133.5l170 960h-164l25 146h362l-197 -1110q-27 -153 -123.5 -242.5t-244.5 -89.5q-55 0 -117 16z" />
<glyph unicode="&#x2c6;" horiz-adv-x="849" d="M236 1212l266 269h190l164 -269h-168l-96 164l-158 -164h-198z" />
<glyph unicode="&#x2c7;" horiz-adv-x="849" d="M283 1481h168l96 -164l158 164h198l-266 -269h-191z" />
<glyph unicode="&#x2d8;" horiz-adv-x="808" d="M293 1405q0 25 8 57h148q-7 -24 -7 -39q0 -47 25 -75.5t78 -28.5q58 0 95 41t52 102h152q-21 -122 -101 -196t-206 -74q-111 0 -177.5 60.5t-66.5 152.5z" />
<glyph unicode="&#x2d9;" horiz-adv-x="526" d="M283 1368q0 51 37 87t92 36t92 -36t37 -87q0 -55 -36.5 -91t-92.5 -36t-92.5 36t-36.5 91z" />
<glyph unicode="&#x2da;" horiz-adv-x="651" d="M274 1339q0 91 67.5 150t160.5 59q70 0 122 -46.5t52 -112.5q0 -90 -68.5 -150.5t-161.5 -60.5q-70 0 -121 47t-51 114zM385 1343q0 -31 20 -51t52 -20q44 0 76 32t32 78q0 31 -20.5 51.5t-52.5 20.5q-43 0 -75 -32t-32 -79z" />
<glyph unicode="&#x2db;" horiz-adv-x="651" d="M-25 -219q0 89 80 163.5t203 102.5l88 -47q-85 -24 -145 -76.5t-60 -109.5q0 -34 23 -56t55 -22q47 0 94 35l58 -115q-83 -59 -201 -59q-81 0 -138 53t-57 131z" />
<glyph unicode="&#x2dc;" horiz-adv-x="923" d="M258 1229q19 100 83.5 165.5t150.5 65.5q47 0 94.5 -22.5t87.5 -45t71 -22.5q30 0 54 23t32 59h123q-19 -101 -82 -166t-149 -65q-48 0 -94.5 22.5t-87.5 45t-74 22.5q-30 0 -54 -23t-32 -59h-123z" />
<glyph unicode="&#x2dd;" horiz-adv-x="831" d="M236 1214l170 287h192l-219 -287h-143zM541 1214l170 287h192l-219 -287h-143z" />
<glyph unicode="&#x326;" horiz-adv-x="0" d="M-549 -457q96 86 96 189q0 51 -26 98l176 84q37 -64 37 -123q0 -90 -63.5 -170t-162.5 -139z" />
<glyph unicode="&#x1e80;" horiz-adv-x="2109" d="M127 1284l27 150h577l-26 -150h-207l80 -1087l526 1237h242l94 -1231l452 1081h-206l26 150h557l-26 -150h-154l-573 -1290h-252l-101 1157l-512 -1157h-250l-118 1290h-156zM1038 1866h211l94 -295h-161z" />
<glyph unicode="&#x1e81;" horiz-adv-x="1734" d="M27 903l24 146h332l80 -877q156 181 266.5 385.5t110.5 349.5q0 50 -6 84l-9 58h199l92 -877q171 163 275 336.5t104 333.5q0 21 -4 61h-180l24 146h324q18 -91 18 -193q1 -217 -142.5 -442t-404.5 -424h-176l-73 571q-124 -274 -408 -571h-180l-96 913h-170zM748 1501 h210l95 -295h-162z" />
<glyph unicode="&#x1e82;" horiz-adv-x="2109" d="M127 1284l27 150h577l-26 -150h-207l80 -1087l526 1237h242l94 -1231l452 1081h-206l26 150h557l-26 -150h-154l-573 -1290h-252l-101 1157l-512 -1157h-250l-118 1290h-156zM1104 1571l203 287h245l-270 -287h-178z" />
<glyph unicode="&#x1e83;" horiz-adv-x="1734" d="M27 903l24 146h332l80 -877q156 181 266.5 385.5t110.5 349.5q0 50 -6 84l-9 58h199l92 -877q171 163 275 336.5t104 333.5q0 21 -4 61h-180l24 146h324q18 -91 18 -193q1 -217 -142.5 -442t-404.5 -424h-176l-73 571q-124 -274 -408 -571h-180l-96 913h-170zM813 1206 l203 287h246l-271 -287h-178z" />
<glyph unicode="&#x1e84;" horiz-adv-x="2109" d="M127 1284l27 150h577l-26 -150h-207l80 -1087l526 1237h242l94 -1231l452 1081h-206l26 150h557l-26 -150h-154l-573 -1290h-252l-101 1157l-512 -1157h-250l-118 1290h-156zM944 1722q0 50 34 83.5t85 33.5q52 0 85.5 -33.5t33.5 -83.5q0 -51 -33.5 -83.5t-85.5 -32.5 t-85.5 32.5t-33.5 83.5zM1327 1722q0 50 34 83.5t85 33.5q52 0 85.5 -33.5t33.5 -83.5q0 -51 -33.5 -83.5t-85.5 -32.5t-85.5 32.5t-33.5 83.5z" />
<glyph unicode="&#x1e85;" horiz-adv-x="1734" d="M27 903l24 146h332l80 -877q156 181 266.5 385.5t110.5 349.5q0 50 -6 84l-9 58h199l92 -877q171 163 275 336.5t104 333.5q0 21 -4 61h-180l24 146h324q18 -91 18 -193q1 -217 -142.5 -442t-404.5 -424h-176l-73 571q-124 -274 -408 -571h-180l-96 913h-170zM653 1358 q0 50 34 83.5t85 33.5q52 0 85.5 -33.5t33.5 -83.5q0 -51 -33.5 -84t-85.5 -33t-85.5 33t-33.5 84zM1036 1358q0 50 34 83.5t85 33.5q52 0 85.5 -33.5t33.5 -83.5q0 -51 -33.5 -84t-85.5 -33t-85.5 33t-33.5 84z" />
<glyph unicode="&#x1ef2;" d="M127 1284l27 150h524l-27 -144h-151l198 -512l385 512h-151l26 144h496l-27 -150h-141l-520 -674l-82 -460h178l-26 -150h-570l27 150h178l82 464l-272 670h-154zM629 1866h211l94 -295h-162z" />
<glyph unicode="&#x1ef3;" horiz-adv-x="1134" d="M-141 -371l45 150q38 -15 84 -15q84 0 194.5 62t196.5 154l-174 923h-178l24 146h328l166 -914q154 183 250 370.5t96 344.5q0 21 -4 53h-193l25 146h344q18 -99 18 -183q0 -118 -51.5 -262t-135.5 -281.5t-197.5 -269t-232.5 -230t-244.5 -158.5t-229.5 -60 q-76 0 -131 24zM387 1501h211l94 -295h-162z" />
<glyph unicode="&#x2000;" horiz-adv-x="972" />
<glyph unicode="&#x2001;" horiz-adv-x="1944" />
<glyph unicode="&#x2002;" horiz-adv-x="972" />
<glyph unicode="&#x2003;" horiz-adv-x="1944" />
<glyph unicode="&#x2004;" horiz-adv-x="648" />
<glyph unicode="&#x2005;" horiz-adv-x="486" />
<glyph unicode="&#x2006;" horiz-adv-x="324" />
<glyph unicode="&#x2007;" horiz-adv-x="324" />
<glyph unicode="&#x2008;" horiz-adv-x="243" />
<glyph unicode="&#x2009;" horiz-adv-x="388" />
<glyph unicode="&#x200a;" horiz-adv-x="108" />
<glyph unicode="&#x2010;" horiz-adv-x="696" d="M84 526l31 183h530l-31 -183h-530z" />
<glyph unicode="&#x2011;" horiz-adv-x="696" d="M84 526l31 183h530l-31 -183h-530z" />
<glyph unicode="&#x2012;" horiz-adv-x="696" d="M84 526l31 183h530l-31 -183h-530z" />
<glyph unicode="&#x2013;" horiz-adv-x="1245" d="M84 535l29 165h1081l-29 -165h-1081z" />
<glyph unicode="&#x2014;" horiz-adv-x="1783" d="M84 535l29 165h1620l-29 -165h-1620z" />
<glyph unicode="&#x2018;" horiz-adv-x="464" d="M215 1122q0 109 71 209t189 178l68 -71q-115 -112 -115 -246q0 -55 35 -119l-207 -100q-41 70 -41 149z" />
<glyph unicode="&#x2019;" horiz-adv-x="464" d="M176 1044q115 112 115 246q0 55 -35 119l207 100q41 -70 41 -149q0 -109 -71 -209t-189 -178z" />
<glyph unicode="&#x201a;" horiz-adv-x="499" d="M-27 -193q115 112 115 246q0 55 -35 119l207 100q41 -70 41 -149q0 -109 -71 -209t-189 -178z" />
<glyph unicode="&#x201c;" horiz-adv-x="839" d="M215 1122q0 109 71 209t189 178l68 -71q-115 -112 -115 -246q0 -55 35 -119l-207 -100q-41 70 -41 149zM590 1122q0 109 71 209t189 178l68 -71q-115 -112 -115 -246q0 -55 35 -119l-207 -100q-41 70 -41 149z" />
<glyph unicode="&#x201d;" horiz-adv-x="839" d="M176 1044q115 112 115 246q0 55 -35 119l207 100q41 -70 41 -149q0 -109 -71 -209t-189 -178zM551 1044q115 112 115 246q0 55 -35 119l207 100q41 -70 41 -149q0 -108 -71.5 -208t-189.5 -179z" />
<glyph unicode="&#x201e;" horiz-adv-x="874" d="M-27 -193q115 112 115 246q0 55 -35 119l207 100q41 -70 41 -149q0 -109 -71 -209t-189 -178zM348 -193q115 112 115 246q0 55 -35 119l207 100q41 -70 41 -149q0 -109 -71 -209t-189 -178z" />
<glyph unicode="&#x2020;" horiz-adv-x="837" d="M143 895v184l254 -24l-18 379h205l-21 -379l254 24v-184l-254 27l21 -1022h-205l18 1022z" />
<glyph unicode="&#x2021;" horiz-adv-x="931" d="M143 354v185l254 -29v416l-254 -29v182l254 -26l-18 381h201l-19 -381l254 26v-182l-254 29v-416l254 29v-185l-254 29l19 -483h-201l18 483z" />
<glyph unicode="&#x2022;" horiz-adv-x="1105" d="M203 692q0 153 115.5 265t269.5 112q155 0 265 -111.5t110 -265.5t-110 -266.5t-265 -112.5q-154 0 -269.5 113t-115.5 266z" />
<glyph unicode="&#x2026;" horiz-adv-x="1685" d="M53 117q0 59 44.5 102t103.5 43q58 0 99.5 -42.5t41.5 -102.5q0 -59 -41.5 -101.5t-99.5 -42.5q-59 0 -103.5 43t-44.5 101zM627 117q0 59 44 102t103 43q58 0 99.5 -42.5t41.5 -102.5q0 -59 -41.5 -101.5t-99.5 -42.5q-59 0 -103 43t-44 101zM1200 117q0 59 44.5 102 t103.5 43q58 0 99.5 -42.5t41.5 -102.5q0 -59 -41.5 -101.5t-99.5 -42.5q-59 0 -103.5 43t-44.5 101z" />
<glyph unicode="&#x202f;" horiz-adv-x="388" />
<glyph unicode="&#x2030;" horiz-adv-x="2232" d="M47 0l1264 1434h209l-1264 -1434h-209zM176 1065q0 169 96 282t254 113q115 0 187.5 -72t72.5 -182q0 -172 -95.5 -287.5t-254.5 -115.5q-115 0 -187.5 73.5t-72.5 188.5zM344 1071q0 -64 26.5 -101.5t78.5 -37.5q55 0 95 42t57 101t17 125q0 61 -26 96t-78 35 q-56 0 -95.5 -40t-57 -97t-17.5 -123zM791 233q0 169 96 282.5t254 113.5q115 0 187.5 -72t72.5 -182q0 -172 -95.5 -288t-254.5 -116q-115 0 -187.5 73.5t-72.5 188.5zM958 240q0 -64 26.5 -102t78.5 -38q55 0 95 42t57.5 101.5t17.5 125.5q0 61 -26.5 96t-78.5 35 q-56 0 -95.5 -40t-57 -97t-17.5 -123zM1513 233q0 168 96.5 282t254.5 114q115 0 187.5 -72t72.5 -182q0 -172 -95.5 -288t-254.5 -116q-115 0 -188 74t-73 188zM1681 240q0 -64 26.5 -102t78.5 -38q55 0 95 42t57.5 101.5t17.5 125.5q0 61 -26.5 96t-78.5 35 q-56 0 -95.5 -40t-57 -97t-17.5 -123z" />
<glyph unicode="&#x2039;" horiz-adv-x="561" d="M74 612l313 369h209l-330 -387l191 -377h-187z" />
<glyph unicode="&#x203a;" horiz-adv-x="561" d="M-8 217l330 387l-191 377h186l197 -395l-313 -369h-209z" />
<glyph unicode="&#x2044;" horiz-adv-x="954" d="M-106 -84l1058 1602h178l-1058 -1602h-178z" />
<glyph unicode="&#x205f;" horiz-adv-x="486" />
<glyph unicode="&#x2074;" horiz-adv-x="772" d="M98 854l17 94l458 490h136l-84 -477h114l-18 -107h-115l-20 -121h114l-20 -106h-377l21 106h127l20 121h-373zM252 961h237l56 307z" />
<glyph unicode="&#x20ac;" horiz-adv-x="1345" d="M53 530l43 129h164q5 73 25 160h-183l43 129h177q79 236 242 375t384 139q245 0 449 -106l-51 -299h-175l29 172q-111 57 -262 57q-130 0 -232 -91.5t-163 -246.5h524l-43 -129h-518q-24 -91 -29 -160h494l-43 -129h-457q2 -182 69.5 -284.5t207.5 -102.5q102 0 195.5 65 t160.5 169l139 -107q-87 -147 -223.5 -225t-300.5 -78q-146 0 -252.5 75.5t-159 201.5t-53.5 286h-201z" />
<glyph unicode="&#x2116;" horiz-adv-x="2414" d="M16 0l27 150h164l201 1134h-164l26 150h373l508 -1139l174 989h-164l27 150h508l-27 -150h-164l-227 -1284h-213l-502 1143l-176 -993h164l-27 -150h-508zM1642 453l27 149h674l-27 -149h-674zM1718 1020q0 181 115 301.5t291 120.5q131 0 214 -85t83 -212 q0 -181 -115 -303.5t-291 -122.5q-132 0 -214.5 84.5t-82.5 216.5zM1882 1026q0 -77 41 -122.5t111 -45.5q67 0 119.5 44t78 107.5t25.5 131.5q0 73 -40.5 117.5t-111.5 44.5q-96 0 -159.5 -82.5t-63.5 -194.5z" />
<glyph unicode="&#x2122;" horiz-adv-x="1884" d="M199 1257v224h637v-224h-117v117h-129v-508h100v-106h-344v106h98v508h-129v-117h-116zM907 760v106h90v508h-90v107h277l211 -453l202 453h279v-107h-90v-508h90v-106h-315v106h92v469l-217 -475h-105l-215 475v-469h92v-106h-301z" />
<glyph unicode="&#x2212;" horiz-adv-x="1193" d="M133 555v166h969v-166h-969z" />
<glyph unicode="&#x25fc;" horiz-adv-x="1044" d="M0 0v1044h1044v-1044h-1044z" />
<glyph horiz-adv-x="694" d="M102 637l31 182h531l-31 -182h-531z" />
<glyph horiz-adv-x="1247" d="M104 645l29 166h1081l-28 -166h-1082z" />
<glyph horiz-adv-x="1785" d="M104 645l29 166h1620l-29 -166h-1620z" />
<glyph horiz-adv-x="974" d="M94 731l314 369h208l-329 -387l190 -377h-186zM481 698l342 402h209l-358 -420l172 -344h-184z" />
<glyph horiz-adv-x="974" d="M12 336l359 420l-172 344h184l180 -363l-342 -401h-209zM428 336l330 387l-191 377h187l196 -395l-313 -369h-209z" />
<glyph horiz-adv-x="559" d="M94 731l314 369h208l-329 -387l190 -377h-186z" />
<glyph horiz-adv-x="559" d="M12 336l330 387l-190 377h186l197 -395l-314 -369h-209z" />
<glyph horiz-adv-x="604" d="M111 506q0 309 150.5 599.5t418.5 524.5l98 -96q-218 -231 -340.5 -494t-122.5 -534q0 -328 170 -629l-116 -82q-121 158 -189.5 340.5t-68.5 370.5z" />
<glyph horiz-adv-x="602" d="M-111 -121q218 231 340.5 494t122.5 534q0 328 -170 629l117 82q121 -158 189.5 -340.5t68.5 -370.5q0 -309 -150.5 -599.5t-418.5 -524.5z" />
<glyph horiz-adv-x="612" d="M59 -221l326 1847h369l-25 -145h-182l-275 -1557h183l-25 -145h-371z" />
<glyph horiz-adv-x="612" d="M-78 -221l25 145h182l274 1557h-182l25 145h370l-325 -1847h-369z" />
<glyph horiz-adv-x="626" d="M90 659l25 146q73 0 122 53.5t66 153.5l57 323q14 80 49 137.5t89.5 90.5t121 48t150.5 15l-27 -149q-79 0 -131.5 -43.5t-64.5 -114.5l-60 -328q-21 -116 -79 -185.5t-140 -84.5q60 -21 95.5 -74t35.5 -127q0 -35 -6 -65l-61 -353q-4 -28 -4 -49q0 -129 141 -129 l-25 -145q-138 0 -222.5 69.5t-84.5 182.5q0 30 8 84l60 331q8 46 8 74q0 68 -32 103.5t-91 35.5z" />
<glyph horiz-adv-x="690" d="M299 -322v2026h188v-2026h-188z" />
<glyph horiz-adv-x="626" d="M-66 -221l27 149q79 0 132 43.5t65 114.5l59 328q21 116 79 185.5t140 84.5q-60 21 -95.5 74t-35.5 127q0 35 6 65l62 353q4 28 4 49q0 129 -141 129l24 145q138 0 222.5 -69.5t84.5 -182.5q0 -30 -8 -84l-59 -332q-8 -46 -8 -73q0 -69 31.5 -104.5t90.5 -35.5l-24 -145 q-73 0 -122.5 -53.5t-66.5 -153.5l-57 -323q-14 -80 -49 -137.5t-89.5 -90.5t-121 -48t-150.5 -15z" />
<glyph horiz-adv-x="813" d="M-125 -160l932 1757h194l-931 -1757h-195z" />
<glyph horiz-adv-x="800" d="M201 1597h178l313 -1757h-178z" />
<glyph horiz-adv-x="591" d="M100 0l215 1075h174l-153 -1075h-236zM307 1366q0 60 40 100.5t97 40.5t97.5 -40.5t40.5 -100.5q0 -56 -40.5 -95.5t-97.5 -39.5t-97 39.5t-40 95.5z" />
<glyph horiz-adv-x="868" d="M12 319q0 68 24.5 130.5t64 111t88 93.5t98.5 85.5t93 79t74.5 83t39.5 89.5l14 80h192l-16 -100q-10 -62 -40.5 -118.5t-71 -100t-87.5 -85.5t-91.5 -80.5t-81 -78t-59 -86t-22.5 -96.5q0 -75 54.5 -123.5t136.5 -48.5q83 0 148 55.5t104 134.5l168 -86 q-63 -127 -174.5 -201.5t-272.5 -74.5q-165 0 -274 97t-109 240zM492 1362q0 60 40 100.5t97 40.5t97 -40.5t40 -100.5q0 -56 -40 -95.5t-97 -39.5t-97 39.5t-40 95.5z" />
<glyph horiz-adv-x="526" d="M156 729q0 59 44 102t103 43q58 0 99.5 -42.5t41.5 -102.5q0 -59 -41.5 -101t-99.5 -42q-59 0 -103 42.5t-44 100.5z" />
<glyph horiz-adv-x="1105" d="M209 729q0 153 115.5 265t269.5 112q155 0 265 -111.5t110 -265.5t-110 -266.5t-265 -112.5q-154 0 -269.5 113t-115.5 266z" />
<glyph horiz-adv-x="1128" d="M104 436q0 151 21 293.5t68 275t116 231t172 157.5t228 59q182 0 282.5 -126.5t100.5 -338.5q0 -125 -15 -245t-45.5 -234.5t-80 -210t-114.5 -168.5t-154.5 -113.5t-193.5 -40.5q-181 0 -283 125.5t-102 335.5zM317 442q0 -137 48.5 -213.5t140.5 -76.5q90 0 163 75.5 t117.5 198t68.5 267t24 292.5q0 137 -47.5 214t-139.5 77q-91 0 -164.5 -75.5t-118 -198.5t-68.5 -267.5t-24 -292.5z" />
<glyph horiz-adv-x="1128" d="M98 0l27 154h336l188 1075l-368 -207l-78 147l512 279l172 -35l-221 -1259h327l-26 -154h-869z" />
<glyph horiz-adv-x="1128" d="M18 0l19 96q21 107 77.5 205t130 172t158 142t164.5 127.5t145.5 116t105.5 119t40 126.5q0 77 -50 126.5t-138 49.5q-98 0 -174 -72.5t-121 -177.5l-178 80q72 158 200.5 252t294.5 94q167 0 276 -99t109 -241q0 -69 -24 -133.5t-66 -118t-96.5 -105t-116 -98.5 t-124.5 -92.5t-123.5 -93.5t-110.5 -96t-87.5 -104.5t-52.5 -114.5h484l39 221h178l-68 -381h-891z" />
<glyph horiz-adv-x="1128" d="M20 291l181 74q23 -95 91 -157.5t161 -62.5q127 0 218 88.5t91 229.5q0 104 -76.5 171.5t-200.5 67.5h-63l27 154q96 8 181 42.5t142 95.5t57 136q0 71 -50.5 116.5t-123.5 45.5q-88 0 -156 -45.5t-112 -118.5l-166 91q74 112 191 177.5t258 65.5q154 0 261 -87.5 t107 -233.5q0 -103 -57 -181.5t-143 -119.5t-187 -49q150 -11 240 -99.5t90 -226.5q0 -141 -73 -255t-195 -176.5t-267 -62.5q-163 0 -273.5 85.5t-152.5 234.5z" />
<glyph horiz-adv-x="1128" d="M31 428l20 125l778 881h207l-151 -861h172l-25 -145h-172l-51 -283h172l-25 -145h-569l25 145h200l52 283h-633zM260 573h428l109 613z" />
<glyph horiz-adv-x="1128" d="M53 283l176 79q24 -93 92.5 -155t161.5 -62q142 0 234 102.5t92 248.5q0 114 -63 183t-168 69q-135 0 -236 -93l-145 54l176 725h729l-55 -314h-179l27 154h-371l-110 -424q107 72 233 72q160 0 270.5 -122.5t110.5 -295.5q0 -149 -71 -271t-197 -192t-281 -70 q-163 0 -273.5 84t-152.5 228z" />
<glyph horiz-adv-x="1128" d="M123 444q0 128 18.5 251t55 236.5t94 208.5t130.5 166t170.5 110.5t209.5 39.5q187 0 329 -92l-100 -162q-107 80 -246 80q-147 0 -256.5 -141t-154.5 -377q55 75 138 121.5t183 46.5q151 0 254 -113.5t103 -275.5t-66.5 -292t-189 -205t-279.5 -75q-186 0 -289.5 123.5 t-103.5 349.5zM326 420q0 -109 55 -192t143 -83q139 0 223 113t84 272q0 103 -53.5 166.5t-142.5 63.5q-135 0 -222 -99.5t-87 -240.5z" />
<glyph horiz-adv-x="1128" d="M164 1061l65 373h994l-29 -166q-611 -601 -737 -1268h-217q77 365 264.5 689.5t456.5 584.5h-582l-37 -213h-178z" />
<glyph horiz-adv-x="1128" d="M72 344q0 152 94 267.5t242 162.5q-75 34 -128 106t-53 152q0 184 136.5 307t334.5 123q159 0 265 -96.5t106 -239.5q0 -121 -77 -214.5t-201 -143.5q90 -30 157.5 -110t67.5 -181q0 -220 -152 -366t-383 -146q-184 0 -296.5 108t-112.5 271zM287 356q0 -99 53 -160 t158 -61q135 0 219 100t84 236q0 97 -57 151t-164 54q-128 0 -210.5 -94t-82.5 -226zM436 1034q0 -80 44 -132t132 -52q106 0 177 78.5t71 187.5q0 81 -45 130.5t-133 49.5q-110 0 -178 -76t-68 -186z" />
<glyph horiz-adv-x="1128" d="M68 72l102 161q101 -83 250 -83q146 0 259 152.5t150 387.5q-53 -73 -136 -118.5t-177 -45.5q-152 0 -257 114t-105 271q0 151 68 275.5t192 197t278 72.5q182 0 285.5 -116t103.5 -318q0 -129 -18 -254.5t-53.5 -243.5t-91.5 -217t-128 -173.5t-168 -116.5t-206 -42 q-101 0 -194 26.5t-154 70.5zM373 922q0 -95 53.5 -159.5t148.5 -64.5q133 0 218.5 101t85.5 239q0 103 -59 173.5t-146 70.5q-130 0 -215.5 -108t-85.5 -252z" />
</font>
</defs>
</svg>
