<?xml version="1.0" encoding="UTF-8"?>
<!DOCTYPE svg PUBLIC "-//W3C//DTD SVG 1.1//EN" "http://www.w3.org/Graphics/SVG/1.1/DTD/svg11.dtd">
<svg version="1.1" xmlns="http://www.w3.org/2000/svg" xmlns:xlink="http://www.w3.org/1999/xlink" x="0" y="0" width="595.276" height="595.276" viewBox="0, 0, 595.276, 595.276">
  <g id="Layer_3" display="none">
    <path d="M-0,-0 L595.276,-0 L595.276,595.276 L-0,595.276 z" fill="#000000"/>
  </g>
  <g id="Layer_7" display="none" opacity="0.177">
    <g>
      <path d="M99.213,99.213 L70.866,85.04 L99.213,70.867 z" fill="#FF0000"/>
      <path d="M99.213,99.213 L127.559,85.04 L99.213,70.867 z" fill="#000000"/>
    </g>
    <g>
      <path d="M127.559,85.039 L99.213,70.866 L127.559,56.693 z" fill="#FF0000"/>
      <path d="M127.559,85.039 L155.906,70.866 L127.559,56.693 z" fill="#000000"/>
    </g>
    <g>
      <path d="M99.212,127.56 L70.866,113.387 L99.212,99.213 z" fill="#FF0000"/>
      <path d="M99.212,127.56 L127.559,113.387 L99.212,99.213 z" fill="#000000"/>
    </g>
    <g>
      <path d="M127.559,113.386 L99.213,99.213 L127.559,85.039 z" fill="#FF0000"/>
      <path d="M127.559,113.386 L155.906,99.213 L127.559,85.039 z" fill="#000000"/>
    </g>
    <g>
      <path d="M127.559,141.734 L99.213,127.56 L127.559,113.387 z" fill="#FF0000"/>
      <path d="M127.559,141.734 L155.906,127.56 L127.559,113.387 z" fill="#000000"/>
    </g>
    <g>
      <path d="M155.906,127.56 L127.559,113.387 L155.906,99.213 z" fill="#FF0000"/>
      <path d="M155.906,127.56 L184.252,113.387 L155.906,99.213 z" fill="#000000"/>
    </g>
    <g>
      <path d="M70.866,170.08 L42.52,155.907 L70.866,141.734 z" fill="#FF0000"/>
      <path d="M70.866,170.08 L99.213,155.907 L70.866,141.734 z" fill="#000000"/>
    </g>
    <g>
      <path d="M99.213,155.906 L70.866,141.733 L99.213,127.56 z" fill="#FF0000"/>
      <path d="M99.213,155.906 L127.559,141.733 L99.213,127.56 z" fill="#000000"/>
    </g>
    <g>
      <path d="M155.906,155.906 L127.559,141.733 L155.906,127.56 z" fill="#FF0000"/>
      <path d="M155.906,155.906 L184.252,141.733 L155.906,127.56 z" fill="#000000"/>
    </g>
    <g>
      <path d="M127.559,198.427 L99.213,184.253 L127.559,170.08 z" fill="#FF0000"/>
      <path d="M127.559,198.427 L155.906,184.253 L127.559,170.08 z" fill="#000000"/>
    </g>
    <g>
      <path d="M99.213,184.254 L70.866,170.081 L99.213,155.908 z" fill="#FF0000"/>
      <path d="M99.213,184.254 L127.559,170.081 L99.213,155.908 z" fill="#000000"/>
    </g>
    <g>
      <path d="M127.559,170.08 L99.213,155.907 L127.559,141.734 z" fill="#FF0000"/>
      <path d="M127.559,170.08 L155.906,155.907 L127.559,141.734 z" fill="#000000"/>
    </g>
    <g>
      <path d="M70.866,141.734 L42.52,127.561 L70.866,113.387 z" fill="#FF0000"/>
      <path d="M70.866,141.734 L99.213,127.561 L70.866,113.387 z" fill="#000000"/>
    </g>
    <g>
      <path d="M70.866,113.386 L42.52,99.213 L70.866,85.039 z" fill="#FF0000"/>
      <path d="M70.866,113.386 L99.213,99.213 L70.866,85.039 z" fill="#000000"/>
    </g>
    <g>
      <path d="M155.906,99.213 L127.559,85.04 L155.906,70.867 z" fill="#FF0000"/>
      <path d="M155.906,99.213 L184.252,85.04 L155.906,70.867 z" fill="#000000"/>
    </g>
    <g>
      <path d="M70.866,85.039 L42.52,70.866 L70.866,56.693 z" fill="#FF0000"/>
      <path d="M70.866,85.039 L99.213,70.866 L70.866,56.693 z" fill="#000000"/>
    </g>
    <g>
      <path d="M155.905,184.254 L127.559,170.081 L155.905,155.908 z" fill="#FF0000"/>
      <path d="M155.905,184.254 L184.252,170.081 L155.905,155.908 z" fill="#000000"/>
    </g>
    <g>
      <path d="M70.866,198.427 L42.52,184.253 L70.866,170.08 z" fill="#FF0000"/>
      <path d="M70.866,198.427 L99.213,184.253 L70.866,170.08 z" fill="#000000"/>
    </g>
    <g>
      <path d="M212.599,99.214 L184.252,85.041 L212.599,70.868 z" fill="#FF0000"/>
      <path d="M212.599,99.214 L240.945,85.041 L212.599,70.868 z" fill="#000000"/>
    </g>
    <g>
      <path d="M240.945,85.04 L212.599,70.867 L240.945,56.694 z" fill="#FF0000"/>
      <path d="M240.945,85.04 L269.292,70.867 L240.945,56.694 z" fill="#000000"/>
    </g>
    <g>
      <path d="M212.599,127.561 L184.252,113.387 L212.599,99.214 z" fill="#FF0000"/>
      <path d="M212.599,127.561 L240.945,113.387 L212.599,99.214 z" fill="#000000"/>
    </g>
    <g>
      <path d="M240.945,113.387 L212.599,99.213 L240.945,85.04 z" fill="#FF0000"/>
      <path d="M240.945,113.387 L269.292,99.213 L240.945,85.04 z" fill="#000000"/>
    </g>
    <g>
      <path d="M240.945,141.734 L212.599,127.561 L240.945,113.388 z" fill="#FF0000"/>
      <path d="M240.945,141.734 L269.292,127.561 L240.945,113.388 z" fill="#000000"/>
    </g>
    <g>
      <path d="M269.292,127.561 L240.945,113.387 L269.292,99.214 z" fill="#FF0000"/>
      <path d="M269.292,127.561 L297.638,113.387 L269.292,99.214 z" fill="#000000"/>
    </g>
    <g>
      <path d="M184.252,170.081 L155.906,155.908 L184.252,141.735 z" fill="#FF0000"/>
      <path d="M184.252,170.081 L212.599,155.908 L184.252,141.735 z" fill="#000000"/>
    </g>
    <g>
      <path d="M212.599,155.907 L184.252,141.734 L212.599,127.561 z" fill="#FF0000"/>
      <path d="M212.599,155.907 L240.945,141.734 L212.599,127.561 z" fill="#000000"/>
    </g>
    <g>
      <path d="M269.292,155.907 L240.945,141.734 L269.292,127.561 z" fill="#FF0000"/>
      <path d="M269.292,155.907 L297.638,141.734 L269.292,127.561 z" fill="#000000"/>
    </g>
    <g>
      <path d="M240.945,198.427 L212.599,184.254 L240.945,170.081 z" fill="#FF0000"/>
      <path d="M240.945,198.427 L269.292,184.254 L240.945,170.081 z" fill="#000000"/>
    </g>
    <g>
      <path d="M212.599,184.255 L184.252,170.082 L212.599,155.909 z" fill="#FF0000"/>
      <path d="M212.599,184.255 L240.945,170.082 L212.599,155.909 z" fill="#000000"/>
    </g>
    <g>
      <path d="M240.945,170.081 L212.599,155.908 L240.945,141.735 z" fill="#FF0000"/>
      <path d="M240.945,170.081 L269.292,155.908 L240.945,141.735 z" fill="#000000"/>
    </g>
    <g>
      <path d="M184.252,141.735 L155.906,127.561 L184.252,113.388 z" fill="#FF0000"/>
      <path d="M184.252,141.735 L212.599,127.561 L184.252,113.388 z" fill="#000000"/>
    </g>
    <g>
      <path d="M184.252,113.387 L155.906,99.213 L184.253,85.04 z" fill="#FF0000"/>
      <path d="M184.253,113.387 L212.599,99.213 L184.253,85.04 z" fill="#000000"/>
    </g>
    <g>
      <path d="M269.292,99.214 L240.945,85.041 L269.292,70.868 z" fill="#FF0000"/>
      <path d="M269.292,99.214 L297.638,85.041 L269.292,70.868 z" fill="#000000"/>
    </g>
    <g>
      <path d="M184.252,85.04 L155.906,70.867 L184.252,56.694 z" fill="#FF0000"/>
      <path d="M184.252,85.04 L212.599,70.867 L184.252,56.694 z" fill="#000000"/>
    </g>
    <g>
      <path d="M269.292,184.255 L240.945,170.082 L269.292,155.908 z" fill="#FF0000"/>
      <path d="M269.292,184.255 L297.638,170.082 L269.292,155.908 z" fill="#000000"/>
    </g>
    <g>
      <path d="M184.252,198.427 L155.906,184.254 L184.253,170.081 z" fill="#FF0000"/>
      <path d="M184.253,198.427 L212.599,184.254 L184.253,170.081 z" fill="#000000"/>
    </g>
    <g>
      <path d="M325.985,99.213 L297.638,85.04 L325.985,70.867 z" fill="#FF0000"/>
      <path d="M325.985,99.213 L354.331,85.04 L325.985,70.867 z" fill="#000000"/>
    </g>
    <g>
      <path d="M354.331,85.039 L325.985,70.866 L354.331,56.693 z" fill="#FF0000"/>
      <path d="M354.331,85.039 L382.678,70.866 L354.331,56.693 z" fill="#000000"/>
    </g>
    <g>
      <path d="M325.985,127.56 L297.638,113.387 L325.985,99.213 z" fill="#FF0000"/>
      <path d="M325.985,127.56 L354.331,113.387 L325.985,99.213 z" fill="#000000"/>
    </g>
    <g>
      <path d="M354.331,113.386 L325.985,99.213 L354.331,85.039 z" fill="#FF0000"/>
      <path d="M354.331,113.386 L382.678,99.213 L354.331,85.039 z" fill="#000000"/>
    </g>
    <g>
      <path d="M354.331,141.734 L325.985,127.56 L354.331,113.387 z" fill="#FF0000"/>
      <path d="M354.331,141.734 L382.678,127.56 L354.331,113.387 z" fill="#000000"/>
    </g>
    <g>
      <path d="M382.678,127.56 L354.332,113.387 L382.678,99.213 z" fill="#FF0000"/>
      <path d="M382.678,127.56 L411.024,113.387 L382.678,99.213 z" fill="#000000"/>
    </g>
    <g>
      <path d="M297.638,170.08 L269.292,155.907 L297.638,141.734 z" fill="#FF0000"/>
      <path d="M297.638,170.08 L325.985,155.907 L297.638,141.734 z" fill="#000000"/>
    </g>
    <g>
      <path d="M325.985,155.906 L297.639,141.733 L325.985,127.56 z" fill="#FF0000"/>
      <path d="M325.985,155.906 L354.332,141.733 L325.985,127.56 z" fill="#000000"/>
    </g>
    <g>
      <path d="M382.678,155.906 L354.332,141.733 L382.678,127.56 z" fill="#FF0000"/>
      <path d="M382.678,155.906 L411.024,141.733 L382.678,127.56 z" fill="#000000"/>
    </g>
    <g>
      <path d="M354.332,198.427 L325.985,184.253 L354.332,170.08 z" fill="#FF0000"/>
      <path d="M354.332,198.427 L382.678,184.253 L354.332,170.08 z" fill="#000000"/>
    </g>
    <g>
      <path d="M325.985,184.254 L297.639,170.081 L325.985,155.908 z" fill="#FF0000"/>
      <path d="M325.985,184.254 L354.332,170.081 L325.985,155.908 z" fill="#000000"/>
    </g>
    <g>
      <path d="M354.332,170.08 L325.985,155.907 L354.332,141.734 z" fill="#FF0000"/>
      <path d="M354.332,170.08 L382.678,155.907 L354.332,141.734 z" fill="#000000"/>
    </g>
    <g>
      <path d="M297.638,141.734 L269.292,127.561 L297.638,113.387 z" fill="#FF0000"/>
      <path d="M297.638,141.734 L325.985,127.561 L297.638,113.387 z" fill="#000000"/>
    </g>
    <g>
      <path d="M297.639,113.386 L269.292,99.213 L297.639,85.039 z" fill="#FF0000"/>
      <path d="M297.639,113.386 L325.985,99.213 L297.639,85.039 z" fill="#000000"/>
    </g>
    <g>
      <path d="M382.678,99.213 L354.332,85.04 L382.678,70.867 z" fill="#FF0000"/>
      <path d="M382.678,99.213 L411.024,85.04 L382.678,70.867 z" fill="#000000"/>
    </g>
    <g>
      <path d="M297.638,85.039 L269.292,70.866 L297.638,56.693 z" fill="#FF0000"/>
      <path d="M297.638,85.039 L325.985,70.866 L297.638,56.693 z" fill="#000000"/>
    </g>
    <g>
      <path d="M382.678,184.254 L354.331,170.081 L382.678,155.908 z" fill="#FF0000"/>
      <path d="M382.678,184.254 L411.024,170.081 L382.678,155.908 z" fill="#000000"/>
    </g>
    <g>
      <path d="M297.639,198.427 L269.292,184.253 L297.639,170.08 z" fill="#FF0000"/>
      <path d="M297.639,198.427 L325.985,184.253 L297.639,170.08 z" fill="#000000"/>
    </g>
    <g>
      <path d="M439.371,99.215 L411.025,85.042 L439.371,70.868 z" fill="#FF0000"/>
      <path d="M439.371,99.215 L467.717,85.042 L439.371,70.868 z" fill="#000000"/>
    </g>
    <g>
      <path d="M467.718,85.041 L439.371,70.868 L467.718,56.694 z" fill="#FF0000"/>
      <path d="M467.718,85.041 L496.064,70.868 L467.718,56.694 z" fill="#000000"/>
    </g>
    <g>
      <path d="M439.371,127.561 L411.025,113.388 L439.371,99.215 z" fill="#FF0000"/>
      <path d="M439.371,127.561 L467.717,113.388 L439.371,99.215 z" fill="#000000"/>
    </g>
    <g>
      <path d="M467.718,113.387 L439.371,99.214 L467.718,85.041 z" fill="#FF0000"/>
      <path d="M467.718,113.387 L496.064,99.214 L467.718,85.041 z" fill="#000000"/>
    </g>
    <g>
      <path d="M467.718,141.735 L439.371,127.562 L467.718,113.389 z" fill="#FF0000"/>
      <path d="M467.718,141.735 L496.064,127.562 L467.718,113.389 z" fill="#000000"/>
    </g>
    <g>
      <path d="M496.064,127.561 L467.718,113.388 L496.064,99.215 z" fill="#FF0000"/>
      <path d="M496.064,127.561 L524.411,113.388 L496.064,99.215 z" fill="#000000"/>
    </g>
    <g>
      <path d="M411.025,170.082 L382.678,155.909 L411.025,141.735 z" fill="#FF0000"/>
      <path d="M411.025,170.082 L439.371,155.909 L411.025,141.735 z" fill="#000000"/>
    </g>
    <g>
      <path d="M439.371,155.908 L411.025,141.735 L439.371,127.561 z" fill="#FF0000"/>
      <path d="M439.371,155.908 L467.718,141.735 L439.371,127.561 z" fill="#000000"/>
    </g>
    <g>
      <path d="M496.064,155.908 L467.718,141.735 L496.064,127.561 z" fill="#FF0000"/>
      <path d="M496.064,155.908 L524.411,141.735 L496.064,127.561 z" fill="#000000"/>
    </g>
    <g>
      <path d="M467.718,198.428 L439.371,184.255 L467.718,170.082 z" fill="#FF0000"/>
      <path d="M467.718,198.428 L496.064,184.255 L467.718,170.082 z" fill="#000000"/>
    </g>
    <g>
      <path d="M439.371,184.256 L411.025,170.082 L439.371,155.909 z" fill="#FF0000"/>
      <path d="M439.371,184.256 L467.718,170.082 L439.371,155.909 z" fill="#000000"/>
    </g>
    <g>
      <path d="M467.718,170.082 L439.371,155.909 L467.718,141.735 z" fill="#FF0000"/>
      <path d="M467.718,170.082 L496.064,155.909 L467.718,141.735 z" fill="#000000"/>
    </g>
    <g>
      <path d="M411.025,141.735 L382.678,127.562 L411.025,113.389 z" fill="#FF0000"/>
      <path d="M411.025,141.735 L439.371,127.562 L411.025,113.389 z" fill="#000000"/>
    </g>
    <g>
      <path d="M411.025,113.387 L382.678,99.214 L411.025,85.041 z" fill="#FF0000"/>
      <path d="M411.025,113.387 L439.371,99.214 L411.025,85.041 z" fill="#000000"/>
    </g>
    <g>
      <path d="M496.064,99.215 L467.718,85.042 L496.064,70.868 z" fill="#FF0000"/>
      <path d="M496.064,99.215 L524.411,85.042 L496.064,70.868 z" fill="#000000"/>
    </g>
    <g>
      <path d="M411.025,85.041 L382.678,70.868 L411.025,56.695 z" fill="#FF0000"/>
      <path d="M411.025,85.041 L439.371,70.868 L411.025,56.695 z" fill="#000000"/>
    </g>
    <g>
      <path d="M496.064,184.256 L467.717,170.082 L496.064,155.909 z" fill="#FF0000"/>
      <path d="M496.064,184.256 L524.41,170.082 L496.064,155.909 z" fill="#000000"/>
    </g>
    <g>
      <path d="M411.025,198.428 L382.678,184.255 L411.025,170.082 z" fill="#FF0000"/>
      <path d="M411.025,198.428 L439.371,184.255 L411.025,170.082 z" fill="#000000"/>
    </g>
    <g>
      <path d="M212.598,212.601 L184.252,198.427 L212.598,184.254 z" fill="#FF0000"/>
      <path d="M212.598,212.601 L240.945,198.427 L212.598,184.254 z" fill="#000000"/>
    </g>
    <g>
      <path d="M155.906,212.601 L127.559,198.427 L155.906,184.254 z" fill="#FF0000"/>
      <path d="M155.906,212.601 L184.252,198.427 L155.906,184.254 z" fill="#000000"/>
    </g>
    <g>
      <path d="M269.292,212.601 L240.946,198.427 L269.292,184.254 z" fill="#FF0000"/>
      <path d="M269.292,212.601 L297.639,198.427 L269.292,184.254 z" fill="#000000"/>
    </g>
    <g>
      <path d="M524.411,85.039 L496.064,70.866 L524.411,56.693 z" fill="#FF0000"/>
      <path d="M524.411,85.039 L552.757,70.866 L524.411,56.693 z" fill="#000000"/>
    </g>
    <g>
      <path d="M524.411,141.732 L496.064,127.559 L524.411,113.386 z" fill="#FF0000"/>
      <path d="M524.411,141.732 L552.757,127.559 L524.411,113.386 z" fill="#000000"/>
    </g>
    <g>
      <path d="M524.411,170.08 L496.064,155.907 L524.411,141.734 z" fill="#FF0000"/>
      <path d="M524.411,170.08 L552.757,155.907 L524.411,141.734 z" fill="#000000"/>
    </g>
    <g>
      <path d="M524.411,226.773 L496.064,212.6 L524.411,198.427 z" fill="#FF0000"/>
      <path d="M524.411,226.773 L552.757,212.6 L524.411,198.427 z" fill="#000000"/>
    </g>
    <g>
      <path d="M496.063,212.601 L467.716,198.427 L496.063,184.254 z" fill="#FF0000"/>
      <path d="M496.063,212.601 L524.409,198.427 L496.063,184.254 z" fill="#000000"/>
    </g>
    <g>
      <path d="M439.371,212.601 L411.025,198.427 L439.371,184.254 z" fill="#FF0000"/>
      <path d="M439.371,212.601 L467.718,198.427 L439.371,184.254 z" fill="#000000"/>
    </g>
    <g>
      <path d="M382.678,212.601 L354.332,198.427 L382.678,184.254 z" fill="#FF0000"/>
      <path d="M382.678,212.601 L411.025,198.427 L382.678,184.254 z" fill="#000000"/>
    </g>
    <g>
      <path d="M325.985,212.601 L297.638,198.427 L325.985,184.254 z" fill="#FF0000"/>
      <path d="M325.985,212.601 L354.331,198.427 L325.985,184.254 z" fill="#000000"/>
    </g>
    <g>
      <path d="M524.411,113.386 L496.064,99.213 L524.411,85.039 z" fill="#FF0000"/>
      <path d="M524.411,113.386 L552.757,99.213 L524.411,85.039 z" fill="#000000"/>
    </g>
    <g>
      <path d="M99.212,212.601 L70.866,198.427 L99.212,184.254 z" fill="#FF0000"/>
      <path d="M99.212,212.601 L127.559,198.427 L99.212,184.254 z" fill="#000000"/>
    </g>
    <g>
      <path d="M524.411,198.427 L496.064,184.254 L524.411,170.081 z" fill="#FF0000"/>
      <path d="M524.411,198.427 L552.757,184.254 L524.411,170.081 z" fill="#000000"/>
    </g>
    <g>
      <path d="M99.212,240.947 L70.865,226.774 L99.212,212.601 z" fill="#FF0000"/>
      <path d="M99.212,240.947 L127.558,226.774 L99.212,212.601 z" fill="#000000"/>
    </g>
    <g>
      <path d="M127.558,226.773 L99.212,212.6 L127.558,198.427 z" fill="#FF0000"/>
      <path d="M127.558,226.773 L155.905,212.6 L127.558,198.427 z" fill="#000000"/>
    </g>
    <g>
      <path d="M99.212,269.294 L70.865,255.12 L99.212,240.947 z" fill="#FF0000"/>
      <path d="M99.212,269.294 L127.558,255.12 L99.212,240.947 z" fill="#000000"/>
    </g>
    <g>
      <path d="M127.558,255.12 L99.212,240.946 L127.558,226.773 z" fill="#FF0000"/>
      <path d="M127.558,255.12 L155.905,240.946 L127.558,226.773 z" fill="#000000"/>
    </g>
    <g>
      <path d="M127.558,283.467 L99.212,269.294 L127.558,255.121 z" fill="#FF0000"/>
      <path d="M127.558,283.467 L155.905,269.294 L127.558,255.121 z" fill="#000000"/>
    </g>
    <g>
      <path d="M155.905,269.294 L127.559,255.12 L155.905,240.947 z" fill="#FF0000"/>
      <path d="M155.905,269.294 L184.252,255.12 L155.905,240.947 z" fill="#000000"/>
    </g>
    <g>
      <path d="M70.865,311.814 L42.519,297.641 L70.865,283.468 z" fill="#FF0000"/>
      <path d="M70.865,311.814 L99.212,297.641 L70.865,283.468 z" fill="#000000"/>
    </g>
    <g>
      <path d="M99.212,297.64 L70.866,283.467 L99.212,269.294 z" fill="#FF0000"/>
      <path d="M99.212,297.64 L127.559,283.467 L99.212,269.294 z" fill="#000000"/>
    </g>
    <g>
      <path d="M155.905,297.64 L127.559,283.467 L155.905,269.294 z" fill="#FF0000"/>
      <path d="M155.905,297.64 L184.252,283.467 L155.905,269.294 z" fill="#000000"/>
    </g>
    <g>
      <path d="M127.559,340.161 L99.212,325.987 L127.559,311.814 z" fill="#FF0000"/>
      <path d="M127.559,340.161 L155.905,325.987 L127.559,311.814 z" fill="#000000"/>
    </g>
    <g>
      <path d="M99.212,325.988 L70.866,311.815 L99.212,297.642 z" fill="#FF0000"/>
      <path d="M99.212,325.988 L127.559,311.815 L99.212,297.642 z" fill="#000000"/>
    </g>
    <g>
      <path d="M127.559,311.814 L99.212,297.641 L127.559,283.468 z" fill="#FF0000"/>
      <path d="M127.559,311.814 L155.905,297.641 L127.559,283.468 z" fill="#000000"/>
    </g>
    <g>
      <path d="M70.865,283.468 L42.519,269.294 L70.865,255.121 z" fill="#FF0000"/>
      <path d="M70.865,283.468 L99.212,269.294 L70.865,255.121 z" fill="#000000"/>
    </g>
    <g>
      <path d="M70.866,255.12 L42.519,240.946 L70.866,226.773 z" fill="#FF0000"/>
      <path d="M70.866,255.12 L99.212,240.946 L70.866,226.773 z" fill="#000000"/>
    </g>
    <g>
      <path d="M155.905,240.947 L127.559,226.774 L155.905,212.601 z" fill="#FF0000"/>
      <path d="M155.905,240.947 L184.252,226.774 L155.905,212.601 z" fill="#000000"/>
    </g>
    <g>
      <path d="M70.865,226.773 L42.519,212.6 L70.865,198.427 z" fill="#FF0000"/>
      <path d="M70.865,226.773 L99.212,212.6 L70.865,198.427 z" fill="#000000"/>
    </g>
    <g>
      <path d="M155.905,325.988 L127.558,311.815 L155.905,297.641 z" fill="#FF0000"/>
      <path d="M155.905,325.988 L184.251,311.815 L155.905,297.641 z" fill="#000000"/>
    </g>
    <g>
      <path d="M70.866,340.161 L42.519,325.987 L70.866,311.814 z" fill="#FF0000"/>
      <path d="M70.866,340.161 L99.212,325.987 L70.866,311.814 z" fill="#000000"/>
    </g>
    <g>
      <path d="M212.598,240.948 L184.252,226.775 L212.598,212.601 z" fill="#FF0000"/>
      <path d="M212.598,240.948 L240.945,226.775 L212.598,212.601 z" fill="#000000"/>
    </g>
    <g>
      <path d="M240.945,226.774 L212.598,212.601 L240.945,198.427 z" fill="#FF0000"/>
      <path d="M240.945,226.774 L269.291,212.601 L240.945,198.427 z" fill="#000000"/>
    </g>
    <g>
      <path d="M212.598,269.294 L184.251,255.121 L212.598,240.948 z" fill="#FF0000"/>
      <path d="M212.598,269.294 L240.944,255.121 L212.598,240.948 z" fill="#000000"/>
    </g>
    <g>
      <path d="M240.945,255.12 L212.598,240.947 L240.945,226.774 z" fill="#FF0000"/>
      <path d="M240.945,255.12 L269.291,240.947 L240.945,226.774 z" fill="#000000"/>
    </g>
    <g>
      <path d="M240.945,283.468 L212.598,269.295 L240.945,255.122 z" fill="#FF0000"/>
      <path d="M240.945,283.468 L269.291,269.295 L240.945,255.122 z" fill="#000000"/>
    </g>
    <g>
      <path d="M269.291,269.294 L240.945,255.121 L269.291,240.948 z" fill="#FF0000"/>
      <path d="M269.291,269.294 L297.638,255.121 L269.291,240.948 z" fill="#000000"/>
    </g>
    <g>
      <path d="M184.252,311.815 L155.905,297.642 L184.252,283.468 z" fill="#FF0000"/>
      <path d="M184.252,311.815 L212.598,297.642 L184.252,283.468 z" fill="#000000"/>
    </g>
    <g>
      <path d="M212.598,297.641 L184.252,283.468 L212.598,269.294 z" fill="#FF0000"/>
      <path d="M212.598,297.641 L240.945,283.468 L212.598,269.294 z" fill="#000000"/>
    </g>
    <g>
      <path d="M269.291,297.641 L240.945,283.468 L269.291,269.294 z" fill="#FF0000"/>
      <path d="M269.291,297.641 L297.638,283.468 L269.291,269.294 z" fill="#000000"/>
    </g>
    <g>
      <path d="M240.945,340.161 L212.598,325.988 L240.945,311.815 z" fill="#FF0000"/>
      <path d="M240.945,340.161 L269.291,325.988 L240.945,311.815 z" fill="#000000"/>
    </g>
    <g>
      <path d="M212.598,325.989 L184.252,311.816 L212.598,297.642 z" fill="#FF0000"/>
      <path d="M212.598,325.989 L240.945,311.816 L212.598,297.642 z" fill="#000000"/>
    </g>
    <g>
      <path d="M240.945,311.815 L212.598,297.642 L240.945,283.468 z" fill="#FF0000"/>
      <path d="M240.945,311.815 L269.291,297.642 L240.945,283.468 z" fill="#000000"/>
    </g>
    <g>
      <path d="M184.252,283.468 L155.905,269.295 L184.252,255.122 z" fill="#FF0000"/>
      <path d="M184.252,283.468 L212.598,269.295 L184.252,255.122 z" fill="#000000"/>
    </g>
    <g>
      <path d="M184.252,255.12 L155.905,240.947 L184.252,226.774 z" fill="#FF0000"/>
      <path d="M184.252,255.12 L212.598,240.947 L184.252,226.774 z" fill="#000000"/>
    </g>
    <g>
      <path d="M269.291,240.948 L240.945,226.775 L269.291,212.601 z" fill="#FF0000"/>
      <path d="M269.291,240.948 L297.638,226.775 L269.291,212.601 z" fill="#000000"/>
    </g>
    <g>
      <path d="M184.252,226.774 L155.905,212.601 L184.252,198.428 z" fill="#FF0000"/>
      <path d="M184.252,226.774 L212.598,212.601 L184.252,198.428 z" fill="#000000"/>
    </g>
    <g>
      <path d="M269.291,325.989 L240.944,311.815 L269.291,297.642 z" fill="#FF0000"/>
      <path d="M269.291,325.989 L297.637,311.815 L269.291,297.642 z" fill="#000000"/>
    </g>
    <g>
      <path d="M184.252,340.161 L155.905,325.988 L184.252,311.815 z" fill="#FF0000"/>
      <path d="M184.252,340.161 L212.598,325.988 L184.252,311.815 z" fill="#000000"/>
    </g>
    <g>
      <path d="M325.984,240.947 L297.638,226.774 L325.984,212.601 z" fill="#FF0000"/>
      <path d="M325.984,240.947 L354.331,226.774 L325.984,212.601 z" fill="#000000"/>
    </g>
    <g>
      <path d="M354.331,226.773 L325.984,212.6 L354.331,198.427 z" fill="#FF0000"/>
      <path d="M354.331,226.773 L382.677,212.6 L354.331,198.427 z" fill="#000000"/>
    </g>
    <g>
      <path d="M325.984,269.294 L297.638,255.12 L325.984,240.947 z" fill="#FF0000"/>
      <path d="M325.984,269.294 L354.331,255.12 L325.984,240.947 z" fill="#000000"/>
    </g>
    <g>
      <path d="M354.331,255.12 L325.984,240.946 L354.331,226.773 z" fill="#FF0000"/>
      <path d="M354.331,255.12 L382.677,240.946 L354.331,226.773 z" fill="#000000"/>
    </g>
    <g>
      <path d="M354.331,283.467 L325.984,269.294 L354.331,255.121 z" fill="#FF0000"/>
      <path d="M354.331,283.467 L382.677,269.294 L354.331,255.121 z" fill="#000000"/>
    </g>
    <g>
      <path d="M382.677,269.294 L354.331,255.12 L382.677,240.947 z" fill="#FF0000"/>
      <path d="M382.677,269.294 L411.024,255.12 L382.677,240.947 z" fill="#000000"/>
    </g>
    <g>
      <path d="M297.638,311.814 L269.291,297.641 L297.638,283.468 z" fill="#FF0000"/>
      <path d="M297.638,311.814 L325.984,297.641 L297.638,283.468 z" fill="#000000"/>
    </g>
    <g>
      <path d="M325.984,297.64 L297.638,283.467 L325.984,269.294 z" fill="#FF0000"/>
      <path d="M325.984,297.64 L354.331,283.467 L325.984,269.294 z" fill="#000000"/>
    </g>
    <g>
      <path d="M382.677,297.64 L354.331,283.467 L382.677,269.294 z" fill="#FF0000"/>
      <path d="M382.677,297.64 L411.024,283.467 L382.677,269.294 z" fill="#000000"/>
    </g>
    <g>
      <path d="M354.331,340.16 L325.984,325.987 L354.331,311.814 z" fill="#FF0000"/>
      <path d="M354.331,340.16 L382.677,325.987 L354.331,311.814 z" fill="#000000"/>
    </g>
    <g>
      <path d="M325.984,325.988 L297.638,311.815 L325.984,297.642 z" fill="#FF0000"/>
      <path d="M325.984,325.988 L354.331,311.815 L325.984,297.642 z" fill="#000000"/>
    </g>
    <g>
      <path d="M354.331,311.814 L325.984,297.641 L354.331,283.468 z" fill="#FF0000"/>
      <path d="M354.331,311.814 L382.677,297.641 L354.331,283.468 z" fill="#000000"/>
    </g>
    <g>
      <path d="M297.638,283.468 L269.291,269.294 L297.638,255.121 z" fill="#FF0000"/>
      <path d="M297.638,283.468 L325.984,269.294 L297.638,255.121 z" fill="#000000"/>
    </g>
    <g>
      <path d="M297.638,255.12 L269.292,240.946 L297.638,226.773 z" fill="#FF0000"/>
      <path d="M297.638,255.12 L325.984,240.946 L297.638,226.773 z" fill="#000000"/>
    </g>
    <g>
      <path d="M382.677,240.947 L354.331,226.774 L382.677,212.601 z" fill="#FF0000"/>
      <path d="M382.677,240.947 L411.024,226.774 L382.677,212.601 z" fill="#000000"/>
    </g>
    <g>
      <path d="M297.638,226.773 L269.291,212.6 L297.638,198.427 z" fill="#FF0000"/>
      <path d="M297.638,226.773 L325.984,212.6 L297.638,198.427 z" fill="#000000"/>
    </g>
    <g>
      <path d="M382.677,325.988 L354.331,311.815 L382.677,297.641 z" fill="#FF0000"/>
      <path d="M382.677,325.988 L411.024,311.815 L382.677,297.641 z" fill="#000000"/>
    </g>
    <g>
      <path d="M297.638,340.16 L269.292,325.987 L297.638,311.814 z" fill="#FF0000"/>
      <path d="M297.638,340.16 L325.984,325.987 L297.638,311.814 z" fill="#000000"/>
    </g>
    <g>
      <path d="M439.37,240.949 L411.024,226.776 L439.37,212.602 z" fill="#FF0000"/>
      <path d="M439.37,240.949 L467.717,226.776 L439.37,212.602 z" fill="#000000"/>
    </g>
    <g>
      <path d="M467.717,226.775 L439.37,212.602 L467.717,198.428 z" fill="#FF0000"/>
      <path d="M467.717,226.775 L496.063,212.602 L467.717,198.428 z" fill="#000000"/>
    </g>
    <g>
      <path d="M439.37,269.295 L411.024,255.122 L439.37,240.949 z" fill="#FF0000"/>
      <path d="M439.37,269.295 L467.717,255.122 L439.37,240.949 z" fill="#000000"/>
    </g>
    <g>
      <path d="M467.717,255.121 L439.37,240.948 L467.717,226.775 z" fill="#FF0000"/>
      <path d="M467.717,255.121 L496.063,240.948 L467.717,226.775 z" fill="#000000"/>
    </g>
    <g>
      <path d="M467.717,283.469 L439.37,269.296 L467.717,255.123 z" fill="#FF0000"/>
      <path d="M467.717,283.469 L496.063,269.296 L467.717,255.123 z" fill="#000000"/>
    </g>
    <g>
      <path d="M496.064,269.295 L467.717,255.122 L496.064,240.949 z" fill="#FF0000"/>
      <path d="M496.064,269.295 L524.41,255.122 L496.064,240.949 z" fill="#000000"/>
    </g>
    <g>
      <path d="M411.024,311.816 L382.677,297.642 L411.024,283.469 z" fill="#FF0000"/>
      <path d="M411.024,311.816 L439.37,297.642 L411.024,283.469 z" fill="#000000"/>
    </g>
    <g>
      <path d="M439.371,297.642 L411.024,283.468 L439.371,269.295 z" fill="#FF0000"/>
      <path d="M439.371,297.642 L467.717,283.468 L439.371,269.295 z" fill="#000000"/>
    </g>
    <g>
      <path d="M496.064,297.642 L467.717,283.468 L496.064,269.295 z" fill="#FF0000"/>
      <path d="M496.064,297.642 L524.41,283.468 L496.064,269.295 z" fill="#000000"/>
    </g>
    <g>
      <path d="M467.717,340.162 L439.371,325.989 L467.717,311.816 z" fill="#FF0000"/>
      <path d="M467.717,340.162 L496.064,325.989 L467.717,311.816 z" fill="#000000"/>
    </g>
    <g>
      <path d="M439.371,325.99 L411.024,311.816 L439.371,297.643 z" fill="#FF0000"/>
      <path d="M439.371,325.99 L467.717,311.816 L439.371,297.643 z" fill="#000000"/>
    </g>
    <g>
      <path d="M467.717,311.816 L439.371,297.642 L467.717,283.469 z" fill="#FF0000"/>
      <path d="M467.717,311.816 L496.064,297.642 L467.717,283.469 z" fill="#000000"/>
    </g>
    <g>
      <path d="M411.024,283.469 L382.677,269.296 L411.024,255.123 z" fill="#FF0000"/>
      <path d="M411.024,283.469 L439.37,269.296 L411.024,255.123 z" fill="#000000"/>
    </g>
    <g>
      <path d="M411.024,255.121 L382.678,240.948 L411.024,226.775 z" fill="#FF0000"/>
      <path d="M411.024,255.121 L439.371,240.948 L411.024,226.775 z" fill="#000000"/>
    </g>
    <g>
      <path d="M496.064,240.949 L467.717,226.776 L496.064,212.602 z" fill="#FF0000"/>
      <path d="M496.064,240.949 L524.41,226.776 L496.064,212.602 z" fill="#000000"/>
    </g>
    <g>
      <path d="M411.024,226.775 L382.677,212.602 L411.024,198.428 z" fill="#FF0000"/>
      <path d="M411.024,226.775 L439.37,212.602 L411.024,198.428 z" fill="#000000"/>
    </g>
    <g>
      <path d="M496.063,325.989 L467.717,311.816 L496.063,297.643 z" fill="#FF0000"/>
      <path d="M496.063,325.989 L524.41,311.816 L496.063,297.643 z" fill="#000000"/>
    </g>
    <g>
      <path d="M411.024,340.162 L382.678,325.989 L411.024,311.816 z" fill="#FF0000"/>
      <path d="M411.024,340.162 L439.371,325.989 L411.024,311.816 z" fill="#000000"/>
    </g>
    <g>
      <path d="M212.598,354.335 L184.251,340.161 L212.598,325.988 z" fill="#FF0000"/>
      <path d="M212.598,354.335 L240.944,340.161 L212.598,325.988 z" fill="#000000"/>
    </g>
    <g>
      <path d="M155.905,354.335 L127.559,340.161 L155.905,325.988 z" fill="#FF0000"/>
      <path d="M155.905,354.335 L184.252,340.161 L155.905,325.988 z" fill="#000000"/>
    </g>
    <g>
      <path d="M269.291,354.335 L240.945,340.161 L269.291,325.988 z" fill="#FF0000"/>
      <path d="M269.291,354.335 L297.638,340.161 L269.291,325.988 z" fill="#000000"/>
    </g>
    <g>
      <path d="M524.41,226.773 L496.064,212.6 L524.41,198.427 z" fill="#FF0000"/>
      <path d="M524.41,226.773 L552.757,212.6 L524.41,198.427 z" fill="#000000"/>
    </g>
    <g>
      <path d="M524.41,283.466 L496.064,269.293 L524.41,255.12 z" fill="#FF0000"/>
      <path d="M524.41,283.466 L552.757,269.293 L524.41,255.12 z" fill="#000000"/>
    </g>
    <g>
      <path d="M524.41,311.814 L496.064,297.641 L524.41,283.467 z" fill="#FF0000"/>
      <path d="M524.41,311.814 L552.757,297.641 L524.41,283.467 z" fill="#000000"/>
    </g>
    <g>
      <path d="M524.41,368.507 L496.064,354.334 L524.41,340.161 z" fill="#FF0000"/>
      <path d="M524.41,368.507 L552.757,354.334 L524.41,340.161 z" fill="#000000"/>
    </g>
    <g>
      <path d="M496.062,354.335 L467.716,340.161 L496.062,325.988 z" fill="#FF0000"/>
      <path d="M496.062,354.335 L524.409,340.161 L496.062,325.988 z" fill="#000000"/>
    </g>
    <g>
      <path d="M439.371,354.335 L411.024,340.161 L439.371,325.988 z" fill="#FF0000"/>
      <path d="M439.371,354.335 L467.717,340.161 L439.371,325.988 z" fill="#000000"/>
    </g>
    <g>
      <path d="M382.678,354.335 L354.331,340.161 L382.678,325.988 z" fill="#FF0000"/>
      <path d="M382.678,354.335 L411.024,340.161 L382.678,325.988 z" fill="#000000"/>
    </g>
    <g>
      <path d="M325.984,354.335 L297.637,340.161 L325.984,325.988 z" fill="#FF0000"/>
      <path d="M325.984,354.335 L354.33,340.161 L325.984,325.988 z" fill="#000000"/>
    </g>
    <g>
      <path d="M524.41,255.12 L496.064,240.946 L524.41,226.773 z" fill="#FF0000"/>
      <path d="M524.41,255.12 L552.757,240.946 L524.41,226.773 z" fill="#000000"/>
    </g>
    <g>
      <path d="M99.212,354.335 L70.865,340.161 L99.212,325.988 z" fill="#FF0000"/>
      <path d="M99.212,354.335 L127.558,340.161 L99.212,325.988 z" fill="#000000"/>
    </g>
    <g>
      <path d="M524.41,340.161 L496.064,325.988 L524.41,311.815 z" fill="#FF0000"/>
      <path d="M524.41,340.161 L552.757,325.988 L524.41,311.815 z" fill="#000000"/>
    </g>
    <g>
      <path d="M99.213,382.681 L70.866,368.508 L99.213,354.335 z" fill="#FF0000"/>
      <path d="M99.213,382.681 L127.559,368.508 L99.213,354.335 z" fill="#000000"/>
    </g>
    <g>
      <path d="M127.559,368.507 L99.213,354.334 L127.559,340.161 z" fill="#FF0000"/>
      <path d="M127.559,368.507 L155.906,354.334 L127.559,340.161 z" fill="#000000"/>
    </g>
    <g>
      <path d="M99.213,411.027 L70.866,396.854 L99.213,382.681 z" fill="#FF0000"/>
      <path d="M99.213,411.027 L127.559,396.854 L99.213,382.681 z" fill="#000000"/>
    </g>
    <g>
      <path d="M127.559,396.853 L99.213,382.68 L127.559,368.507 z" fill="#FF0000"/>
      <path d="M127.559,396.853 L155.906,382.68 L127.559,368.507 z" fill="#000000"/>
    </g>
    <g>
      <path d="M127.559,425.201 L99.213,411.028 L127.559,396.855 z" fill="#FF0000"/>
      <path d="M127.559,425.201 L155.906,411.028 L127.559,396.855 z" fill="#000000"/>
    </g>
    <g>
      <path d="M155.906,411.027 L127.559,396.854 L155.906,382.681 z" fill="#FF0000"/>
      <path d="M155.906,411.027 L184.252,396.854 L155.906,382.681 z" fill="#000000"/>
    </g>
    <g>
      <path d="M70.866,453.548 L42.52,439.375 L70.866,425.201 z" fill="#FF0000"/>
      <path d="M70.866,453.548 L99.213,439.375 L70.866,425.201 z" fill="#000000"/>
    </g>
    <g>
      <path d="M99.213,439.374 L70.867,425.201 L99.213,411.027 z" fill="#FF0000"/>
      <path d="M99.213,439.374 L127.559,425.201 L99.213,411.027 z" fill="#000000"/>
    </g>
    <g>
      <path d="M155.906,439.374 L127.559,425.201 L155.906,411.027 z" fill="#FF0000"/>
      <path d="M155.906,439.374 L184.252,425.201 L155.906,411.027 z" fill="#000000"/>
    </g>
    <g>
      <path d="M127.56,481.894 L99.213,467.721 L127.56,453.548 z" fill="#FF0000"/>
      <path d="M127.56,481.894 L155.906,467.721 L127.56,453.548 z" fill="#000000"/>
    </g>
    <g>
      <path d="M99.213,467.722 L70.867,453.549 L99.213,439.375 z" fill="#FF0000"/>
      <path d="M99.213,467.722 L127.559,453.549 L99.213,439.375 z" fill="#000000"/>
    </g>
    <g>
      <path d="M127.56,453.548 L99.213,439.375 L127.56,425.201 z" fill="#FF0000"/>
      <path d="M127.56,453.548 L155.906,439.375 L127.56,425.201 z" fill="#000000"/>
    </g>
    <g>
      <path d="M70.866,425.201 L42.52,411.028 L70.866,396.855 z" fill="#FF0000"/>
      <path d="M70.866,425.201 L99.213,411.028 L70.866,396.855 z" fill="#000000"/>
    </g>
    <g>
      <path d="M70.867,396.853 L42.52,382.68 L70.867,368.507 z" fill="#FF0000"/>
      <path d="M70.867,396.853 L99.213,382.68 L70.867,368.507 z" fill="#000000"/>
    </g>
    <g>
      <path d="M155.906,382.681 L127.559,368.508 L155.906,354.335 z" fill="#FF0000"/>
      <path d="M155.906,382.681 L184.252,368.508 L155.906,354.335 z" fill="#000000"/>
    </g>
    <g>
      <path d="M70.866,368.507 L42.52,354.334 L70.866,340.161 z" fill="#FF0000"/>
      <path d="M70.866,368.507 L99.213,354.334 L70.866,340.161 z" fill="#000000"/>
    </g>
    <g>
      <path d="M155.906,467.722 L127.559,453.549 L155.906,439.375 z" fill="#FF0000"/>
      <path d="M155.906,467.722 L184.252,453.549 L155.906,439.375 z" fill="#000000"/>
    </g>
    <g>
      <path d="M70.867,481.894 L42.52,467.721 L70.867,453.548 z" fill="#FF0000"/>
      <path d="M70.867,481.894 L99.213,467.721 L70.867,453.548 z" fill="#000000"/>
    </g>
    <g>
      <path d="M212.599,382.682 L184.252,368.508 L212.599,354.335 z" fill="#FF0000"/>
      <path d="M212.599,382.682 L240.945,368.508 L212.599,354.335 z" fill="#000000"/>
    </g>
    <g>
      <path d="M240.945,368.508 L212.599,354.335 L240.945,340.161 z" fill="#FF0000"/>
      <path d="M240.945,368.508 L269.292,354.335 L240.945,340.161 z" fill="#000000"/>
    </g>
    <g>
      <path d="M212.599,411.028 L184.252,396.855 L212.599,382.682 z" fill="#FF0000"/>
      <path d="M212.599,411.028 L240.945,396.855 L212.599,382.682 z" fill="#000000"/>
    </g>
    <g>
      <path d="M240.945,396.854 L212.599,382.681 L240.945,368.508 z" fill="#FF0000"/>
      <path d="M240.945,396.854 L269.292,382.681 L240.945,368.508 z" fill="#000000"/>
    </g>
    <g>
      <path d="M240.945,425.202 L212.599,411.029 L240.945,396.856 z" fill="#FF0000"/>
      <path d="M240.945,425.202 L269.292,411.029 L240.945,396.856 z" fill="#000000"/>
    </g>
    <g>
      <path d="M269.292,411.028 L240.946,396.855 L269.292,382.682 z" fill="#FF0000"/>
      <path d="M269.292,411.028 L297.639,396.855 L269.292,382.682 z" fill="#000000"/>
    </g>
    <g>
      <path d="M184.253,453.549 L155.906,439.375 L184.253,425.202 z" fill="#FF0000"/>
      <path d="M184.253,453.549 L212.599,439.375 L184.253,425.202 z" fill="#000000"/>
    </g>
    <g>
      <path d="M212.599,439.375 L184.253,425.201 L212.599,411.028 z" fill="#FF0000"/>
      <path d="M212.599,439.375 L240.946,425.201 L212.599,411.028 z" fill="#000000"/>
    </g>
    <g>
      <path d="M269.292,439.375 L240.946,425.201 L269.292,411.028 z" fill="#FF0000"/>
      <path d="M269.292,439.375 L297.639,425.201 L269.292,411.028 z" fill="#000000"/>
    </g>
    <g>
      <path d="M240.946,481.895 L212.599,467.722 L240.946,453.549 z" fill="#FF0000"/>
      <path d="M240.946,481.895 L269.292,467.722 L240.946,453.549 z" fill="#000000"/>
    </g>
    <g>
      <path d="M212.599,467.723 L184.253,453.549 L212.599,439.376 z" fill="#FF0000"/>
      <path d="M212.599,467.723 L240.946,453.549 L212.599,439.376 z" fill="#000000"/>
    </g>
    <g>
      <path d="M240.946,453.549 L212.599,439.375 L240.946,425.202 z" fill="#FF0000"/>
      <path d="M240.946,453.549 L269.292,439.375 L240.946,425.202 z" fill="#000000"/>
    </g>
    <g>
      <path d="M184.253,425.202 L155.906,411.029 L184.253,396.856 z" fill="#FF0000"/>
      <path d="M184.253,425.202 L212.599,411.029 L184.253,396.856 z" fill="#000000"/>
    </g>
    <g>
      <path d="M184.253,396.854 L155.906,382.681 L184.253,368.508 z" fill="#FF0000"/>
      <path d="M184.253,396.854 L212.599,382.681 L184.253,368.508 z" fill="#000000"/>
    </g>
    <g>
      <path d="M269.292,382.682 L240.946,368.508 L269.292,354.335 z" fill="#FF0000"/>
      <path d="M269.292,382.682 L297.639,368.508 L269.292,354.335 z" fill="#000000"/>
    </g>
    <g>
      <path d="M184.253,368.508 L155.906,354.335 L184.253,340.161 z" fill="#FF0000"/>
      <path d="M184.253,368.508 L212.599,354.335 L184.253,340.161 z" fill="#000000"/>
    </g>
    <g>
      <path d="M269.292,467.722 L240.945,453.549 L269.292,439.376 z" fill="#FF0000"/>
      <path d="M269.292,467.722 L297.638,453.549 L269.292,439.376 z" fill="#000000"/>
    </g>
    <g>
      <path d="M184.253,481.895 L155.906,467.722 L184.253,453.549 z" fill="#FF0000"/>
      <path d="M184.253,481.895 L212.599,467.722 L184.253,453.549 z" fill="#000000"/>
    </g>
    <g>
      <path d="M325.985,382.681 L297.639,368.508 L325.985,354.335 z" fill="#FF0000"/>
      <path d="M325.985,382.681 L354.332,368.508 L325.985,354.335 z" fill="#000000"/>
    </g>
    <g>
      <path d="M354.332,368.507 L325.985,354.334 L354.332,340.161 z" fill="#FF0000"/>
      <path d="M354.332,368.507 L382.678,354.334 L354.332,340.161 z" fill="#000000"/>
    </g>
    <g>
      <path d="M325.985,411.027 L297.639,396.854 L325.985,382.681 z" fill="#FF0000"/>
      <path d="M325.985,411.027 L354.332,396.854 L325.985,382.681 z" fill="#000000"/>
    </g>
    <g>
      <path d="M354.332,396.853 L325.985,382.68 L354.332,368.507 z" fill="#FF0000"/>
      <path d="M354.332,396.853 L382.678,382.68 L354.332,368.507 z" fill="#000000"/>
    </g>
    <g>
      <path d="M354.332,425.201 L325.985,411.028 L354.332,396.855 z" fill="#FF0000"/>
      <path d="M354.332,425.201 L382.678,411.028 L354.332,396.855 z" fill="#000000"/>
    </g>
    <g>
      <path d="M382.678,411.027 L354.332,396.854 L382.678,382.681 z" fill="#FF0000"/>
      <path d="M382.678,411.027 L411.025,396.854 L382.678,382.681 z" fill="#000000"/>
    </g>
    <g>
      <path d="M297.639,453.548 L269.292,439.375 L297.639,425.201 z" fill="#FF0000"/>
      <path d="M297.639,453.548 L325.985,439.375 L297.639,425.201 z" fill="#000000"/>
    </g>
    <g>
      <path d="M325.985,439.374 L297.639,425.201 L325.985,411.027 z" fill="#FF0000"/>
      <path d="M325.985,439.374 L354.332,425.201 L325.985,411.027 z" fill="#000000"/>
    </g>
    <g>
      <path d="M382.678,439.374 L354.332,425.201 L382.678,411.027 z" fill="#FF0000"/>
      <path d="M382.678,439.374 L411.025,425.201 L382.678,411.027 z" fill="#000000"/>
    </g>
    <g>
      <path d="M354.332,481.894 L325.985,467.721 L354.332,453.548 z" fill="#FF0000"/>
      <path d="M354.332,481.894 L382.678,467.721 L354.332,453.548 z" fill="#000000"/>
    </g>
    <g>
      <path d="M325.985,467.722 L297.639,453.549 L325.985,439.375 z" fill="#FF0000"/>
      <path d="M325.985,467.722 L354.332,453.549 L325.985,439.375 z" fill="#000000"/>
    </g>
    <g>
      <path d="M354.332,453.548 L325.985,439.375 L354.332,425.201 z" fill="#FF0000"/>
      <path d="M354.332,453.548 L382.678,439.375 L354.332,425.201 z" fill="#000000"/>
    </g>
    <g>
      <path d="M297.639,425.201 L269.292,411.028 L297.639,396.855 z" fill="#FF0000"/>
      <path d="M297.639,425.201 L325.985,411.028 L297.639,396.855 z" fill="#000000"/>
    </g>
    <g>
      <path d="M297.639,396.853 L269.292,382.68 L297.639,368.507 z" fill="#FF0000"/>
      <path d="M297.639,396.853 L325.985,382.68 L297.639,368.507 z" fill="#000000"/>
    </g>
    <g>
      <path d="M382.678,382.681 L354.332,368.508 L382.678,354.335 z" fill="#FF0000"/>
      <path d="M382.678,382.681 L411.025,368.508 L382.678,354.335 z" fill="#000000"/>
    </g>
    <g>
      <path d="M297.639,368.507 L269.292,354.334 L297.639,340.161 z" fill="#FF0000"/>
      <path d="M297.639,368.507 L325.985,354.334 L297.639,340.161 z" fill="#000000"/>
    </g>
    <g>
      <path d="M382.678,467.722 L354.332,453.548 L382.678,439.375 z" fill="#FF0000"/>
      <path d="M382.678,467.722 L411.025,453.548 L382.678,439.375 z" fill="#000000"/>
    </g>
    <g>
      <path d="M297.639,481.894 L269.292,467.721 L297.639,453.548 z" fill="#FF0000"/>
      <path d="M297.639,481.894 L325.985,467.721 L297.639,453.548 z" fill="#000000"/>
    </g>
    <g>
      <path d="M439.371,382.683 L411.025,368.509 L439.371,354.336 z" fill="#FF0000"/>
      <path d="M439.371,382.683 L467.718,368.509 L439.371,354.336 z" fill="#000000"/>
    </g>
    <g>
      <path d="M467.718,368.509 L439.371,354.335 L467.718,340.162 z" fill="#FF0000"/>
      <path d="M467.718,368.509 L496.064,354.335 L467.718,340.162 z" fill="#000000"/>
    </g>
    <g>
      <path d="M439.371,411.029 L411.025,396.856 L439.371,382.683 z" fill="#FF0000"/>
      <path d="M439.371,411.029 L467.718,396.856 L439.371,382.683 z" fill="#000000"/>
    </g>
    <g>
      <path d="M467.718,396.855 L439.371,382.682 L467.718,368.509 z" fill="#FF0000"/>
      <path d="M467.718,396.855 L496.064,382.682 L467.718,368.509 z" fill="#000000"/>
    </g>
    <g>
      <path d="M467.718,425.203 L439.371,411.03 L467.718,396.856 z" fill="#FF0000"/>
      <path d="M467.718,425.203 L496.064,411.03 L467.718,396.856 z" fill="#000000"/>
    </g>
    <g>
      <path d="M496.064,411.029 L467.718,396.856 L496.064,382.683 z" fill="#FF0000"/>
      <path d="M496.064,411.029 L524.411,396.856 L496.064,382.683 z" fill="#000000"/>
    </g>
    <g>
      <path d="M411.025,453.549 L382.678,439.376 L411.025,425.203 z" fill="#FF0000"/>
      <path d="M411.025,453.549 L439.371,439.376 L411.025,425.203 z" fill="#000000"/>
    </g>
    <g>
      <path d="M439.372,439.375 L411.025,425.202 L439.372,411.029 z" fill="#FF0000"/>
      <path d="M439.372,439.375 L467.718,425.202 L439.372,411.029 z" fill="#000000"/>
    </g>
    <g>
      <path d="M496.064,439.375 L467.718,425.202 L496.064,411.029 z" fill="#FF0000"/>
      <path d="M496.064,439.375 L524.411,425.202 L496.064,411.029 z" fill="#000000"/>
    </g>
    <g>
      <path d="M467.718,481.896 L439.372,467.723 L467.718,453.549 z" fill="#FF0000"/>
      <path d="M467.718,481.896 L496.065,467.723 L467.718,453.549 z" fill="#000000"/>
    </g>
    <g>
      <path d="M439.372,467.723 L411.025,453.55 L439.372,439.377 z" fill="#FF0000"/>
      <path d="M439.372,467.723 L467.718,453.55 L439.372,439.377 z" fill="#000000"/>
    </g>
    <g>
      <path d="M467.718,453.549 L439.372,439.376 L467.718,425.203 z" fill="#FF0000"/>
      <path d="M467.718,453.549 L496.065,439.376 L467.718,425.203 z" fill="#000000"/>
    </g>
    <g>
      <path d="M411.025,425.203 L382.678,411.03 L411.025,396.856 z" fill="#FF0000"/>
      <path d="M411.025,425.203 L439.371,411.03 L411.025,396.856 z" fill="#000000"/>
    </g>
    <g>
      <path d="M411.025,396.855 L382.679,382.682 L411.025,368.509 z" fill="#FF0000"/>
      <path d="M411.025,396.855 L439.372,382.682 L411.025,368.509 z" fill="#000000"/>
    </g>
    <g>
      <path d="M496.064,382.683 L467.718,368.509 L496.064,354.336 z" fill="#FF0000"/>
      <path d="M496.064,382.683 L524.411,368.509 L496.064,354.336 z" fill="#000000"/>
    </g>
    <g>
      <path d="M411.025,368.509 L382.678,354.335 L411.025,340.162 z" fill="#FF0000"/>
      <path d="M411.025,368.509 L439.371,354.335 L411.025,340.162 z" fill="#000000"/>
    </g>
    <g>
      <path d="M496.064,467.723 L467.718,453.55 L496.064,439.377 z" fill="#FF0000"/>
      <path d="M496.064,467.723 L524.411,453.55 L496.064,439.377 z" fill="#000000"/>
    </g>
    <g>
      <path d="M411.025,481.896 L382.679,467.723 L411.025,453.549 z" fill="#FF0000"/>
      <path d="M411.025,481.896 L439.372,467.723 L411.025,453.549 z" fill="#000000"/>
    </g>
    <g>
      <path d="M212.599,496.068 L184.252,481.895 L212.599,467.722 z" fill="#FF0000"/>
      <path d="M212.599,496.068 L240.945,481.895 L212.599,467.722 z" fill="#000000"/>
    </g>
    <g>
      <path d="M155.906,496.068 L127.56,481.895 L155.906,467.722 z" fill="#FF0000"/>
      <path d="M155.906,496.068 L184.253,481.895 L155.906,467.722 z" fill="#000000"/>
    </g>
    <g>
      <path d="M269.292,496.068 L240.946,481.895 L269.292,467.722 z" fill="#FF0000"/>
      <path d="M269.292,496.068 L297.639,481.895 L269.292,467.722 z" fill="#000000"/>
    </g>
    <g>
      <path d="M524.411,368.507 L496.064,354.334 L524.411,340.161 z" fill="#FF0000"/>
      <path d="M524.411,368.507 L552.757,354.334 L524.411,340.161 z" fill="#000000"/>
    </g>
    <g>
      <path d="M524.411,425.2 L496.064,411.027 L524.411,396.853 z" fill="#FF0000"/>
      <path d="M524.411,425.2 L552.757,411.027 L524.411,396.853 z" fill="#000000"/>
    </g>
    <g>
      <path d="M524.411,453.548 L496.064,439.375 L524.411,425.201 z" fill="#FF0000"/>
      <path d="M524.411,453.548 L552.757,439.375 L524.411,425.201 z" fill="#000000"/>
    </g>
    <g>
      <path d="M524.411,510.241 L496.064,496.068 L524.411,481.895 z" fill="#FF0000"/>
      <path d="M524.411,510.241 L552.757,496.068 L524.411,481.895 z" fill="#000000"/>
    </g>
    <g>
      <path d="M496.063,496.068 L467.717,481.895 L496.063,467.722 z" fill="#FF0000"/>
      <path d="M496.063,496.068 L524.41,481.895 L496.063,467.722 z" fill="#000000"/>
    </g>
    <g>
      <path d="M439.372,496.068 L411.025,481.895 L439.372,467.722 z" fill="#FF0000"/>
      <path d="M439.372,496.068 L467.718,481.895 L439.372,467.722 z" fill="#000000"/>
    </g>
    <g>
      <path d="M382.679,496.068 L354.332,481.895 L382.679,467.722 z" fill="#FF0000"/>
      <path d="M382.679,496.068 L411.025,481.895 L382.679,467.722 z" fill="#000000"/>
    </g>
    <g>
      <path d="M325.985,496.068 L297.638,481.895 L325.985,467.722 z" fill="#FF0000"/>
      <path d="M325.985,496.068 L354.331,481.895 L325.985,467.722 z" fill="#000000"/>
    </g>
    <g>
      <path d="M524.411,396.853 L496.064,382.68 L524.411,368.507 z" fill="#FF0000"/>
      <path d="M524.411,396.853 L552.757,382.68 L524.411,368.507 z" fill="#000000"/>
    </g>
    <g>
      <path d="M99.213,496.068 L70.866,481.895 L99.213,467.722 z" fill="#FF0000"/>
      <path d="M99.213,496.068 L127.559,481.895 L99.213,467.722 z" fill="#000000"/>
    </g>
    <g>
      <path d="M524.411,481.895 L496.064,467.722 L524.411,453.549 z" fill="#FF0000"/>
      <path d="M524.411,481.895 L552.757,467.722 L524.411,453.549 z" fill="#000000"/>
    </g>
    <g>
      <path d="M99.212,524.415 L70.865,510.242 L99.212,496.068 z" fill="#FF0000"/>
      <path d="M99.212,524.415 L127.558,510.242 L99.212,496.068 z" fill="#000000"/>
    </g>
    <g>
      <path d="M127.558,510.241 L99.212,496.068 L127.558,481.894 z" fill="#FF0000"/>
      <path d="M127.558,510.241 L155.905,496.068 L127.558,481.894 z" fill="#000000"/>
    </g>
    <g>
      <path d="M127.558,538.587 L99.212,524.414 L127.558,510.241 z" fill="#FF0000"/>
      <path d="M127.558,538.587 L155.905,524.414 L127.558,510.241 z" fill="#000000"/>
    </g>
    <g>
      <path d="M70.866,538.587 L42.519,524.414 L70.866,510.241 z" fill="#FF0000"/>
      <path d="M70.866,538.587 L99.212,524.414 L70.866,510.241 z" fill="#000000"/>
    </g>
    <g>
      <path d="M155.905,524.415 L127.559,510.242 L155.905,496.068 z" fill="#FF0000"/>
      <path d="M155.905,524.415 L184.251,510.242 L155.905,496.068 z" fill="#000000"/>
    </g>
    <g>
      <path d="M70.865,510.241 L42.519,496.068 L70.865,481.894 z" fill="#FF0000"/>
      <path d="M70.865,510.241 L99.212,496.068 L70.865,481.894 z" fill="#000000"/>
    </g>
    <g>
      <path d="M212.598,524.416 L184.252,510.242 L212.598,496.069 z" fill="#FF0000"/>
      <path d="M212.598,524.416 L240.945,510.242 L212.598,496.069 z" fill="#000000"/>
    </g>
    <g>
      <path d="M240.945,510.241 L212.598,496.068 L240.945,481.895 z" fill="#FF0000"/>
      <path d="M240.945,510.241 L269.291,496.068 L240.945,481.895 z" fill="#000000"/>
    </g>
    <g>
      <path d="M240.945,538.588 L212.598,524.415 L240.945,510.242 z" fill="#FF0000"/>
      <path d="M240.945,538.588 L269.291,524.415 L240.945,510.242 z" fill="#000000"/>
    </g>
    <g>
      <path d="M184.252,538.588 L155.905,524.415 L184.252,510.242 z" fill="#FF0000"/>
      <path d="M184.252,538.588 L212.598,524.415 L184.252,510.242 z" fill="#000000"/>
    </g>
    <g>
      <path d="M269.291,524.416 L240.945,510.242 L269.291,496.069 z" fill="#FF0000"/>
      <path d="M269.291,524.416 L297.638,510.242 L269.291,496.069 z" fill="#000000"/>
    </g>
    <g>
      <path d="M184.252,510.242 L155.905,496.068 L184.252,481.895 z" fill="#FF0000"/>
      <path d="M184.252,510.242 L212.598,496.068 L184.252,481.895 z" fill="#000000"/>
    </g>
    <g>
      <path d="M325.984,524.415 L297.638,510.242 L325.984,496.068 z" fill="#FF0000"/>
      <path d="M325.984,524.415 L354.331,510.242 L325.984,496.068 z" fill="#000000"/>
    </g>
    <g>
      <path d="M354.331,510.241 L325.984,496.068 L354.331,481.894 z" fill="#FF0000"/>
      <path d="M354.331,510.241 L382.677,496.068 L354.331,481.894 z" fill="#000000"/>
    </g>
    <g>
      <path d="M354.331,538.587 L325.984,524.414 L354.331,510.241 z" fill="#FF0000"/>
      <path d="M354.331,538.587 L382.677,524.414 L354.331,510.241 z" fill="#000000"/>
    </g>
    <g>
      <path d="M297.638,538.587 L269.292,524.414 L297.638,510.241 z" fill="#FF0000"/>
      <path d="M297.638,538.587 L325.984,524.414 L297.638,510.241 z" fill="#000000"/>
    </g>
    <g>
      <path d="M382.677,524.415 L354.331,510.242 L382.677,496.068 z" fill="#FF0000"/>
      <path d="M382.677,524.415 L411.024,510.242 L382.677,496.068 z" fill="#000000"/>
    </g>
    <g>
      <path d="M297.638,510.241 L269.291,496.068 L297.638,481.894 z" fill="#FF0000"/>
      <path d="M297.638,510.241 L325.984,496.068 L297.638,481.894 z" fill="#000000"/>
    </g>
    <g>
      <path d="M439.37,524.416 L411.024,510.243 L439.37,496.07 z" fill="#FF0000"/>
      <path d="M439.37,524.416 L467.717,510.243 L439.37,496.07 z" fill="#000000"/>
    </g>
    <g>
      <path d="M467.717,510.242 L439.37,496.069 L467.717,481.896 z" fill="#FF0000"/>
      <path d="M467.717,510.242 L496.063,496.069 L467.717,481.896 z" fill="#000000"/>
    </g>
    <g>
      <path d="M467.717,538.589 L439.37,524.416 L467.717,510.242 z" fill="#FF0000"/>
      <path d="M467.717,538.589 L496.063,524.416 L467.717,510.242 z" fill="#000000"/>
    </g>
    <g>
      <path d="M411.024,538.589 L382.678,524.416 L411.024,510.242 z" fill="#FF0000"/>
      <path d="M411.024,538.589 L439.371,524.416 L411.024,510.242 z" fill="#000000"/>
    </g>
    <g>
      <path d="M496.064,524.416 L467.717,510.243 L496.064,496.07 z" fill="#FF0000"/>
      <path d="M496.064,524.416 L524.41,510.243 L496.064,496.07 z" fill="#000000"/>
    </g>
    <g>
      <path d="M411.024,510.242 L382.677,496.069 L411.024,481.896 z" fill="#FF0000"/>
      <path d="M411.024,510.242 L439.37,496.069 L411.024,481.896 z" fill="#000000"/>
    </g>
    <g>
      <path d="M524.41,510.241 L496.064,496.068 L524.41,481.894 z" fill="#FF0000"/>
      <path d="M524.41,510.241 L552.757,496.068 L524.41,481.894 z" fill="#000000"/>
    </g>
    <g>
      <path d="M524.41,538.587 L496.064,524.414 L524.41,510.241 z" fill="#FF0000"/>
      <path d="M524.41,538.587 L552.757,524.414 L524.41,510.241 z" fill="#000000"/>
    </g>
  </g>
  <g id="Layer_2" display="none" opacity="0.354">
    <g>
      <g>
        <path d="M70.866,70.867 L99.213,70.867 L99.213,99.213 L70.866,99.213 z" fill="#FF0000"/>
        <path d="M99.213,70.867 L127.559,70.867 L127.559,99.213 L99.213,99.213 z" fill="#808080"/>
        <path d="M127.559,70.867 L155.905,70.867 L155.905,99.213 L127.559,99.213 z" fill="#FF0000"/>
        <path d="M155.905,70.867 L184.252,70.867 L184.252,99.213 L155.905,99.213 z" fill="#808080"/>
        <path d="M184.252,70.867 L212.598,70.867 L212.598,99.213 L184.252,99.213 z" fill="#FF0000"/>
        <path d="M212.598,70.867 L240.945,70.867 L240.945,99.213 L212.598,99.213 z" fill="#808080"/>
        <path d="M240.945,70.867 L269.291,70.867 L269.291,99.213 L240.945,99.213 z" fill="#FF0000"/>
        <path d="M269.291,70.867 L297.638,70.867 L297.638,99.213 L269.291,99.213 z" fill="#808080"/>
        <path d="M297.638,70.867 L325.984,70.867 L325.984,99.213 L297.638,99.213 z" fill="#FF0000"/>
        <path d="M325.984,70.867 L354.331,70.867 L354.331,99.213 L325.984,99.213 z" fill="#808080"/>
        <path d="M354.331,70.867 L382.677,70.867 L382.677,99.213 L354.331,99.213 z" fill="#FF0000"/>
        <path d="M382.677,70.867 L411.024,70.867 L411.024,99.213 L382.677,99.213 z" fill="#808080"/>
        <path d="M411.024,70.867 L439.37,70.867 L439.37,99.213 L411.024,99.213 z" fill="#FF0000"/>
        <path d="M439.37,70.867 L467.716,70.867 L467.716,99.213 L439.37,99.213 z" fill="#808080"/>
        <path d="M467.716,70.867 L496.063,70.867 L496.063,99.213 L467.716,99.213 z" fill="#FF0000"/>
        <path d="M496.063,70.867 L524.409,70.867 L524.409,99.213 L496.063,99.213 z" fill="#808080"/>
      </g>
      <g>
        <path d="M524.409,155.906 L496.063,155.906 L496.063,184.253 L524.409,184.253 z" fill="#FF0000"/>
        <path d="M496.063,155.906 L467.716,155.906 L467.716,184.253 L496.063,184.253 z" fill="#808080"/>
        <path d="M467.716,155.906 L439.37,155.906 L439.37,184.253 L467.716,184.253 z" fill="#FF0000"/>
        <path d="M439.37,155.906 L411.024,155.906 L411.024,184.253 L439.37,184.253 z" fill="#808080"/>
        <path d="M411.024,155.906 L382.677,155.906 L382.677,184.253 L411.024,184.253 z" fill="#FF0000"/>
        <path d="M382.677,155.906 L354.331,155.906 L354.331,184.253 L382.677,184.253 z" fill="#808080"/>
        <path d="M354.331,155.906 L325.984,155.906 L325.984,184.253 L354.331,184.253 z" fill="#FF0000"/>
        <path d="M325.984,155.906 L297.638,155.906 L297.638,184.253 L325.984,184.253 z" fill="#808080"/>
        <path d="M297.638,155.906 L269.291,155.906 L269.291,184.253 L297.638,184.253 z" fill="#FF0000"/>
        <path d="M269.291,155.906 L240.945,155.906 L240.945,184.253 L269.291,184.253 z" fill="#808080"/>
        <path d="M240.945,155.906 L212.598,155.906 L212.598,184.253 L240.945,184.253 z" fill="#FF0000"/>
        <path d="M212.598,155.906 L184.252,155.906 L184.252,184.253 L212.598,184.253 z" fill="#808080"/>
        <path d="M184.252,155.906 L155.905,155.906 L155.905,184.253 L184.252,184.253 z" fill="#FF0000"/>
        <path d="M155.905,155.906 L127.559,155.906 L127.559,184.253 L155.905,184.253 z" fill="#808080"/>
        <path d="M127.559,155.906 L99.213,155.906 L99.213,184.253 L127.559,184.253 z" fill="#FF0000"/>
        <path d="M99.213,155.906 L70.866,155.906 L70.866,184.253 L99.213,184.253 z" fill="#808080"/>
      </g>
      <g>
        <path d="M70.866,127.56 L99.213,127.56 L99.213,155.907 L70.866,155.907 z" fill="#FF0000"/>
        <path d="M99.213,127.56 L127.559,127.56 L127.559,155.907 L99.213,155.907 z" fill="#808080"/>
        <path d="M127.559,127.56 L155.905,127.56 L155.905,155.907 L127.559,155.907 z" fill="#FF0000"/>
        <path d="M155.905,127.56 L184.252,127.56 L184.252,155.907 L155.905,155.907 z" fill="#808080"/>
        <path d="M184.252,127.56 L212.598,127.56 L212.598,155.907 L184.252,155.907 z" fill="#FF0000"/>
        <path d="M212.598,127.56 L240.945,127.56 L240.945,155.907 L212.598,155.907 z" fill="#808080"/>
        <path d="M240.945,127.56 L269.291,127.56 L269.291,155.907 L240.945,155.907 z" fill="#FF0000"/>
        <path d="M269.291,127.56 L297.638,127.56 L297.638,155.907 L269.291,155.907 z" fill="#808080"/>
        <path d="M297.638,127.56 L325.984,127.56 L325.984,155.907 L297.638,155.907 z" fill="#FF0000"/>
        <path d="M325.984,127.56 L354.331,127.56 L354.331,155.907 L325.984,155.907 z" fill="#808080"/>
        <path d="M354.331,127.56 L382.677,127.56 L382.677,155.907 L354.331,155.907 z" fill="#FF0000"/>
        <path d="M382.677,127.56 L411.024,127.56 L411.024,155.907 L382.677,155.907 z" fill="#808080"/>
        <path d="M411.024,127.56 L439.37,127.56 L439.37,155.907 L411.024,155.907 z" fill="#FF0000"/>
        <path d="M439.37,127.56 L467.716,127.56 L467.716,155.907 L439.37,155.907 z" fill="#808080"/>
        <path d="M467.716,127.56 L496.063,127.56 L496.063,155.907 L467.716,155.907 z" fill="#FF0000"/>
        <path d="M496.063,127.56 L524.409,127.56 L524.409,155.907 L496.063,155.907 z" fill="#808080"/>
      </g>
      <g>
        <path d="M524.409,99.214 L496.063,99.214 L496.063,127.561 L524.409,127.561 z" fill="#FF0000"/>
        <path d="M496.063,99.214 L467.716,99.214 L467.716,127.561 L496.063,127.561 z" fill="#808080"/>
        <path d="M467.716,99.214 L439.37,99.214 L439.37,127.561 L467.716,127.561 z" fill="#FF0000"/>
        <path d="M439.37,99.214 L411.024,99.214 L411.024,127.561 L439.37,127.561 z" fill="#808080"/>
        <path d="M411.024,99.214 L382.677,99.214 L382.677,127.561 L411.024,127.561 z" fill="#FF0000"/>
        <path d="M382.677,99.214 L354.331,99.214 L354.331,127.561 L382.677,127.561 z" fill="#808080"/>
        <path d="M354.331,99.214 L325.984,99.214 L325.984,127.561 L354.331,127.561 z" fill="#FF0000"/>
        <path d="M325.984,99.214 L297.638,99.214 L297.638,127.561 L325.984,127.561 z" fill="#808080"/>
        <path d="M297.638,99.214 L269.291,99.214 L269.291,127.561 L297.638,127.561 z" fill="#FF0000"/>
        <path d="M269.291,99.214 L240.945,99.214 L240.945,127.561 L269.291,127.561 z" fill="#808080"/>
        <path d="M240.945,99.214 L212.598,99.214 L212.598,127.561 L240.945,127.561 z" fill="#FF0000"/>
        <path d="M212.598,99.214 L184.252,99.214 L184.252,127.561 L212.598,127.561 z" fill="#808080"/>
        <path d="M184.252,99.214 L155.905,99.214 L155.905,127.561 L184.252,127.561 z" fill="#FF0000"/>
        <path d="M155.905,99.214 L127.559,99.214 L127.559,127.561 L155.905,127.561 z" fill="#808080"/>
        <path d="M127.559,99.214 L99.213,99.214 L99.213,127.561 L127.559,127.561 z" fill="#FF0000"/>
        <path d="M99.213,99.214 L70.866,99.214 L70.866,127.561 L99.213,127.561 z" fill="#808080"/>
      </g>
      <g>
        <path d="M70.866,184.252 L99.213,184.252 L99.213,212.599 L70.866,212.599 z" fill="#FF0000"/>
        <path d="M99.213,184.252 L127.559,184.252 L127.559,212.599 L99.213,212.599 z" fill="#808080"/>
        <path d="M127.559,184.252 L155.905,184.252 L155.905,212.599 L127.559,212.599 z" fill="#FF0000"/>
        <path d="M155.905,184.252 L184.252,184.252 L184.252,212.599 L155.905,212.599 z" fill="#808080"/>
        <path d="M184.252,184.252 L212.598,184.252 L212.598,212.599 L184.252,212.599 z" fill="#FF0000"/>
        <path d="M212.598,184.252 L240.945,184.252 L240.945,212.599 L212.598,212.599 z" fill="#808080"/>
        <path d="M240.945,184.252 L269.291,184.252 L269.291,212.599 L240.945,212.599 z" fill="#FF0000"/>
        <path d="M269.291,184.252 L297.638,184.252 L297.638,212.599 L269.291,212.599 z" fill="#808080"/>
        <path d="M297.638,184.252 L325.984,184.252 L325.984,212.599 L297.638,212.599 z" fill="#FF0000"/>
        <path d="M325.984,184.252 L354.331,184.252 L354.331,212.599 L325.984,212.599 z" fill="#808080"/>
        <path d="M354.331,184.252 L382.677,184.252 L382.677,212.599 L354.331,212.599 z" fill="#FF0000"/>
        <path d="M382.677,184.252 L411.024,184.252 L411.024,212.599 L382.677,212.599 z" fill="#808080"/>
        <path d="M411.024,184.252 L439.37,184.252 L439.37,212.599 L411.024,212.599 z" fill="#FF0000"/>
        <path d="M439.37,184.252 L467.716,184.252 L467.716,212.599 L439.37,212.599 z" fill="#808080"/>
        <path d="M467.716,184.252 L496.063,184.252 L496.063,212.599 L467.716,212.599 z" fill="#FF0000"/>
        <path d="M496.063,184.252 L524.409,184.252 L524.409,212.599 L496.063,212.599 z" fill="#808080"/>
      </g>
      <g>
        <path d="M524.409,269.291 L496.063,269.291 L496.063,297.638 L524.409,297.638 z" fill="#FF0000"/>
        <path d="M496.063,269.291 L467.716,269.291 L467.716,297.638 L496.063,297.638 z" fill="#808080"/>
        <path d="M467.716,269.291 L439.37,269.291 L439.37,297.638 L467.716,297.638 z" fill="#FF0000"/>
        <path d="M439.37,269.291 L411.024,269.291 L411.024,297.638 L439.37,297.638 z" fill="#808080"/>
        <path d="M411.024,269.291 L382.677,269.291 L382.677,297.638 L411.024,297.638 z" fill="#FF0000"/>
        <path d="M382.677,269.291 L354.331,269.291 L354.331,297.638 L382.677,297.638 z" fill="#808080"/>
        <path d="M354.331,269.291 L325.984,269.291 L325.984,297.638 L354.331,297.638 z" fill="#FF0000"/>
        <path d="M325.984,269.291 L297.638,269.291 L297.638,297.638 L325.984,297.638 z" fill="#808080"/>
        <path d="M297.638,269.291 L269.291,269.291 L269.291,297.638 L297.638,297.638 z" fill="#FF0000"/>
        <path d="M269.291,269.291 L240.945,269.291 L240.945,297.638 L269.291,297.638 z" fill="#808080"/>
        <path d="M240.945,269.291 L212.598,269.291 L212.598,297.638 L240.945,297.638 z" fill="#FF0000"/>
        <path d="M212.598,269.291 L184.252,269.291 L184.252,297.638 L212.598,297.638 z" fill="#808080"/>
        <path d="M184.252,269.291 L155.905,269.291 L155.905,297.638 L184.252,297.638 z" fill="#FF0000"/>
        <path d="M155.905,269.291 L127.559,269.291 L127.559,297.638 L155.905,297.638 z" fill="#808080"/>
        <path d="M127.559,269.291 L99.213,269.291 L99.213,297.638 L127.559,297.638 z" fill="#FF0000"/>
        <path d="M99.213,269.291 L70.866,269.291 L70.866,297.638 L99.213,297.638 z" fill="#808080"/>
      </g>
      <g>
        <path d="M70.866,240.945 L99.213,240.945 L99.213,269.292 L70.866,269.292 z" fill="#FF0000"/>
        <path d="M99.213,240.945 L127.559,240.945 L127.559,269.292 L99.213,269.292 z" fill="#808080"/>
        <path d="M127.559,240.945 L155.905,240.945 L155.905,269.292 L127.559,269.292 z" fill="#FF0000"/>
        <path d="M155.905,240.945 L184.252,240.945 L184.252,269.292 L155.905,269.292 z" fill="#808080"/>
        <path d="M184.252,240.945 L212.598,240.945 L212.598,269.292 L184.252,269.292 z" fill="#FF0000"/>
        <path d="M212.598,240.945 L240.945,240.945 L240.945,269.292 L212.598,269.292 z" fill="#808080"/>
        <path d="M240.945,240.945 L269.291,240.945 L269.291,269.292 L240.945,269.292 z" fill="#FF0000"/>
        <path d="M269.291,240.945 L297.638,240.945 L297.638,269.292 L269.291,269.292 z" fill="#808080"/>
        <path d="M297.638,240.945 L325.984,240.945 L325.984,269.292 L297.638,269.292 z" fill="#FF0000"/>
        <path d="M325.984,240.945 L354.331,240.945 L354.331,269.292 L325.984,269.292 z" fill="#808080"/>
        <path d="M354.331,240.945 L382.677,240.945 L382.677,269.292 L354.331,269.292 z" fill="#FF0000"/>
        <path d="M382.677,240.945 L411.024,240.945 L411.024,269.292 L382.677,269.292 z" fill="#808080"/>
        <path d="M411.024,240.945 L439.37,240.945 L439.37,269.292 L411.024,269.292 z" fill="#FF0000"/>
        <path d="M439.37,240.945 L467.716,240.945 L467.716,269.292 L439.37,269.292 z" fill="#808080"/>
        <path d="M467.716,240.945 L496.063,240.945 L496.063,269.292 L467.716,269.292 z" fill="#FF0000"/>
        <path d="M496.063,240.945 L524.409,240.945 L524.409,269.292 L496.063,269.292 z" fill="#808080"/>
      </g>
      <g>
        <path d="M524.409,212.599 L496.063,212.599 L496.063,240.946 L524.409,240.946 z" fill="#FF0000"/>
        <path d="M496.063,212.599 L467.716,212.599 L467.716,240.946 L496.063,240.946 z" fill="#808080"/>
        <path d="M467.716,212.599 L439.37,212.599 L439.37,240.946 L467.716,240.946 z" fill="#FF0000"/>
        <path d="M439.37,212.599 L411.024,212.599 L411.024,240.946 L439.37,240.946 z" fill="#808080"/>
        <path d="M411.024,212.599 L382.677,212.599 L382.677,240.946 L411.024,240.946 z" fill="#FF0000"/>
        <path d="M382.677,212.599 L354.331,212.599 L354.331,240.946 L382.677,240.946 z" fill="#808080"/>
        <path d="M354.331,212.599 L325.984,212.599 L325.984,240.946 L354.331,240.946 z" fill="#FF0000"/>
        <path d="M325.984,212.599 L297.638,212.599 L297.638,240.946 L325.984,240.946 z" fill="#808080"/>
        <path d="M297.638,212.599 L269.291,212.599 L269.291,240.946 L297.638,240.946 z" fill="#FF0000"/>
        <path d="M269.291,212.599 L240.945,212.599 L240.945,240.946 L269.291,240.946 z" fill="#808080"/>
        <path d="M240.945,212.599 L212.598,212.599 L212.598,240.946 L240.945,240.946 z" fill="#FF0000"/>
        <path d="M212.598,212.599 L184.252,212.599 L184.252,240.946 L212.598,240.946 z" fill="#808080"/>
        <path d="M184.252,212.599 L155.905,212.599 L155.905,240.946 L184.252,240.946 z" fill="#FF0000"/>
        <path d="M155.905,212.599 L127.559,212.599 L127.559,240.946 L155.905,240.946 z" fill="#808080"/>
        <path d="M127.559,212.599 L99.213,212.599 L99.213,240.946 L127.559,240.946 z" fill="#FF0000"/>
        <path d="M99.213,212.599 L70.866,212.599 L70.866,240.946 L99.213,240.946 z" fill="#808080"/>
      </g>
      <g>
        <path d="M70.866,297.638 L99.213,297.638 L99.213,325.984 L70.866,325.984 z" fill="#FF0000"/>
        <path d="M99.213,297.638 L127.559,297.638 L127.559,325.984 L99.213,325.984 z" fill="#808080"/>
        <path d="M127.559,297.638 L155.906,297.638 L155.906,325.984 L127.559,325.984 z" fill="#FF0000"/>
        <path d="M155.906,297.638 L184.252,297.638 L184.252,325.984 L155.906,325.984 z" fill="#808080"/>
        <path d="M184.252,297.638 L212.598,297.638 L212.598,325.984 L184.252,325.984 z" fill="#FF0000"/>
        <path d="M212.598,297.638 L240.945,297.638 L240.945,325.984 L212.598,325.984 z" fill="#808080"/>
        <path d="M240.945,297.638 L269.291,297.638 L269.291,325.984 L240.945,325.984 z" fill="#FF0000"/>
        <path d="M269.291,297.638 L297.638,297.638 L297.638,325.984 L269.291,325.984 z" fill="#808080"/>
        <path d="M297.638,297.638 L325.984,297.638 L325.984,325.984 L297.638,325.984 z" fill="#FF0000"/>
        <path d="M325.984,297.638 L354.331,297.638 L354.331,325.984 L325.984,325.984 z" fill="#808080"/>
        <path d="M354.331,297.638 L382.677,297.638 L382.677,325.984 L354.331,325.984 z" fill="#FF0000"/>
        <path d="M382.677,297.638 L411.024,297.638 L411.024,325.984 L382.677,325.984 z" fill="#808080"/>
        <path d="M411.024,297.638 L439.37,297.638 L439.37,325.984 L411.024,325.984 z" fill="#FF0000"/>
        <path d="M439.37,297.638 L467.717,297.638 L467.717,325.984 L439.37,325.984 z" fill="#808080"/>
        <path d="M467.717,297.638 L496.063,297.638 L496.063,325.984 L467.717,325.984 z" fill="#FF0000"/>
        <path d="M496.063,297.638 L524.409,297.638 L524.409,325.984 L496.063,325.984 z" fill="#808080"/>
      </g>
      <g>
        <path d="M524.409,382.675 L496.063,382.675 L496.063,411.021 L524.409,411.021 z" fill="#FF0000"/>
        <path d="M496.063,382.675 L467.716,382.675 L467.716,411.021 L496.063,411.021 z" fill="#808080"/>
        <path d="M467.716,382.675 L439.37,382.675 L439.37,411.021 L467.716,411.021 z" fill="#FF0000"/>
        <path d="M439.37,382.675 L411.024,382.675 L411.024,411.021 L439.37,411.021 z" fill="#808080"/>
        <path d="M411.024,382.675 L382.677,382.675 L382.677,411.021 L411.024,411.021 z" fill="#FF0000"/>
        <path d="M382.677,382.675 L354.331,382.675 L354.331,411.021 L382.677,411.021 z" fill="#808080"/>
        <path d="M354.331,382.675 L325.984,382.675 L325.984,411.021 L354.331,411.021 z" fill="#FF0000"/>
        <path d="M325.984,382.675 L297.638,382.675 L297.638,411.021 L325.984,411.021 z" fill="#808080"/>
        <path d="M297.638,382.675 L269.291,382.675 L269.291,411.021 L297.638,411.021 z" fill="#FF0000"/>
        <path d="M269.291,382.675 L240.945,382.675 L240.945,411.021 L269.291,411.021 z" fill="#808080"/>
        <path d="M240.945,382.675 L212.598,382.675 L212.598,411.021 L240.945,411.021 z" fill="#FF0000"/>
        <path d="M212.598,382.675 L184.252,382.675 L184.252,411.021 L212.598,411.021 z" fill="#808080"/>
        <path d="M184.252,382.675 L155.905,382.675 L155.905,411.021 L184.252,411.021 z" fill="#FF0000"/>
        <path d="M155.905,382.675 L127.559,382.675 L127.559,411.021 L155.905,411.021 z" fill="#808080"/>
        <path d="M127.559,382.675 L99.213,382.675 L99.213,411.021 L127.559,411.021 z" fill="#FF0000"/>
        <path d="M99.213,382.675 L70.866,382.675 L70.866,411.021 L99.213,411.021 z" fill="#808080"/>
      </g>
      <g>
        <path d="M70.866,354.331 L99.213,354.331 L99.213,382.677 L70.866,382.677 z" fill="#FF0000"/>
        <path d="M99.213,354.331 L127.559,354.331 L127.559,382.677 L99.213,382.677 z" fill="#808080"/>
        <path d="M127.559,354.331 L155.906,354.331 L155.906,382.677 L127.559,382.677 z" fill="#FF0000"/>
        <path d="M155.906,354.331 L184.252,354.331 L184.252,382.677 L155.906,382.677 z" fill="#808080"/>
        <path d="M184.252,354.331 L212.598,354.331 L212.598,382.677 L184.252,382.677 z" fill="#FF0000"/>
        <path d="M212.598,354.331 L240.945,354.331 L240.945,382.677 L212.598,382.677 z" fill="#808080"/>
        <path d="M240.945,354.331 L269.291,354.331 L269.291,382.677 L240.945,382.677 z" fill="#FF0000"/>
        <path d="M269.291,354.331 L297.638,354.331 L297.638,382.677 L269.291,382.677 z" fill="#808080"/>
        <path d="M297.638,354.331 L325.984,354.331 L325.984,382.677 L297.638,382.677 z" fill="#FF0000"/>
        <path d="M325.984,354.331 L354.331,354.331 L354.331,382.677 L325.984,382.677 z" fill="#808080"/>
        <path d="M354.331,354.331 L382.677,354.331 L382.677,382.677 L354.331,382.677 z" fill="#FF0000"/>
        <path d="M382.677,354.331 L411.024,354.331 L411.024,382.677 L382.677,382.677 z" fill="#808080"/>
        <path d="M411.024,354.331 L439.37,354.331 L439.37,382.677 L411.024,382.677 z" fill="#FF0000"/>
        <path d="M439.37,354.331 L467.717,354.331 L467.717,382.677 L439.37,382.677 z" fill="#808080"/>
        <path d="M467.717,354.331 L496.063,354.331 L496.063,382.677 L467.717,382.677 z" fill="#FF0000"/>
        <path d="M496.063,354.331 L524.409,354.331 L524.409,382.677 L496.063,382.677 z" fill="#808080"/>
      </g>
      <g>
        <path d="M524.409,325.985 L496.063,325.985 L496.063,354.331 L524.409,354.331 z" fill="#FF0000"/>
        <path d="M496.063,325.985 L467.717,325.985 L467.717,354.331 L496.063,354.331 z" fill="#808080"/>
        <path d="M467.717,325.985 L439.37,325.985 L439.37,354.331 L467.717,354.331 z" fill="#FF0000"/>
        <path d="M439.37,325.985 L411.024,325.985 L411.024,354.331 L439.37,354.331 z" fill="#808080"/>
        <path d="M411.024,325.985 L382.677,325.985 L382.677,354.331 L411.024,354.331 z" fill="#FF0000"/>
        <path d="M382.677,325.985 L354.331,325.985 L354.331,354.331 L382.677,354.331 z" fill="#808080"/>
        <path d="M354.331,325.985 L325.984,325.985 L325.984,354.331 L354.331,354.331 z" fill="#FF0000"/>
        <path d="M325.984,325.985 L297.638,325.985 L297.638,354.331 L325.984,354.331 z" fill="#808080"/>
        <path d="M297.638,325.985 L269.291,325.985 L269.291,354.331 L297.638,354.331 z" fill="#FF0000"/>
        <path d="M269.291,325.985 L240.945,325.985 L240.945,354.331 L269.291,354.331 z" fill="#808080"/>
        <path d="M240.945,325.985 L212.598,325.985 L212.598,354.331 L240.945,354.331 z" fill="#FF0000"/>
        <path d="M212.598,325.985 L184.252,325.985 L184.252,354.331 L212.598,354.331 z" fill="#808080"/>
        <path d="M184.252,325.985 L155.906,325.985 L155.906,354.331 L184.252,354.331 z" fill="#FF0000"/>
        <path d="M155.906,325.985 L127.559,325.985 L127.559,354.331 L155.906,354.331 z" fill="#808080"/>
        <path d="M127.559,325.985 L99.213,325.985 L99.213,354.331 L127.559,354.331 z" fill="#FF0000"/>
        <path d="M99.213,325.985 L70.866,325.985 L70.866,354.331 L99.213,354.331 z" fill="#808080"/>
      </g>
      <g>
        <path d="M70.866,411.021 L99.213,411.021 L99.213,439.368 L70.866,439.368 z" fill="#FF0000"/>
        <path d="M99.213,411.021 L127.559,411.021 L127.559,439.368 L99.213,439.368 z" fill="#808080"/>
        <path d="M127.559,411.021 L155.906,411.021 L155.906,439.368 L127.559,439.368 z" fill="#FF0000"/>
        <path d="M155.906,411.021 L184.252,411.021 L184.252,439.368 L155.906,439.368 z" fill="#808080"/>
        <path d="M184.252,411.021 L212.599,411.021 L212.599,439.368 L184.252,439.368 z" fill="#FF0000"/>
        <path d="M212.598,411.021 L240.945,411.021 L240.945,439.368 L212.598,439.368 z" fill="#808080"/>
        <path d="M240.945,411.021 L269.291,411.021 L269.291,439.368 L240.945,439.368 z" fill="#FF0000"/>
        <path d="M269.291,411.021 L297.638,411.021 L297.638,439.368 L269.291,439.368 z" fill="#808080"/>
        <path d="M297.638,411.021 L325.984,411.021 L325.984,439.368 L297.638,439.368 z" fill="#FF0000"/>
        <path d="M325.984,411.021 L354.331,411.021 L354.331,439.368 L325.984,439.368 z" fill="#808080"/>
        <path d="M354.331,411.021 L382.677,411.021 L382.677,439.368 L354.331,439.368 z" fill="#FF0000"/>
        <path d="M382.677,411.021 L411.024,411.021 L411.024,439.368 L382.677,439.368 z" fill="#808080"/>
        <path d="M411.024,411.021 L439.37,411.021 L439.37,439.368 L411.024,439.368 z" fill="#FF0000"/>
        <path d="M439.37,411.021 L467.717,411.021 L467.717,439.368 L439.37,439.368 z" fill="#808080"/>
        <path d="M467.717,411.021 L496.063,411.021 L496.063,439.368 L467.717,439.368 z" fill="#FF0000"/>
        <path d="M496.063,411.021 L524.41,411.021 L524.41,439.368 L496.063,439.368 z" fill="#808080"/>
      </g>
      <g>
        <path d="M524.409,496.062 L496.063,496.062 L496.063,524.409 L524.409,524.409 z" fill="#FF0000"/>
        <path d="M496.063,496.062 L467.717,496.062 L467.717,524.409 L496.063,524.409 z" fill="#808080"/>
        <path d="M467.717,496.062 L439.37,496.062 L439.37,524.409 L467.717,524.409 z" fill="#FF0000"/>
        <path d="M439.37,496.062 L411.024,496.062 L411.024,524.409 L439.37,524.409 z" fill="#808080"/>
        <path d="M411.024,496.062 L382.677,496.062 L382.677,524.409 L411.024,524.409 z" fill="#FF0000"/>
        <path d="M382.677,496.062 L354.331,496.062 L354.331,524.409 L382.677,524.409 z" fill="#808080"/>
        <path d="M354.331,496.062 L325.984,496.062 L325.984,524.409 L354.331,524.409 z" fill="#FF0000"/>
        <path d="M325.984,496.062 L297.638,496.062 L297.638,524.409 L325.984,524.409 z" fill="#808080"/>
        <path d="M297.638,496.062 L269.291,496.062 L269.291,524.409 L297.638,524.409 z" fill="#FF0000"/>
        <path d="M269.291,496.062 L240.945,496.062 L240.945,524.409 L269.291,524.409 z" fill="#808080"/>
        <path d="M240.945,496.062 L212.598,496.062 L212.598,524.409 L240.945,524.409 z" fill="#FF0000"/>
        <path d="M212.598,496.062 L184.252,496.062 L184.252,524.409 L212.598,524.409 z" fill="#808080"/>
        <path d="M184.252,496.062 L155.906,496.062 L155.906,524.409 L184.252,524.409 z" fill="#FF0000"/>
        <path d="M155.906,496.062 L127.559,496.062 L127.559,524.409 L155.906,524.409 z" fill="#808080"/>
        <path d="M127.559,496.062 L99.213,496.062 L99.213,524.409 L127.559,524.409 z" fill="#FF0000"/>
        <path d="M99.213,496.062 L70.866,496.062 L70.866,524.409 L99.213,524.409 z" fill="#808080"/>
      </g>
      <g>
        <path d="M70.866,467.714 L99.213,467.714 L99.213,496.061 L70.866,496.061 z" fill="#FF0000"/>
        <path d="M99.213,467.714 L127.559,467.714 L127.559,496.061 L99.213,496.061 z" fill="#808080"/>
        <path d="M127.559,467.714 L155.906,467.714 L155.906,496.061 L127.559,496.061 z" fill="#FF0000"/>
        <path d="M155.906,467.714 L184.252,467.714 L184.252,496.061 L155.906,496.061 z" fill="#808080"/>
        <path d="M184.252,467.714 L212.598,467.714 L212.598,496.061 L184.252,496.061 z" fill="#FF0000"/>
        <path d="M212.598,467.714 L240.945,467.714 L240.945,496.061 L212.598,496.061 z" fill="#808080"/>
        <path d="M240.945,467.714 L269.291,467.714 L269.291,496.061 L240.945,496.061 z" fill="#FF0000"/>
        <path d="M269.291,467.714 L297.638,467.714 L297.638,496.061 L269.291,496.061 z" fill="#808080"/>
        <path d="M297.638,467.714 L325.984,467.714 L325.984,496.061 L297.638,496.061 z" fill="#FF0000"/>
        <path d="M325.984,467.714 L354.331,467.714 L354.331,496.061 L325.984,496.061 z" fill="#808080"/>
        <path d="M354.331,467.714 L382.677,467.714 L382.677,496.061 L354.331,496.061 z" fill="#FF0000"/>
        <path d="M382.677,467.714 L411.024,467.714 L411.024,496.061 L382.677,496.061 z" fill="#808080"/>
        <path d="M411.024,467.714 L439.37,467.714 L439.37,496.061 L411.024,496.061 z" fill="#FF0000"/>
        <path d="M439.37,467.714 L467.717,467.714 L467.717,496.061 L439.37,496.061 z" fill="#808080"/>
        <path d="M467.717,467.714 L496.063,467.714 L496.063,496.061 L467.717,496.061 z" fill="#FF0000"/>
        <path d="M496.063,467.714 L524.409,467.714 L524.409,496.061 L496.063,496.061 z" fill="#808080"/>
      </g>
      <g>
        <path d="M524.409,439.369 L496.063,439.369 L496.063,467.715 L524.409,467.715 z" fill="#FF0000"/>
        <path d="M496.063,439.369 L467.717,439.369 L467.717,467.715 L496.063,467.715 z" fill="#808080"/>
        <path d="M467.717,439.369 L439.37,439.369 L439.37,467.715 L467.717,467.715 z" fill="#FF0000"/>
        <path d="M439.37,439.369 L411.024,439.369 L411.024,467.715 L439.37,467.715 z" fill="#808080"/>
        <path d="M411.024,439.369 L382.677,439.369 L382.677,467.715 L411.024,467.715 z" fill="#FF0000"/>
        <path d="M382.677,439.369 L354.331,439.369 L354.331,467.715 L382.677,467.715 z" fill="#808080"/>
        <path d="M354.331,439.369 L325.984,439.369 L325.984,467.715 L354.331,467.715 z" fill="#FF0000"/>
        <path d="M325.984,439.369 L297.638,439.369 L297.638,467.715 L325.984,467.715 z" fill="#808080"/>
        <path d="M297.638,439.369 L269.291,439.369 L269.291,467.715 L297.638,467.715 z" fill="#FF0000"/>
        <path d="M269.291,439.369 L240.945,439.369 L240.945,467.715 L269.291,467.715 z" fill="#808080"/>
        <path d="M240.945,439.369 L212.598,439.369 L212.598,467.715 L240.945,467.715 z" fill="#FF0000"/>
        <path d="M212.598,439.369 L184.252,439.369 L184.252,467.715 L212.598,467.715 z" fill="#808080"/>
        <path d="M184.252,439.369 L155.906,439.369 L155.906,467.715 L184.252,467.715 z" fill="#FF0000"/>
        <path d="M155.906,439.369 L127.559,439.369 L127.559,467.715 L155.906,467.715 z" fill="#808080"/>
        <path d="M127.559,439.369 L99.213,439.369 L99.213,467.715 L127.559,467.715 z" fill="#FF0000"/>
        <path d="M99.213,439.369 L70.866,439.369 L70.866,467.715 L99.213,467.715 z" fill="#808080"/>
      </g>
    </g>
  </g>
  <g id="Layer_10"/>
  <g id="Layer_11" display="none">
    <path d="M595.273,0 L595.273,595.276 L-0.003,595.276 L-0.003,0 L595.273,0 z M297.638,70.866 C172.392,70.866 70.863,172.395 70.863,297.638 C70.863,422.88 172.392,524.409 297.638,524.409 C422.877,524.409 524.407,422.88 524.406,297.638 C524.407,172.395 422.877,70.866 297.638,70.866 z" fill="#FFFFFF"/>
  </g>
  <g id="Layer_11_Copy" display="none">
    <path d="M595.273,0 L595.273,595.276 L-0.003,595.276 L-0.003,0 L595.273,0 z M297.638,70.866 C172.392,70.866 70.863,172.395 70.863,297.638 C70.863,422.88 172.392,524.409 297.638,524.409 C422.877,524.409 524.407,422.88 524.406,297.638 C524.407,172.395 422.877,70.866 297.638,70.866 z" fill="#000000"/>
  </g>
  <g id="Layer_5_Copy" display="none">
    <path d="M663.832,-68.556 L663.832,663.832 L-68.556,663.832 L-68.556,-68.556 L663.832,-68.556 z M524.409,70.866 L70.866,70.866 L70.866,524.409 L524.409,524.409 L524.409,70.866 z" fill="#000000"/>
  </g>
  <g id="Layer_5_Copy_Copy" display="none">
    <path d="M663.832,-68.556 L663.832,663.832 L-68.556,663.832 L-68.556,-68.556 L663.832,-68.556 z M524.409,70.866 L70.866,70.866 L70.866,524.409 L524.409,524.409 L524.409,70.866 z" fill="#FFFFFF"/>
  </g>
  <g id="Layer_7_Copy" display="none">
    <g>
      <path d="M492.241,545.669 C488.327,545.669 485.155,542.497 485.155,538.583 C485.155,534.669 488.327,531.496 492.241,531.496 C496.155,531.496 499.328,534.669 499.328,538.583 C499.328,542.497 496.155,545.669 492.241,545.669 z" fill="#ED003E"/>
      <path d="M508.043,545.669 L516.227,531.496 L524.409,545.669 z" fill="#0000FF"/>
      <path d="M508.043,531.496 L508.043,545.669 L504.785,545.669 L504.785,531.496 z" fill="#00FD00"/>
      <path d="M502.587,531.496 L502.587,545.669 L499.328,545.669 L499.328,531.496 z" fill="#00FD00"/>
    </g>
  </g>
  <g id="Layer_11">
    <path d="M297.638,6.498 C399.397,6.498 481.89,88.991 481.89,190.75 C481.691,204.566 480.58,219.1 477.13,232.522 C548.636,258.772 594.321,329.119 595.276,404.526 C595.276,506.285 512.783,588.778 411.024,588.778 C368.941,588.881 331.088,574.771 297.638,549.755 C265.2,575.232 225.316,588.258 184.252,588.778 C82.492,588.778 0,506.285 0,404.526 C0.778,328.11 47.205,260.196 118.416,232.428 L118.145,232.522 C114.817,218.85 113.564,204.786 113.386,190.75 C113.386,88.991 195.878,6.498 297.638,6.498 L297.638,6.498 z" fill="#FFFFFF"/>
    <path d="M368.499,404.299 L368.504,404.525 L368.468,405.884 L368.499,404.299 z" fill="#FF00FF"/>
    <path d="M476.413,234.044 C461.796,292.05 420.04,341.457 363.744,362.754 C366.717,376.023 368.423,389.538 368.473,403.154 C367.99,389.453 366.788,375.718 363.372,362.399 L363.315,362.418 L361.518,355.329 C362.751,359.781 362.142,357.441 363.322,362.353 C419.546,341.253 461.752,292.139 476.413,234.044 z" fill="#FF00FF"/>
    <path d="M220.688,357.854 C228.316,361.198 224.615,359.701 231.77,362.395 C230.052,370.71 228.262,379.047 227.614,387.53 C228.225,379.182 229.46,370.869 231.531,362.754 C224.389,359.715 228.006,361.342 220.688,357.854 z" fill="#FF00FF"/>
    <path d="M356.994,341.184 C358.735,345.795 360.28,350.482 361.498,355.259 L356.994,341.184 z" fill="#FF00FF"/>
    <path d="M352.457,330.024 C355.519,337.154 354.33,334.131 356.18,339.029 L352.457,330.024 z" fill="#FF00FF"/>
    <path d="M118.751,232.792 C128.619,266.653 145.53,299.318 171.181,323.984 C144.712,300.184 126.936,267.146 118.751,232.792 z" fill="#FF00FF"/>
    <path d="M311.152,249.777 C306.6,252.825 302.04,255.885 297.821,259.389 L297.811,259.381 L297.957,259.266 L297.819,259.158 C302.141,255.864 306.471,252.553 311.152,249.777 z" fill="#FF00FF"/>
    <path d="M318.113,245.479 L314.483,247.649 C317.102,245.976 315.881,246.681 318.113,245.479 z" fill="#FF00FF"/>
    <path d="M410.13,220.302 C381.383,221.722 352.457,227.276 326.78,240.815 C352.237,227.113 381.421,221.065 410.13,220.302 z" fill="#FF00FF"/>
    <path d="M118.935,232.253 L118.648,232.362 L118.645,232.349 L118.935,232.253 z" fill="#FF00FF"/>
    <path d="M155.827,222.538 L154.686,222.73 C155.309,222.601 154.929,222.672 155.827,222.538 z" fill="#FF00FF"/>
    <path d="M436.112,222.064 C436.448,222.095 436.241,222.071 436.731,222.153 L436.112,222.064 z" fill="#FF00FF"/>
    <path d="M175.697,220.441 L160.644,221.82 C165.63,221.077 170.652,220.53 175.697,220.441 z" fill="#FF00FF"/>
    <path d="M180.04,220.261 L180.279,220.262 L179.212,220.296 L180.04,220.261 z" fill="#FF00FF"/>
    <path d="M411.024,220.273 L411.057,220.275 L410.996,220.274 L411.024,220.273 z" fill="#FF00FF"/>
  </g>
  <g id="Layer_7">
    <path d="M476.825,232.41 C548.636,258.771 594.321,329.119 595.276,404.525 C595.276,506.285 512.783,588.778 411.024,588.778 C368.941,588.881 331.088,574.77 297.638,549.755 C342.805,515.774 367.797,460.336 368.504,404.525 C368.326,390.489 367.073,376.426 363.744,362.754 C420.559,341.481 462.97,291.188 476.825,232.41 z" fill="#00FFFF"/>
    <path d="M118.643,232.34 C132.366,292.442 174.355,340.371 231.531,362.754 C228.081,376.176 226.971,390.709 226.772,404.526 C227.051,460.076 252.671,516.125 297.638,549.755 C265.2,575.232 225.316,588.258 184.252,588.777 C82.492,588.778 -0,506.285 -0,404.526 C-0.008,329.621 47.782,258.282 118.643,232.34 z" fill="#FFFF00"/>
    <path d="M297.638,6.498 C399.397,6.498 481.89,88.99 481.89,190.75 C481.691,204.566 480.58,219.099 477.13,232.522 C456.063,224.205 433.596,220.559 411.024,220.274 C369.959,220.793 330.075,233.82 297.638,259.296 C264.188,234.281 226.334,220.17 184.252,220.274 C161.573,220.033 139.349,224.758 118.145,232.522 C114.817,218.85 113.563,204.786 113.386,190.75 C113.386,88.99 195.878,6.498 297.638,6.498 z" fill="#FF00FF"/>
    <path d="M231.778,362.353 C252.77,370.617 275.156,374.226 297.638,374.511 C320.171,374.725 342.294,370.116 363.372,362.399 C366.807,376.012 368.136,390.033 368.504,404.034 C368.223,459.579 342.607,515.64 297.638,549.264 C252.471,515.28 227.478,459.848 226.772,404.034 C226.768,389.984 228.617,376.022 231.778,362.353 z" fill="#00FF00"/>
    <path d="M410.704,220.274 C433.383,220.033 455.607,224.759 476.811,232.522 C462.592,290.428 420.291,342.121 363.322,362.353 C353.934,321.186 329.916,286.155 297.638,259.535 C329.868,233.536 369.779,221.627 410.704,220.274 z" fill="#0000FF"/>
    <path d="M184.735,220.121 C225.576,220.561 265.95,233.607 297.957,259.266 C264.227,285.672 242.642,321.289 232.041,362.497 C173.87,341.775 134.754,290.385 118.628,232.369 C139.696,224.053 162.162,220.406 184.735,220.121 z" fill="#FF0000"/>
    <path d="M297.701,259.296 C331.241,284.69 353.976,322.099 363.434,362.89 C342.482,371.127 320.136,374.718 297.701,375.002 C275.118,375.225 252.962,370.577 231.841,362.844 C240.98,321.784 264.493,284.983 297.701,259.296 z" fill="#FFFFFF"/>
  </g>
</svg>
