<?xml version="1.0" standalone="no"?>
<!DOCTYPE svg PUBLIC "-//W3C//DTD SVG 1.1//EN" "http://www.w3.org/Graphics/SVG/1.1/DTD/svg11.dtd" >
<svg xmlns="http://www.w3.org/2000/svg">
<metadata></metadata>
<defs>
<font id="knilelight_italic" horiz-adv-x="1153" >
<font-face units-per-em="2048" ascent="1536" descent="-512" />
<missing-glyph horiz-adv-x="518" />
<glyph unicode=" "  horiz-adv-x="518" />
<glyph unicode="&#x09;" horiz-adv-x="518" />
<glyph unicode="&#xa0;" horiz-adv-x="518" />
<glyph unicode="!" horiz-adv-x="524" d="M94 72q0 37 26 63.5t64 26.5q37 0 63.5 -26.5t26.5 -63.5q0 -38 -26.5 -65t-63.5 -27q-38 0 -64 27t-26 65zM188 354l183 1131h114l-211 -1131h-86z" />
<glyph unicode="&#x22;" horiz-adv-x="587" d="M223 1065l60 416h102l-84 -416h-78zM483 1065l60 416h102l-84 -416h-78z" />
<glyph unicode="#" horiz-adv-x="1210" d="M35 414l2 78h262l168 440h-231v78h262l161 424h91l-162 -424h334l159 424h90l-159 -424h233l-2 -78h-262l-168 -440h236l-2 -78h-263l-159 -414h-90l159 414h-334l-159 -414h-90l159 414h-235zM389 492h334l168 440h-334z" />
<glyph unicode="$" horiz-adv-x="1073" d="M70 59l61 344h96l-47 -270q141 -65 297 -65q138 0 234 96.5t96 234.5q0 63 -30 117t-78 93.5t-106.5 76t-116.5 75t-106 81t-78 102t-30 129.5q0 166 115.5 275.5t286.5 109.5l32 187h86l-34 -191q151 -18 286 -76l-55 -317h-96l43 246q-123 63 -267 63 q-125 0 -208.5 -81t-83.5 -204q0 -59 30 -109.5t78.5 -87.5t106.5 -73t116 -74.5t106.5 -81.5t78.5 -105t30 -136q0 -183 -119.5 -308t-299.5 -133l-37 -204h-86l37 207q-175 11 -338 79z" />
<glyph unicode="%" horiz-adv-x="1427" d="M49 0l1262 1434h119l-1262 -1434h-119zM217 1077q0 157 83 265t220 108q94 0 153.5 -65t59.5 -164q0 -157 -84.5 -268t-220.5 -111q-95 0 -153 66t-58 169zM309 1081q0 -159 127 -159q93 0 149 89t56 206q0 71 -32.5 112t-96.5 41q-65 0 -112 -42.5t-69 -107t-22 -139.5z M766 217q0 157 83 265t220 108q94 0 153.5 -65.5t59.5 -164.5q0 -157 -84.5 -267.5t-220.5 -110.5q-95 0 -153 66t-58 169zM858 221q0 -160 127 -160q93 0 149 89t56 206q0 71 -32.5 112.5t-96.5 41.5q-65 0 -112 -42.5t-69 -107t-22 -139.5z" />
<glyph unicode="&#x26;" horiz-adv-x="1380" d="M90 350q0 149 105 270t272 191q-123 184 -123 309q0 148 105 243t266 95q175 0 332 -94l-54 -299h-96l41 235q-101 66 -227 66q-109 0 -184.5 -69t-75.5 -171q0 -121 120 -292l355 -492q103 159 129 340h256l-15 -84h-157q-46 -185 -156 -336l129 -178h188l-14 -84h-235 l-131 184q-194 -207 -445 -207q-170 0 -277.5 109.5t-107.5 263.5zM199 358q0 -121 78 -202.5t208 -81.5q105 0 203 49t176 137l-348 483q-143 -63 -230 -164t-87 -221z" />
<glyph unicode="'" horiz-adv-x="323" d="M170 1143q102 99 102 205q0 40 -28 98l127 59q32 -58 32 -112q0 -139 -196 -291z" />
<glyph unicode="(" horiz-adv-x="530" d="M113 424q0 301 139.5 591t384.5 531l57 -53q-220 -238 -347.5 -512.5t-127.5 -554.5q0 -320 170 -645l-65 -45q-99 155 -155 332t-56 356z" />
<glyph unicode=")" horiz-adv-x="530" d="M-121 -219q220 238 347.5 512.5t127.5 554.5q0 320 -170 645l66 45q99 -155 155 -332t56 -356q0 -301 -139.5 -591t-384.5 -531z" />
<glyph unicode="*" horiz-adv-x="772" d="M158 1012l274 135l-221 137l49 64l211 -154l45 287h80l-59 -285l262 152l35 -70l-273 -139l221 -135l-49 -64l-211 154l-45 -287h-80l58 283l-260 -150z" />
<glyph unicode="+" horiz-adv-x="1140" d="M127 596v86h420v446h92v-446h418v-86h-418v-449h-92v449h-420z" />
<glyph unicode="," horiz-adv-x="428" d="M-18 -178q102 99 102 205q0 38 -29 98l127 59q33 -60 33 -112q0 -139 -197 -291z" />
<glyph unicode="-" horiz-adv-x="684" d="M94 559l17 96h512l-17 -96h-512z" />
<glyph unicode="." horiz-adv-x="462" d="M57 78q0 38 30 67t69 29q38 0 68 -29t30 -67t-30 -68t-68 -30t-68.5 30t-30.5 68z" />
<glyph unicode="/" horiz-adv-x="718" d="M-135 -221l932 1757h102l-932 -1757h-102z" />
<glyph unicode="0" horiz-adv-x="1214" d="M160 420q0 150 22 295t69.5 279.5t116 235.5t169 161.5t221.5 60.5q173 0 269.5 -121t96.5 -321q0 -150 -22 -294.5t-69.5 -278.5t-116 -235t-169 -161.5t-221.5 -60.5q-171 0 -268.5 120.5t-97.5 319.5zM270 426q0 -162 68.5 -256t198.5 -94q92 0 171 55t134.5 147 t94.5 213t58 253t19 266q0 161 -68 253.5t-198 92.5q-114 0 -207.5 -83t-151 -218t-88.5 -297.5t-31 -331.5z" />
<glyph unicode="1" horiz-adv-x="731" d="M39 0l14 84h221l218 1235l-287 -225l-55 69l358 271h106l-237 -1350h198l-14 -84h-522z" />
<glyph unicode="2" horiz-adv-x="1013" d="M-2 0l8 53q18 107 76.5 206.5t136.5 175.5t168 148t177 137t157.5 128t114 135.5t43.5 146.5q0 97 -66 163.5t-176 66.5q-116 0 -210 -81t-146 -200l-93 45q66 149 185.5 240.5t269.5 91.5q151 0 248.5 -92t97.5 -225q0 -86 -43 -168.5t-113 -151t-156 -135 t-175.5 -134.5t-166.5 -136.5t-134.5 -153t-75.5 -172.5h604l49 272h96l-63 -360h-813z" />
<glyph unicode="3" horiz-adv-x="993" d="M-12 293l98 35q26 -111 103 -183.5t188 -72.5q157 0 269 110.5t112 276.5q0 123 -93.5 201.5t-246.5 78.5h-47l16 88q115 14 210.5 57t155.5 115t60 160t-62 147.5t-159 59.5q-98 0 -180.5 -55t-135.5 -142l-90 48q67 110 174 175.5t236 65.5q138 0 230 -83t92 -214 q0 -105 -59.5 -187t-152 -126.5t-204.5 -54.5q165 -3 265.5 -96t100.5 -236q0 -135 -66 -246.5t-180 -175.5t-249 -64q-147 0 -250 89t-135 229z" />
<glyph unicode="4" horiz-adv-x="1075" d="M31 444l12 72l811 922h102l-161 -910h192l-14 -84h-193l-63 -360h192l-14 -84h-514l14 84h221l64 360h-649zM166 528h528l135 764z" />
<glyph unicode="5" horiz-adv-x="1062" d="M49 276l94 39q27 -107 103 -175t194 -68q112 0 204 58t143 156t51 214q0 135 -78 219t-209 84q-77 0 -150 -31t-125 -76l-75 29l170 709h653l-49 -281h-96l32 193h-462l-138 -541q129 94 271 94q154 0 260 -115.5t106 -279.5q0 -144 -65.5 -265t-183 -192.5t-261.5 -71.5 q-155 0 -255 82.5t-134 218.5z" />
<glyph unicode="6" horiz-adv-x="1138" d="M156 410q0 149 25.5 296.5t79.5 283t130 239t185 165.5t237 62q166 0 301 -92l-55 -86q-49 36 -119 59t-141 23q-185 0 -324 -187.5t-192 -504.5q56 109 157 175t230 66q151 0 251.5 -107.5t102.5 -264.5q1 -151 -61 -278.5t-179.5 -205.5t-265.5 -78q-170 0 -266 115 t-96 320zM258 397q0 -86 29.5 -158.5t90 -119.5t142.5 -47q117 0 208 64.5t138 168t47 225.5t-73 204.5t-189 82.5q-161 0 -277 -123.5t-116 -296.5z" />
<glyph unicode="7" horiz-adv-x="921" d="M145 1104l60 330h852l-15 -88q-586 -611 -749 -1346h-111q92 386 280 727t462 619h-639l-43 -242h-97z" />
<glyph unicode="8" horiz-adv-x="1165" d="M113 326q0 161 101.5 280.5t258.5 163.5q-76 26 -131 100.5t-55 169.5q0 178 129.5 298t316.5 120q147 0 241.5 -88t94.5 -223q0 -134 -86 -238t-215 -145q99 -24 169.5 -103t70.5 -194q0 -211 -146.5 -354.5t-367.5 -143.5q-173 0 -277 102t-104 255zM221 334 q0 -119 74 -195t209 -76q112 0 203 55.5t141.5 147t50.5 197.5q0 116 -78 184t-209 68q-165 0 -278 -113t-113 -268zM391 1042q0 -102 64 -167.5t176 -65.5q134 0 234 102t100 232q0 100 -64.5 162.5t-177.5 62.5q-140 0 -236 -95t-96 -231z" />
<glyph unicode="9" horiz-adv-x="1114" d="M90 72l55 88q45 -38 113 -62t143 -24q124 0 232 97t178.5 261t93.5 365q-52 -108 -151 -176t-226 -68q-148 0 -244 106t-96 259q0 145 62 267.5t176.5 196.5t257.5 74q158 0 253 -107t95 -286q0 -133 -18.5 -263.5t-53.5 -252t-90 -225t-123.5 -180.5t-158.5 -121 t-191 -44q-91 0 -172.5 26t-134.5 69zM299 924q0 -119 67 -199t185 -80q105 0 193.5 62t137 159t48.5 203q0 125 -71.5 208t-184.5 83q-107 0 -194 -61.5t-134 -160.5t-47 -214z" />
<glyph unicode=":" horiz-adv-x="473" d="M57 78q0 38 30 67t69 29q38 0 68 -29t30 -67t-30 -68t-68 -30t-68.5 30t-30.5 68zM213 911q0 38 30 67.5t68 29.5t68.5 -29.5t30.5 -67.5t-30.5 -68t-68.5 -30t-68 30t-30 68z" />
<glyph unicode=";" horiz-adv-x="460" d="M-18 -178q102 99 102 205q0 38 -29 98l127 59q33 -60 33 -112q0 -139 -197 -291zM201 911q0 38 30 67.5t68 29.5t68 -29.5t30 -67.5t-30 -68t-68 -30t-68 30t-30 68z" />
<glyph unicode="&#x3c;" horiz-adv-x="1103" d="M139 600v82l819 377v-96l-712 -320l712 -324v-96z" />
<glyph unicode="=" horiz-adv-x="1232" d="M172 410v86h930v-86h-930zM172 762v88h930v-88h-930z" />
<glyph unicode="&#x3e;" horiz-adv-x="1105" d="M190 223v96l713 320l-713 324v96l820 -377v-82z" />
<glyph unicode="?" horiz-adv-x="798" d="M117 1233q60 116 159.5 186t237.5 70q148 0 243 -93.5t95 -228.5q0 -70 -25 -133.5t-66 -113.5t-91 -96.5t-102 -90t-96.5 -86.5t-76.5 -94t-41 -104l-16 -101h-98l20 117q11 62 43.5 119.5t75.5 102t93 88.5t97.5 86.5t86.5 87t63 99.5t24 115q0 100 -66.5 167 t-172.5 67q-97 0 -174.5 -60.5t-126.5 -148.5zM170 72q0 37 26 63.5t64 26.5q37 0 63.5 -26.5t26.5 -63.5q0 -38 -26.5 -65t-63.5 -27q-38 0 -64 27t-26 65z" />
<glyph unicode="@" horiz-adv-x="1873" d="M143 389q0 198 73.5 378.5t198 312.5t299.5 210t369 78q153 0 280 -50t211.5 -136.5t130.5 -201t46 -243.5q0 -104 -29 -209t-79.5 -190.5t-127 -139t-163.5 -53.5q-91 0 -139 48t-48 129q-47 -81 -125 -129t-182 -48q-123 0 -203 89t-80 223q0 125 52.5 230t146 166.5 t205.5 61.5q93 0 156.5 -44.5t85.5 -118.5l26 147h88l-88 -500q-6 -27 -6 -51q0 -57 30 -89t89 -32q85 0 154.5 81t104 195.5t34.5 229.5q0 242 -156.5 395.5t-421.5 153.5q-224 0 -417 -122.5t-304.5 -326.5t-111.5 -436q0 -262 154.5 -426t410.5 -164q198 0 387 107 l45 -74q-90 -56 -206.5 -87.5t-235.5 -31.5q-190 0 -339.5 85.5t-232 238t-82.5 344.5zM674 467q0 -109 53.5 -173.5t151.5 -64.5q87 0 160.5 54.5t114 140.5t40.5 180q0 105 -58 166t-157 61q-129 0 -217 -109t-88 -255z" />
<glyph unicode="A" horiz-adv-x="1374" d="M-86 0l14 84h152l719 1354h106l238 -1354h151l-14 -84h-453l15 84h194l-71 420h-557l-222 -420h193l-14 -84h-451zM453 592h495l-117 735z" />
<glyph unicode="B" horiz-adv-x="1247" d="M27 0l14 84h176l223 1266h-176l15 84h514q144 0 239.5 -81t95.5 -210q0 -131 -78 -235t-204 -146q104 -23 175 -100t71 -191q0 -202 -139 -336.5t-353 -134.5h-573zM322 84h266q165 0 279 110t114 267q0 118 -81 187t-206 69h-260zM449 801h245q134 0 230 101.5t96 230.5 q0 99 -69.5 158t-180.5 59h-225z" />
<glyph unicode="C" horiz-adv-x="1378" d="M158 578q0 178 62 341t165.5 281.5t244.5 189t294 70.5q246 0 462 -114l-61 -345h-96l49 277q-156 86 -358 86q-174 0 -324.5 -108t-238 -286.5t-87.5 -379.5q0 -148 48 -264t148 -186t239 -70q136 0 259.5 78.5t204.5 209.5l82 -53q-91 -154 -239.5 -243t-315.5 -89 q-165 0 -289 83t-186.5 219t-62.5 303z" />
<glyph unicode="D" horiz-adv-x="1447" d="M27 0l14 84h176l223 1266h-176l15 84h505q252 0 413 -151.5t161 -401.5q0 -182 -58 -343t-161.5 -280t-256 -188.5t-331.5 -69.5h-524zM322 84h219q202 0 364.5 109t251 290t88.5 394q0 217 -137.5 345t-359.5 128h-203z" />
<glyph unicode="E" d="M27 0l14 84h176l223 1266h-176l15 84h880l-57 -334h-96l43 250h-504l-99 -555h474l-17 -93h-473l-108 -618h514l49 274h96l-63 -358h-891z" />
<glyph unicode="F" horiz-adv-x="1107" d="M23 0l14 84h176l223 1266h-176l14 84h900l-60 -334h-96l43 250h-520l-105 -588h488l-15 -92h-487l-105 -586h215l-14 -84h-495z" />
<glyph unicode="G" horiz-adv-x="1495" d="M160 588q0 237 106 438t287.5 317.5t396.5 116.5q255 0 498 -114l-55 -314h-97l43 244q-184 88 -393 88q-140 0 -265.5 -63t-214.5 -167.5t-141.5 -245t-52.5 -290.5q0 -149 49.5 -268t145.5 -189.5t223 -70.5q193 0 347.5 137.5t209.5 367.5h-352l16 93h447l-119 -668 h-90l53 297q-88 -153 -224 -238.5t-294 -85.5q-155 0 -275.5 83t-184.5 222.5t-64 309.5z" />
<glyph unicode="H" horiz-adv-x="1593" d="M27 0l14 84h176l223 1266h-176l15 84h456l-14 -84h-176l-101 -572h799l100 572h-176l15 84h456l-14 -84h-176l-223 -1266h176l-15 -84h-456l14 84h176l107 602h-799l-106 -602h176l-15 -84h-456z" />
<glyph unicode="I" horiz-adv-x="690" d="M27 0l14 84h176l223 1266h-176l15 84h456l-14 -84h-176l-223 -1266h176l-15 -84h-456z" />
<glyph unicode="J" horiz-adv-x="671" d="M-162 -199l27 90q62 -32 127 -32q89 0 157 63t87 166l223 1262h-215l14 84h492l-15 -84h-172l-223 -1268q-27 -150 -123.5 -232.5t-226.5 -82.5q-86 0 -152 34z" />
<glyph unicode="K" horiz-adv-x="1320" d="M27 0l14 84h176l223 1266h-176l15 84h436l-15 -84h-155l-105 -594l707 594h-176l14 84h465l-14 -84h-164l-723 -611l516 -655h178l-14 -84h-469l14 84h164l-504 639l-112 -639h161l-14 -84h-442z" />
<glyph unicode="L" horiz-adv-x="1097" d="M27 0l14 84h176l223 1266h-176l15 84h466l-14 -84h-186l-223 -1266h518l53 301h96l-67 -385h-895z" />
<glyph unicode="M" horiz-adv-x="1912" d="M27 0l14 84h176l223 1266h-176l15 84h317l319 -1143l723 1143h320l-14 -84h-177l-223 -1266h176l-14 -84h-455l15 84h176l217 1223l-719 -1141h-94l-316 1141l-217 -1223h176l-14 -84h-448z" />
<glyph unicode="N" horiz-adv-x="1574" d="M27 0l14 84h176l223 1266h-176l15 84h280l596 -1274l209 1190h-176l14 84h449l-15 -84h-176l-237 -1350h-107l-592 1276l-211 -1192h176l-14 -84h-448z" />
<glyph unicode="O" horiz-adv-x="1572" d="M156 571q0 140 39 274t110.5 244t167 193.5t215.5 129.5t248 46q248 0 401.5 -162t153.5 -415q0 -174 -61.5 -339.5t-165 -290.5t-250 -201.5t-305.5 -76.5q-165 0 -291.5 78t-194 213.5t-67.5 306.5zM268 582q0 -148 52 -263.5t154.5 -182t240.5 -66.5q110 0 212.5 44.5 t183 122.5t141.5 178.5t93.5 217.5t32.5 235q0 223 -119.5 358.5t-330.5 135.5q-110 0 -212.5 -42t-182.5 -117t-140.5 -172t-92.5 -213t-32 -236z" />
<glyph unicode="P" horiz-adv-x="1159" d="M27 0l14 84h176l223 1266h-176l15 84h524q156 0 257 -89t101 -235q0 -214 -139.5 -354t-355.5 -140h-250l-94 -532h213l-15 -84h-493zM430 700h242q157 0 267 120t110 282q0 115 -74.5 181.5t-196.5 66.5h-233z" />
<glyph unicode="Q" horiz-adv-x="1581" d="M156 571q0 140 39 274t110.5 244t167 193.5t215.5 129.5t248 46q248 0 401.5 -162t153.5 -415q0 -172 -60.5 -337t-163 -289.5t-246.5 -202t-302 -79.5l-96 -137q126 -65 262 -65q107 0 206.5 48t178.5 132l59 -74q-88 -96 -201.5 -148.5t-234.5 -52.5q-174 0 -313 99 q-36 -49 -82 -49q-28 0 -50 22t-22 53q0 34 24 57t56 23q23 0 43 -10l76 109q-214 29 -341.5 192t-127.5 399zM268 582q0 -148 52 -263.5t154.5 -182t240.5 -66.5q110 0 212.5 44.5t183 122.5t141.5 178.5t93.5 217.5t32.5 235q0 223 -119.5 358.5t-330.5 135.5 q-110 0 -212.5 -42t-182.5 -117t-140.5 -172t-92.5 -213t-32 -236z" />
<glyph unicode="R" horiz-adv-x="1255" d="M27 0l14 84h176l223 1266h-176l15 84h526q151 0 248.5 -86.5t97.5 -225.5q0 -173 -118 -300.5t-298 -157.5l258 -580h185l-15 -84h-252l-276 649h-213l-100 -565h182l-15 -84h-462zM436 733h209q161 0 278 113.5t117 267.5q0 110 -72 173t-188 63h-235z" />
<glyph unicode="S" horiz-adv-x="1048" d="M47 57l59 346h97l-47 -268q144 -67 301 -67q143 0 242.5 98.5t99.5 239.5q0 64 -30.5 118t-79.5 93t-107.5 75.5t-117.5 74.5t-108 80t-79.5 102t-30.5 132q0 167 116 273t289 106q185 0 381 -80l-55 -319h-96l43 246q-132 61 -275 61q-128 0 -213.5 -77t-85.5 -197 q0 -59 30.5 -109t79.5 -87.5t107.5 -73t117.5 -74t108 -82.5t79.5 -107t30.5 -139q0 -193 -128.5 -320t-319.5 -127q-198 0 -408 82z" />
<glyph unicode="T" horiz-adv-x="1173" d="M145 1053l68 381h1071l-67 -381h-97l54 297h-388l-223 -1266h195l-15 -84h-493l14 84h195l223 1266h-387l-53 -297h-97z" />
<glyph unicode="U" horiz-adv-x="1486" d="M223 1350l15 84h464l-14 -84h-184l-152 -861q-10 -55 -10 -98q0 -141 88 -231t246 -90q173 0 293.5 112t150.5 287l158 881h-184l14 84h465l-14 -84h-177l-157 -885q-40 -222 -183 -357t-368 -135q-198 0 -318 114.5t-120 287.5q0 59 12 121l151 854h-176z" />
<glyph unicode="V" horiz-adv-x="1363" d="M152 1350l14 84h479l-14 -84h-211l190 -1229l627 1229h-211l14 84h482l-15 -84h-164l-698 -1354h-113l-217 1354h-163z" />
<glyph unicode="W" horiz-adv-x="2056" d="M152 1350l14 84h493l-14 -84h-223l110 -1244l601 1328h118l129 -1323l551 1239h-223l14 84h492l-14 -84h-166l-617 -1356h-123l-131 1294l-594 -1294h-123l-129 1356h-165z" />
<glyph unicode="X" horiz-adv-x="1255" d="M-90 0l14 84h164l524 659l-270 607h-156l15 84h438l-14 -84h-174l235 -531l424 531h-174l14 84h439l-15 -84h-155l-496 -615l291 -651h166l-15 -84h-460l14 84h186l-254 573l-454 -573h186l-14 -84h-459z" />
<glyph unicode="Y" horiz-adv-x="1253" d="M147 1350l15 84h446l-14 -84h-180l243 -633l473 633h-180l15 84h450l-14 -84h-160l-547 -725l-96 -541h193l-15 -84h-489l14 84h193l96 543l-283 723h-160z" />
<glyph unicode="Z" horiz-adv-x="1155" d="M16 0l13 74l1024 1276h-662l-49 -291h-96l65 375h885l-12 -74l-1020 -1276h710l56 315h96l-70 -399h-940z" />
<glyph unicode="[" horiz-adv-x="548" d="M63 -266l320 1802h279l-15 -84h-180l-289 -1634h180l-14 -84h-281z" />
<glyph unicode="\" horiz-adv-x="714" d="M193 1536h94l311 -1757h-94z" />
<glyph unicode="]" horiz-adv-x="548" d="M-70 -266l15 84h180l289 1634h-181l15 84h280l-319 -1802h-279z" />
<glyph unicode="^" horiz-adv-x="960" d="M94 651l506 783h84l231 -783h-92l-194 678l-434 -678h-101z" />
<glyph unicode="_" horiz-adv-x="1175" d="M-63 -170l14 84h1061l-15 -84h-1060z" />
<glyph unicode="`" horiz-adv-x="468" d="M270 1479h111l94 -277h-88z" />
<glyph unicode="a" horiz-adv-x="1284" d="M121 410q0 174 71.5 323.5t194.5 237.5t268 88q136 0 222.5 -71t113.5 -189l41 231h98l-167 -946h176l-15 -84h-274l43 240q-64 -120 -171.5 -193.5t-246.5 -73.5q-152 0 -253 126t-101 311zM225 420q0 -156 74.5 -255t198.5 -99q120 0 227.5 81.5t170 211t62.5 268.5 q0 151 -85.5 245.5t-219.5 94.5q-112 0 -211.5 -76.5t-158 -203t-58.5 -267.5z" />
<glyph unicode="b" horiz-adv-x="1275" d="M139 0l246 1397h-176l14 84h275l-119 -680q65 115 171 186.5t243 71.5q106 0 190 -59t129 -158t45 -219q0 -172 -71 -321t-197 -239t-277 -90q-131 0 -216.5 74t-114.5 195l-43 -242h-99zM313 412q0 -151 83.5 -248.5t217.5 -97.5q119 0 221.5 79t160 205.5t57.5 267.5 q0 154 -78 252q-77 97 -206 97h-3q-118 -1 -223.5 -80.5t-167.5 -207.5t-62 -267z" />
<glyph unicode="c" horiz-adv-x="1091" d="M123 422q0 128 43.5 246t116.5 203.5t173.5 136.5t209.5 51q186 0 354 -101l-47 -266h-90l35 203q-118 72 -256 72q-112 0 -213 -74.5t-161.5 -199t-60.5 -263.5q0 -160 80 -262t209 -102q97 0 188.5 59t157.5 154l72 -58q-71 -115 -183.5 -181.5t-242.5 -66.5 q-171 0 -278 128t-107 321z" />
<glyph unicode="d" horiz-adv-x="1282" d="M121 410q0 174 71.5 323.5t194.5 237.5t268 88q136 0 222.5 -71t113.5 -189l105 598h-176l14 84h274l-245 -1397h176l-15 -84h-274l43 240q-64 -120 -171.5 -193.5t-246.5 -73.5q-152 0 -253 126t-101 311zM225 420q0 -156 74.5 -255t198.5 -99q120 0 227.5 81.5t170 211 t62.5 268.5q0 151 -85.5 245.5t-219.5 94.5q-112 0 -211.5 -76.5t-158 -203t-58.5 -267.5z" />
<glyph unicode="e" horiz-adv-x="1157" d="M123 434q0 166 75.5 310.5t203.5 229.5t276 85q167 0 270 -110t103 -267q0 -68 -23 -162h-795q-6 -40 -6 -82q0 -160 82.5 -265t218.5 -105q102 0 204.5 53.5t174.5 140.5l64 -63q-80 -102 -199.5 -163t-249.5 -61q-180 0 -289.5 129.5t-109.5 329.5zM250 604h688 q8 31 8 82q0 120 -77 202q-76 81 -194 81h-3q-143 0 -259 -103t-163 -262z" />
<glyph unicode="f" horiz-adv-x="692" d="M-158 -373l21 84q35 -14 88 -14q77 0 135.5 60t77.5 161l182 1028h-184l14 84h184l31 172q25 134 110.5 210.5t213.5 76.5q77 0 151 -29l-20 -84q-67 27 -129 27q-88 0 -151.5 -57.5t-78.5 -147.5l-28 -168h258l-15 -84h-258l-184 -1036q-25 -141 -106 -220t-203 -79 q-63 0 -109 16z" />
<glyph unicode="g" horiz-adv-x="1236" d="M76 -262l57 69q51 -51 128 -81.5t165 -30.5q97 0 187 38.5t158.5 118.5t88.5 187l37 205q-63 -120 -170 -191t-248 -71q-153 0 -253.5 126t-100.5 310q0 172 71 320t193.5 234.5t267.5 86.5q136 0 222.5 -71t113.5 -189l41 231h99l-175 -987q-19 -111 -71.5 -196.5 t-127.5 -136.5t-163 -76t-186 -25q-96 0 -185 35.5t-149 93.5zM229 428q0 -156 74.5 -255t198.5 -99q120 0 227.5 80.5t169.5 208t62 264.5q0 151 -86 245.5t-220 94.5q-84 0 -163 -44.5t-136.5 -118.5t-92 -173t-34.5 -203z" />
<glyph unicode="h" horiz-adv-x="1265" d="M139 0l246 1397h-176l14 84h275l-113 -641q62 99 159.5 157t217.5 58q135 0 220 -83t85 -212q0 -40 -6 -80l-107 -596h176l-14 -84h-274l116 670q7 40 7 69q0 103 -62 163.5t-176 60.5q-124 0 -241 -105.5t-140 -236.5l-108 -621h-99z" />
<glyph unicode="i" horiz-adv-x="585" d="M143 946l15 84h276l-168 -946h176l-14 -84h-274l165 946h-176zM338 1348q0 37 25.5 62.5t62.5 25.5t62.5 -25.5t25.5 -62.5t-25.5 -62.5t-62.5 -25.5t-62.5 25.5t-25.5 62.5z" />
<glyph unicode="j" horiz-adv-x="567" d="M-150 -379l17 86q30 -10 74 -10q75 0 131 59t75 160l183 1030h-176l14 84h274l-196 -1118q-25 -141 -104.5 -221t-198.5 -80q-51 0 -93 10zM338 1348q0 37 25.5 62.5t62.5 25.5t62.5 -25.5t25.5 -62.5t-25.5 -62.5t-62.5 -25.5t-62.5 25.5t-25.5 62.5z" />
<glyph unicode="k" horiz-adv-x="1046" d="M137 0l248 1397h-176l14 84h275l-152 -856q180 51 319.5 157t200.5 248h117q-70 -166 -214.5 -281.5t-332.5 -170.5l361 -494h174l-15 -84h-221l-399 559l-100 -559h-99z" />
<glyph unicode="l" horiz-adv-x="571" d="M139 0l246 1397h-176l14 84h275l-246 -1397h176l-14 -84h-275z" />
<glyph unicode="m" horiz-adv-x="1863" d="M143 946l15 84h276l-37 -205q54 105 148.5 167.5t202.5 62.5t180 -62.5t84 -161.5q55 102 154.5 163t222.5 61q122 0 198 -81.5t76 -205.5q0 -40 -6 -80l-107 -604h176l-14 -84h-274l121 682q6 30 6 68q0 97 -56.5 155t-152.5 58q-112 0 -217.5 -90t-126.5 -211 l-117 -662h-98l121 694q6 27 6 60q0 94 -54.5 151.5t-152.5 57.5q-116 0 -224 -106.5t-133 -244.5l-108 -612h-98l165 946h-176z" />
<glyph unicode="n" horiz-adv-x="1280" d="M143 946l15 84h276l-35 -190q63 99 159 157t216 58q135 0 220 -83t85 -212q0 -40 -6 -80l-106 -596h176l-15 -84h-274l117 670q6 34 6 69q0 103 -62 163.5t-176 60.5q-124 0 -240 -105.5t-139 -236.5l-108 -621h-98l165 946h-176z" />
<glyph unicode="o" horiz-adv-x="1220" d="M123 424q0 126 42.5 242.5t115.5 203.5t177.5 139t223.5 52q186 0 302 -123t116 -320q0 -126 -43 -244t-116.5 -207t-178 -142.5t-221.5 -53.5q-189 0 -303.5 126t-114.5 327zM227 428q0 -161 86.5 -263t227.5 -102q93 0 178.5 46.5t145 123t95 176t35.5 203.5 q0 161 -87.5 259t-227.5 98q-126 0 -231.5 -76.5t-163.5 -200.5t-58 -264z" />
<glyph unicode="p" horiz-adv-x="1290" d="M88 -383l234 1331h-179l15 82h276l-39 -229q66 117 170.5 187.5t241.5 70.5q106 0 190 -59t129 -158t45 -219q0 -128 -42 -247t-113.5 -208t-173.5 -142t-215 -53q-131 0 -217 74t-115 195l-109 -625h-98zM328 412q0 -151 83.5 -248.5t217.5 -97.5q119 0 221 79 t159.5 205.5t57.5 267.5q0 154 -78 252q-77 97 -206 97h-3q-118 -1 -223 -80.5t-167 -207.5t-62 -267z" />
<glyph unicode="q" horiz-adv-x="1234" d="M121 410q0 174 71.5 323.5t194.5 237.5t268 88q136 0 222.5 -71t113.5 -189l41 231h98l-249 -1413h-99l111 623q-64 -120 -171.5 -193.5t-246.5 -73.5q-152 0 -253 126t-101 311zM225 420q0 -156 74.5 -255t198.5 -99q120 0 227.5 81.5t170 211t62.5 268.5 q0 151 -85.5 245.5t-219.5 94.5q-112 0 -211.5 -76.5t-158 -203t-58.5 -267.5z" />
<glyph unicode="r" horiz-adv-x="843" d="M143 946l15 84h274l-43 -254q56 124 149.5 201.5t202.5 77.5q78 0 146 -35l-53 -96q-58 26 -119 26q-84 0 -164 -60t-132 -150t-69 -185l-98 -555h-98l165 946h-176z" />
<glyph unicode="s" horiz-adv-x="956" d="M61 51l45 258h91l-33 -188q127 -58 260 -58q109 0 185.5 64.5t76.5 161.5q0 47 -27 85t-70.5 64.5t-96 51t-105.5 51t-96.5 57.5t-70.5 77t-27 103q0 122 97 199.5t234 77.5q173 0 332 -78l-41 -225h-90l29 161q-107 56 -230 56q-97 0 -165 -51.5t-68 -133.5 q0 -43 27.5 -77.5t71 -59t96 -48t105.5 -50.5t96.5 -59.5t71 -82t27.5 -110.5q0 -142 -106 -232t-258 -90q-189 0 -361 76z" />
<glyph unicode="t" horiz-adv-x="669" d="M137 946l15 84h176l43 244h98l-43 -244h240l-15 -84h-239l-119 -670q-4 -36 -4 -55q0 -62 33.5 -99.5t91.5 -37.5q49 0 106 22l19 -86q-61 -24 -142 -24q-91 0 -150 57.5t-59 149.5q0 27 7 71l118 672h-176z" />
<glyph unicode="u" horiz-adv-x="1243" d="M137 946l15 84h276l-119 -665q-8 -50 -8 -78q0 -100 55.5 -159.5t155.5 -59.5q79 0 163 58t141 141t71 159l106 604h99l-168 -946h176l-15 -84h-274l37 211q-64 -104 -159.5 -170t-209.5 -66q-123 0 -200.5 84t-77.5 205q0 34 8 92l104 590h-176z" />
<glyph unicode="v" horiz-adv-x="1077" d="M35 946l14 84h256l105 -940q105 88 190.5 179.5t156 194t109.5 214t39 219.5q0 31 -2 49h-192l14 84h262q12 -58 12 -127q0 -237 -155 -469.5t-426 -441.5h-94l-109 954h-180z" />
<glyph unicode="w" horiz-adv-x="1685" d="M35 946l14 84h250l102 -938q192 214 322.5 436t130.5 379q0 25 -2 37l-10 86h98l113 -938q458 433 458 789q0 19 -4 65h-184l14 84h254q15 -84 15 -143q0 -218 -144 -444.5t-403 -450.5h-86l-86 702q-57 -165 -181 -346t-294 -356h-95l-108 954h-174z" />
<glyph unicode="x" horiz-adv-x="1048" d="M8 0l12 70l451 469l-190 407h-146l15 84h196l201 -430l352 356h-192l14 74h297l-12 -69l-426 -433l208 -444h154l-14 -84h-207l-217 467l-377 -393h192l-14 -74h-297z" />
<glyph unicode="y" horiz-adv-x="1079" d="M-133 -371l24 86q37 -16 89 -16q82 0 205.5 79t232.5 204l-205 964h-176l12 84h246l207 -969q176 212 288.5 433t112.5 391q0 38 -2 61h-190l14 84h264q12 -61 12 -139q0 -114 -51 -258t-133.5 -283.5t-191 -274.5t-220.5 -237t-225.5 -164.5t-202.5 -62.5q-63 0 -110 18 z" />
<glyph unicode="z" horiz-adv-x="1015" d="M31 0l12 70l780 876h-512l-35 -194h-90l50 278h733l-13 -69l-776 -877h551l41 227h90l-55 -311h-776z" />
<glyph unicode="{" horiz-adv-x="557" d="M94 616l15 91q148 9 186 219l65 377q41 239 312 239l-15 -86q-79 0 -132.5 -44.5t-65.5 -117.5l-68 -381q-20 -114 -70.5 -179.5t-123.5 -76.5q53 -13 82.5 -62t29.5 -122q0 -26 -8 -72l-72 -413q-4 -28 -4 -45q0 -64 36 -97.5t106 -33.5l-15 -84q-105 0 -166 55.5 t-61 142.5q0 36 6 70l70 397q8 50 8 80q0 137 -115 143z" />
<glyph unicode="|" horiz-adv-x="641" d="M301 -410v2001h98v-2001h-98z" />
<glyph unicode="}" horiz-adv-x="559" d="M-72 -272l15 86q79 0 132.5 44t65.5 117l68 381q20 114 70.5 179.5t123.5 76.5q-53 13 -82.5 62.5t-29.5 122.5q0 25 8 71l72 414q4 28 4 45q0 64 -36 97.5t-106 33.5l15 84q105 0 166 -56t61 -143q0 -35 -6 -69l-70 -397q-8 -50 -8 -80q0 -138 115 -144l-14 -90 q-73 -5 -120.5 -60.5t-66.5 -158.5l-65 -377q-41 -239 -312 -239z" />
<glyph unicode="~" horiz-adv-x="1005" d="M84 498q26 111 95 180.5t171 69.5q41 0 81.5 -16.5t73 -40t64 -47t67.5 -40t71 -16.5q58 0 100.5 43.5t62.5 111.5h91q-26 -111 -95.5 -180t-169.5 -69q-50 0 -101 25t-86.5 54.5t-82 54.5t-88.5 25q-57 0 -99.5 -43.5t-64.5 -111.5h-90z" />
<glyph unicode="&#xa1;" horiz-adv-x="524" d="M51 -385l211 1130h86l-182 -1130h-115zM262 1028q0 38 26.5 65t63.5 27q38 0 64 -27t26 -65q0 -37 -26 -63.5t-64 -26.5q-37 0 -63.5 26.5t-26.5 63.5z" />
<glyph unicode="&#xa2;" horiz-adv-x="1093" d="M160 608q0 162 68 305.5t184.5 232.5t253.5 99l36 201h86l-36 -201q169 -12 309 -98l-47 -266h-90l37 202q-124 72 -263 72q-114 0 -214.5 -75t-160 -200t-59.5 -264q0 -160 80 -262t209 -102q98 0 190 59t156 154l74 -55q-68 -110 -177.5 -177t-232.5 -71l-37 -201h-86 l37 207q-144 23 -230.5 144t-86.5 296z" />
<glyph unicode="&#xa3;" horiz-adv-x="1116" d="M80 0l14 76q126 137 201.5 300t75.5 322h-205l14 84h187q-3 27 -9.5 78.5t-10 91.5t-3.5 72q0 188 114.5 310t291.5 122q179 0 366 -86l-53 -303h-96l41 233q-114 60 -258 60q-132 0 -216.5 -95.5t-84.5 -242.5q0 -32 3 -71.5t8 -90t7 -78.5h291l-15 -84h-272 q-1 -165 -67.5 -322.5t-178.5 -287.5h594l47 270h97l-64 -358h-819z" />
<glyph unicode="&#xa5;" horiz-adv-x="1232" d="M145 1350l15 84h442l-14 -84h-176l237 -639l471 639h-176l14 84h447l-14 -84h-162l-488 -654h295l-12 -71h-336l-29 -160h334l-12 -72h-334l-55 -309h192l-14 -84h-489l14 84h192l56 309h-340l12 72h340l29 160h-338l12 71h299l-250 654h-162z" />
<glyph unicode="&#xa7;" horiz-adv-x="1142" d="M190 614q0 102 58 182.5t149 118.5q-143 104 -143 267q0 133 88 223t221 90q98 0 171 -47t108 -127v156h98v-336h-84q-28 124 -101 192t-175 68q-96 0 -158 -59.5t-62 -149.5q0 -66 35 -119.5t90.5 -90.5t123 -71t135.5 -70t123.5 -78.5t90.5 -106t35 -142.5 q0 -107 -54.5 -188t-145.5 -121q145 -103 145 -262q0 -149 -89.5 -241.5t-230.5 -92.5q-104 0 -177.5 50.5t-108.5 137.5v-168h-99v359h84q25 -129 103 -207t184 -78q98 0 162.5 62t64.5 163q0 65 -35.5 118.5t-92 91.5t-124.5 72.5t-136.5 72t-125 80.5t-92 107.5 t-35.5 143.5zM301 631q0 -57 24 -104t72.5 -85t93.5 -64t116.5 -63t111.5 -61q75 31 119.5 95t44.5 145q0 58 -23.5 104.5t-71 83.5t-91.5 62t-114 60.5t-110 59.5q-77 -29 -124.5 -93.5t-47.5 -139.5z" />
<glyph unicode="&#xa8;" horiz-adv-x="774" d="M285 1341q0 34 23.5 58t58.5 24t58.5 -24t23.5 -58q0 -35 -23.5 -58t-58.5 -23t-58.5 23t-23.5 58zM618 1341q0 34 22.5 58t57.5 24t58.5 -24t23.5 -58q0 -35 -23.5 -58t-58.5 -23t-57.5 23t-22.5 58z" />
<glyph unicode="&#xa9;" horiz-adv-x="1714" d="M162 725q0 153 55 288.5t150.5 234t232.5 155.5t295 57q157 0 294 -57t232.5 -155.5t150 -234t54.5 -288.5q0 -210 -91.5 -381t-259.5 -271t-380 -100q-159 0 -296.5 58.5t-232.5 159t-149.5 239t-54.5 295.5zM256 725q0 -190 81 -342t227 -238t331 -86t330.5 86.5 t226 238t80.5 341.5q0 184 -81.5 332.5t-227 232.5t-328.5 84t-329 -84t-228 -232.5t-82 -332.5zM530 727q0 159 103.5 268t249.5 109q76 0 135.5 -34.5t95.5 -96.5v108h74v-229h-62q-27 78 -89 124t-144 46q-115 0 -191.5 -84.5t-76.5 -210.5q0 -135 76.5 -223t199.5 -88 q69 0 132 37t100 94l65 -53q-46 -76 -126 -120t-173 -44q-161 0 -265 112.5t-104 284.5z" />
<glyph unicode="&#xaa;" horiz-adv-x="929" d="M174 987q0 123 53.5 230.5t145 171t196.5 63.5q95 0 156.5 -45t85.5 -125l27 152h90l-121 -686h123l-12 -72h-213l26 151q-43 -77 -118 -125.5t-173 -48.5q-114 0 -190 95.5t-76 238.5zM272 987q0 -110 49.5 -179t137.5 -69q83 0 159.5 59t121 151t44.5 186 q0 106 -57 168.5t-149 62.5q-127 0 -216.5 -111.5t-89.5 -267.5z" />
<glyph unicode="&#xab;" horiz-adv-x="841" d="M88 602l320 361h114l-327 -371l196 -365h-100zM408 571l342 385h114l-350 -395l182 -338h-100z" />
<glyph unicode="&#xad;" horiz-adv-x="684" d="M94 559l17 96h512l-17 -96h-512z" />
<glyph unicode="&#xae;" horiz-adv-x="1007" d="M203 1110q0 170 112 285.5t295 115.5q182 0 294 -115.5t112 -285.5q0 -169 -113 -286t-293 -117q-183 0 -295 117t-112 286zM266 1110q0 -147 93.5 -246.5t250.5 -99.5q155 0 248.5 99.5t93.5 246.5q0 149 -92.5 246.5t-249.5 97.5q-156 0 -250 -98t-94 -246zM453 1280 v47h165q55 0 92.5 -31.5t37.5 -81.5q0 -40 -25 -69.5t-66 -40.5l82 -137h60v-47h-94l-101 176h-55v-129h43v-47h-137v47h43v313h-45zM549 1141h55q35 0 58.5 18t23.5 53q0 31 -23 49.5t-55 18.5h-59v-139z" />
<glyph unicode="&#xaf;" horiz-adv-x="817" d="M272 1278l15 80h542l-14 -80h-543z" />
<glyph unicode="&#xb0;" horiz-adv-x="694" d="M190 1180q0 118 77 198t198 80q120 0 197 -80t77 -196q0 -121 -76.5 -202t-197.5 -81q-122 0 -198.5 81t-76.5 200zM281 1180q0 -86 50.5 -142.5t133.5 -56.5q85 0 134.5 56.5t49.5 144.5q0 85 -50.5 139.5t-133.5 54.5t-133.5 -55.5t-50.5 -140.5z" />
<glyph unicode="&#xb2;" horiz-adv-x="698" d="M121 643l6 35q12 66 43 125t72 101.5t87.5 81t90.5 70.5t80 62.5t58 64.5t22 70q0 51 -31.5 82t-83.5 31q-58 0 -102.5 -36.5t-71.5 -94.5l-74 33q38 81 104.5 129.5t149.5 48.5q87 0 144 -56.5t57 -132.5q0 -51 -29.5 -99.5t-74 -85.5t-99.5 -79t-104 -79.5t-89 -89 t-53 -105.5h297l23 125h78l-35 -201h-465z" />
<glyph unicode="&#xb3;" horiz-adv-x="686" d="M111 809l73 33q18 -59 58.5 -95t101.5 -36q82 0 135 48t53 124q0 68 -44 108.5t-119 40.5h-37l12 78q221 29 221 158q0 48 -32.5 75t-83.5 27q-96 0 -170 -100l-64 41q41 63 105.5 99t136.5 36q78 0 138 -49.5t60 -128.5q0 -87 -66 -136t-163 -59q91 -3 146 -56t55 -136 q0 -106 -83.5 -178t-201.5 -72q-85 0 -148 49t-83 129z" />
<glyph unicode="&#xb4;" horiz-adv-x="495" d="M236 1204l196 269h131l-227 -269h-100z" />
<glyph unicode="&#xb6;" horiz-adv-x="1202" d="M162 1061q0 156 107.5 264.5t262.5 108.5h582v-86h-196v-1436h-91v1436h-198v-1436h-90v776q-159 1 -268 109t-109 264z" />
<glyph unicode="&#xb7;" horiz-adv-x="462" d="M152 612q0 38 30 67.5t68 29.5t68 -29.5t30 -67.5t-30 -68t-68 -30t-68 30t-30 68z" />
<glyph unicode="&#xb8;" horiz-adv-x="532" d="M-29 -395l27 76q38 -21 72 -21q54 0 89.5 26t35.5 68q0 40 -29 62t-72 22q-21 0 -41 -4l64 178h71l-38 -112q55 -3 94 -43t39 -99q0 -82 -61.5 -129t-151.5 -47q-55 0 -99 23z" />
<glyph unicode="&#xb9;" horiz-adv-x="628" d="M154 643l12 72h143l111 631l-172 -117l-43 61l227 144h86l-125 -719h137l-12 -72h-364z" />
<glyph unicode="&#xba;" horiz-adv-x="894" d="M174 989q0 190 120.5 325.5t299.5 135.5q136 0 226.5 -93.5t90.5 -234.5q0 -122 -53.5 -229t-151 -173.5t-214.5 -66.5q-139 0 -228.5 94.5t-89.5 241.5zM272 987q0 -108 60 -178t160 -70q90 0 164.5 55t115.5 142.5t41 185.5q0 106 -60.5 174t-162.5 68 q-137 0 -227.5 -111.5t-90.5 -265.5z" />
<glyph unicode="&#xbb;" horiz-adv-x="841" d="M4 229l350 396l-182 338h100l189 -349l-342 -385h-115zM346 223l328 371l-197 364h101l202 -374l-319 -361h-115z" />
<glyph unicode="&#xbc;" horiz-adv-x="1656" d="M174 643l12 72h144l110 631l-172 -117l-43 61l228 144h86l-125 -719h137l-12 -72h-365zM238 -84l1077 1602h102l-1077 -1602h-102zM870 229l11 62l450 504h80l-86 -496h135l-12 -70h-135l-29 -159h135l-12 -70h-356l12 70h143l29 159h-365zM979 299h268l68 377z" />
<glyph unicode="&#xbd;" horiz-adv-x="1652" d="M174 643l12 72h144l110 631l-172 -117l-43 61l228 144h86l-125 -719h137l-12 -72h-365zM238 -84l1077 1602h102l-1077 -1602h-102zM940 0l6 35q12 66 43 125t72 101.5t87.5 81t90.5 70.5t80 62.5t58 64.5t22 70q0 51 -31.5 82t-83.5 31q-58 0 -102.5 -36.5t-71.5 -94.5 l-74 33q38 81 104.5 129.5t149.5 48.5q87 0 144 -56.5t57 -132.5q0 -51 -29.5 -99.5t-74 -85.5t-99.5 -79t-104 -79.5t-89 -89t-53 -105.5h297l23 125h78l-35 -201h-465z" />
<glyph unicode="&#xbe;" horiz-adv-x="1720" d="M131 809l74 33q18 -59 58.5 -95t101.5 -36q82 0 135 48t53 124q0 68 -44.5 108.5t-119.5 40.5h-37l13 78q221 29 221 158q0 48 -33 75t-84 27q-96 0 -170 -100l-63 41q41 63 105 99t136 36q78 0 138.5 -49.5t60.5 -128.5q0 -87 -66.5 -136t-163.5 -59q91 -3 146 -56 t55 -136q0 -106 -83.5 -178t-201.5 -72q-85 0 -148 49t-83 129zM301 -84l1077 1602h103l-1078 -1602h-102zM934 229l10 62l451 504h80l-86 -496h135l-13 -70h-135l-28 -159h135l-13 -70h-356l12 70h144l28 159h-364zM1042 299h269l67 377z" />
<glyph unicode="&#xbf;" horiz-adv-x="796" d="M-43 -70q0 70 25 134t66 113.5t91 96t102 90.5t96.5 86.5t76.5 94t41 104.5l16 101h98l-20 -117q-11 -62 -43.5 -119.5t-75.5 -102.5t-93 -88.5t-97.5 -86.5t-86.5 -87.5t-63 -99.5t-24 -115q0 -100 66.5 -166.5t172.5 -66.5q97 0 174.5 60.5t126.5 148.5l86 -45 q-60 -116 -159.5 -186t-237.5 -70q-148 0 -243 93t-95 228zM459 1026q0 38 26.5 65t63.5 27q38 0 64 -27t26 -65q0 -37 -26 -63.5t-64 -26.5q-37 0 -63.5 26.5t-26.5 63.5z" />
<glyph unicode="&#xc0;" horiz-adv-x="1374" d="M-86 0l14 84h152l719 1354h106l238 -1354h151l-14 -84h-453l15 84h194l-71 420h-557l-222 -420h193l-14 -84h-451zM453 592h495l-117 735zM727 1862h111l94 -277h-88z" />
<glyph unicode="&#xc1;" horiz-adv-x="1374" d="M-86 0l14 84h152l719 1354h106l238 -1354h151l-14 -84h-453l15 84h194l-71 420h-557l-222 -420h193l-14 -84h-451zM453 592h495l-117 735zM772 1587l197 268h131l-228 -268h-100z" />
<glyph unicode="&#xc2;" horiz-adv-x="1374" d="M-86 0l14 84h152l719 1354h106l238 -1354h151l-14 -84h-453l15 84h194l-71 420h-557l-222 -420h193l-14 -84h-451zM453 592h495l-117 735zM602 1585l248 256h106l154 -256h-94l-117 195l-184 -195h-113z" />
<glyph unicode="&#xc3;" horiz-adv-x="1374" d="M-86 0l14 84h152l719 1354h106l238 -1354h151l-14 -84h-453l15 84h194l-71 420h-557l-222 -420h193l-14 -84h-451zM453 592h495l-117 735zM588 1630q23 81 75 130.5t123 49.5q41 0 84.5 -25t82.5 -50t71 -25q35 0 64 27.5t45 70.5h75q-23 -81 -73.5 -130.5t-120.5 -49.5 q-34 0 -69 16t-59.5 34.5t-55.5 34.5t-58 16q-35 0 -63.5 -27.5t-44.5 -71.5h-76z" />
<glyph unicode="&#xc4;" horiz-adv-x="1374" d="M-86 0l14 84h152l719 1354h106l238 -1354h151l-14 -84h-453l15 84h194l-71 420h-557l-222 -420h193l-14 -84h-451zM453 592h495l-117 735zM639 1724q0 34 23.5 58t58.5 24t58.5 -24t23.5 -58q0 -35 -23.5 -58.5t-58.5 -23.5t-58.5 23.5t-23.5 58.5zM973 1724 q0 34 22.5 58t57.5 24t58.5 -24t23.5 -58q0 -35 -23.5 -58.5t-58.5 -23.5t-57.5 23.5t-22.5 58.5z" />
<glyph unicode="&#xc5;" horiz-adv-x="1374" d="M-86 0l14 84h152l719 1354h106l238 -1354h151l-14 -84h-453l15 84h194l-71 420h-557l-222 -420h193l-14 -84h-451zM453 592h495l-117 735zM723 1702q0 78 55 130t131 52q60 0 102 -38t42 -95q0 -78 -55.5 -131t-131.5 -53q-59 0 -101 39t-42 96zM788 1704q0 -34 23.5 -56 t58.5 -22q50 0 83.5 34.5t33.5 86.5q0 33 -23 55.5t-59 22.5q-49 0 -83 -35t-34 -86z" />
<glyph unicode="&#xc6;" horiz-adv-x="1816" d="M-106 0l14 84h155l992 1350h762l-60 -342h-96l45 258h-487l-101 -578h473l-16 -88h-473l-105 -600h502l45 254h96l-59 -338h-885l15 84h182l104 600h-383l-434 -600h176l-14 -84h-448zM670 760h342l106 618z" />
<glyph unicode="&#xc7;" horiz-adv-x="1378" d="M158 578q0 178 62 341t165.5 281.5t244.5 189t294 70.5q246 0 462 -114l-61 -345h-96l49 277q-156 86 -358 86q-174 0 -324.5 -108t-238 -286.5t-87.5 -379.5q0 -148 48 -264t148 -186t239 -70q136 0 259.5 78.5t204.5 209.5l82 -53q-88 -148 -228 -236.5t-300 -95.5 l-27 -73q55 -3 94 -43t39 -99q0 -82 -61.5 -129t-151.5 -47q-54 0 -98 23l27 76q38 -21 71 -21q54 0 89.5 26t35.5 68q0 40 -28.5 62t-71.5 22q-21 0 -41 -4l51 141q-152 11 -265.5 96t-170.5 216.5t-57 290.5z" />
<glyph unicode="&#xc8;" d="M27 0l14 84h176l223 1266h-176l15 84h880l-57 -334h-96l43 250h-504l-99 -555h474l-17 -93h-473l-108 -618h514l49 274h96l-63 -358h-891zM633 1862h110l95 -277h-88z" />
<glyph unicode="&#xc9;" d="M27 0l14 84h176l223 1266h-176l15 84h880l-57 -334h-96l43 250h-504l-99 -555h474l-17 -93h-473l-108 -618h514l49 274h96l-63 -358h-891zM678 1587l196 268h132l-228 -268h-100z" />
<glyph unicode="&#xca;" d="M27 0l14 84h176l223 1266h-176l15 84h880l-57 -334h-96l43 250h-504l-99 -555h474l-17 -93h-473l-108 -618h514l49 274h96l-63 -358h-891zM508 1585l248 256h106l154 -256h-94l-117 195l-184 -195h-113z" />
<glyph unicode="&#xcb;" d="M27 0l14 84h176l223 1266h-176l15 84h880l-57 -334h-96l43 250h-504l-99 -555h474l-17 -93h-473l-108 -618h514l49 274h96l-63 -358h-891zM545 1724q0 34 23.5 58t58.5 24t58.5 -24t23.5 -58q0 -35 -23.5 -58.5t-58.5 -23.5t-58.5 23.5t-23.5 58.5zM879 1724q0 34 22 58 t57 24t58.5 -24t23.5 -58q0 -35 -23.5 -58.5t-58.5 -23.5t-57 23t-22 59z" />
<glyph unicode="&#xcc;" horiz-adv-x="690" d="M27 0l14 84h176l223 1266h-176l15 84h456l-14 -84h-176l-223 -1266h176l-15 -84h-456zM383 1862h111l94 -277h-88z" />
<glyph unicode="&#xcd;" horiz-adv-x="690" d="M27 0l14 84h176l223 1266h-176l15 84h456l-14 -84h-176l-223 -1266h176l-15 -84h-456zM428 1587l197 268h131l-228 -268h-100z" />
<glyph unicode="&#xce;" horiz-adv-x="690" d="M27 0l14 84h176l223 1266h-176l15 84h456l-14 -84h-176l-223 -1266h176l-15 -84h-456zM258 1585l248 256h106l154 -256h-94l-117 195l-184 -195h-113z" />
<glyph unicode="&#xcf;" horiz-adv-x="690" d="M27 0l14 84h176l223 1266h-176l15 84h456l-14 -84h-176l-223 -1266h176l-15 -84h-456zM295 1724q0 34 23.5 58t58.5 24t58.5 -24t23.5 -58q0 -35 -23.5 -58.5t-58.5 -23.5t-58.5 23.5t-23.5 58.5zM629 1724q0 34 22.5 58t57.5 24t58.5 -24t23.5 -58q0 -35 -23.5 -58.5 t-58.5 -23.5t-57.5 23.5t-22.5 58.5z" />
<glyph unicode="&#xd0;" horiz-adv-x="1499" d="M78 0l14 84h176l109 621h-225l14 83h227l99 562h-177l15 84h506q252 0 412.5 -151.5t160.5 -401.5q0 -182 -58 -343t-161.5 -280t-256 -188.5t-331.5 -69.5h-524zM373 84h219q202 0 364.5 109t251 290t88.5 394q0 217 -137.5 345t-359.5 128h-203l-98 -562h348l-15 -83 h-350z" />
<glyph unicode="&#xd1;" horiz-adv-x="1574" d="M27 0l14 84h176l223 1266h-176l15 84h280l596 -1274l209 1190h-176l14 84h449l-15 -84h-176l-237 -1350h-107l-592 1276l-211 -1192h176l-14 -84h-448zM674 1651q23 81 75 130.5t123 49.5q41 0 84.5 -25t82.5 -50t71 -25q35 0 64 27.5t45 70.5h75q-23 -81 -73.5 -130.5 t-120.5 -49.5q-43 0 -86.5 25t-82.5 50t-73 25q-35 0 -63.5 -27.5t-44.5 -70.5h-76z" />
<glyph unicode="&#xd2;" horiz-adv-x="1572" d="M156 571q0 140 39 274t110.5 244t167 193.5t215.5 129.5t248 46q248 0 401.5 -162t153.5 -415q0 -174 -61.5 -339.5t-165 -290.5t-250 -201.5t-305.5 -76.5q-165 0 -291.5 78t-194 213.5t-67.5 306.5zM268 582q0 -148 52 -263.5t154.5 -182t240.5 -66.5q110 0 212.5 44.5 t183 122.5t141.5 178.5t93.5 217.5t32.5 235q0 223 -119.5 358.5t-330.5 135.5q-110 0 -212.5 -42t-182.5 -117t-140.5 -172t-92.5 -213t-32 -236zM809 1862h111l94 -277h-88z" />
<glyph unicode="&#xd3;" horiz-adv-x="1572" d="M156 571q0 140 39 274t110.5 244t167 193.5t215.5 129.5t248 46q248 0 401.5 -162t153.5 -415q0 -174 -61.5 -339.5t-165 -290.5t-250 -201.5t-305.5 -76.5q-165 0 -291.5 78t-194 213.5t-67.5 306.5zM268 582q0 -148 52 -263.5t154.5 -182t240.5 -66.5q110 0 212.5 44.5 t183 122.5t141.5 178.5t93.5 217.5t32.5 235q0 223 -119.5 358.5t-330.5 135.5q-110 0 -212.5 -42t-182.5 -117t-140.5 -172t-92.5 -213t-32 -236zM854 1587l197 268h131l-228 -268h-100z" />
<glyph unicode="&#xd4;" horiz-adv-x="1572" d="M156 571q0 140 39 274t110.5 244t167 193.5t215.5 129.5t248 46q248 0 401.5 -162t153.5 -415q0 -174 -61.5 -339.5t-165 -290.5t-250 -201.5t-305.5 -76.5q-165 0 -291.5 78t-194 213.5t-67.5 306.5zM268 582q0 -148 52 -263.5t154.5 -182t240.5 -66.5q110 0 212.5 44.5 t183 122.5t141.5 178.5t93.5 217.5t32.5 235q0 223 -119.5 358.5t-330.5 135.5q-110 0 -212.5 -42t-182.5 -117t-140.5 -172t-92.5 -213t-32 -236zM684 1585l248 256h106l154 -256h-94l-117 195l-184 -195h-113z" />
<glyph unicode="&#xd5;" horiz-adv-x="1572" d="M156 571q0 140 39 274t110.5 244t167 193.5t215.5 129.5t248 46q248 0 401.5 -162t153.5 -415q0 -174 -61.5 -339.5t-165 -290.5t-250 -201.5t-305.5 -76.5q-165 0 -291.5 78t-194 213.5t-67.5 306.5zM268 582q0 -148 52 -263.5t154.5 -182t240.5 -66.5q110 0 212.5 44.5 t183 122.5t141.5 178.5t93.5 217.5t32.5 235q0 223 -119.5 358.5t-330.5 135.5q-110 0 -212.5 -42t-182.5 -117t-140.5 -172t-92.5 -213t-32 -236zM670 1630q23 81 75 130.5t123 49.5q41 0 84.5 -25t82.5 -50t71 -25q35 0 63.5 27.5t44.5 70.5h76q-23 -81 -73.5 -130.5 t-120.5 -49.5q-34 0 -69 16t-59.5 34.5t-55.5 34.5t-58 16q-35 0 -64 -28t-45 -71h-75z" />
<glyph unicode="&#xd6;" horiz-adv-x="1572" d="M156 571q0 140 39 274t110.5 244t167 193.5t215.5 129.5t248 46q248 0 401.5 -162t153.5 -415q0 -174 -61.5 -339.5t-165 -290.5t-250 -201.5t-305.5 -76.5q-165 0 -291.5 78t-194 213.5t-67.5 306.5zM268 582q0 -148 52 -263.5t154.5 -182t240.5 -66.5q110 0 212.5 44.5 t183 122.5t141.5 178.5t93.5 217.5t32.5 235q0 223 -119.5 358.5t-330.5 135.5q-110 0 -212.5 -42t-182.5 -117t-140.5 -172t-92.5 -213t-32 -236zM721 1724q0 34 23.5 58t58.5 24t58.5 -24t23.5 -58q0 -35 -23.5 -58.5t-58.5 -23.5t-58.5 23.5t-23.5 58.5zM1055 1724 q0 34 22.5 58t57.5 24t58.5 -24t23.5 -58q0 -35 -23.5 -58.5t-58.5 -23.5t-57.5 23.5t-22.5 58.5z" />
<glyph unicode="&#xd7;" horiz-adv-x="1204" d="M203 252l360 387l-360 387l63 61l359 -382l356 382l63 -61l-360 -387l360 -387l-63 -62l-356 383l-359 -383z" />
<glyph unicode="&#xd8;" horiz-adv-x="1585" d="M66 39l184 186q-90 152 -90 346q0 140 39 274t110.5 244t167 193.5t215.5 129.5t248 46q240 0 391 -151l154 153l63 -63l-159 -160q106 -145 106 -356q0 -174 -61.5 -339.5t-165 -290.5t-250 -201.5t-305.5 -76.5q-253 0 -408 179l-176 -177zM272 582q0 -157 60 -277 l925 928q-123 129 -325 129q-110 0 -212.5 -42t-182.5 -117t-140.5 -172t-92.5 -213t-32 -236zM381 227q122 -157 338 -157q110 0 212.5 44.5t183 122.5t141.5 178.5t93.5 217.5t32.5 235q0 170 -71 291z" />
<glyph unicode="&#xd9;" horiz-adv-x="1486" d="M223 1350l15 84h464l-14 -84h-184l-152 -861q-10 -55 -10 -98q0 -141 88 -231t246 -90q173 0 293.5 112t150.5 287l158 881h-184l14 84h465l-14 -84h-177l-157 -885q-40 -222 -183 -357t-368 -135q-198 0 -318 114.5t-120 287.5q0 59 12 121l151 854h-176zM778 1862h111 l94 -277h-88z" />
<glyph unicode="&#xda;" horiz-adv-x="1486" d="M223 1350l15 84h464l-14 -84h-184l-152 -861q-10 -55 -10 -98q0 -141 88 -231t246 -90q173 0 293.5 112t150.5 287l158 881h-184l14 84h465l-14 -84h-177l-157 -885q-40 -222 -183 -357t-368 -135q-198 0 -318 114.5t-120 287.5q0 59 12 121l151 854h-176zM823 1587 l197 268h131l-227 -268h-101z" />
<glyph unicode="&#xdb;" horiz-adv-x="1486" d="M223 1350l15 84h464l-14 -84h-184l-152 -861q-10 -55 -10 -98q0 -141 88 -231t246 -90q173 0 293.5 112t150.5 287l158 881h-184l14 84h465l-14 -84h-177l-157 -885q-40 -222 -183 -357t-368 -135q-198 0 -318 114.5t-120 287.5q0 59 12 121l151 854h-176zM653 1585 l248 256h107l153 -256h-94l-117 195l-184 -195h-113z" />
<glyph unicode="&#xdc;" horiz-adv-x="1486" d="M223 1350l15 84h464l-14 -84h-184l-152 -861q-10 -55 -10 -98q0 -141 88 -231t246 -90q173 0 293.5 112t150.5 287l158 881h-184l14 84h465l-14 -84h-177l-157 -885q-40 -222 -183 -357t-368 -135q-198 0 -318 114.5t-120 287.5q0 59 12 121l151 854h-176zM690 1724 q0 34 23.5 58t58.5 24t58.5 -24t23.5 -58q0 -35 -23.5 -58.5t-58.5 -23.5t-58.5 23.5t-23.5 58.5zM1024 1724q0 34 22.5 58t57.5 24t58.5 -24t23.5 -58q0 -35 -23.5 -58.5t-58.5 -23.5t-57.5 23.5t-22.5 58.5z" />
<glyph unicode="&#xdd;" horiz-adv-x="1253" d="M147 1350l15 84h446l-14 -84h-180l243 -633l473 633h-180l15 84h450l-14 -84h-160l-547 -725l-96 -541h193l-15 -84h-489l14 84h193l96 543l-283 723h-160zM705 1587l196 268h131l-227 -268h-100z" />
<glyph unicode="&#xde;" horiz-adv-x="1169" d="M29 0l14 84h176l221 1266h-176l15 84h460l-14 -84h-180l-47 -263h264q156 0 254 -80t98 -219q0 -183 -138.5 -295t-352.5 -112h-250l-49 -297h180l-15 -84h-460zM387 465h242q158 0 265 91.5t107 223.5q0 109 -72 166.5t-192 57.5h-254z" />
<glyph unicode="&#xdf;" horiz-adv-x="1230" d="M-160 -375l21 86q35 -14 80 -14q77 0 135.5 60t77.5 161l180 1028h-180l14 84h180l25 135q28 153 129 238.5t254 85.5q126 0 214.5 -80t88.5 -190q0 -117 -81 -205.5t-198 -124.5q139 -23 228.5 -124.5t89.5 -238.5q0 -107 -47 -205t-125.5 -168t-185 -111.5 t-220.5 -41.5h-26l16 88q126 0 237.5 59t178.5 158.5t67 212.5q0 134 -95 222t-249 102l15 84q122 15 206 94t84 186q0 84 -57 137.5t-149 53.5q-111 0 -184 -63t-93 -173l-221 -1251q-25 -140 -106.5 -219.5t-202.5 -79.5q-50 0 -101 14z" />
<glyph unicode="&#xe0;" horiz-adv-x="1284" d="M121 410q0 174 71.5 323.5t194.5 237.5t268 88q136 0 222.5 -71t113.5 -189l41 231h98l-167 -946h176l-15 -84h-274l43 240q-64 -120 -171.5 -193.5t-246.5 -73.5q-152 0 -253 126t-101 311zM225 420q0 -156 74.5 -255t198.5 -99q120 0 227.5 81.5t170 211t62.5 268.5 q0 151 -85.5 245.5t-219.5 94.5q-112 0 -211.5 -76.5t-158 -203t-58.5 -267.5zM567 1479h111l94 -277h-88z" />
<glyph unicode="&#xe1;" horiz-adv-x="1284" d="M121 410q0 174 71.5 323.5t194.5 237.5t268 88q136 0 222.5 -71t113.5 -189l41 231h98l-167 -946h176l-15 -84h-274l43 240q-64 -120 -171.5 -193.5t-246.5 -73.5q-152 0 -253 126t-101 311zM225 420q0 -156 74.5 -255t198.5 -99q120 0 227.5 81.5t170 211t62.5 268.5 q0 151 -85.5 245.5t-219.5 94.5q-112 0 -211.5 -76.5t-158 -203t-58.5 -267.5zM612 1204l197 269h131l-227 -269h-101z" />
<glyph unicode="&#xe2;" horiz-adv-x="1284" d="M121 410q0 174 71.5 323.5t194.5 237.5t268 88q136 0 222.5 -71t113.5 -189l41 231h98l-167 -946h176l-15 -84h-274l43 240q-64 -120 -171.5 -193.5t-246.5 -73.5q-152 0 -253 126t-101 311zM225 420q0 -156 74.5 -255t198.5 -99q120 0 227.5 81.5t170 211t62.5 268.5 q0 151 -85.5 245.5t-219.5 94.5q-112 0 -211.5 -76.5t-158 -203t-58.5 -267.5zM442 1202l248 256h107l153 -256h-94l-117 195l-184 -195h-113z" />
<glyph unicode="&#xe3;" horiz-adv-x="1284" d="M121 410q0 174 71.5 323.5t194.5 237.5t268 88q136 0 222.5 -71t113.5 -189l41 231h98l-167 -946h176l-15 -84h-274l43 240q-64 -120 -171.5 -193.5t-246.5 -73.5q-152 0 -253 126t-101 311zM225 420q0 -156 74.5 -255t198.5 -99q120 0 227.5 81.5t170 211t62.5 268.5 q0 151 -85.5 245.5t-219.5 94.5q-112 0 -211.5 -76.5t-158 -203t-58.5 -267.5zM428 1247q23 81 75.5 130.5t123.5 49.5q41 0 84 -25t82 -50t71 -25q35 0 64 27.5t45 70.5h76q-23 -81 -74 -130.5t-121 -49.5q-43 0 -86.5 25.5t-82.5 50.5t-73 25q-35 0 -63.5 -27.5 t-44.5 -71.5h-76z" />
<glyph unicode="&#xe4;" horiz-adv-x="1284" d="M121 410q0 174 71.5 323.5t194.5 237.5t268 88q136 0 222.5 -71t113.5 -189l41 231h98l-167 -946h176l-15 -84h-274l43 240q-64 -120 -171.5 -193.5t-246.5 -73.5q-152 0 -253 126t-101 311zM225 420q0 -156 74.5 -255t198.5 -99q120 0 227.5 81.5t170 211t62.5 268.5 q0 151 -85.5 245.5t-219.5 94.5q-112 0 -211.5 -76.5t-158 -203t-58.5 -267.5zM479 1341q0 34 23.5 58t58.5 24t58.5 -24t23.5 -58q0 -35 -23.5 -58t-58.5 -23t-58.5 23t-23.5 58zM813 1341q0 34 22.5 58t57.5 24t58.5 -24t23.5 -58q0 -35 -23.5 -58t-58.5 -23t-57.5 23 t-22.5 58z" />
<glyph unicode="&#xe5;" horiz-adv-x="1284" d="M121 410q0 174 71.5 323.5t194.5 237.5t268 88q136 0 222.5 -71t113.5 -189l41 231h98l-167 -946h176l-15 -84h-274l43 240q-64 -120 -171.5 -193.5t-246.5 -73.5q-152 0 -253 126t-101 311zM225 420q0 -156 74.5 -255t198.5 -99q120 0 227.5 81.5t170 211t62.5 268.5 q0 151 -85.5 245.5t-219.5 94.5q-112 0 -211.5 -76.5t-158 -203t-58.5 -267.5zM563 1319q0 78 55 130t132 52q60 0 101.5 -38t41.5 -95q0 -78 -55 -131t-131 -53q-59 0 -101.5 39t-42.5 96zM629 1321q0 -34 23.5 -56t58.5 -22q50 0 83 34.5t33 86.5q0 33 -23 55.5t-59 22.5 q-49 0 -82.5 -35t-33.5 -86z" />
<glyph unicode="&#xe6;" horiz-adv-x="1976" d="M121 408q0 174 72 324t196 238.5t270 88.5q244 0 431 -207q78 97 183.5 152t223.5 55q167 0 270 -110t103 -267q0 -68 -23 -162h-794q-6 -40 -6 -82q0 -160 82.5 -265t218.5 -105q102 0 204 53.5t174 140.5l64 -63q-80 -102 -199.5 -163t-249.5 -61q-167 0 -274.5 113 t-122.5 291q-104 -204 -220.5 -305t-254.5 -101q-155 0 -251.5 124t-96.5 311zM225 418q0 -152 67 -252t185 -100q61 0 120 32.5t107.5 84t98.5 132.5t89 160t85 184q15 37 49 111q-159 197 -364 197q-113 0 -214.5 -77t-162 -204t-60.5 -268zM1069 604h688q8 31 8 82 q0 120 -77 202t-197 81q-143 0 -259 -103t-163 -262z" />
<glyph unicode="&#xe7;" horiz-adv-x="1091" d="M123 422q0 128 43.5 246t116.5 203.5t173.5 136.5t209.5 51q186 0 354 -101l-47 -266h-90l35 203q-118 72 -256 72q-112 0 -213 -74.5t-161.5 -199t-60.5 -263.5q0 -160 80 -262t209 -102q97 0 188.5 59t157.5 154l72 -58q-72 -114 -182.5 -180.5t-239.5 -67.5l-25 -73 q55 -3 94.5 -43t39.5 -99q0 -82 -61.5 -129t-151.5 -47q-55 0 -99 23l27 76q38 -21 72 -21q53 0 88.5 26t35.5 68q0 40 -28.5 62t-71.5 22q-21 0 -41 -4l51 146q-145 25 -232 147t-87 295z" />
<glyph unicode="&#xe8;" horiz-adv-x="1157" d="M123 434q0 166 75.5 310.5t203.5 229.5t276 85q167 0 270 -110t103 -267q0 -68 -23 -162h-795q-6 -40 -6 -82q0 -160 82.5 -265t218.5 -105q102 0 204.5 53.5t174.5 140.5l64 -63q-80 -102 -199.5 -163t-249.5 -61q-180 0 -289.5 129.5t-109.5 329.5zM250 604h688 q8 31 8 82q0 120 -77 202t-197 81q-143 0 -259 -103t-163 -262zM547 1479h110l95 -277h-88z" />
<glyph unicode="&#xe9;" horiz-adv-x="1157" d="M123 434q0 166 75.5 310.5t203.5 229.5t276 85q167 0 270 -110t103 -267q0 -68 -23 -162h-795q-6 -40 -6 -82q0 -160 82.5 -265t218.5 -105q102 0 204.5 53.5t174.5 140.5l64 -63q-80 -102 -199.5 -163t-249.5 -61q-180 0 -289.5 129.5t-109.5 329.5zM250 604h688 q8 31 8 82q0 120 -77 202t-197 81q-143 0 -259 -103t-163 -262zM592 1204l196 269h132l-228 -269h-100z" />
<glyph unicode="&#xea;" horiz-adv-x="1157" d="M123 434q0 166 75.5 310.5t203.5 229.5t276 85q167 0 270 -110t103 -267q0 -68 -23 -162h-795q-6 -40 -6 -82q0 -160 82.5 -265t218.5 -105q102 0 204.5 53.5t174.5 140.5l64 -63q-80 -102 -199.5 -163t-249.5 -61q-180 0 -289.5 129.5t-109.5 329.5zM250 604h688 q8 31 8 82q0 120 -77 202t-197 81q-143 0 -259 -103t-163 -262zM422 1202l248 256h106l154 -256h-94l-117 195l-184 -195h-113z" />
<glyph unicode="&#xeb;" horiz-adv-x="1157" d="M123 434q0 166 75.5 310.5t203.5 229.5t276 85q167 0 270 -110t103 -267q0 -68 -23 -162h-795q-6 -40 -6 -82q0 -160 82.5 -265t218.5 -105q102 0 204.5 53.5t174.5 140.5l64 -63q-80 -102 -199.5 -163t-249.5 -61q-180 0 -289.5 129.5t-109.5 329.5zM250 604h688 q8 31 8 82q0 120 -77 202t-197 81q-143 0 -259 -103t-163 -262zM459 1341q0 34 23.5 58t58.5 24t58.5 -24t23.5 -58q0 -35 -23.5 -58t-58.5 -23t-58.5 23t-23.5 58zM793 1341q0 34 22 58t57 24t58.5 -24t23.5 -58q0 -35 -23.5 -58t-58.5 -23t-57 23t-22 58z" />
<glyph unicode="&#xec;" horiz-adv-x="587" d="M143 946l15 84h276l-168 -946h176l-14 -84h-274l165 946h-176zM250 1479h110l95 -277h-88z" />
<glyph unicode="&#xed;" horiz-adv-x="587" d="M143 946l15 84h276l-168 -946h176l-14 -84h-274l165 946h-176zM301 1204l197 269h131l-228 -269h-100z" />
<glyph unicode="&#xee;" horiz-adv-x="587" d="M139 1202l248 256h107l153 -256h-94l-117 195l-184 -195h-113zM143 946l15 84h276l-168 -946h176l-14 -84h-274l165 946h-176z" />
<glyph unicode="&#xef;" horiz-adv-x="628" d="M184 946l15 84h276l-168 -946h176l-14 -84h-274l165 946h-176zM221 1337q0 32 23 56t55 24t56 -24t24 -56t-23.5 -54.5t-56.5 -22.5q-32 0 -55 22.5t-23 54.5zM508 1337q0 32 23 56t55 24t56 -24t24 -56t-23.5 -54.5t-56.5 -22.5q-32 0 -55 22.5t-23 54.5z" />
<glyph unicode="&#xf0;" horiz-adv-x="1210" d="M119 408q0 166 73 307t200.5 224t279.5 83q111 0 202.5 -65.5t129.5 -176.5q-12 294 -246 486l-316 -140l-28 66l278 123q-91 59 -217 110l53 70q137 -54 256 -139l308 135l28 -66l-272 -118q250 -214 250 -568q0 -156 -40 -295t-112.5 -244t-183.5 -166t-244 -61 q-179 0 -289 122.5t-110 312.5zM223 414q0 -154 82 -251t217 -97q126 0 233.5 82t166.5 206t59 254q0 140 -88.5 231t-220.5 91q-123 0 -227 -72.5t-163 -191t-59 -252.5z" />
<glyph unicode="&#xf1;" horiz-adv-x="1280" d="M143 946l15 84h276l-35 -190q63 99 159 157t216 58q135 0 220 -83t85 -212q0 -40 -6 -80l-106 -596h176l-15 -84h-274l117 670q6 34 6 69q0 103 -62 163.5t-176 60.5q-124 0 -240 -105.5t-139 -236.5l-108 -621h-98l165 946h-176zM492 1247q23 81 75 130.5t123 49.5 q41 0 84.5 -25t82.5 -50t71 -25q35 0 63.5 27.5t44.5 70.5h76q-23 -81 -73.5 -130.5t-120.5 -49.5q-43 0 -86.5 25.5t-82.5 50.5t-73 25q-35 0 -64 -28t-45 -71h-75z" />
<glyph unicode="&#xf2;" horiz-adv-x="1220" d="M123 424q0 126 42.5 242.5t115.5 203.5t177.5 139t223.5 52q186 0 302 -123t116 -320q0 -126 -43 -244t-116.5 -207t-178 -142.5t-221.5 -53.5q-189 0 -303.5 126t-114.5 327zM227 428q0 -161 86.5 -263t227.5 -102q93 0 178.5 46.5t145 123t95 176t35.5 203.5 q0 161 -87.5 259t-227.5 98q-126 0 -231.5 -76.5t-163.5 -200.5t-58 -264zM578 1479h110l94 -277h-88z" />
<glyph unicode="&#xf3;" horiz-adv-x="1220" d="M123 424q0 126 42.5 242.5t115.5 203.5t177.5 139t223.5 52q186 0 302 -123t116 -320q0 -126 -43 -244t-116.5 -207t-178 -142.5t-221.5 -53.5q-189 0 -303.5 126t-114.5 327zM227 428q0 -161 86.5 -263t227.5 -102q93 0 178.5 46.5t145 123t95 176t35.5 203.5 q0 161 -87.5 259t-227.5 98q-126 0 -231.5 -76.5t-163.5 -200.5t-58 -264zM623 1204l196 269h131l-227 -269h-100z" />
<glyph unicode="&#xf4;" horiz-adv-x="1220" d="M123 424q0 126 42.5 242.5t115.5 203.5t177.5 139t223.5 52q186 0 302 -123t116 -320q0 -126 -43 -244t-116.5 -207t-178 -142.5t-221.5 -53.5q-189 0 -303.5 126t-114.5 327zM227 428q0 -161 86.5 -263t227.5 -102q93 0 178.5 46.5t145 123t95 176t35.5 203.5 q0 161 -87.5 259t-227.5 98q-126 0 -231.5 -76.5t-163.5 -200.5t-58 -264zM453 1202l247 256h107l154 -256h-95l-116 195l-185 -195h-112z" />
<glyph unicode="&#xf5;" horiz-adv-x="1220" d="M123 424q0 126 42.5 242.5t115.5 203.5t177.5 139t223.5 52q186 0 302 -123t116 -320q0 -126 -43 -244t-116.5 -207t-178 -142.5t-221.5 -53.5q-189 0 -303.5 126t-114.5 327zM227 428q0 -161 86.5 -263t227.5 -102q93 0 178.5 46.5t145 123t95 176t35.5 203.5 q0 161 -87.5 259t-227.5 98q-126 0 -231.5 -76.5t-163.5 -200.5t-58 -264zM438 1247q23 81 75.5 130.5t123.5 49.5q41 0 84 -25t82 -50t71 -25q35 0 64 27.5t45 70.5h76q-23 -81 -74 -130.5t-121 -49.5q-34 0 -69 16t-59 34.5t-55 34.5t-58 16q-35 0 -64 -28t-45 -71h-76z " />
<glyph unicode="&#xf6;" horiz-adv-x="1220" d="M123 424q0 126 42.5 242.5t115.5 203.5t177.5 139t223.5 52q186 0 302 -123t116 -320q0 -126 -43 -244t-116.5 -207t-178 -142.5t-221.5 -53.5q-189 0 -303.5 126t-114.5 327zM227 428q0 -161 86.5 -263t227.5 -102q93 0 178.5 46.5t145 123t95 176t35.5 203.5 q0 161 -87.5 259t-227.5 98q-126 0 -231.5 -76.5t-163.5 -200.5t-58 -264zM489 1341q0 34 23.5 58t58.5 24t58.5 -24t23.5 -58q0 -35 -23.5 -58t-58.5 -23t-58.5 23t-23.5 58zM823 1341q0 34 22.5 58t57.5 24t58.5 -24t23.5 -58q0 -35 -23.5 -58t-58.5 -23t-57.5 23 t-22.5 58z" />
<glyph unicode="&#xf7;" horiz-adv-x="1142" d="M129 600v86h930v-86h-930zM506 305q0 37 25 63.5t61 26.5q37 0 63.5 -26.5t26.5 -63.5q0 -35 -26.5 -60.5t-63.5 -25.5q-36 0 -61 25t-25 61zM506 977q0 37 25 63.5t61 26.5q37 0 63.5 -26.5t26.5 -63.5q0 -35 -26.5 -60.5t-63.5 -25.5q-36 0 -61 25t-25 61z" />
<glyph unicode="&#xf8;" horiz-adv-x="1220" d="M51 25l137 137q-65 109 -65 262q0 126 42.5 242.5t115.5 203.5t177.5 139t223.5 52q181 0 293 -115l121 121l57 -55l-127 -127q74 -113 74 -267q0 -126 -43 -244t-116.5 -207t-178 -142.5t-221.5 -53.5q-189 0 -303 127l-129 -129zM227 428q0 -105 39 -188l637 634 q-86 95 -223 95q-126 0 -231.5 -76.5t-163.5 -200.5t-58 -264zM309 170q87 -107 232 -107q93 0 178.5 46.5t145 123t95 176t35.5 203.5q0 115 -45 197z" />
<glyph unicode="&#xf9;" horiz-adv-x="1243" d="M137 946l15 84h276l-119 -665q-8 -50 -8 -78q0 -100 55.5 -159.5t155.5 -59.5q79 0 163 58t141 141t71 159l106 604h99l-168 -946h176l-15 -84h-274l37 211q-64 -104 -159.5 -170t-209.5 -66q-123 0 -200.5 84t-77.5 205q0 34 8 92l104 590h-176zM580 1479h110l94 -277 h-88z" />
<glyph unicode="&#xfa;" horiz-adv-x="1243" d="M137 946l15 84h276l-119 -665q-8 -50 -8 -78q0 -100 55.5 -159.5t155.5 -59.5q79 0 163 58t141 141t71 159l106 604h99l-168 -946h176l-15 -84h-274l37 211q-64 -104 -159.5 -170t-209.5 -66q-123 0 -200.5 84t-77.5 205q0 34 8 92l104 590h-176zM625 1204l196 269h131 l-227 -269h-100z" />
<glyph unicode="&#xfb;" horiz-adv-x="1243" d="M137 946l15 84h276l-119 -665q-8 -50 -8 -78q0 -100 55.5 -159.5t155.5 -59.5q79 0 163 58t141 141t71 159l106 604h99l-168 -946h176l-15 -84h-274l37 211q-64 -104 -159.5 -170t-209.5 -66q-123 0 -200.5 84t-77.5 205q0 34 8 92l104 590h-176zM455 1202l247 256h107 l154 -256h-95l-116 195l-185 -195h-112z" />
<glyph unicode="&#xfc;" horiz-adv-x="1243" d="M137 946l15 84h276l-119 -665q-8 -50 -8 -78q0 -100 55.5 -159.5t155.5 -59.5q79 0 163 58t141 141t71 159l106 604h99l-168 -946h176l-15 -84h-274l37 211q-64 -104 -159.5 -170t-209.5 -66q-123 0 -200.5 84t-77.5 205q0 34 8 92l104 590h-176zM492 1341q0 34 23 58 t58 24t58.5 -24t23.5 -58q0 -35 -23.5 -58t-58.5 -23t-58 23t-23 58zM825 1341q0 34 22.5 58t57.5 24t58.5 -24t23.5 -58q0 -35 -23.5 -58t-58.5 -23t-57.5 23t-22.5 58z" />
<glyph unicode="&#xfd;" horiz-adv-x="1079" d="M-133 -371l24 86q37 -16 89 -16q82 0 205.5 79t232.5 204l-205 964h-176l12 84h246l207 -969q176 212 288.5 433t112.5 391q0 38 -2 61h-190l14 84h264q12 -61 12 -139q0 -114 -51 -258t-133.5 -283.5t-191 -274.5t-220.5 -237t-225.5 -164.5t-202.5 -62.5q-63 0 -110 18 zM475 1204l197 269h131l-228 -269h-100z" />
<glyph unicode="&#xfe;" horiz-adv-x="1275" d="M74 -383l313 1782h-178l14 82h277l-119 -680q66 117 170.5 187.5t241.5 70.5q106 0 190 -59t129 -158t45 -219q0 -172 -71 -321t-197 -239t-277 -90q-131 0 -216.5 74t-114.5 195l-109 -625h-98zM313 412q0 -151 83.5 -248.5t217.5 -97.5q119 0 221.5 79t160 205.5 t57.5 267.5q0 154 -78 252t-209 97q-118 -1 -223.5 -80.5t-167.5 -207.5t-62 -267z" />
<glyph unicode="&#xff;" horiz-adv-x="1079" d="M-133 -371l24 86q37 -16 89 -16q82 0 205.5 79t232.5 204l-205 964h-176l12 84h246l207 -969q176 212 288.5 433t112.5 391q0 38 -2 61h-190l14 84h264q12 -61 12 -139q0 -114 -51 -258t-133.5 -283.5t-191 -274.5t-220.5 -237t-225.5 -164.5t-202.5 -62.5q-63 0 -110 18 zM342 1341q0 34 23.5 58t58.5 24t58.5 -24t23.5 -58q0 -35 -23.5 -58t-58.5 -23t-58.5 23t-23.5 58zM676 1341q0 34 22.5 58t57.5 24t58.5 -24t23.5 -58q0 -35 -23.5 -58t-58.5 -23t-57.5 23t-22.5 58z" />
<glyph unicode="&#x100;" horiz-adv-x="1374" d="M-86 0l14 84h152l719 1354h106l238 -1354h151l-14 -84h-453l15 84h194l-71 420h-557l-222 -420h193l-14 -84h-451zM453 592h495l-117 735zM598 1661l14 80h543l-14 -80h-543z" />
<glyph unicode="&#x101;" horiz-adv-x="1284" d="M121 410q0 174 71.5 323.5t194.5 237.5t268 88q136 0 222.5 -71t113.5 -189l41 231h98l-167 -946h176l-15 -84h-274l43 240q-64 -120 -171.5 -193.5t-246.5 -73.5q-152 0 -253 126t-101 311zM225 420q0 -156 74.5 -255t198.5 -99q120 0 227.5 81.5t170 211t62.5 268.5 q0 151 -85.5 245.5t-219.5 94.5q-112 0 -211.5 -76.5t-158 -203t-58.5 -267.5zM438 1278l15 80h542l-14 -80h-543z" />
<glyph unicode="&#x102;" horiz-adv-x="1374" d="M-86 0l14 84h152l719 1354h106l238 -1354h151l-14 -84h-453l15 84h194l-71 420h-557l-222 -420h193l-14 -84h-451zM453 592h495l-117 735zM666 1767q0 26 6 50h80q-4 -28 -4 -39q0 -54 30 -86.5t92 -32.5q70 0 116.5 45.5t57.5 112.5h80q-14 -105 -81 -167.5t-175 -62.5 q-95 0 -148.5 50.5t-53.5 129.5z" />
<glyph unicode="&#x103;" horiz-adv-x="1284" d="M121 410q0 174 71.5 323.5t194.5 237.5t268 88q136 0 222.5 -71t113.5 -189l41 231h98l-167 -946h176l-15 -84h-274l43 240q-64 -120 -171.5 -193.5t-246.5 -73.5q-152 0 -253 126t-101 311zM225 420q0 -156 74.5 -255t198.5 -99q120 0 227.5 81.5t170 211t62.5 268.5 q0 151 -85.5 245.5t-219.5 94.5q-112 0 -211.5 -76.5t-158 -203t-58.5 -267.5zM506 1384q0 26 6 50h80q-4 -28 -4 -39q0 -54 30.5 -86.5t92.5 -32.5q70 0 116.5 45.5t57.5 112.5h80q-14 -105 -81 -167.5t-175 -62.5q-95 0 -149 50.5t-54 129.5z" />
<glyph unicode="&#x104;" horiz-adv-x="1374" d="M-86 0l14 84h152l719 1354h106l238 -1354h151l-14 -84h-94q-91 -27 -150 -84t-59 -125q0 -44 26 -70t66 -26q26 0 58.5 14t54.5 33l41 -70q-67 -61 -172 -61q-69 0 -118.5 48.5t-49.5 117.5q0 65 39.5 123.5t107.5 99.5h-203l15 84h194l-71 420h-557l-222 -420h193 l-14 -84h-451zM453 592h495l-117 735z" />
<glyph unicode="&#x105;" horiz-adv-x="1284" d="M121 410q0 174 71.5 323.5t194.5 237.5t268 88q136 0 222.5 -71t113.5 -189l41 231h98l-167 -946h176l-15 -84h-127q-91 -27 -150 -84t-59 -125q0 -43 26 -69.5t67 -26.5q25 0 57 14t55 33l41 -70q-67 -61 -172 -61q-69 0 -118.5 48.5t-49.5 117.5q0 66 43 127t115 102 l41 234q-64 -120 -171.5 -193.5t-246.5 -73.5q-152 0 -253 126t-101 311zM225 420q0 -156 74.5 -255t198.5 -99q120 0 227.5 81.5t170 211t62.5 268.5q0 151 -85.5 245.5t-219.5 94.5q-112 0 -211.5 -76.5t-158 -203t-58.5 -267.5z" />
<glyph unicode="&#x106;" horiz-adv-x="1378" d="M158 578q0 178 62 341t165.5 281.5t244.5 189t294 70.5q246 0 462 -114l-61 -345h-96l49 277q-156 86 -358 86q-174 0 -324.5 -108t-238 -286.5t-87.5 -379.5q0 -148 48 -264t148 -186t239 -70q136 0 259.5 78.5t204.5 209.5l82 -53q-91 -154 -239.5 -243t-315.5 -89 q-165 0 -289 83t-186.5 219t-62.5 303zM813 1587l197 268h131l-228 -268h-100z" />
<glyph unicode="&#x107;" horiz-adv-x="1091" d="M123 422q0 128 43.5 246t116.5 203.5t173.5 136.5t209.5 51q186 0 354 -101l-47 -266h-90l35 203q-118 72 -256 72q-112 0 -213 -74.5t-161.5 -199t-60.5 -263.5q0 -160 80 -262t209 -102q97 0 188.5 59t157.5 154l72 -58q-71 -115 -183.5 -181.5t-242.5 -66.5 q-171 0 -278 128t-107 321zM571 1204l197 269h131l-227 -269h-101z" />
<glyph unicode="&#x108;" horiz-adv-x="1378" d="M158 578q0 178 62 341t165.5 281.5t244.5 189t294 70.5q246 0 462 -114l-61 -345h-96l49 277q-156 86 -358 86q-174 0 -324.5 -108t-238 -286.5t-87.5 -379.5q0 -148 48 -264t148 -186t239 -70q136 0 259.5 78.5t204.5 209.5l82 -53q-91 -154 -239.5 -243t-315.5 -89 q-165 0 -289 83t-186.5 219t-62.5 303zM643 1585l248 256h106l154 -256h-94l-117 195l-184 -195h-113z" />
<glyph unicode="&#x109;" horiz-adv-x="1091" d="M123 422q0 128 43.5 246t116.5 203.5t173.5 136.5t209.5 51q186 0 354 -101l-47 -266h-90l35 203q-118 72 -256 72q-112 0 -213 -74.5t-161.5 -199t-60.5 -263.5q0 -160 80 -262t209 -102q97 0 188.5 59t157.5 154l72 -58q-71 -115 -183.5 -181.5t-242.5 -66.5 q-171 0 -278 128t-107 321zM401 1202l248 256h107l153 -256h-94l-117 195l-184 -195h-113z" />
<glyph unicode="&#x10a;" horiz-adv-x="1378" d="M158 578q0 178 62 341t165.5 281.5t244.5 189t294 70.5q246 0 462 -114l-61 -345h-96l49 277q-156 86 -358 86q-174 0 -324.5 -108t-238 -286.5t-87.5 -379.5q0 -148 48 -264t148 -186t239 -70q136 0 259.5 78.5t204.5 209.5l82 -53q-91 -154 -239.5 -243t-315.5 -89 q-165 0 -289 83t-186.5 219t-62.5 303zM842 1731q0 37 25.5 62.5t62.5 25.5t62.5 -25.5t25.5 -62.5t-25.5 -63t-62.5 -26t-62.5 26t-25.5 63z" />
<glyph unicode="&#x10b;" horiz-adv-x="1091" d="M123 422q0 128 43.5 246t116.5 203.5t173.5 136.5t209.5 51q186 0 354 -101l-47 -266h-90l35 203q-118 72 -256 72q-112 0 -213 -74.5t-161.5 -199t-60.5 -263.5q0 -160 80 -262t209 -102q97 0 188.5 59t157.5 154l72 -58q-71 -115 -183.5 -181.5t-242.5 -66.5 q-171 0 -278 128t-107 321zM600 1348q0 37 25.5 62.5t62.5 25.5t62.5 -25.5t25.5 -62.5t-25.5 -62.5t-62.5 -25.5t-62.5 25.5t-25.5 62.5z" />
<glyph unicode="&#x10c;" horiz-adv-x="1378" d="M158 578q0 178 62 341t165.5 281.5t244.5 189t294 70.5q246 0 462 -114l-61 -345h-96l49 277q-156 86 -358 86q-174 0 -324.5 -108t-238 -286.5t-87.5 -379.5q0 -148 48 -264t148 -186t239 -70q136 0 259.5 78.5t204.5 209.5l82 -53q-91 -154 -239.5 -243t-315.5 -89 q-165 0 -289 83t-186.5 219t-62.5 303zM688 1841h94l117 -194l184 194h113l-248 -256h-106z" />
<glyph unicode="&#x10d;" horiz-adv-x="1091" d="M123 422q0 128 43.5 246t116.5 203.5t173.5 136.5t209.5 51q186 0 354 -101l-47 -266h-90l35 203q-118 72 -256 72q-112 0 -213 -74.5t-161.5 -199t-60.5 -263.5q0 -160 80 -262t209 -102q97 0 188.5 59t157.5 154l72 -58q-71 -115 -183.5 -181.5t-242.5 -66.5 q-171 0 -278 128t-107 321zM446 1458h95l116 -194l185 194h112l-247 -256h-107z" />
<glyph unicode="&#x10e;" horiz-adv-x="1447" d="M27 0l14 84h176l223 1266h-176l15 84h505q252 0 413 -151.5t161 -401.5q0 -182 -58 -343t-161.5 -280t-256 -188.5t-331.5 -69.5h-524zM322 84h219q202 0 364.5 109t251 290t88.5 394q0 217 -137.5 345t-359.5 128h-203zM627 1841h94l117 -194l184 194h113l-248 -256 h-107z" />
<glyph unicode="&#x10f;" horiz-adv-x="1339" d="M121 410q0 174 71.5 323.5t194.5 237.5t268 88q136 0 222.5 -71t113.5 -189l105 598h-176l14 84h274l-245 -1397h176l-15 -84h-274l43 240q-64 -120 -171.5 -193.5t-246.5 -73.5q-152 0 -253 126t-101 311zM225 420q0 -156 74.5 -255t198.5 -99q120 0 227.5 81.5t170 211 t62.5 268.5q0 151 -85.5 245.5t-219.5 94.5q-112 0 -211.5 -76.5t-158 -203t-58.5 -267.5zM1288 1133l90 348h101l-115 -348h-76z" />
<glyph unicode="&#x110;" horiz-adv-x="1499" d="M78 0l14 84h176l109 621h-225l14 83h227l99 562h-177l15 84h506q252 0 412.5 -151.5t160.5 -401.5q0 -182 -58 -343t-161.5 -280t-256 -188.5t-331.5 -69.5h-524zM373 84h219q202 0 364.5 109t251 290t88.5 394q0 217 -137.5 345t-359.5 128h-203l-98 -562h348l-15 -83 h-350z" />
<glyph unicode="&#x111;" horiz-adv-x="1282" d="M121 410q0 174 71.5 323.5t194.5 237.5t268 88q136 0 222.5 -71t113.5 -189l68 387h-322l13 74h321l25 137h-176l14 84h274l-39 -221h174l-12 -74h-174l-194 -1102h176l-15 -84h-274l43 240q-64 -120 -171.5 -193.5t-246.5 -73.5q-152 0 -253 126t-101 311zM225 420 q0 -156 74.5 -255t198.5 -99q120 0 227.5 81.5t170 211t62.5 268.5q0 151 -85.5 245.5t-219.5 94.5q-112 0 -211.5 -76.5t-158 -203t-58.5 -267.5z" />
<glyph unicode="&#x112;" d="M27 0l14 84h176l223 1266h-176l15 84h880l-57 -334h-96l43 250h-504l-99 -555h474l-17 -93h-473l-108 -618h514l49 274h96l-63 -358h-891zM504 1661l14 80h543l-14 -80h-543z" />
<glyph unicode="&#x113;" horiz-adv-x="1157" d="M123 434q0 166 75.5 310.5t203.5 229.5t276 85q167 0 270 -110t103 -267q0 -68 -23 -162h-795q-6 -40 -6 -82q0 -160 82.5 -265t218.5 -105q102 0 204.5 53.5t174.5 140.5l64 -63q-80 -102 -199.5 -163t-249.5 -61q-180 0 -289.5 129.5t-109.5 329.5zM250 604h688 q8 31 8 82q0 120 -77 202t-197 81q-143 0 -259 -103t-163 -262zM418 1278l14 80h543l-14 -80h-543z" />
<glyph unicode="&#x114;" d="M27 0l14 84h176l223 1266h-176l15 84h880l-57 -334h-96l43 250h-504l-99 -555h474l-17 -93h-473l-108 -618h514l49 274h96l-63 -358h-891zM571 1767q0 22 7 50h79q-4 -28 -4 -39q0 -54 30.5 -86.5t92.5 -32.5q70 0 116.5 45.5t57.5 112.5h80q-14 -105 -81 -167.5 t-175 -62.5q-95 0 -149 50.5t-54 129.5z" />
<glyph unicode="&#x115;" horiz-adv-x="1157" d="M123 434q0 166 75.5 310.5t203.5 229.5t276 85q167 0 270 -110t103 -267q0 -68 -23 -162h-795q-6 -40 -6 -82q0 -160 82.5 -265t218.5 -105q102 0 204.5 53.5t174.5 140.5l64 -63q-80 -102 -199.5 -163t-249.5 -61q-180 0 -289.5 129.5t-109.5 329.5zM250 604h688 q8 31 8 82q0 120 -77 202t-197 81q-143 0 -259 -103t-163 -262zM485 1384q0 22 7 50h79q-4 -28 -4 -39q0 -54 30.5 -86.5t92.5 -32.5q70 0 116.5 45.5t57.5 112.5h80q-14 -105 -81 -167.5t-175 -62.5q-95 0 -149 50.5t-54 129.5z" />
<glyph unicode="&#x116;" d="M27 0l14 84h176l223 1266h-176l15 84h880l-57 -334h-96l43 250h-504l-99 -555h474l-17 -93h-473l-108 -618h514l49 274h96l-63 -358h-891zM707 1731q0 37 25.5 62.5t62.5 25.5t62.5 -25.5t25.5 -62.5t-25.5 -63t-62.5 -26t-62.5 26t-25.5 63z" />
<glyph unicode="&#x117;" horiz-adv-x="1157" d="M123 434q0 166 75.5 310.5t203.5 229.5t276 85q167 0 270 -110t103 -267q0 -68 -23 -162h-795q-6 -40 -6 -82q0 -160 82.5 -265t218.5 -105q102 0 204.5 53.5t174.5 140.5l64 -63q-80 -102 -199.5 -163t-249.5 -61q-180 0 -289.5 129.5t-109.5 329.5zM250 604h688 q8 31 8 82q0 120 -77 202t-197 81q-143 0 -259 -103t-163 -262zM621 1348q0 37 25.5 62.5t62.5 25.5t62.5 -25.5t25.5 -62.5t-25.5 -62.5t-62.5 -25.5t-62.5 25.5t-25.5 62.5z" />
<glyph unicode="&#x118;" d="M27 0l14 84h176l223 1266h-176l15 84h880l-57 -334h-96l43 250h-504l-99 -555h474l-17 -93h-473l-108 -618h514l49 274h96l-63 -358h-37q-91 -27 -150 -84t-59 -125q0 -44 26 -70t66 -26q26 0 58.5 14t54.5 33l41 -70q-67 -61 -173 -61q-69 0 -118 48.5t-49 117.5 q0 65 39.5 123.5t107.5 99.5h-698z" />
<glyph unicode="&#x119;" horiz-adv-x="1157" d="M123 434q0 166 75.5 310.5t203.5 229.5t276 85q167 0 270 -110t103 -267q0 -68 -23 -162h-795q-6 -40 -6 -82q0 -160 82.5 -265t218.5 -105q102 0 204.5 53.5t174.5 140.5l64 -63q-66 -83 -164 -144q-158 -118 -158 -254q0 -45 28.5 -75.5t72.5 -30.5q26 0 58 15.5 t54 37.5l43 -67q-67 -70 -174 -70q-71 0 -123.5 49.5t-52.5 120.5q0 104 100 211q-73 -17 -133 -17q-180 0 -289.5 129.5t-109.5 329.5zM250 604h688q8 31 8 82q0 120 -77 202t-197 81q-143 0 -259 -103t-163 -262z" />
<glyph unicode="&#x11a;" d="M27 0l14 84h176l223 1266h-176l15 84h880l-57 -334h-96l43 250h-504l-99 -555h474l-17 -93h-473l-108 -618h514l49 274h96l-63 -358h-891zM553 1841h94l117 -194l184 194h113l-248 -256h-106z" />
<glyph unicode="&#x11b;" horiz-adv-x="1157" d="M123 434q0 166 75.5 310.5t203.5 229.5t276 85q167 0 270 -110t103 -267q0 -68 -23 -162h-795q-6 -40 -6 -82q0 -160 82.5 -265t218.5 -105q102 0 204.5 53.5t174.5 140.5l64 -63q-80 -102 -199.5 -163t-249.5 -61q-180 0 -289.5 129.5t-109.5 329.5zM250 604h688 q8 31 8 82q0 120 -77 202t-197 81q-143 0 -259 -103t-163 -262zM467 1458h94l117 -194l184 194h113l-248 -256h-106z" />
<glyph unicode="&#x11c;" horiz-adv-x="1495" d="M160 588q0 237 106 438t287.5 317.5t396.5 116.5q255 0 498 -114l-55 -314h-97l43 244q-184 88 -393 88q-140 0 -265.5 -63t-214.5 -167.5t-141.5 -245t-52.5 -290.5q0 -149 49.5 -268t145.5 -189.5t223 -70.5q193 0 347.5 137.5t209.5 367.5h-352l16 93h447l-119 -668 h-90l53 297q-88 -153 -224 -238.5t-294 -85.5q-155 0 -275.5 83t-184.5 222.5t-64 309.5zM666 1585l247 256h107l154 -256h-95l-116 195l-185 -195h-112z" />
<glyph unicode="&#x11d;" horiz-adv-x="1236" d="M76 -262l57 69q51 -51 128 -81.5t165 -30.5q97 0 187 38.5t158.5 118.5t88.5 187l37 205q-63 -120 -170 -191t-248 -71q-153 0 -253.5 126t-100.5 310q0 172 71 320t193.5 234.5t267.5 86.5q136 0 222.5 -71t113.5 -189l41 231h99l-175 -987q-19 -111 -71.5 -196.5 t-127.5 -136.5t-163 -76t-186 -25q-96 0 -185 35.5t-149 93.5zM229 428q0 -156 74.5 -255t198.5 -99q120 0 227.5 80.5t169.5 208t62 264.5q0 151 -86 245.5t-220 94.5q-84 0 -163 -44.5t-136.5 -118.5t-92 -173t-34.5 -203zM426 1202l248 256h106l154 -256h-94l-117 195 l-184 -195h-113z" />
<glyph unicode="&#x11e;" horiz-adv-x="1495" d="M160 588q0 237 106 438t287.5 317.5t396.5 116.5q255 0 498 -114l-55 -314h-97l43 244q-184 88 -393 88q-140 0 -265.5 -63t-214.5 -167.5t-141.5 -245t-52.5 -290.5q0 -149 49.5 -268t145.5 -189.5t223 -70.5q193 0 347.5 137.5t209.5 367.5h-352l16 93h447l-119 -668 h-90l53 297q-88 -153 -224 -238.5t-294 -85.5q-155 0 -275.5 83t-184.5 222.5t-64 309.5zM729 1767q0 26 6 50h80q-4 -28 -4 -39q0 -54 30.5 -86.5t92.5 -32.5q70 0 116.5 45.5t57.5 112.5h80q-14 -105 -81 -167.5t-175 -62.5q-95 0 -149 50.5t-54 129.5z" />
<glyph unicode="&#x11f;" horiz-adv-x="1236" d="M76 -262l57 69q51 -51 128 -81.5t165 -30.5q97 0 187 38.5t158.5 118.5t88.5 187l37 205q-63 -120 -170 -191t-248 -71q-153 0 -253.5 126t-100.5 310q0 172 71 320t193.5 234.5t267.5 86.5q136 0 222.5 -71t113.5 -189l41 231h99l-175 -987q-19 -111 -71.5 -196.5 t-127.5 -136.5t-163 -76t-186 -25q-96 0 -185 35.5t-149 93.5zM229 428q0 -156 74.5 -255t198.5 -99q120 0 227.5 80.5t169.5 208t62 264.5q0 151 -86 245.5t-220 94.5q-84 0 -163 -44.5t-136.5 -118.5t-92 -173t-34.5 -203zM489 1384q0 22 7 50h79q-4 -28 -4 -39 q0 -54 30.5 -86.5t92.5 -32.5q70 0 116.5 45.5t57.5 112.5h80q-14 -105 -81 -167.5t-175 -62.5q-95 0 -149 50.5t-54 129.5z" />
<glyph unicode="&#x120;" horiz-adv-x="1495" d="M160 588q0 237 106 438t287.5 317.5t396.5 116.5q255 0 498 -114l-55 -314h-97l43 244q-184 88 -393 88q-140 0 -265.5 -63t-214.5 -167.5t-141.5 -245t-52.5 -290.5q0 -149 49.5 -268t145.5 -189.5t223 -70.5q193 0 347.5 137.5t209.5 367.5h-352l16 93h447l-119 -668 h-90l53 297q-88 -153 -224 -238.5t-294 -85.5q-155 0 -275.5 83t-184.5 222.5t-64 309.5zM864 1731q0 37 25.5 62.5t62.5 25.5t62.5 -25.5t25.5 -62.5t-25.5 -63t-62.5 -26t-62.5 26t-25.5 63z" />
<glyph unicode="&#x121;" horiz-adv-x="1236" d="M76 -262l57 69q51 -51 128 -81.5t165 -30.5q97 0 187 38.5t158.5 118.5t88.5 187l37 205q-63 -120 -170 -191t-248 -71q-153 0 -253.5 126t-100.5 310q0 172 71 320t193.5 234.5t267.5 86.5q136 0 222.5 -71t113.5 -189l41 231h99l-175 -987q-19 -111 -71.5 -196.5 t-127.5 -136.5t-163 -76t-186 -25q-96 0 -185 35.5t-149 93.5zM229 428q0 -156 74.5 -255t198.5 -99q120 0 227.5 80.5t169.5 208t62 264.5q0 151 -86 245.5t-220 94.5q-84 0 -163 -44.5t-136.5 -118.5t-92 -173t-34.5 -203zM625 1348q0 37 25.5 62.5t62.5 25.5t62.5 -25.5 t25.5 -62.5t-25.5 -62.5t-62.5 -25.5t-62.5 25.5t-25.5 62.5z" />
<glyph unicode="&#x122;" horiz-adv-x="1495" d="M160 588q0 237 106 438t287.5 317.5t396.5 116.5q255 0 498 -114l-55 -314h-97l43 244q-184 88 -393 88q-140 0 -265.5 -63t-214.5 -167.5t-141.5 -245t-52.5 -290.5q0 -149 49.5 -268t145.5 -189.5t223 -70.5q193 0 347.5 137.5t209.5 367.5h-352l16 93h447l-119 -668 h-90l53 297q-88 -153 -224 -238.5t-294 -85.5q-155 0 -275.5 83t-184.5 222.5t-64 309.5zM520 -410q84 78 84 172q0 36 -22 86l112 50q29 -56 29 -99q0 -62 -48.5 -127t-121.5 -116z" />
<glyph unicode="&#x123;" horiz-adv-x="1236" d="M76 -262l57 69q51 -51 128 -81.5t165 -30.5q97 0 187 38.5t158.5 118.5t88.5 187l37 205q-63 -120 -170 -191t-248 -71q-153 0 -253.5 126t-100.5 310q0 172 71 320t193.5 234.5t267.5 86.5q136 0 222.5 -71t113.5 -189l41 231h99l-175 -987q-19 -111 -71.5 -196.5 t-127.5 -136.5t-163 -76t-186 -25q-96 0 -185 35.5t-149 93.5zM229 428q0 -156 74.5 -255t198.5 -99q120 0 227.5 80.5t169.5 208t62 264.5q0 151 -86 245.5t-220 94.5q-84 0 -163 -44.5t-136.5 -118.5t-92 -173t-34.5 -203zM621 1255q0 62 48.5 127.5t121.5 116.5l32 -35 q-84 -78 -84 -172q0 -34 23 -86l-113 -49q-28 54 -28 98z" />
<glyph unicode="&#x124;" horiz-adv-x="1593" d="M27 0l14 84h176l223 1266h-176l15 84h456l-14 -84h-176l-101 -572h799l100 572h-176l15 84h456l-14 -84h-176l-223 -1266h176l-15 -84h-456l14 84h176l107 602h-799l-106 -602h176l-15 -84h-456zM711 1585l247 256h107l154 -256h-95l-116 195l-185 -195h-112z" />
<glyph unicode="&#x125;" horiz-adv-x="1267" d="M139 0l246 1397h-176l14 84h275l-113 -641q62 99 159.5 157t217.5 58q135 0 220 -83t85 -212q0 -40 -6 -80l-107 -596h176l-14 -84h-274l116 670q7 40 7 69q0 103 -62 163.5t-176 60.5q-124 0 -241 -105.5t-140 -236.5l-108 -621h-99zM526 1561l248 256h107l153 -256h-94 l-117 194l-184 -194h-113z" />
<glyph unicode="&#x126;" horiz-adv-x="1595" d="M29 0l14 84h176l166 942h-178l14 84h178l43 240h-176l15 84h456l-14 -84h-176l-43 -240h799l43 240h-177l15 84h456l-14 -84h-176l-43 -240h174l-14 -84h-174l-166 -942h176l-14 -84h-457l14 84h176l107 602h-799l-106 -602h176l-15 -84h-456zM446 778h799l43 248h-799z " />
<glyph unicode="&#x127;" horiz-adv-x="1265" d="M139 0l209 1186h-176l12 74h176l25 137h-176l14 84h275l-39 -221h303l-12 -74h-304l-61 -346q62 99 159.5 157t217.5 58q135 0 220 -83t85 -212q0 -40 -6 -80l-107 -596h176l-14 -84h-274l116 670q7 40 7 69q0 103 -62 163.5t-176 60.5q-124 0 -241 -105.5t-140 -236.5 l-108 -621h-99z" />
<glyph unicode="&#x128;" horiz-adv-x="690" d="M27 0l14 84h176l223 1266h-176l15 84h456l-14 -84h-176l-223 -1266h176l-15 -84h-456zM244 1630q23 81 75 130.5t123 49.5q41 0 84.5 -25t82.5 -50t71 -25q35 0 63.5 27.5t44.5 70.5h76q-23 -81 -73.5 -130.5t-120.5 -49.5q-34 0 -69 16t-59.5 34.5t-55.5 34.5t-58 16 q-35 0 -64 -28t-45 -71h-75z" />
<glyph unicode="&#x129;" horiz-adv-x="587" d="M96 1247q23 81 75.5 130.5t123.5 49.5q41 0 84 -25t82 -50t71 -25q35 0 64 27.5t45 70.5h76q-23 -81 -74 -130.5t-121 -49.5q-34 0 -69 16t-59 34.5t-55 34.5t-58 16q-35 0 -64 -28t-45 -71h-76zM143 946l15 84h276l-168 -946h176l-14 -84h-274l165 946h-176z" />
<glyph unicode="&#x12a;" horiz-adv-x="690" d="M27 0l14 84h176l223 1266h-176l15 84h456l-14 -84h-176l-223 -1266h176l-15 -84h-456zM254 1661l14 80h543l-14 -80h-543z" />
<glyph unicode="&#x12b;" horiz-adv-x="587" d="M143 946l15 84h276l-168 -946h176l-14 -84h-274l165 946h-176zM145 1278l15 80h542l-14 -80h-543z" />
<glyph unicode="&#x12c;" horiz-adv-x="690" d="M27 0l14 84h176l223 1266h-176l15 84h456l-14 -84h-176l-223 -1266h176l-15 -84h-456zM322 1767q0 26 6 50h80q-5 -35 -5 -39q0 -54 30.5 -86.5t92.5 -32.5q70 0 116.5 45.5t57.5 112.5h80q-14 -105 -81 -167.5t-175 -62.5q-95 0 -148.5 50.5t-53.5 129.5z" />
<glyph unicode="&#x12d;" horiz-adv-x="587" d="M143 946l15 84h276l-168 -946h176l-14 -84h-274l165 946h-176zM199 1384q0 26 6 50h80q-4 -28 -4 -39q0 -54 30 -86.5t92 -32.5q70 0 117 45.5t58 112.5h79q-14 -105 -81 -167.5t-175 -62.5q-95 0 -148.5 50.5t-53.5 129.5z" />
<glyph unicode="&#x12e;" horiz-adv-x="690" d="M27 0l14 84h176l223 1266h-176l15 84h456l-14 -84h-176l-223 -1266h176l-15 -84h-71q-91 -27 -150 -84t-59 -125q0 -44 26 -70t66 -26q26 0 58.5 14t54.5 33l41 -70q-67 -61 -173 -61q-69 0 -118 48.5t-49 117.5q0 65 39.5 123.5t107.5 99.5h-229z" />
<glyph unicode="&#x12f;" horiz-adv-x="585" d="M76 -223q0 65 39.5 123.5t107.5 99.5h-69l165 946h-176l15 84h276l-168 -946h176l-14 -84h-49q-91 -27 -150 -84t-59 -125q0 -44 26 -70t66 -26q26 0 58.5 14t54.5 33l41 -70q-67 -61 -172 -61q-69 0 -118.5 48.5t-49.5 117.5zM338 1348q0 37 25.5 62.5t62.5 25.5 t62.5 -25.5t25.5 -62.5t-25.5 -62.5t-62.5 -25.5t-62.5 25.5t-25.5 62.5z" />
<glyph unicode="&#x130;" horiz-adv-x="690" d="M27 0l14 84h176l223 1266h-176l15 84h456l-14 -84h-176l-223 -1266h176l-15 -84h-456zM457 1731q0 37 25.5 62.5t62.5 25.5t62.5 -25.5t25.5 -62.5t-25.5 -63t-62.5 -26t-62.5 26t-25.5 63z" />
<glyph unicode="&#x131;" horiz-adv-x="585" d="M143 946l15 84h276l-168 -946h176l-14 -84h-274l165 946h-176z" />
<glyph unicode="&#x132;" horiz-adv-x="1361" d="M27 0l14 84h176l223 1266h-176l15 84h456l-14 -84h-176l-223 -1266h176l-15 -84h-456zM528 -199l27 90q62 -32 127 -32q89 0 157 63t87 166l223 1262h-215l14 84h492l-15 -84h-172l-223 -1268q-27 -150 -123.5 -232.5t-226.5 -82.5q-86 0 -152 34z" />
<glyph unicode="&#x133;" d="M143 946l15 84h276l-168 -946h176l-14 -84h-274l165 946h-176zM338 1348q0 37 25.5 62.5t62.5 25.5t62.5 -25.5t25.5 -62.5t-25.5 -62.5t-62.5 -25.5t-62.5 25.5t-25.5 62.5zM436 -379l17 86q30 -10 73 -10q75 0 131.5 59t75.5 160l182 1030h-176l15 84h274l-197 -1118 q-25 -141 -104.5 -221t-198.5 -80q-50 0 -92 10zM924 1348q0 37 25.5 62.5t62.5 25.5t62.5 -25.5t25.5 -62.5t-25.5 -62.5t-62.5 -25.5t-62.5 25.5t-25.5 62.5z" />
<glyph unicode="&#x134;" horiz-adv-x="671" d="M-162 -199l27 90q62 -32 127 -32q89 0 157 63t87 166l223 1262h-215l14 84h492l-15 -84h-172l-223 -1268q-27 -150 -123.5 -232.5t-226.5 -82.5q-86 0 -152 34zM256 1585l248 256h106l154 -256h-94l-117 195l-184 -195h-113z" />
<glyph unicode="&#x135;" horiz-adv-x="546" d="M-150 -379l17 86q30 -10 74 -10q75 0 131 59t75 160l183 1030h-176l14 84h274l-196 -1118q-25 -141 -104.5 -221t-198.5 -80q-51 0 -93 10zM129 1202l248 256h106l154 -256h-94l-117 195l-184 -195h-113z" />
<glyph unicode="&#x136;" horiz-adv-x="1320" d="M27 0l14 84h176l223 1266h-176l15 84h436l-15 -84h-155l-105 -594l707 594h-176l14 84h465l-14 -84h-164l-723 -611l516 -655h178l-14 -84h-469l14 84h164l-504 639l-112 -639h161l-14 -84h-442zM469 -410q84 78 84 172q0 34 -23 86l113 50q29 -56 29 -99 q0 -62 -48.5 -127t-121.5 -116z" />
<glyph unicode="&#x137;" horiz-adv-x="1046" d="M137 0l248 1397h-176l14 84h275l-152 -856q180 51 319.5 157t200.5 248h117q-70 -166 -214.5 -281.5t-332.5 -170.5l361 -494h174l-15 -84h-221l-399 559l-100 -559h-99zM330 -410q84 78 84 172q0 34 -23 86l113 50q28 -54 28 -99q0 -62 -48.5 -127t-121.5 -116z" />
<glyph unicode="&#x138;" horiz-adv-x="1060" d="M143 946l15 84h274l-72 -405q180 51 320 157t201 248h116q-70 -166 -214.5 -281.5t-331.5 -170.5l360 -494h174l-14 -84h-221l-400 559l-100 -559h-98l167 946h-176z" />
<glyph unicode="&#x139;" horiz-adv-x="1097" d="M27 0l14 84h176l223 1266h-176l15 84h466l-14 -84h-186l-223 -1266h518l53 301h96l-67 -385h-895zM444 1587l197 268h131l-227 -268h-101z" />
<glyph unicode="&#x13a;" horiz-adv-x="577" d="M139 0l246 1397h-176l14 84h275l-246 -1397h176l-14 -84h-275zM371 1614l196 268h131l-227 -268h-100z" />
<glyph unicode="&#x13b;" horiz-adv-x="1097" d="M27 0l14 84h176l223 1266h-176l15 84h466l-14 -84h-186l-223 -1266h518l53 301h96l-67 -385h-895zM397 -410q84 78 84 172q0 36 -22 86l112 50q29 -56 29 -99q0 -62 -48.5 -127t-121.5 -116z" />
<glyph unicode="&#x13c;" horiz-adv-x="571" d="M51 -410q84 78 84 172q0 36 -22 86l112 50q29 -56 29 -99q0 -62 -48.5 -127t-121.5 -116zM139 0l246 1397h-176l14 84h275l-246 -1397h176l-14 -84h-275z" />
<glyph unicode="&#x13d;" horiz-adv-x="1097" d="M27 0l14 84h176l223 1266h-176l15 84h466l-14 -84h-186l-223 -1266h518l53 301h96l-67 -385h-895zM858 1133l90 348h101l-115 -348h-76z" />
<glyph unicode="&#x13e;" horiz-adv-x="636" d="M139 0l246 1397h-176l14 84h275l-246 -1397h176l-14 -84h-275zM586 1133l90 348h100l-114 -348h-76z" />
<glyph unicode="&#x13f;" d="M27 0l14 84h176l223 1266h-176l15 84h466l-14 -84h-186l-223 -1266h518l53 301h96l-67 -385h-895zM866 727q0 38 30 67t69 29q38 0 68 -29t30 -67t-30 -68t-68 -30t-68.5 30t-30.5 68z" />
<glyph unicode="&#x140;" horiz-adv-x="827" d="M139 0l246 1397h-176l14 84h275l-246 -1397h176l-14 -84h-275zM625 727q0 38 30 67t68 29t68 -29t30 -67t-30 -68t-68 -30t-68 30t-30 68z" />
<glyph unicode="&#x141;" horiz-adv-x="1171" d="M100 0l15 84h176l104 592l-262 -107l17 95l262 106l102 580h-176l14 84h467l-14 -84h-187l-94 -533l336 137l-16 -94l-336 -137l-113 -639h518l54 301h96l-68 -385h-895z" />
<glyph unicode="&#x142;" horiz-adv-x="647" d="M57 606l17 92l248 121l102 578h-176l14 84h275l-107 -611l260 127l-16 -92l-260 -127l-123 -694h176l-14 -84h-275l127 727z" />
<glyph unicode="&#x143;" horiz-adv-x="1574" d="M27 0l14 84h176l223 1266h-176l15 84h280l596 -1274l209 1190h-176l14 84h449l-15 -84h-176l-237 -1350h-107l-592 1276l-211 -1192h176l-14 -84h-448zM858 1608l197 268h131l-228 -268h-100z" />
<glyph unicode="&#x144;" horiz-adv-x="1280" d="M143 946l15 84h276l-35 -190q63 99 159 157t216 58q135 0 220 -83t85 -212q0 -40 -6 -80l-106 -596h176l-15 -84h-274l117 670q6 34 6 69q0 103 -62 163.5t-176 60.5q-124 0 -240 -105.5t-139 -236.5l-108 -621h-98l165 946h-176zM676 1204l196 269h132l-228 -269h-100z " />
<glyph unicode="&#x145;" horiz-adv-x="1574" d="M27 0l14 84h176l223 1266h-176l15 84h280l596 -1274l209 1190h-176l14 84h449l-15 -84h-176l-237 -1350h-107l-592 1276l-211 -1192h176l-14 -84h-448zM596 -410q84 78 84 172q0 34 -23 86l113 50q29 -56 29 -99q0 -62 -48.5 -127t-121.5 -116z" />
<glyph unicode="&#x146;" horiz-adv-x="1280" d="M143 946l15 84h276l-35 -190q63 99 159 157t216 58q135 0 220 -83t85 -212q0 -40 -6 -80l-106 -596h176l-15 -84h-274l117 670q6 34 6 69q0 103 -62 163.5t-176 60.5q-124 0 -240 -105.5t-139 -236.5l-108 -621h-98l165 946h-176zM414 -410q84 78 84 172q0 34 -23 86 l113 50q28 -54 28 -99q0 -62 -48.5 -127t-121.5 -116z" />
<glyph unicode="&#x147;" horiz-adv-x="1574" d="M27 0l14 84h176l223 1266h-176l15 84h280l596 -1274l209 1190h-176l14 84h449l-15 -84h-176l-237 -1350h-107l-592 1276l-211 -1192h176l-14 -84h-448zM733 1862h94l117 -195l184 195h113l-248 -256h-106z" />
<glyph unicode="&#x148;" horiz-adv-x="1280" d="M143 946l15 84h276l-35 -190q63 99 159 157t216 58q135 0 220 -83t85 -212q0 -40 -6 -80l-106 -596h176l-15 -84h-274l117 670q6 34 6 69q0 103 -62 163.5t-176 60.5q-124 0 -240 -105.5t-139 -236.5l-108 -621h-98l165 946h-176zM551 1458h94l117 -194l184 194h113 l-248 -256h-106z" />
<glyph unicode="&#x149;" horiz-adv-x="1413" d="M123 1114q98 95 98 201q0 42 -26 96l129 55q30 -54 30 -108q0 -141 -190 -283zM276 946l15 84h276l-35 -190q63 99 159 157t216 58q135 0 220 -83t85 -212q0 -40 -6 -80l-106 -596h176l-14 -84h-275l117 670q6 34 6 69q0 103 -62 163.5t-176 60.5q-124 0 -239.5 -105.5 t-138.5 -236.5l-109 -621h-98l166 946h-177z" />
<glyph unicode="&#x14a;" horiz-adv-x="1574" d="M27 0l14 84h176l223 1266h-176l15 84h280l596 -1276l209 1192h-176l14 84h449l-15 -84h-176l-254 -1438q-25 -141 -104.5 -221t-198.5 -80q-50 0 -92 10l16 86q30 -10 74 -10q76 0 133 59.5t76 159.5l12 74l-598 1286l-211 -1192h176l-14 -84h-448z" />
<glyph unicode="&#x14b;" horiz-adv-x="1243" d="M143 946l15 84h276l-35 -190q63 99 159 157t216 58q135 0 220 -83t85 -212q0 -40 -6 -80l-135 -768q-23 -140 -103.5 -220.5t-199.5 -80.5q-50 0 -92 10l16 86q30 -10 74 -10q77 0 133 57.5t74 161.5l131 754q6 34 6 69q0 103 -62 163.5t-176 60.5q-124 0 -240 -105.5 t-139 -236.5l-108 -621h-98l165 946h-176z" />
<glyph unicode="&#x14c;" horiz-adv-x="1572" d="M156 571q0 140 39 274t110.5 244t167 193.5t215.5 129.5t248 46q248 0 401.5 -162t153.5 -415q0 -174 -61.5 -339.5t-165 -290.5t-250 -201.5t-305.5 -76.5q-165 0 -291.5 78t-194 213.5t-67.5 306.5zM268 582q0 -148 52 -263.5t154.5 -182t240.5 -66.5q110 0 212.5 44.5 t183 122.5t141.5 178.5t93.5 217.5t32.5 235q0 223 -119.5 358.5t-330.5 135.5q-110 0 -212.5 -42t-182.5 -117t-140.5 -172t-92.5 -213t-32 -236zM680 1661l14 80h543l-14 -80h-543z" />
<glyph unicode="&#x14d;" horiz-adv-x="1220" d="M123 424q0 126 42.5 242.5t115.5 203.5t177.5 139t223.5 52q186 0 302 -123t116 -320q0 -126 -43 -244t-116.5 -207t-178 -142.5t-221.5 -53.5q-189 0 -303.5 126t-114.5 327zM227 428q0 -161 86.5 -263t227.5 -102q93 0 178.5 46.5t145 123t95 176t35.5 203.5 q0 161 -87.5 259t-227.5 98q-126 0 -231.5 -76.5t-163.5 -200.5t-58 -264zM449 1278l14 80h543l-15 -80h-542z" />
<glyph unicode="&#x14e;" horiz-adv-x="1572" d="M156 571q0 140 39 274t110.5 244t167 193.5t215.5 129.5t248 46q248 0 401.5 -162t153.5 -415q0 -174 -61.5 -339.5t-165 -290.5t-250 -201.5t-305.5 -76.5q-165 0 -291.5 78t-194 213.5t-67.5 306.5zM268 582q0 -148 52 -263.5t154.5 -182t240.5 -66.5q110 0 212.5 44.5 t183 122.5t141.5 178.5t93.5 217.5t32.5 235q0 223 -119.5 358.5t-330.5 135.5q-110 0 -212.5 -42t-182.5 -117t-140.5 -172t-92.5 -213t-32 -236zM748 1767q0 26 6 50h80q-5 -35 -5 -39q0 -54 30.5 -86.5t92.5 -32.5q70 0 116.5 45.5t57.5 112.5h80q-14 -105 -81 -167.5 t-175 -62.5q-95 0 -148.5 50.5t-53.5 129.5z" />
<glyph unicode="&#x14f;" horiz-adv-x="1220" d="M123 424q0 126 42.5 242.5t115.5 203.5t177.5 139t223.5 52q186 0 302 -123t116 -320q0 -126 -43 -244t-116.5 -207t-178 -142.5t-221.5 -53.5q-189 0 -303.5 126t-114.5 327zM227 428q0 -161 86.5 -263t227.5 -102q93 0 178.5 46.5t145 123t95 176t35.5 203.5 q0 161 -87.5 259t-227.5 98q-126 0 -231.5 -76.5t-163.5 -200.5t-58 -264zM516 1384q0 26 6 50h80q-4 -28 -4 -39q0 -54 30.5 -86.5t92.5 -32.5q70 0 116.5 45.5t57.5 112.5h80q-14 -105 -81 -167.5t-175 -62.5q-95 0 -149 50.5t-54 129.5z" />
<glyph unicode="&#x150;" horiz-adv-x="1572" d="M156 571q0 140 39 274t110.5 244t167 193.5t215.5 129.5t248 46q248 0 401.5 -162t153.5 -415q0 -174 -61.5 -339.5t-165 -290.5t-250 -201.5t-305.5 -76.5q-165 0 -291.5 78t-194 213.5t-67.5 306.5zM268 582q0 -148 52 -263.5t154.5 -182t240.5 -66.5q110 0 212.5 44.5 t183 122.5t141.5 178.5t93.5 217.5t32.5 235q0 223 -119.5 358.5t-330.5 135.5q-110 0 -212.5 -42t-182.5 -117t-140.5 -172t-92.5 -213t-32 -236zM788 1595l166 265h109l-193 -265h-82zM1034 1595l166 265h109l-193 -265h-82z" />
<glyph unicode="&#x151;" horiz-adv-x="1220" d="M123 424q0 126 42.5 242.5t115.5 203.5t177.5 139t223.5 52q186 0 302 -123t116 -320q0 -126 -43 -244t-116.5 -207t-178 -142.5t-221.5 -53.5q-189 0 -303.5 126t-114.5 327zM227 428q0 -161 86.5 -263t227.5 -102q93 0 178.5 46.5t145 123t95 176t35.5 203.5 q0 161 -87.5 259t-227.5 98q-126 0 -231.5 -76.5t-163.5 -200.5t-58 -264zM557 1212l166 265h108l-192 -265h-82zM803 1212l166 265h108l-192 -265h-82z" />
<glyph unicode="&#x152;" horiz-adv-x="2146" d="M156 571q0 175 60.5 338t163.5 284t249 194t307 73q88 0 174 -26h1042l-59 -334h-96l45 250h-774q98 -80 152.5 -203.5t54.5 -269.5q0 -11 -5 -84h441l-13 -91h-440q-34 -192 -137.5 -356t-253.5 -262h764l47 274h96l-63 -358h-1024q-96 -27 -182 -27q-164 0 -289.5 78 t-192.5 213.5t-67 306.5zM268 582q0 -226 119 -369t324 -143q136 0 259 69.5t209 181t136.5 254.5t50.5 289q0 219 -117.5 359.5t-318.5 140.5q-138 0 -262 -66t-211 -174t-138 -250t-51 -292z" />
<glyph unicode="&#x153;" horiz-adv-x="2019" d="M123 424q0 126 42.5 242.5t115.5 203.5t177.5 139t223.5 52q146 0 251.5 -79t145.5 -214q75 132 197.5 211.5t263.5 79.5q167 0 270 -110t103 -267q0 -68 -23 -162h-796q-7 -47 -7 -82q0 -160 83.5 -265t220.5 -105q102 0 204 53.5t174 140.5l64 -63 q-80 -102 -199.5 -163t-249.5 -61q-139 0 -235.5 81.5t-136.5 217.5q-74 -138 -198.5 -220.5t-272.5 -82.5q-189 0 -303.5 126t-114.5 327zM227 428q0 -161 86.5 -263t227.5 -102q93 0 178.5 46.5t145 123t95 176t35.5 203.5q0 161 -87.5 259t-227.5 98q-126 0 -231.5 -76.5 t-163.5 -200.5t-58 -264zM1110 604h690q8 31 8 82q0 119 -76.5 201t-197.5 82q-143 0 -261 -103t-163 -262z" />
<glyph unicode="&#x154;" horiz-adv-x="1255" d="M27 0l14 84h176l223 1266h-176l15 84h526q151 0 248.5 -86.5t97.5 -225.5q0 -173 -118 -300.5t-298 -157.5l258 -580h185l-15 -84h-252l-276 649h-213l-100 -565h182l-15 -84h-462zM436 733h209q161 0 278 113.5t117 267.5q0 110 -72 173t-188 63h-235zM692 1587l197 268 h131l-227 -268h-101z" />
<glyph unicode="&#x155;" horiz-adv-x="843" d="M143 946l15 84h274l-43 -254q56 124 149.5 201.5t202.5 77.5q78 0 146 -35l-53 -96q-58 26 -119 26q-84 0 -164 -60t-132 -150t-69 -185l-98 -555h-98l165 946h-176zM528 1204l197 269h131l-227 -269h-101z" />
<glyph unicode="&#x156;" horiz-adv-x="1255" d="M27 0l14 84h176l223 1266h-176l15 84h526q151 0 248.5 -86.5t97.5 -225.5q0 -173 -118 -300.5t-298 -157.5l258 -580h185l-15 -84h-252l-276 649h-213l-100 -565h182l-15 -84h-462zM436 733h209q161 0 278 113.5t117 267.5q0 110 -72 173t-188 63h-235zM492 -410 q83 77 83 172q0 36 -22 86l113 50q28 -54 28 -99q0 -62 -48.5 -127t-121.5 -116z" />
<glyph unicode="&#x157;" horiz-adv-x="843" d="M61 -410q84 78 84 172q0 36 -22 86l113 50q28 -54 28 -99q0 -62 -48.5 -127t-121.5 -116zM143 946l15 84h274l-43 -254q56 124 149.5 201.5t202.5 77.5q78 0 146 -35l-53 -96q-58 26 -119 26q-84 0 -164 -60t-132 -150t-69 -185l-98 -555h-98l165 946h-176z" />
<glyph unicode="&#x158;" horiz-adv-x="1255" d="M27 0l14 84h176l223 1266h-176l15 84h526q151 0 248.5 -86.5t97.5 -225.5q0 -173 -118 -300.5t-298 -157.5l258 -580h185l-15 -84h-252l-276 649h-213l-100 -565h182l-15 -84h-462zM436 733h209q161 0 278 113.5t117 267.5q0 110 -72 173t-188 63h-235zM567 1841h95 l116 -194l185 194h112l-248 -256h-106z" />
<glyph unicode="&#x159;" horiz-adv-x="843" d="M143 946l15 84h274l-43 -254q56 124 149.5 201.5t202.5 77.5q78 0 146 -35l-53 -96q-58 26 -119 26q-84 0 -164 -60t-132 -150t-69 -185l-98 -555h-98l165 946h-176zM403 1458h95l116 -194l185 194h112l-247 -256h-107z" />
<glyph unicode="&#x15a;" horiz-adv-x="1048" d="M47 57l59 346h97l-47 -268q144 -67 301 -67q143 0 242.5 98.5t99.5 239.5q0 64 -30.5 118t-79.5 93t-107.5 75.5t-117.5 74.5t-108 80t-79.5 102t-30.5 132q0 167 116 273t289 106q185 0 381 -80l-55 -319h-96l43 246q-132 61 -275 61q-128 0 -213.5 -77t-85.5 -197 q0 -59 30.5 -109t79.5 -87.5t107.5 -73t117.5 -74t108 -82.5t79.5 -107t30.5 -139q0 -193 -128.5 -320t-319.5 -127q-198 0 -408 82zM592 1587l196 268h132l-228 -268h-100z" />
<glyph unicode="&#x15b;" horiz-adv-x="956" d="M61 51l45 258h91l-33 -188q127 -58 260 -58q109 0 185.5 64.5t76.5 161.5q0 47 -27 85t-70.5 64.5t-96 51t-105.5 51t-96.5 57.5t-70.5 77t-27 103q0 122 97 199.5t234 77.5q173 0 332 -78l-41 -225h-90l29 161q-107 56 -230 56q-97 0 -165 -51.5t-68 -133.5 q0 -43 27.5 -77.5t71 -59t96 -48t105.5 -50.5t96.5 -59.5t71 -82t27.5 -110.5q0 -142 -106 -232t-258 -90q-189 0 -361 76zM485 1204l197 269h131l-227 -269h-101z" />
<glyph unicode="&#x15c;" horiz-adv-x="1048" d="M47 57l59 346h97l-47 -268q144 -67 301 -67q143 0 242.5 98.5t99.5 239.5q0 64 -30.5 118t-79.5 93t-107.5 75.5t-117.5 74.5t-108 80t-79.5 102t-30.5 132q0 167 116 273t289 106q185 0 381 -80l-55 -319h-96l43 246q-132 61 -275 61q-128 0 -213.5 -77t-85.5 -197 q0 -59 30.5 -109t79.5 -87.5t107.5 -73t117.5 -74t108 -82.5t79.5 -107t30.5 -139q0 -193 -128.5 -320t-319.5 -127q-198 0 -408 82zM422 1585l248 256h106l154 -256h-94l-117 195l-184 -195h-113z" />
<glyph unicode="&#x15d;" horiz-adv-x="956" d="M61 51l45 258h91l-33 -188q127 -58 260 -58q109 0 185.5 64.5t76.5 161.5q0 47 -27 85t-70.5 64.5t-96 51t-105.5 51t-96.5 57.5t-70.5 77t-27 103q0 122 97 199.5t234 77.5q173 0 332 -78l-41 -225h-90l29 161q-107 56 -230 56q-97 0 -165 -51.5t-68 -133.5 q0 -43 27.5 -77.5t71 -59t96 -48t105.5 -50.5t96.5 -59.5t71 -82t27.5 -110.5q0 -142 -106 -232t-258 -90q-189 0 -361 76zM315 1202l248 256h107l153 -256h-94l-117 195l-184 -195h-113z" />
<glyph unicode="&#x15e;" horiz-adv-x="1048" d="M47 57l59 346h97l-47 -268q144 -67 301 -67q143 0 242.5 98.5t99.5 239.5q0 64 -30.5 118t-79.5 93t-107.5 75.5t-117.5 74.5t-108 80t-79.5 102t-30.5 132q0 167 116 273t289 106q185 0 381 -80l-55 -319h-96l43 246q-132 61 -275 61q-128 0 -213.5 -77t-85.5 -197 q0 -59 30.5 -109t79.5 -87.5t107.5 -73t117.5 -74t108 -82.5t79.5 -107t30.5 -139q0 -182 -114.5 -306t-290.5 -139l-27 -77q55 -3 94 -43t39 -99q0 -82 -61.5 -129t-151.5 -47q-54 0 -98 23l26 76q38 -21 72 -21q54 0 89.5 26t35.5 68q0 40 -28.5 62t-71.5 22q-21 0 -41 -4 l51 141q-191 6 -379 82z" />
<glyph unicode="&#x15f;" horiz-adv-x="956" d="M61 51l45 258h91l-33 -188q127 -58 260 -58q109 0 185.5 64.5t76.5 161.5q0 47 -27 85t-70.5 64.5t-96 51t-105.5 51t-96.5 57.5t-70.5 77t-27 103q0 122 97 199.5t234 77.5q173 0 332 -78l-41 -225h-90l29 161q-107 56 -230 56q-97 0 -165 -51.5t-68 -133.5 q0 -43 27.5 -77.5t71 -59t96 -48t105.5 -50.5t96.5 -59.5t71 -82t27.5 -110.5q0 -135 -98.5 -224.5t-241.5 -97.5l-26 -75q55 -3 94 -43t39 -99q0 -82 -61.5 -129t-151.5 -47q-54 0 -98 23l26 76q38 -21 72 -21q54 0 89.5 26t35.5 68q0 40 -28.5 62t-71.5 22q-21 0 -41 -4 l51 143q-163 8 -314 74z" />
<glyph unicode="&#x160;" horiz-adv-x="1048" d="M47 57l59 346h97l-47 -268q144 -67 301 -67q143 0 242.5 98.5t99.5 239.5q0 64 -30.5 118t-79.5 93t-107.5 75.5t-117.5 74.5t-108 80t-79.5 102t-30.5 132q0 167 116 273t289 106q185 0 381 -80l-55 -319h-96l43 246q-132 61 -275 61q-128 0 -213.5 -77t-85.5 -197 q0 -59 30.5 -109t79.5 -87.5t107.5 -73t117.5 -74t108 -82.5t79.5 -107t30.5 -139q0 -193 -128.5 -320t-319.5 -127q-198 0 -408 82zM467 1841h94l117 -194l184 194h113l-248 -256h-106z" />
<glyph unicode="&#x161;" horiz-adv-x="956" d="M61 51l45 258h91l-33 -188q127 -58 260 -58q109 0 185.5 64.5t76.5 161.5q0 47 -27 85t-70.5 64.5t-96 51t-105.5 51t-96.5 57.5t-70.5 77t-27 103q0 122 97 199.5t234 77.5q173 0 332 -78l-41 -225h-90l29 161q-107 56 -230 56q-97 0 -165 -51.5t-68 -133.5 q0 -43 27.5 -77.5t71 -59t96 -48t105.5 -50.5t96.5 -59.5t71 -82t27.5 -110.5q0 -142 -106 -232t-258 -90q-189 0 -361 76zM360 1458h95l116 -194l185 194h112l-247 -256h-107z" />
<glyph unicode="&#x162;" horiz-adv-x="1173" d="M145 1053l68 381h1071l-67 -381h-97l54 297h-388l-223 -1266h195l-15 -84h-211l-34 -100q55 -3 94 -43t39 -99q0 -82 -61.5 -129t-151.5 -47q-55 0 -99 23l27 76q38 -21 72 -21q54 0 89.5 26t35.5 68q0 40 -29 62t-72 22q-21 0 -41 -4l60 166h-211l14 84h195l223 1266 h-387l-53 -297h-97z" />
<glyph unicode="&#x163;" horiz-adv-x="669" d="M137 946l15 84h176l43 244h98l-43 -244h240l-15 -84h-239l-119 -670q-4 -36 -4 -55q0 -62 33.5 -99.5t91.5 -37.5q49 0 106 22l19 -86q-61 -24 -142 -24h-16l-33 -96q55 -3 94 -43t39 -99q0 -82 -61.5 -129t-151.5 -47q-54 0 -98 23l27 76q38 -21 71 -21q54 0 89.5 26 t35.5 68q0 40 -28.5 62t-71.5 22q-21 0 -41 -4l63 176q-59 22 -93 73t-34 120q0 27 7 71l118 672h-176z" />
<glyph unicode="&#x164;" horiz-adv-x="1173" d="M145 1053l68 381h1071l-67 -381h-97l54 297h-388l-223 -1266h195l-15 -84h-493l14 84h195l223 1266h-387l-53 -297h-97zM551 1841h94l117 -194l184 194h113l-248 -256h-106z" />
<glyph unicode="&#x165;" horiz-adv-x="667" d="M137 946l15 84h176l43 244h98l-43 -244h240l-15 -84h-239l-119 -670q-4 -36 -4 -55q0 -62 33.5 -99.5t91.5 -37.5q49 0 106 22l19 -86q-61 -24 -142 -24q-91 0 -150 57.5t-59 149.5q0 27 7 71l118 672h-176zM594 1155l88 338h100l-112 -338h-76z" />
<glyph unicode="&#x166;" horiz-adv-x="1173" d="M145 1053l68 381h1071l-67 -381h-97l54 297h-388l-102 -576h274l-14 -84h-274l-107 -606h195l-15 -84h-493l14 84h195l106 606h-272l14 84h273l102 576h-387l-53 -297h-97z" />
<glyph unicode="&#x167;" horiz-adv-x="671" d="M76 596l14 84h178l47 266h-176l15 84h176l43 244h98l-43 -244h240l-15 -84h-239l-47 -266h237l-14 -84h-238l-57 -320q-4 -36 -4 -55q0 -62 33.5 -99.5t91.5 -37.5q49 0 106 22l19 -86q-61 -24 -142 -24q-91 0 -150 57.5t-59 149.5q0 27 7 71l57 322h-178z" />
<glyph unicode="&#x168;" horiz-adv-x="1486" d="M223 1350l15 84h464l-14 -84h-184l-152 -861q-10 -55 -10 -98q0 -141 88 -231t246 -90q173 0 293.5 112t150.5 287l158 881h-184l14 84h465l-14 -84h-177l-157 -885q-40 -222 -183 -357t-368 -135q-198 0 -318 114.5t-120 287.5q0 59 12 121l151 854h-176zM639 1630 q23 81 75.5 130.5t123.5 49.5q41 0 84 -25t82 -50t71 -25q35 0 64 27.5t45 70.5h76q-23 -81 -74 -130.5t-121 -49.5q-34 0 -69 16t-59.5 34.5t-55.5 34.5t-58 16q-35 0 -63.5 -27.5t-44.5 -71.5h-76z" />
<glyph unicode="&#x169;" horiz-adv-x="1243" d="M137 946l15 84h276l-119 -665q-8 -50 -8 -78q0 -100 55.5 -159.5t155.5 -59.5q79 0 163 58t141 141t71 159l106 604h99l-168 -946h176l-15 -84h-274l37 211q-64 -104 -159.5 -170t-209.5 -66q-123 0 -200.5 84t-77.5 205q0 34 8 92l104 590h-176zM440 1247 q23 81 75.5 130.5t123.5 49.5q41 0 84.5 -25t82.5 -50t71 -25q35 0 63.5 27.5t44.5 70.5h76q-23 -81 -74 -130.5t-121 -49.5q-34 0 -69 16t-59 34.5t-55 34.5t-58 16q-35 0 -64 -28t-45 -71h-76z" />
<glyph unicode="&#x16a;" horiz-adv-x="1486" d="M223 1350l15 84h464l-14 -84h-184l-152 -861q-10 -55 -10 -98q0 -141 88 -231t246 -90q173 0 293.5 112t150.5 287l158 881h-184l14 84h465l-14 -84h-177l-157 -885q-40 -222 -183 -357t-368 -135q-198 0 -318 114.5t-120 287.5q0 59 12 121l151 854h-176zM649 1661 l15 80h542l-14 -80h-543z" />
<glyph unicode="&#x16b;" horiz-adv-x="1243" d="M137 946l15 84h276l-119 -665q-8 -50 -8 -78q0 -100 55.5 -159.5t155.5 -59.5q79 0 163 58t141 141t71 159l106 604h99l-168 -946h176l-15 -84h-274l37 211q-64 -104 -159.5 -170t-209.5 -66q-123 0 -200.5 84t-77.5 205q0 34 8 92l104 590h-176zM451 1278l14 80h543 l-15 -80h-542z" />
<glyph unicode="&#x16c;" horiz-adv-x="1486" d="M223 1350l15 84h464l-14 -84h-184l-152 -861q-10 -55 -10 -98q0 -141 88 -231t246 -90q173 0 293.5 112t150.5 287l158 881h-184l14 84h465l-14 -84h-177l-157 -885q-40 -222 -183 -357t-368 -135q-198 0 -318 114.5t-120 287.5q0 59 12 121l151 854h-176zM717 1767 q0 26 6 50h80q-4 -28 -4 -39q0 -54 30.5 -86.5t92.5 -32.5q70 0 116.5 45.5t57.5 112.5h80q-14 -105 -81 -167.5t-175 -62.5q-95 0 -149 50.5t-54 129.5z" />
<glyph unicode="&#x16d;" horiz-adv-x="1243" d="M137 946l15 84h276l-119 -665q-8 -50 -8 -78q0 -100 55.5 -159.5t155.5 -59.5q79 0 163 58t141 141t71 159l106 604h99l-168 -946h176l-15 -84h-274l37 211q-64 -104 -159.5 -170t-209.5 -66q-123 0 -200.5 84t-77.5 205q0 34 8 92l104 590h-176zM518 1384q0 26 6 50h80 q-4 -28 -4 -39q0 -54 30.5 -86.5t92.5 -32.5q70 0 116.5 45.5t57.5 112.5h80q-14 -105 -81 -167.5t-175 -62.5q-95 0 -149 50.5t-54 129.5z" />
<glyph unicode="&#x16e;" horiz-adv-x="1486" d="M223 1350l15 84h464l-14 -84h-184l-152 -861q-10 -55 -10 -98q0 -141 88 -231t246 -90q173 0 293.5 112t150.5 287l158 881h-184l14 84h465l-14 -84h-177l-157 -885q-40 -222 -183 -357t-368 -135q-198 0 -318 114.5t-120 287.5q0 59 12 121l151 854h-176zM774 1702 q0 78 55 130t132 52q60 0 101.5 -38t41.5 -95q0 -78 -55 -131t-131 -53q-59 0 -101.5 39t-42.5 96zM840 1704q0 -34 23.5 -56t58.5 -22q50 0 83 34.5t33 86.5q0 33 -23 55.5t-59 22.5q-49 0 -82.5 -35t-33.5 -86z" />
<glyph unicode="&#x16f;" horiz-adv-x="1243" d="M137 946l15 84h276l-119 -665q-8 -50 -8 -78q0 -100 55.5 -159.5t155.5 -59.5q79 0 163 58t141 141t71 159l106 604h99l-168 -946h176l-15 -84h-274l37 211q-64 -104 -159.5 -170t-209.5 -66q-123 0 -200.5 84t-77.5 205q0 34 8 92l104 590h-176zM575 1319q0 78 55 130 t132 52q60 0 101.5 -38t41.5 -95q0 -78 -55 -131t-131 -53q-59 0 -101.5 39t-42.5 96zM641 1321q0 -34 23.5 -56t58.5 -22q50 0 83.5 34.5t33.5 86.5q0 33 -23 55.5t-59 22.5q-49 0 -83 -35t-34 -86z" />
<glyph unicode="&#x170;" horiz-adv-x="1486" d="M223 1350l15 84h464l-14 -84h-184l-152 -861q-10 -55 -10 -98q0 -141 88 -231t246 -90q173 0 293.5 112t150.5 287l158 881h-184l14 84h465l-14 -84h-177l-157 -885q-40 -222 -183 -357t-368 -135q-198 0 -318 114.5t-120 287.5q0 59 12 121l151 854h-176zM758 1595 l166 265h108l-192 -265h-82zM1004 1595l165 265h109l-193 -265h-81z" />
<glyph unicode="&#x171;" horiz-adv-x="1243" d="M137 946l15 84h276l-119 -665q-8 -50 -8 -78q0 -100 55.5 -159.5t155.5 -59.5q79 0 163 58t141 141t71 159l106 604h99l-168 -946h176l-15 -84h-274l37 211q-64 -104 -159.5 -170t-209.5 -66q-123 0 -200.5 84t-77.5 205q0 34 8 92l104 590h-176zM559 1212l166 265h109 l-193 -265h-82zM805 1212l166 265h108l-192 -265h-82z" />
<glyph unicode="&#x172;" horiz-adv-x="1486" d="M223 1350l15 84h464l-14 -84h-184l-152 -861q-10 -55 -10 -98q0 -141 88 -231t246 -90q173 0 293.5 112t150.5 287l158 881h-184l14 84h465l-14 -84h-177l-157 -885q-33 -182 -136.5 -307.5t-265.5 -165.5q-81 -30 -131.5 -84t-50.5 -117q0 -44 26 -70t66 -26 q26 0 58.5 14t54.5 33l41 -70q-67 -61 -172 -61q-69 0 -118.5 48.5t-49.5 117.5q0 55 29 106t79 90q-191 6 -305 120t-114 282q0 59 12 121l151 854h-176z" />
<glyph unicode="&#x173;" horiz-adv-x="1243" d="M137 946l15 84h276l-119 -665q-8 -50 -8 -78q0 -100 55.5 -159.5t155.5 -59.5q79 0 163 58t141 141t71 159l106 604h99l-168 -946h176l-15 -84h-122q-91 -27 -150 -84t-59 -125q0 -44 26 -70t66 -26q25 0 57 14t55 33l41 -70q-67 -61 -172 -61q-69 0 -118.5 48.5 t-49.5 117.5q0 66 41.5 126t110.5 101l37 207q-64 -104 -159.5 -170t-209.5 -66q-123 0 -200.5 84t-77.5 205q0 34 8 92l104 590h-176z" />
<glyph unicode="&#x174;" horiz-adv-x="2056" d="M152 1350l14 84h493l-14 -84h-223l110 -1244l601 1328h118l129 -1323l551 1239h-223l14 84h492l-14 -84h-166l-617 -1356h-123l-131 1294l-594 -1294h-123l-129 1356h-165zM940 1585l248 256h106l154 -256h-94l-117 195l-184 -195h-113z" />
<glyph unicode="&#x175;" horiz-adv-x="1685" d="M35 946l14 84h250l102 -938q192 214 322.5 436t130.5 379q0 25 -2 37l-10 86h98l113 -938q458 433 458 789q0 19 -4 65h-184l14 84h254q15 -84 15 -143q0 -218 -144 -444.5t-403 -450.5h-86l-86 702q-57 -165 -181 -346t-294 -356h-95l-108 954h-174zM639 1202l248 256 h106l154 -256h-94l-117 195l-184 -195h-113z" />
<glyph unicode="&#x176;" horiz-adv-x="1253" d="M147 1350l15 84h446l-14 -84h-180l243 -633l473 633h-180l15 84h450l-14 -84h-160l-547 -725l-96 -541h193l-15 -84h-489l14 84h193l96 543l-283 723h-160zM535 1585l247 256h107l153 -256h-94l-117 195l-184 -195h-112z" />
<glyph unicode="&#x177;" horiz-adv-x="1079" d="M-133 -371l24 86q37 -16 89 -16q82 0 205.5 79t232.5 204l-205 964h-176l12 84h246l207 -969q176 212 288.5 433t112.5 391q0 38 -2 61h-190l14 84h264q12 -61 12 -139q0 -114 -51 -258t-133.5 -283.5t-191 -274.5t-220.5 -237t-225.5 -164.5t-202.5 -62.5q-63 0 -110 18 zM305 1202l248 256h106l154 -256h-94l-117 195l-184 -195h-113z" />
<glyph unicode="&#x178;" horiz-adv-x="1253" d="M147 1350l15 84h446l-14 -84h-180l243 -633l473 633h-180l15 84h450l-14 -84h-160l-547 -725l-96 -541h193l-15 -84h-489l14 84h193l96 543l-283 723h-160zM571 1724q0 34 23.5 58t58.5 24t58.5 -24t23.5 -58q0 -35 -23.5 -58.5t-58.5 -23.5t-58.5 23.5t-23.5 58.5z M905 1724q0 34 22.5 58t57.5 24t58.5 -24t23.5 -58q0 -35 -23.5 -58.5t-58.5 -23.5t-57.5 23.5t-22.5 58.5z" />
<glyph unicode="&#x179;" horiz-adv-x="1155" d="M16 0l13 74l1024 1276h-662l-49 -291h-96l65 375h885l-12 -74l-1020 -1276h710l56 315h96l-70 -399h-940zM651 1587l197 268h131l-227 -268h-101z" />
<glyph unicode="&#x17a;" horiz-adv-x="1015" d="M31 0l12 70l780 876h-512l-35 -194h-90l50 278h733l-13 -69l-776 -877h551l41 227h90l-55 -311h-776zM516 1204l197 269h131l-228 -269h-100z" />
<glyph unicode="&#x17b;" horiz-adv-x="1155" d="M16 0l13 74l1024 1276h-662l-49 -291h-96l65 375h885l-12 -74l-1020 -1276h710l56 315h96l-70 -399h-940zM680 1731q0 37 25.5 62.5t62.5 25.5t62.5 -25.5t25.5 -62.5t-25.5 -63t-62.5 -26t-62.5 26t-25.5 63z" />
<glyph unicode="&#x17c;" horiz-adv-x="1015" d="M31 0l12 70l780 876h-512l-35 -194h-90l50 278h733l-13 -69l-776 -877h551l41 227h90l-55 -311h-776zM545 1348q0 37 25.5 62.5t62.5 25.5t62.5 -25.5t25.5 -62.5t-25.5 -62.5t-62.5 -25.5t-62.5 25.5t-25.5 62.5z" />
<glyph unicode="&#x17d;" horiz-adv-x="1155" d="M16 0l13 74l1024 1276h-662l-49 -291h-96l65 375h885l-12 -74l-1020 -1276h710l56 315h96l-70 -399h-940zM526 1841h95l116 -194l185 194h112l-248 -256h-106z" />
<glyph unicode="&#x17e;" horiz-adv-x="1015" d="M31 0l12 70l780 876h-512l-35 -194h-90l50 278h733l-13 -69l-776 -877h551l41 227h90l-55 -311h-776zM391 1458h94l117 -194l184 194h113l-248 -256h-106z" />
<glyph unicode="&#x192;" horiz-adv-x="796" d="M-133 -375l14 86q50 -16 105 -16q92 0 149 68.5t82 209.5l137 783h-190l14 84h191l49 280q29 169 117.5 250.5t209.5 81.5q73 0 129 -16l-14 -86q-50 16 -115 16q-90 0 -150.5 -71t-84.5 -212l-43 -243h254l-14 -84h-254l-148 -838q-28 -156 -113 -232.5t-204 -76.5 q-63 0 -121 16z" />
<glyph unicode="&#x1fa;" horiz-adv-x="1374" d="M-86 0l14 84h152l696 1309q-76 39 -76 112q0 74 55 123t132 49q60 0 101.5 -38t41.5 -95q0 -53 -32 -93.5t-85 -59.5l230 -1307h151l-14 -84h-453l15 84h194l-71 420h-557l-222 -420h193l-14 -84h-451zM453 592h495l-117 735zM766 1507q0 -30 23 -49.5t59 -19.5 q49 0 83 29.5t34 72.5q0 33 -23 55.5t-59 22.5q-49 0 -83 -32.5t-34 -78.5zM803 1720l178 199h117l-203 -199h-92z" />
<glyph unicode="&#x1fb;" horiz-adv-x="1284" d="M121 410q0 174 71.5 323.5t194.5 237.5t268 88q136 0 222.5 -71t113.5 -189l41 231h98l-167 -946h176l-15 -84h-274l43 240q-64 -120 -171.5 -193.5t-246.5 -73.5q-152 0 -253 126t-101 311zM225 420q0 -156 74.5 -255t198.5 -99q120 0 227.5 81.5t170 211t62.5 268.5 q0 151 -85.5 245.5t-219.5 94.5q-112 0 -211.5 -76.5t-158 -203t-58.5 -267.5zM571 1260q0 75 53 125.5t126 50.5q57 0 97 -37t40 -92q0 -75 -52.5 -126t-125.5 -51q-57 0 -97.5 38t-40.5 92zM633 1262q0 -32 23 -53t57 -21q47 0 79.5 33t32.5 82q0 32 -22.5 53.5 t-57.5 21.5q-47 0 -79.5 -33.5t-32.5 -82.5zM678 1493l184 252h123l-213 -252h-94z" />
<glyph unicode="&#x1fc;" horiz-adv-x="1816" d="M-106 0l14 84h155l992 1350h762l-60 -342h-96l45 258h-487l-101 -578h473l-16 -88h-473l-105 -600h502l45 254h96l-59 -338h-885l15 84h182l104 600h-383l-434 -600h176l-14 -84h-448zM670 760h342l106 618zM1202 1587l197 268h131l-227 -268h-101z" />
<glyph unicode="&#x1fd;" horiz-adv-x="1976" d="M121 408q0 174 72 324t196 238.5t270 88.5q244 0 431 -207q78 97 183.5 152t223.5 55q167 0 270 -110t103 -267q0 -68 -23 -162h-794q-6 -40 -6 -82q0 -160 82.5 -265t218.5 -105q102 0 204 53.5t174 140.5l64 -63q-80 -102 -199.5 -163t-249.5 -61q-167 0 -274.5 113 t-122.5 291q-104 -204 -220.5 -305t-254.5 -101q-155 0 -251.5 124t-96.5 311zM225 418q0 -152 67 -252t185 -100q61 0 120 32.5t107.5 84t98.5 132.5t89 160t85 184q15 37 49 111q-159 197 -364 197q-113 0 -214.5 -77t-162 -204t-60.5 -268zM1026 1204l197 269h131 l-228 -269h-100zM1069 604h688q8 31 8 82q0 120 -77 202t-197 81q-143 0 -259 -103t-163 -262z" />
<glyph unicode="&#x1fe;" horiz-adv-x="1585" d="M66 39l184 186q-90 152 -90 346q0 140 39 274t110.5 244t167 193.5t215.5 129.5t248 46q240 0 391 -151l154 153l63 -63l-159 -160q106 -145 106 -356q0 -174 -61.5 -339.5t-165 -290.5t-250 -201.5t-305.5 -76.5q-253 0 -408 179l-176 -177zM272 582q0 -157 60 -277 l925 928q-123 129 -325 129q-110 0 -212.5 -42t-182.5 -117t-140.5 -172t-92.5 -213t-32 -236zM381 227q122 -157 338 -157q110 0 212.5 44.5t183 122.5t141.5 178.5t93.5 217.5t32.5 235q0 170 -71 291zM864 1587l197 268h131l-227 -268h-101z" />
<glyph unicode="&#x1ff;" horiz-adv-x="1220" d="M51 25l137 137q-65 109 -65 262q0 126 42.5 242.5t115.5 203.5t177.5 139t223.5 52q181 0 293 -115l121 121l57 -55l-127 -127q74 -113 74 -267q0 -126 -43 -244t-116.5 -207t-178 -142.5t-221.5 -53.5q-189 0 -303 127l-129 -129zM227 428q0 -105 39 -188l637 634 q-86 95 -223 95q-126 0 -231.5 -76.5t-163.5 -200.5t-58 -264zM309 170q87 -107 232 -107q93 0 178.5 46.5t145 123t95 176t35.5 203.5q0 115 -45 197zM602 1204l197 269h131l-228 -269h-100z" />
<glyph unicode="&#x218;" horiz-adv-x="1048" d="M47 57l59 346h97l-47 -268q144 -67 301 -67q143 0 242.5 98.5t99.5 239.5q0 64 -30.5 118t-79.5 93t-107.5 75.5t-117.5 74.5t-108 80t-79.5 102t-30.5 132q0 167 116 273t289 106q185 0 381 -80l-55 -319h-96l43 246q-132 61 -275 61q-128 0 -213.5 -77t-85.5 -197 q0 -59 30.5 -109t79.5 -87.5t107.5 -73t117.5 -74t108 -82.5t79.5 -107t30.5 -139q0 -193 -128.5 -320t-319.5 -127q-198 0 -408 82zM322 -410q84 78 84 172q0 34 -23 86l113 50q28 -54 28 -99q0 -62 -48.5 -127t-121.5 -116z" />
<glyph unicode="&#x219;" horiz-adv-x="956" d="M61 51l45 258h91l-33 -188q127 -58 260 -58q109 0 185.5 64.5t76.5 161.5q0 47 -27 85t-70.5 64.5t-96 51t-105.5 51t-96.5 57.5t-70.5 77t-27 103q0 122 97 199.5t234 77.5q173 0 332 -78l-41 -225h-90l29 161q-107 56 -230 56q-97 0 -165 -51.5t-68 -133.5 q0 -43 27.5 -77.5t71 -59t96 -48t105.5 -50.5t96.5 -59.5t71 -82t27.5 -110.5q0 -142 -106 -232t-258 -90q-189 0 -361 76zM270 -410q84 78 84 172q0 36 -22 86l112 50q29 -56 29 -99q0 -62 -48.5 -127t-121.5 -116z" />
<glyph unicode="&#x21a;" horiz-adv-x="1173" d="M145 1053l68 381h1071l-67 -381h-97l54 297h-388l-223 -1266h195l-15 -84h-493l14 84h195l223 1266h-387l-53 -297h-97zM348 -410q84 78 84 172q0 36 -22 86l112 50q29 -56 29 -99q0 -62 -48.5 -127t-121.5 -116z" />
<glyph unicode="&#x21b;" horiz-adv-x="669" d="M137 946l15 84h176l43 244h98l-43 -244h240l-15 -84h-239l-119 -670q-4 -36 -4 -55q0 -62 33.5 -99.5t91.5 -37.5q49 0 106 22l19 -86q-61 -24 -142 -24q-91 0 -150 57.5t-59 149.5q0 27 7 71l118 672h-176zM193 -410q83 77 83 172q0 36 -22 86l113 50q28 -54 28 -99 q0 -62 -48.5 -127t-121.5 -116z" />
<glyph unicode="&#x237;" horiz-adv-x="567" d="M-150 -379l17 86q30 -10 74 -10q75 0 131 59t75 160l183 1030h-176l14 84h274l-196 -1118q-25 -141 -104.5 -221t-198.5 -80q-51 0 -93 10z" />
<glyph unicode="&#x2c6;" horiz-adv-x="737" d="M236 1202l247 256h107l153 -256h-94l-117 195l-184 -195h-112z" />
<glyph unicode="&#x2c7;" horiz-adv-x="737" d="M281 1458h94l117 -194l184 194h112l-247 -256h-107z" />
<glyph unicode="&#x2d8;" horiz-adv-x="722" d="M291 1384q0 26 6 50h80q-4 -28 -4 -39q0 -54 30.5 -86.5t92.5 -32.5q70 0 116.5 45.5t57.5 112.5h80q-14 -105 -81 -167.5t-175 -62.5q-95 0 -149 50.5t-54 129.5z" />
<glyph unicode="&#x2d9;" horiz-adv-x="452" d="M285 1348q0 37 25.5 62.5t62.5 25.5t62.5 -25.5t25.5 -62.5t-25.5 -62.5t-62.5 -25.5t-62.5 25.5t-25.5 62.5z" />
<glyph unicode="&#x2da;" horiz-adv-x="583" d="M272 1319q0 78 55 130t132 52q60 0 101.5 -38t41.5 -95q0 -78 -55 -131t-131 -53q-59 0 -101.5 39t-42.5 96zM338 1321q0 -34 23.5 -56t58.5 -22q50 0 83.5 34.5t33.5 86.5q0 33 -23 55.5t-59 22.5q-49 0 -83 -35t-34 -86z" />
<glyph unicode="&#x2db;" horiz-adv-x="591" d="M-16 -223q0 86 68 159.5t173 106.5l62 -43q-91 -27 -150 -84t-59 -125q0 -44 26 -70t66 -26q26 0 58.5 14t54.5 33l41 -70q-67 -61 -172 -61q-69 0 -118.5 48.5t-49.5 117.5z" />
<glyph unicode="&#x2dc;" horiz-adv-x="856" d="M262 1247q23 81 75.5 130.5t123.5 49.5q41 0 84 -25t82 -50t71 -25q35 0 64 27.5t45 70.5h76q-23 -81 -74 -130.5t-121 -49.5q-43 0 -86.5 25.5t-82.5 50.5t-73 25q-35 0 -63.5 -27.5t-44.5 -71.5h-76z" />
<glyph unicode="&#x2dd;" horiz-adv-x="690" d="M238 1212l165 265h109l-193 -265h-81zM483 1212l166 265h109l-193 -265h-82z" />
<glyph unicode="&#x326;" horiz-adv-x="0" d="M-469 -410q84 78 84 172q0 34 -23 86l113 50q29 -56 29 -99q0 -62 -48.5 -127t-121.5 -116z" />
<glyph unicode="&#x1e80;" horiz-adv-x="2056" d="M152 1350l14 84h493l-14 -84h-223l110 -1244l601 1328h118l129 -1323l551 1239h-223l14 84h492l-14 -84h-166l-617 -1356h-123l-131 1294l-594 -1294h-123l-129 1356h-165zM1065 1862h111l94 -277h-88z" />
<glyph unicode="&#x1e81;" horiz-adv-x="1685" d="M35 946l14 84h250l102 -938q192 214 322.5 436t130.5 379q0 25 -2 37l-10 86h98l113 -938q458 433 458 789q0 19 -4 65h-184l14 84h254q15 -84 15 -143q0 -218 -144 -444.5t-403 -450.5h-86l-86 702q-57 -165 -181 -346t-294 -356h-95l-108 954h-174zM764 1479h110 l95 -277h-88z" />
<glyph unicode="&#x1e82;" horiz-adv-x="2056" d="M152 1350l14 84h493l-14 -84h-223l110 -1244l601 1328h118l129 -1323l551 1239h-223l14 84h492l-14 -84h-166l-617 -1356h-123l-131 1294l-594 -1294h-123l-129 1356h-165zM1110 1587l197 268h131l-228 -268h-100z" />
<glyph unicode="&#x1e83;" horiz-adv-x="1685" d="M35 946l14 84h250l102 -938q192 214 322.5 436t130.5 379q0 25 -2 37l-10 86h98l113 -938q458 433 458 789q0 19 -4 65h-184l14 84h254q15 -84 15 -143q0 -218 -144 -444.5t-403 -450.5h-86l-86 702q-57 -165 -181 -346t-294 -356h-95l-108 954h-174zM809 1204l197 269 h131l-228 -269h-100z" />
<glyph unicode="&#x1e84;" horiz-adv-x="2056" d="M152 1350l14 84h493l-14 -84h-223l110 -1244l601 1328h118l129 -1323l551 1239h-223l14 84h492l-14 -84h-166l-617 -1356h-123l-131 1294l-594 -1294h-123l-129 1356h-165zM977 1724q0 34 23.5 58t58.5 24t58.5 -24t23.5 -58q0 -35 -23.5 -58.5t-58.5 -23.5t-58.5 23.5 t-23.5 58.5zM1311 1724q0 34 22.5 58t57.5 24t58.5 -24t23.5 -58q0 -35 -23.5 -58.5t-58.5 -23.5t-57.5 23.5t-22.5 58.5z" />
<glyph unicode="&#x1e85;" horiz-adv-x="1685" d="M35 946l14 84h250l102 -938q192 214 322.5 436t130.5 379q0 25 -2 37l-10 86h98l113 -938q458 433 458 789q0 19 -4 65h-184l14 84h254q15 -84 15 -143q0 -218 -144 -444.5t-403 -450.5h-86l-86 702q-57 -165 -181 -346t-294 -356h-95l-108 954h-174zM676 1341 q0 34 23.5 58t58.5 24t58.5 -24t23.5 -58q0 -35 -23.5 -58t-58.5 -23t-58.5 23t-23.5 58zM1010 1341q0 34 22.5 58t57.5 24t58 -24t23 -58q0 -35 -23 -58t-58 -23t-57.5 23t-22.5 58z" />
<glyph unicode="&#x1ef2;" horiz-adv-x="1253" d="M147 1350l15 84h446l-14 -84h-180l243 -633l473 633h-180l15 84h450l-14 -84h-160l-547 -725l-96 -541h193l-15 -84h-489l14 84h193l96 543l-283 723h-160zM659 1862h111l94 -277h-88z" />
<glyph unicode="&#x1ef3;" horiz-adv-x="1079" d="M-133 -371l24 86q37 -16 89 -16q82 0 205.5 79t232.5 204l-205 964h-176l12 84h246l207 -969q176 212 288.5 433t112.5 391q0 38 -2 61h-190l14 84h264q12 -61 12 -139q0 -114 -51 -258t-133.5 -283.5t-191 -274.5t-220.5 -237t-225.5 -164.5t-202.5 -62.5q-63 0 -110 18 zM430 1479h111l94 -277h-88z" />
<glyph unicode="&#x2000;" horiz-adv-x="959" />
<glyph unicode="&#x2001;" horiz-adv-x="1919" />
<glyph unicode="&#x2002;" horiz-adv-x="959" />
<glyph unicode="&#x2003;" horiz-adv-x="1919" />
<glyph unicode="&#x2004;" horiz-adv-x="639" />
<glyph unicode="&#x2005;" horiz-adv-x="479" />
<glyph unicode="&#x2006;" horiz-adv-x="319" />
<glyph unicode="&#x2007;" horiz-adv-x="319" />
<glyph unicode="&#x2008;" horiz-adv-x="239" />
<glyph unicode="&#x2009;" horiz-adv-x="383" />
<glyph unicode="&#x200a;" horiz-adv-x="106" />
<glyph unicode="&#x2010;" horiz-adv-x="684" d="M94 559l17 96h512l-17 -96h-512z" />
<glyph unicode="&#x2011;" horiz-adv-x="684" d="M94 559l17 96h512l-17 -96h-512z" />
<glyph unicode="&#x2012;" horiz-adv-x="684" d="M94 559l17 96h512l-17 -96h-512z" />
<glyph unicode="&#x2013;" horiz-adv-x="1163" d="M94 563l17 88h991l-17 -88h-991z" />
<glyph unicode="&#x2014;" horiz-adv-x="1701" d="M94 563l17 88h1529l-16 -88h-1530z" />
<glyph unicode="&#x2018;" horiz-adv-x="405" d="M236 1214q0 139 196 291l37 -41q-102 -99 -102 -204q0 -41 28 -99l-127 -59q-32 58 -32 112z" />
<glyph unicode="&#x2019;" horiz-adv-x="405" d="M205 1143q102 99 102 205q0 40 -28 98l127 59q32 -58 32 -112q0 -139 -196 -291z" />
<glyph unicode="&#x201a;" horiz-adv-x="428" d="M-18 -178q102 99 102 205q0 38 -29 98l127 59q33 -60 33 -112q0 -139 -197 -291z" />
<glyph unicode="&#x201c;" horiz-adv-x="710" d="M236 1214q0 139 196 291l37 -41q-102 -99 -102 -204q0 -41 28 -99l-127 -59q-32 58 -32 112zM541 1214q0 139 196 291l37 -41q-102 -99 -102 -204q0 -41 28 -99l-127 -59q-32 58 -32 112z" />
<glyph unicode="&#x201d;" horiz-adv-x="710" d="M215 1143q102 99 102 205q0 40 -28 98l127 59q33 -60 33 -112q0 -139 -197 -291zM520 1143q103 100 103 205q0 38 -29 98l127 59q33 -60 33 -112q0 -139 -197 -291z" />
<glyph unicode="&#x201e;" horiz-adv-x="733" d="M-18 -178q102 99 102 205q0 38 -29 98l127 59q33 -60 33 -112q0 -139 -197 -291zM287 -178q102 99 102 205q0 38 -29 98l127 59q33 -60 33 -112q0 -139 -196 -291z" />
<glyph unicode="&#x2020;" horiz-adv-x="776" d="M139 940v102l267 -12l-9 404h109l-8 -404l264 12v-102l-264 12l8 -1052h-109l9 1052z" />
<glyph unicode="&#x2021;" horiz-adv-x="872" d="M139 401v103l267 -12v460l-267 -12v102l267 -12l-9 404h109l-8 -404l264 12v-102l-264 12v-460l264 12v-103l-264 13l8 -514h-109l9 514z" />
<glyph unicode="&#x2022;" horiz-adv-x="950" d="M223 643q0 113 80.5 192.5t194.5 79.5t194 -79.5t80 -192.5q0 -114 -80 -194t-194 -80t-194.5 80t-80.5 194z" />
<glyph unicode="&#x2026;" horiz-adv-x="1404" d="M57 78q0 38 30 67t69 29q38 0 68 -29t30 -67t-30 -68t-68 -30t-68.5 30t-30.5 68zM528 78q0 38 30 67t69 29q38 0 68 -29t30 -67t-30 -68t-68 -30t-68.5 30t-30.5 68zM999 78q0 38 30 67t69 29q38 0 68 -29t30 -67t-30 -68t-68 -30t-68.5 30t-30.5 68z" />
<glyph unicode="&#x202f;" horiz-adv-x="383" />
<glyph unicode="&#x2030;" horiz-adv-x="2082" d="M49 0l1262 1434h119l-1262 -1434h-119zM217 1077q0 157 83 265t220 108q94 0 153.5 -65t59.5 -164q0 -157 -84.5 -268t-220.5 -111q-95 0 -153 66t-58 169zM309 1081q0 -159 127 -159q93 0 149 89t56 206q0 71 -32.5 112t-96.5 41q-65 0 -112 -42.5t-69 -107t-22 -139.5z M766 217q0 157 83 265t220 108q94 0 153.5 -65.5t59.5 -164.5q0 -157 -84.5 -267.5t-220.5 -110.5q-95 0 -153 66t-58 169zM858 221q0 -160 127 -160q93 0 149 89t56 206q0 71 -32.5 112.5t-96.5 41.5q-65 0 -112 -42.5t-69 -107t-22 -139.5zM1421 217q0 157 83 265t220 108 q94 0 153.5 -65.5t59.5 -164.5q0 -157 -84.5 -267.5t-220.5 -110.5q-95 0 -153 66t-58 169zM1513 221q0 -160 127 -160q93 0 149 89t56 206q0 71 -32.5 112.5t-96.5 41.5q-65 0 -112 -42.5t-69 -107t-22 -139.5z" />
<glyph unicode="&#x2039;" horiz-adv-x="497" d="M88 602l320 361h114l-327 -371l196 -365h-100z" />
<glyph unicode="&#x203a;" horiz-adv-x="499" d="M4 227l328 371l-197 365h101l202 -375l-319 -361h-115z" />
<glyph unicode="&#x2044;" horiz-adv-x="897" d="M-106 -84l1077 1602h102l-1077 -1602h-102z" />
<glyph unicode="&#x205f;" horiz-adv-x="479" />
<glyph unicode="&#x2074;" horiz-adv-x="782" d="M135 872l10 62l451 504h80l-86 -496h135l-12 -70h-135l-29 -159h135l-12 -70h-357l13 70h143l29 159h-365zM244 942h268l68 377z" />
<glyph unicode="&#x20ac;" horiz-adv-x="1304" d="M66 557l24 78h186q8 97 33 203h-194l24 77h191q75 245 230 395t364 150q207 0 403 -104l-47 -275h-96l37 209q-148 74 -306 74q-159 0 -285 -125t-192 -324h572l-25 -77h-569q-28 -119 -35 -203h541l-25 -78h-520v-29q0 -137 33 -237t107.5 -159.5t184.5 -59.5 q115 0 220.5 70.5t175.5 183.5l78 -56q-80 -138 -208 -216.5t-276 -78.5q-139 0 -235.5 75.5t-140.5 197.5t-44 280v29h-206z" />
<glyph unicode="&#x2116;" horiz-adv-x="2344" d="M27 0l14 84h176l223 1266h-176l15 84h280l596 -1274l209 1190h-176l14 84h449l-15 -84h-176l-237 -1350h-107l-592 1276l-211 -1192h176l-14 -84h-448zM1622 524l14 84h623l-14 -84h-623zM1688 1040q0 169 107.5 285.5t268.5 116.5q121 0 198 -80.5t77 -200.5 q0 -169 -109 -289t-270 -120q-120 0 -196 82t-76 206zM1780 1042q0 -93 50 -148.5t138 -55.5q121 0 200 98.5t79 224.5q0 89 -50.5 142t-140.5 53q-119 0 -197.5 -92.5t-78.5 -221.5z" />
<glyph unicode="&#x2122;" horiz-adv-x="1828" d="M215 1272v209h576v-209h-68v147h-182v-577h121v-62h-318v62h121v577h-182v-147h-68zM868 780v62h107v577h-107v62h211l258 -514l258 514h215v-62h-106v-577h106v-62h-286v62h106v563l-264 -528h-61l-263 528v-563h107v-62h-281z" />
<glyph unicode="&#x2212;" horiz-adv-x="1142" d="M129 600v86h930v-86h-930z" />
<glyph unicode="&#x25fc;" horiz-adv-x="1034" d="M0 0v1034h1034v-1034h-1034z" />
<glyph horiz-adv-x="684" d="M115 676l16 96h512l-16 -96h-512z" />
<glyph horiz-adv-x="1165" d="M117 684l16 88h991l-16 -88h-991z" />
<glyph horiz-adv-x="1703" d="M117 684l16 88h1530l-16 -88h-1530z" />
<glyph horiz-adv-x="843" d="M111 721l319 360h115l-328 -370l197 -365h-101zM430 690l342 385h115l-350 -395l182 -338h-101z" />
<glyph horiz-adv-x="843" d="M27 348l350 395l-182 338h100l188 -348l-342 -385h-114zM369 342l327 371l-196 364h100l203 -375l-320 -360h-114z" />
<glyph horiz-adv-x="499" d="M111 721l319 360h115l-328 -370l197 -365h-101z" />
<glyph horiz-adv-x="499" d="M25 346l327 371l-196 364h100l203 -374l-320 -361h-114z" />
<glyph horiz-adv-x="532" d="M127 502q0 301 139.5 591t384.5 531l58 -53q-221 -238 -348.5 -512.5t-127.5 -554.5q0 -320 170 -645l-65 -45q-99 155 -155 332t-56 356z" />
<glyph horiz-adv-x="528" d="M-109 -141q221 238 348.5 512.5t127.5 554.5q0 320 -170 645l65 45q99 -155 155 -332t56 -356q0 -302 -140 -592t-384 -531z" />
<glyph horiz-adv-x="421" d="M-47 -184l319 1802h279l-14 -84h-181l-288 -1634h180l-15 -84h-280z" />
<glyph horiz-adv-x="421" d="M-57 -184l14 84h180l289 1634h-180l14 84h281l-320 -1802h-278z" />
<glyph horiz-adv-x="559" d="M111 698l14 90q72 5 119.5 60.5t66.5 159.5l66 376q41 240 311 240l-14 -86q-79 0 -133 -44.5t-66 -117.5l-67 -381q-20 -114 -71 -179.5t-124 -76.5q54 -13 83.5 -62t29.5 -122q0 -20 -9 -72l-71 -413q-4 -28 -4 -45q0 -131 141 -131l-14 -84q-105 0 -166.5 55.5 t-61.5 142.5q0 36 6 70l70 397q8 50 8 80q0 137 -114 143z" />
<glyph horiz-adv-x="641" d="M346 -315v2001h98v-2001h-98z" />
<glyph horiz-adv-x="559" d="M-57 -190l14 86q79 0 133 44t66 117l67 381q20 114 71 179.5t124 76.5q-53 13 -83 62.5t-30 122.5q0 25 8 71l72 414q4 28 4 45q0 131 -141 131l14 84q105 0 166 -56t61 -143q0 -35 -6 -69l-69 -398q-8 -50 -8 -79q0 -138 114 -144l-14 -90q-73 -5 -120.5 -60.5 t-66.5 -158.5l-65 -377q-41 -239 -311 -239z" />
<glyph horiz-adv-x="720" d="M-123 -156l932 1758h102l-931 -1758h-103z" />
<glyph horiz-adv-x="710" d="M193 1602h94l311 -1758h-94z" />
<glyph horiz-adv-x="522" d="M119 0l211 1130h86l-183 -1130h-114zM328 1403q0 38 26.5 65t63.5 27q38 0 64 -27t26 -65q0 -37 -26 -63.5t-64 -26.5q-37 0 -63.5 26.5t-26.5 63.5z" />
<glyph horiz-adv-x="798" d="M25 305q0 70 25 134t66 113.5t91 96t101.5 90.5t96 86.5t76.5 94t41 104.5l17 100h98l-21 -116q-11 -62 -43.5 -119.5t-75.5 -102.5t-93 -88.5t-97.5 -86.5t-86.5 -87.5t-63 -99.5t-24 -115q0 -100 67 -166.5t173 -66.5q97 0 174.5 60.5t126.5 148.5l86 -45 q-60 -116 -160 -186t-238 -70q-148 0 -242.5 93t-94.5 228zM526 1401q0 38 26.5 65t63.5 27q38 0 64.5 -27t26.5 -65q0 -37 -26.5 -63.5t-64.5 -26.5q-37 0 -63.5 26.5t-26.5 63.5z" />
<glyph horiz-adv-x="460" d="M168 719q0 38 30 67t68 29q39 0 69 -29t30 -67t-30.5 -68t-68.5 -30t-68 30t-30 68z" />
<glyph horiz-adv-x="950" d="M238 725q0 113 80 192.5t194 79.5t194 -79.5t80 -192.5q0 -114 -80 -194t-194 -80t-194 80t-80 194z" />
<glyph horiz-adv-x="1093" d="M123 418q0 150 21 295t66 279.5t110.5 236t161.5 162.5t210 61q167 0 256.5 -121t89.5 -321q0 -148 -21 -292.5t-67 -278.5t-111.5 -235.5t-161.5 -162.5t-210 -61q-165 0 -254.5 119.5t-89.5 318.5zM229 424q0 -163 61 -255.5t183 -92.5q87 0 163 55t129 148t91.5 214 t57 252.5t18.5 264.5q0 161 -62 253.5t-184 92.5q-108 0 -197.5 -83.5t-144.5 -219t-85 -298.5t-30 -331z" />
<glyph horiz-adv-x="1097" d="M117 0l14 88h352l217 1233l-415 -227l-41 82l487 266l90 -23l-235 -1331h340l-15 -88h-794z" />
<glyph horiz-adv-x="1093" d="M39 0l8 53q18 107 76.5 206.5t136.5 175.5t168 148t177 137t157.5 128t114 135.5t43.5 146.5q0 97 -66 163.5t-176 66.5q-116 0 -210 -81t-146 -200l-93 45q66 149 185.5 240.5t269.5 91.5q151 0 248.5 -92t97.5 -225q0 -86 -43 -168.5t-113 -151t-156 -135 t-175.5 -134.5t-166.5 -136.5t-134.5 -153t-75.5 -172.5h604l49 272h96l-63 -360h-813z" />
<glyph horiz-adv-x="1093" d="M51 293l99 35q26 -111 102.5 -183.5t187.5 -72.5q157 0 269 110.5t112 276.5q0 123 -93.5 201.5t-246.5 78.5h-47l17 88q115 14 210.5 57t155.5 115t60 160t-62.5 147.5t-159.5 59.5q-98 0 -180 -55t-135 -142l-90 48q67 110 173.5 175.5t235.5 65.5q138 0 230 -83 t92 -214q0 -105 -59.5 -187t-152 -126.5t-204.5 -54.5q165 -3 266 -96t101 -236q0 -135 -66.5 -246.5t-180.5 -175.5t-249 -64q-147 0 -250 89t-135 229z" />
<glyph horiz-adv-x="1093" d="M49 444l12 72l811 922h103l-162 -910h193l-15 -84h-192l-64 -360h193l-15 -84h-514l15 84h221l63 360h-649zM184 528h529l135 764z" />
<glyph horiz-adv-x="1093" d="M72 276l94 39q27 -107 103 -175t194 -68q112 0 203.5 58t142.5 156t51 214q0 135 -78 219t-209 84q-77 0 -149.5 -30.5t-124.5 -76.5l-76 29l170 709h654l-50 -281h-96l33 193h-463l-137 -541q129 94 270 94q154 0 260.5 -115.5t106.5 -279.5q0 -144 -65.5 -265 t-183 -192.5t-261.5 -71.5q-155 0 -255 82.5t-134 218.5z" />
<glyph horiz-adv-x="1093" d="M133 410q0 150 24.5 296.5t77 282.5t127 239.5t183 165.5t235.5 62q162 0 297 -92l-55 -86q-49 37 -117 59.5t-139 22.5q-184 0 -319.5 -187t-188.5 -505q57 110 154 175.5t225 65.5q150 0 246 -107t98 -265q1 -151 -58.5 -278.5t-174.5 -205.5t-263 -78q-168 0 -260 115 t-92 320zM233 397q0 -135 66.5 -230t187.5 -95q117 0 206 64.5t134 167.5t45 226q0 124 -69 205.5t-185 81.5q-161 0 -273 -123t-112 -297z" />
<glyph horiz-adv-x="1093" d="M193 1085l61 349h924l-15 -91q-635 -642 -790 -1343h-111q92 383 292.5 725.5t487.5 620.5h-706l-47 -261h-96z" />
<glyph horiz-adv-x="1093" d="M96 322q0 159 99 281.5t249 166.5q-75 26 -129.5 101t-54.5 169q0 180 124 299t310 119q144 0 236 -86.5t92 -220.5q0 -132 -85.5 -239t-211.5 -148q92 -24 161.5 -104.5t69.5 -192.5q0 -210 -143 -354t-354 -144q-163 0 -263 101t-100 252zM205 330q0 -116 69 -190 t193 -74q163 0 272 116.5t109 280.5q0 115 -76.5 183.5t-196.5 68.5q-101 0 -186.5 -53.5t-134.5 -142t-49 -189.5zM365 1042q0 -101 62 -167t165 -66q130 0 228 103.5t98 236.5q0 97 -62 158t-170 61q-138 0 -229.5 -94t-91.5 -232z" />
<glyph horiz-adv-x="1093" d="M80 72l55 88q45 -38 113 -62t143 -24q124 0 232 97t178.5 261t93.5 365q-52 -108 -151 -176t-226 -68q-148 0 -244 106t-96 259q0 145 62 267.5t176.5 196.5t257.5 74q158 0 253 -107t95 -286q0 -133 -18.5 -263.5t-53.5 -252t-90 -225t-123.5 -180.5t-158.5 -121 t-191 -44q-91 0 -172.5 26t-134.5 69zM289 924q0 -119 67 -199t185 -80q105 0 193.5 62t137 159t48.5 203q0 125 -71.5 208t-184.5 83q-107 0 -194 -61.5t-134 -160.5t-47 -214z" />
</font>
</defs>
</svg>
