<?xml version="1.0" standalone="no"?>
<!DOCTYPE svg PUBLIC "-//W3C//DTD SVG 1.1//EN" "http://www.w3.org/Graphics/SVG/1.1/DTD/svg11.dtd" >
<svg xmlns="http://www.w3.org/2000/svg">
<metadata></metadata>
<defs>
<font id="knilelight" horiz-adv-x="1292" >
<font-face units-per-em="2048" ascent="1536" descent="-512" />
<missing-glyph horiz-adv-x="573" />
<glyph unicode=" "  horiz-adv-x="573" />
<glyph unicode="&#x09;" horiz-adv-x="573" />
<glyph unicode="&#xa0;" horiz-adv-x="573" />
<glyph unicode="!" horiz-adv-x="569" d="M195 72q0 37 26 62.5t64 25.5q37 0 63.5 -25.5t26.5 -62.5q0 -39 -26.5 -65.5t-63.5 -26.5q-38 0 -64 26t-26 66zM229 1485h111l-6 -1139h-98z" />
<glyph unicode="&#x22;" horiz-adv-x="577" d="M102 1481h111l-8 -416h-94zM365 1481h110l-8 -416h-94z" />
<glyph unicode="#" horiz-adv-x="1280" d="M53 414v84h262l91 428h-246v84h262l90 424h92l-88 -424h350l88 424h93l-86 -424h251v-84h-270l-88 -428h252v-84h-270l-86 -414h-93l84 414h-350l-86 -414h-92l86 414h-246zM410 498h350l90 428h-352z" />
<glyph unicode="$" horiz-adv-x="1091" d="M135 -4v401h84q29 -150 122.5 -234.5t229.5 -84.5q127 0 205 76.5t78 201.5q0 72 -38.5 130.5t-100 99.5t-135.5 79t-148 78t-135.5 86.5t-100 115t-38.5 153.5q0 150 95.5 247t248.5 97v184h92v-194q152 -34 233 -181v179h97v-386h-84q-28 138 -114 222t-208 84 q-120 0 -189 -67.5t-69 -174.5q0 -69 39 -126t101 -97t136.5 -77.5t149.5 -78t137 -87t101 -115.5t39 -154q0 -168 -102 -274.5t-267 -114.5v-195h-92v199q-181 29 -271 194v-186h-96z" />
<glyph unicode="%" horiz-adv-x="1476" d="M127 1151q0 139 66.5 219t191.5 80t190.5 -79.5t65.5 -219.5q0 -142 -65 -225.5t-191 -83.5q-127 0 -192.5 83t-65.5 226zM174 0l1012 1434h108l-1011 -1434h-109zM219 1151q0 -233 166 -233q164 0 164 233q0 223 -164 223q-166 0 -166 -223zM836 293q0 139 66.5 219 t191.5 80t190.5 -79.5t65.5 -219.5q0 -142 -65 -225.5t-191 -83.5q-127 0 -192.5 83t-65.5 226zM928 293q0 -234 166 -234q163 0 163 234q0 223 -163 223q-166 0 -166 -223z" />
<glyph unicode="&#x26;" horiz-adv-x="1394" d="M117 387q0 130 86 240.5t213 169.5q-183 199 -183 356q0 131 92 218t234 87q89 0 158 -47.5t108 -130.5v156h97v-365h-84q-30 141 -99 218t-174 77q-99 0 -162 -59t-63 -148q0 -83 47 -158t129 -163l473 -506q89 159 92 354h248v-86h-153q-21 -188 -117 -342l160 -172 h133v-86h-193l-162 178q-81 -95 -189.5 -148t-229.5 -53q-207 0 -334 118t-127 292zM227 391q0 -137 96.5 -228t251.5 -91q105 0 196 47t159 131l-451 479q-112 -52 -182 -141t-70 -197z" />
<glyph unicode="'" horiz-adv-x="270" d="M49 1411q0 38 26 64t64 26q42 0 70.5 -33.5t28.5 -81.5q0 -148 -142 -270l-45 43q82 78 94 166q-8 -2 -18 -2q-34 0 -56 26t-22 62z" />
<glyph unicode="(" horiz-adv-x="604" d="M147 635q0 240 90.5 472.5t256.5 432.5l61 -47q-142 -199 -220.5 -419t-78.5 -439t78.5 -439t220.5 -419l-61 -47q-166 200 -256.5 432.5t-90.5 472.5z" />
<glyph unicode=")" horiz-adv-x="604" d="M49 -223q142 199 220.5 419t78.5 439t-78.5 439t-220.5 419l62 47q165 -200 255.5 -432t90.5 -473t-90.5 -473t-255.5 -432z" />
<glyph unicode="*" horiz-adv-x="798" d="M86 1006l238 137l-238 135l41 68l231 -132v267h84v-267l230 132l41 -68l-236 -137l236 -135l-41 -68l-230 133v-266h-84v266l-231 -133z" />
<glyph unicode="+" horiz-adv-x="1175" d="M123 596v86h420v446h92v-446h418v-86h-418v-449h-92v449h-420z" />
<glyph unicode="," horiz-adv-x="415" d="M115 84q0 38 26 64t64 26q42 0 70 -33.5t28 -81.5q0 -149 -141 -270l-45 43q82 78 94 166q-8 -2 -18 -2q-34 0 -56 26t-22 62z" />
<glyph unicode="-" horiz-adv-x="727" d="M102 559v96h523v-96h-523z" />
<glyph unicode="." horiz-adv-x="421" d="M113 78q0 38 30 67t70 29q38 0 67 -29t29 -67q0 -40 -29 -69t-67 -29q-40 0 -70 29t-30 69z" />
<glyph unicode="/" horiz-adv-x="780" d="M53 -221l621 1757h102l-620 -1757h-103z" />
<glyph unicode="0" horiz-adv-x="1222" d="M150 725q0 176 23.5 305.5t76 226.5t143 146t219.5 49q104 0 182.5 -32.5t131 -92.5t86 -151t47.5 -201t14 -250q0 -142 -14 -253.5t-47.5 -205.5t-86 -156t-131.5 -96t-182 -34t-182 34t-132 96t-86 156t-47.5 206t-14.5 253zM258 725q0 -121 8 -212t31 -176.5 t62 -140.5t102.5 -87.5t150.5 -32.5q72 0 128.5 21.5t94.5 64.5t64 98.5t40 132t20 155t6 177.5q0 98 -6 175t-20 151t-40 127.5t-64 95t-94.5 62t-128.5 20.5q-73 0 -129.5 -20.5t-94.5 -62t-64 -94.5t-40.5 -127.5t-20 -151.5t-5.5 -175z" />
<glyph unicode="1" horiz-adv-x="745" d="M53 1169l299 265h109v-1348h190v-86h-522v86h229v1235l-241 -217z" />
<glyph unicode="2" horiz-adv-x="1013" d="M90 0v41q0 95 38 186t98.5 165t133.5 145.5t146 138t133.5 130t98.5 134t38 139.5q0 122 -75 201.5t-201 79.5q-113 0 -197 -77t-119 -187l-92 34q44 138 153.5 232t258.5 94q169 0 275 -106.5t106 -264.5q0 -80 -36.5 -159.5t-95 -146.5t-129.5 -134t-143 -133 t-132.5 -131t-100.5 -140.5t-45 -150.5h602v270h96v-360h-811z" />
<glyph unicode="3" horiz-adv-x="1079" d="M100 281l93 32q33 -109 120 -175t207 -66q142 0 238 96t96 238q0 149 -102 237t-289 88h-80l-21 57l445 560h-555v-218h-96v304h759v-91l-417 -524q215 0 340 -112t125 -297q0 -124 -59 -224t-160 -155.5t-224 -55.5q-160 0 -269.5 83t-150.5 223z" />
<glyph unicode="4" horiz-adv-x="1144" d="M78 436v76l657 924h109v-912h196v-88h-196v-350h196v-86h-532v86h233v350h-663zM195 524h546v776z" />
<glyph unicode="5" horiz-adv-x="1107" d="M111 279l92 36q39 -109 127 -176t219 -67q148 0 242 105t94 263q0 159 -93 260t-251 101q-82 0 -152.5 -31.5t-118.5 -77.5l-82 31l39 711h676v-281h-96v190h-488l-34 -540q52 40 123.5 67t146.5 27q127 0 227.5 -59.5t155.5 -162.5t55 -229q0 -204 -125.5 -337.5 t-320.5 -133.5q-166 0 -276 82t-160 222z" />
<glyph unicode="6" horiz-adv-x="1181" d="M164 610v52q0 141 18 260.5t57.5 219.5t98.5 169.5t144 108t190 38.5q182 0 319 -92l-49 -88q-129 84 -274 84q-199 0 -297.5 -179t-98.5 -511q38 107 133 173t224 66q193 0 309.5 -128t116.5 -326q0 -217 -116.5 -349.5t-320.5 -132.5q-454 0 -454 635zM274 467 q0 -104 38 -192.5t118 -145.5t188 -57q162 0 245 106t83 277q0 160 -84 260t-241 100q-149 0 -248 -98t-99 -250z" />
<glyph unicode="7" horiz-adv-x="1007" d="M90 1104v330h864v-74l-571 -1360h-115l572 1343h-654v-239h-96z" />
<glyph unicode="8" horiz-adv-x="1196" d="M150 399q0 149 87 245t203 122q-99 31 -170 116.5t-71 211.5q0 161 112 261.5t287 100.5t288 -100.5t113 -261.5q0 -126 -71 -211.5t-170 -116.5q116 -26 202.5 -122t86.5 -245q0 -187 -123 -305.5t-326 -118.5t-325.5 118.5t-122.5 305.5zM258 399q0 -142 90.5 -235.5 t249.5 -93.5t249.5 93.5t90.5 235.5q0 145 -95 230.5t-245 85.5t-245 -85.5t-95 -230.5zM303 1092q0 -121 83 -202t212 -81t213 81t84 202q0 120 -80.5 195t-216.5 75q-137 0 -216 -74.5t-79 -195.5z" />
<glyph unicode="9" horiz-adv-x="1155" d="M127 1001q0 201 119.5 328t312.5 127q211 0 321.5 -146.5t110.5 -428.5v-52q0 -196 -25.5 -347t-81 -267.5t-151 -178t-227.5 -61.5q-93 0 -180 27t-150 72l53 86q124 -88 277 -88q377 0 377 716q-35 -106 -123 -170.5t-215 -64.5q-189 0 -303.5 127t-114.5 321z M236 1006q0 -157 83 -257t234 -100q147 0 236.5 100t89.5 252q0 151 -87.5 255t-228.5 104q-153 0 -240 -98.5t-87 -255.5z" />
<glyph unicode=":" horiz-adv-x="421" d="M113 78q0 38 30 67t70 29q38 0 67 -29t29 -67q0 -40 -29 -69t-67 -29q-40 0 -70 29t-30 69zM113 913q0 38 30 67.5t70 29.5q38 0 67 -29.5t29 -67.5q0 -40 -29 -69t-67 -29q-40 0 -70 29t-30 69z" />
<glyph unicode=";" horiz-adv-x="421" d="M113 913q0 38 30 67.5t70 29.5q38 0 67 -29.5t29 -67.5q0 -40 -29 -69t-67 -29q-40 0 -70 29t-30 69zM117 84q0 38 26 64t64 26q42 0 70 -33.5t28 -81.5q0 -149 -141 -270l-45 43q82 78 94 166q-8 -2 -18 -2q-34 0 -56 26t-22 62z" />
<glyph unicode="&#x3c;" horiz-adv-x="1157" d="M150 600v82l819 377v-96l-713 -320l713 -324v-96z" />
<glyph unicode="=" horiz-adv-x="1226" d="M150 410v86h929v-86h-929zM150 762v88h929v-88h-929z" />
<glyph unicode="&#x3e;" horiz-adv-x="1157" d="M188 223v96l713 322l-713 324v96l820 -377v-84z" />
<glyph unicode="?" horiz-adv-x="903" d="M20 1235q39 106 132.5 180t236.5 74q176 0 281.5 -106.5t105.5 -270.5q0 -70 -20.5 -132t-54 -107.5t-73.5 -87t-79.5 -78.5t-73 -74t-54 -82t-20.5 -94v-111h-102v119q0 58 20 110.5t52.5 92.5t71.5 78.5t78.5 76.5t72 78.5t52.5 93t20 111.5q0 126 -75 207.5t-204 81.5 q-56 0 -104 -18t-82 -48.5t-57.5 -63t-39.5 -69.5zM262 70q0 38 26 64t64 26t64 -26t26 -64q0 -37 -26 -63.5t-64 -26.5t-64 26.5t-26 63.5z" />
<glyph unicode="@" horiz-adv-x="1935" d="M158 543q0 231 104.5 420.5t292.5 299t422 109.5q181 0 333.5 -61t255 -164.5t159.5 -241t57 -291.5q0 -220 -89.5 -345.5t-230.5 -125.5q-91 0 -145.5 50.5t-65.5 138.5q-34 -84 -113 -136.5t-188 -52.5q-154 0 -258 108.5t-104 280.5q0 171 106 279.5t260 108.5 q101 0 173 -45t108 -119v147h88v-504q0 -76 37.5 -125t103.5 -49q96 0 161 99t65 280q0 143 -51 268t-142.5 216.5t-226.5 144.5t-295 53q-209 0 -375.5 -100t-257 -269t-90.5 -372q0 -208 90 -377t253.5 -266t369.5 -97q100 0 201.5 28t183.5 75l41 -80 q-170 -109 -426 -109q-170 0 -320 62.5t-257 171.5t-168.5 262t-61.5 328zM682 532q0 -134 79 -220.5t200 -86.5q115 0 196.5 84t81.5 226q0 137 -79 220t-197 83q-119 0 -200 -85t-81 -221z" />
<glyph unicode="A" horiz-adv-x="1456" d="M23 0v86h147l496 1352h118l498 -1352h152v-86h-465v86h196l-151 416h-584l-149 -416h196v-86h-454zM461 588h520l-260 739z" />
<glyph unicode="B" horiz-adv-x="1255" d="M111 0v86h180v1262h-180v86h544q169 0 281.5 -96.5t112.5 -252.5q0 -115 -60.5 -200t-159.5 -121q118 -27 201.5 -120t83.5 -234q0 -189 -119 -299.5t-301 -110.5h-583zM399 86h269q144 0 237.5 85.5t93.5 234.5q0 94 -47 165t-122 106.5t-164 35.5h-267v-627zM399 801 h258q118 0 199.5 80.5t81.5 201.5q0 120 -84.5 192.5t-214.5 72.5h-240v-547z" />
<glyph unicode="C" horiz-adv-x="1443" d="M127 727q0 206 84.5 373.5t237.5 263.5t346 96q136 0 253 -65.5t185 -177.5v219h96v-412h-84q-46 151 -166 244.5t-266 93.5q-168 0 -299 -83t-200.5 -225.5t-69.5 -320.5q0 -183 65.5 -331.5t195 -239t302.5 -90.5q144 0 263 73.5t194 202.5l88 -51 q-77 -149 -223 -236.5t-320 -87.5q-206 0 -362.5 101t-238 271t-81.5 382z" />
<glyph unicode="D" horiz-adv-x="1449" d="M113 0v86h180v1262h-180v86h510q315 0 507.5 -193t192.5 -520q0 -330 -184.5 -525.5t-501.5 -195.5h-524zM401 86h211q278 0 436 168t158 471q0 291 -165.5 457t-442.5 166h-197v-1262z" />
<glyph unicode="E" horiz-adv-x="1169" d="M111 0v86h180v1262h-180v86h907v-334h-98v248h-521v-555h482v-91h-482v-616h527v272h98v-358h-913z" />
<glyph unicode="F" horiz-adv-x="1130" d="M113 0v86h180v1262h-180v86h925v-334h-98v248h-539v-586h492v-90h-492v-586h228v-86h-516z" />
<glyph unicode="G" horiz-adv-x="1564" d="M127 733q0 155 50.5 290.5t139 231t213 150.5t267.5 55q150 0 276.5 -67t196.5 -179v222h96v-392h-84q-56 144 -184 231t-291 87q-245 0 -404 -176.5t-159 -452.5q0 -184 68 -334t195.5 -238.5t289.5 -88.5q199 0 338.5 137.5t164.5 363.5h-368v93h469v-666h-98v317 q-64 -161 -202.5 -252.5t-314.5 -91.5q-193 0 -344.5 102t-233 274.5t-81.5 383.5z" />
<glyph unicode="H" horiz-adv-x="1619" d="M113 0v86h180v1262h-180v86h467v-86h-181v-562h822v562h-179v86h467v-86h-180v-1262h180v-86h-469v86h181v608h-822v-608h181v-86h-467z" />
<glyph unicode="I" horiz-adv-x="690" d="M111 0v86h180v1262h-180v86h469v-86h-181v-1262h181v-86h-469z" />
<glyph unicode="J" horiz-adv-x="700" d="M-27 -217l13 98q67 -18 141 -18q90 0 145.5 58t55.5 163v1264h-217v86h497v-86h-172v-1274q0 -140 -85.5 -225t-215.5 -85q-84 0 -162 19z" />
<glyph unicode="K" horiz-adv-x="1337" d="M111 0v86h180v1262h-180v86h450v-86h-162v-590l602 594h-167v82h454v-86h-162l-612 -603l645 -659h170v-86h-487v86h170l-613 633v-633h170v-86h-458z" />
<glyph unicode="L" horiz-adv-x="1118" d="M113 0v86h180v1262h-180v86h479v-86h-191v-1262h525v299h100v-385h-913z" />
<glyph unicode="M" horiz-adv-x="1986" d="M111 0v86h180v1262h-180v86h329l555 -1139l551 1139h330v-86h-180v-1262h180v-86h-467v86h180v1221l-549 -1143h-100l-549 1143v-1221h180v-86h-460z" />
<glyph unicode="N" horiz-adv-x="1624" d="M109 0v86h180v1262h-180v86h294l832 -1268v1182h-180v86h461v-86h-181v-1348h-118l-828 1270v-1184h180v-86h-460z" />
<glyph unicode="O" horiz-adv-x="1626" d="M127 729q0 153 50 287.5t138.5 232.5t217.5 154.5t280 56.5t280 -56.5t217.5 -154.5t138.5 -232.5t50 -287.5q0 -157 -49.5 -296t-137.5 -240.5t-217.5 -160.5t-281.5 -59t-281.5 59t-217.5 160.5t-137.5 240.5t-49.5 296zM244 729q0 -186 69.5 -335t200 -235.5 t299.5 -86.5t299.5 86.5t200 235.5t69.5 335q0 277 -156.5 455t-412.5 178t-412.5 -178t-156.5 -455z" />
<glyph unicode="P" horiz-adv-x="1167" d="M111 0v86h180v1262h-180v86h542q184 0 303 -108t119 -292q0 -190 -117.5 -305t-298.5 -115h-260v-528h215v-86h-503zM399 700h252q138 0 224 91.5t86 242.5q0 146 -88.5 230t-231.5 84h-242v-648z" />
<glyph unicode="Q" horiz-adv-x="1626" d="M127 729q0 153 50 287.5t138.5 232.5t217.5 154.5t280 56.5t280 -56.5t217.5 -154.5t138.5 -232.5t50 -287.5q0 -160 -49.5 -300t-142.5 -243l176 -172l-64 -67l-180 176q-180 -150 -426 -150q-152 0 -281.5 59t-217.5 160.5t-137.5 240.5t-49.5 296zM244 729 q0 -186 69.5 -335t200 -235.5t299.5 -86.5q206 0 350 125l-168 163l64 68l170 -166q153 183 153 467q0 277 -156.5 455t-412.5 178t-412.5 -178t-156.5 -455z" />
<glyph unicode="R" horiz-adv-x="1280" d="M111 0v86h180v1262h-180v86h534q177 0 297.5 -107t120.5 -272q0 -152 -92 -257.5t-238 -133.5l348 -578h183v-86h-258l-379 645h-228v-559h189v-86h-477zM399 731h222q144 0 235.5 88.5t91.5 233.5q0 133 -89 214t-226 81h-234v-617z" />
<glyph unicode="S" horiz-adv-x="1110" d="M135 -4v403h84q35 -152 127.5 -240.5t231.5 -88.5q132 0 213 80t81 210q0 75 -39.5 135t-102 101.5t-138.5 79.5t-152 77.5t-138.5 85.5t-102 114t-39.5 153q0 152 98.5 253t251.5 101q110 0 195 -56t129 -149v181h96v-385h-84q-29 142 -114.5 229.5t-209.5 87.5 q-116 0 -185 -71.5t-69 -180.5q0 -55 24.5 -101.5t65.5 -81t94.5 -66t113 -60t118.5 -58.5t112.5 -66.5t94.5 -79t65.5 -101t24.5 -127.5q0 -174 -108 -287t-285 -113q-123 0 -216 56.5t-141 154.5v-190h-96z" />
<glyph unicode="T" horiz-adv-x="1239" d="M74 1053v381h1091v-381h-100v295h-391v-1262h200v-86h-509v86h200v1262h-391v-295h-100z" />
<glyph unicode="U" horiz-adv-x="1503" d="M72 1348v86h469v-86h-187v-861q0 -189 105 -302t293 -113t292.5 113t104.5 302v861h-188v86h471v-86h-175v-856q0 -234 -133.5 -376.5t-371.5 -142.5t-372 142.5t-134 376.5v856h-174z" />
<glyph unicode="V" horiz-adv-x="1433" d="M23 1348v86h491v-86h-213l420 -1221l422 1221h-213v86h481v-86h-164l-475 -1354h-113l-473 1354h-163z" />
<glyph unicode="W" horiz-adv-x="2144" d="M23 1348v86h503v-86h-227l340 -1233l375 1319h129l370 -1315l340 1229h-227v86h496v-86h-166l-381 -1354h-131l-371 1292l-373 -1292h-131l-381 1354h-165z" />
<glyph unicode="X" horiz-adv-x="1337" d="M20 0v86h160l424 653l-397 609h-156v86h455v-84h-178l346 -533l344 533h-178v84h444v-86h-154l-399 -613l424 -649h162v-86h-477v84h194l-372 573l-369 -573h194v-84h-467z" />
<glyph unicode="Y" d="M20 1348v86h455v-84h-182l358 -629l361 629h-183v84h443v-86h-152l-420 -725v-537h203v-86h-514v86h203v535l-422 727h-150z" />
<glyph unicode="Z" horiz-adv-x="1185" d="M100 0v74l838 1267h-692v-282h-101v375h926v-74l-838 -1268h742v307h100v-399h-975z" />
<glyph unicode="[" horiz-adv-x="565" d="M213 -274v1818h281v-86h-179v-1646h179v-86h-281z" />
<glyph unicode="\" horiz-adv-x="780" d="M4 1536h102l621 -1757h-102z" />
<glyph unicode="]" horiz-adv-x="565" d="M72 -188h178v1646h-178v86h280v-1818h-280v86z" />
<glyph unicode="^" horiz-adv-x="1001" d="M82 651l373 783h90l375 -783h-99l-321 678l-320 -678h-98z" />
<glyph unicode="_" horiz-adv-x="1234" d="M74 -86h1087v-86h-1087v86z" />
<glyph unicode="`" horiz-adv-x="501" d="M123 1481h115l141 -273h-94z" />
<glyph unicode="a" horiz-adv-x="1232" d="M133 313q0 147 116.5 239.5t297.5 92.5q112 0 199.5 -39t136.5 -106v200q0 129 -83.5 204t-226.5 75q-169 0 -327 -100l-47 79q173 113 391 113q182 0 288.5 -99.5t106.5 -260.5v-625h166v-86h-264v150q-44 -79 -138 -126t-219 -47q-174 0 -285.5 93t-111.5 243zM242 315 q0 -105 86.5 -175t232.5 -70q142 0 234 70.5t92 176.5q0 102 -92.5 172t-231.5 70q-143 0 -232 -69t-89 -175z" />
<glyph unicode="b" horiz-adv-x="1378" d="M90 0v86h166v1309h-166v86h268v-688q48 121 157 201.5t263 80.5q214 0 350 -156t136 -389q0 -241 -140.5 -399t-361.5 -158q-148 0 -252 75.5t-152 199.5v-248h-268zM354 528q0 -196 114 -328t286 -132q175 0 287 131t112 329q0 194 -109 323.5t-286 129.5 q-171 0 -287.5 -130t-116.5 -323z" />
<glyph unicode="c" horiz-adv-x="1157" d="M109 539q0 110 40 209.5t106 170t155.5 112.5t185.5 42q114 0 202.5 -50t141.5 -136v160h96v-332h-84q-35 122 -120.5 194t-213.5 72q-166 0 -282.5 -125t-116.5 -317q0 -205 114.5 -338t297.5 -133q106 0 200.5 53.5t155.5 144.5l74 -53q-67 -114 -182.5 -177 t-253.5 -63q-151 0 -269 73.5t-182.5 202t-64.5 290.5z" />
<glyph unicode="d" horiz-adv-x="1372" d="M115 530q0 238 141.5 391.5t355.5 153.5q152 0 257.5 -75.5t150.5 -196.5v592h-166v86h268v-1395h166v-86h-268v254q-50 -125 -158.5 -203t-263.5 -78q-211 0 -347 157t-136 400zM225 532q0 -199 109 -331.5t287 -132.5q177 0 290 133.5t113 328.5q0 192 -112.5 321.5 t-284.5 129.5q-117 0 -209.5 -59.5t-142.5 -162t-50 -227.5z" />
<glyph unicode="e" horiz-adv-x="1200" d="M109 541q0 148 65.5 269.5t182.5 192t261 70.5q211 0 340 -140.5t129 -354.5v-54h-870q5 -203 118.5 -329.5t295.5 -126.5q107 0 202 49.5t166 140.5l72 -59q-162 -226 -448 -226q-228 0 -371 159t-143 409zM221 612h760q0 157 -104.5 264t-262.5 107q-149 0 -262.5 -103 t-130.5 -268z" />
<glyph unicode="f" horiz-adv-x="684" d="M98 0v86h166v875h-166v86h166v163q0 128 77 203.5t204 75.5q51 0 117 -12v-95q-51 15 -107 15q-88 0 -138 -51.5t-50 -137.5v-161h239v-86h-239v-875h196v-86h-465z" />
<glyph unicode="g" horiz-adv-x="1366" d="M115 532q0 236 141.5 389.5t355.5 153.5q152 0 257.5 -75.5t150.5 -196.5v244h268v-86h-166v-902q0 -113 -40 -200.5t-110.5 -141t-162 -81t-199.5 -27.5q-106 0 -207.5 28.5t-177.5 75.5l41 86q69 -46 162 -73q90 -25 181 -25h7q175 0 289.5 88.5t114.5 251.5v219 q-50 -125 -158.5 -202.5t-263.5 -77.5q-211 0 -347 155.5t-136 396.5zM225 535q0 -198 109 -329.5t287 -131.5q177 0 290 132t113 326q0 191 -112.5 320t-284.5 129q-177 0 -289.5 -128t-112.5 -318z" />
<glyph unicode="h" horiz-adv-x="1359" d="M88 0v86h166v1309h-166v86h268v-637q44 103 141.5 165t225.5 62q175 0 282 -104t107 -277v-604h166v-86h-430v86h162v594q0 133 -87 214t-227 81q-137 0 -238.5 -97t-101.5 -225v-567h162v-86h-430z" />
<glyph unicode="i" horiz-adv-x="616" d="M98 0v86h166v875h-166v86h269v-961h165v-86h-434zM223 1352q0 37 24.5 62.5t59.5 25.5q38 0 65 -25.5t27 -62.5t-27 -62.5t-65 -25.5q-35 0 -59.5 25.5t-24.5 62.5z" />
<glyph unicode="j" horiz-adv-x="575" d="M4 -289q40 -8 76 -8q80 0 127 58t47 157v1043h-166v86h268v-1131q0 -139 -72 -222t-192 -83q-50 0 -88 6v94zM207 1352q0 37 25.5 62.5t60.5 25.5q38 0 64 -25.5t26 -62.5t-26 -62.5t-64 -25.5q-35 0 -60.5 25.5t-25.5 62.5z" />
<glyph unicode="k" horiz-adv-x="1120" d="M88 0v86h166v1309h-166v86h268v-893l428 377h-174v82h465v-84h-164l-438 -385l475 -492h162v-86h-227l-527 559v-473h162v-86h-430z" />
<glyph unicode="l" horiz-adv-x="608" d="M90 0v86h166v1309h-166v86h268v-1395h166v-86h-434z" />
<glyph unicode="m" horiz-adv-x="1976" d="M98 0v86h166v875h-166v86h269v-203q38 103 126 165t207 62t205 -61.5t119 -163.5q41 101 137 163t221 62q154 0 250.5 -102t96.5 -271v-612h165v-86h-426v86h158v598q0 129 -74 210t-196 81q-124 0 -215.5 -88.5t-91.5 -208.5v-592h157v-86h-418v86h158v612 q0 121 -75 199t-195 78q-125 0 -217 -98.5t-92 -233.5v-557h157v-86h-426z" />
<glyph unicode="n" horiz-adv-x="1370" d="M98 0v86h166v875h-166v86h269v-203q44 103 141 165t225 62q175 0 282 -104t107 -277v-604h166v-86h-430v86h162v594q0 133 -86.5 214t-226.5 81q-137 0 -238.5 -97t-101.5 -225v-567h161v-86h-430z" />
<glyph unicode="o" d="M109 535q0 235 152.5 387.5t385.5 152.5q231 0 384 -152.5t153 -387.5q0 -242 -151.5 -402t-385.5 -160q-235 0 -386.5 159.5t-151.5 402.5zM219 535q0 -203 120 -335t308 -132q187 0 306.5 132t119.5 335q0 197 -119.5 321.5t-306.5 124.5q-188 0 -308 -124.5 t-120 -321.5z" />
<glyph unicode="p" horiz-adv-x="1374" d="M84 -297h166v1258h-166v86h268l2 -254q49 121 157.5 201.5t264.5 80.5q214 0 350 -156t136 -389q0 -239 -142 -398t-360 -159q-148 0 -252 75.5t-152 199.5l-4 -545h197v-86h-465v86zM352 528q0 -196 114 -328t286 -132q175 0 287 131t112 329q0 194 -109 323.5 t-286 129.5q-171 0 -287.5 -130t-116.5 -323z" />
<glyph unicode="q" horiz-adv-x="1372" d="M115 530q0 238 141.5 391.5t355.5 153.5q152 0 257.5 -75.5t150.5 -196.5v244h268v-86h-166v-1258h166v-86h-465v86h197v551q-50 -125 -158.5 -203t-263.5 -78q-211 0 -347 157t-136 400zM225 532q0 -199 109 -331.5t287 -132.5q177 0 290 133.5t113 328.5 q0 192 -112.5 321.5t-284.5 129.5q-117 0 -209.5 -59.5t-142.5 -162t-50 -227.5z" />
<glyph unicode="r" horiz-adv-x="829" d="M98 0v86h166v875h-166v86h269v-250q32 119 117.5 197.5t195.5 78.5q53 0 108 -10v-117q-69 15 -118 15q-87 0 -157 -53t-108 -139.5t-38 -186.5v-496h196v-86h-465z" />
<glyph unicode="s" horiz-adv-x="1009" d="M127 -4v319h84q30 -115 116 -181t214 -66q106 0 174.5 57t68.5 149q0 50 -28 89.5t-73 63.5t-103.5 47t-118.5 40.5t-118 44t-103 56.5q-44 30 -72 78q-27 46 -27 106q-1 123 85 199q82 73 207 73h7q97 0 178 -40t132 -113v131h96v-293h-84q-26 104 -111 166.5t-196 62.5 q-91 0 -151 -49t-60 -125q0 -52 35.5 -90.5t92 -63t125.5 -46.5t137.5 -47.5t125 -59t92 -89t35.5 -128.5q0 -143 -96 -227.5t-246 -84.5q-107 0 -189 44t-133 124v-147h-96z" />
<glyph unicode="t" horiz-adv-x="694" d="M72 961v86h166v227h102v-227h244v-86h-244v-689q0 -87 41.5 -136.5t116.5 -49.5q52 0 110 14v-92q-59 -16 -123 -16q-117 0 -182 77t-65 207v685h-166z" />
<glyph unicode="u" horiz-adv-x="1312" d="M72 961v86h268v-674q0 -137 77 -220t204 -83q135 0 236 100.5t101 226.5v564h-165v86h268v-961h166v-86h-269v205q-42 -106 -137 -168t-223 -62q-166 0 -263 106t-97 277v603h-166z" />
<glyph unicode="v" horiz-adv-x="1187" d="M8 961v86h443v-86h-185l332 -859l334 859h-184v86h432v-86h-146l-381 -969h-116l-383 969h-146z" />
<glyph unicode="w" horiz-adv-x="1849" d="M8 961v86h455v-86h-199l283 -844l321 930h117l324 -930l282 844h-198v86h448v-86h-145l-336 -965h-109l-329 919l-326 -919h-109l-333 965h-146z" />
<glyph unicode="x" horiz-adv-x="1163" d="M33 0v86h141l338 459l-305 416h-144v86h414v-82h-149l264 -365l266 365h-149v82h397v-86h-137l-320 -429l328 -446h147v-86h-432v82h164l-287 391l-284 -391h164v-82h-416z" />
<glyph unicode="y" horiz-adv-x="1198" d="M8 961v86h441v-86h-185l340 -865l336 865h-184v86h434v-86h-146l-409 -1035q-59 -151 -151.5 -233t-209.5 -82q-62 0 -110 10v94q48 -10 104 -10q82 0 154 64.5t121 185.5l8 20l-397 986h-146z" />
<glyph unicode="z" horiz-adv-x="1077" d="M129 0v72l664 889h-537v-197h-96v283h766v-72l-664 -889h584v229h96v-315h-813z" />
<glyph unicode="{" horiz-adv-x="618" d="M129 586v98q73 3 110 56t37 163v371q0 132 70.5 201t202.5 69v-86q-85 0 -127.5 -48.5t-42.5 -127.5v-391q0 -110 -39 -175.5t-113 -80.5q74 -15 113 -80.5t39 -175.5v-391q0 -79 42.5 -127.5t127.5 -48.5v-86q-132 0 -202.5 69t-70.5 201v371q0 213 -147 219z" />
<glyph unicode="|" horiz-adv-x="641" d="M270 -410v2001h103v-2001h-103z" />
<glyph unicode="}" horiz-adv-x="618" d="M70 -188q85 0 127.5 48.5t42.5 127.5v391q0 110 38.5 175.5t112.5 80.5q-74 15 -112.5 80.5t-38.5 175.5v391q0 79 -42.5 127.5t-127.5 48.5v86q131 0 201.5 -68.5t70.5 -201.5v-371q0 -213 147 -219v-98q-73 -3 -110 -56t-37 -163v-371q0 -133 -70.5 -201.5 t-201.5 -68.5v86z" />
<glyph unicode="~" horiz-adv-x="1071" d="M102 498q5 108 68.5 180t169.5 72q53 0 110 -25.5t98 -55.5t93.5 -55.5t97.5 -25.5q62 0 99.5 46t40.5 109h90q-6 -108 -69 -179.5t-169 -71.5q-44 0 -88.5 16.5t-82 40t-74 47.5t-77 40.5t-77.5 16.5q-62 0 -98 -45.5t-41 -109.5h-91z" />
<glyph unicode="&#xa1;" horiz-adv-x="569" d="M195 1030q0 39 26.5 65.5t63.5 26.5q38 0 64 -26t26 -66q0 -37 -26 -62.5t-64 -25.5q-37 0 -63.5 25.5t-26.5 62.5zM229 -383l7 1139h98l6 -1139h-111z" />
<glyph unicode="&#xa2;" horiz-adv-x="1146" d="M131 717q0 215 123 364t303 168v205h92v-205q93 -9 165.5 -57t113.5 -123v156h96v-334h-80q-35 121 -121 193.5t-213 72.5q-156 0 -262 -124.5t-106 -315.5q0 -209 103 -339t280 -130q102 0 190.5 52t145.5 140l73 -55q-62 -103 -163 -164t-222 -67v-193h-92v197 q-196 23 -311 175.5t-115 383.5z" />
<glyph unicode="&#xa3;" horiz-adv-x="1124" d="M113 698v86h186q-6 23 -27 98.5t-30 122t-9 89.5q0 156 96.5 260t250.5 104q100 0 181.5 -52.5t127.5 -143.5v172h96v-369h-84q-29 136 -114.5 216.5t-198.5 80.5q-111 0 -178.5 -75t-67.5 -185q0 -43 9 -91t30 -124.5t27 -102.5h315v-86h-299q10 -55 10 -102 q0 -273 -158 -510h625v272h96v-358h-847v78q80 109 130 245t50 263q0 44 -11 112h-206z" />
<glyph unicode="&#xa5;" horiz-adv-x="1259" d="M23 1348v86h440v-86h-168l336 -627l342 627h-168v86h432v-86h-156l-360 -641h307v-82h-352v-152h352v-82h-352v-305h201v-86h-500v86h201v305h-353v82h353v152h-353v82h307l-354 641h-155z" />
<glyph unicode="&#xa7;" horiz-adv-x="1052" d="M125 614q0 102 58 182.5t149 118.5q-144 105 -144 267q0 133 88.5 223t221.5 90q98 0 170.5 -47t107.5 -127v156h98v-336h-83q-28 123 -101.5 191.5t-175.5 68.5q-96 0 -157.5 -59.5t-61.5 -149.5q0 -66 35 -119.5t90.5 -90.5t123.5 -71t135.5 -70t123 -78.5t90.5 -106 t35 -142.5q0 -107 -55 -188t-146 -121q145 -103 145 -262q0 -149 -89 -241.5t-230 -92.5q-104 0 -178 50.5t-109 137.5v-168h-98v359h84q25 -129 103 -207t184 -78q98 0 162.5 62t64.5 163q0 65 -35.5 118.5t-92 91.5t-124.5 72.5t-136.5 72t-125 80.5t-92 107.5 t-35.5 143.5zM236 631q0 -57 24 -104t72.5 -85t93 -64t116 -63t111.5 -61q75 31 119.5 95t44.5 145q0 58 -23.5 104.5t-71 83.5t-91 62t-113.5 60.5t-110 59.5q-77 -29 -124.5 -93.5t-47.5 -139.5z" />
<glyph unicode="&#xa8;" horiz-adv-x="792" d="M143 1354q0 34 23.5 58t58.5 24q38 0 62 -24t24 -58q0 -36 -24 -61t-62 -25q-35 0 -58.5 25t-23.5 61zM481 1354q0 34 23.5 58t58.5 24q38 0 62 -24t24 -58q0 -36 -24 -61t-62 -25q-35 0 -58.5 25t-23.5 61z" />
<glyph unicode="&#xa9;" horiz-adv-x="1710" d="M123 725q0 153 55 288.5t150.5 234t232.5 155.5t295 57q157 0 294 -57t232.5 -155.5t150 -234t54.5 -288.5q0 -210 -91.5 -381t-259.5 -271t-380 -100q-159 0 -296.5 58.5t-232.5 159t-149.5 239t-54.5 295.5zM217 725q0 -190 81 -342t227 -238t331 -86t330.5 86.5 t226 238t80.5 341.5q0 184 -81.5 332.5t-227 232.5t-328.5 84t-329 -84t-228 -232.5t-82 -332.5zM492 727q0 159 103 268t249 109q76 0 135.5 -34.5t95.5 -96.5v108h74v-229h-62q-27 78 -89 124t-144 46q-115 0 -191.5 -84.5t-76.5 -210.5q0 -135 76.5 -223t199.5 -88 q69 0 132 37t100 94l65 -53q-46 -76 -126 -120t-173 -44q-161 0 -264.5 112.5t-103.5 284.5z" />
<glyph unicode="&#xaa;" horiz-adv-x="917" d="M102 901q0 107 84.5 173.5t210.5 66.5q151 0 232 -90v141q0 81 -56.5 129.5t-150.5 48.5q-110 0 -229 -74l-41 72q137 84 280 84q129 0 205 -70t76 -182v-457h123v-67h-205v96q-35 -54 -101.5 -84.5t-144.5 -30.5q-126 0 -204.5 68t-78.5 176zM201 903q0 -72 56.5 -118 t152.5 -46q85 0 153 50t68 114q0 71 -64 115.5t-155 44.5q-93 0 -152 -45.5t-59 -114.5z" />
<glyph unicode="&#xab;" horiz-adv-x="837" d="M98 594l262 369h103l-262 -369l262 -367h-103zM414 594l262 369h102l-262 -369l262 -367h-102z" />
<glyph unicode="&#xad;" horiz-adv-x="727" d="M102 559v96h523v-96h-523z" />
<glyph unicode="&#xae;" horiz-adv-x="1017" d="M102 1110q0 170 112.5 285.5t295.5 115.5q182 0 293.5 -115.5t111.5 -285.5q0 -169 -112.5 -286t-292.5 -117q-183 0 -295.5 117t-112.5 286zM166 1110q0 -147 93.5 -246.5t250.5 -99.5q155 0 248.5 99.5t93.5 246.5q0 149 -92.5 246.5t-249.5 97.5q-156 0 -250 -98 t-94 -246zM352 1280v47h166q55 0 92 -31.5t37 -81.5q0 -41 -24.5 -70t-65.5 -40l82 -137h59v-47h-94l-100 176h-55v-129h43v-47h-138v47h43v313h-45zM449 1141h55q35 0 58.5 18t23.5 53q0 31 -23 49.5t-55 18.5h-59v-139z" />
<glyph unicode="&#xaf;" horiz-adv-x="874" d="M143 1276v82h588v-82h-588z" />
<glyph unicode="&#xb0;" horiz-adv-x="729" d="M90 1180q0 118 77 198t198 80q120 0 197 -80t77 -196q0 -121 -76.5 -202t-197.5 -81q-122 0 -198.5 81t-76.5 200zM180 1180q0 -86 51 -142.5t134 -56.5q85 0 134.5 56.5t49.5 144.5q0 85 -50.5 139.5t-133.5 54.5t-134 -55.5t-51 -140.5z" />
<glyph unicode="&#xb2;" horiz-adv-x="722" d="M113 643v31q0 86 38.5 159t93 123t109 94t93 91t38.5 94q0 61 -38 98t-97 37q-57 0 -98 -37.5t-62 -93.5l-73 29q26 79 88 129.5t149 50.5q94 0 159 -60t65 -149q0 -51 -26.5 -99.5t-67 -85.5t-88 -78.5t-88.5 -78t-70.5 -84.5t-32.5 -98h309v129h78v-201h-479z" />
<glyph unicode="&#xb3;" horiz-adv-x="720" d="M94 803l76 37q22 -58 68 -95.5t112 -37.5q69 0 119.5 46t50.5 121t-53.5 117.5t-142.5 42.5h-48l-22 58l238 274h-285v-117h-78v185h453v-70l-230 -260q118 0 189 -62t71 -165q0 -110 -76 -179t-186 -69q-94 0 -161.5 48t-94.5 126z" />
<glyph unicode="&#xb4;" horiz-adv-x="501" d="M123 1208l141 273h115l-162 -273h-94z" />
<glyph unicode="&#xb6;" horiz-adv-x="1204" d="M141 1061q0 155 108 264t263 109h582v-86h-197v-1436h-90v1436h-199v-1436h-90v776q-159 1 -268 109t-109 264z" />
<glyph unicode="&#xb7;" horiz-adv-x="522" d="M164 625q0 39 29.5 68.5t68.5 29.5q40 0 68 -29t28 -69t-28.5 -69.5t-67.5 -29.5q-38 0 -68 30t-30 69z" />
<glyph unicode="&#xb8;" horiz-adv-x="604" d="M143 -403l17 79q32 -18 73 -18q51 0 86 24.5t35 65.5t-30.5 62.5t-83.5 21.5q-26 0 -50 -8l39 188h74l-24 -114q10 2 24 2q57 0 97 -44.5t40 -107.5q0 -78 -56 -124t-144 -46q-53 0 -97 19z" />
<glyph unicode="&#xb9;" horiz-adv-x="620" d="M80 1288l207 146h80v-721h135v-70h-369v70h148v630l-156 -114z" />
<glyph unicode="&#xba;" horiz-adv-x="954" d="M98 1061q0 169 107 280t272 111q164 0 271.5 -111t107.5 -280q0 -174 -107 -290.5t-272 -117.5q-166 1 -272.5 117t-106.5 291zM201 1059q0 -138 77 -228.5t199 -91.5q123 1 200 91.5t77 228.5q0 135 -76.5 221t-200.5 86q-122 0 -199 -86.5t-77 -220.5z" />
<glyph unicode="&#xbb;" horiz-adv-x="837" d="M59 227l263 369l-263 367h103l262 -367l-262 -369h-103zM375 227l262 369l-262 367h102l262 -367l-262 -369h-102z" />
<glyph unicode="&#xbc;" horiz-adv-x="1630" d="M100 1288l207 146h80v-721h135v-70h-368v70h147v630l-156 -114zM319 -84l811 1602h97l-811 -1602h-97zM903 246v57l369 492h76v-482h135v-67h-135v-176h135v-70h-367v70h152v176h-365zM997 313h271v365z" />
<glyph unicode="&#xbd;" horiz-adv-x="1617" d="M100 1288l207 146h80v-721h135v-70h-368v70h147v630l-156 -114zM328 -84l811 1602h96l-811 -1602h-96zM991 0v31q0 86 38.5 159t93.5 123t109.5 94t93 91t38.5 94q0 61 -38 98t-97 37q-57 0 -98 -37.5t-62 -93.5l-74 29q26 79 88.5 129.5t149.5 50.5q94 0 158.5 -60 t64.5 -149q0 -51 -26.5 -99.5t-67 -85.5t-88 -78.5t-88.5 -78t-70.5 -84.5t-32.5 -98h310v129h77v-201h-479z" />
<glyph unicode="&#xbe;" horiz-adv-x="1710" d="M115 803l75 37q22 -58 68.5 -95.5t112.5 -37.5q69 0 119.5 46t50.5 121t-54 117.5t-143 42.5h-47l-23 58l238 274h-285v-117h-77v185h452v-70l-229 -260q118 0 189 -62t71 -165q0 -110 -76 -179t-186 -69q-94 0 -161.5 48t-94.5 126zM399 -84l811 1602h97l-811 -1602h-97 zM983 246v57l369 492h75v-482h136v-67h-136v-176h136v-70h-367v70h152v176h-365zM1077 313h271v365z" />
<glyph unicode="&#xbf;" horiz-adv-x="903" d="M123 -10q0 70 20.5 132t54 107.5t73.5 87t79.5 78.5t73 74t54 82t20.5 94v111h102v-119q0 -58 -20 -110.5t-52.5 -92.5t-72 -78.5t-78.5 -76.5t-71.5 -78.5t-52.5 -93t-20 -111.5q0 -126 75 -207.5t204 -81.5q56 0 104 18t82 48.5t57.5 63t39.5 69.5l84 -39 q-39 -106 -132.5 -180t-236.5 -74q-176 0 -281.5 106.5t-105.5 270.5zM457 1032q0 37 26 63.5t64 26.5t64 -26.5t26 -63.5q0 -38 -26 -64t-64 -26t-64 26t-26 64z" />
<glyph unicode="&#xc0;" horiz-adv-x="1456" d="M23 0v86h147l496 1352h118l498 -1352h152v-86h-465v86h196l-151 416h-584l-149 -416h196v-86h-454zM461 588h520l-260 739zM553 1847h115l141 -272h-94z" />
<glyph unicode="&#xc1;" horiz-adv-x="1456" d="M23 0v86h147l496 1352h118l498 -1352h152v-86h-465v86h196l-151 416h-584l-149 -416h196v-86h-454zM461 588h520l-260 739zM637 1575l141 272h115l-162 -272h-94z" />
<glyph unicode="&#xc2;" horiz-adv-x="1456" d="M23 0v86h147l496 1352h118l498 -1352h152v-86h-465v86h196l-151 416h-584l-149 -416h196v-86h-454zM461 588h520l-260 739zM479 1577l197 256h102l195 -256h-99l-149 195l-152 -195h-94z" />
<glyph unicode="&#xc3;" horiz-adv-x="1456" d="M23 0v86h147l496 1352h118l498 -1352h152v-86h-465v86h196l-151 416h-584l-149 -416h196v-86h-454zM422 1622q2 82 47.5 133t118.5 51q48 0 99 -26t97 -52t82 -26t58 28t24 70h80q-1 -82 -46.5 -132t-117.5 -50q-48 0 -99 25.5t-97.5 51t-83.5 25.5q-36 0 -58 -27.5 t-24 -70.5h-80zM461 588h520l-260 739z" />
<glyph unicode="&#xc4;" horiz-adv-x="1456" d="M23 0v86h147l496 1352h118l498 -1352h152v-86h-465v86h196l-151 416h-584l-149 -416h196v-86h-454zM461 588h520l-260 739zM471 1720q0 34 23.5 58t58.5 24q38 0 62 -24t24 -58q0 -36 -24 -61t-62 -25q-35 0 -58.5 25t-23.5 61zM809 1720q0 34 23.5 58t58.5 24 q38 0 62 -24t24 -58q0 -36 -24 -61t-62 -25q-35 0 -58.5 25t-23.5 61z" />
<glyph unicode="&#xc5;" horiz-adv-x="1456" d="M23 0v86h147l496 1352h118l498 -1352h152v-86h-465v86h196l-151 416h-584l-149 -416h196v-86h-454zM461 588h520l-260 739zM557 1716q0 68 49 115t119 47q68 0 117 -47t49 -115q0 -71 -48.5 -118.5t-117.5 -47.5q-70 0 -119 47.5t-49 118.5zM629 1716q0 -45 27 -74.5 t69 -29.5q41 0 67.5 29.5t26.5 74.5q0 44 -26.5 72.5t-67.5 28.5q-43 0 -69.5 -28.5t-26.5 -72.5z" />
<glyph unicode="&#xc6;" horiz-adv-x="1861" d="M0 0v86h145l777 1348h790v-342h-98v256h-522v-576h483v-88h-483v-598h528v262h98v-348h-927v86h194v598h-387l-340 -598h188v-86h-446zM645 766h340v602z" />
<glyph unicode="&#xc7;" horiz-adv-x="1443" d="M127 727q0 206 84.5 373.5t237.5 263.5t346 96q136 0 253 -65.5t185 -177.5v219h96v-412h-84q-46 151 -166 244.5t-266 93.5q-168 0 -299 -83t-200.5 -225.5t-69.5 -320.5q0 -183 65.5 -331.5t195 -239t302.5 -90.5q144 0 263 73.5t194 202.5l88 -51 q-77 -149 -223 -236.5t-320 -87.5h-14l-17 -75q10 2 25 2q57 0 97 -44.5t40 -107.5q0 -78 -56.5 -124t-144.5 -46q-52 0 -96 19l16 79q32 -18 74 -18q51 0 86 24.5t35 65.5t-31 62.5t-84 21.5q-25 0 -49 -8l33 153q-273 32 -434.5 241.5t-161.5 508.5z" />
<glyph unicode="&#xc8;" horiz-adv-x="1169" d="M111 0v86h180v1262h-180v86h907v-334h-98v248h-521v-555h482v-91h-482v-616h527v272h98v-358h-913zM465 1847h115l141 -272h-94z" />
<glyph unicode="&#xc9;" horiz-adv-x="1169" d="M111 0v86h180v1262h-180v86h907v-334h-98v248h-521v-555h482v-91h-482v-616h527v272h98v-358h-913zM549 1575l141 272h115l-162 -272h-94z" />
<glyph unicode="&#xca;" horiz-adv-x="1169" d="M111 0v86h180v1262h-180v86h907v-334h-98v248h-521v-555h482v-91h-482v-616h527v272h98v-358h-913zM391 1577l197 256h102l195 -256h-99l-149 195l-152 -195h-94z" />
<glyph unicode="&#xcb;" horiz-adv-x="1169" d="M111 0v86h180v1262h-180v86h907v-334h-98v248h-521v-555h482v-91h-482v-616h527v272h98v-358h-913zM383 1720q0 34 23.5 58t58.5 24q38 0 62 -24t24 -58q0 -36 -24 -61t-62 -25q-35 0 -58.5 25t-23.5 61zM721 1720q0 34 23.5 58t58.5 24q38 0 62 -24t24 -58 q0 -36 -24 -61t-62 -25q-35 0 -58.5 25t-23.5 61z" />
<glyph unicode="&#xcc;" horiz-adv-x="690" d="M111 0v86h180v1262h-180v86h469v-86h-181v-1262h181v-86h-469zM174 1847h115l141 -272h-94z" />
<glyph unicode="&#xcd;" horiz-adv-x="690" d="M111 0v86h180v1262h-180v86h469v-86h-181v-1262h181v-86h-469zM258 1575l141 272h115l-162 -272h-94z" />
<glyph unicode="&#xce;" horiz-adv-x="690" d="M100 1577l197 256h102l195 -256h-98l-150 195l-151 -195h-95zM111 0v86h180v1262h-180v86h469v-86h-181v-1262h181v-86h-469z" />
<glyph unicode="&#xcf;" horiz-adv-x="690" d="M92 1720q0 34 23.5 58t58.5 24q38 0 62 -24t24 -58q0 -36 -24 -61t-62 -25q-35 0 -58.5 25t-23.5 61zM111 0v86h180v1262h-180v86h469v-86h-181v-1262h181v-86h-469zM430 1720q0 34 23.5 58t58.5 24q38 0 62 -24t24 -58q0 -36 -24 -61t-62 -25q-35 0 -58.5 25t-23.5 61z " />
<glyph unicode="&#xd0;" horiz-adv-x="1472" d="M113 705v86h202v557h-180v86h510q315 0 508 -193t193 -520q0 -330 -185 -525.5t-502 -195.5h-524v86h180v619h-202zM424 86h211q278 0 436 168t158 471q0 291 -165.5 457t-442.5 166h-197v-557h375v-86h-375v-619z" />
<glyph unicode="&#xd1;" horiz-adv-x="1624" d="M109 0v86h180v1262h-180v86h294l832 -1268v1182h-180v86h461v-86h-181v-1348h-118l-828 1270v-1184h180v-86h-460zM510 1622q2 82 47.5 133t118.5 51q48 0 99 -26t97 -52t82 -26t58 28t24 70h80q-1 -82 -46.5 -132t-117.5 -50q-48 0 -99 25.5t-97.5 51t-83.5 25.5 q-36 0 -58 -27.5t-24 -70.5h-80z" />
<glyph unicode="&#xd2;" horiz-adv-x="1626" d="M127 729q0 153 50 287.5t138.5 232.5t217.5 154.5t280 56.5t280 -56.5t217.5 -154.5t138.5 -232.5t50 -287.5q0 -157 -49.5 -296t-137.5 -240.5t-217.5 -160.5t-281.5 -59t-281.5 59t-217.5 160.5t-137.5 240.5t-49.5 296zM244 729q0 -186 69.5 -335t200 -235.5 t299.5 -86.5t299.5 86.5t200 235.5t69.5 335q0 277 -156.5 455t-412.5 178t-412.5 -178t-156.5 -455zM641 1847h115l141 -272h-94z" />
<glyph unicode="&#xd3;" horiz-adv-x="1626" d="M127 729q0 153 50 287.5t138.5 232.5t217.5 154.5t280 56.5t280 -56.5t217.5 -154.5t138.5 -232.5t50 -287.5q0 -157 -49.5 -296t-137.5 -240.5t-217.5 -160.5t-281.5 -59t-281.5 59t-217.5 160.5t-137.5 240.5t-49.5 296zM244 729q0 -186 69.5 -335t200 -235.5 t299.5 -86.5t299.5 86.5t200 235.5t69.5 335q0 277 -156.5 455t-412.5 178t-412.5 -178t-156.5 -455zM725 1575l141 272h115l-162 -272h-94z" />
<glyph unicode="&#xd4;" horiz-adv-x="1626" d="M127 729q0 153 50 287.5t138.5 232.5t217.5 154.5t280 56.5t280 -56.5t217.5 -154.5t138.5 -232.5t50 -287.5q0 -157 -49.5 -296t-137.5 -240.5t-217.5 -160.5t-281.5 -59t-281.5 59t-217.5 160.5t-137.5 240.5t-49.5 296zM244 729q0 -186 69.5 -335t200 -235.5 t299.5 -86.5t299.5 86.5t200 235.5t69.5 335q0 277 -156.5 455t-412.5 178t-412.5 -178t-156.5 -455zM567 1577l197 256h102l195 -256h-98l-150 195l-151 -195h-95z" />
<glyph unicode="&#xd5;" horiz-adv-x="1626" d="M127 729q0 153 50 287.5t138.5 232.5t217.5 154.5t280 56.5t280 -56.5t217.5 -154.5t138.5 -232.5t50 -287.5q0 -157 -49.5 -296t-137.5 -240.5t-217.5 -160.5t-281.5 -59t-281.5 59t-217.5 160.5t-137.5 240.5t-49.5 296zM244 729q0 -186 69.5 -335t200 -235.5 t299.5 -86.5t299.5 86.5t200 235.5t69.5 335q0 277 -156.5 455t-412.5 178t-412.5 -178t-156.5 -455zM510 1622q2 82 47.5 133t118.5 51q48 0 99 -26t97 -52t82 -26t58 28t24 70h80q-1 -82 -46.5 -132t-117.5 -50q-48 0 -99 25.5t-97.5 51t-83.5 25.5q-36 0 -58 -27.5 t-24 -70.5h-80z" />
<glyph unicode="&#xd6;" horiz-adv-x="1626" d="M127 729q0 153 50 287.5t138.5 232.5t217.5 154.5t280 56.5t280 -56.5t217.5 -154.5t138.5 -232.5t50 -287.5q0 -157 -49.5 -296t-137.5 -240.5t-217.5 -160.5t-281.5 -59t-281.5 59t-217.5 160.5t-137.5 240.5t-49.5 296zM244 729q0 -186 69.5 -335t200 -235.5 t299.5 -86.5t299.5 86.5t200 235.5t69.5 335q0 277 -156.5 455t-412.5 178t-412.5 -178t-156.5 -455zM559 1720q0 34 23.5 58t58.5 24q38 0 62 -24t24 -58q0 -36 -24 -61t-62 -25q-35 0 -58.5 25t-23.5 61zM897 1720q0 34 23.5 58t58.5 24q38 0 62 -24t24 -58q0 -36 -24 -61 t-62 -25q-35 0 -58.5 25t-23.5 61z" />
<glyph unicode="&#xd7;" horiz-adv-x="1142" d="M152 252l360 387l-360 387l63 61l358 -382l357 382l63 -61l-360 -387l360 -387l-63 -62l-357 383l-358 -383z" />
<glyph unicode="&#xd8;" horiz-adv-x="1626" d="M127 729q0 153 50 287.5t138.5 232.5t217.5 154.5t280 56.5q243 0 420 -141l125 151l74 -61l-127 -154q93 -101 143.5 -236t50.5 -290q0 -157 -49.5 -296t-137.5 -240.5t-217.5 -160.5t-281.5 -59q-255 0 -434 158l-135 -164l-74 62l139 170q-88 102 -135 238t-47 292z M244 729q0 -265 137 -444l786 954q-145 123 -354 123q-256 0 -412.5 -178t-156.5 -455zM444 211q152 -139 369 -139q169 0 299.5 86.5t200 235.5t69.5 335q0 267 -145 442z" />
<glyph unicode="&#xd9;" horiz-adv-x="1503" d="M72 1348v86h469v-86h-187v-861q0 -189 105 -302t293 -113t292.5 113t104.5 302v861h-188v86h471v-86h-175v-856q0 -234 -133.5 -376.5t-371.5 -142.5t-372 142.5t-134 376.5v856h-174zM580 1847h114l142 -272h-95z" />
<glyph unicode="&#xda;" horiz-adv-x="1503" d="M72 1348v86h469v-86h-187v-861q0 -189 105 -302t293 -113t292.5 113t104.5 302v861h-188v86h471v-86h-175v-856q0 -234 -133.5 -376.5t-371.5 -142.5t-372 142.5t-134 376.5v856h-174zM664 1575l141 272h115l-162 -272h-94z" />
<glyph unicode="&#xdb;" horiz-adv-x="1503" d="M72 1348v86h469v-86h-187v-861q0 -189 105 -302t293 -113t292.5 113t104.5 302v861h-188v86h471v-86h-175v-856q0 -234 -133.5 -376.5t-371.5 -142.5t-372 142.5t-134 376.5v856h-174zM506 1577l196 256h103l194 -256h-98l-149 195l-152 -195h-94z" />
<glyph unicode="&#xdc;" horiz-adv-x="1503" d="M72 1348v86h469v-86h-187v-861q0 -189 105 -302t293 -113t292.5 113t104.5 302v861h-188v86h471v-86h-175v-856q0 -234 -133.5 -376.5t-371.5 -142.5t-372 142.5t-134 376.5v856h-174zM498 1720q0 34 23.5 58t58.5 24q38 0 62 -24t24 -58q0 -36 -24 -61t-62 -25 q-35 0 -58.5 25t-23.5 61zM836 1720q0 34 23.5 58t58.5 24q38 0 62 -24t24 -58q0 -36 -24 -61t-62 -25q-35 0 -58.5 25t-23.5 61z" />
<glyph unicode="&#xdd;" d="M20 1348v86h455v-84h-182l358 -629l361 629h-183v84h443v-86h-152l-420 -725v-537h203v-86h-514v86h203v535l-422 727h-150zM559 1575l141 272h115l-162 -272h-94z" />
<glyph unicode="&#xde;" horiz-adv-x="1169" d="M117 0v86h180v1262h-180v86h504v-86h-215v-252h258q184 0 299.5 -94t115.5 -261q0 -172 -117 -270t-298 -98h-258v-287h215v-86h-504zM406 459h245q135 0 224.5 77.5t89.5 202.5t-87.5 198t-226.5 73h-245v-551z" />
<glyph unicode="&#xdf;" horiz-adv-x="1236" d="M74 0v86h166v1028q0 172 98 273.5t256 101.5q153 0 251.5 -89.5t98.5 -215.5q0 -104 -64.5 -183t-162.5 -108q170 -23 282.5 -137t112.5 -287q0 -200 -134 -334.5t-337 -134.5h-29v88q173 0 280 105.5t107 267.5t-115.5 265t-293.5 114v86q105 12 176.5 79t71.5 162 q0 100 -69.5 164t-178.5 64q-115 0 -181.5 -79t-66.5 -206v-1024h119v-86h-387z" />
<glyph unicode="&#xe0;" horiz-adv-x="1232" d="M133 313q0 147 116.5 239.5t297.5 92.5q112 0 199.5 -39t136.5 -106v200q0 129 -83.5 204t-226.5 75q-169 0 -327 -100l-47 79q173 113 391 113q182 0 288.5 -99.5t106.5 -260.5v-625h166v-86h-264v150q-44 -79 -138 -126t-219 -47q-174 0 -285.5 93t-111.5 243zM242 315 q0 -105 86.5 -175t232.5 -70q142 0 234 70.5t92 176.5q0 102 -92.5 172t-231.5 70q-143 0 -232 -69t-89 -175zM424 1481h115l141 -273h-94z" />
<glyph unicode="&#xe1;" horiz-adv-x="1232" d="M133 313q0 147 116.5 239.5t297.5 92.5q112 0 199.5 -39t136.5 -106v200q0 129 -83.5 204t-226.5 75q-169 0 -327 -100l-47 79q173 113 391 113q182 0 288.5 -99.5t106.5 -260.5v-625h166v-86h-264v150q-44 -79 -138 -126t-219 -47q-174 0 -285.5 93t-111.5 243zM242 315 q0 -105 86.5 -175t232.5 -70q142 0 234 70.5t92 176.5q0 102 -92.5 172t-231.5 70q-143 0 -232 -69t-89 -175zM508 1208l141 273h115l-162 -273h-94z" />
<glyph unicode="&#xe2;" horiz-adv-x="1232" d="M133 313q0 147 116.5 239.5t297.5 92.5q112 0 199.5 -39t136.5 -106v200q0 129 -83.5 204t-226.5 75q-169 0 -327 -100l-47 79q173 113 391 113q182 0 288.5 -99.5t106.5 -260.5v-625h166v-86h-264v150q-44 -79 -138 -126t-219 -47q-174 0 -285.5 93t-111.5 243zM242 315 q0 -105 86.5 -175t232.5 -70q142 0 234 70.5t92 176.5q0 102 -92.5 172t-231.5 70q-143 0 -232 -69t-89 -175zM350 1210l197 256h102l195 -256h-99l-149 195l-152 -195h-94z" />
<glyph unicode="&#xe3;" horiz-adv-x="1232" d="M133 313q0 147 116.5 239.5t297.5 92.5q112 0 199.5 -39t136.5 -106v200q0 129 -83.5 204t-226.5 75q-169 0 -327 -100l-47 79q173 113 391 113q182 0 288.5 -99.5t106.5 -260.5v-625h166v-86h-264v150q-44 -79 -138 -126t-219 -47q-174 0 -285.5 93t-111.5 243zM242 315 q0 -105 86.5 -175t232.5 -70q142 0 234 70.5t92 176.5q0 102 -92.5 172t-231.5 70q-143 0 -232 -69t-89 -175zM293 1255q2 82 47.5 133.5t118.5 51.5q38 0 78.5 -16.5t70 -36t65 -36t64.5 -16.5q36 0 58 28t24 71h80q-2 -82 -47 -132.5t-117 -50.5q-38 0 -78.5 16t-70 35.5 t-65.5 35.5t-66 16q-36 0 -58 -27.5t-24 -71.5h-80z" />
<glyph unicode="&#xe4;" horiz-adv-x="1232" d="M133 313q0 147 116.5 239.5t297.5 92.5q112 0 199.5 -39t136.5 -106v200q0 129 -83.5 204t-226.5 75q-169 0 -327 -100l-47 79q173 113 391 113q182 0 288.5 -99.5t106.5 -260.5v-625h166v-86h-264v150q-44 -79 -138 -126t-219 -47q-174 0 -285.5 93t-111.5 243zM242 315 q0 -105 86.5 -175t232.5 -70q142 0 234 70.5t92 176.5q0 102 -92.5 172t-231.5 70q-143 0 -232 -69t-89 -175zM342 1354q0 34 23.5 58t58.5 24q38 0 62 -24t24 -58q0 -36 -24 -61t-62 -25q-35 0 -58.5 25t-23.5 61zM680 1354q0 34 23.5 58t58.5 24q38 0 62 -24t24 -58 q0 -36 -24 -61t-62 -25q-35 0 -58.5 25t-23.5 61z" />
<glyph unicode="&#xe5;" horiz-adv-x="1232" d="M133 313q0 147 116.5 239.5t297.5 92.5q112 0 199.5 -39t136.5 -106v200q0 129 -83.5 204t-226.5 75q-169 0 -327 -100l-47 79q173 113 391 113q182 0 288.5 -99.5t106.5 -260.5v-625h166v-86h-264v150q-44 -79 -138 -126t-219 -47q-174 0 -285.5 93t-111.5 243zM242 315 q0 -105 86.5 -175t232.5 -70q142 0 234 70.5t92 176.5q0 102 -92.5 172t-231.5 70q-143 0 -232 -69t-89 -175zM428 1350q0 68 49 114.5t119 46.5q68 0 117 -46.5t49 -114.5q0 -71 -48.5 -118.5t-117.5 -47.5q-70 0 -119 47.5t-49 118.5zM500 1350q0 -45 27 -75t69 -30 q41 0 67.5 30t26.5 75q0 44 -26.5 72t-67.5 28q-43 0 -69.5 -28t-26.5 -72z" />
<glyph unicode="&#xe6;" horiz-adv-x="1943" d="M133 313q0 148 116.5 240t297.5 92q113 0 201 -39.5t137 -105.5v182q0 136 -85 217.5t-225 81.5q-172 0 -329 -102l-45 79q181 113 389 113q139 0 236.5 -71.5t127.5 -190.5q59 120 172.5 193t249.5 73q209 0 332 -140.5t123 -356.5v-54l-846 -2q4 -209 113 -331.5 t291 -122.5q105 0 198 51t158 141l72 -59q-72 -113 -184.5 -170.5t-250.5 -57.5q-142 0 -251.5 66.5t-172.5 183.5q-42 -116 -150 -182t-263 -66q-182 0 -297 93.5t-115 244.5zM242 315q0 -105 86.5 -177t232.5 -72q134 0 230 76.5t96 181.5q0 100 -92.5 167.5t-231.5 67.5 q-143 0 -232 -69t-89 -175zM989 612h740q0 159 -101 266t-258 107q-142 0 -252.5 -104t-128.5 -269z" />
<glyph unicode="&#xe7;" horiz-adv-x="1157" d="M109 539q0 110 40 209.5t106 170t155.5 112.5t185.5 42q114 0 202.5 -50t141.5 -136v160h96v-332h-84q-35 122 -120.5 194t-213.5 72q-166 0 -282.5 -125t-116.5 -317q0 -205 114.5 -338t297.5 -133q106 0 200.5 53.5t155.5 144.5l74 -53q-67 -114 -182.5 -177 t-253.5 -63h-19l-16 -75q10 2 24 2q57 0 97.5 -44.5t40.5 -107.5q0 -78 -56.5 -124t-144.5 -46q-52 0 -96 19l16 79q32 -18 74 -18q51 0 86 24.5t35 65.5t-31 62.5t-84 21.5q-25 0 -49 -8l33 158q-193 31 -309.5 184t-116.5 373z" />
<glyph unicode="&#xe8;" horiz-adv-x="1200" d="M109 541q0 148 65.5 269.5t182.5 192t261 70.5q211 0 340 -140.5t129 -354.5v-54h-870q5 -203 118.5 -329.5t295.5 -126.5q107 0 202 49.5t166 140.5l72 -59q-162 -226 -448 -226q-228 0 -371 159t-143 409zM221 612h760q0 157 -104.5 264t-262.5 107q-149 0 -262.5 -103 t-130.5 -268zM453 1481h114l142 -273h-95z" />
<glyph unicode="&#xe9;" horiz-adv-x="1200" d="M109 541q0 148 65.5 269.5t182.5 192t261 70.5q211 0 340 -140.5t129 -354.5v-54h-870q5 -203 118.5 -329.5t295.5 -126.5q107 0 202 49.5t166 140.5l72 -59q-162 -226 -448 -226q-228 0 -371 159t-143 409zM221 612h760q0 157 -104.5 264t-262.5 107q-149 0 -262.5 -103 t-130.5 -268zM537 1208l141 273h115l-162 -273h-94z" />
<glyph unicode="&#xea;" horiz-adv-x="1200" d="M109 541q0 148 65.5 269.5t182.5 192t261 70.5q211 0 340 -140.5t129 -354.5v-54h-870q5 -203 118.5 -329.5t295.5 -126.5q107 0 202 49.5t166 140.5l72 -59q-162 -226 -448 -226q-228 0 -371 159t-143 409zM221 612h760q0 157 -104.5 264t-262.5 107q-149 0 -262.5 -103 t-130.5 -268zM379 1210l196 256h103l194 -256h-98l-149 195l-152 -195h-94z" />
<glyph unicode="&#xeb;" horiz-adv-x="1200" d="M109 541q0 148 65.5 269.5t182.5 192t261 70.5q211 0 340 -140.5t129 -354.5v-54h-870q5 -203 118.5 -329.5t295.5 -126.5q107 0 202 49.5t166 140.5l72 -59q-162 -226 -448 -226q-228 0 -371 159t-143 409zM221 612h760q0 157 -104.5 264t-262.5 107q-149 0 -262.5 -103 t-130.5 -268zM371 1354q0 34 23.5 58t58.5 24q38 0 62 -24t24 -58q0 -36 -24 -61t-62 -25q-35 0 -58.5 25t-23.5 61zM709 1354q0 34 23.5 58t58.5 24q38 0 62 -24t24 -58q0 -36 -24 -61t-62 -25q-35 0 -58.5 25t-23.5 61z" />
<glyph unicode="&#xec;" horiz-adv-x="616" d="M98 0v86h166v875h-166v86h269v-961h165v-86h-434zM127 1481h115l141 -273h-94z" />
<glyph unicode="&#xed;" horiz-adv-x="616" d="M98 0v86h166v875h-166v86h269v-961h165v-86h-434zM211 1208l141 273h115l-162 -273h-94z" />
<glyph unicode="&#xee;" horiz-adv-x="616" d="M53 1210l197 256h102l195 -256h-98l-150 195l-152 -195h-94zM98 0v86h166v875h-166v86h269v-961h165v-86h-434z" />
<glyph unicode="&#xef;" horiz-adv-x="616" d="M68 1350q0 32 22.5 54.5t56.5 22.5q36 0 59 -22t23 -55q0 -36 -23 -60t-59 -24q-34 0 -56.5 24.5t-22.5 59.5zM98 0v86h166v875h-166v86h269v-961h165v-86h-434zM365 1350q0 33 22 55t55 22q36 0 59 -22t23 -55q0 -36 -23 -60t-59 -24q-33 0 -55 24t-22 60z" />
<glyph unicode="&#xf0;" horiz-adv-x="1249" d="M115 510q0 221 138.5 364.5t352.5 143.5q119 0 218.5 -53t156.5 -148q-82 272 -340 443l-313 -144l-31 74l266 121q-101 59 -250 110l41 74q156 -48 310 -137l307 137l30 -74l-260 -116q381 -257 381 -770q0 -163 -61 -290.5t-175.5 -199.5t-264.5 -72q-226 0 -366 150.5 t-140 386.5zM225 508q0 -191 111 -315.5t282 -124.5q170 0 282 126.5t112 317.5q0 186 -113 301t-283 115q-169 0 -280 -118.5t-111 -301.5z" />
<glyph unicode="&#xf1;" horiz-adv-x="1370" d="M98 0v86h166v875h-166v86h269v-203q44 103 141 165t225 62q175 0 282 -104t107 -277v-604h166v-86h-430v86h162v594q0 133 -86.5 214t-226.5 81q-137 0 -238.5 -97t-101.5 -225v-567h161v-86h-430zM399 1255q2 82 47.5 133.5t118.5 51.5q38 0 79 -16.5t70 -36t65 -36 t65 -16.5q36 0 58 28t24 71h80q-2 -82 -47 -132.5t-117 -50.5q-48 0 -99 25.5t-98 51.5t-84 26q-36 0 -58 -27.5t-24 -71.5h-80z" />
<glyph unicode="&#xf2;" d="M109 535q0 235 152.5 387.5t385.5 152.5q231 0 384 -152.5t153 -387.5q0 -242 -151.5 -402t-385.5 -160q-235 0 -386.5 159.5t-151.5 402.5zM219 535q0 -203 120 -335t308 -132q187 0 306.5 132t119.5 335q0 197 -119.5 321.5t-306.5 124.5q-188 0 -308 -124.5 t-120 -321.5zM475 1481h115l141 -273h-94z" />
<glyph unicode="&#xf3;" d="M109 535q0 235 152.5 387.5t385.5 152.5q231 0 384 -152.5t153 -387.5q0 -242 -151.5 -402t-385.5 -160q-235 0 -386.5 159.5t-151.5 402.5zM219 535q0 -203 120 -335t308 -132q187 0 306.5 132t119.5 335q0 197 -119.5 321.5t-306.5 124.5q-188 0 -308 -124.5 t-120 -321.5zM559 1208l141 273h115l-162 -273h-94z" />
<glyph unicode="&#xf4;" d="M109 535q0 235 152.5 387.5t385.5 152.5q231 0 384 -152.5t153 -387.5q0 -242 -151.5 -402t-385.5 -160q-235 0 -386.5 159.5t-151.5 402.5zM219 535q0 -203 120 -335t308 -132q187 0 306.5 132t119.5 335q0 197 -119.5 321.5t-306.5 124.5q-188 0 -308 -124.5 t-120 -321.5zM401 1210l197 256h102l195 -256h-98l-150 195l-151 -195h-95z" />
<glyph unicode="&#xf5;" d="M109 535q0 235 152.5 387.5t385.5 152.5q231 0 384 -152.5t153 -387.5q0 -242 -151.5 -402t-385.5 -160q-235 0 -386.5 159.5t-151.5 402.5zM219 535q0 -203 120 -335t308 -132q187 0 306.5 132t119.5 335q0 197 -119.5 321.5t-306.5 124.5q-188 0 -308 -124.5 t-120 -321.5zM344 1255q2 82 47.5 133.5t118.5 51.5q38 0 78.5 -16.5t70 -36t65 -36t64.5 -16.5q36 0 58 28t24 71h80q-2 -82 -47 -132.5t-117 -50.5q-38 0 -78.5 16t-70 35.5t-65.5 35.5t-66 16q-36 0 -58 -27.5t-24 -71.5h-80z" />
<glyph unicode="&#xf6;" d="M109 535q0 235 152.5 387.5t385.5 152.5q231 0 384 -152.5t153 -387.5q0 -242 -151.5 -402t-385.5 -160q-235 0 -386.5 159.5t-151.5 402.5zM219 535q0 -203 120 -335t308 -132q187 0 306.5 132t119.5 335q0 197 -119.5 321.5t-306.5 124.5q-188 0 -308 -124.5 t-120 -321.5zM393 1354q0 34 23.5 58t58.5 24q38 0 62 -24t24 -58q0 -36 -24 -61t-62 -25q-35 0 -58.5 25t-23.5 61zM731 1354q0 34 23.5 58t58.5 24q38 0 62 -24t24 -58q0 -36 -24 -61t-62 -25q-35 0 -58.5 25t-23.5 61z" />
<glyph unicode="&#xf7;" horiz-adv-x="1175" d="M123 600v86h930v-86h-930zM500 305q0 37 25 63.5t61 26.5q37 0 63.5 -26.5t26.5 -63.5q0 -35 -26.5 -60.5t-63.5 -25.5q-36 0 -61 25t-25 61zM500 977q0 37 25 63.5t61 26.5q37 0 63.5 -26.5t26.5 -63.5q0 -35 -26.5 -60.5t-63.5 -25.5q-36 0 -61 25t-25 61z" />
<glyph unicode="&#xf8;" d="M109 535q0 235 152.5 387.5t385.5 152.5q177 0 314 -94l83 100l72 -57l-84 -102q152 -155 152 -387q0 -242 -151.5 -402t-385.5 -160q-177 0 -317 99l-90 -109l-72 57l92 113q-151 157 -151 402zM219 535q0 -194 109 -322l571 692q-109 76 -252 76q-188 0 -308 -124.5 t-120 -321.5zM393 150q113 -82 254 -82q187 0 306.5 132t119.5 335q0 185 -106 307z" />
<glyph unicode="&#xf9;" horiz-adv-x="1312" d="M72 961v86h268v-674q0 -137 77 -220t204 -83q135 0 236 100.5t101 226.5v564h-165v86h268v-961h166v-86h-269v205q-42 -106 -137 -168t-223 -62q-166 0 -263 106t-97 277v603h-166zM442 1481h115l141 -273h-94z" />
<glyph unicode="&#xfa;" horiz-adv-x="1312" d="M72 961v86h268v-674q0 -137 77 -220t204 -83q135 0 236 100.5t101 226.5v564h-165v86h268v-961h166v-86h-269v205q-42 -106 -137 -168t-223 -62q-166 0 -263 106t-97 277v603h-166zM526 1208l142 273h114l-161 -273h-95z" />
<glyph unicode="&#xfb;" horiz-adv-x="1312" d="M72 961v86h268v-674q0 -137 77 -220t204 -83q135 0 236 100.5t101 226.5v564h-165v86h268v-961h166v-86h-269v205q-42 -106 -137 -168t-223 -62q-166 0 -263 106t-97 277v603h-166zM369 1210l196 256h103l194 -256h-98l-150 195l-151 -195h-94z" />
<glyph unicode="&#xfc;" horiz-adv-x="1312" d="M72 961v86h268v-674q0 -137 77 -220t204 -83q135 0 236 100.5t101 226.5v564h-165v86h268v-961h166v-86h-269v205q-42 -106 -137 -168t-223 -62q-166 0 -263 106t-97 277v603h-166zM360 1354q0 34 23.5 58t58.5 24q38 0 62 -24t24 -58q0 -36 -24 -61t-62 -25 q-35 0 -58.5 25t-23.5 61zM698 1354q0 34 23.5 58t58.5 24q38 0 62 -24t24 -58q0 -36 -24 -61t-62 -25q-35 0 -58.5 25t-23.5 61z" />
<glyph unicode="&#xfd;" horiz-adv-x="1198" d="M8 961v86h441v-86h-185l340 -865l336 865h-184v86h434v-86h-146l-409 -1035q-59 -151 -151.5 -233t-209.5 -82q-62 0 -110 10v94q48 -10 104 -10q82 0 154 64.5t121 185.5l8 20l-397 986h-146zM512 1208l141 273h115l-162 -273h-94z" />
<glyph unicode="&#xfe;" horiz-adv-x="1380" d="M90 -297h166v1645h-166v86h268l2 -641q49 121 157.5 201.5t264.5 80.5q214 0 350 -156t136 -389q0 -239 -142 -398t-360 -159q-148 0 -252 75.5t-152 199.5l-4 -545h197v-86h-465v86zM358 528q0 -196 114 -328t286 -132q175 0 287 131t112 329q0 194 -109 323.5 t-286 129.5q-171 0 -287.5 -130t-116.5 -323z" />
<glyph unicode="&#xff;" horiz-adv-x="1198" d="M8 961v86h441v-86h-185l340 -865l336 865h-184v86h434v-86h-146l-409 -1035q-59 -151 -151.5 -233t-209.5 -82q-62 0 -110 10v94q48 -10 104 -10q82 0 154 64.5t121 185.5l8 20l-397 986h-146zM346 1354q0 34 23.5 58t58.5 24q38 0 62 -24t24 -58q0 -36 -24 -61t-62 -25 q-35 0 -58.5 25t-23.5 61zM684 1354q0 34 23.5 58t58.5 24q38 0 62 -24t24 -58q0 -36 -24 -61t-62 -25q-35 0 -58.5 25t-23.5 61z" />
<glyph unicode="&#x100;" horiz-adv-x="1456" d="M23 0v86h147l496 1352h118l498 -1352h152v-86h-465v86h196l-151 416h-584l-149 -416h196v-86h-454zM430 1642v82h588v-82h-588zM461 588h520l-260 739z" />
<glyph unicode="&#x101;" horiz-adv-x="1232" d="M133 313q0 147 116.5 239.5t297.5 92.5q112 0 199.5 -39t136.5 -106v200q0 129 -83.5 204t-226.5 75q-169 0 -327 -100l-47 79q173 113 391 113q182 0 288.5 -99.5t106.5 -260.5v-625h166v-86h-264v150q-44 -79 -138 -126t-219 -47q-174 0 -285.5 93t-111.5 243zM242 315 q0 -105 86.5 -175t232.5 -70q142 0 234 70.5t92 176.5q0 102 -92.5 172t-231.5 70q-143 0 -232 -69t-89 -175zM301 1276v82h588v-82h-588z" />
<glyph unicode="&#x102;" horiz-adv-x="1456" d="M23 0v86h147l496 1352h118l498 -1352h152v-86h-465v86h196l-151 416h-584l-149 -416h196v-86h-454zM461 588h520l-260 739zM496 1804h92q0 -155 137 -155q139 0 139 155h92q0 -104 -59.5 -168.5t-171.5 -64.5q-111 0 -170 64.5t-59 168.5z" />
<glyph unicode="&#x103;" horiz-adv-x="1232" d="M133 313q0 147 116.5 239.5t297.5 92.5q112 0 199.5 -39t136.5 -106v200q0 129 -83.5 204t-226.5 75q-169 0 -327 -100l-47 79q173 113 391 113q182 0 288.5 -99.5t106.5 -260.5v-625h166v-86h-264v150q-44 -79 -138 -126t-219 -47q-174 0 -285.5 93t-111.5 243zM242 315 q0 -105 86.5 -175t232.5 -70q142 0 234 70.5t92 176.5q0 102 -92.5 172t-231.5 70q-143 0 -232 -69t-89 -175zM367 1438h92q0 -156 137 -156q139 0 139 156h92q0 -104 -59.5 -169t-171.5 -65q-111 0 -170 65t-59 169z" />
<glyph unicode="&#x104;" horiz-adv-x="1456" d="M23 0v86h147l496 1352h118l498 -1352h152v-86h-115q-62 -34 -100.5 -82t-38.5 -100q0 -43 27 -72t69 -29q56 0 108 45l48 -67q-73 -66 -164 -66q-81 0 -136 48t-55 122q0 55 32.5 108.5t86.5 92.5h-227v86h196l-151 416h-584l-149 -416h196v-86h-454zM461 588h520 l-260 739z" />
<glyph unicode="&#x105;" horiz-adv-x="1232" d="M133 313q0 147 116.5 239.5t297.5 92.5q112 0 199.5 -39t136.5 -106v200q0 129 -83.5 204t-226.5 75q-169 0 -327 -100l-47 79q173 113 391 113q182 0 288.5 -99.5t106.5 -260.5v-625h166v-86h-147q-62 -34 -101 -82t-39 -100q0 -43 27.5 -72t69.5 -29q56 0 108 45 l47 -67q-73 -66 -164 -66q-81 0 -135.5 48t-54.5 122q0 57 34 110.5t91 94.5v146q-44 -79 -138 -126t-219 -47q-174 0 -285.5 93t-111.5 243zM242 315q0 -105 86.5 -175t232.5 -70q142 0 234 70.5t92 176.5q0 102 -92.5 172t-231.5 70q-143 0 -232 -69t-89 -175z" />
<glyph unicode="&#x106;" horiz-adv-x="1443" d="M127 727q0 206 84.5 373.5t237.5 263.5t346 96q136 0 253 -65.5t185 -177.5v219h96v-412h-84q-46 151 -166 244.5t-266 93.5q-168 0 -299 -83t-200.5 -225.5t-69.5 -320.5q0 -183 65.5 -331.5t195 -239t302.5 -90.5q144 0 263 73.5t194 202.5l88 -51 q-77 -149 -223 -236.5t-320 -87.5q-206 0 -362.5 101t-238 271t-81.5 382zM698 1575l142 272h114l-161 -272h-95z" />
<glyph unicode="&#x107;" horiz-adv-x="1157" d="M109 539q0 110 40 209.5t106 170t155.5 112.5t185.5 42q114 0 202.5 -50t141.5 -136v160h96v-332h-84q-35 122 -120.5 194t-213.5 72q-166 0 -282.5 -125t-116.5 -317q0 -205 114.5 -338t297.5 -133q106 0 200.5 53.5t155.5 144.5l74 -53q-67 -114 -182.5 -177 t-253.5 -63q-151 0 -269 73.5t-182.5 202t-64.5 290.5zM512 1208l141 273h115l-162 -273h-94z" />
<glyph unicode="&#x108;" horiz-adv-x="1443" d="M127 727q0 206 84.5 373.5t237.5 263.5t346 96q136 0 253 -65.5t185 -177.5v219h96v-412h-84q-46 151 -166 244.5t-266 93.5q-168 0 -299 -83t-200.5 -225.5t-69.5 -320.5q0 -183 65.5 -331.5t195 -239t302.5 -90.5q144 0 263 73.5t194 202.5l88 -51 q-77 -149 -223 -236.5t-320 -87.5q-206 0 -362.5 101t-238 271t-81.5 382zM541 1577l196 256h103l194 -256h-98l-150 195l-151 -195h-94z" />
<glyph unicode="&#x109;" horiz-adv-x="1157" d="M109 539q0 110 40 209.5t106 170t155.5 112.5t185.5 42q114 0 202.5 -50t141.5 -136v160h96v-332h-84q-35 122 -120.5 194t-213.5 72q-166 0 -282.5 -125t-116.5 -317q0 -205 114.5 -338t297.5 -133q106 0 200.5 53.5t155.5 144.5l74 -53q-67 -114 -182.5 -177 t-253.5 -63q-151 0 -269 73.5t-182.5 202t-64.5 290.5zM354 1210l197 256h102l195 -256h-98l-150 195l-151 -195h-95z" />
<glyph unicode="&#x10a;" horiz-adv-x="1443" d="M127 727q0 206 84.5 373.5t237.5 263.5t346 96q136 0 253 -65.5t185 -177.5v219h96v-412h-84q-46 151 -166 244.5t-266 93.5q-168 0 -299 -83t-200.5 -225.5t-69.5 -320.5q0 -183 65.5 -331.5t195 -239t302.5 -90.5q144 0 263 73.5t194 202.5l88 -51 q-77 -149 -223 -236.5t-320 -87.5q-206 0 -362.5 101t-238 271t-81.5 382zM700 1718q0 37 24.5 62.5t61.5 25.5t64 -26t27 -62t-27 -62t-64 -26t-61.5 25.5t-24.5 62.5z" />
<glyph unicode="&#x10b;" horiz-adv-x="1157" d="M109 539q0 110 40 209.5t106 170t155.5 112.5t185.5 42q114 0 202.5 -50t141.5 -136v160h96v-332h-84q-35 122 -120.5 194t-213.5 72q-166 0 -282.5 -125t-116.5 -317q0 -205 114.5 -338t297.5 -133q106 0 200.5 53.5t155.5 144.5l74 -53q-67 -114 -182.5 -177 t-253.5 -63q-151 0 -269 73.5t-182.5 202t-64.5 290.5zM514 1352q0 37 24.5 62.5t61.5 25.5t63.5 -25.5t26.5 -62.5t-26.5 -62.5t-63.5 -25.5t-61.5 25.5t-24.5 62.5z" />
<glyph unicode="&#x10c;" horiz-adv-x="1443" d="M127 727q0 206 84.5 373.5t237.5 263.5t346 96q136 0 253 -65.5t185 -177.5v219h96v-412h-84q-46 151 -166 244.5t-266 93.5q-168 0 -299 -83t-200.5 -225.5t-69.5 -320.5q0 -183 65.5 -331.5t195 -239t302.5 -90.5q144 0 263 73.5t194 202.5l88 -51 q-77 -149 -223 -236.5t-320 -87.5q-206 0 -362.5 101t-238 271t-81.5 382zM541 1833h98l149 -195l152 195h94l-196 -256h-103z" />
<glyph unicode="&#x10d;" horiz-adv-x="1157" d="M109 539q0 110 40 209.5t106 170t155.5 112.5t185.5 42q114 0 202.5 -50t141.5 -136v160h96v-332h-84q-35 122 -120.5 194t-213.5 72q-166 0 -282.5 -125t-116.5 -317q0 -205 114.5 -338t297.5 -133q106 0 200.5 53.5t155.5 144.5l74 -53q-67 -114 -182.5 -177 t-253.5 -63q-151 0 -269 73.5t-182.5 202t-64.5 290.5zM354 1466h99l149 -194l152 194h94l-197 -256h-102z" />
<glyph unicode="&#x10e;" horiz-adv-x="1449" d="M113 0v86h180v1262h-180v86h510q315 0 507.5 -193t192.5 -520q0 -330 -184.5 -525.5t-501.5 -195.5h-524zM401 86h211q278 0 436 168t158 471q0 291 -165.5 457t-442.5 166h-197v-1262zM455 1833h98l149 -195l152 195h94l-196 -256h-103z" />
<glyph unicode="&#x10f;" horiz-adv-x="1404" d="M115 530q0 238 141.5 391.5t355.5 153.5q152 0 257.5 -75.5t150.5 -196.5v592h-166v86h268v-1395h166v-86h-268v254q-50 -125 -158.5 -203t-263.5 -78q-211 0 -347 157t-136 400zM225 532q0 -199 109 -331.5t287 -132.5q177 0 290 133.5t113 328.5q0 192 -112.5 321.5 t-284.5 129.5q-117 0 -209.5 -59.5t-142.5 -162t-50 -227.5zM1288 1133l27 348h106l-55 -348h-78z" />
<glyph unicode="&#x110;" horiz-adv-x="1472" d="M113 705v86h202v557h-180v86h510q315 0 508 -193t193 -520q0 -330 -185 -525.5t-502 -195.5h-524v86h180v619h-202zM424 86h211q278 0 436 168t158 471q0 291 -165.5 457t-442.5 166h-197v-557h375v-86h-375v-619z" />
<glyph unicode="&#x111;" horiz-adv-x="1372" d="M115 530q0 238 141.5 391.5t355.5 153.5q152 0 257.5 -75.5t150.5 -196.5v375h-328v86h328v131h-166v86h268v-217h166v-86h-166v-1092h166v-86h-268v254q-50 -125 -158.5 -203t-263.5 -78q-211 0 -347 157t-136 400zM225 532q0 -199 109 -331.5t287 -132.5 q177 0 290 133.5t113 328.5q0 192 -112.5 321.5t-284.5 129.5q-117 0 -209.5 -59.5t-142.5 -162t-50 -227.5z" />
<glyph unicode="&#x112;" horiz-adv-x="1169" d="M111 0v86h180v1262h-180v86h907v-334h-98v248h-521v-555h482v-91h-482v-616h527v272h98v-358h-913zM342 1642v82h588v-82h-588z" />
<glyph unicode="&#x113;" horiz-adv-x="1200" d="M109 541q0 148 65.5 269.5t182.5 192t261 70.5q211 0 340 -140.5t129 -354.5v-54h-870q5 -203 118.5 -329.5t295.5 -126.5q107 0 202 49.5t166 140.5l72 -59q-162 -226 -448 -226q-228 0 -371 159t-143 409zM221 612h760q0 157 -104.5 264t-262.5 107q-149 0 -262.5 -103 t-130.5 -268zM330 1276v82h588v-82h-588z" />
<glyph unicode="&#x114;" horiz-adv-x="1169" d="M111 0v86h180v1262h-180v86h907v-334h-98v248h-521v-555h482v-91h-482v-616h527v272h98v-358h-913zM408 1804h92q0 -155 137 -155q139 0 139 155h92q0 -104 -59.5 -168.5t-171.5 -64.5q-111 0 -170 64.5t-59 168.5z" />
<glyph unicode="&#x115;" horiz-adv-x="1200" d="M109 541q0 148 65.5 269.5t182.5 192t261 70.5q211 0 340 -140.5t129 -354.5v-54h-870q5 -203 118.5 -329.5t295.5 -126.5q107 0 202 49.5t166 140.5l72 -59q-162 -226 -448 -226q-228 0 -371 159t-143 409zM221 612h760q0 157 -104.5 264t-262.5 107q-149 0 -262.5 -103 t-130.5 -268zM395 1438h92q0 -156 138 -156q139 0 139 156h92q0 -104 -59.5 -169t-171.5 -65q-111 0 -170.5 65t-59.5 169z" />
<glyph unicode="&#x116;" horiz-adv-x="1169" d="M111 0v86h180v1262h-180v86h907v-334h-98v248h-521v-555h482v-91h-482v-616h527v272h98v-358h-913zM551 1718q0 37 24.5 62.5t61.5 25.5t63.5 -25.5t26.5 -62.5t-26.5 -62.5t-63.5 -25.5t-61.5 25.5t-24.5 62.5z" />
<glyph unicode="&#x117;" horiz-adv-x="1200" d="M109 541q0 148 65.5 269.5t182.5 192t261 70.5q211 0 340 -140.5t129 -354.5v-54h-870q5 -203 118.5 -329.5t295.5 -126.5q107 0 202 49.5t166 140.5l72 -59q-162 -226 -448 -226q-228 0 -371 159t-143 409zM221 612h760q0 157 -104.5 264t-262.5 107q-149 0 -262.5 -103 t-130.5 -268zM539 1352q0 37 24.5 62.5t61.5 25.5t63.5 -25.5t26.5 -62.5t-26.5 -62.5t-63.5 -25.5t-61.5 25.5t-24.5 62.5z" />
<glyph unicode="&#x118;" horiz-adv-x="1169" d="M111 0v86h180v1262h-180v86h907v-334h-98v248h-521v-555h482v-91h-482v-616h527v272h98v-358h-68q-62 -34 -100.5 -82t-38.5 -100q0 -43 27 -72t69 -29q57 0 109 45l47 -67q-73 -66 -164 -66q-81 0 -135.5 48t-54.5 122q0 55 32.5 108.5t86.5 92.5h-723z" />
<glyph unicode="&#x119;" horiz-adv-x="1200" d="M109 541q0 148 65.5 269.5t182.5 192t261 70.5q211 0 340 -140.5t129 -354.5v-54h-870q5 -203 118.5 -329.5t295.5 -126.5q107 0 202 49.5t166 140.5l72 -59q-56 -79 -135 -133q-162 -136 -162 -263q0 -43 27.5 -74.5t68.5 -31.5q63 0 113 47l45 -70q-68 -65 -162 -65 q-83 0 -138.5 50.5t-55.5 127.5q0 100 98 205q-71 -19 -147 -19q-228 0 -371 159t-143 409zM221 612h760q0 157 -104.5 264t-262.5 107q-149 0 -262.5 -103t-130.5 -268z" />
<glyph unicode="&#x11a;" horiz-adv-x="1169" d="M111 0v86h180v1262h-180v86h907v-334h-98v248h-521v-555h482v-91h-482v-616h527v272h98v-358h-913zM391 1833h98l150 -195l152 195h94l-197 -256h-102z" />
<glyph unicode="&#x11b;" horiz-adv-x="1200" d="M109 541q0 148 65.5 269.5t182.5 192t261 70.5q211 0 340 -140.5t129 -354.5v-54h-870q5 -203 118.5 -329.5t295.5 -126.5q107 0 202 49.5t166 140.5l72 -59q-162 -226 -448 -226q-228 0 -371 159t-143 409zM221 612h760q0 157 -104.5 264t-262.5 107q-149 0 -262.5 -103 t-130.5 -268zM379 1466h98l150 -194l151 194h94l-196 -256h-103z" />
<glyph unicode="&#x11c;" horiz-adv-x="1564" d="M127 733q0 155 50.5 290.5t139 231t213 150.5t267.5 55q150 0 276.5 -67t196.5 -179v222h96v-392h-84q-56 144 -184 231t-291 87q-245 0 -404 -176.5t-159 -452.5q0 -184 68 -334t195.5 -238.5t289.5 -88.5q199 0 338.5 137.5t164.5 363.5h-368v93h469v-666h-98v317 q-64 -161 -202.5 -252.5t-314.5 -91.5q-193 0 -344.5 102t-233 274.5t-81.5 383.5zM537 1577l196 256h103l194 -256h-98l-150 195l-151 -195h-94z" />
<glyph unicode="&#x11d;" horiz-adv-x="1366" d="M115 532q0 236 141.5 389.5t355.5 153.5q152 0 257.5 -75.5t150.5 -196.5v244h268v-86h-166v-902q0 -113 -40 -200.5t-110.5 -141t-162 -81t-199.5 -27.5q-106 0 -207.5 28.5t-177.5 75.5l41 86q69 -46 162 -72.5t188 -25.5q175 0 289.5 88.5t114.5 251.5v219 q-50 -125 -158.5 -202.5t-263.5 -77.5q-211 0 -347 155.5t-136 396.5zM225 535q0 -198 109 -329.5t287 -131.5q177 0 290 132t113 326q0 191 -112.5 320t-284.5 129q-177 0 -289.5 -128t-112.5 -318zM383 1210l197 256h102l195 -256h-99l-149 195l-152 -195h-94z" />
<glyph unicode="&#x11e;" horiz-adv-x="1564" d="M127 733q0 155 50.5 290.5t139 231t213 150.5t267.5 55q150 0 276.5 -67t196.5 -179v222h96v-392h-84q-56 144 -184 231t-291 87q-245 0 -404 -176.5t-159 -452.5q0 -184 68 -334t195.5 -238.5t289.5 -88.5q199 0 338.5 137.5t164.5 363.5h-368v93h469v-666h-98v317 q-64 -161 -202.5 -252.5t-314.5 -91.5q-193 0 -344.5 102t-233 274.5t-81.5 383.5zM553 1804h92q0 -155 137 -155q140 0 140 155h92q0 -104 -60 -168.5t-172 -64.5q-111 0 -170 64.5t-59 168.5z" />
<glyph unicode="&#x11f;" horiz-adv-x="1366" d="M115 532q0 236 141.5 389.5t355.5 153.5q152 0 257.5 -75.5t150.5 -196.5v244h268v-86h-166v-902q0 -113 -40 -200.5t-110.5 -141t-162 -81t-199.5 -27.5q-106 0 -207.5 28.5t-177.5 75.5l41 86q69 -46 162 -72.5t188 -25.5q175 0 289.5 88.5t114.5 251.5v219 q-50 -125 -158.5 -202.5t-263.5 -77.5q-211 0 -347 155.5t-136 396.5zM225 535q0 -198 109 -329.5t287 -131.5q177 0 290 132t113 326q0 191 -112.5 320t-284.5 129q-177 0 -289.5 -128t-112.5 -318zM399 1438h93q0 -156 137 -156q139 0 139 156h92q0 -104 -59.5 -169 t-171.5 -65q-111 0 -170.5 65t-59.5 169z" />
<glyph unicode="&#x120;" horiz-adv-x="1564" d="M127 733q0 155 50.5 290.5t139 231t213 150.5t267.5 55q150 0 276.5 -67t196.5 -179v222h96v-392h-84q-56 144 -184 231t-291 87q-245 0 -404 -176.5t-159 -452.5q0 -184 68 -334t195.5 -238.5t289.5 -88.5q199 0 338.5 137.5t164.5 363.5h-368v93h469v-666h-98v317 q-64 -161 -202.5 -252.5t-314.5 -91.5q-193 0 -344.5 102t-233 274.5t-81.5 383.5zM696 1718q0 37 24.5 62.5t61.5 25.5t63.5 -25.5t26.5 -62.5t-26.5 -62.5t-63.5 -25.5t-61.5 25.5t-24.5 62.5z" />
<glyph unicode="&#x121;" horiz-adv-x="1366" d="M115 532q0 236 141.5 389.5t355.5 153.5q152 0 257.5 -75.5t150.5 -196.5v244h268v-86h-166v-902q0 -113 -40 -200.5t-110.5 -141t-162 -81t-199.5 -27.5q-106 0 -207.5 28.5t-177.5 75.5l41 86q69 -46 162 -72.5t188 -25.5q175 0 289.5 88.5t114.5 251.5v219 q-50 -125 -158.5 -202.5t-263.5 -77.5q-211 0 -347 155.5t-136 396.5zM225 535q0 -198 109 -329.5t287 -131.5q177 0 290 132t113 326q0 191 -112.5 320t-284.5 129q-177 0 -289.5 -128t-112.5 -318zM543 1352q0 37 24.5 62.5t61.5 25.5t63.5 -25.5t26.5 -62.5t-26.5 -62.5 t-63.5 -25.5t-61.5 25.5t-24.5 62.5z" />
<glyph unicode="&#x122;" horiz-adv-x="1564" d="M127 733q0 155 50.5 290.5t139 231t213 150.5t267.5 55q150 0 276.5 -67t196.5 -179v222h96v-392h-84q-56 144 -184 231t-291 87q-245 0 -404 -176.5t-159 -452.5q0 -184 68 -334t195.5 -238.5t289.5 -88.5q199 0 338.5 137.5t164.5 363.5h-368v93h469v-666h-98v317 q-64 -161 -202.5 -252.5t-314.5 -91.5q-193 0 -344.5 102t-233 274.5t-81.5 383.5zM698 -201q0 34 23 57t57 23q38 0 62 -29t24 -71q0 -135 -123 -240l-41 39q72 69 84 146q-12 -3 -16 -3q-31 0 -50.5 23t-19.5 55z" />
<glyph unicode="&#x123;" horiz-adv-x="1366" d="M115 532q0 236 141.5 389.5t355.5 153.5q152 0 257.5 -75.5t150.5 -196.5v244h268v-86h-166v-902q0 -113 -40 -200.5t-110.5 -141t-162 -81t-199.5 -27.5q-106 0 -207.5 28.5t-177.5 75.5l41 86q69 -46 162 -72.5t188 -25.5q175 0 289.5 88.5t114.5 251.5v219 q-50 -125 -158.5 -202.5t-263.5 -77.5q-211 0 -347 155.5t-136 396.5zM225 535q0 -198 109 -329.5t287 -131.5q177 0 290 132t113 326q0 191 -112.5 320t-284.5 129q-177 0 -289.5 -128t-112.5 -318zM551 1260q0 134 123 239l41 -39q-72 -69 -84 -145q8 2 16 2 q31 0 50.5 -23t19.5 -55q0 -34 -23 -57t-57 -23q-38 0 -62 29.5t-24 71.5z" />
<glyph unicode="&#x124;" horiz-adv-x="1619" d="M113 0v86h180v1262h-180v86h467v-86h-181v-562h822v562h-179v86h467v-86h-180v-1262h180v-86h-469v86h181v608h-822v-608h181v-86h-467zM565 1577l197 256h102l195 -256h-98l-150 195l-152 -195h-94z" />
<glyph unicode="&#x125;" horiz-adv-x="1359" d="M88 0v86h166v1309h-166v86h268v-637q44 103 141.5 165t225.5 62q175 0 282 -104t107 -277v-604h166v-86h-430v86h162v594q0 133 -87 214t-227 81q-137 0 -238.5 -97t-101.5 -225v-567h162v-86h-430zM444 1552l197 256h102l195 -256h-98l-150 195l-151 -195h-95z" />
<glyph unicode="&#x126;" horiz-adv-x="1619" d="M113 0v86h180v932h-180v86h180v244h-180v86h467v-86h-181v-244h822v244h-179v86h467v-86h-180v-244h180v-86h-180v-932h180v-86h-469v86h181v608h-822v-608h181v-86h-467zM399 786h822v232h-822v-232z" />
<glyph unicode="&#x127;" horiz-adv-x="1359" d="M88 0v86h166v1092h-166v86h166v131h-166v86h268v-217h312v-86h-312v-334q44 103 141.5 165t225.5 62q175 0 282 -104t107 -277v-604h166v-86h-430v86h162v594q0 133 -87 214t-227 81q-137 0 -238.5 -97t-101.5 -225v-567h162v-86h-430z" />
<glyph unicode="&#x128;" horiz-adv-x="690" d="M43 1622q2 82 47.5 133t118.5 51q48 0 99 -26t97 -52t82 -26t58 28t24 70h80q-1 -82 -46.5 -132t-117.5 -50q-48 0 -99 25.5t-97.5 51t-83.5 25.5q-36 0 -58 -27.5t-24 -70.5h-80zM111 0v86h180v1262h-180v86h469v-86h-181v-1262h181v-86h-469z" />
<glyph unicode="&#x129;" horiz-adv-x="616" d="M-4 1255q2 82 47.5 133.5t118.5 51.5q38 0 78.5 -16.5t70 -36t65 -36t64.5 -16.5q36 0 58 28t24 71h80q-2 -82 -47 -132.5t-117 -50.5q-38 0 -78.5 16t-70 35.5t-65.5 35.5t-66 16q-36 0 -58 -27.5t-24 -71.5h-80zM98 0v86h166v875h-166v86h269v-961h165v-86h-434z" />
<glyph unicode="&#x12a;" horiz-adv-x="690" d="M51 1642v82h588v-82h-588zM111 0v86h180v1262h-180v86h469v-86h-181v-1262h181v-86h-469z" />
<glyph unicode="&#x12b;" horiz-adv-x="616" d="M4 1276v82h588v-82h-588zM98 0v86h166v875h-166v86h269v-961h165v-86h-434z" />
<glyph unicode="&#x12c;" horiz-adv-x="690" d="M111 0v86h180v1262h-180v86h469v-86h-181v-1262h181v-86h-469zM117 1804h92q0 -155 137 -155q139 0 139 155h93q0 -104 -60 -168.5t-172 -64.5q-111 0 -170 64.5t-59 168.5z" />
<glyph unicode="&#x12d;" horiz-adv-x="616" d="M70 1438h92q0 -156 137 -156q139 0 139 156h92q0 -104 -59.5 -169t-171.5 -65q-111 0 -170 65t-59 169zM98 0v86h166v875h-166v86h269v-961h165v-86h-434z" />
<glyph unicode="&#x12e;" horiz-adv-x="690" d="M111 0v86h180v1262h-180v86h469v-86h-181v-1262h181v-86h-107q-62 -34 -100.5 -82t-38.5 -100q0 -43 27 -72t69 -29q57 0 109 45l47 -67q-73 -66 -164 -66q-81 0 -136 48t-55 122q0 55 32.5 108.5t86.5 92.5h-239z" />
<glyph unicode="&#x12f;" horiz-adv-x="616" d="M98 0v86h166v875h-166v86h269v-961h165v-86h-106q-62 -34 -100.5 -82t-38.5 -100q0 -43 27 -72t69 -29q57 0 109 45l47 -67q-73 -66 -164 -66q-81 0 -136 48t-55 122q0 55 32.5 108.5t86.5 92.5h-205zM223 1352q0 37 24.5 62.5t59.5 25.5q38 0 65 -25.5t27 -62.5 t-27 -62.5t-65 -25.5q-35 0 -59.5 25.5t-24.5 62.5z" />
<glyph unicode="&#x130;" horiz-adv-x="690" d="M111 0v86h180v1262h-180v86h469v-86h-181v-1262h181v-86h-469zM260 1718q0 37 24.5 62.5t61.5 25.5t63.5 -25.5t26.5 -62.5t-26.5 -62.5t-63.5 -25.5t-61.5 25.5t-24.5 62.5z" />
<glyph unicode="&#x131;" horiz-adv-x="616" d="M98 0v86h166v875h-166v86h269v-961h165v-86h-434z" />
<glyph unicode="&#x132;" horiz-adv-x="1390" d="M111 0v86h180v1262h-180v86h469v-86h-181v-1262h181v-86h-469zM664 -217l12 98q67 -18 141 -18q90 0 145.5 58t55.5 163v1264h-217v86h497v-86h-172v-1274q0 -140 -85.5 -225t-215.5 -85q-83 0 -161 19z" />
<glyph unicode="&#x133;" horiz-adv-x="1191" d="M98 0v86h166v875h-166v86h269v-961h165v-86h-434zM223 1352q0 37 24.5 62.5t59.5 25.5q38 0 65 -25.5t27 -62.5t-27 -62.5t-65 -25.5q-35 0 -59.5 25.5t-24.5 62.5zM621 -289q40 -8 75 -8q80 0 127 58t47 157v1043h-165v86h268v-1131q0 -139 -72 -222t-192 -83 q-51 0 -88 6v94zM823 1352q0 37 25.5 62.5t60.5 25.5q38 0 64 -25.5t26 -62.5t-26 -62.5t-64 -25.5q-35 0 -60.5 25.5t-25.5 62.5z" />
<glyph unicode="&#x134;" horiz-adv-x="700" d="M-27 -217l13 98q67 -18 141 -18q90 0 145.5 58t55.5 163v1264h-217v86h497v-86h-172v-1274q0 -140 -85.5 -225t-215.5 -85q-84 0 -162 19zM109 1577l196 256h103l194 -256h-98l-150 195l-151 -195h-94z" />
<glyph unicode="&#x135;" horiz-adv-x="548" d="M4 -289q40 -8 76 -8q80 0 127 58t47 157v1043h-166v86h268v-1131q0 -139 -72 -222t-192 -83q-50 0 -88 6v94zM20 1210l197 256h102l195 -256h-98l-150 195l-151 -195h-95z" />
<glyph unicode="&#x136;" horiz-adv-x="1337" d="M111 0v86h180v1262h-180v86h450v-86h-162v-590l602 594h-167v82h454v-86h-162l-612 -603l645 -659h170v-86h-487v86h170l-613 633v-633h170v-86h-458zM610 -193q0 34 23 57t57 23q38 0 62 -29t24 -71q0 -135 -123 -240l-41 39q72 69 84 146q-8 -2 -16 -2 q-31 0 -50.5 22.5t-19.5 54.5z" />
<glyph unicode="&#x137;" horiz-adv-x="1120" d="M88 0v86h166v1309h-166v86h268v-893l428 377h-174v82h465v-84h-164l-438 -385l475 -492h162v-86h-227l-527 559v-473h162v-86h-430zM530 -193q0 34 23 57t57 23q38 0 62 -29t24 -71q0 -135 -123 -240l-41 39q72 69 84 146q-8 -2 -16 -2q-31 0 -50.5 22.5t-19.5 54.5z" />
<glyph unicode="&#x138;" horiz-adv-x="1120" d="M88 0v86h166v875h-166v86h268v-459l428 377h-174v82h465v-84h-164l-436 -385l473 -492h162v-86h-223l-531 559v-473h162v-86h-430z" />
<glyph unicode="&#x139;" horiz-adv-x="1118" d="M113 0v86h180v1262h-180v86h479v-86h-191v-1262h525v299h100v-385h-913zM281 1575l141 272h115l-162 -272h-94z" />
<glyph unicode="&#x13a;" horiz-adv-x="608" d="M90 0v86h166v1309h-166v86h268v-1395h166v-86h-434zM225 1595l142 273h114l-162 -273h-94z" />
<glyph unicode="&#x13b;" horiz-adv-x="1118" d="M113 0v86h180v1262h-180v86h479v-86h-191v-1262h525v299h100v-385h-913zM569 -193q0 34 23 57t57 23q38 0 62 -29t24 -71q0 -135 -123 -240l-41 39q72 69 84 146q-8 -2 -16 -2q-31 0 -50.5 22.5t-19.5 54.5z" />
<glyph unicode="&#x13c;" horiz-adv-x="608" d="M90 0v86h166v1309h-166v86h268v-1395h166v-86h-434zM217 -193q0 34 23 57t57 23q38 0 62 -29t24 -71q0 -135 -123 -240l-41 39q72 69 84 146q-8 -2 -16 -2q-31 0 -50.5 22.5t-19.5 54.5z" />
<glyph unicode="&#x13d;" horiz-adv-x="1118" d="M113 0v86h180v1262h-180v86h479v-86h-191v-1262h525v299h100v-385h-913zM766 1133l27 348h106l-55 -348h-78z" />
<glyph unicode="&#x13e;" horiz-adv-x="643" d="M90 0v86h166v1309h-166v86h268v-1395h166v-86h-434zM526 1133l27 348h106l-55 -348h-78z" />
<glyph unicode="&#x13f;" horiz-adv-x="1179" d="M113 0v86h180v1262h-180v86h479v-86h-191v-1262h525v299h100v-385h-913zM866 737q0 39 30 69t69 30t67.5 -29.5t28.5 -69.5t-28 -69t-68 -29q-39 0 -69 29.5t-30 68.5z" />
<glyph unicode="&#x140;" horiz-adv-x="856" d="M90 0v86h166v1309h-166v86h268v-1395h166v-86h-434zM631 737q0 39 29.5 69t68.5 30t67.5 -29.5t28.5 -69.5t-28 -69t-68 -29q-39 0 -68.5 29.5t-29.5 68.5z" />
<glyph unicode="&#x141;" horiz-adv-x="1155" d="M113 569v95l217 96v588h-180v86h479v-86h-191v-541l334 147v-94l-334 -147v-627h525v299h100v-385h-913v86h180v580z" />
<glyph unicode="&#x142;" horiz-adv-x="663" d="M55 608v97l236 124v566h-166v86h268v-598l230 121v-97l-230 -121v-700h166v-86h-434v86h166v647z" />
<glyph unicode="&#x143;" horiz-adv-x="1624" d="M109 0v86h180v1262h-180v86h294l832 -1268v1182h-180v86h461v-86h-181v-1348h-118l-828 1270v-1184h180v-86h-460zM725 1575l141 272h115l-162 -272h-94z" />
<glyph unicode="&#x144;" horiz-adv-x="1370" d="M98 0v86h166v875h-166v86h269v-203q44 103 141 165t225 62q175 0 282 -104t107 -277v-604h166v-86h-430v86h162v594q0 133 -86.5 214t-226.5 81q-137 0 -238.5 -97t-101.5 -225v-567h161v-86h-430zM614 1208l142 273h114l-161 -273h-95z" />
<glyph unicode="&#x145;" horiz-adv-x="1624" d="M109 0v86h180v1262h-180v86h294l832 -1268v1182h-180v86h461v-86h-181v-1348h-118l-828 1270v-1184h180v-86h-460zM725 -193q0 34 23 57t57 23q38 0 62 -29t24 -71q0 -135 -123 -240l-41 39q72 69 84 146q-8 -2 -16 -2q-31 0 -50.5 22.5t-19.5 54.5z" />
<glyph unicode="&#x146;" horiz-adv-x="1370" d="M98 0v86h166v875h-166v86h269v-203q44 103 141 165t225 62q175 0 282 -104t107 -277v-604h166v-86h-430v86h162v594q0 133 -86.5 214t-226.5 81q-137 0 -238.5 -97t-101.5 -225v-567h161v-86h-430zM614 -193q0 34 23 57t57 23q38 0 62 -29t24 -71q0 -135 -123 -240 l-41 39q72 69 84 146q-8 -2 -16 -2q-31 0 -50.5 22.5t-19.5 54.5z" />
<glyph unicode="&#x147;" horiz-adv-x="1624" d="M109 0v86h180v1262h-180v86h294l832 -1268v1182h-180v86h461v-86h-181v-1348h-118l-828 1270v-1184h180v-86h-460zM567 1833h99l149 -195l152 195h94l-197 -256h-102z" />
<glyph unicode="&#x148;" horiz-adv-x="1370" d="M98 0v86h166v875h-166v86h269v-203q44 103 141 165t225 62q175 0 282 -104t107 -277v-604h166v-86h-430v86h162v594q0 133 -86.5 214t-226.5 81q-137 0 -238.5 -97t-101.5 -225v-567h161v-86h-430zM457 1466h98l150 -194l151 194h94l-196 -256h-103z" />
<glyph unicode="&#x149;" horiz-adv-x="1382" d="M-111 1370q0 38 26.5 64t64.5 26q42 0 70 -33t28 -81q0 -150 -141 -271l-46 43q83 79 95 166q-8 -2 -19 -2q-34 0 -56 26t-22 62zM98 0v86h166v875h-166v86h269v-203q44 103 141 165t225 62q175 0 282 -104t107 -277v-604h166v-86h-430v86h162v594q0 133 -86.5 214 t-226.5 81q-137 0 -238.5 -97t-101.5 -225v-567h161v-86h-430z" />
<glyph unicode="&#x14a;" horiz-adv-x="1624" d="M109 0v86h180v1262h-180v86h294l832 -1258v1172h-180v86h461v-86h-181v-1432q0 -139 -72 -222t-192 -83q-51 0 -88 6v94q40 -8 76 -8q80 0 127 58t47 157v74l-844 1276v-1182h180v-86h-460z" />
<glyph unicode="&#x14b;" horiz-adv-x="1314" d="M98 0v86h166v875h-166v86h269v-203q44 103 141 165t225 62q175 0 282 -104t107 -277v-774q0 -138 -72 -221.5t-192 -83.5q-50 0 -88 6v94q40 -8 76 -8q80 0 127 58t47 157v762q0 133 -86.5 214t-226.5 81q-137 0 -238.5 -97t-101.5 -225v-567h161v-86h-430z" />
<glyph unicode="&#x14c;" horiz-adv-x="1626" d="M127 729q0 153 50 287.5t138.5 232.5t217.5 154.5t280 56.5t280 -56.5t217.5 -154.5t138.5 -232.5t50 -287.5q0 -157 -49.5 -296t-137.5 -240.5t-217.5 -160.5t-281.5 -59t-281.5 59t-217.5 160.5t-137.5 240.5t-49.5 296zM244 729q0 -186 69.5 -335t200 -235.5 t299.5 -86.5t299.5 86.5t200 235.5t69.5 335q0 277 -156.5 455t-412.5 178t-412.5 -178t-156.5 -455zM518 1642v82h588v-82h-588z" />
<glyph unicode="&#x14d;" d="M109 535q0 235 152.5 387.5t385.5 152.5q231 0 384 -152.5t153 -387.5q0 -242 -151.5 -402t-385.5 -160q-235 0 -386.5 159.5t-151.5 402.5zM219 535q0 -203 120 -335t308 -132q187 0 306.5 132t119.5 335q0 197 -119.5 321.5t-306.5 124.5q-188 0 -308 -124.5 t-120 -321.5zM352 1276v82h588v-82h-588z" />
<glyph unicode="&#x14e;" horiz-adv-x="1626" d="M127 729q0 153 50 287.5t138.5 232.5t217.5 154.5t280 56.5t280 -56.5t217.5 -154.5t138.5 -232.5t50 -287.5q0 -157 -49.5 -296t-137.5 -240.5t-217.5 -160.5t-281.5 -59t-281.5 59t-217.5 160.5t-137.5 240.5t-49.5 296zM244 729q0 -186 69.5 -335t200 -235.5 t299.5 -86.5t299.5 86.5t200 235.5t69.5 335q0 277 -156.5 455t-412.5 178t-412.5 -178t-156.5 -455zM584 1804h92q0 -155 137 -155q139 0 139 155h92q0 -104 -59.5 -168.5t-171.5 -64.5q-111 0 -170 64.5t-59 168.5z" />
<glyph unicode="&#x14f;" d="M109 535q0 235 152.5 387.5t385.5 152.5q231 0 384 -152.5t153 -387.5q0 -242 -151.5 -402t-385.5 -160q-235 0 -386.5 159.5t-151.5 402.5zM219 535q0 -203 120 -335t308 -132q187 0 306.5 132t119.5 335q0 197 -119.5 321.5t-306.5 124.5q-188 0 -308 -124.5 t-120 -321.5zM418 1438h92q0 -156 137 -156q139 0 139 156h93q0 -104 -60 -169t-172 -65q-111 0 -170 65t-59 169z" />
<glyph unicode="&#x150;" horiz-adv-x="1626" d="M127 729q0 153 50 287.5t138.5 232.5t217.5 154.5t280 56.5t280 -56.5t217.5 -154.5t138.5 -232.5t50 -287.5q0 -157 -49.5 -296t-137.5 -240.5t-217.5 -160.5t-281.5 -59t-281.5 59t-217.5 160.5t-137.5 240.5t-49.5 296zM244 729q0 -186 69.5 -335t200 -235.5 t299.5 -86.5t299.5 86.5t200 235.5t69.5 335q0 277 -156.5 455t-412.5 178t-412.5 -178t-156.5 -455zM625 1579l137 268h108l-157 -268h-88zM881 1579l137 268h108l-157 -268h-88z" />
<glyph unicode="&#x151;" d="M109 535q0 235 152.5 387.5t385.5 152.5q231 0 384 -152.5t153 -387.5q0 -242 -151.5 -402t-385.5 -160q-235 0 -386.5 159.5t-151.5 402.5zM219 535q0 -203 120 -335t308 -132q187 0 306.5 132t119.5 335q0 197 -119.5 321.5t-306.5 124.5q-188 0 -308 -124.5 t-120 -321.5zM459 1212l137 269h109l-158 -269h-88zM715 1212l137 269h109l-158 -269h-88z" />
<glyph unicode="&#x152;" horiz-adv-x="2207" d="M109 729q0 153 50 287.5t138.5 232.5t217.5 154.5t280 56.5q92 0 188 -26h1073v-334h-98v248h-801q125 -89 199 -233.5t86 -321.5h477v-91h-475q-5 -195 -81.5 -357t-209.5 -259h811v272h98v-358h-1083q-96 -27 -184 -27q-152 0 -281.5 59t-217.5 160.5t-137.5 240.5 t-49.5 296zM225 729q0 -186 69.5 -335t200.5 -235.5t300 -86.5q120 0 222 51.5t171.5 140t108 209t38.5 256.5q0 178 -66 321.5t-190 227.5t-284 84q-256 0 -413 -178t-157 -455z" />
<glyph unicode="&#x153;" horiz-adv-x="2109" d="M109 532q0 153 67 277t186.5 195t266.5 71q161 0 282 -83t176 -224q54 138 175 222.5t276 84.5q140 0 245.5 -67t159.5 -180t54 -253v-51l-858 -2q6 -205 117.5 -329.5t293.5 -124.5q104 0 201 51t158 139l71 -57q-69 -110 -185 -169t-251 -59q-160 0 -281 85t-176 229 q-57 -144 -177.5 -229t-280.5 -85q-149 0 -268.5 73.5t-185.5 201t-66 284.5zM219 532q0 -199 116.5 -331.5t295.5 -132.5q177 0 291 132t114 332q0 193 -114 321t-291 128q-179 0 -295.5 -128t-116.5 -321zM1141 610h749q0 160 -99.5 267.5t-258.5 107.5 q-146 0 -259.5 -105.5t-131.5 -269.5z" />
<glyph unicode="&#x154;" horiz-adv-x="1280" d="M111 0v86h180v1262h-180v86h534q177 0 297.5 -107t120.5 -272q0 -152 -92 -257.5t-238 -133.5l348 -578h183v-86h-258l-379 645h-228v-559h189v-86h-477zM399 731h222q144 0 235.5 88.5t91.5 233.5q0 133 -89 214t-226 81h-234v-617zM512 1575l141 272h115l-162 -272h-94 z" />
<glyph unicode="&#x155;" horiz-adv-x="829" d="M98 0v86h166v875h-166v86h269v-250q32 119 117.5 197.5t195.5 78.5q53 0 108 -10v-117q-69 15 -118 15q-87 0 -157 -53t-108 -139.5t-38 -186.5v-496h196v-86h-465zM451 1208l141 273h115l-162 -273h-94z" />
<glyph unicode="&#x156;" horiz-adv-x="1280" d="M111 0v86h180v1262h-180v86h534q177 0 297.5 -107t120.5 -272q0 -152 -92 -257.5t-238 -133.5l348 -578h183v-86h-258l-379 645h-228v-559h189v-86h-477zM399 731h222q144 0 235.5 88.5t91.5 233.5q0 133 -89 214t-226 81h-234v-617zM598 -193q0 34 23 57t57 23 q38 0 62 -29t24 -71q0 -135 -123 -240l-41 39q72 69 84 146q-8 -2 -16 -2q-31 0 -50.5 22.5t-19.5 54.5z" />
<glyph unicode="&#x157;" horiz-adv-x="829" d="M98 0v86h166v875h-166v86h269v-250q32 119 117.5 197.5t195.5 78.5q53 0 108 -10v-117q-69 15 -118 15q-87 0 -157 -53t-108 -139.5t-38 -186.5v-496h196v-86h-465zM233 -193q0 34 23 57t57 23q38 0 62 -29t24 -71q0 -135 -123 -240l-40 39q71 67 83 146q-8 -2 -16 -2 q-31 0 -50.5 22.5t-19.5 54.5z" />
<glyph unicode="&#x158;" horiz-adv-x="1280" d="M111 0v86h180v1262h-180v86h534q177 0 297.5 -107t120.5 -272q0 -152 -92 -257.5t-238 -133.5l348 -578h183v-86h-258l-379 645h-228v-559h189v-86h-477zM354 1833h99l149 -195l152 195h94l-197 -256h-102zM399 731h222q144 0 235.5 88.5t91.5 233.5q0 133 -89 214 t-226 81h-234v-617z" />
<glyph unicode="&#x159;" horiz-adv-x="829" d="M98 0v86h166v875h-166v86h269v-250q32 119 117.5 197.5t195.5 78.5q53 0 108 -10v-117q-69 15 -118 15q-87 0 -157 -53t-108 -139.5t-38 -186.5v-496h196v-86h-465zM293 1466h98l150 -194l151 194h94l-196 -256h-103z" />
<glyph unicode="&#x15a;" horiz-adv-x="1110" d="M135 -4v403h84q35 -152 127.5 -240.5t231.5 -88.5q132 0 213 80t81 210q0 75 -39.5 135t-102 101.5t-138.5 79.5t-152 77.5t-138.5 85.5t-102 114t-39.5 153q0 152 98.5 253t251.5 101q110 0 195 -56t129 -149v181h96v-385h-84q-29 142 -114.5 229.5t-209.5 87.5 q-116 0 -185 -71.5t-69 -180.5q0 -55 24.5 -101.5t65.5 -81t94.5 -66t113 -60t118.5 -58.5t112.5 -66.5t94.5 -79t65.5 -101t24.5 -127.5q0 -174 -108 -287t-285 -113q-123 0 -216 56.5t-141 154.5v-190h-96zM444 1575l142 272h114l-161 -272h-95z" />
<glyph unicode="&#x15b;" horiz-adv-x="1009" d="M127 -4v319h84q30 -115 116 -181t214 -66q106 0 174.5 57t68.5 149q0 50 -28 89.5t-73 63.5t-103.5 47t-118.5 40.5t-118 44t-103 56.5t-72.5 78t-26.5 110q1 120 85.5 195t213.5 73q97 0 178 -40t132 -113v131h96v-293h-84q-26 104 -111 166.5t-196 62.5q-91 0 -151 -49 t-60 -125q0 -52 35.5 -90.5t92 -63t125.5 -46.5t137.5 -47.5t125 -59t92 -89t35.5 -128.5q0 -143 -96 -227.5t-246 -84.5q-107 0 -189 44t-133 124v-147h-96zM391 1208l141 273h115l-162 -273h-94z" />
<glyph unicode="&#x15c;" horiz-adv-x="1110" d="M135 -4v403h84q35 -152 127.5 -240.5t231.5 -88.5q132 0 213 80t81 210q0 75 -39.5 135t-102 101.5t-138.5 79.5t-152 77.5t-138.5 85.5t-102 114t-39.5 153q0 152 98.5 253t251.5 101q110 0 195 -56t129 -149v181h96v-385h-84q-29 142 -114.5 229.5t-209.5 87.5 q-116 0 -185 -71.5t-69 -180.5q0 -55 24.5 -101.5t65.5 -81t94.5 -66t113 -60t118.5 -58.5t112.5 -66.5t94.5 -79t65.5 -101t24.5 -127.5q0 -174 -108 -287t-285 -113q-123 0 -216 56.5t-141 154.5v-190h-96zM287 1577l196 256h103l194 -256h-98l-150 195l-151 -195h-94z " />
<glyph unicode="&#x15d;" horiz-adv-x="1009" d="M127 -4v319h84q30 -115 116 -181t214 -66q106 0 174.5 57t68.5 149q0 50 -28 89.5t-73 63.5t-103.5 47t-118.5 40.5t-118 44t-103 56.5t-72.5 78t-26.5 110q1 120 85.5 195t213.5 73q97 0 178 -40t132 -113v131h96v-293h-84q-26 104 -111 166.5t-196 62.5q-91 0 -151 -49 t-60 -125q0 -52 35.5 -90.5t92 -63t125.5 -46.5t137.5 -47.5t125 -59t92 -89t35.5 -128.5q0 -143 -96 -227.5t-246 -84.5q-107 0 -189 44t-133 124v-147h-96zM233 1210l197 256h102l195 -256h-98l-150 195l-151 -195h-95z" />
<glyph unicode="&#x15e;" horiz-adv-x="1110" d="M135 -4v403h84q35 -152 127.5 -240.5t231.5 -88.5q132 0 213 80t81 210q0 75 -39.5 135t-102 101.5t-138.5 79.5t-152 77.5t-138.5 85.5t-102 114t-39.5 153q0 152 98.5 253t251.5 101q110 0 195 -56t129 -149v181h96v-385h-84q-29 142 -114.5 229.5t-209.5 87.5 q-116 0 -185 -71.5t-69 -180.5q0 -55 24.5 -101.5t65.5 -81t94.5 -66t113 -60t118.5 -58.5t112.5 -66.5t94.5 -79t65.5 -101t24.5 -127.5q0 -168 -100 -279.5t-267 -120.5l-16 -77q10 2 25 2q57 0 97 -44.5t40 -107.5q0 -78 -56.5 -124t-144.5 -46q-52 0 -96 19l16 79 q32 -18 74 -18q51 0 86 24.5t35 65.5t-31 62.5t-84 21.5q-25 0 -49 -8l33 153q-106 10 -187.5 65t-124.5 144v-190h-96z" />
<glyph unicode="&#x15f;" horiz-adv-x="1009" d="M127 -4v319h84q30 -115 116 -181t214 -66q106 0 174.5 57t68.5 149q0 50 -28 89.5t-73 63.5t-103.5 47t-118.5 40.5t-118 44t-103 56.5t-72.5 78t-26.5 110q1 120 85.5 195t213.5 73q97 0 178 -40t132 -113v131h96v-293h-84q-26 104 -111 166.5t-196 62.5q-91 0 -151 -49 t-60 -125q0 -52 35.5 -90.5t92 -63t125.5 -46.5t137.5 -47.5t125 -59t92 -89t35.5 -128.5q0 -142 -94 -226t-242 -86l-16 -77q10 2 24 2q57 0 97 -44.5t40 -107.5q0 -78 -56 -124t-144 -46q-53 0 -97 19l17 79q32 -18 73 -18q51 0 86 24.5t35 65.5t-30.5 62.5t-83.5 21.5 q-26 0 -50 -8l33 156q-169 24 -256 163v-147h-96z" />
<glyph unicode="&#x160;" horiz-adv-x="1110" d="M135 -4v403h84q35 -152 127.5 -240.5t231.5 -88.5q132 0 213 80t81 210q0 75 -39.5 135t-102 101.5t-138.5 79.5t-152 77.5t-138.5 85.5t-102 114t-39.5 153q0 152 98.5 253t251.5 101q110 0 195 -56t129 -149v181h96v-385h-84q-29 142 -114.5 229.5t-209.5 87.5 q-116 0 -185 -71.5t-69 -180.5q0 -55 24.5 -101.5t65.5 -81t94.5 -66t113 -60t118.5 -58.5t112.5 -66.5t94.5 -79t65.5 -101t24.5 -127.5q0 -174 -108 -287t-285 -113q-123 0 -216 56.5t-141 154.5v-190h-96zM287 1833h98l150 -195l151 195h94l-196 -256h-103z" />
<glyph unicode="&#x161;" horiz-adv-x="1009" d="M127 -4v319h84q30 -115 116 -181t214 -66q106 0 174.5 57t68.5 149q0 50 -28 89.5t-73 63.5t-103.5 47t-118.5 40.5t-118 44t-103 56.5t-72.5 78t-26.5 110q1 120 85.5 195t213.5 73q97 0 178 -40t132 -113v131h96v-293h-84q-26 104 -111 166.5t-196 62.5q-91 0 -151 -49 t-60 -125q0 -52 35.5 -90.5t92 -63t125.5 -46.5t137.5 -47.5t125 -59t92 -89t35.5 -128.5q0 -143 -96 -227.5t-246 -84.5q-107 0 -189 44t-133 124v-147h-96zM233 1466h99l149 -194l152 194h94l-197 -256h-102z" />
<glyph unicode="&#x162;" horiz-adv-x="1239" d="M74 1053v381h1091v-381h-100v295h-391v-1262h200v-86h-221l-22 -102q10 2 24 2q57 0 97.5 -44.5t40.5 -107.5q0 -78 -56.5 -124t-144.5 -46q-52 0 -96 19l16 79q32 -18 74 -18q51 0 86 24.5t35 65.5t-31 62.5t-84 21.5q-25 0 -49 -8l37 176h-215v86h200v1262h-391v-295 h-100z" />
<glyph unicode="&#x163;" horiz-adv-x="694" d="M72 961v86h166v227h102v-227h244v-86h-244v-689q0 -87 41.5 -136.5t116.5 -49.5q52 0 110 14v-92q-59 -16 -123 -16q-22 0 -34 2l-21 -96q10 2 25 2q57 0 97 -44.5t40 -107.5q0 -78 -56.5 -124t-144.5 -46q-52 0 -96 19l16 79q32 -18 74 -18q51 0 86 24.5t35 65.5 t-31 62.5t-84 21.5q-25 0 -49 -8l39 188q-69 29 -106 98.5t-37 165.5v685h-166z" />
<glyph unicode="&#x164;" horiz-adv-x="1239" d="M74 1053v381h1091v-381h-100v295h-391v-1262h200v-86h-509v86h200v1262h-391v-295h-100zM375 1833h98l150 -195l151 195h94l-196 -256h-103z" />
<glyph unicode="&#x165;" horiz-adv-x="688" d="M72 961v86h166v227h102v-227h244v-86h-244v-689q0 -87 41.5 -136.5t116.5 -49.5q52 0 110 14v-92q-59 -16 -123 -16q-117 0 -182 77t-65 207v685h-166zM514 1153l27 340h106l-55 -340h-78z" />
<glyph unicode="&#x166;" horiz-adv-x="1239" d="M74 1053v381h1091v-381h-100v295h-391v-584h280v-86h-280v-592h200v-86h-509v86h200v592h-278v86h278v584h-391v-295h-100z" />
<glyph unicode="&#x167;" horiz-adv-x="694" d="M72 592v86h166v283h-166v86h166v227h102v-227h244v-86h-244v-283h244v-86h-244v-320q0 -87 41.5 -136.5t116.5 -49.5q52 0 110 14v-92q-59 -16 -123 -16q-117 0 -182 77t-65 207v316h-166z" />
<glyph unicode="&#x168;" horiz-adv-x="1503" d="M72 1348v86h469v-86h-187v-861q0 -189 105 -302t293 -113t292.5 113t104.5 302v861h-188v86h471v-86h-175v-856q0 -234 -133.5 -376.5t-371.5 -142.5t-372 142.5t-134 376.5v856h-174zM449 1622q2 82 47 133t118 51q48 0 99 -26t97.5 -52t82.5 -26t58 28t24 70h80 q-1 -82 -46.5 -132t-117.5 -50q-48 0 -99 25.5t-98 51t-84 25.5q-36 0 -58 -27.5t-24 -70.5h-79z" />
<glyph unicode="&#x169;" horiz-adv-x="1312" d="M72 961v86h268v-674q0 -137 77 -220t204 -83q135 0 236 100.5t101 226.5v564h-165v86h268v-961h166v-86h-269v205q-42 -106 -137 -168t-223 -62q-166 0 -263 106t-97 277v603h-166zM311 1255q2 82 47.5 133.5t118.5 51.5q38 0 79 -16.5t70 -36t65 -36t65 -16.5 q36 0 58 28t24 71h80q-2 -82 -47 -132.5t-117 -50.5q-48 0 -99 25.5t-98 51.5t-84 26q-36 0 -58 -27.5t-24 -71.5h-80z" />
<glyph unicode="&#x16a;" horiz-adv-x="1503" d="M72 1348v86h469v-86h-187v-861q0 -189 105 -302t293 -113t292.5 113t104.5 302v861h-188v86h471v-86h-175v-856q0 -234 -133.5 -376.5t-371.5 -142.5t-372 142.5t-134 376.5v856h-174zM457 1642v82h587v-82h-587z" />
<glyph unicode="&#x16b;" horiz-adv-x="1312" d="M72 961v86h268v-674q0 -137 77 -220t204 -83q135 0 236 100.5t101 226.5v564h-165v86h268v-961h166v-86h-269v205q-42 -106 -137 -168t-223 -62q-166 0 -263 106t-97 277v603h-166zM319 1276v82h588v-82h-588z" />
<glyph unicode="&#x16c;" horiz-adv-x="1503" d="M72 1348v86h469v-86h-187v-861q0 -189 105 -302t293 -113t292.5 113t104.5 302v861h-188v86h471v-86h-175v-856q0 -234 -133.5 -376.5t-371.5 -142.5t-372 142.5t-134 376.5v856h-174zM522 1804h92q0 -155 138 -155q139 0 139 155h92q0 -104 -59.5 -168.5t-171.5 -64.5 t-171 64.5t-59 168.5z" />
<glyph unicode="&#x16d;" horiz-adv-x="1312" d="M72 961v86h268v-674q0 -137 77 -220t204 -83q135 0 236 100.5t101 226.5v564h-165v86h268v-961h166v-86h-269v205q-42 -106 -137 -168t-223 -62q-166 0 -263 106t-97 277v603h-166zM385 1438h92q0 -156 137 -156q140 0 140 156h92q0 -104 -60 -169t-172 -65 q-111 0 -170 65t-59 169z" />
<glyph unicode="&#x16e;" horiz-adv-x="1503" d="M72 1348v86h469v-86h-187v-861q0 -189 105 -302t293 -113t292.5 113t104.5 302v861h-188v86h471v-86h-175v-856q0 -234 -133.5 -376.5t-371.5 -142.5t-372 142.5t-134 376.5v856h-174zM584 1716q0 68 49 115t119 47q68 0 117 -47t49 -115q0 -71 -48.5 -118.5 t-117.5 -47.5q-70 0 -119 47.5t-49 118.5zM655 1716q0 -45 27.5 -74.5t69.5 -29.5q41 0 67.5 29.5t26.5 74.5q0 44 -26.5 72.5t-67.5 28.5q-43 0 -70 -28.5t-27 -72.5z" />
<glyph unicode="&#x16f;" horiz-adv-x="1312" d="M72 961v86h268v-674q0 -137 77 -220t204 -83q135 0 236 100.5t101 226.5v564h-165v86h268v-961h166v-86h-269v205q-42 -106 -137 -168t-223 -62q-166 0 -263 106t-97 277v603h-166zM446 1350q0 68 49 114.5t119 46.5q68 0 117 -46.5t49 -114.5q0 -71 -48.5 -118.5 t-117.5 -47.5q-70 0 -119 47.5t-49 118.5zM518 1350q0 -45 27 -75t69 -30q41 0 68 30t27 75q0 44 -27 72t-68 28q-43 0 -69.5 -28t-26.5 -72z" />
<glyph unicode="&#x170;" horiz-adv-x="1503" d="M72 1348v86h469v-86h-187v-861q0 -189 105 -302t293 -113t292.5 113t104.5 302v861h-188v86h471v-86h-175v-856q0 -234 -133.5 -376.5t-371.5 -142.5t-372 142.5t-134 376.5v856h-174zM563 1579l137 268h109l-158 -268h-88zM819 1579l137 268h109l-158 -268h-88z" />
<glyph unicode="&#x171;" horiz-adv-x="1312" d="M72 961v86h268v-674q0 -137 77 -220t204 -83q135 0 236 100.5t101 226.5v564h-165v86h268v-961h166v-86h-269v205q-42 -106 -137 -168t-223 -62q-166 0 -263 106t-97 277v603h-166zM426 1212l137 269h109l-158 -269h-88zM682 1212l137 269h109l-158 -269h-88z" />
<glyph unicode="&#x172;" horiz-adv-x="1503" d="M72 1348v86h469v-86h-187v-861q0 -189 105 -302t293 -113t292.5 113t104.5 302v861h-188v86h471v-86h-175v-856q0 -176 -78 -303t-223 -181q-66 -32 -109.5 -83.5t-43.5 -106.5q0 -43 27 -72t69 -29q57 0 109 45l47 -67q-73 -66 -164 -66q-81 0 -136 48t-55 122 q0 96 88 174h-36q-238 0 -372 142.5t-134 376.5v856h-174z" />
<glyph unicode="&#x173;" horiz-adv-x="1312" d="M72 961v86h268v-674q0 -137 77 -220t204 -83q135 0 236 100.5t101 226.5v564h-165v86h268v-961h166v-86h-152q-62 -34 -100.5 -82t-38.5 -100q0 -43 27 -72t69 -29q57 0 109 45l47 -67q-73 -66 -164 -66q-81 0 -135.5 48t-54.5 122q0 57 33.5 110.5t90.5 94.5v201 q-42 -106 -137 -168t-223 -62q-166 0 -263 106t-97 277v603h-166z" />
<glyph unicode="&#x174;" horiz-adv-x="2144" d="M23 1348v86h503v-86h-227l340 -1233l375 1319h129l370 -1315l340 1229h-227v86h496v-86h-166l-381 -1354h-131l-371 1292l-373 -1292h-131l-381 1354h-165zM829 1577l197 256h102l195 -256h-98l-150 195l-151 -195h-95z" />
<glyph unicode="&#x175;" horiz-adv-x="1849" d="M8 961v86h455v-86h-199l283 -844l321 930h117l324 -930l282 844h-198v86h448v-86h-145l-336 -965h-109l-329 919l-326 -919h-109l-333 965h-146zM674 1210l196 256h103l194 -256h-98l-149 195l-152 -195h-94z" />
<glyph unicode="&#x176;" d="M20 1348v86h455v-84h-182l358 -629l361 629h-183v84h443v-86h-152l-420 -725v-537h203v-86h-514v86h203v535l-422 727h-150zM401 1577l197 256h102l195 -256h-98l-150 195l-151 -195h-95z" />
<glyph unicode="&#x177;" horiz-adv-x="1198" d="M8 961v86h441v-86h-185l340 -865l336 865h-184v86h434v-86h-146l-409 -1035q-59 -151 -151.5 -233t-209.5 -82q-62 0 -110 10v94q48 -10 104 -10q82 0 154 64.5t121 185.5l8 20l-397 986h-146zM354 1210l197 256h102l195 -256h-98l-150 195l-151 -195h-95z" />
<glyph unicode="&#x178;" d="M20 1348v86h455v-84h-182l358 -629l361 629h-183v84h443v-86h-152l-420 -725v-537h203v-86h-514v86h203v535l-422 727h-150zM393 1720q0 34 23.5 58t58.5 24q38 0 62 -24t24 -58q0 -36 -24 -61t-62 -25q-35 0 -58.5 25t-23.5 61zM731 1720q0 34 23.5 58t58.5 24 q38 0 62 -24t24 -58q0 -36 -24 -61t-62 -25q-35 0 -58.5 25t-23.5 61z" />
<glyph unicode="&#x179;" horiz-adv-x="1185" d="M100 0v74l838 1267h-692v-282h-101v375h926v-74l-838 -1268h742v307h100v-399h-975zM516 1575l141 272h115l-162 -272h-94z" />
<glyph unicode="&#x17a;" horiz-adv-x="1077" d="M129 0v72l664 889h-537v-197h-96v283h766v-72l-664 -889h584v229h96v-315h-813zM473 1208l141 273h115l-162 -273h-94z" />
<glyph unicode="&#x17b;" horiz-adv-x="1185" d="M100 0v74l838 1267h-692v-282h-101v375h926v-74l-838 -1268h742v307h100v-399h-975zM518 1718q0 37 24.5 62.5t61.5 25.5t63.5 -25.5t26.5 -62.5t-26.5 -62.5t-63.5 -25.5t-61.5 25.5t-24.5 62.5z" />
<glyph unicode="&#x17c;" horiz-adv-x="1077" d="M129 0v72l664 889h-537v-197h-96v283h766v-72l-664 -889h584v229h96v-315h-813zM475 1352q0 37 24.5 62.5t61.5 25.5t63.5 -25.5t26.5 -62.5t-26.5 -62.5t-63.5 -25.5t-61.5 25.5t-24.5 62.5z" />
<glyph unicode="&#x17d;" horiz-adv-x="1185" d="M100 0v74l838 1267h-692v-282h-101v375h926v-74l-838 -1268h742v307h100v-399h-975zM358 1833h99l149 -195l152 195h94l-197 -256h-102z" />
<glyph unicode="&#x17e;" horiz-adv-x="1077" d="M129 0v72l664 889h-537v-197h-96v283h766v-72l-664 -889h584v229h96v-315h-813zM315 1466h99l149 -194l152 194h94l-197 -256h-102z" />
<glyph unicode="&#x192;" horiz-adv-x="925" d="M-86 -377l18 94q50 -16 105 -16q90 0 149.5 68t79.5 204l109 779h-170v86h182l39 282q12 86 43 151t75 104t95.5 58t110.5 19q47 0 124 -14l-14 -95q-53 17 -104 17q-92 0 -154 -70.5t-80 -206.5l-33 -245h234v-86h-244l-119 -834q-22 -156 -111.5 -232.5t-209.5 -76.5 q-53 0 -125 14z" />
<glyph unicode="&#x1fa;" horiz-adv-x="1449" d="M23 0v86h147l479 1309q-42 20 -67 54.5t-25 78.5q0 61 49 102t119 41q68 0 117 -41t49 -102q0 -44 -24.5 -79t-65.5 -54l481 -1309h152v-86h-465v86h196l-151 416h-584l-149 -416h196v-86h-454zM461 588h520l-260 739zM625 1528q0 -39 28 -64.5t72 -25.5q42 0 70 26 t28 64t-27.5 62t-70.5 24q-44 0 -72 -24t-28 -62zM633 1724l149 197h123l-180 -197h-92z" />
<glyph unicode="&#x1fb;" horiz-adv-x="1232" d="M133 313q0 147 116.5 239.5t297.5 92.5q112 0 199.5 -39t136.5 -106v200q0 129 -83.5 204t-226.5 75q-169 0 -327 -100l-47 79q173 113 391 113q182 0 288.5 -99.5t106.5 -260.5v-625h166v-86h-264v150q-44 -79 -138 -126t-219 -47q-174 0 -285.5 93t-111.5 243zM242 315 q0 -105 86.5 -175t232.5 -70q142 0 234 70.5t92 176.5q0 102 -92.5 172t-231.5 70q-143 0 -232 -69t-89 -175zM432 1286q0 65 46.5 109.5t111.5 44.5q64 0 109.5 -44.5t45.5 -109.5q0 -68 -45.5 -114t-109.5 -46q-65 0 -111.5 46t-46.5 114zM500 1286q0 -43 25.5 -71.5 t64.5 -28.5q38 0 63 28.5t25 71.5q0 41 -25 68.5t-63 27.5q-39 0 -64.5 -27t-25.5 -69zM508 1491l135 262h111l-156 -262h-90z" />
<glyph unicode="&#x1fc;" horiz-adv-x="1861" d="M0 0v86h145l777 1348h790v-342h-98v256h-522v-576h483v-88h-483v-598h528v262h98v-348h-927v86h194v598h-387l-340 -598h188v-86h-446zM645 766h340v602zM1075 1575l142 272h114l-162 -272h-94z" />
<glyph unicode="&#x1fd;" horiz-adv-x="1943" d="M133 313q0 148 116.5 240t297.5 92q113 0 201 -39.5t137 -105.5v182q0 136 -85 217.5t-225 81.5q-172 0 -329 -102l-45 79q181 113 389 113q139 0 236.5 -71.5t127.5 -190.5q59 120 172.5 193t249.5 73q209 0 332 -140.5t123 -356.5v-54l-846 -2q4 -209 113 -331.5 t291 -122.5q105 0 198 51t158 141l72 -59q-72 -113 -184.5 -170.5t-250.5 -57.5q-142 0 -251.5 66.5t-172.5 183.5q-42 -116 -150 -182t-263 -66q-182 0 -297 93.5t-115 244.5zM242 315q0 -105 86.5 -177t232.5 -72q134 0 230 76.5t96 181.5q0 100 -92.5 167.5t-231.5 67.5 q-143 0 -232 -69t-89 -175zM920 1208l141 273h115l-162 -273h-94zM989 612h740q0 159 -101 266t-258 107q-142 0 -252.5 -104t-128.5 -269z" />
<glyph unicode="&#x1fe;" horiz-adv-x="1626" d="M127 729q0 153 50 287.5t138.5 232.5t217.5 154.5t280 56.5q243 0 420 -141l125 151l74 -61l-127 -154q93 -101 143.5 -236t50.5 -290q0 -157 -49.5 -296t-137.5 -240.5t-217.5 -160.5t-281.5 -59q-255 0 -434 158l-135 -164l-74 62l139 170q-88 102 -135 238t-47 292z M244 729q0 -265 137 -444l786 954q-145 123 -354 123q-256 0 -412.5 -178t-156.5 -455zM444 211q152 -139 369 -139q169 0 299.5 86.5t200 235.5t69.5 335q0 267 -145 442zM725 1575l141 272h115l-162 -272h-94z" />
<glyph unicode="&#x1ff;" d="M109 535q0 235 152.5 387.5t385.5 152.5q177 0 314 -94l83 100l72 -57l-84 -102q152 -155 152 -387q0 -242 -151.5 -402t-385.5 -160q-177 0 -317 99l-90 -109l-72 57l92 113q-151 157 -151 402zM219 535q0 -194 109 -322l571 692q-109 76 -252 76q-188 0 -308 -124.5 t-120 -321.5zM393 150q113 -82 254 -82q187 0 306.5 132t119.5 335q0 185 -106 307zM559 1208l141 273h115l-162 -273h-94z" />
<glyph unicode="&#x218;" horiz-adv-x="1110" d="M135 -4v403h84q35 -152 127.5 -240.5t231.5 -88.5q132 0 213 80t81 210q0 75 -39.5 135t-102 101.5t-138.5 79.5t-152 77.5t-138.5 85.5t-102 114t-39.5 153q0 152 98.5 253t251.5 101q110 0 195 -56t129 -149v181h96v-385h-84q-29 142 -114.5 229.5t-209.5 87.5 q-116 0 -185 -71.5t-69 -180.5q0 -55 24.5 -101.5t65.5 -81t94.5 -66t113 -60t118.5 -58.5t112.5 -66.5t94.5 -79t65.5 -101t24.5 -127.5q0 -174 -108 -287t-285 -113q-123 0 -216 56.5t-141 154.5v-190h-96zM500 -193q0 34 23 57t57 23q38 0 62 -29t24 -71 q0 -135 -123 -240l-41 39q72 69 84 146q-8 -2 -17 -2q-31 0 -50 22.5t-19 54.5z" />
<glyph unicode="&#x219;" horiz-adv-x="1009" d="M127 -4v319h84q30 -115 116 -181t214 -66q106 0 174.5 57t68.5 149q0 50 -28 89.5t-73 63.5t-103.5 47t-118.5 40.5t-118 44t-103 56.5t-72.5 78t-26.5 110q1 120 85.5 195t213.5 73q97 0 178 -40t132 -113v131h96v-293h-84q-26 104 -111 166.5t-196 62.5q-91 0 -151 -49 t-60 -125q0 -52 35.5 -90.5t92 -63t125.5 -46.5t137.5 -47.5t125 -59t92 -89t35.5 -128.5q0 -143 -96 -227.5t-246 -84.5q-107 0 -189 44t-133 124v-147h-96zM436 -193q0 34 23 57t57 23q38 0 62 -29t24 -71q0 -135 -123 -240l-41 39q72 69 84 146q-8 -2 -16 -2 q-31 0 -50.5 22.5t-19.5 54.5z" />
<glyph unicode="&#x21a;" horiz-adv-x="1239" d="M74 1053v381h1091v-381h-100v295h-391v-1262h200v-86h-509v86h200v1262h-391v-295h-100zM532 -193q0 34 23 57t57 23q38 0 62 -29t24 -71q0 -135 -123 -240l-40 39q71 67 83 146q-8 -2 -16 -2q-31 0 -50.5 22.5t-19.5 54.5z" />
<glyph unicode="&#x21b;" horiz-adv-x="694" d="M72 961v86h166v227h102v-227h244v-86h-244v-689q0 -87 41.5 -136.5t116.5 -49.5q52 0 110 14v-92q-59 -16 -123 -16q-117 0 -182 77t-65 207v685h-166zM332 -193q0 34 23 57t57 23q38 0 62 -29t24 -71q0 -135 -123 -240l-41 39q72 69 84 146q-8 -2 -17 -2q-31 0 -50 22.5 t-19 54.5z" />
<glyph unicode="&#x237;" horiz-adv-x="548" d="M4 -289q40 -8 76 -8q80 0 127 58t47 157v1043h-166v86h268v-1131q0 -139 -72 -222t-192 -83q-50 0 -88 6v94z" />
<glyph unicode="&#x2c6;" horiz-adv-x="698" d="M102 1210l197 256h102l195 -256h-98l-150 195l-151 -195h-95z" />
<glyph unicode="&#x2c7;" horiz-adv-x="698" d="M102 1466h99l149 -194l152 194h94l-197 -256h-102z" />
<glyph unicode="&#x2d8;" horiz-adv-x="747" d="M143 1438h93q0 -156 137 -156q139 0 139 156h92q0 -104 -59.5 -169t-171.5 -65q-111 0 -170.5 65t-59.5 169z" />
<glyph unicode="&#x2d9;" horiz-adv-x="462" d="M143 1352q0 37 24.5 62.5t61.5 25.5t63.5 -25.5t26.5 -62.5t-26.5 -62.5t-63.5 -25.5t-61.5 25.5t-24.5 62.5z" />
<glyph unicode="&#x2da;" horiz-adv-x="608" d="M137 1350q0 68 49 114.5t119 46.5q68 0 117 -46.5t49 -114.5q0 -71 -48.5 -118.5t-117.5 -47.5q-70 0 -119 47.5t-49 118.5zM209 1350q0 -45 27 -75t69 -30q41 0 67.5 30t26.5 75q0 44 -26.5 72t-67.5 28q-43 0 -69.5 -28t-26.5 -72z" />
<glyph unicode="&#x2db;" horiz-adv-x="661" d="M164 -221q0 77 60.5 146.5t152.5 105.5l74 -31q-77 -29 -131 -85.5t-54 -117.5q0 -43 27 -71.5t69 -28.5q57 0 109 45l47 -68q-72 -65 -164 -65q-81 0 -135.5 48t-54.5 122z" />
<glyph unicode="&#x2dc;" horiz-adv-x="892" d="M143 1255q2 82 47.5 133.5t118.5 51.5q38 0 79 -16.5t70 -36t65 -36t65 -16.5q36 0 58 28t24 71h80q-2 -82 -47 -132.5t-117 -50.5q-48 0 -99 25.5t-98 51.5t-84 26q-36 0 -58 -27.5t-24 -71.5h-80z" />
<glyph unicode="&#x2dd;" horiz-adv-x="747" d="M123 1212l137 269h109l-158 -269h-88zM379 1212l137 269h109l-158 -269h-88z" />
<glyph unicode="&#x326;" horiz-adv-x="0" d="M-309 -193q0 34 23 57t57 23q38 0 62 -29t24 -71q0 -135 -123 -240l-41 39q72 69 84 146q-8 -2 -17 -2q-31 0 -50 22.5t-19 54.5z" />
<glyph unicode="&#x1e80;" horiz-adv-x="2144" d="M23 1348v86h503v-86h-227l340 -1233l375 1319h129l370 -1315l340 1229h-227v86h496v-86h-166l-381 -1354h-131l-371 1292l-373 -1292h-131l-381 1354h-165zM903 1847h115l141 -272h-94z" />
<glyph unicode="&#x1e81;" horiz-adv-x="1849" d="M8 961v86h455v-86h-199l283 -844l321 930h117l324 -930l282 844h-198v86h448v-86h-145l-336 -965h-109l-329 919l-326 -919h-109l-333 965h-146zM748 1481h114l142 -273h-95z" />
<glyph unicode="&#x1e82;" horiz-adv-x="2144" d="M23 1348v86h503v-86h-227l340 -1233l375 1319h129l370 -1315l340 1229h-227v86h496v-86h-166l-381 -1354h-131l-371 1292l-373 -1292h-131l-381 1354h-165zM987 1575l141 272h115l-162 -272h-94z" />
<glyph unicode="&#x1e83;" horiz-adv-x="1849" d="M8 961v86h455v-86h-199l283 -844l321 930h117l324 -930l282 844h-198v86h448v-86h-145l-336 -965h-109l-329 919l-326 -919h-109l-333 965h-146zM831 1208l142 273h114l-161 -273h-95z" />
<glyph unicode="&#x1e84;" horiz-adv-x="2144" d="M23 1348v86h503v-86h-227l340 -1233l375 1319h129l370 -1315l340 1229h-227v86h496v-86h-166l-381 -1354h-131l-371 1292l-373 -1292h-131l-381 1354h-165zM821 1720q0 34 23.5 58t58.5 24q38 0 62 -24t24 -58q0 -36 -24 -61t-62 -25q-35 0 -58.5 25t-23.5 61zM1159 1720 q0 34 23.5 58t58.5 24q38 0 62 -24t24 -58q0 -36 -24 -61t-62 -25q-35 0 -58.5 25t-23.5 61z" />
<glyph unicode="&#x1e85;" horiz-adv-x="1849" d="M8 961v86h455v-86h-199l283 -844l321 930h117l324 -930l282 844h-198v86h448v-86h-145l-336 -965h-109l-329 919l-326 -919h-109l-333 965h-146zM666 1354q0 34 23.5 58t58.5 24q38 0 62 -24t24 -58q0 -36 -24 -61t-62 -25q-35 0 -58.5 25t-23.5 61zM1004 1354 q0 34 23 58t58 24q38 0 62 -24t24 -58q0 -36 -24 -61t-62 -25q-35 0 -58 25t-23 61z" />
<glyph unicode="&#x1ef2;" d="M20 1348v86h455v-84h-182l358 -629l361 629h-183v84h443v-86h-152l-420 -725v-537h203v-86h-514v86h203v535l-422 727h-150zM475 1847h115l141 -272h-94z" />
<glyph unicode="&#x1ef3;" horiz-adv-x="1198" d="M8 961v86h441v-86h-185l340 -865l336 865h-184v86h434v-86h-146l-409 -1035q-59 -151 -151.5 -233t-209.5 -82q-62 0 -110 10v94q48 -10 104 -10q82 0 154 64.5t121 185.5l8 20l-397 986h-146zM428 1481h115l141 -273h-94z" />
<glyph unicode="&#x2000;" horiz-adv-x="960" />
<glyph unicode="&#x2001;" horiz-adv-x="1921" />
<glyph unicode="&#x2002;" horiz-adv-x="960" />
<glyph unicode="&#x2003;" horiz-adv-x="1921" />
<glyph unicode="&#x2004;" horiz-adv-x="640" />
<glyph unicode="&#x2005;" horiz-adv-x="480" />
<glyph unicode="&#x2006;" horiz-adv-x="320" />
<glyph unicode="&#x2007;" horiz-adv-x="320" />
<glyph unicode="&#x2008;" horiz-adv-x="240" />
<glyph unicode="&#x2009;" horiz-adv-x="384" />
<glyph unicode="&#x200a;" horiz-adv-x="106" />
<glyph unicode="&#x2010;" horiz-adv-x="727" d="M102 559v96h523v-96h-523z" />
<glyph unicode="&#x2011;" horiz-adv-x="727" d="M102 559v96h523v-96h-523z" />
<glyph unicode="&#x2012;" horiz-adv-x="727" d="M102 559v96h523v-96h-523z" />
<glyph unicode="&#x2013;" horiz-adv-x="1222" d="M102 563v88h1018v-88h-1018z" />
<glyph unicode="&#x2014;" horiz-adv-x="1773" d="M102 563v88h1569v-88h-1569z" />
<glyph unicode="&#x2018;" horiz-adv-x="380" d="M113 1231q0 149 141 270l45 -43q-82 -78 -94 -166q8 2 18 2q34 0 56 -26t22 -62q0 -38 -26 -64t-64 -26q-42 0 -70 33.5t-28 81.5z" />
<glyph unicode="&#x2019;" horiz-adv-x="378" d="M78 1411q0 38 26 64t64 26q42 0 70 -33.5t28 -81.5q0 -149 -141 -270l-45 43q82 78 94 166q-8 -2 -18 -2q-34 0 -56 26t-22 62z" />
<glyph unicode="&#x201a;" horiz-adv-x="415" d="M115 84q0 38 26 64t64 26q42 0 70 -33.5t28 -81.5q0 -149 -141 -270l-45 43q82 78 94 166q-8 -2 -18 -2q-34 0 -56 26t-22 62z" />
<glyph unicode="&#x201c;" horiz-adv-x="659" d="M115 1231q0 149 141 270l45 -43q-82 -78 -94 -166q8 2 18 2q34 0 56 -26t22 -62q0 -38 -26 -64t-64 -26q-42 0 -70 33.5t-28 81.5zM393 1231q0 148 142 270l45 -43q-83 -79 -95 -166q8 2 19 2q34 0 56 -26t22 -62q0 -38 -26 -64t-64 -26q-42 0 -70.5 33.5t-28.5 81.5z " />
<glyph unicode="&#x201d;" horiz-adv-x="657" d="M78 1411q0 38 26 64t64 26q42 0 70 -33.5t28 -81.5q0 -149 -141 -270l-45 43q82 78 94 166q-8 -2 -18 -2q-34 0 -56 26t-22 62zM356 1411q0 38 26 64t64 26q42 0 70.5 -33.5t28.5 -81.5q0 -148 -142 -270l-45 43q83 79 95 166q-8 -2 -19 -2q-34 0 -56 26t-22 62z" />
<glyph unicode="&#x201e;" horiz-adv-x="694" d="M115 86q0 38 26 64t64 26q42 0 70 -33.5t28 -81.5q0 -149 -141 -270l-45 43q82 78 94 166q-8 -2 -18 -2q-34 0 -56 26t-22 62zM393 86q0 38 26 64t64 26q42 0 70.5 -33.5t28.5 -81.5q0 -148 -142 -270l-45 43q82 78 94 166q-8 -2 -18 -2q-34 0 -56 26t-22 62z" />
<glyph unicode="&#x2020;" horiz-adv-x="884" d="M131 940v102l266 -12l-8 404h109l-9 -404l265 12v-102l-265 12l9 -1052h-109l8 1052z" />
<glyph unicode="&#x2021;" horiz-adv-x="884" d="M131 401v103l266 -12v460l-266 -12v102l266 -12l-8 404h109l-9 -404l265 12v-102l-265 12v-460l265 12v-103l-265 13l9 -514h-109l8 514z" />
<glyph unicode="&#x2022;" horiz-adv-x="980" d="M217 678q0 109 83.5 190.5t193.5 81.5t190 -81t80 -191q0 -111 -80 -193t-190 -82q-109 0 -193 82.5t-84 192.5z" />
<glyph unicode="&#x2026;" horiz-adv-x="1421" d="M113 78q0 38 30 67t70 29q38 0 67 -29t29 -67q0 -40 -29 -69t-67 -29q-40 0 -70 29t-30 69zM614 78q0 38 30 67t69 29t67.5 -28.5t28.5 -67.5q0 -40 -28 -69t-68 -29q-39 0 -69 29.5t-30 68.5zM1114 78q0 38 30 67t68 29q40 0 68.5 -29t28.5 -67q0 -40 -28.5 -69 t-68.5 -29q-39 0 -68.5 29.5t-29.5 68.5z" />
<glyph unicode="&#x202f;" horiz-adv-x="384" />
<glyph unicode="&#x2030;" horiz-adv-x="2119" d="M127 1151q0 139 66.5 219t191.5 80t190.5 -79.5t65.5 -219.5q0 -142 -65 -225.5t-191 -83.5q-127 0 -192.5 83t-65.5 226zM174 0l1012 1434h108l-1011 -1434h-109zM219 1151q0 -233 166 -233q164 0 164 233q0 223 -164 223q-166 0 -166 -223zM836 293q0 139 66.5 219 t191.5 80t190.5 -79.5t65.5 -219.5q0 -142 -65 -225.5t-191 -83.5q-127 0 -192.5 83t-65.5 226zM928 293q0 -234 166 -234q163 0 163 234q0 223 -163 223q-166 0 -166 -223zM1477 293q0 139 66.5 219t191.5 80t190.5 -79.5t65.5 -219.5q0 -142 -65 -225.5t-191 -83.5 q-127 0 -192.5 83t-65.5 226zM1569 293q0 -234 166 -234q163 0 163 234q0 223 -163 223q-166 0 -166 -223z" />
<glyph unicode="&#x2039;" horiz-adv-x="522" d="M98 594l262 369h103l-262 -369l262 -367h-103z" />
<glyph unicode="&#x203a;" horiz-adv-x="522" d="M59 227l263 369l-263 367h103l262 -367l-262 -369h-103z" />
<glyph unicode="&#x2044;" horiz-adv-x="858" d="M-25 -84l811 1602h97l-811 -1602h-97z" />
<glyph unicode="&#x205f;" horiz-adv-x="480" />
<glyph unicode="&#x2074;" horiz-adv-x="765" d="M68 889v57l368 492h76v-482h135v-67h-135v-176h135v-70h-366v70h151v176h-364zM162 956h270v365z" />
<glyph unicode="&#x20ac;" horiz-adv-x="1363" d="M57 551l13 86h192q-4 66 -4 94q0 37 4 103h-205l13 86h200q37 246 174 393t344 147q116 0 209.5 -51.5t151.5 -142.5v168h96v-342h-84q-40 127 -138 200.5t-232 73.5q-163 0 -270 -120t-140 -326h610l-12 -86h-606q-4 -62 -4 -97q0 -30 4 -100h575l-12 -86h-555 q31 -221 138.5 -349t289.5 -128q120 0 221 68t158 180l82 -50q-64 -135 -187 -216t-272 -81q-119 0 -215 42.5t-162 120t-107.5 181.5t-58.5 232h-211z" />
<glyph unicode="&#x2116;" horiz-adv-x="2414" d="M109 0v86h180v1262h-180v86h294l832 -1268v1182h-180v86h461v-86h-181v-1348h-118l-828 1270v-1184h180v-86h-460zM1636 1114q0 149 94.5 243.5t239.5 94.5q146 0 242 -95t96 -243q0 -156 -95.5 -254t-242.5 -98t-240.5 98t-93.5 254zM1659 524v86h627v-86h-627z M1735 1112q0 -115 65 -189.5t170 -74.5q108 0 174 74.5t66 189.5q0 110 -66.5 182t-173.5 72q-105 0 -170 -72t-65 -182z" />
<glyph unicode="&#x2122;" horiz-adv-x="1839" d="M111 1272v209h575v-209h-68v147h-182v-577h121v-62h-317v62h120v577h-182v-147h-67zM764 780v62h106v577h-106v62h211l258 -514l258 514h215v-62h-107v-577h107v-62h-287v62h107v563l-264 -528h-62l-262 528v-563h106v-62h-280z" />
<glyph unicode="&#x2212;" horiz-adv-x="1175" d="M123 600v86h930v-86h-930z" />
<glyph unicode="&#x25fc;" horiz-adv-x="1044" d="M0 0v1044h1044v-1044h-1044z" />
<glyph horiz-adv-x="727" d="M102 676v96h523v-96h-523z" />
<glyph horiz-adv-x="1222" d="M102 684v88h1018v-88h-1018z" />
<glyph horiz-adv-x="1773" d="M102 684v88h1569v-88h-1569z" />
<glyph horiz-adv-x="837" d="M98 711l262 368h103l-262 -368l262 -367h-103zM414 711l262 368h102l-262 -368l262 -367h-102z" />
<glyph horiz-adv-x="837" d="M59 344l263 369l-263 366h103l262 -366l-262 -369h-103zM375 344l262 369l-262 366h102l262 -366l-262 -369h-102z" />
<glyph horiz-adv-x="522" d="M98 711l262 368h103l-262 -368l262 -367h-103z" />
<glyph horiz-adv-x="522" d="M59 344l263 369l-263 366h103l262 -366l-262 -369h-103z" />
<glyph horiz-adv-x="604" d="M147 715q0 240 90.5 472.5t256.5 432.5l61 -47q-142 -199 -220.5 -419t-78.5 -439t78.5 -439t220.5 -419l-61 -47q-166 200 -256.5 432.5t-90.5 472.5z" />
<glyph horiz-adv-x="604" d="M49 -143q142 199 220.5 419t78.5 439t-78.5 439t-220.5 419l62 47q165 -200 255.5 -432t90.5 -473t-90.5 -473t-255.5 -432z" />
<glyph horiz-adv-x="565" d="M213 -195v1819h281v-86h-179v-1647h179v-86h-281z" />
<glyph horiz-adv-x="565" d="M72 -109h178v1647h-178v86h280v-1819h-280v86z" />
<glyph horiz-adv-x="618" d="M129 666v98q73 3 110 56t37 163v371q0 132 70.5 201t202.5 69v-86q-85 0 -127.5 -48.5t-42.5 -127.5v-391q0 -110 -39 -175.5t-113 -80.5q74 -15 113 -80.5t39 -175.5v-391q0 -80 42.5 -128.5t127.5 -48.5v-86q-131 0 -202 69t-71 202v370q0 214 -147 220z" />
<glyph horiz-adv-x="641" d="M270 -324v2001h103v-2001h-103z" />
<glyph horiz-adv-x="618" d="M70 -109q85 0 127.5 48.5t42.5 128.5v391q0 110 38.5 175.5t112.5 80.5q-74 15 -112.5 80.5t-38.5 175.5v391q0 79 -42.5 127.5t-127.5 48.5v86q131 0 201.5 -68.5t70.5 -201.5v-371q0 -213 147 -219v-98q-147 -6 -147 -220v-370q0 -133 -70.5 -202t-201.5 -69v86z" />
<glyph horiz-adv-x="780" d="M53 -162l621 1757h102l-620 -1757h-103z" />
<glyph horiz-adv-x="780" d="M4 1595h102l621 -1757h-102z" />
<glyph horiz-adv-x="569" d="M195 1389q0 39 26.5 65.5t63.5 26.5q38 0 64 -26t26 -66q0 -37 -26 -63t-64 -26q-37 0 -63.5 26t-26.5 63zM229 -25l7 1139h98l6 -1139h-111z" />
<glyph horiz-adv-x="903" d="M123 348q0 70 20.5 132t54 107.5t73.5 87t79.5 79t73 74.5t54 82t20.5 94v110h102v-119q0 -58 -20 -110.5t-52.5 -92.5t-72 -78.5t-78.5 -76.5t-71.5 -78.5t-52.5 -93t-20 -111.5q0 -126 75 -207t204 -81q106 0 177 58.5t106 139.5l84 -39q-39 -106 -132.5 -180 t-236.5 -74q-176 0 -281.5 106.5t-105.5 270.5zM457 1391q0 37 26 63.5t64 26.5t64 -26.5t26 -63.5q0 -38 -26 -64.5t-64 -26.5t-64 26.5t-26 64.5z" />
<glyph horiz-adv-x="522" d="M164 719q0 39 29.5 68.5t68.5 29.5q40 0 68 -29t28 -69t-28 -69t-68 -29q-39 0 -68.5 29.5t-29.5 68.5z" />
<glyph horiz-adv-x="980" d="M217 729q0 109 83.5 190.5t193.5 81.5t190 -81t80 -191q0 -111 -80 -192.5t-190 -81.5q-109 0 -193 82t-84 192z" />
<glyph horiz-adv-x="1148" d="M141 725q0 117 8.5 210.5t28 177t52.5 144.5t80.5 106t114 67t150.5 22t150.5 -22t114 -67t80.5 -106t52 -144.5t27.5 -177t8.5 -210.5q0 -142 -12 -252t-42 -205t-78.5 -157t-124 -96.5t-176.5 -34.5t-176.5 34.5t-124 96.5t-79 157t-42.5 205t-12 252zM246 725 q0 -101 5 -179t17.5 -155.5t36.5 -132.5t59.5 -98t88.5 -64.5t122 -21.5t122 21.5t88.5 65t59 98.5t36 132.5t17.5 155t5 178.5q0 99 -5 175.5t-17.5 152t-36 128t-59 94.5t-88.5 62.5t-122 20.5q-82 0 -142 -31.5t-95.5 -84t-56.5 -136.5t-28 -172.5t-7 -208.5z" />
<glyph horiz-adv-x="1148" d="M154 1139l462 303l93 -17v-1335h356v-90h-844v90h385v1233l-403 -264z" />
<glyph horiz-adv-x="1148" d="M147 0v41q0 95 38 186t98.5 165t133.5 145.5t146.5 138t134 130t98.5 134t38 139.5q0 121 -75.5 201t-201.5 80q-113 0 -196.5 -77t-118.5 -187l-92 34q44 139 153 232.5t258 93.5q169 0 275 -106.5t106 -264.5q0 -80 -36.5 -159.5t-95 -146.5t-129.5 -134t-143 -133 t-132.5 -131t-100.5 -140.5t-45 -150.5h602v270h96v-360h-811z" />
<glyph horiz-adv-x="1148" d="M121 281l92 32q33 -108 120.5 -174.5t207.5 -66.5q142 0 237.5 95.5t95.5 238.5q0 149 -102 237t-289 88h-80l-20 57l444 560h-555v-218h-96v304h760v-91l-418 -524q215 0 340 -112t125 -297q0 -188 -127.5 -311.5t-314.5 -123.5q-160 0 -269.5 83t-150.5 223z" />
<glyph horiz-adv-x="1148" d="M90 434v72l651 930h105v-916h194v-86h-194v-348h194v-86h-524v86h232v348h-658zM205 520h543v783z" />
<glyph horiz-adv-x="1148" d="M131 279l92 36q39 -109 127 -176t219 -67q148 0 242 105t94 263q0 159 -93 260t-251 101q-81 0 -151.5 -31.5t-118.5 -77.5l-82 31l39 711h676v-281h-97v190h-487l-35 -540q52 40 123.5 67t146.5 27q192 0 315.5 -129.5t123.5 -321.5q0 -204 -126 -337.5t-321 -133.5 q-166 0 -276 82t-160 222z" />
<glyph horiz-adv-x="1148" d="M147 606v45q0 181 28 325t86 253.5t155.5 169t228.5 59.5q87 0 171 -26t147 -68l-50 -88q-128 86 -272 86q-194 0 -291.5 -177.5t-97.5 -508.5q38 105 131 170t221 65q189 0 303.5 -128.5t114.5 -325.5q0 -217 -113.5 -349.5t-316.5 -132.5q-445 0 -445 631zM256 467 q0 -104 36 -191.5t114.5 -145.5t187.5 -58q161 0 240 105t79 278q0 162 -80.5 261t-236.5 99q-147 0 -243.5 -97.5t-96.5 -250.5z" />
<glyph horiz-adv-x="1148" d="M131 1077v357h911v-74l-567 -1360h-117l572 1343h-703v-266h-96z" />
<glyph horiz-adv-x="1148" d="M141 397q0 75 24 140t64.5 110t89 74.5t101.5 42.5q-95 29 -162.5 116t-67.5 214q0 161 107.5 261.5t275.5 100.5t276.5 -101t108.5 -261q0 -127 -67 -214t-162 -116q53 -13 101.5 -42.5t89 -74.5t64.5 -110t24 -140q0 -185 -118 -303.5t-317 -118.5q-197 0 -314.5 118.5 t-117.5 303.5zM248 397q0 -142 85 -235.5t240 -93.5t241.5 93.5t86.5 235.5t-90.5 228t-237.5 86t-236 -86t-89 -228zM295 1092q0 -122 77 -203.5t201 -81.5q125 0 203 81.5t78 203.5q0 121 -75 196.5t-206 75.5t-204.5 -75.5t-73.5 -196.5z" />
<glyph horiz-adv-x="1148" d="M131 1004q0 201 117.5 326.5t312.5 125.5q210 0 320 -147.5t110 -429.5v-54q0 -199 -26 -351.5t-82 -266t-150 -173t-223 -59.5q-98 0 -185 28.5t-147 76.5l53 86q53 -41 127 -67.5t150 -26.5q379 0 379 716q-33 -105 -123 -170t-217 -65q-189 0 -302.5 128t-113.5 323z M238 1006q0 -157 83 -257t234 -100q149 0 236.5 100.5t87.5 251.5q0 152 -87.5 255.5t-228.5 103.5q-154 0 -239.5 -98.5t-85.5 -255.5z" />
</font>
</defs>
</svg>
