<?xml version="1.0" standalone="no"?>
<!DOCTYPE svg PUBLIC "-//W3C//DTD SVG 1.1//EN" "http://www.w3.org/Graphics/SVG/1.1/DTD/svg11.dtd" >
<svg xmlns="http://www.w3.org/2000/svg">
<metadata></metadata>
<defs>
<font id="knilethin_italic" horiz-adv-x="1294" >
<font-face units-per-em="2048" ascent="1536" descent="-512" />
<missing-glyph horiz-adv-x="499" />
<glyph unicode=" "  horiz-adv-x="499" />
<glyph unicode="&#x09;" horiz-adv-x="499" />
<glyph unicode="&#xa0;" horiz-adv-x="499" />
<glyph unicode="!" horiz-adv-x="485" d="M104 45q0 25 16.5 41t41.5 16t41 -16t16 -41t-16 -41t-41 -16t-41.5 16t-16.5 41zM197 311l206 1170h23l-209 -1170h-20z" />
<glyph unicode="&#x22;" horiz-adv-x="512" d="M225 1065l70 416h29l-78 -416h-21zM463 1065l69 416h29l-78 -416h-20z" />
<glyph unicode="#" horiz-adv-x="1124" d="M37 440v21h242l184 491h-234v21h242l174 461h23l-174 -461h407l172 461h23l-172 -461h233v-21h-242l-184 -491h234v-21h-242l-166 -440h-22l167 440h-409l-164 -440h-23l164 440h-233zM301 461h408l186 491h-410z" />
<glyph unicode="$" horiz-adv-x="1093" d="M104 61l54 308h22l-51 -291q162 -74 344 -74q168 0 286 114.5t118 278.5q0 68 -32 126.5t-83 101t-112.5 81.5t-123 78.5t-112.5 82.5t-83 102t-32 129q0 156 109.5 256t267.5 100h26l35 197h21l-35 -199q128 -7 293 -70l-53 -301h-23l51 285q-159 64 -313 64 q-152 0 -253 -92.5t-101 -239.5q0 -59 25 -110t65.5 -88t92 -74.5t106 -68t106 -69t92 -78t65.5 -94t25 -117.5q0 -174 -126 -296.5t-302 -122.5h-2l-37 -209h-20l37 209q-177 5 -347 81z" />
<glyph unicode="%" horiz-adv-x="1380" d="M72 0l1265 1434h29l-1266 -1434h-28zM258 1090q0 144 71.5 246t188.5 102q81 0 125.5 -57.5t44.5 -149.5q0 -140 -74.5 -245t-189.5 -105q-80 0 -123 58t-43 151zM281 1090q0 -86 36.5 -137.5t108.5 -51.5q104 0 172 100.5t68 229.5q0 83 -38 134.5t-112 51.5 q-72 0 -126.5 -47t-81.5 -120.5t-27 -159.5zM768 205q0 144 71.5 246t188.5 102q81 0 125.5 -57.5t44.5 -149.5q0 -140 -74.5 -245t-189.5 -105q-80 0 -123 58t-43 151zM791 205q0 -86 36.5 -137.5t108.5 -51.5q104 0 172 100.5t68 229.5q0 83 -38 134.5t-112 51.5 q-72 0 -126.5 -47t-81.5 -120.5t-27 -159.5z" />
<glyph unicode="&#x26;" horiz-adv-x="1366" d="M111 330q0 78 32 152t87.5 134t124 108t147.5 83q-44 62 -70.5 104.5t-51 104.5t-24.5 114q0 142 101 233t245 91q160 0 302 -86l-54 -297h-22l51 283q-123 80 -279 80q-133 0 -227 -85.5t-94 -211.5q0 -54 26.5 -120t53.5 -108.5t71 -103.5l388 -543q128 166 176 389 h178l-4 -20h-156q-51 -219 -180 -387l158 -224h170l-5 -20h-180l-160 223q-92 -113 -209 -177t-245 -64q-159 0 -254.5 104.5t-95.5 243.5zM135 332q0 -133 89.5 -230.5t238.5 -97.5q123 0 236 63.5t204 174.5l-389 549q-75 -33 -140 -78t-120 -102.5t-87 -129.5t-32 -149z " />
<glyph unicode="'" horiz-adv-x="266" d="M195 1241q77 74 77 158q0 43 -26 76l73 34q27 -39 27 -79q0 -90 -139 -203z" />
<glyph unicode="(" horiz-adv-x="468" d="M125 414q0 291 134 580.5t357 533.5l15 -15q-220 -245 -352 -529.5t-132 -571.5q0 -166 46.5 -338t123.5 -320l-16 -12q-176 330 -176 672z" />
<glyph unicode=")" horiz-adv-x="468" d="M-117 -244q220 245 352 530t132 572q0 166 -46.5 338t-123.5 320l16 12q176 -330 176 -672q0 -291 -134 -580.5t-357 -533.5z" />
<glyph unicode="*" horiz-adv-x="718" d="M162 1008l293 155l-236 154l12 16l236 -155l55 303h21l-56 -303l291 157l10 -18l-294 -158l239 -151l-12 -17l-238 154l-55 -307h-20l53 305l-289 -154z" />
<glyph unicode="+" horiz-adv-x="1085" d="M123 631v18h434v459h21v-459h432v-18h-432v-463h-21v463h-434z" />
<glyph unicode="," horiz-adv-x="368" d="M-6 -152q78 75 78 158q0 41 -27 76l74 35q26 -37 26 -80q0 -90 -139 -203z" />
<glyph unicode="-" horiz-adv-x="681" d="M104 586l5 22h501l-4 -22h-502z" />
<glyph unicode="." horiz-adv-x="403" d="M59 49q0 24 19 43t43 19q25 0 43 -18.5t18 -43.5t-18 -43t-43 -18q-24 0 -43 18.5t-19 42.5z" />
<glyph unicode="/" horiz-adv-x="641" d="M-133 -221l932 1757h24l-932 -1757h-24z" />
<glyph unicode="0" horiz-adv-x="1191" d="M188 403q0 192 37 376.5t105.5 336.5t179 245t244.5 93q164 0 245.5 -113t81.5 -303t-38 -374.5t-107.5 -337t-180 -246.5t-243.5 -94q-162 0 -243 112.5t-81 304.5zM209 406q0 -118 30.5 -206t100 -141t172.5 -53q127 0 233.5 93.5t173.5 243.5t103.5 331t36.5 364 q0 180 -75.5 288t-229.5 108q-86 0 -163.5 -42.5t-136.5 -117t-106 -174t-77 -214.5t-46 -237t-16 -243z" />
<glyph unicode="1" horiz-adv-x="673" d="M39 0l4 20h225l244 1389l-322 -248l-14 17l336 256h27l-248 -1414h203l-5 -20h-450z" />
<glyph unicode="2" horiz-adv-x="985" d="M2 0l2 12q18 107 78.5 207.5t142.5 180t177.5 155.5t187.5 147t167 140.5t121 149t46 161.5q0 119 -79 200t-210 81q-132 0 -242 -88.5t-164 -219.5l-20 7q58 141 172.5 231t255.5 90q138 0 223.5 -86.5t85.5 -212.5q0 -67 -28 -132.5t-77 -122t-112 -113t-134.5 -111.5 t-144 -111t-142 -118t-126 -126t-97.5 -142t-56 -159h714l56 322h20l-59 -342h-758z" />
<glyph unicode="3" horiz-adv-x="960" d="M8 276l23 7q24 -125 107.5 -204t207.5 -79q187 0 320 134.5t133 322.5q0 144 -108 233.5t-290 89.5h-32l4 21q216 30 348.5 130.5t132.5 248.5q0 107 -72.5 180.5t-197.5 73.5q-103 0 -198 -63t-157 -163l-20 11q68 105 166 170t215 65q128 0 207.5 -79.5t79.5 -192.5 q0 -103 -64 -188t-170 -135.5t-235 -63.5q186 6 299.5 -91t113.5 -247q0 -95 -37 -182.5t-99.5 -152.5t-151.5 -103.5t-187 -38.5q-133 0 -222.5 83.5t-115.5 212.5z" />
<glyph unicode="4" horiz-adv-x="1054" d="M47 465l2 12l844 965h16l-168 -959h215l-4 -18h-215l-78 -447h213l-4 -18h-475l4 18h242l78 447h-670zM80 483h641l162 918z" />
<glyph unicode="5" horiz-adv-x="1048" d="M74 270l22 6q26 -122 107.5 -199t226.5 -77q130 0 238 71.5t167.5 188.5t59.5 250q0 150 -93.5 249t-248.5 99q-80 0 -165 -36.5t-146 -86.5l-19 8l168 691h602l-45 -252h-20l41 233h-561l-162 -655q156 119 315 119q158 0 257.5 -106.5t99.5 -262.5q0 -141 -63 -262.5 t-176 -194.5t-249 -73q-151 0 -241 81.5t-115 208.5z" />
<glyph unicode="6" horiz-adv-x="1134" d="M178 373q0 120 18.5 245t53.5 246t89.5 227.5t122 187.5t156.5 128t187 47q78 0 152 -24.5t128 -63.5l-12 -18q-51 38 -124 62t-146 24q-147 0 -271.5 -114t-208.5 -318.5t-118 -473.5q52 158 174.5 257.5t277.5 99.5q148 0 239 -100.5t93 -252.5q2 -106 -31.5 -205.5 t-94 -176.5t-151.5 -123.5t-198 -46.5q-160 0 -248 106.5t-88 286.5zM199 367q0 -75 19.5 -140t57 -116.5t99 -81t139.5 -29.5q135 0 240.5 76.5t160 196.5t54.5 259q0 142 -87 237t-225 95q-88 0 -171 -38.5t-146.5 -104t-102 -158.5t-38.5 -196z" />
<glyph unicode="7" horiz-adv-x="870" d="M158 1120l55 314h797l-4 -21q-287 -302 -492 -663t-307 -750h-25q109 400 312 759.5t487 653.5h-752l-51 -293h-20z" />
<glyph unicode="8" horiz-adv-x="1136" d="M137 309q0 172 110 294t279 159q-93 19 -154 91t-61 189q0 171 119 291.5t293 120.5q140 0 223.5 -78.5t83.5 -204.5q0 -153 -99 -268t-241 -145q112 -13 189 -90.5t77 -208.5q0 -130 -60 -239.5t-169 -174.5t-244 -65q-161 0 -253.5 93t-92.5 236zM160 311 q0 -136 86 -223.5t239 -87.5q192 0 320.5 134.5t128.5 324.5q0 134 -88.5 212.5t-235.5 78.5q-90 0 -173.5 -35.5t-144 -95t-96.5 -140.5t-36 -168zM334 1042q0 -123 74.5 -198.5t203.5 -75.5q105 0 197.5 57.5t145.5 150t53 193.5q0 119 -77.5 192t-209.5 73 q-163 0 -275 -115t-112 -277z" />
<glyph unicode="9" horiz-adv-x="1105" d="M111 78l14 18q42 -41 115.5 -68.5t148.5 -27.5q118 0 222.5 78t179 209.5t123 303t63.5 359.5q-46 -157 -159.5 -260.5t-280.5 -103.5q-143 0 -228.5 96t-85.5 242q0 105 33.5 201.5t93 169t146.5 116t188 43.5q145 0 232.5 -98.5t87.5 -255.5q0 -212 -44 -413.5 t-122 -358.5t-195 -252.5t-252 -95.5q-83 0 -159 28t-121 70zM246 926q0 -140 79.5 -230t219.5 -90q122 0 223.5 72.5t157 187t55.5 240.5q0 140 -81 234t-216 94q-127 0 -228.5 -71.5t-155.5 -187t-54 -249.5z" />
<glyph unicode=":" horiz-adv-x="403" d="M59 49q0 24 19 43t43 19q25 0 43 -18.5t18 -43.5t-18 -43t-43 -18q-24 0 -43 18.5t-19 42.5zM215 930q0 24 18.5 42.5t42.5 18.5q25 0 43.5 -18t18.5 -43t-18.5 -43.5t-43.5 -18.5q-24 0 -42.5 19t-18.5 43z" />
<glyph unicode=";" horiz-adv-x="397" d="M-6 -152q78 75 78 158q0 41 -27 76l74 35q26 -37 26 -80q0 -90 -139 -203zM209 930q0 24 18.5 42.5t42.5 18.5q25 0 43.5 -18t18.5 -43t-18.5 -43.5t-43.5 -18.5q-24 0 -42.5 19t-18.5 43z" />
<glyph unicode="&#x3c;" horiz-adv-x="1124" d="M158 631v20l805 373v-23l-783 -360l783 -360v-23z" />
<glyph unicode="=" horiz-adv-x="1179" d="M168 453v18h887v-18h-887zM168 791v18h887v-18h-887z" />
<glyph unicode="&#x3e;" horiz-adv-x="1124" d="M211 260v23l782 360l-782 361v22l805 -373v-20z" />
<glyph unicode="?" horiz-adv-x="755" d="M129 1241q58 105 151.5 176.5t211.5 71.5q136 0 223.5 -91t87.5 -218q0 -68 -25.5 -131t-67 -113t-92.5 -98t-104 -95t-99 -93.5t-80 -102.5t-44 -115l-21 -115h-20l20 117q11 62 45 120.5t79 105t98 93t103 93t91.5 95.5t66.5 110t25 127q0 121 -79.5 205.5t-209.5 84.5 q-108 0 -197 -69t-142 -168zM160 45q0 25 15 41t40 16q26 0 42.5 -16t16.5 -41t-16.5 -41t-42.5 -16q-25 0 -40 16t-15 41z" />
<glyph unicode="@" horiz-adv-x="1873" d="M166 389q0 190 72.5 366.5t195 306t292.5 207t357 77.5q148 0 271.5 -49t205 -133.5t126.5 -196.5t45 -238q0 -98 -27.5 -198t-75.5 -180.5t-119 -131.5t-151 -51q-92 0 -133.5 67.5t-20.5 176.5q-48 -106 -137 -175t-207 -69q-113 0 -184.5 82.5t-71.5 210.5 q0 115 50 214.5t138 158.5t193 59q112 0 179.5 -66t80.5 -168l39 222h23l-82 -465q-6 -37 -6 -68q0 -76 36.5 -118t104.5 -42q75 0 141.5 49.5t110.5 128t70 173.5t26 188q0 123 -43 231.5t-122 190t-199 129t-265 47.5q-121 0 -236.5 -35t-213 -96.5t-180 -148.5 t-140 -189.5t-89.5 -221.5t-32 -241q0 -182 73 -324.5t212 -223.5t324 -81q99 0 207.5 28.5t191.5 74.5l10 -21q-82 -46 -194.5 -74t-218.5 -28q-188 0 -331.5 83.5t-219.5 229.5t-76 332zM627 463q0 -122 65 -198.5t174 -76.5q102 0 187.5 64t131.5 160.5t46 197.5 q0 122 -69 192t-177 70q-151 0 -254.5 -121.5t-103.5 -287.5z" />
<glyph unicode="A" horiz-adv-x="1396" d="M-82 0l4 20h174l750 1418h28l252 -1418h177l-5 -20h-413l4 20h213l-86 508h-627l-268 -508h215l-4 -20h-414zM399 549h611l-152 868z" />
<glyph unicode="B" horiz-adv-x="1196" d="M18 0l5 20h188l244 1393h-189l4 21h475q143 0 235.5 -77.5t92.5 -203.5q0 -138 -92.5 -248t-224.5 -137q116 -21 196 -101t80 -210q0 -125 -59.5 -229.5t-166.5 -166t-237 -61.5h-551zM233 20h332q191 0 317 126.5t126 308.5q0 134 -94.5 216.5t-239.5 82.5h-312z M367 776h309q103 0 190 56t135 142t48 177q0 118 -85 190t-225 72h-260z" />
<glyph unicode="C" horiz-adv-x="1382" d="M180 580q0 140 37.5 272t106.5 240t161 190t208 127t241 45q215 0 436 -100l-55 -318h-23l54 301q-200 93 -410 93q-203 0 -371.5 -116t-264 -311t-95.5 -423q0 -120 31.5 -223.5t91.5 -182.5t155 -124.5t215 -45.5q155 0 296 88t229 238l20 -13q-91 -154 -239 -245.5 t-310 -91.5q-123 0 -221.5 47.5t-162 130.5t-97 191t-33.5 231z" />
<glyph unicode="D" horiz-adv-x="1417" d="M18 0l5 20h188l248 1414h266q126 0 234.5 -37.5t187.5 -106.5t124.5 -173t45.5 -230q0 -139 -37 -271t-108.5 -243t-168.5 -195t-224 -131t-269 -47h-492zM231 20h267q141 0 267 45.5t221 127t164.5 190t105.5 237.5t36 267q0 245 -159.5 385.5t-423.5 140.5h-232z M266 1413l4 21h189l-4 -21h-189z" />
<glyph unicode="E" horiz-adv-x="1126" d="M16 0l4 20h189l246 1393h-189l4 21h828l-56 -322h-22l51 301h-594l-117 -655h529l-4 -21h-527l-127 -717h615l55 322h23l-60 -342h-848z" />
<glyph unicode="F" horiz-adv-x="1087" d="M16 0l4 20h189l246 1393h-189l4 21h848l-55 -322h-23l52 301h-615l-121 -686h545l-4 -20h-545l-121 -687h230l-4 -20h-441z" />
<glyph unicode="G" horiz-adv-x="1486" d="M180 586q0 173 58.5 331.5t159 277t244.5 189t306 70.5q231 0 475 -98l-51 -289h-22l49 272q-223 91 -449 91q-161 0 -301.5 -69.5t-236.5 -185.5t-151.5 -269.5t-55.5 -319.5q0 -121 32 -226t92 -184.5t153.5 -125.5t209.5 -46q207 0 374 161t234 431h-407l4 22h432 l-108 -618h-23l84 475q-80 -225 -240.5 -360t-353.5 -135q-157 0 -274 83t-175.5 219t-58.5 304z" />
<glyph unicode="H" horiz-adv-x="1544" d="M18 0l5 20h188l244 1393h-189l4 21h400l-4 -21h-189l-117 -670h908l116 670h-188l4 21h399l-4 -21h-188l-244 -1393h189l-4 -20h-400l4 20h189l123 703h-908l-123 -703h189l-4 -20h-400z" />
<glyph unicode="I" horiz-adv-x="612" d="M16 0l4 20h189l246 1393h-189l4 21h400l-4 -21h-189l-246 -1393h189l-4 -20h-400z" />
<glyph unicode="J" horiz-adv-x="643" d="M-156 -168l11 23q60 -31 133 -31q102 0 181.5 71t102.5 195l234 1323h-234l4 21h445l-4 -21h-189l-235 -1331q-23 -130 -109.5 -206.5t-195.5 -76.5q-68 0 -144 33z" />
<glyph unicode="K" horiz-adv-x="1249" d="M18 0l5 20h188l244 1393h-189l4 21h396l-4 -21h-185l-117 -661l809 661h-196l4 21h403l-4 -21h-176l-823 -676l598 -717h188l-4 -20h-414l5 20h196l-590 707l-123 -707h189l-4 -20h-400z" />
<glyph unicode="L" horiz-adv-x="1064" d="M16 0l4 20h189l246 1393h-189l4 21h412l-4 -21h-201l-246 -1393h615l59 342h23l-64 -362h-848z" />
<glyph unicode="M" horiz-adv-x="1855" d="M18 0l5 20h186l246 1393h-189l4 21h219l388 -1215l817 1215h217l-4 -21h-189l-243 -1393h188l-4 -20h-399l4 20h188l244 1381l-811 -1208h-23l-387 1210l-244 -1383h189l-4 -20h-398z" />
<glyph unicode="N" horiz-adv-x="1546" d="M18 0l5 20h188l244 1393h-189l4 21h213l680 -1399l242 1378h-188l4 21h399l-4 -21h-189l-247 -1413h-25l-680 1397l-242 -1377h189l-4 -20h-400z" />
<glyph unicode="O" horiz-adv-x="1574" d="M178 569q0 174 59.5 336.5t160.5 283t244.5 193t303.5 72.5q241 0 385 -158t144 -411q0 -171 -61 -335.5t-163 -290t-247.5 -202.5t-303.5 -77q-240 0 -381 164t-141 425zM201 569q0 -163 58 -290t172.5 -201t270.5 -74q124 0 240 49t207 134.5t159.5 196t105 239.5 t36.5 260q0 244 -135.5 395.5t-370.5 151.5q-124 0 -239.5 -46t-205.5 -127.5t-158 -189t-104 -236t-36 -262.5z" />
<glyph unicode="P" horiz-adv-x="1120" d="M16 0l4 20h189l246 1393h-189l4 21h490q145 0 241.5 -87t96.5 -227q0 -195 -132.5 -331t-324.5 -136h-299l-111 -633h230l-4 -20h-441zM346 674h295q183 0 307.5 130.5t124.5 313.5q0 134 -89 214.5t-234 80.5h-273z" />
<glyph unicode="Q" horiz-adv-x="1574" d="M178 569q0 174 59.5 336.5t160.5 283t244.5 193t303.5 72.5q241 0 385 -158t144 -411q0 -171 -61 -335.5t-163 -290t-247.5 -202.5t-303.5 -77h-32l-97 -154q138 -88 301 -88q112 0 218 50.5t192 139.5l16 -16q-90 -92 -200 -144.5t-221 -52.5q-88 0 -172 26.5t-144 70.5 q-24 -39 -45 -39q-15 0 -26 11t-11 28t11.5 27.5t27.5 10.5q19 0 35 -12l92 144q-217 20 -342 181t-125 406zM201 569q0 -163 58 -290t172.5 -201t270.5 -74q124 0 240 49t207 134.5t159.5 196t105 239.5t36.5 260q0 244 -135.5 395.5t-370.5 151.5q-124 0 -239.5 -46 t-205.5 -127.5t-158 -189t-104 -236t-36 -262.5z" />
<glyph unicode="R" horiz-adv-x="1218" d="M18 0l5 20h188l244 1393h-189l4 21h482q147 0 241 -80.5t94 -214.5q0 -186 -137.5 -313.5t-335.5 -127.5l316 -678h203l-5 -20h-215l-319 696h-242l-119 -676h218l-5 -20h-428zM356 717h254q122 0 226 54.5t165.5 151.5t61.5 214q0 129 -87.5 202.5t-232.5 73.5h-266z " />
<glyph unicode="S" horiz-adv-x="1030" d="M66 61l53 308h22l-51 -291q162 -74 344 -74q168 0 286 114.5t118 278.5q0 68 -32 126.5t-83 101t-112.5 81.5t-123 78.5t-112.5 82.5t-83 102t-32 129q0 156 109.5 256t267.5 100q154 0 340 -72l-53 -301h-23l51 285q-159 64 -313 64q-152 0 -253 -92.5t-101 -239.5 q0 -59 25 -110t65.5 -88t92 -74.5t106 -68t106 -69t92 -78t65.5 -94t25 -117.5q0 -174 -126 -296.5t-302 -122.5q-187 0 -368 81z" />
<glyph unicode="T" horiz-adv-x="1161" d="M174 1079l64 355h1013l-63 -355h-23l60 334h-473l-246 -1393h213l-4 -20h-449l4 20h213l246 1393h-473l-59 -334h-23z" />
<glyph unicode="U" horiz-adv-x="1474" d="M242 1413l4 21h407l-4 -21h-196l-166 -942q-11 -61 -11 -102q0 -164 100 -264.5t286 -100.5q208 0 342.5 126t169.5 329l167 954h-196l4 21h407l-4 -21h-188l-168 -956q-37 -212 -178 -344.5t-359 -132.5q-192 0 -298.5 106.5t-106.5 275.5q0 46 10 111l166 940h-188z " />
<glyph unicode="V" horiz-adv-x="1353" d="M168 1413l4 21h422l-4 -21h-223l223 -1395l717 1395h-222l5 21h419l-4 -21h-174l-729 -1417h-31l-227 1417h-176z" />
<glyph unicode="W" horiz-adv-x="2056" d="M168 1413l4 21h428l-4 -21h-231l141 -1395l668 1416h26l162 -1416l647 1395h-231l4 21h430l-4 -21h-174l-660 -1417h-31l-161 1407l-664 -1407h-31l-145 1417h-174z" />
<glyph unicode="X" horiz-adv-x="1263" d="M-82 0l4 20h180l560 719l-283 674h-180l4 21h397l-4 -21h-193l277 -659l514 659h-193l5 21h399l-4 -21h-180l-531 -682l299 -711h180l-4 -20h-417l4 20h213l-293 697l-543 -697h213l-4 -20h-420z" />
<glyph unicode="Y" horiz-adv-x="1261" d="M168 1413l4 21h406l-5 -21h-208l288 -756l564 756h-211l4 21h407l-4 -21h-170l-581 -782l-107 -611h209l-4 -20h-441l5 20h208l107 611l-299 782h-172z" />
<glyph unicode="Z" horiz-adv-x="1132" d="M31 0l2 16l1097 1397h-780l-57 -334h-23l62 355h831l-2 -17l-1095 -1397h839l62 353h22l-65 -373h-893z" />
<glyph unicode="[" horiz-adv-x="495" d="M76 -250l311 1770h213l-4 -19h-190l-308 -1732h195l-4 -19h-213z" />
<glyph unicode="\" horiz-adv-x="643" d="M195 1536h22l309 -1757h-22z" />
<glyph unicode="]" horiz-adv-x="497" d="M-57 -250l4 19h190l307 1732h-194l4 19h213l-311 -1770h-213z" />
<glyph unicode="^" horiz-adv-x="919" d="M113 651l499 783h23l225 -783h-22l-217 756l-484 -756h-24z" />
<glyph unicode="_" horiz-adv-x="1138" d="M-57 -139l4 20h1024l-4 -20h-1024z" />
<glyph unicode="`" horiz-adv-x="378" d="M264 1442h29l92 -250h-23z" />
<glyph unicode="a" d="M150 408q0 163 68 307t184.5 230.5t250.5 86.5q86 0 157 -30t117 -81t72 -116t31 -139l62 346h20l-174 -994h188l-4 -18h-209l64 360q-30 -76 -75.5 -142t-106 -120.5t-140 -86t-168.5 -31.5q-96 0 -174.5 60.5t-120.5 158t-42 209.5zM172 408q0 -106 39 -199t112.5 -151 t165.5 -58q143 0 266.5 93t192 237t68.5 297q0 170 -101.5 277.5t-261.5 107.5q-128 0 -239.5 -84t-176.5 -223.5t-65 -296.5z" />
<glyph unicode="b" d="M180 0l258 1462h-188l4 19h209l-146 -822q28 73 72 137.5t104 118.5t139.5 85.5t168.5 31.5q153 0 249.5 -122t96.5 -300q0 -119 -40 -234t-107.5 -202t-163.5 -140.5t-201 -53.5q-84 0 -154 31.5t-115.5 84.5t-71.5 118.5t-30 137.5l-63 -352h-21zM279 393 q0 -169 99.5 -281t254.5 -112q101 0 193 51.5t156.5 135.5t103 195t38.5 226q0 172 -89 288t-238 116q-139 0 -260 -89t-189.5 -231.5t-68.5 -298.5z" />
<glyph unicode="c" horiz-adv-x="1112" d="M150 416q0 118 41.5 230.5t111 197.5t165.5 136.5t200 51.5q175 0 344 -98l-43 -244h-21l41 230q-157 92 -323 92q-131 0 -246 -85t-181.5 -222.5t-66.5 -288.5q0 -179 95 -297.5t251 -118.5q110 0 214.5 66.5t172.5 173.5l19 -13q-70 -111 -180 -179t-228 -68 q-163 0 -264.5 124t-101.5 312z" />
<glyph unicode="d" d="M150 408q0 163 68 307t184.5 230.5t250.5 86.5q170 0 269.5 -106t109.5 -260l137 796h-188l4 19h209l-2 -19h-2l-252 -1444h188l-4 -18h-209l64 360q-30 -76 -75.5 -142t-106 -120.5t-140 -86t-168.5 -31.5q-96 0 -174.5 60.5t-120.5 158t-42 209.5zM172 408 q0 -106 39 -199t112.5 -151t165.5 -58q143 0 266.5 93t192 237t68.5 297q0 170 -101.5 277.5t-261.5 107.5q-128 0 -239.5 -84t-176.5 -223.5t-65 -296.5z" />
<glyph unicode="e" horiz-adv-x="1177" d="M150 418q0 116 41.5 227.5t111.5 197t169.5 137.5t209.5 52q154 0 258 -104t104 -254q0 -65 -20 -137h-842q-10 -65 -10 -117q0 -177 96.5 -298.5t253.5 -121.5q115 0 229.5 62.5t194.5 164.5l17 -16q-84 -104 -202 -167.5t-241 -63.5q-164 0 -267 127t-103 311zM186 557 h820q16 59 16 117q0 139 -96 239q-96 99 -239 99h-3q-121 -1 -226.5 -64t-174.5 -165.5t-97 -225.5z" />
<glyph unicode="f" horiz-adv-x="655" d="M-131 -377l4 21q42 -11 84 -11q81 0 144.5 67.5t84.5 184.5l195 1108h-197l4 19h197l39 223q20 116 90.5 185t171.5 69q68 0 137 -27l-6 -20q-67 26 -129 26q-95 0 -160 -64.5t-84 -170.5l-38 -221h266l-4 -19h-267l-194 -1112q-23 -126 -90.5 -197t-159.5 -71 q-46 0 -88 10z" />
<glyph unicode="g" horiz-adv-x="1263" d="M100 -262l15 16q57 -57 140.5 -89t174.5 -32q78 0 156.5 25.5t147.5 74t119.5 126.5t66.5 174l57 327q-30 -76 -75.5 -142t-106 -120.5t-140 -86t-168.5 -31.5q-96 0 -174.5 60.5t-120.5 158t-42 209.5q0 163 68 307t184.5 230.5t250.5 86.5q170 0 269.5 -106t109.5 -260 l62 346h20l-172 -977q-14 -83 -51.5 -153t-88.5 -119t-114 -83.5t-130 -50.5t-134 -16q-91 0 -179.5 34.5t-144.5 90.5zM172 408q0 -106 39 -199t112.5 -151t165.5 -58q143 0 266.5 93t192 237t68.5 297q0 170 -101.5 277.5t-261.5 107.5q-128 0 -239.5 -84t-176.5 -223.5 t-65 -296.5z" />
<glyph unicode="h" horiz-adv-x="1277" d="M182 0l256 1462h-188l4 19h209l-129 -742q55 126 169.5 209.5t244.5 83.5q140 0 222.5 -75.5t82.5 -206.5q0 -38 -6 -82l-113 -650h188l-4 -18h-209l117 664q6 40 6 84q0 122 -76.5 193t-210.5 71q-147 0 -276 -117t-156 -266l-110 -629h-21z" />
<glyph unicode="i" horiz-adv-x="563" d="M168 993l4 19h209l-174 -994h188l-4 -18h-209l174 993h-188zM365 1313q0 22 13.5 36.5t35.5 14.5q23 0 38 -14.5t15 -36.5t-15 -36.5t-38 -14.5q-22 0 -35.5 14.5t-13.5 36.5z" />
<glyph unicode="j" horiz-adv-x="579" d="M-131 -377l4 21q42 -11 84 -11q81 0 144.5 67.5t84.5 184.5l197 1108h-188l4 19h209l-201 -1131q-23 -126 -90.5 -197t-159.5 -71q-46 0 -88 10zM381 1313q0 21 15 36t36 15q22 0 36.5 -14.5t14.5 -36.5t-14.5 -36.5t-36.5 -14.5q-21 0 -36 15t-15 36z" />
<glyph unicode="k" horiz-adv-x="1034" d="M182 0l256 1462h-188l4 19h209l-160 -899q201 46 364 159.5t236 270.5h23q-81 -168 -240 -282t-364 -163l440 -549h186l-4 -18h-194l-449 561l-98 -561h-21z" />
<glyph unicode="l" horiz-adv-x="563" d="M182 0l256 1462h-188l4 19h209l-256 -1463h188l-4 -18h-209z" />
<glyph unicode="m" horiz-adv-x="1890" d="M168 993l4 19h207l-49 -279q56 131 167 215t230 84q120 0 194.5 -73.5t79.5 -186.5q52 115 161.5 187.5t228.5 72.5q123 0 200.5 -77t77.5 -203q0 -32 -8 -82l-115 -652h189l-4 -18h-209l118 670q9 56 9 78q0 119 -70.5 191.5t-187.5 72.5q-129 0 -251 -94.5t-145 -219.5 l-123 -698h-20l123 700q6 30 6 58q0 111 -70 182.5t-186 71.5q-86 0 -175 -52.5t-155 -142t-84 -190.5l-110 -627h-21l174 993h-186z" />
<glyph unicode="n" horiz-adv-x="1277" d="M168 993l4 19h209l-47 -273q55 126 169.5 209.5t244.5 83.5q140 0 222.5 -75.5t82.5 -206.5q0 -38 -6 -82l-113 -650h188l-4 -18h-209l117 664q6 40 6 84q0 122 -76.5 193t-210.5 71q-147 0 -276 -117t-156 -266l-110 -629h-21l174 993h-188z" />
<glyph unicode="o" horiz-adv-x="1212" d="M150 418q0 118 41 230t110.5 196.5t169 136t209.5 51.5q169 0 277 -119t108 -307q0 -160 -70.5 -304t-193.5 -233t-266 -89q-172 0 -278.5 123.5t-106.5 314.5zM172 418q0 -183 99.5 -300.5t263.5 -117.5q137 0 255 87t185 226.5t67 292.5q0 182 -101.5 294t-260.5 112 q-140 0 -258 -84t-184 -220t-66 -290z" />
<glyph unicode="p" horiz-adv-x="1296" d="M115 -383l241 1376h-188l4 19h209l-62 -353q28 73 72 137.5t104 118.5t139.5 85.5t168.5 31.5q153 0 249.5 -122t96.5 -300q0 -119 -40 -234t-107.5 -202t-163.5 -140.5t-201 -53.5q-84 0 -154.5 32t-116 85t-72 119t-30.5 138l-129 -737h-20zM281 393q0 -170 100 -281.5 t254 -111.5q101 0 193 51.5t156.5 135.5t103 195t38.5 226q0 172 -89 288t-238 116q-139 0 -260 -89t-189.5 -231.5t-68.5 -298.5z" />
<glyph unicode="q" horiz-adv-x="1261" d="M150 408q0 163 68 307t184.5 230.5t250.5 86.5q170 0 269.5 -105t107.5 -259l62 344h20l-246 -1395h-20l131 743q-30 -76 -75.5 -142t-106 -120.5t-140 -86t-168.5 -31.5q-96 0 -174.5 60.5t-120.5 158t-42 209.5zM172 408q0 -106 39 -199t112.5 -151t165.5 -58 q143 0 266.5 93t192 237t68.5 297q0 170 -101.5 277.5t-261.5 107.5q-128 0 -239.5 -84t-176.5 -223.5t-65 -296.5z" />
<glyph unicode="r" horiz-adv-x="792" d="M168 993l4 19h209l-53 -307q53 140 155 233.5t215 93.5q65 0 117 -22l-14 -25q-52 25 -107 25q-86 0 -170.5 -64t-142 -162.5t-76.5 -203.5l-102 -580h-21l174 993h-188z" />
<glyph unicode="s" horiz-adv-x="974" d="M88 47l47 256h21l-45 -240q146 -63 319 -63q131 0 227.5 79.5t96.5 203.5q0 55 -29.5 99.5t-76 75t-103.5 57t-113.5 51.5t-103 53t-76 68.5t-29.5 90.5q0 115 93.5 184.5t220.5 69.5q159 0 301 -63l-37 -213h-21l35 198q-129 58 -276 58q-119 0 -206 -64t-87 -168 q0 -40 23 -74.5t60 -58.5t84.5 -48t97.5 -44.5t97.5 -47.5t84.5 -55.5t60 -71t23 -93.5q0 -133 -102.5 -220t-245.5 -87q-172 0 -340 67z" />
<glyph unicode="t" horiz-adv-x="649" d="M156 993l4 19h188l43 243h21l-43 -243h258l-4 -19h-256l-134 -755q-6 -30 -6 -62q0 -75 40 -117.5t110 -42.5q51 0 115 25l6 -21q-63 -24 -125 -24q-75 0 -120.5 47t-45.5 133q0 32 6 66l133 751h-190z" />
<glyph unicode="u" horiz-adv-x="1247" d="M156 993l4 19h209l-119 -662q-8 -54 -8 -86q0 -118 72 -191t196 -73q89 0 184 64t159.5 155.5t80.5 175.5l110 617h21l-176 -994h190l-4 -18h-211l51 291q-63 -125 -173.5 -218t-235.5 -93q-129 0 -207 78.5t-78 201.5q0 36 8 86l115 647h-188z" />
<glyph unicode="v" horiz-adv-x="1048" d="M49 993l4 19h189l125 -994q120 101 217 205.5t175 219.5t120.5 238.5t42.5 244.5q0 21 -4 67h-187l4 19h201q8 -50 8 -86q0 -161 -77.5 -329.5t-202 -314.5t-297.5 -290h-17l-127 1001h-174z" />
<glyph unicode="w" horiz-adv-x="1671" d="M49 993l4 19h191l129 -996q220 225 364 469t144 428v11l-13 88h23l131 -996q522 508 522 904q0 23 -4 73h-184l2 19h201q8 -54 8 -92q0 -406 -543 -928h-18l-115 852q-26 -195 -164 -414t-352 -438h-19l-133 1001h-174z" />
<glyph unicode="x" horiz-adv-x="1040" d="M41 0l2 12l473 523l-215 458h-149l4 19h159l217 -465l408 446h-192l4 19h221l-2 -13l-430 -473l237 -508h156l-4 -18h-166l-240 516l-450 -498h207l-5 -18h-235z" />
<glyph unicode="y" horiz-adv-x="1060" d="M-121 -369l6 21q59 -19 109 -19q76 0 203 92.5t264 249.5l-248 1018h-162l2 19h178l246 -1018q201 249 329 496.5t128 431.5q0 21 -4 71h-178l4 19h192q8 -36 8 -99q0 -104 -50.5 -245.5t-131.5 -283t-186 -282t-210.5 -248t-208.5 -174.5t-177 -67q-54 0 -113 18z" />
<glyph unicode="z" horiz-adv-x="1044" d="M59 0l2 14l875 979h-651l-41 -237h-21l45 256h699l-2 -15l-873 -979h699l49 283h20l-53 -301h-748z" />
<glyph unicode="{" horiz-adv-x="489" d="M106 637l5 33q73 12 118.5 67t65.5 162l76 430q15 90 72.5 141.5t150.5 51.5l-4 -21q-81 0 -134 -47.5t-65 -122.5l-76 -436q-38 -220 -192 -242q115 -18 115 -159q0 -36 -9 -82l-82 -471q-4 -24 -4 -39q0 -62 36 -97.5t106 -35.5l-4 -21q-78 0 -118 41.5t-40 108.5 q0 13 4 45l82 465q8 41 8 84q0 130 -111 145z" />
<glyph unicode="|" horiz-adv-x="612" d="M328 -391v1964h20v-1964h-20z" />
<glyph unicode="}" horiz-adv-x="489" d="M-59 -252l4 21q81 0 133.5 47.5t64.5 122.5l76 436q38 219 193 241q-115 18 -115 160q0 41 8 82l82 471q4 24 4 39q0 62 -35.5 97.5t-105.5 35.5l4 21q78 0 118 -41.5t40 -108.5q0 -13 -4 -45l-82 -465q-9 -46 -9 -84q0 -130 111 -145l-4 -33q-73 -12 -118.5 -67 t-65.5 -162l-76 -430q-15 -90 -72.5 -141.5t-150.5 -51.5z" />
<glyph unicode="~" horiz-adv-x="989" d="M92 514q34 94 93.5 150.5t138.5 56.5q41 0 82.5 -19.5t76 -47.5t69 -55.5t76 -47t83.5 -19.5q65 0 119 52t85 133h21q-34 -94 -93 -150.5t-138 -56.5q-41 0 -82.5 19.5t-76 47t-69.5 55t-76.5 47t-83.5 19.5q-65 0 -119 -51.5t-85 -132.5h-21z" />
<glyph unicode="&#xa1;" horiz-adv-x="485" d="M76 -383l209 1169h20l-207 -1169h-22zM283 1053q0 25 16 41t41 16t41 -16t16 -41t-16 -41.5t-41 -16.5t-41 16.5t-16 41.5z" />
<glyph unicode="&#xa2;" horiz-adv-x="1093" d="M186 618q0 117 41 229.5t110 197t164.5 137t198.5 53.5l33 199h21l-35 -199q171 -6 330 -98l-43 -244h-21l41 229q-157 92 -324 92q-131 0 -246 -85t-181 -222.5t-66 -288.5q0 -179 95 -297t251 -118q110 0 214.5 66t172.5 173l19 -12q-71 -111 -180.5 -179.5 t-227.5 -68.5h-18l-37 -202h-21l37 204q-147 15 -237.5 137t-90.5 297z" />
<glyph unicode="&#xa3;" horiz-adv-x="1093" d="M98 0l2 18q132 153 213.5 327.5t81.5 338.5q0 29 -2 43h-213l4 18h209q-2 37 -13 146.5t-11 159.5q0 169 109 286t270 117q160 0 335 -74l-51 -293h-20l49 277q-160 70 -311 70q-152 0 -255.5 -111.5t-103.5 -271.5q0 -49 11.5 -158t13.5 -148h303l-4 -18h-297v-41 q0 -166 -81 -343t-208 -323h717l55 320h21l-60 -340h-764z" />
<glyph unicode="&#xa5;" horiz-adv-x="1212" d="M143 1413l4 21h406l-4 -21h-209l289 -760l563 760h-211l4 21h408l-4 -21h-170l-568 -762h326l-2 -20h-338l-33 -185h338l-4 -20h-338l-70 -406h209l-4 -20h-440l4 20h209l70 406h-338l4 20h338l32 185h-338l3 20h327l-291 762h-172z" />
<glyph unicode="&#xa7;" horiz-adv-x="1083" d="M203 637q0 102 65.5 174t171.5 104q-82 53 -128 120t-46 163q0 122 81 206.5t202 84.5q117 0 199 -73.5t110 -184.5v248h21v-322h-17q-33 154 -114 232.5t-197 78.5q-113 0 -188.5 -77.5t-75.5 -192.5q0 -61 21.5 -111.5t58.5 -86.5t84.5 -67.5t100.5 -58.5t105.5 -54.5 t100 -60t84.5 -70.5t58.5 -90.5t21.5 -115.5q0 -104 -59.5 -176t-160.5 -106q168 -110 168 -281q0 -139 -79 -223t-207 -84q-125 0 -213.5 78.5t-112.5 195.5v-264h-20v344h16q27 -160 115 -247t209 -87q122 0 197 77.5t75 209.5q0 165 -174 273h-2v2q-39 25 -101 56.5 t-108 54.5t-98 58t-85.5 70.5t-56 88t-22.5 114.5zM223 639q0 -59 21.5 -109.5t54 -84.5t83.5 -67.5t96 -56t105 -53.5t99 -55q99 32 159 102.5t60 165.5q0 59 -20.5 108.5t-51 83.5t-80 68t-91.5 55.5t-102 52.5t-97 54q-104 -29 -170 -99t-66 -165z" />
<glyph unicode="&#xa8;" horiz-adv-x="694" d="M276 1321q0 22 14 36.5t36 14.5q23 0 38 -14.5t15 -36.5t-15 -36.5t-38 -14.5q-22 0 -36 14.5t-14 36.5zM604 1321q0 22 13.5 36.5t35.5 14.5q23 0 38.5 -14.5t15.5 -36.5t-15.5 -36.5t-38.5 -14.5q-22 0 -35.5 14.5t-13.5 36.5z" />
<glyph unicode="&#xa9;" horiz-adv-x="1734" d="M186 727q0 205 92.5 371t257 261t369.5 95t369.5 -95t257 -261t92.5 -371q0 -210 -90 -380t-255 -268.5t-374 -98.5t-374 98.5t-255 268.5t-90 380zM209 727q0 -206 86.5 -371t246 -259.5t363.5 -94.5q153 0 284 55.5t221 151.5t141 230t51 288q0 200 -88.5 360.5 t-248 252.5t-360.5 92t-360.5 -92t-247.5 -252.5t-88 -360.5zM565 729q0 155 97 256.5t235 101.5q94 0 161 -48.5t99 -131.5v162h21v-201h-21q-34 93 -98 146t-156 53q-135 0 -225 -95t-90 -243q0 -157 92 -258.5t238 -101.5q78 0 147.5 41t112.5 102l18 -12 q-45 -66 -120 -109t-161 -43q-152 0 -251 107.5t-99 273.5z" />
<glyph unicode="&#xaa;" horiz-adv-x="892" d="M188 1001q0 115 49 217.5t134 165t182 62.5q112 0 184 -71t80 -177l41 236h21l-125 -713h129l-4 -19h-150l43 240q-48 -110 -133.5 -184t-206.5 -74q-104 0 -174 95t-70 222zM211 1001q0 -118 63 -207t158 -89q103 0 190.5 67.5t135 170.5t47.5 212q0 119 -71 194.5 t-181 75.5q-138 0 -240 -127.5t-102 -296.5z" />
<glyph unicode="&#xab;" horiz-adv-x="741" d="M104 588l338 356h25l-338 -360l209 -351h-23zM360 567l357 377h24l-356 -381l195 -330h-23z" />
<glyph unicode="&#xad;" horiz-adv-x="681" d="M104 586l5 22h501l-4 -22h-502z" />
<glyph unicode="&#xae;" horiz-adv-x="978" d="M213 1120q0 162 106 270.5t279 108.5t279 -108.5t106 -270.5t-107 -274.5t-278 -112.5q-173 0 -279 112t-106 275zM236 1120q0 -154 99 -260t263 -106t263.5 106t99.5 260t-99 256.5t-264 102.5t-263.5 -102.5t-98.5 -256.5zM451 1303v18h151q47 0 79 -28t32 -72 q0 -41 -25.5 -71t-62.5 -36l98 -162h61v-18h-75l-105 178h-84v-160h53v-18h-120v18h47v351h-49zM520 1130h80q39 0 64.5 24.5t25.5 64.5q0 38 -25.5 61t-64.5 23h-80v-173z" />
<glyph unicode="&#xaf;" horiz-adv-x="770" d="M270 1300l4 19h508l-4 -19h-508z" />
<glyph unicode="&#xb0;" horiz-adv-x="647" d="M201 1202q0 108 67.5 180t175.5 72q109 0 178.5 -72.5t69.5 -179.5q0 -111 -68.5 -185.5t-177.5 -74.5q-108 0 -176.5 74.5t-68.5 185.5zM223 1202q0 -103 61.5 -171t161.5 -68t162 68t62 171q0 100 -63 166t-163 66q-99 0 -160 -66t-61 -166z" />
<glyph unicode="&#xb2;" horiz-adv-x="704" d="M143 664l2 10q16 80 72.5 153t125.5 127t135.5 104t111.5 106t45 112q0 63 -44 104t-108 41q-69 0 -125 -46t-88 -115l-20 8q37 77 96.5 125.5t136.5 48.5q72 0 123 -47t51 -119q0 -43 -23.5 -85.5t-62.5 -79.5t-87 -74t-98 -77t-94 -81t-78 -92t-46 -105h385l27 156h20 l-31 -174h-426z" />
<glyph unicode="&#xb3;" horiz-adv-x="698" d="M158 821l20 6q39 -151 180 -151q98 0 166 68.5t68 164.5q0 76 -57 123t-154 47h-27l4 23q49 8 91 20.5t84.5 33.5t67 55.5t24.5 78.5q0 62 -40.5 96.5t-99.5 34.5q-111 0 -200 -123l-19 13q91 131 219 131q65 0 113.5 -40.5t48.5 -111.5q0 -83 -75.5 -133t-184.5 -63 q107 1 167 -51t60 -134q0 -105 -75 -179.5t-183 -74.5q-79 0 -130.5 46t-67.5 120z" />
<glyph unicode="&#xb4;" horiz-adv-x="382" d="M236 1192l182 250h33l-189 -250h-26z" />
<glyph unicode="&#xb6;" horiz-adv-x="1150" d="M174 1071q0 151 106 257t257 106h520v-19h-211v-1497h-21v1497h-262v-1497h-20v789q-155 2 -262 107t-107 257z" />
<glyph unicode="&#xb7;" horiz-adv-x="428" d="M170 602q0 24 19 43t42 19q25 0 43.5 -18.5t18.5 -43.5t-18.5 -43t-43.5 -18q-24 0 -42.5 18.5t-18.5 42.5z" />
<glyph unicode="&#xb8;" horiz-adv-x="499" d="M-20 -358l8 20q37 -22 75 -22q63 0 106.5 35t43.5 89q0 43 -34 69t-85 26q-15 0 -31 -4l54 145h20l-43 -121q61 0 101.5 -30.5t40.5 -84.5q0 -64 -50 -104.5t-125 -40.5q-43 0 -81 23z" />
<glyph unicode="&#xb9;" horiz-adv-x="649" d="M178 664l4 18h162l129 723l-209 -135l-12 16l227 148h19l-133 -752h155l-4 -18h-338z" />
<glyph unicode="&#xba;" horiz-adv-x="858" d="M190 1004q0 116 49 216.5t141.5 163t207.5 62.5q124 0 202 -87.5t78 -217.5q0 -116 -50.5 -221t-142.5 -170.5t-202 -65.5q-126 0 -204.5 93t-78.5 227zM213 1004q0 -126 70.5 -212.5t187.5 -86.5q106 0 193.5 63.5t134.5 162.5t47 208q0 124 -71.5 205t-190.5 81 q-108 0 -194 -60t-131.5 -155.5t-45.5 -205.5z" />
<glyph unicode="&#xbb;" horiz-adv-x="743" d="M31 233l356 381l-194 330h22l197 -334l-357 -377h-24zM305 233l338 361l-209 350h23l211 -354l-338 -357h-25z" />
<glyph unicode="&#xbc;" horiz-adv-x="1630" d="M199 664l4 18h162l129 723l-209 -135l-13 16l228 148h18l-133 -752h156l-4 -18h-338zM225 -84l1114 1602h25l-1114 -1602h-25zM856 252l2 10l461 512h16l-88 -504h156l-4 -18h-156l-39 -234h156l-4 -18h-342l4 18h166l39 234h-367zM889 270h338l82 467z" />
<glyph unicode="&#xbd;" horiz-adv-x="1607" d="M199 664l4 18h162l129 723l-209 -135l-13 16l228 148h18l-133 -752h156l-4 -18h-338zM225 -84l1114 1602h25l-1114 -1602h-25zM907 0l2 10q16 80 72.5 153t125.5 127t135.5 104t111.5 106t45 112q0 64 -44 105t-108 41q-69 0 -125 -46.5t-88 -115.5l-20 8 q37 77 96.5 125.5t136.5 48.5q72 0 123 -47t51 -119q0 -43 -23.5 -85.5t-62.5 -79.5t-87 -74t-98 -77t-94 -81t-78 -92t-46 -105h385l26 156h21l-31 -174h-426z" />
<glyph unicode="&#xbe;" horiz-adv-x="1679" d="M158 821l20 6q39 -151 180 -151q98 0 166 68.5t68 164.5q0 76 -57 123t-154 47h-27l4 23q49 8 91 20.5t84.5 33.5t67 55.5t24.5 78.5q0 62 -40.5 96.5t-99.5 34.5q-111 0 -200 -123l-19 13q91 131 219 131q65 0 113.5 -40.5t48.5 -111.5q0 -83 -75.5 -133t-184.5 -63 q107 1 167 -51t60 -134q0 -105 -75 -179.5t-183 -74.5q-79 0 -130.5 46t-67.5 120zM274 -84l1115 1602h24l-1114 -1602h-25zM905 252l2 10l461 512h16l-88 -504h156l-4 -18h-156l-39 -234h156l-4 -18h-342l4 18h166l39 234h-367zM938 270h338l82 467z" />
<glyph unicode="&#xbf;" horiz-adv-x="755" d="M-31 -76q0 68 25.5 131t67 113t92.5 98t104 95t99 93.5t80 102.5t44 115l21 114h20l-20 -116q-11 -62 -45 -120.5t-79 -105t-98 -93t-103 -93t-91.5 -95.5t-66.5 -110t-25 -127q0 -121 79.5 -206t209.5 -85q108 0 197.5 69.5t142.5 168.5l20 -10q-58 -105 -151 -176.5 t-211 -71.5q-136 0 -224 91t-88 218zM498 1059q0 25 16.5 41t42.5 16q25 0 40 -16t15 -41t-15.5 -41.5t-39.5 -16.5q-26 0 -42.5 16.5t-16.5 41.5z" />
<glyph unicode="&#xc0;" horiz-adv-x="1396" d="M-82 0l4 20h174l750 1418h28l252 -1418h177l-5 -20h-413l4 20h213l-86 508h-627l-268 -508h215l-4 -20h-414zM399 549h611l-152 868zM788 1843h29l92 -250h-22z" />
<glyph unicode="&#xc1;" horiz-adv-x="1396" d="M-82 0l4 20h174l750 1418h28l252 -1418h177l-5 -20h-413l4 20h213l-86 508h-627l-268 -508h215l-4 -20h-414zM399 549h611l-152 868zM831 1593l183 250h33l-189 -250h-27z" />
<glyph unicode="&#xc2;" horiz-adv-x="1396" d="M-82 0l4 20h174l750 1418h28l252 -1418h177l-5 -20h-413l4 20h213l-86 508h-627l-268 -508h215l-4 -20h-414zM399 549h611l-152 868zM672 1593l231 244h33l149 -244h-28l-137 228l-215 -228h-33z" />
<glyph unicode="&#xc3;" horiz-adv-x="1396" d="M-82 0l4 20h174l750 1418h28l252 -1418h177l-5 -20h-413l4 20h213l-86 508h-627l-268 -508h215l-4 -20h-414zM399 549h611l-152 868zM627 1663q23 61 63.5 97t95.5 36q32 0 65.5 -17t57 -37t56 -37t63.5 -17q83 0 135 112h21q-23 -61 -64 -97t-96 -36q-33 0 -66.5 17 t-57 37.5t-55.5 37.5t-63 17q-83 0 -135 -113h-20z" />
<glyph unicode="&#xc4;" horiz-adv-x="1396" d="M-82 0l4 20h174l750 1418h28l252 -1418h177l-5 -20h-413l4 20h213l-86 508h-627l-268 -508h215l-4 -20h-414zM399 549h611l-152 868zM680 1722q0 22 14 37t35 15q23 0 38 -15t15 -37t-15 -36.5t-38 -14.5q-22 0 -35.5 14.5t-13.5 36.5zM1008 1722q0 22 14 37t35 15 q23 0 38 -15t15 -37t-15 -36.5t-38 -14.5q-22 0 -35.5 14.5t-13.5 36.5z" />
<glyph unicode="&#xc5;" horiz-adv-x="1396" d="M-82 0l4 20h174l750 1418h28l252 -1418h177l-5 -20h-413l4 20h213l-86 508h-627l-268 -508h215l-4 -20h-414zM399 549h611l-152 868zM766 1700q0 64 47 109.5t113 45.5q52 0 83 -31t31 -79q0 -68 -46 -114t-113 -46q-52 0 -83.5 32.5t-31.5 82.5zM786 1700q0 -42 26 -69 t69 -27q59 0 99 39.5t40 99.5q0 41 -25 67.5t-69 26.5q-58 0 -99 -40.5t-41 -96.5z" />
<glyph unicode="&#xc6;" horiz-adv-x="1792" d="M-111 0l5 20h167l1047 1414h655l-57 -330h-23l54 309h-594l-119 -676h547l-4 -20h-547l-123 -697h614l52 302h22l-55 -322h-856l4 20h196l123 697h-393l-516 -697h211l-4 -20h-406zM616 735h385l121 684z" />
<glyph unicode="&#xc7;" horiz-adv-x="1382" d="M180 580q0 140 37.5 272t106.5 240t161 190t208 127t241 45q215 0 436 -100l-55 -318h-23l54 301q-200 93 -410 93q-203 0 -371.5 -116t-264 -311t-95.5 -423q0 -120 31.5 -223.5t91.5 -182.5t155 -124.5t215 -45.5q155 0 296 88t229 238l20 -13q-91 -154 -239 -245.5 t-310 -91.5q-29 0 -43 2l-37 -103q61 0 101.5 -30.5t40.5 -84.5q0 -64 -50 -104.5t-124 -40.5q-44 0 -82 23l8 20q37 -22 76 -22q63 0 106 34.5t43 89.5q0 43 -34 69t-85 26q-14 0 -30 -4l47 129q-108 12 -194.5 64t-142 132.5t-85 182.5t-29.5 217z" />
<glyph unicode="&#xc8;" horiz-adv-x="1126" d="M16 0l4 20h189l246 1393h-189l4 21h828l-56 -322h-22l51 301h-594l-117 -655h529l-4 -21h-527l-127 -717h615l55 322h23l-60 -342h-848zM676 1843h29l92 -250h-23z" />
<glyph unicode="&#xc9;" horiz-adv-x="1126" d="M16 0l4 20h189l246 1393h-189l4 21h828l-56 -322h-22l51 301h-594l-117 -655h529l-4 -21h-527l-127 -717h615l55 322h23l-60 -342h-848zM719 1593l182 250h33l-189 -250h-26z" />
<glyph unicode="&#xca;" horiz-adv-x="1126" d="M16 0l4 20h189l246 1393h-189l4 21h828l-56 -322h-22l51 301h-594l-117 -655h529l-4 -21h-527l-127 -717h615l55 322h23l-60 -342h-848zM559 1593l232 244h32l150 -244h-29l-137 228l-215 -228h-33z" />
<glyph unicode="&#xcb;" horiz-adv-x="1126" d="M16 0l4 20h189l246 1393h-189l4 21h828l-56 -322h-22l51 301h-594l-117 -655h529l-4 -21h-527l-127 -717h615l55 322h23l-60 -342h-848zM567 1722q0 22 14 37t35 15q23 0 38.5 -15t15.5 -37t-15.5 -36.5t-38.5 -14.5q-22 0 -35.5 14.5t-13.5 36.5zM895 1722q0 22 14 37 t35 15q23 0 38 -15t15 -37t-15 -36.5t-38 -14.5q-22 0 -35.5 14.5t-13.5 36.5z" />
<glyph unicode="&#xcc;" horiz-adv-x="612" d="M16 0l4 20h189l246 1393h-189l4 21h400l-4 -21h-189l-246 -1393h189l-4 -20h-400zM408 1843h28l92 -250h-22z" />
<glyph unicode="&#xcd;" horiz-adv-x="612" d="M16 0l4 20h189l246 1393h-189l4 21h400l-4 -21h-189l-246 -1393h189l-4 -20h-400zM451 1593l182 250h33l-189 -250h-26z" />
<glyph unicode="&#xce;" horiz-adv-x="612" d="M16 0l4 20h189l246 1393h-189l4 21h400l-4 -21h-189l-246 -1393h189l-4 -20h-400zM291 1593l231 244h33l150 -244h-29l-137 228l-215 -228h-33z" />
<glyph unicode="&#xcf;" horiz-adv-x="612" d="M16 0l4 20h189l246 1393h-189l4 21h400l-4 -21h-189l-246 -1393h189l-4 -20h-400zM299 1722q0 22 14 37t35 15q23 0 38 -15t15 -37t-15 -36.5t-38 -14.5q-22 0 -35.5 14.5t-13.5 36.5zM627 1722q0 22 14 37t35 15q23 0 38 -15t15 -37t-15 -36.5t-38 -14.5 q-22 0 -35.5 14.5t-13.5 36.5z" />
<glyph unicode="&#xd0;" horiz-adv-x="1464" d="M66 0l4 20h188l125 717h-236l5 21h235l119 676h266q126 0 234.5 -37.5t187.5 -106.5t124.5 -173t45.5 -230q0 -139 -37 -271t-108.5 -243t-168.5 -195t-224 -131t-269 -47h-491zM279 20h266q141 0 267 45.5t221 127t164.5 190t105.5 237.5t36 267q0 245 -159.5 385.5 t-423.5 140.5h-232l-114 -655h403l-4 -21h-403zM313 1413l4 21h189l-4 -21h-189z" />
<glyph unicode="&#xd1;" horiz-adv-x="1546" d="M18 0l5 20h188l244 1393h-189l4 21h213l680 -1399l242 1378h-188l4 21h399l-4 -21h-189l-247 -1413h-25l-680 1397l-242 -1377h189l-4 -20h-400zM690 1663q23 61 64 97t96 36q32 0 65.5 -17t57 -37t56 -37t63.5 -17q83 0 135 112h20q-23 -61 -64 -97t-96 -36 q-33 0 -66 17t-56.5 37.5t-55.5 37.5t-63 17q-83 0 -135 -113h-21z" />
<glyph unicode="&#xd2;" horiz-adv-x="1574" d="M178 569q0 174 59.5 336.5t160.5 283t244.5 193t303.5 72.5q241 0 385 -158t144 -411q0 -171 -61 -335.5t-163 -290t-247.5 -202.5t-303.5 -77q-240 0 -381 164t-141 425zM201 569q0 -163 58 -290t172.5 -201t270.5 -74q124 0 240 49t207 134.5t159.5 196t105 239.5 t36.5 260q0 244 -135.5 395.5t-370.5 151.5q-124 0 -239.5 -46t-205.5 -127.5t-158 -189t-104 -236t-36 -262.5zM889 1843h29l92 -250h-23z" />
<glyph unicode="&#xd3;" horiz-adv-x="1574" d="M178 569q0 174 59.5 336.5t160.5 283t244.5 193t303.5 72.5q241 0 385 -158t144 -411q0 -171 -61 -335.5t-163 -290t-247.5 -202.5t-303.5 -77q-240 0 -381 164t-141 425zM201 569q0 -163 58 -290t172.5 -201t270.5 -74q124 0 240 49t207 134.5t159.5 196t105 239.5 t36.5 260q0 244 -135.5 395.5t-370.5 151.5q-124 0 -239.5 -46t-205.5 -127.5t-158 -189t-104 -236t-36 -262.5zM932 1593l182 250h33l-189 -250h-26z" />
<glyph unicode="&#xd4;" horiz-adv-x="1574" d="M178 569q0 174 59.5 336.5t160.5 283t244.5 193t303.5 72.5q241 0 385 -158t144 -411q0 -171 -61 -335.5t-163 -290t-247.5 -202.5t-303.5 -77q-240 0 -381 164t-141 425zM201 569q0 -163 58 -290t172.5 -201t270.5 -74q124 0 240 49t207 134.5t159.5 196t105 239.5 t36.5 260q0 244 -135.5 395.5t-370.5 151.5q-124 0 -239.5 -46t-205.5 -127.5t-158 -189t-104 -236t-36 -262.5zM772 1593l232 244h32l150 -244h-29l-137 228l-215 -228h-33z" />
<glyph unicode="&#xd5;" horiz-adv-x="1574" d="M178 569q0 174 59.5 336.5t160.5 283t244.5 193t303.5 72.5q241 0 385 -158t144 -411q0 -171 -61 -335.5t-163 -290t-247.5 -202.5t-303.5 -77q-240 0 -381 164t-141 425zM201 569q0 -163 58 -290t172.5 -201t270.5 -74q124 0 240 49t207 134.5t159.5 196t105 239.5 t36.5 260q0 244 -135.5 395.5t-370.5 151.5q-124 0 -239.5 -46t-205.5 -127.5t-158 -189t-104 -236t-36 -262.5zM727 1663q23 61 64 97t96 36q32 0 65 -17t57 -37t56 -37t63 -17q84 0 136 112h20q-23 -61 -64 -97t-96 -36q-33 0 -66 17t-56.5 37.5t-55.5 37.5t-63 17 q-83 0 -135 -113h-21z" />
<glyph unicode="&#xd6;" horiz-adv-x="1574" d="M178 569q0 174 59.5 336.5t160.5 283t244.5 193t303.5 72.5q241 0 385 -158t144 -411q0 -171 -61 -335.5t-163 -290t-247.5 -202.5t-303.5 -77q-240 0 -381 164t-141 425zM201 569q0 -163 58 -290t172.5 -201t270.5 -74q124 0 240 49t207 134.5t159.5 196t105 239.5 t36.5 260q0 244 -135.5 395.5t-370.5 151.5q-124 0 -239.5 -46t-205.5 -127.5t-158 -189t-104 -236t-36 -262.5zM780 1722q0 22 14 37t35 15q23 0 38.5 -15t15.5 -37t-15.5 -36.5t-38.5 -14.5q-22 0 -35.5 14.5t-13.5 36.5zM1108 1722q0 22 14 37t35 15q23 0 38 -15t15 -37 t-15 -36.5t-38 -14.5q-22 0 -35.5 14.5t-13.5 36.5z" />
<glyph unicode="&#xd7;" horiz-adv-x="1128" d="M207 246l366 393l-366 391l16 14l365 -391l364 391l17 -14l-367 -391l367 -393l-17 -15l-364 392l-365 -392z" />
<glyph unicode="&#xd8;" horiz-adv-x="1574" d="M80 0l199 199q-101 150 -101 370q0 174 59.5 336.5t160.5 283t244.5 193t303.5 72.5q260 0 406 -182l174 174l16 -14l-178 -179q111 -148 111 -368q0 -171 -61 -335.5t-163 -290t-247.5 -202.5t-303.5 -77q-265 0 -409 200l-195 -194zM201 569q0 -206 94 -354l1040 1040 q-141 175 -391 175q-124 0 -239.5 -46t-205.5 -127.5t-158 -189t-104 -236t-36 -262.5zM307 197q139 -193 395 -193q124 0 240 49t207 134.5t159.5 196t105 239.5t36.5 260q0 216 -102 354z" />
<glyph unicode="&#xd9;" horiz-adv-x="1474" d="M242 1413l4 21h407l-4 -21h-196l-166 -942q-11 -61 -11 -102q0 -164 100 -264.5t286 -100.5q208 0 342.5 126t169.5 329l167 954h-196l4 21h407l-4 -21h-188l-168 -956q-37 -212 -178 -344.5t-359 -132.5q-192 0 -298.5 106.5t-106.5 275.5q0 46 10 111l166 940h-188z M831 1843h29l92 -250h-22z" />
<glyph unicode="&#xda;" horiz-adv-x="1474" d="M242 1413l4 21h407l-4 -21h-196l-166 -942q-11 -61 -11 -102q0 -164 100 -264.5t286 -100.5q208 0 342.5 126t169.5 329l167 954h-196l4 21h407l-4 -21h-188l-168 -956q-37 -212 -178 -344.5t-359 -132.5q-192 0 -298.5 106.5t-106.5 275.5q0 46 10 111l166 940h-188z M874 1593l183 250h33l-189 -250h-27z" />
<glyph unicode="&#xdb;" horiz-adv-x="1474" d="M242 1413l4 21h407l-4 -21h-196l-166 -942q-11 -61 -11 -102q0 -164 100 -264.5t286 -100.5q208 0 342.5 126t169.5 329l167 954h-196l4 21h407l-4 -21h-188l-168 -956q-37 -212 -178 -344.5t-359 -132.5q-192 0 -298.5 106.5t-106.5 275.5q0 46 10 111l166 940h-188z M715 1593l231 244h33l149 -244h-28l-137 228l-215 -228h-33z" />
<glyph unicode="&#xdc;" horiz-adv-x="1474" d="M242 1413l4 21h407l-4 -21h-196l-166 -942q-11 -61 -11 -102q0 -164 100 -264.5t286 -100.5q208 0 342.5 126t169.5 329l167 954h-196l4 21h407l-4 -21h-188l-168 -956q-37 -212 -178 -344.5t-359 -132.5q-192 0 -298.5 106.5t-106.5 275.5q0 46 10 111l166 940h-188z M723 1722q0 22 14 37t35 15q23 0 38 -15t15 -37t-15 -36.5t-38 -14.5q-22 0 -35.5 14.5t-13.5 36.5zM1051 1722q0 22 14 37t35 15q23 0 38 -15t15 -37t-15 -36.5t-38 -14.5q-22 0 -35.5 14.5t-13.5 36.5z" />
<glyph unicode="&#xdd;" horiz-adv-x="1261" d="M168 1413l4 21h406l-5 -21h-208l288 -756l564 756h-211l4 21h407l-4 -21h-170l-581 -782l-107 -611h209l-4 -20h-441l5 20h208l107 611l-299 782h-172zM760 1593l182 250h33l-189 -250h-26z" />
<glyph unicode="&#xde;" horiz-adv-x="1134" d="M16 0l4 20h189l246 1393h-189l4 21h400l-4 -21h-189l-59 -338h301q151 0 244.5 -70t93.5 -206q0 -117 -63 -207t-167.5 -137t-232.5 -47h-295l-68 -388h189l-4 -20h-400zM303 428h291q186 0 312 103t126 266q0 130 -86 194t-237 64h-295z" />
<glyph unicode="&#xdf;" horiz-adv-x="1232" d="M-131 -377l4 21q42 -11 84 -11q81 0 144.5 67.5t84.5 184.5l195 1108h-197l4 19h197l35 198q22 125 115.5 202t226.5 77q117 0 194.5 -76t77.5 -182q0 -127 -93.5 -223t-229.5 -123q156 -14 259 -114.5t103 -246.5q0 -137 -74.5 -258t-202 -193.5t-274.5 -72.5h-8l4 20 q142 0 265.5 70t195.5 185.5t72 244.5q0 146 -103 241.5t-268 110.5l4 23q141 31 233.5 120t92.5 212q0 103 -69.5 171t-180.5 68q-125 0 -211 -71.5t-107 -186.5l-235 -1327q-23 -126 -90.5 -197t-159.5 -71q-46 0 -88 10z" />
<glyph unicode="&#xe0;" d="M150 408q0 163 68 307t184.5 230.5t250.5 86.5q86 0 157 -30t117 -81t72 -116t31 -139l62 346h20l-174 -994h188l-4 -18h-209l64 360q-30 -76 -75.5 -142t-106 -120.5t-140 -86t-168.5 -31.5q-96 0 -174.5 60.5t-120.5 158t-42 209.5zM172 408q0 -106 39 -199t112.5 -151 t165.5 -58q143 0 266.5 93t192 237t68.5 297q0 170 -101.5 277.5t-261.5 107.5q-128 0 -239.5 -84t-176.5 -223.5t-65 -296.5zM604 1454h29l92 -250h-23z" />
<glyph unicode="&#xe1;" d="M150 408q0 163 68 307t184.5 230.5t250.5 86.5q86 0 157 -30t117 -81t72 -116t31 -139l62 346h20l-174 -994h188l-4 -18h-209l64 360q-30 -76 -75.5 -142t-106 -120.5t-140 -86t-168.5 -31.5q-96 0 -174.5 60.5t-120.5 158t-42 209.5zM172 408q0 -106 39 -199t112.5 -151 t165.5 -58q143 0 266.5 93t192 237t68.5 297q0 170 -101.5 277.5t-261.5 107.5q-128 0 -239.5 -84t-176.5 -223.5t-65 -296.5zM647 1204l182 250h33l-188 -250h-27z" />
<glyph unicode="&#xe2;" d="M150 408q0 163 68 307t184.5 230.5t250.5 86.5q86 0 157 -30t117 -81t72 -116t31 -139l62 346h20l-174 -994h188l-4 -18h-209l64 360q-30 -76 -75.5 -142t-106 -120.5t-140 -86t-168.5 -31.5q-96 0 -174.5 60.5t-120.5 158t-42 209.5zM172 408q0 -106 39 -199t112.5 -151 t165.5 -58q143 0 266.5 93t192 237t68.5 297q0 170 -101.5 277.5t-261.5 107.5q-128 0 -239.5 -84t-176.5 -223.5t-65 -296.5zM487 1204l232 244h33l149 -244h-29l-137 228l-215 -228h-33z" />
<glyph unicode="&#xe3;" d="M150 408q0 163 68 307t184.5 230.5t250.5 86.5q86 0 157 -30t117 -81t72 -116t31 -139l62 346h20l-174 -994h188l-4 -18h-209l64 360q-30 -76 -75.5 -142t-106 -120.5t-140 -86t-168.5 -31.5q-96 0 -174.5 60.5t-120.5 158t-42 209.5zM172 408q0 -106 39 -199t112.5 -151 t165.5 -58q143 0 266.5 93t192 237t68.5 297q0 170 -101.5 277.5t-261.5 107.5q-128 0 -239.5 -84t-176.5 -223.5t-65 -296.5zM442 1274q23 61 64 97t96 36q32 0 65.5 -17t57 -37.5t56 -37.5t63.5 -17q83 0 135 113h20q-23 -61 -63.5 -97t-95.5 -36q-33 0 -66.5 17t-57 37 t-55.5 37t-63 17q-83 0 -135 -112h-21z" />
<glyph unicode="&#xe4;" d="M150 408q0 163 68 307t184.5 230.5t250.5 86.5q86 0 157 -30t117 -81t72 -116t31 -139l62 346h20l-174 -994h188l-4 -18h-209l64 360q-30 -76 -75.5 -142t-106 -120.5t-140 -86t-168.5 -31.5q-96 0 -174.5 60.5t-120.5 158t-42 209.5zM172 408q0 -106 39 -199t112.5 -151 t165.5 -58q143 0 266.5 93t192 237t68.5 297q0 170 -101.5 277.5t-261.5 107.5q-128 0 -239.5 -84t-176.5 -223.5t-65 -296.5zM496 1333q0 22 13.5 36.5t35.5 14.5q23 0 38 -14.5t15 -36.5t-15 -36.5t-38 -14.5q-22 0 -35.5 14.5t-13.5 36.5zM823 1333q0 22 13.5 36.5 t35.5 14.5q23 0 38.5 -14.5t15.5 -36.5t-15.5 -36.5t-38.5 -14.5q-22 0 -35.5 14.5t-13.5 36.5z" />
<glyph unicode="&#xe5;" d="M150 408q0 163 68 307t184.5 230.5t250.5 86.5q86 0 157 -30t117 -81t72 -116t31 -139l62 346h20l-174 -994h188l-4 -18h-209l64 360q-30 -76 -75.5 -142t-106 -120.5t-140 -86t-168.5 -31.5q-96 0 -174.5 60.5t-120.5 158t-42 209.5zM172 408q0 -106 39 -199t112.5 -151 t165.5 -58q143 0 266.5 93t192 237t68.5 297q0 170 -101.5 277.5t-261.5 107.5q-128 0 -239.5 -84t-176.5 -223.5t-65 -296.5zM582 1311q0 64 46.5 109.5t112.5 45.5q52 0 83.5 -31t31.5 -79q0 -68 -46.5 -114t-113.5 -46q-52 0 -83 32.5t-31 82.5zM602 1311 q0 -42 25.5 -69.5t68.5 -27.5q59 0 99.5 40t40.5 100q0 41 -25.5 67.5t-69.5 26.5q-58 0 -98.5 -40.5t-40.5 -96.5z" />
<glyph unicode="&#xe6;" horiz-adv-x="2027" d="M150 408q0 164 70 308t189 230t257 86q252 0 454 -233q74 107 181.5 170t230.5 63q154 0 258 -104t104 -254q0 -65 -20 -137h-842q-10 -65 -10 -117q0 -177 96.5 -298.5t253.5 -121.5q115 0 229.5 62.5t194.5 164.5l16 -16q-84 -104 -201.5 -167.5t-240.5 -63.5 q-164 0 -267.5 127t-103.5 311q0 55 15 139q-147 -314 -267 -445.5t-268 -131.5q-101 0 -177 61t-114 157t-38 210zM172 408q0 -108 35 -199.5t106.5 -150t167.5 -58.5q48 0 93.5 17t84 44t79.5 75t73.5 95t73 120t71 134t74.5 152q48 99 74 147q-95 109 -199.5 168.5 t-238.5 59.5q-131 0 -245.5 -84t-181.5 -223.5t-67 -296.5zM1036 557h819q17 63 17 117q0 139 -96.5 239t-241.5 99q-121 -1 -226.5 -64t-174.5 -165.5t-97 -225.5z" />
<glyph unicode="&#xe7;" horiz-adv-x="1112" d="M150 416q0 118 41.5 230.5t111 197.5t165.5 136.5t200 51.5q175 0 344 -98l-43 -244h-21l41 230q-157 92 -323 92q-131 0 -246 -85t-181.5 -222.5t-66.5 -288.5q0 -179 95 -297.5t251 -118.5q110 0 214.5 66.5t172.5 173.5l19 -13q-70 -111 -180 -179t-228 -68h-14 l-35 -101q61 0 101 -30.5t40 -84.5q0 -64 -50 -104.5t-124 -40.5q-44 0 -82 23l8 20q37 -22 76 -22q63 0 106.5 35t43.5 89q0 43 -34 69t-85 26q-15 0 -31 -4l47 127q-150 13 -241.5 135t-91.5 299z" />
<glyph unicode="&#xe8;" horiz-adv-x="1177" d="M150 418q0 116 41.5 227.5t111.5 197t169.5 137.5t209.5 52q154 0 258 -104t104 -254q0 -65 -20 -137h-842q-10 -65 -10 -117q0 -177 96.5 -298.5t253.5 -121.5q115 0 229.5 62.5t194.5 164.5l17 -16q-84 -104 -202 -167.5t-241 -63.5q-164 0 -267 127t-103 311zM186 557 h820q16 59 16 117q0 139 -96.5 239t-241.5 99q-121 -1 -226.5 -64t-174.5 -165.5t-97 -225.5zM635 1442h29l92 -250h-23z" />
<glyph unicode="&#xe9;" horiz-adv-x="1177" d="M150 418q0 116 41.5 227.5t111.5 197t169.5 137.5t209.5 52q154 0 258 -104t104 -254q0 -65 -20 -137h-842q-10 -65 -10 -117q0 -177 96.5 -298.5t253.5 -121.5q115 0 229.5 62.5t194.5 164.5l17 -16q-84 -104 -202 -167.5t-241 -63.5q-164 0 -267 127t-103 311zM186 557 h820q16 59 16 117q0 139 -96.5 239t-241.5 99q-121 -1 -226.5 -64t-174.5 -165.5t-97 -225.5zM678 1192l182 250h33l-188 -250h-27z" />
<glyph unicode="&#xea;" horiz-adv-x="1177" d="M150 418q0 116 41.5 227.5t111.5 197t169.5 137.5t209.5 52q154 0 258 -104t104 -254q0 -65 -20 -137h-842q-10 -65 -10 -117q0 -177 96.5 -298.5t253.5 -121.5q115 0 229.5 62.5t194.5 164.5l17 -16q-84 -104 -202 -167.5t-241 -63.5q-164 0 -267 127t-103 311zM186 557 h820q16 59 16 117q0 139 -96.5 239t-241.5 99q-121 -1 -226.5 -64t-174.5 -165.5t-97 -225.5zM518 1192l232 244h32l150 -244h-29l-137 227l-215 -227h-33z" />
<glyph unicode="&#xeb;" horiz-adv-x="1177" d="M150 418q0 116 41.5 227.5t111.5 197t169.5 137.5t209.5 52q154 0 258 -104t104 -254q0 -65 -20 -137h-842q-10 -65 -10 -117q0 -177 96.5 -298.5t253.5 -121.5q115 0 229.5 62.5t194.5 164.5l17 -16q-84 -104 -202 -167.5t-241 -63.5q-164 0 -267 127t-103 311zM186 557 h820q16 59 16 117q0 139 -96.5 239t-241.5 99q-121 -1 -226.5 -64t-174.5 -165.5t-97 -225.5zM526 1321q0 22 13.5 36.5t35.5 14.5q23 0 38.5 -14.5t15.5 -36.5t-15.5 -36.5t-38.5 -14.5q-22 0 -35.5 14.5t-13.5 36.5zM854 1321q0 22 13.5 36.5t35.5 14.5q23 0 38 -14.5 t15 -36.5t-15 -36.5t-38 -14.5q-22 0 -35.5 14.5t-13.5 36.5z" />
<glyph unicode="&#xec;" horiz-adv-x="563" d="M168 993l4 19h209l-174 -994h188l-4 -18h-209l174 993h-188zM295 1442h29l92 -250h-23z" />
<glyph unicode="&#xed;" horiz-adv-x="563" d="M168 993l4 19h209l-174 -994h188l-4 -18h-209l174 993h-188zM338 1192l182 250h33l-188 -250h-27z" />
<glyph unicode="&#xee;" horiz-adv-x="563" d="M168 993l4 19h209l-174 -994h188l-4 -18h-209l174 993h-188zM178 1192l232 244h32l150 -244h-29l-137 227l-215 -227h-33z" />
<glyph unicode="&#xef;" horiz-adv-x="555" d="M160 993l4 19h209l-174 -994h188l-4 -18h-209l174 993h-188zM221 1325q0 20 12.5 33.5t32.5 13.5q22 0 35.5 -13.5t13.5 -33.5t-13.5 -33.5t-35.5 -13.5q-20 0 -32.5 13.5t-12.5 33.5zM475 1325q0 20 12.5 33.5t32.5 13.5q22 0 35.5 -13.5t13.5 -33.5t-13.5 -33.5 t-35.5 -13.5q-20 0 -32.5 13.5t-12.5 33.5z" />
<glyph unicode="&#xf0;" horiz-adv-x="1224" d="M147 406q0 162 72.5 304.5t199 228t275.5 85.5q141 0 246 -92.5t125 -249.5q2 23 2 68q0 363 -272 565l-340 -150l-9 19l330 145q-113 78 -262 133l12 19q162 -65 271 -144l319 142l8 -19l-309 -135q275 -208 275 -577q0 -155 -40.5 -295t-112.5 -245t-179 -166.5 t-232 -61.5q-169 0 -274 120.5t-105 305.5zM170 408q0 -177 98.5 -292.5t257.5 -115.5q113 0 213.5 58t168 149t106.5 202t39 218q0 162 -106 269.5t-251 107.5q-109 0 -207.5 -49.5t-168 -131.5t-110 -191t-40.5 -224z" />
<glyph unicode="&#xf1;" horiz-adv-x="1277" d="M168 993l4 19h209l-47 -273q55 126 169.5 209.5t244.5 83.5q140 0 222.5 -75.5t82.5 -206.5q0 -38 -6 -82l-113 -650h188l-4 -18h-209l117 664q6 40 6 84q0 122 -76.5 193t-210.5 71q-147 0 -276 -117t-156 -266l-110 -629h-21l174 993h-188zM510 1264q23 61 64 97t96 36 q32 0 65 -17t57 -37.5t56 -37.5t63 -17q84 0 136 113h20q-23 -61 -64 -97t-96 -36q-33 0 -66 17t-56.5 37t-55.5 37t-63 17q-84 0 -136 -112h-20z" />
<glyph unicode="&#xf2;" horiz-adv-x="1212" d="M150 418q0 118 41 230t110.5 196.5t169 136t209.5 51.5q169 0 277 -119t108 -307q0 -160 -70.5 -304t-193.5 -233t-266 -89q-172 0 -278.5 123.5t-106.5 314.5zM172 418q0 -183 99.5 -300.5t263.5 -117.5q137 0 255 87t185 226.5t67 292.5q0 182 -101.5 294t-260.5 112 q-140 0 -258 -84t-184 -220t-66 -290zM621 1442h28l92 -250h-22z" />
<glyph unicode="&#xf3;" horiz-adv-x="1212" d="M150 418q0 118 41 230t110.5 196.5t169 136t209.5 51.5q169 0 277 -119t108 -307q0 -160 -70.5 -304t-193.5 -233t-266 -89q-172 0 -278.5 123.5t-106.5 314.5zM172 418q0 -183 99.5 -300.5t263.5 -117.5q137 0 255 87t185 226.5t67 292.5q0 182 -101.5 294t-260.5 112 q-140 0 -258 -84t-184 -220t-66 -290zM664 1192l182 250h33l-189 -250h-26z" />
<glyph unicode="&#xf4;" horiz-adv-x="1212" d="M150 418q0 118 41 230t110.5 196.5t169 136t209.5 51.5q169 0 277 -119t108 -307q0 -160 -70.5 -304t-193.5 -233t-266 -89q-172 0 -278.5 123.5t-106.5 314.5zM172 418q0 -183 99.5 -300.5t263.5 -117.5q137 0 255 87t185 226.5t67 292.5q0 182 -101.5 294t-260.5 112 q-140 0 -258 -84t-184 -220t-66 -290zM504 1192l231 244h33l150 -244h-29l-137 227l-215 -227h-33z" />
<glyph unicode="&#xf5;" horiz-adv-x="1212" d="M150 418q0 118 41 230t110.5 196.5t169 136t209.5 51.5q169 0 277 -119t108 -307q0 -160 -70.5 -304t-193.5 -233t-266 -89q-172 0 -278.5 123.5t-106.5 314.5zM172 418q0 -183 99.5 -300.5t263.5 -117.5q137 0 255 87t185 226.5t67 292.5q0 182 -101.5 294t-260.5 112 q-140 0 -258 -84t-184 -220t-66 -290zM459 1262q23 61 63.5 97t95.5 36q32 0 65.5 -17t57 -37.5t56 -37.5t63.5 -17q83 0 135 113h21q-23 -61 -64 -97t-96 -36q-33 0 -66.5 17t-57 37t-55.5 37t-63 17q-83 0 -135 -112h-20z" />
<glyph unicode="&#xf6;" horiz-adv-x="1212" d="M150 418q0 118 41 230t110.5 196.5t169 136t209.5 51.5q169 0 277 -119t108 -307q0 -160 -70.5 -304t-193.5 -233t-266 -89q-172 0 -278.5 123.5t-106.5 314.5zM172 418q0 -183 99.5 -300.5t263.5 -117.5q137 0 255 87t185 226.5t67 292.5q0 182 -101.5 294t-260.5 112 q-140 0 -258 -84t-184 -220t-66 -290zM512 1321q0 22 13.5 36.5t35.5 14.5q23 0 38 -14.5t15 -36.5t-15 -36.5t-38 -14.5q-22 0 -35.5 14.5t-13.5 36.5zM840 1321q0 22 13.5 36.5t35.5 14.5q23 0 38 -14.5t15 -36.5t-15 -36.5t-38 -14.5q-22 0 -35.5 14.5t-13.5 36.5z" />
<glyph unicode="&#xf7;" horiz-adv-x="1087" d="M125 639v18h887v-18h-887zM516 340q0 22 13.5 36.5t35.5 14.5q23 0 38 -14.5t15 -36.5t-15 -36.5t-38 -14.5q-22 0 -35.5 14.5t-13.5 36.5zM516 956q0 22 14 37t35 15q23 0 38 -15t15 -37t-15 -36.5t-38 -14.5q-22 0 -35.5 14.5t-13.5 36.5z" />
<glyph unicode="&#xf8;" horiz-adv-x="1212" d="M84 -2l143 143q-77 116 -77 277q0 118 41 230t110.5 196.5t169 136t209.5 51.5q185 0 297 -141l131 131l14 -14l-133 -134q76 -116 76 -268q0 -160 -70.5 -304t-193.5 -233t-266 -89q-187 0 -297 145l-142 -141zM172 418q0 -150 70 -262l719 718q-47 66 -120 102t-161 36 q-140 0 -258 -84t-184 -220t-66 -290zM254 141q101 -141 281 -141q137 0 255 87t185 226.5t67 292.5q0 151 -69 252z" />
<glyph unicode="&#xf9;" horiz-adv-x="1247" d="M156 993l4 19h209l-119 -662q-8 -54 -8 -86q0 -118 72 -191t196 -73q89 0 184 64t159.5 155.5t80.5 175.5l110 617h21l-176 -994h190l-4 -18h-211l51 291q-63 -125 -173.5 -218t-235.5 -93q-129 0 -207 78.5t-78 201.5q0 36 8 86l115 647h-188zM631 1442h28l93 -250h-23z " />
<glyph unicode="&#xfa;" horiz-adv-x="1247" d="M156 993l4 19h209l-119 -662q-8 -54 -8 -86q0 -118 72 -191t196 -73q89 0 184 64t159.5 155.5t80.5 175.5l110 617h21l-176 -994h190l-4 -18h-211l51 291q-63 -125 -173.5 -218t-235.5 -93q-129 0 -207 78.5t-78 201.5q0 36 8 86l115 647h-188zM674 1192l182 250h33 l-189 -250h-26z" />
<glyph unicode="&#xfb;" horiz-adv-x="1247" d="M156 993l4 19h209l-119 -662q-8 -54 -8 -86q0 -118 72 -191t196 -73q89 0 184 64t159.5 155.5t80.5 175.5l110 617h21l-176 -994h190l-4 -18h-211l51 291q-63 -125 -173.5 -218t-235.5 -93q-129 0 -207 78.5t-78 201.5q0 36 8 86l115 647h-188zM514 1192l231 244h33 l150 -244h-29l-137 227l-215 -227h-33z" />
<glyph unicode="&#xfc;" horiz-adv-x="1247" d="M156 993l4 19h209l-119 -662q-8 -54 -8 -86q0 -118 72 -191t196 -73q89 0 184 64t159.5 155.5t80.5 175.5l110 617h21l-176 -994h190l-4 -18h-211l51 291q-63 -125 -173.5 -218t-235.5 -93q-129 0 -207 78.5t-78 201.5q0 36 8 86l115 647h-188zM522 1321q0 22 13.5 36.5 t35.5 14.5q23 0 38.5 -14.5t15.5 -36.5t-15.5 -36.5t-38.5 -14.5q-22 0 -35.5 14.5t-13.5 36.5zM850 1321q0 22 13.5 36.5t35.5 14.5q23 0 38 -14.5t15 -36.5t-15 -36.5t-38 -14.5q-22 0 -35.5 14.5t-13.5 36.5z" />
<glyph unicode="&#xfd;" horiz-adv-x="1060" d="M-121 -369l6 21q59 -19 109 -19q76 0 203 92.5t264 249.5l-248 1018h-162l2 19h178l246 -1018q201 249 329 496.5t128 431.5q0 21 -4 71h-178l4 19h192q8 -36 8 -99q0 -104 -50.5 -245.5t-131.5 -283t-186 -282t-210.5 -248t-208.5 -174.5t-177 -67q-54 0 -113 18z M506 1192l182 250h33l-189 -250h-26z" />
<glyph unicode="&#xfe;" horiz-adv-x="1308" d="M115 -383l323 1845h-188l4 19h209l-144 -822q28 73 72 137.5t104 118.5t139.5 85.5t168.5 31.5q159 0 258.5 -122t99.5 -300q0 -119 -41 -234t-110 -202t-167 -140.5t-206 -53.5q-84 0 -154.5 32t-116 85t-72 119t-30.5 138l-129 -737h-20zM281 393q0 -170 100 -281.5 t254 -111.5q137 0 254.5 87t183.5 226.5t66 294.5q0 172 -92.5 288t-247.5 116q-139 0 -260 -89t-189.5 -231.5t-68.5 -298.5z" />
<glyph unicode="&#xff;" horiz-adv-x="1060" d="M-121 -369l6 21q59 -19 109 -19q76 0 203 92.5t264 249.5l-248 1018h-162l2 19h178l246 -1018q201 249 329 496.5t128 431.5q0 21 -4 71h-178l4 19h192q8 -36 8 -99q0 -104 -50.5 -245.5t-131.5 -283t-186 -282t-210.5 -248t-208.5 -174.5t-177 -67q-54 0 -113 18z M354 1321q0 22 13.5 36.5t35.5 14.5q23 0 38.5 -14.5t15.5 -36.5t-15.5 -36.5t-38.5 -14.5q-22 0 -35.5 14.5t-13.5 36.5zM682 1321q0 22 13.5 36.5t35.5 14.5q23 0 38 -14.5t15 -36.5t-15 -36.5t-38 -14.5q-22 0 -35.5 14.5t-13.5 36.5z" />
<glyph unicode="&#x100;" horiz-adv-x="1396" d="M-82 0l4 20h174l750 1418h28l252 -1418h177l-5 -20h-413l4 20h213l-86 508h-627l-268 -508h215l-4 -20h-414zM399 549h611l-152 868zM653 1702l4 18h508l-4 -18h-508z" />
<glyph unicode="&#x101;" d="M150 408q0 163 68 307t184.5 230.5t250.5 86.5q86 0 157 -30t117 -81t72 -116t31 -139l62 346h20l-174 -994h188l-4 -18h-209l64 360q-30 -76 -75.5 -142t-106 -120.5t-140 -86t-168.5 -31.5q-96 0 -174.5 60.5t-120.5 158t-42 209.5zM172 408q0 -106 39 -199t112.5 -151 t165.5 -58q143 0 266.5 93t192 237t68.5 297q0 170 -101.5 277.5t-261.5 107.5q-128 0 -239.5 -84t-176.5 -223.5t-65 -296.5zM469 1313l4 18h508l-4 -18h-508z" />
<glyph unicode="&#x102;" horiz-adv-x="1396" d="M-82 0l4 20h174l750 1418h28l252 -1418h177l-5 -20h-413l4 20h213l-86 508h-627l-268 -508h215l-4 -20h-414zM399 549h611l-152 868zM717 1759q0 15 4 43h20q-4 -28 -4 -41q0 -61 37 -98t111 -37q83 0 136 49.5t66 126.5h23q-14 -86 -73.5 -140t-153.5 -54 q-80 0 -123 41.5t-43 109.5z" />
<glyph unicode="&#x103;" d="M150 408q0 163 68 307t184.5 230.5t250.5 86.5q86 0 157 -30t117 -81t72 -116t31 -139l62 346h20l-174 -994h188l-4 -18h-209l64 360q-30 -76 -75.5 -142t-106 -120.5t-140 -86t-168.5 -31.5q-96 0 -174.5 60.5t-120.5 158t-42 209.5zM172 408q0 -106 39 -199t112.5 -151 t165.5 -58q143 0 266.5 93t192 237t68.5 297q0 170 -101.5 277.5t-261.5 107.5q-128 0 -239.5 -84t-176.5 -223.5t-65 -296.5zM532 1370q0 8 5 43h20q-4 -28 -4 -41q0 -62 36.5 -98.5t110.5 -36.5q83 0 136.5 49.5t66.5 126.5h23q-14 -86 -74 -140t-154 -54q-80 0 -123 41.5 t-43 109.5z" />
<glyph unicode="&#x104;" horiz-adv-x="1396" d="M-82 0l4 20h174l750 1418h28l252 -1418h177l-5 -20h-122q-92 -47 -145.5 -108.5t-53.5 -133.5q0 -51 30.5 -83.5t79.5 -32.5q29 0 63.5 15.5t61.5 39.5l11 -19q-28 -26 -66.5 -41.5t-75.5 -15.5q-53 0 -90 40t-37 95q0 74 51 138.5t134 105.5h-254l4 20h213l-86 508h-627 l-268 -508h215l-4 -20h-414zM399 549h611l-152 868z" />
<glyph unicode="&#x105;" d="M150 408q0 163 68 307t184.5 230.5t250.5 86.5q86 0 157 -30t117 -81t72 -116t31 -139l62 346h20l-174 -994h188l-4 -18h-190q-92 -47 -145.5 -108.5t-53.5 -133.5q0 -51 31 -83.5t80 -32.5q29 0 63.5 15.5t61.5 39.5l10 -19q-60 -57 -141 -57q-53 0 -90 40t-37 95 q0 79 56.5 145.5t147.5 106.5l62 352q-30 -76 -75.5 -142t-106 -120.5t-140 -86t-168.5 -31.5q-96 0 -174.5 60.5t-120.5 158t-42 209.5zM172 408q0 -106 39 -199t112.5 -151t165.5 -58q143 0 266.5 93t192 237t68.5 297q0 170 -101.5 277.5t-261.5 107.5q-128 0 -239.5 -84 t-176.5 -223.5t-65 -296.5z" />
<glyph unicode="&#x106;" horiz-adv-x="1382" d="M180 580q0 140 37.5 272t106.5 240t161 190t208 127t241 45q215 0 436 -100l-55 -318h-23l54 301q-200 93 -410 93q-203 0 -371.5 -116t-264 -311t-95.5 -423q0 -120 31.5 -223.5t91.5 -182.5t155 -124.5t215 -45.5q155 0 296 88t229 238l20 -13q-91 -154 -239 -245.5 t-310 -91.5q-123 0 -221.5 47.5t-162 130.5t-97 191t-33.5 231zM881 1593l182 250h33l-189 -250h-26z" />
<glyph unicode="&#x107;" horiz-adv-x="1112" d="M150 416q0 118 41.5 230.5t111 197.5t165.5 136.5t200 51.5q175 0 344 -98l-43 -244h-21l41 230q-157 92 -323 92q-131 0 -246 -85t-181.5 -222.5t-66.5 -288.5q0 -179 95 -297.5t251 -118.5q110 0 214.5 66.5t172.5 173.5l19 -13q-70 -111 -180 -179t-228 -68 q-163 0 -264.5 124t-101.5 312zM666 1204l182 250h33l-189 -250h-26z" />
<glyph unicode="&#x108;" horiz-adv-x="1382" d="M180 580q0 140 37.5 272t106.5 240t161 190t208 127t241 45q215 0 436 -100l-55 -318h-23l54 301q-200 93 -410 93q-203 0 -371.5 -116t-264 -311t-95.5 -423q0 -120 31.5 -223.5t91.5 -182.5t155 -124.5t215 -45.5q155 0 296 88t229 238l20 -13q-91 -154 -239 -245.5 t-310 -91.5q-123 0 -221.5 47.5t-162 130.5t-97 191t-33.5 231zM721 1593l231 244h33l150 -244h-29l-137 228l-215 -228h-33z" />
<glyph unicode="&#x109;" horiz-adv-x="1112" d="M150 416q0 118 41.5 230.5t111 197.5t165.5 136.5t200 51.5q175 0 344 -98l-43 -244h-21l41 230q-157 92 -323 92q-131 0 -246 -85t-181.5 -222.5t-66.5 -288.5q0 -179 95 -297.5t251 -118.5q110 0 214.5 66.5t172.5 173.5l19 -13q-70 -111 -180 -179t-228 -68 q-163 0 -264.5 124t-101.5 312zM506 1204l231 244h33l150 -244h-29l-137 228l-215 -228h-33z" />
<glyph unicode="&#x10a;" horiz-adv-x="1382" d="M180 580q0 140 37.5 272t106.5 240t161 190t208 127t241 45q215 0 436 -100l-55 -318h-23l54 301q-200 93 -410 93q-203 0 -371.5 -116t-264 -311t-95.5 -423q0 -120 31.5 -223.5t91.5 -182.5t155 -124.5t215 -45.5q155 0 296 88t229 238l20 -13q-91 -154 -239 -245.5 t-310 -91.5q-123 0 -221.5 47.5t-162 130.5t-97 191t-33.5 231zM893 1714q0 22 13.5 36.5t35.5 14.5q23 0 38 -14.5t15 -36.5t-15 -36.5t-38 -14.5q-22 0 -35.5 14.5t-13.5 36.5z" />
<glyph unicode="&#x10b;" horiz-adv-x="1112" d="M150 416q0 118 41.5 230.5t111 197.5t165.5 136.5t200 51.5q175 0 344 -98l-43 -244h-21l41 230q-157 92 -323 92q-131 0 -246 -85t-181.5 -222.5t-66.5 -288.5q0 -179 95 -297.5t251 -118.5q110 0 214.5 66.5t172.5 173.5l19 -13q-70 -111 -180 -179t-228 -68 q-163 0 -264.5 124t-101.5 312zM678 1325q0 22 13.5 36.5t35.5 14.5q23 0 38 -14.5t15 -36.5t-15 -36.5t-38 -14.5q-22 0 -35.5 14.5t-13.5 36.5z" />
<glyph unicode="&#x10c;" horiz-adv-x="1382" d="M180 580q0 140 37.5 272t106.5 240t161 190t208 127t241 45q215 0 436 -100l-55 -318h-23l54 301q-200 93 -410 93q-203 0 -371.5 -116t-264 -311t-95.5 -423q0 -120 31.5 -223.5t91.5 -182.5t155 -124.5t215 -45.5q155 0 296 88t229 238l20 -13q-91 -154 -239 -245.5 t-310 -91.5q-123 0 -221.5 47.5t-162 130.5t-97 191t-33.5 231zM743 1837h29l137 -227l215 227h33l-231 -244h-33z" />
<glyph unicode="&#x10d;" horiz-adv-x="1112" d="M150 416q0 118 41.5 230.5t111 197.5t165.5 136.5t200 51.5q175 0 344 -98l-43 -244h-21l41 230q-157 92 -323 92q-131 0 -246 -85t-181.5 -222.5t-66.5 -288.5q0 -179 95 -297.5t251 -118.5q110 0 214.5 66.5t172.5 173.5l19 -13q-70 -111 -180 -179t-228 -68 q-163 0 -264.5 124t-101.5 312zM528 1448h29l137 -227l215 227h33l-231 -244h-33z" />
<glyph unicode="&#x10e;" horiz-adv-x="1417" d="M18 0l5 20h188l248 1414h266q126 0 234.5 -37.5t187.5 -106.5t124.5 -173t45.5 -230q0 -139 -37 -271t-108.5 -243t-168.5 -195t-224 -131t-269 -47h-492zM231 20h267q141 0 267 45.5t221 127t164.5 190t105.5 237.5t36 267q0 245 -159.5 385.5t-423.5 140.5h-232z M266 1413l4 21h189l-4 -21h-189zM668 1837h28l138 -227l215 227h32l-231 -244h-33z" />
<glyph unicode="&#x10f;" horiz-adv-x="1284" d="M150 408q0 163 68 307t184.5 230.5t250.5 86.5q170 0 269.5 -106t109.5 -260l137 796h-188l4 19h209l-2 -19h-2l-252 -1444h188l-4 -18h-209l64 360q-30 -76 -75.5 -142t-106 -120.5t-140 -86t-168.5 -31.5q-96 0 -174.5 60.5t-120.5 158t-42 209.5zM172 408 q0 -106 39 -199t112.5 -151t165.5 -58q143 0 266.5 93t192 237t68.5 297q0 170 -101.5 277.5t-261.5 107.5q-128 0 -239.5 -84t-176.5 -223.5t-65 -296.5zM1290 1133l90 348h23l-92 -348h-21z" />
<glyph unicode="&#x110;" horiz-adv-x="1464" d="M66 0l4 20h188l125 717h-236l5 21h235l119 676h266q126 0 234.5 -37.5t187.5 -106.5t124.5 -173t45.5 -230q0 -139 -37 -271t-108.5 -243t-168.5 -195t-224 -131t-269 -47h-491zM279 20h266q141 0 267 45.5t221 127t164.5 190t105.5 237.5t36 267q0 245 -159.5 385.5 t-423.5 140.5h-232l-114 -655h403l-4 -21h-403zM313 1413l4 21h189l-4 -21h-189z" />
<glyph unicode="&#x111;" horiz-adv-x="1306" d="M150 408q0 122 41.5 236.5t110.5 199.5t165 136.5t199 51.5q86 0 157 -30t117 -81t72.5 -116t31.5 -139l99 565h-363l4 18h361l37 213h-189l4 19h209l-2 -19h-2l-37 -213h189l-4 -18h-187l-213 -1213h189l-4 -18h-209l63 360q-31 -76 -75.5 -142t-105 -120.5t-140 -86 t-168.5 -31.5q-100 0 -181.5 60.5t-125 158t-43.5 209.5zM172 408q0 -106 40 -199t117 -151t173 -58q143 0 266 93t191.5 236.5t68.5 297.5q0 170 -101 277.5t-261 107.5q-131 0 -245.5 -84t-181.5 -223.5t-67 -296.5z" />
<glyph unicode="&#x112;" horiz-adv-x="1126" d="M16 0l4 20h189l246 1393h-189l4 21h828l-56 -322h-22l51 301h-594l-117 -655h529l-4 -21h-527l-127 -717h615l55 322h23l-60 -342h-848zM541 1702l4 18h508l-4 -18h-508z" />
<glyph unicode="&#x113;" horiz-adv-x="1177" d="M150 418q0 116 41.5 227.5t111.5 197t169.5 137.5t209.5 52q154 0 258 -104t104 -254q0 -65 -20 -137h-842q-10 -65 -10 -117q0 -177 96.5 -298.5t253.5 -121.5q115 0 229.5 62.5t194.5 164.5l17 -16q-84 -104 -202 -167.5t-241 -63.5q-164 0 -267 127t-103 311zM186 557 h820q16 59 16 117q0 139 -96.5 239t-241.5 99q-121 -1 -226.5 -64t-174.5 -165.5t-97 -225.5zM500 1300l4 19h508l-4 -19h-508z" />
<glyph unicode="&#x114;" horiz-adv-x="1126" d="M16 0l4 20h189l246 1393h-189l4 21h828l-56 -322h-22l51 301h-594l-117 -655h529l-4 -21h-527l-127 -717h615l55 322h23l-60 -342h-848zM604 1759q0 15 4 43h21q-4 -28 -4 -41q0 -61 36.5 -98t110.5 -37q83 0 136.5 49.5t66.5 126.5h22q-14 -86 -73.5 -140t-153.5 -54 q-80 0 -123 41.5t-43 109.5z" />
<glyph unicode="&#x115;" horiz-adv-x="1177" d="M150 418q0 116 41.5 227.5t111.5 197t169.5 137.5t209.5 52q154 0 258 -104t104 -254q0 -65 -20 -137h-842q-10 -65 -10 -117q0 -177 96.5 -298.5t253.5 -121.5q115 0 229.5 62.5t194.5 164.5l17 -16q-84 -104 -202 -167.5t-241 -63.5q-164 0 -267 127t-103 311zM186 557 h820q16 59 16 117q0 139 -96.5 239t-241.5 99q-121 -1 -226.5 -64t-174.5 -165.5t-97 -225.5zM563 1358q0 15 4 43h21q-4 -28 -4 -41q0 -62 37 -98.5t110 -36.5q83 0 136.5 49.5t66.5 126.5h22q-14 -87 -73.5 -141t-153.5 -54q-79 0 -122.5 42t-43.5 110z" />
<glyph unicode="&#x116;" horiz-adv-x="1126" d="M16 0l4 20h189l246 1393h-189l4 21h828l-56 -322h-22l51 301h-594l-117 -655h529l-4 -21h-527l-127 -717h615l55 322h23l-60 -342h-848zM731 1714q0 22 13.5 36.5t35.5 14.5q23 0 38.5 -14.5t15.5 -36.5t-15.5 -36.5t-38.5 -14.5q-22 0 -35.5 14.5t-13.5 36.5z" />
<glyph unicode="&#x117;" horiz-adv-x="1177" d="M150 418q0 116 41.5 227.5t111.5 197t169.5 137.5t209.5 52q154 0 258 -104t104 -254q0 -65 -20 -137h-842q-10 -65 -10 -117q0 -177 96.5 -298.5t253.5 -121.5q115 0 229.5 62.5t194.5 164.5l17 -16q-84 -104 -202 -167.5t-241 -63.5q-164 0 -267 127t-103 311zM186 557 h820q16 59 16 117q0 139 -96.5 239t-241.5 99q-121 -1 -226.5 -64t-174.5 -165.5t-97 -225.5zM690 1313q0 22 13.5 36.5t35.5 14.5q23 0 38.5 -14.5t15.5 -36.5t-15.5 -36.5t-38.5 -14.5q-22 0 -35.5 14.5t-13.5 36.5z" />
<glyph unicode="&#x118;" horiz-adv-x="1126" d="M16 0l4 20h189l246 1393h-189l4 21h828l-56 -322h-22l51 301h-594l-117 -655h529l-4 -21h-527l-127 -717h615l55 322h23l-60 -342h-16q-92 -47 -145.5 -108.5t-53.5 -133.5q0 -51 31 -83.5t80 -32.5q29 0 63.5 15.5t61.5 39.5l10 -19q-60 -57 -141 -57q-53 0 -90 40 t-37 95q0 74 50.5 138.5t133.5 105.5h-795z" />
<glyph unicode="&#x119;" horiz-adv-x="1177" d="M150 418q0 116 41.5 227.5t111.5 197t169.5 137.5t209.5 52q154 0 258 -104t104 -254q0 -65 -20 -137h-842q-10 -65 -10 -117q0 -177 96.5 -298.5t253.5 -121.5q115 0 229.5 62.5t194.5 164.5l17 -16q-76 -94 -181 -156q-78 -68 -121 -112.5t-69.5 -91.5t-26.5 -93 q0 -51 31 -83.5t80 -32.5q29 0 63.5 15.5t61.5 39.5l10 -19q-60 -57 -141 -57q-53 0 -90 40t-37 95q0 65 45 127.5t139 143.5q-100 -47 -207 -47q-164 0 -267 127t-103 311zM186 557h820q16 59 16 117q0 139 -96.5 239t-241.5 99q-121 -1 -226.5 -64t-174.5 -165.5 t-97 -225.5z" />
<glyph unicode="&#x11a;" horiz-adv-x="1126" d="M16 0l4 20h189l246 1393h-189l4 21h828l-56 -322h-22l51 301h-594l-117 -655h529l-4 -21h-527l-127 -717h615l55 322h23l-60 -342h-848zM582 1837h28l138 -227l215 227h32l-231 -244h-33z" />
<glyph unicode="&#x11b;" horiz-adv-x="1177" d="M150 418q0 116 41.5 227.5t111.5 197t169.5 137.5t209.5 52q154 0 258 -104t104 -254q0 -65 -20 -137h-842q-10 -65 -10 -117q0 -177 96.5 -298.5t253.5 -121.5q115 0 229.5 62.5t194.5 164.5l17 -16q-84 -104 -202 -167.5t-241 -63.5q-164 0 -267 127t-103 311zM186 557 h820q16 59 16 117q0 139 -96.5 239t-241.5 99q-121 -1 -226.5 -64t-174.5 -165.5t-97 -225.5zM541 1436h28l138 -228l215 228h32l-231 -244h-33z" />
<glyph unicode="&#x11c;" horiz-adv-x="1486" d="M180 586q0 173 58.5 331.5t159 277t244.5 189t306 70.5q231 0 475 -98l-51 -289h-22l49 272q-223 91 -449 91q-161 0 -301.5 -69.5t-236.5 -185.5t-151.5 -269.5t-55.5 -319.5q0 -121 32 -226t92 -184.5t153.5 -125.5t209.5 -46q207 0 374 161t234 431h-407l4 22h432 l-108 -618h-23l84 475q-80 -225 -240.5 -360t-353.5 -135q-157 0 -274 83t-175.5 219t-58.5 304zM748 1593l231 244h33l149 -244h-28l-138 228l-215 -228h-32z" />
<glyph unicode="&#x11d;" horiz-adv-x="1263" d="M100 -262l15 16q57 -57 140.5 -89t174.5 -32q78 0 156.5 25.5t147.5 74t119.5 126.5t66.5 174l57 327q-30 -76 -75.5 -142t-106 -120.5t-140 -86t-168.5 -31.5q-96 0 -174.5 60.5t-120.5 158t-42 209.5q0 163 68 307t184.5 230.5t250.5 86.5q170 0 269.5 -106t109.5 -260 l62 346h20l-172 -977q-14 -83 -51.5 -153t-88.5 -119t-114 -83.5t-130 -50.5t-134 -16q-91 0 -179.5 34.5t-144.5 90.5zM172 408q0 -106 39 -199t112.5 -151t165.5 -58q143 0 266.5 93t192 237t68.5 297q0 170 -101.5 277.5t-261.5 107.5q-128 0 -239.5 -84t-176.5 -223.5 t-65 -296.5zM489 1204l232 244h33l149 -244h-29l-137 228l-215 -228h-33z" />
<glyph unicode="&#x11e;" horiz-adv-x="1486" d="M180 586q0 173 58.5 331.5t159 277t244.5 189t306 70.5q231 0 475 -98l-51 -289h-22l49 272q-223 91 -449 91q-161 0 -301.5 -69.5t-236.5 -185.5t-151.5 -269.5t-55.5 -319.5q0 -121 32 -226t92 -184.5t153.5 -125.5t209.5 -46q207 0 374 161t234 431h-407l4 22h432 l-108 -618h-23l84 475q-80 -225 -240.5 -360t-353.5 -135q-157 0 -274 83t-175.5 219t-58.5 304zM793 1759q0 15 4 43h20q-4 -28 -4 -41q0 -61 37 -98t111 -37q83 0 136 49.5t66 126.5h23q-14 -86 -74 -140t-154 -54q-79 0 -122 41.5t-43 109.5z" />
<glyph unicode="&#x11f;" horiz-adv-x="1263" d="M100 -262l15 16q57 -57 140.5 -89t174.5 -32q78 0 156.5 25.5t147.5 74t119.5 126.5t66.5 174l57 327q-30 -76 -75.5 -142t-106 -120.5t-140 -86t-168.5 -31.5q-96 0 -174.5 60.5t-120.5 158t-42 209.5q0 163 68 307t184.5 230.5t250.5 86.5q170 0 269.5 -106t109.5 -260 l62 346h20l-172 -977q-14 -83 -51.5 -153t-88.5 -119t-114 -83.5t-130 -50.5t-134 -16q-91 0 -179.5 34.5t-144.5 90.5zM172 408q0 -106 39 -199t112.5 -151t165.5 -58q143 0 266.5 93t192 237t68.5 297q0 170 -101.5 277.5t-261.5 107.5q-128 0 -239.5 -84t-176.5 -223.5 t-65 -296.5zM535 1370q0 15 4 43h20q-4 -28 -4 -41q0 -62 36.5 -98.5t110.5 -36.5q83 0 136.5 49.5t66.5 126.5h23q-14 -86 -74 -140t-154 -54q-79 0 -122 41.5t-43 109.5z" />
<glyph unicode="&#x120;" horiz-adv-x="1486" d="M180 586q0 173 58.5 331.5t159 277t244.5 189t306 70.5q231 0 475 -98l-51 -289h-22l49 272q-223 91 -449 91q-161 0 -301.5 -69.5t-236.5 -185.5t-151.5 -269.5t-55.5 -319.5q0 -121 32 -226t92 -184.5t153.5 -125.5t209.5 -46q207 0 374 161t234 431h-407l4 22h432 l-108 -618h-23l84 475q-80 -225 -240.5 -360t-353.5 -135q-157 0 -274 83t-175.5 219t-58.5 304zM920 1714q0 22 13.5 36.5t35.5 14.5q23 0 38 -14.5t15 -36.5t-15 -36.5t-38 -14.5q-22 0 -35.5 14.5t-13.5 36.5z" />
<glyph unicode="&#x121;" horiz-adv-x="1263" d="M100 -262l15 16q57 -57 140.5 -89t174.5 -32q78 0 156.5 25.5t147.5 74t119.5 126.5t66.5 174l57 327q-30 -76 -75.5 -142t-106 -120.5t-140 -86t-168.5 -31.5q-96 0 -174.5 60.5t-120.5 158t-42 209.5q0 163 68 307t184.5 230.5t250.5 86.5q170 0 269.5 -106t109.5 -260 l62 346h20l-172 -977q-14 -83 -51.5 -153t-88.5 -119t-114 -83.5t-130 -50.5t-134 -16q-91 0 -179.5 34.5t-144.5 90.5zM172 408q0 -106 39 -199t112.5 -151t165.5 -58q143 0 266.5 93t192 237t68.5 297q0 170 -101.5 277.5t-261.5 107.5q-128 0 -239.5 -84t-176.5 -223.5 t-65 -296.5zM662 1325q0 22 13.5 36.5t35.5 14.5q23 0 38 -14.5t15 -36.5t-15 -36.5t-38 -14.5q-22 0 -35.5 14.5t-13.5 36.5z" />
<glyph unicode="&#x122;" horiz-adv-x="1486" d="M180 586q0 173 58.5 331.5t159 277t244.5 189t306 70.5q231 0 475 -98l-51 -289h-22l49 272q-223 91 -449 91q-161 0 -301.5 -69.5t-236.5 -185.5t-151.5 -269.5t-55.5 -319.5q0 -121 32 -226t92 -184.5t153.5 -125.5t209.5 -46q207 0 374 161t234 431h-407l4 22h432 l-108 -618h-23l84 475q-80 -225 -240.5 -360t-353.5 -135q-157 0 -274 83t-175.5 219t-58.5 304zM557 -369q36 29 57 67.5t21 72.5q0 37 -25 69l70 33q25 -38 25 -76q0 -85 -136 -180z" />
<glyph unicode="&#x123;" horiz-adv-x="1263" d="M100 -262l15 16q57 -57 140.5 -89t174.5 -32q78 0 156.5 25.5t147.5 74t119.5 126.5t66.5 174l57 327q-30 -76 -75.5 -142t-106 -120.5t-140 -86t-168.5 -31.5q-96 0 -174.5 60.5t-120.5 158t-42 209.5q0 163 68 307t184.5 230.5t250.5 86.5q170 0 269.5 -106t109.5 -260 l62 346h20l-172 -977q-14 -83 -51.5 -153t-88.5 -119t-114 -83.5t-130 -50.5t-134 -16q-91 0 -179.5 34.5t-144.5 90.5zM172 408q0 -106 39 -199t112.5 -151t165.5 -58q143 0 266.5 93t192 237t68.5 297q0 170 -101.5 277.5t-261.5 107.5q-128 0 -239.5 -84t-176.5 -223.5 t-65 -296.5zM672 1274q0 86 135 180l12 -14q-36 -29 -57 -67.5t-21 -72.5q0 -37 25 -69l-70 -33q-24 36 -24 76z" />
<glyph unicode="&#x124;" horiz-adv-x="1544" d="M18 0l5 20h188l244 1393h-189l4 21h400l-4 -21h-189l-117 -670h908l116 670h-188l4 21h399l-4 -21h-188l-244 -1393h189l-4 -20h-400l4 20h189l123 703h-908l-123 -703h189l-4 -20h-400zM756 1593l231 244h33l149 -244h-28l-137 228l-216 -228h-32z" />
<glyph unicode="&#x125;" horiz-adv-x="1277" d="M182 0l256 1462h-188l4 19h209l-129 -742q55 126 169.5 209.5t244.5 83.5q140 0 222.5 -75.5t82.5 -206.5q0 -38 -6 -82l-113 -650h188l-4 -18h-209l117 664q6 40 6 84q0 122 -76.5 193t-210.5 71q-147 0 -276 -117t-156 -266l-110 -629h-21zM541 1581l231 244h33 l149 -244h-28l-138 227l-215 -227h-32z" />
<glyph unicode="&#x126;" horiz-adv-x="1544" d="M18 0l5 20h188l184 1053h-184l2 21h186l56 319h-189l4 21h400l-4 -21h-189l-55 -319h907l55 319h-188l4 21h399l-4 -21h-188l-55 -319h188l-4 -21h-188l-185 -1053h189l-4 -20h-400l4 20h189l123 703h-908l-123 -703h189l-4 -20h-400zM360 743h908l57 330h-907z" />
<glyph unicode="&#x127;" horiz-adv-x="1277" d="M182 0l217 1231h-190l4 18h188l37 213h-188l4 19h209l-41 -232h332l-4 -18h-330l-86 -492q55 126 169.5 209.5t244.5 83.5q140 0 222.5 -75.5t82.5 -206.5q0 -38 -6 -82l-113 -650h188l-4 -18h-209l117 664q6 40 6 84q0 122 -76.5 193t-210.5 71q-147 0 -276 -117 t-156 -266l-110 -629h-21z" />
<glyph unicode="&#x128;" horiz-adv-x="612" d="M16 0l4 20h189l246 1393h-189l4 21h400l-4 -21h-189l-246 -1393h189l-4 -20h-400zM246 1663q23 61 64 97t96 36q32 0 65 -17t57 -37t56 -37t63 -17q83 0 135 112h21q-23 -61 -64 -97t-96 -36q-33 0 -66.5 17t-57 37.5t-55.5 37.5t-63 17q-83 0 -135 -113h-20z" />
<glyph unicode="&#x129;" horiz-adv-x="563" d="M133 1262q23 61 64 97t96 36q32 0 65.5 -17t57 -37.5t56 -37.5t63.5 -17q83 0 135 113h20q-23 -61 -64 -97t-96 -36q-33 0 -66 17t-56.5 37t-55.5 37t-63 17q-83 0 -135 -112h-21zM168 993l4 19h209l-174 -994h188l-4 -18h-209l174 993h-188z" />
<glyph unicode="&#x12a;" horiz-adv-x="612" d="M16 0l4 20h189l246 1393h-189l4 21h400l-4 -21h-189l-246 -1393h189l-4 -20h-400zM272 1702l4 18h508l-4 -18h-508z" />
<glyph unicode="&#x12b;" horiz-adv-x="563" d="M160 1300l4 19h508l-4 -19h-508zM168 993l4 19h209l-174 -994h188l-4 -18h-209l174 993h-188z" />
<glyph unicode="&#x12c;" horiz-adv-x="612" d="M16 0l4 20h189l246 1393h-189l4 21h400l-4 -21h-189l-246 -1393h189l-4 -20h-400zM336 1759q0 15 4 43h20q-4 -28 -4 -41q0 -61 37 -98t111 -37q83 0 136.5 49.5t66.5 126.5h22q-14 -86 -73.5 -140t-153.5 -54q-80 0 -123 41.5t-43 109.5z" />
<glyph unicode="&#x12d;" horiz-adv-x="563" d="M168 993l4 19h209l-174 -994h188l-4 -18h-209l174 993h-188zM223 1358q0 15 4 43h21q-4 -28 -4 -41q0 -62 37 -98.5t110 -36.5q83 0 136.5 49.5t66.5 126.5h22q-14 -87 -73.5 -141t-153.5 -54q-79 0 -122.5 42t-43.5 110z" />
<glyph unicode="&#x12e;" horiz-adv-x="612" d="M16 0l4 20h189l246 1393h-189l4 21h400l-4 -21h-189l-246 -1393h189l-4 -20h-107q-92 -46 -145 -108t-53 -134q0 -51 30.5 -83.5t79.5 -32.5q29 0 63.5 15.5t61.5 39.5l10 -19q-60 -57 -141 -57q-53 0 -90 40t-37 95q0 74 50.5 138.5t133.5 105.5h-256z" />
<glyph unicode="&#x12f;" horiz-adv-x="610" d="M115 -244q0 74 50.5 138.5t133.5 105.5h-117l174 993h-188l4 19h209l-174 -994h188l-4 -18h-55q-92 -47 -145.5 -108.5t-53.5 -133.5q0 -51 31 -83.5t80 -32.5q29 0 63.5 15.5t61.5 39.5l10 -19q-60 -57 -141 -57q-53 0 -90 40t-37 95zM365 1313q0 22 13.5 36.5 t35.5 14.5q23 0 38 -14.5t15 -36.5t-15 -36.5t-38 -14.5q-22 0 -35.5 14.5t-13.5 36.5z" />
<glyph unicode="&#x130;" horiz-adv-x="612" d="M16 0l4 20h189l246 1393h-189l4 21h400l-4 -21h-189l-246 -1393h189l-4 -20h-400zM463 1714q0 22 13.5 36.5t35.5 14.5q23 0 38 -14.5t15 -36.5t-15 -36.5t-38 -14.5q-22 0 -35.5 14.5t-13.5 36.5z" />
<glyph unicode="&#x131;" horiz-adv-x="563" d="M168 993l4 19h209l-174 -994h188l-4 -18h-209l174 993h-188z" />
<glyph unicode="&#x132;" horiz-adv-x="1255" d="M16 0l4 20h189l246 1393h-189l4 21h400l-4 -21h-189l-246 -1393h189l-4 -20h-400zM457 -168l10 23q60 -31 133 -31q102 0 182 71t103 195l233 1323h-233l4 21h444l-4 -21h-188l-236 -1331q-23 -130 -109.5 -206.5t-195.5 -76.5q-67 0 -143 33z" />
<glyph unicode="&#x133;" horiz-adv-x="1142" d="M168 993l4 19h209l-174 -994h188l-4 -18h-209l174 993h-188zM365 1313q0 22 13.5 36.5t35.5 14.5q23 0 38 -14.5t15 -36.5t-15 -36.5t-38 -14.5q-22 0 -35.5 14.5t-13.5 36.5zM432 -377l4 21q42 -11 84 -11q82 0 145.5 67.5t84.5 184.5l196 1108h-188l4 19h209 l-201 -1131q-23 -126 -90.5 -197t-159.5 -71q-46 0 -88 10zM944 1313q0 21 15 36t36 15q22 0 37 -14.5t15 -36.5t-15 -36.5t-37 -14.5q-21 0 -36 15t-15 36z" />
<glyph unicode="&#x134;" horiz-adv-x="643" d="M-156 -168l11 23q60 -31 133 -31q102 0 181.5 71t102.5 195l234 1323h-234l4 21h445l-4 -21h-189l-235 -1331q-23 -130 -109.5 -206.5t-195.5 -76.5q-68 0 -144 33zM317 1614l232 244h33l149 -244h-29l-137 227l-215 -227h-33z" />
<glyph unicode="&#x135;" horiz-adv-x="555" d="M-131 -377l4 21q42 -11 84 -11q81 0 144.5 67.5t84.5 184.5l197 1108h-188l4 19h209l-201 -1131q-23 -126 -90.5 -197t-159.5 -71q-46 0 -88 10zM197 1192l231 244h33l149 -244h-28l-138 227l-215 -227h-32z" />
<glyph unicode="&#x136;" horiz-adv-x="1249" d="M18 0l5 20h188l244 1393h-189l4 21h396l-4 -21h-185l-117 -661l809 661h-196l4 21h403l-4 -21h-176l-823 -676l598 -717h188l-4 -20h-414l5 20h196l-590 707l-123 -707h189l-4 -20h-400zM453 -369q36 29 56.5 67t20.5 73q0 38 -24 69l69 33q25 -38 25 -76 q0 -86 -135 -180z" />
<glyph unicode="&#x137;" horiz-adv-x="1034" d="M182 0l256 1462h-188l4 19h209l-160 -899q201 46 364 159.5t236 270.5h23q-81 -168 -240 -282t-364 -163l440 -549h186l-4 -18h-194l-449 561l-98 -561h-21zM369 -369q36 29 56.5 67t20.5 73q0 38 -24 69l70 33q24 -36 24 -76q0 -86 -135 -180z" />
<glyph unicode="&#x138;" horiz-adv-x="1036" d="M168 993l4 19h209l-76 -430q201 46 364 159.5t236 270.5h23q-81 -168 -240 -282t-364 -163l440 -549h186l-4 -18h-194l-449 561l-98 -561h-21l172 993h-188z" />
<glyph unicode="&#x139;" horiz-adv-x="1064" d="M16 0l4 20h189l246 1393h-189l4 21h412l-4 -21h-201l-246 -1393h615l59 342h23l-64 -362h-848zM446 1593l183 250h33l-189 -250h-27z" />
<glyph unicode="&#x13a;" horiz-adv-x="563" d="M182 0l256 1462h-188l4 19h209l-256 -1463h188l-4 -18h-209zM436 1640l182 250h33l-188 -250h-27z" />
<glyph unicode="&#x13b;" horiz-adv-x="1064" d="M16 0l4 20h189l246 1393h-189l4 21h412l-4 -21h-201l-246 -1393h615l59 342h23l-64 -362h-848zM410 -369q36 29 56.5 67t20.5 73q0 38 -24 69l69 33q25 -38 25 -76q0 -86 -135 -180z" />
<glyph unicode="&#x13c;" horiz-adv-x="563" d="M88 -369q36 29 57 67.5t21 72.5q0 37 -25 69l70 33q25 -37 25 -76q0 -85 -136 -180zM182 0l256 1462h-188l4 19h209l-256 -1463h188l-4 -18h-209z" />
<glyph unicode="&#x13d;" horiz-adv-x="1064" d="M16 0l4 20h189l246 1393h-189l4 21h412l-4 -21h-201l-246 -1393h615l59 342h23l-64 -362h-848zM831 1133l91 348h22l-92 -348h-21z" />
<glyph unicode="&#x13e;" horiz-adv-x="550" d="M182 0l256 1462h-188l4 19h209l-256 -1463h188l-4 -18h-209zM557 1133l90 348h23l-92 -348h-21z" />
<glyph unicode="&#x13f;" horiz-adv-x="1126" d="M16 0l4 20h189l246 1393h-189l4 21h412l-4 -21h-201l-246 -1393h615l59 342h23l-64 -362h-848zM866 705q0 24 19 42.5t43 18.5q25 0 43 -18t18 -43t-18 -43.5t-43 -18.5q-24 0 -43 19t-19 43z" />
<glyph unicode="&#x140;" horiz-adv-x="749" d="M182 0l256 1462h-188l4 19h209l-256 -1463h188l-4 -18h-209zM621 705q0 24 18.5 42.5t42.5 18.5q25 0 43 -18t18 -43t-18 -43.5t-43 -18.5q-24 0 -42.5 18.5t-18.5 43.5z" />
<glyph unicode="&#x141;" horiz-adv-x="1138" d="M90 0l4 20h189l123 701l-281 -115l4 23l281 114l118 670h-188l4 21h412l-4 -21h-201l-117 -659l359 147l-5 -22l-358 -148l-125 -711h615l59 342h22l-63 -362h-848z" />
<glyph unicode="&#x142;" horiz-adv-x="600" d="M70 647l4 23l264 135l115 657h-189l4 19h209l-117 -664l275 141l-4 -22l-275 -141l-135 -777h189l-4 -18h-209l137 782z" />
<glyph unicode="&#x143;" horiz-adv-x="1546" d="M18 0l5 20h188l244 1393h-189l4 21h213l680 -1399l242 1378h-188l4 21h399l-4 -21h-189l-247 -1413h-25l-680 1397l-242 -1377h189l-4 -20h-400zM895 1593l182 250h33l-188 -250h-27z" />
<glyph unicode="&#x144;" horiz-adv-x="1277" d="M168 993l4 19h209l-47 -273q55 126 169.5 209.5t244.5 83.5q140 0 222.5 -75.5t82.5 -206.5q0 -38 -6 -82l-113 -650h188l-4 -18h-209l117 664q6 40 6 84q0 122 -76.5 193t-210.5 71q-147 0 -276 -117t-156 -266l-110 -629h-21l174 993h-188zM715 1194l182 250h33 l-189 -250h-26z" />
<glyph unicode="&#x145;" horiz-adv-x="1546" d="M18 0l5 20h188l244 1393h-189l4 21h213l680 -1399l242 1378h-188l4 21h399l-4 -21h-189l-247 -1413h-25l-680 1397l-242 -1377h189l-4 -20h-400zM592 -369q36 29 57 67.5t21 72.5q0 37 -25 69l70 33q24 -36 24 -76q0 -86 -135 -180z" />
<glyph unicode="&#x146;" horiz-adv-x="1277" d="M168 993l4 19h209l-47 -273q55 126 169.5 209.5t244.5 83.5q140 0 222.5 -75.5t82.5 -206.5q0 -38 -6 -82l-113 -650h188l-4 -18h-209l117 664q6 40 6 84q0 122 -76.5 193t-210.5 71q-147 0 -276 -117t-156 -266l-110 -629h-21l174 993h-188zM455 -369q36 29 56.5 67 t20.5 73q0 38 -24 69l70 33q24 -36 24 -76q0 -86 -135 -180z" />
<glyph unicode="&#x147;" horiz-adv-x="1546" d="M18 0l5 20h188l244 1393h-189l4 21h213l680 -1399l242 1378h-188l4 21h399l-4 -21h-189l-247 -1413h-25l-680 1397l-242 -1377h189l-4 -20h-400zM758 1837h28l138 -227l215 227h32l-231 -244h-33z" />
<glyph unicode="&#x148;" horiz-adv-x="1277" d="M168 993l4 19h209l-47 -273q55 126 169.5 209.5t244.5 83.5q140 0 222.5 -75.5t82.5 -206.5q0 -38 -6 -82l-113 -650h188l-4 -18h-209l117 664q6 40 6 84q0 122 -76.5 193t-210.5 71q-147 0 -276 -117t-156 -266l-110 -629h-21l174 993h-188zM578 1438h28l137 -228 l215 228h33l-231 -244h-33z" />
<glyph unicode="&#x149;" horiz-adv-x="1333" d="M127 1139q78 75 78 157q0 41 -27 76l74 35q27 -39 27 -80q0 -90 -140 -203zM223 993l4 19h209l-47 -273q55 126 169.5 209.5t244.5 83.5q140 0 222.5 -75.5t82.5 -206.5q0 -38 -6 -82l-113 -650h189l-4 -18h-209l116 664q6 40 6 84q0 122 -76 193t-210 71 q-147 0 -276 -117t-156 -266l-111 -629h-20l174 993h-189z" />
<glyph unicode="&#x14a;" horiz-adv-x="1546" d="M18 0l5 20h188l244 1393h-189l4 21h213l680 -1399l242 1378h-188l4 21h399l-4 -21h-189l-268 -1532q-23 -127 -90.5 -197.5t-159.5 -70.5q-46 0 -88 10l4 21q42 -11 84 -11q82 0 145.5 67t84.5 185l20 109l-684 1403l-242 -1377h189l-4 -20h-400z" />
<glyph unicode="&#x14b;" horiz-adv-x="1257" d="M168 993l4 19h209l-47 -273q55 126 169.5 209.5t244.5 83.5q140 0 222.5 -75.5t82.5 -206.5q0 -38 -6 -82l-138 -787q-23 -126 -90.5 -197t-159.5 -71q-46 0 -88 10l4 21q42 -11 84 -11q81 0 145 68t85 184l137 779q6 40 6 84q0 122 -76.5 193t-210.5 71 q-147 0 -276 -117t-156 -266l-110 -629h-21l174 993h-188z" />
<glyph unicode="&#x14c;" horiz-adv-x="1574" d="M178 569q0 174 59.5 336.5t160.5 283t244.5 193t303.5 72.5q241 0 385 -158t144 -411q0 -171 -61 -335.5t-163 -290t-247.5 -202.5t-303.5 -77q-240 0 -381 164t-141 425zM201 569q0 -163 58 -290t172.5 -201t270.5 -74q124 0 240 49t207 134.5t159.5 196t105 239.5 t36.5 260q0 244 -135.5 395.5t-370.5 151.5q-124 0 -239.5 -46t-205.5 -127.5t-158 -189t-104 -236t-36 -262.5zM754 1702l4 18h508l-4 -18h-508z" />
<glyph unicode="&#x14d;" horiz-adv-x="1212" d="M150 418q0 118 41 230t110.5 196.5t169 136t209.5 51.5q169 0 277 -119t108 -307q0 -160 -70.5 -304t-193.5 -233t-266 -89q-172 0 -278.5 123.5t-106.5 314.5zM172 418q0 -183 99.5 -300.5t263.5 -117.5q137 0 255 87t185 226.5t67 292.5q0 182 -101.5 294t-260.5 112 q-140 0 -258 -84t-184 -220t-66 -290zM485 1300l4 19h508l-4 -19h-508z" />
<glyph unicode="&#x14e;" horiz-adv-x="1574" d="M178 569q0 174 59.5 336.5t160.5 283t244.5 193t303.5 72.5q241 0 385 -158t144 -411q0 -171 -61 -335.5t-163 -290t-247.5 -202.5t-303.5 -77q-240 0 -381 164t-141 425zM201 569q0 -163 58 -290t172.5 -201t270.5 -74q124 0 240 49t207 134.5t159.5 196t105 239.5 t36.5 260q0 244 -135.5 395.5t-370.5 151.5q-124 0 -239.5 -46t-205.5 -127.5t-158 -189t-104 -236t-36 -262.5zM817 1759q0 15 4 43h21q-4 -28 -4 -41q0 -61 37 -98t110 -37q83 0 136.5 49.5t66.5 126.5h22q-14 -86 -73.5 -140t-153.5 -54q-80 0 -123 41.5t-43 109.5z" />
<glyph unicode="&#x14f;" horiz-adv-x="1212" d="M150 418q0 118 41 230t110.5 196.5t169 136t209.5 51.5q169 0 277 -119t108 -307q0 -160 -70.5 -304t-193.5 -233t-266 -89q-172 0 -278.5 123.5t-106.5 314.5zM172 418q0 -183 99.5 -300.5t263.5 -117.5q137 0 255 87t185 226.5t67 292.5q0 182 -101.5 294t-260.5 112 q-140 0 -258 -84t-184 -220t-66 -290zM549 1358q0 15 4 43h20q-4 -28 -4 -41q0 -61 37 -98t111 -37q83 0 136.5 49.5t66.5 126.5h22q-14 -87 -73.5 -141t-153.5 -54q-79 0 -122.5 42t-43.5 110z" />
<glyph unicode="&#x150;" horiz-adv-x="1574" d="M178 569q0 174 59.5 336.5t160.5 283t244.5 193t303.5 72.5q241 0 385 -158t144 -411q0 -171 -61 -335.5t-163 -290t-247.5 -202.5t-303.5 -77q-240 0 -381 164t-141 425zM201 569q0 -163 58 -290t172.5 -201t270.5 -74q124 0 240 49t207 134.5t159.5 196t105 239.5 t36.5 260q0 244 -135.5 395.5t-370.5 151.5q-124 0 -239.5 -46t-205.5 -127.5t-158 -189t-104 -236t-36 -262.5zM848 1606l164 237h32l-170 -237h-26zM1051 1606l163 237h33l-170 -237h-26z" />
<glyph unicode="&#x151;" horiz-adv-x="1212" d="M150 418q0 118 41 230t110.5 196.5t169 136t209.5 51.5q169 0 277 -119t108 -307q0 -160 -70.5 -304t-193.5 -233t-266 -89q-172 0 -278.5 123.5t-106.5 314.5zM172 418q0 -183 99.5 -300.5t263.5 -117.5q137 0 255 87t185 226.5t67 292.5q0 182 -101.5 294t-260.5 112 q-140 0 -258 -84t-184 -220t-66 -290zM580 1204l163 238h33l-170 -238h-26zM782 1204l164 238h33l-170 -238h-27z" />
<glyph unicode="&#x152;" horiz-adv-x="2179" d="M178 569q0 174 59.5 336.5t160.5 283t244.5 193t303.5 72.5q77 0 148 -22v2h1056l-55 -322h-22l51 301h-979q144 -64 226.5 -211t82.5 -330q0 -56 -6 -114h494l-5 -21h-493q-22 -158 -94 -302.5t-184 -254t-246 -160.5h978l56 322h22l-59 -342h-1061q-73 -20 -156 -20 q-240 0 -381 164t-141 425zM201 569q0 -163 58 -290t172.5 -201t270.5 -74q150 0 287 75t232.5 196t152 277.5t56.5 317.5q0 153 -56.5 279t-168.5 203.5t-261 77.5q-124 0 -239.5 -46t-205.5 -127.5t-158 -189t-104 -236t-36 -262.5z" />
<glyph unicode="&#x153;" horiz-adv-x="2082" d="M150 418q0 159 70.5 299.5t196.5 227.5t275 87q173 0 282 -117t111 -303q56 179 193 299.5t309 120.5q154 0 258.5 -104t104.5 -254q0 -62 -21 -137h-842q-10 -65 -10 -117q0 -177 96.5 -298.5t253.5 -121.5q115 0 229.5 62.5t194.5 164.5l17 -16q-84 -104 -202 -167.5 t-241 -63.5q-108 0 -193 60t-130 157t-47 211q-57 -184 -196.5 -306t-311.5 -122q-178 0 -287.5 123.5t-109.5 314.5zM172 418q0 -183 103 -300.5t272 -117.5q140 0 261 87t190 226.5t69 292.5q0 182 -105 294t-270 112q-143 0 -264 -84t-188.5 -220t-67.5 -290zM1092 557 h819q16 59 16 117q0 139 -96.5 239t-241.5 99q-91 -1 -175 -37.5t-147 -99t-108.5 -144.5t-66.5 -174z" />
<glyph unicode="&#x154;" horiz-adv-x="1218" d="M18 0l5 20h188l244 1393h-189l4 21h482q147 0 241 -80.5t94 -214.5q0 -186 -137.5 -313.5t-335.5 -127.5l316 -678h203l-5 -20h-215l-319 696h-242l-119 -676h218l-5 -20h-428zM356 717h254q122 0 226 54.5t165.5 151.5t61.5 214q0 129 -87.5 202.5t-232.5 73.5h-266z M737 1593l183 250h32l-188 -250h-27z" />
<glyph unicode="&#x155;" horiz-adv-x="792" d="M168 993l4 19h209l-53 -307q53 140 155 233.5t215 93.5q65 0 117 -22l-14 -25q-52 25 -107 25q-86 0 -170.5 -64t-142 -162.5t-76.5 -203.5l-102 -580h-21l174 993h-188zM545 1204l182 250h33l-189 -250h-26z" />
<glyph unicode="&#x156;" horiz-adv-x="1218" d="M18 0l5 20h188l244 1393h-189l4 21h482q147 0 241 -80.5t94 -214.5q0 -186 -137.5 -313.5t-335.5 -127.5l316 -678h203l-5 -20h-215l-319 696h-242l-119 -676h218l-5 -20h-428zM356 717h254q122 0 226 54.5t165.5 151.5t61.5 214q0 129 -87.5 202.5t-232.5 73.5h-266z M481 -369q36 29 57 67.5t21 72.5q0 38 -24 69l69 33q25 -38 25 -76q0 -86 -135 -180z" />
<glyph unicode="&#x157;" horiz-adv-x="792" d="M90 -369q36 29 57 67.5t21 72.5q0 37 -25 69l70 33q25 -37 25 -76q0 -85 -136 -180zM168 993l4 19h209l-53 -307q53 140 155 233.5t215 93.5q65 0 117 -22l-14 -25q-52 25 -107 25q-86 0 -170.5 -64t-142 -162.5t-76.5 -203.5l-102 -580h-21l174 993h-188z" />
<glyph unicode="&#x158;" horiz-adv-x="1218" d="M18 0l5 20h188l244 1393h-189l4 21h482q147 0 241 -80.5t94 -214.5q0 -186 -137.5 -313.5t-335.5 -127.5l316 -678h203l-5 -20h-215l-319 696h-242l-119 -676h218l-5 -20h-428zM356 717h254q122 0 226 54.5t165.5 151.5t61.5 214q0 129 -87.5 202.5t-232.5 73.5h-266z M600 1837h29l137 -227l215 227h33l-232 -244h-32z" />
<glyph unicode="&#x159;" horiz-adv-x="792" d="M168 993l4 19h209l-53 -307q53 140 155 233.5t215 93.5q65 0 117 -22l-14 -25q-52 25 -107 25q-86 0 -170.5 -64t-142 -162.5t-76.5 -203.5l-102 -580h-21l174 993h-188zM408 1448h28l137 -227l215 227h33l-231 -244h-33z" />
<glyph unicode="&#x15a;" horiz-adv-x="1030" d="M66 61l53 308h22l-51 -291q162 -74 344 -74q168 0 286 114.5t118 278.5q0 68 -32 126.5t-83 101t-112.5 81.5t-123 78.5t-112.5 82.5t-83 102t-32 129q0 156 109.5 256t267.5 100q154 0 340 -72l-53 -301h-23l51 285q-159 64 -313 64q-152 0 -253 -92.5t-101 -239.5 q0 -59 25 -110t65.5 -88t92 -74.5t106 -68t106 -69t92 -78t65.5 -94t25 -117.5q0 -174 -126 -296.5t-302 -122.5q-187 0 -368 81zM635 1593l182 250h33l-188 -250h-27z" />
<glyph unicode="&#x15b;" horiz-adv-x="974" d="M88 47l47 256h21l-45 -240q146 -63 319 -63q131 0 227.5 79.5t96.5 203.5q0 55 -29.5 99.5t-76 75t-103.5 57t-113.5 51.5t-103 53t-76 68.5t-29.5 90.5q0 115 93.5 184.5t220.5 69.5q159 0 301 -63l-37 -213h-21l35 198q-129 58 -276 58q-119 0 -206 -64t-87 -168 q0 -40 23 -74.5t60 -58.5t84.5 -48t97.5 -44.5t97.5 -47.5t84.5 -55.5t60 -71t23 -93.5q0 -133 -102.5 -220t-245.5 -87q-172 0 -340 67zM537 1204l182 250h33l-189 -250h-26z" />
<glyph unicode="&#x15c;" horiz-adv-x="1030" d="M66 61l53 308h22l-51 -291q162 -74 344 -74q168 0 286 114.5t118 278.5q0 68 -32 126.5t-83 101t-112.5 81.5t-123 78.5t-112.5 82.5t-83 102t-32 129q0 156 109.5 256t267.5 100q154 0 340 -72l-53 -301h-23l51 285q-159 64 -313 64q-152 0 -253 -92.5t-101 -239.5 q0 -59 25 -110t65.5 -88t92 -74.5t106 -68t106 -69t92 -78t65.5 -94t25 -117.5q0 -174 -126 -296.5t-302 -122.5q-187 0 -368 81zM475 1593l232 244h32l150 -244h-29l-137 228l-215 -228h-33z" />
<glyph unicode="&#x15d;" horiz-adv-x="974" d="M88 47l47 256h21l-45 -240q146 -63 319 -63q131 0 227.5 79.5t96.5 203.5q0 55 -29.5 99.5t-76 75t-103.5 57t-113.5 51.5t-103 53t-76 68.5t-29.5 90.5q0 115 93.5 184.5t220.5 69.5q159 0 301 -63l-37 -213h-21l35 198q-129 58 -276 58q-119 0 -206 -64t-87 -168 q0 -40 23 -74.5t60 -58.5t84.5 -48t97.5 -44.5t97.5 -47.5t84.5 -55.5t60 -71t23 -93.5q0 -133 -102.5 -220t-245.5 -87q-172 0 -340 67zM377 1204l231 244h33l150 -244h-29l-137 228l-215 -228h-33z" />
<glyph unicode="&#x15e;" horiz-adv-x="1030" d="M66 61l53 308h22l-51 -291q162 -74 344 -74q168 0 286 114.5t118 278.5q0 68 -32 126.5t-83 101t-112.5 81.5t-123 78.5t-112.5 82.5t-83 102t-32 129q0 156 109.5 256t267.5 100q154 0 340 -72l-53 -301h-23l51 285q-159 64 -313 64q-152 0 -253 -92.5t-101 -239.5 q0 -59 25 -110t65.5 -88t92 -74.5t106 -68t106 -69t92 -78t65.5 -94t25 -117.5q0 -172 -125 -294.5t-299 -124.5l-35 -101q61 0 101.5 -30.5t40.5 -84.5q0 -64 -50 -104.5t-124 -40.5q-44 0 -82 23l8 20q37 -22 76 -22q63 0 106 34.5t43 89.5q0 43 -34 69t-85 26 q-14 0 -30 -4l45 125q-176 3 -352 81z" />
<glyph unicode="&#x15f;" horiz-adv-x="974" d="M88 47l47 256h21l-45 -240q146 -63 319 -63q131 0 227.5 79.5t96.5 203.5q0 55 -29.5 99.5t-76 75t-103.5 57t-113.5 51.5t-103 53t-76 68.5t-29.5 90.5q0 115 93.5 184.5t220.5 69.5q159 0 301 -63l-37 -213h-21l35 198q-129 58 -276 58q-119 0 -206 -64t-87 -168 q0 -40 23 -74.5t60 -58.5t84.5 -48t97.5 -44.5t97.5 -47.5t84.5 -55.5t60 -71t23 -93.5q0 -133 -102.5 -220t-245.5 -87h-20l-35 -101q61 0 101 -30.5t40 -84.5q0 -64 -50 -104.5t-124 -40.5q-44 0 -82 23l8 20q37 -22 76 -22q63 0 106.5 35t43.5 89q0 43 -34 69t-85 26 q-15 0 -31 -4l47 125q-153 8 -301 67z" />
<glyph unicode="&#x160;" horiz-adv-x="1030" d="M66 61l53 308h22l-51 -291q162 -74 344 -74q168 0 286 114.5t118 278.5q0 68 -32 126.5t-83 101t-112.5 81.5t-123 78.5t-112.5 82.5t-83 102t-32 129q0 156 109.5 256t267.5 100q154 0 340 -72l-53 -301h-23l51 285q-159 64 -313 64q-152 0 -253 -92.5t-101 -239.5 q0 -59 25 -110t65.5 -88t92 -74.5t106 -68t106 -69t92 -78t65.5 -94t25 -117.5q0 -174 -126 -296.5t-302 -122.5q-187 0 -368 81zM498 1837h28l138 -227l215 227h32l-231 -244h-33z" />
<glyph unicode="&#x161;" horiz-adv-x="974" d="M88 47l47 256h21l-45 -240q146 -63 319 -63q131 0 227.5 79.5t96.5 203.5q0 55 -29.5 99.5t-76 75t-103.5 57t-113.5 51.5t-103 53t-76 68.5t-29.5 90.5q0 115 93.5 184.5t220.5 69.5q159 0 301 -63l-37 -213h-21l35 198q-129 58 -276 58q-119 0 -206 -64t-87 -168 q0 -40 23 -74.5t60 -58.5t84.5 -48t97.5 -44.5t97.5 -47.5t84.5 -55.5t60 -71t23 -93.5q0 -133 -102.5 -220t-245.5 -87q-172 0 -340 67zM399 1448h29l137 -227l215 227h33l-231 -244h-33z" />
<glyph unicode="&#x162;" horiz-adv-x="1161" d="M174 1079l64 355h1013l-63 -355h-23l60 334h-473l-246 -1393h213l-4 -20h-217l-43 -121q61 0 101 -30.5t40 -84.5q0 -64 -50 -104.5t-124 -40.5q-44 0 -82 23l8 20q37 -22 76 -22q63 0 106 34.5t43 89.5q0 43 -33.5 69t-84.5 26q-15 0 -31 -4l53 145h-211l4 20h213 l246 1393h-473l-59 -334h-23z" />
<glyph unicode="&#x163;" horiz-adv-x="649" d="M156 993l4 19h188l43 243h21l-43 -243h258l-4 -19h-256l-134 -755q-6 -30 -6 -62q0 -75 40 -117.5t110 -42.5q51 0 115 25l6 -21q-63 -24 -125 -24q-75 0 -120.5 47t-45.5 133q0 32 6 66l133 751h-190zM162 -358l8 20q37 -22 76 -22q63 0 106 34.5t43 89.5q0 43 -34 69 t-85 26q-14 0 -30 -4l53 145h20l-43 -121q61 0 101.5 -30.5t40.5 -84.5q0 -64 -50 -104.5t-124 -40.5q-44 0 -82 23z" />
<glyph unicode="&#x164;" horiz-adv-x="1161" d="M174 1079l64 355h1013l-63 -355h-23l60 334h-473l-246 -1393h213l-4 -20h-449l4 20h213l246 1393h-473l-59 -334h-23zM592 1837h29l137 -227l215 227h33l-232 -244h-33z" />
<glyph unicode="&#x165;" horiz-adv-x="645" d="M156 993l4 19h188l43 243h21l-43 -243h258l-4 -19h-256l-134 -755q-6 -30 -6 -62q0 -75 40 -117.5t110 -42.5q51 0 115 25l6 -21q-63 -24 -125 -24q-75 0 -120.5 47t-45.5 133q0 32 6 66l133 751h-190zM594 1133l90 348h23l-93 -348h-20z" />
<glyph unicode="&#x166;" horiz-adv-x="1161" d="M174 1079l64 355h1013l-63 -355h-23l60 334h-473l-121 -680h297l-4 -20h-295l-123 -693h213l-4 -20h-449l4 20h213l123 693h-303l4 20h301l121 680h-473l-59 -334h-23z" />
<glyph unicode="&#x167;" horiz-adv-x="655" d="M92 633l4 18h195l61 342h-190l4 19h188l43 243h21l-43 -243h258l-4 -19h-256l-60 -342h250l-4 -18h-250l-69 -395q-7 -35 -7 -62q0 -75 40 -117.5t110 -42.5q51 0 115 25l6 -21q-63 -24 -125 -24q-75 0 -120.5 47t-45.5 133q0 32 6 66l70 391h-197z" />
<glyph unicode="&#x168;" horiz-adv-x="1474" d="M242 1413l4 21h407l-4 -21h-196l-166 -942q-11 -61 -11 -102q0 -164 100 -264.5t286 -100.5q208 0 342.5 126t169.5 329l167 954h-196l4 21h407l-4 -21h-188l-168 -956q-37 -212 -178 -344.5t-359 -132.5q-192 0 -298.5 106.5t-106.5 275.5q0 46 10 111l166 940h-188z M670 1663q23 61 63.5 97t95.5 36q32 0 65.5 -17t57 -37t56 -37t63.5 -17q83 0 135 112h21q-23 -61 -64 -97t-96 -36q-33 0 -66.5 17t-57 37.5t-55.5 37.5t-63 17q-83 0 -135 -113h-20z" />
<glyph unicode="&#x169;" horiz-adv-x="1247" d="M156 993l4 19h209l-119 -662q-8 -54 -8 -86q0 -118 72 -191t196 -73q89 0 184 64t159.5 155.5t80.5 175.5l110 617h21l-176 -994h190l-4 -18h-211l51 291q-63 -125 -173.5 -218t-235.5 -93q-129 0 -207 78.5t-78 201.5q0 36 8 86l115 647h-188zM469 1262q23 61 64 97 t96 36q32 0 65 -17t57 -37.5t56 -37.5t63 -17q84 0 136 113h20q-23 -61 -64 -97t-96 -36q-33 0 -66 17t-56.5 37t-55.5 37t-63 17q-84 0 -136 -112h-20z" />
<glyph unicode="&#x16a;" horiz-adv-x="1474" d="M242 1413l4 21h407l-4 -21h-196l-166 -942q-11 -61 -11 -102q0 -164 100 -264.5t286 -100.5q208 0 342.5 126t169.5 329l167 954h-196l4 21h407l-4 -21h-188l-168 -956q-37 -212 -178 -344.5t-359 -132.5q-192 0 -298.5 106.5t-106.5 275.5q0 46 10 111l166 940h-188z M696 1702l4 18h508l-4 -18h-508z" />
<glyph unicode="&#x16b;" horiz-adv-x="1247" d="M156 993l4 19h209l-119 -662q-8 -54 -8 -86q0 -118 72 -191t196 -73q89 0 184 64t159.5 155.5t80.5 175.5l110 617h21l-176 -994h190l-4 -18h-211l51 291q-63 -125 -173.5 -218t-235.5 -93q-129 0 -207 78.5t-78 201.5q0 36 8 86l115 647h-188zM496 1300l4 19h508l-4 -19 h-508z" />
<glyph unicode="&#x16c;" horiz-adv-x="1474" d="M242 1413l4 21h407l-4 -21h-196l-166 -942q-11 -61 -11 -102q0 -164 100 -264.5t286 -100.5q208 0 342.5 126t169.5 329l167 954h-196l4 21h407l-4 -21h-188l-168 -956q-37 -212 -178 -344.5t-359 -132.5q-192 0 -298.5 106.5t-106.5 275.5q0 46 10 111l166 940h-188z M760 1759q0 15 4 43h20q-4 -28 -4 -41q0 -61 37 -98t111 -37q83 0 136 49.5t66 126.5h23q-14 -86 -73.5 -140t-153.5 -54q-80 0 -123 41.5t-43 109.5z" />
<glyph unicode="&#x16d;" horiz-adv-x="1247" d="M156 993l4 19h209l-119 -662q-8 -54 -8 -86q0 -118 72 -191t196 -73q89 0 184 64t159.5 155.5t80.5 175.5l110 617h21l-176 -994h190l-4 -18h-211l51 291q-63 -125 -173.5 -218t-235.5 -93q-129 0 -207 78.5t-78 201.5q0 36 8 86l115 647h-188zM559 1358q0 15 4 43h21 q-4 -28 -4 -41q0 -62 37 -98.5t110 -36.5q83 0 136.5 49.5t66.5 126.5h22q-14 -87 -73.5 -141t-153.5 -54q-79 0 -122.5 42t-43.5 110z" />
<glyph unicode="&#x16e;" horiz-adv-x="1474" d="M242 1413l4 21h407l-4 -21h-196l-166 -942q-11 -61 -11 -102q0 -164 100 -264.5t286 -100.5q208 0 342.5 126t169.5 329l167 954h-196l4 21h407l-4 -21h-188l-168 -956q-37 -212 -178 -344.5t-359 -132.5q-192 0 -298.5 106.5t-106.5 275.5q0 46 10 111l166 940h-188z M809 1700q0 64 47 109.5t113 45.5q52 0 83 -31t31 -79q0 -68 -46 -114t-113 -46q-52 0 -83.5 32.5t-31.5 82.5zM829 1700q0 -42 26 -69t69 -27q59 0 99 39.5t40 99.5q0 41 -25 67.5t-69 26.5q-58 0 -99 -40.5t-41 -96.5z" />
<glyph unicode="&#x16f;" horiz-adv-x="1247" d="M156 993l4 19h209l-119 -662q-8 -54 -8 -86q0 -118 72 -191t196 -73q89 0 184 64t159.5 155.5t80.5 175.5l110 617h21l-176 -994h190l-4 -18h-211l51 291q-63 -125 -173.5 -218t-235.5 -93q-129 0 -207 78.5t-78 201.5q0 36 8 86l115 647h-188zM608 1298q0 64 47 110 t113 46q52 0 83.5 -31.5t31.5 -79.5q0 -68 -46.5 -113.5t-113.5 -45.5q-52 0 -83.5 32t-31.5 82zM629 1298q0 -42 25.5 -69t68.5 -27q59 0 99 39.5t40 99.5q0 41 -25 68t-69 27q-58 0 -98.5 -41t-40.5 -97z" />
<glyph unicode="&#x170;" horiz-adv-x="1474" d="M242 1413l4 21h407l-4 -21h-196l-166 -942q-11 -61 -11 -102q0 -164 100 -264.5t286 -100.5q208 0 342.5 126t169.5 329l167 954h-196l4 21h407l-4 -21h-188l-168 -956q-37 -212 -178 -344.5t-359 -132.5q-192 0 -298.5 106.5t-106.5 275.5q0 46 10 111l166 940h-188z M791 1606l163 237h33l-170 -237h-26zM993 1606l164 237h33l-170 -237h-27z" />
<glyph unicode="&#x171;" horiz-adv-x="1247" d="M156 993l4 19h209l-119 -662q-8 -54 -8 -86q0 -118 72 -191t196 -73q89 0 184 64t159.5 155.5t80.5 175.5l110 617h21l-176 -994h190l-4 -18h-211l51 291q-63 -125 -173.5 -218t-235.5 -93q-129 0 -207 78.5t-78 201.5q0 36 8 86l115 647h-188zM590 1204l164 238h32 l-170 -238h-26zM793 1204l163 238h33l-170 -238h-26z" />
<glyph unicode="&#x172;" horiz-adv-x="1474" d="M242 1413l4 21h407l-4 -21h-196l-166 -942q-11 -61 -11 -102q0 -164 100 -264.5t286 -100.5q54 0 112 10q2 2 4 2q160 33 263 152t133 291l167 954h-196l4 21h407l-4 -21h-188l-168 -956q-33 -189 -147.5 -316t-294.5 -155q-174 -95 -174 -228q0 -51 30.5 -83.5 t79.5 -32.5q29 0 63.5 15.5t61.5 39.5l10 -19q-60 -57 -141 -57q-53 0 -90 40t-37 95q0 67 41 126t111 100q-16 -2 -50 -2q-192 0 -298.5 106.5t-106.5 275.5q0 46 10 111l166 940h-188z" />
<glyph unicode="&#x173;" horiz-adv-x="1247" d="M156 993l4 19h209l-119 -662q-8 -54 -8 -86q0 -118 72 -191t196 -73q89 0 184 64t159.5 155.5t80.5 175.5l110 617h21l-176 -994h190l-4 -18h-182q-92 -47 -145.5 -108.5t-53.5 -133.5q0 -51 31 -83.5t80 -32.5q29 0 63.5 15.5t61.5 39.5l10 -19q-60 -57 -141 -57 q-53 0 -90 40t-37 95q0 77 52.5 142t139.5 106l51 287q-63 -125 -173.5 -218t-235.5 -93q-129 0 -207 78.5t-78 201.5q0 36 8 86l115 647h-188z" />
<glyph unicode="&#x174;" horiz-adv-x="2056" d="M168 1413l4 21h428l-4 -21h-231l141 -1395l668 1416h26l162 -1416l647 1395h-231l4 21h430l-4 -21h-174l-660 -1417h-31l-161 1407l-664 -1407h-31l-145 1417h-174zM1001 1593l232 244h33l149 -244h-29l-137 228l-215 -228h-33z" />
<glyph unicode="&#x175;" horiz-adv-x="1671" d="M49 993l4 19h191l129 -996q220 225 364 469t144 428v11l-13 88h23l131 -996q522 508 522 904q0 23 -4 73h-184l2 19h201q8 -54 8 -92q0 -406 -543 -928h-18l-115 852q-26 -195 -164 -414t-352 -438h-19l-133 1001h-174zM696 1192l232 244h33l149 -244h-29l-137 227 l-215 -227h-33z" />
<glyph unicode="&#x176;" horiz-adv-x="1261" d="M168 1413l4 21h406l-5 -21h-208l288 -756l564 756h-211l4 21h407l-4 -21h-170l-581 -782l-107 -611h209l-4 -20h-441l5 20h208l107 611l-299 782h-172zM600 1593l231 244h33l150 -244h-29l-137 228l-215 -228h-33z" />
<glyph unicode="&#x177;" horiz-adv-x="1060" d="M-121 -369l6 21q59 -19 109 -19q76 0 203 92.5t264 249.5l-248 1018h-162l2 19h178l246 -1018q201 249 329 496.5t128 431.5q0 21 -4 71h-178l4 19h192q8 -36 8 -99q0 -104 -50.5 -245.5t-131.5 -283t-186 -282t-210.5 -248t-208.5 -174.5t-177 -67q-54 0 -113 18z M346 1192l232 244h32l150 -244h-29l-137 227l-215 -227h-33z" />
<glyph unicode="&#x178;" horiz-adv-x="1261" d="M168 1413l4 21h406l-5 -21h-208l288 -756l564 756h-211l4 21h407l-4 -21h-170l-581 -782l-107 -611h209l-4 -20h-441l5 20h208l107 611l-299 782h-172zM608 1722q0 22 14 37t35 15q23 0 38.5 -15t15.5 -37t-15.5 -36.5t-38.5 -14.5q-22 0 -35.5 14.5t-13.5 36.5z M936 1722q0 22 14 37t35 15q23 0 38 -15t15 -37t-15 -36.5t-38 -14.5q-22 0 -35.5 14.5t-13.5 36.5z" />
<glyph unicode="&#x179;" horiz-adv-x="1132" d="M31 0l2 16l1097 1397h-780l-57 -334h-23l62 355h831l-2 -17l-1095 -1397h839l62 353h22l-65 -373h-893zM698 1593l183 250h32l-188 -250h-27z" />
<glyph unicode="&#x17a;" horiz-adv-x="1044" d="M59 0l2 14l875 979h-651l-41 -237h-21l45 256h699l-2 -15l-873 -979h699l49 283h20l-53 -301h-748zM590 1192l182 250h33l-189 -250h-26z" />
<glyph unicode="&#x17b;" horiz-adv-x="1132" d="M31 0l2 16l1097 1397h-780l-57 -334h-23l62 355h831l-2 -17l-1095 -1397h839l62 353h22l-65 -373h-893zM711 1714q0 22 13.5 36.5t35.5 14.5q23 0 38 -14.5t15 -36.5t-15 -36.5t-38 -14.5q-22 0 -35.5 14.5t-13.5 36.5z" />
<glyph unicode="&#x17c;" horiz-adv-x="1044" d="M59 0l2 14l875 979h-651l-41 -237h-21l45 256h699l-2 -15l-873 -979h699l49 283h20l-53 -301h-748zM602 1313q0 22 13.5 36.5t35.5 14.5q23 0 38.5 -14.5t15.5 -36.5t-15.5 -36.5t-38.5 -14.5q-22 0 -35.5 14.5t-13.5 36.5z" />
<glyph unicode="&#x17d;" horiz-adv-x="1132" d="M31 0l2 16l1097 1397h-780l-57 -334h-23l62 355h831l-2 -17l-1095 -1397h839l62 353h22l-65 -373h-893zM561 1837h29l137 -227l215 227h33l-232 -244h-32z" />
<glyph unicode="&#x17e;" horiz-adv-x="1044" d="M59 0l2 14l875 979h-651l-41 -237h-21l45 256h699l-2 -15l-873 -979h699l49 283h20l-53 -301h-748zM453 1436h28l137 -228l216 228h32l-231 -244h-33z" />
<glyph unicode="&#x192;" horiz-adv-x="778" d="M-141 -371l8 23q59 -19 117 -19q203 0 252 279l155 883h-196l4 20h196l49 295q55 332 283 332q57 0 131 -19l-6 -22q-67 20 -125 20q-103 0 -167.5 -77t-94.5 -252l-47 -277h278l-4 -20h-278l-156 -885q-28 -156 -100 -226.5t-174 -70.5q-75 0 -125 16z" />
<glyph unicode="&#x1fa;" horiz-adv-x="1396" d="M-82 0l4 20h174l742 1403q-41 6 -67 35.5t-26 69.5q0 54 45.5 93.5t108.5 39.5q49 0 81 -30.5t32 -74.5q0 -50 -39 -88.5t-96 -44.5l249 -1403h177l-5 -20h-413l4 20h213l-86 508h-627l-268 -508h215l-4 -20h-414zM399 549h611l-152 868zM766 1528q0 -38 25 -64t67 -26 q54 0 93.5 35t39.5 81q0 37 -25.5 62.5t-66.5 25.5q-55 0 -94 -34.5t-39 -79.5zM842 1700l182 188h29l-185 -188h-26z" />
<glyph unicode="&#x1fb;" d="M150 408q0 163 68 307t184.5 230.5t250.5 86.5q86 0 157 -30t117 -81t72 -116t31 -139l62 346h20l-174 -994h188l-4 -18h-209l64 360q-30 -76 -75.5 -142t-106 -120.5t-140 -86t-168.5 -31.5q-96 0 -174.5 60.5t-120.5 158t-42 209.5zM172 408q0 -106 39 -199t112.5 -151 t165.5 -58q143 0 266.5 93t192 237t68.5 297q0 170 -101.5 277.5t-261.5 107.5q-128 0 -239.5 -84t-176.5 -223.5t-65 -296.5zM584 1245q0 65 46.5 110.5t112.5 45.5q52 0 83.5 -31.5t31.5 -79.5q0 -68 -46.5 -114t-113.5 -46q-52 0 -83 32.5t-31 82.5zM604 1245 q0 -42 25.5 -69t68.5 -27q59 0 99.5 39.5t40.5 99.5q0 41 -25.5 67.5t-69.5 26.5q-58 0 -98.5 -40.5t-40.5 -96.5zM686 1487l182 250h33l-188 -250h-27z" />
<glyph unicode="&#x1fc;" horiz-adv-x="1792" d="M-111 0l5 20h167l1047 1414h655l-57 -330h-23l54 309h-594l-119 -676h547l-4 -20h-547l-123 -697h614l52 302h22l-55 -322h-856l4 20h196l123 697h-393l-516 -697h211l-4 -20h-406zM616 735h385l121 684zM1243 1593l182 250h33l-188 -250h-27z" />
<glyph unicode="&#x1fd;" horiz-adv-x="2027" d="M150 408q0 164 70 308t189 230t257 86q252 0 454 -233q74 107 181.5 170t230.5 63q154 0 258 -104t104 -254q0 -65 -20 -137h-842q-10 -65 -10 -117q0 -177 96.5 -298.5t253.5 -121.5q115 0 229.5 62.5t194.5 164.5l16 -16q-84 -104 -201.5 -167.5t-240.5 -63.5 q-164 0 -267.5 127t-103.5 311q0 55 15 139q-147 -314 -267 -445.5t-268 -131.5q-101 0 -177 61t-114 157t-38 210zM172 408q0 -108 35 -199.5t106.5 -150t167.5 -58.5q48 0 93.5 17t84 44t79.5 75t73.5 95t73 120t71 134t74.5 152q48 99 74 147q-95 109 -199.5 168.5 t-238.5 59.5q-131 0 -245.5 -84t-181.5 -223.5t-67 -296.5zM1036 557h819q17 63 17 117q0 139 -96.5 239t-241.5 99q-121 -1 -226.5 -64t-174.5 -165.5t-97 -225.5zM1122 1192l183 250h32l-188 -250h-27z" />
<glyph unicode="&#x1fe;" horiz-adv-x="1574" d="M80 0l199 199q-101 150 -101 370q0 174 59.5 336.5t160.5 283t244.5 193t303.5 72.5q260 0 406 -182l174 174l16 -14l-178 -179q111 -148 111 -368q0 -171 -61 -335.5t-163 -290t-247.5 -202.5t-303.5 -77q-265 0 -409 200l-195 -194zM201 569q0 -206 94 -354l1040 1040 q-141 175 -391 175q-124 0 -239.5 -46t-205.5 -127.5t-158 -189t-104 -236t-36 -262.5zM307 197q139 -193 395 -193q124 0 240 49t207 134.5t159.5 196t105 239.5t36.5 260q0 216 -102 354zM901 1593l182 250h33l-188 -250h-27z" />
<glyph unicode="&#x1ff;" horiz-adv-x="1212" d="M84 -2l143 143q-77 116 -77 277q0 118 41 230t110.5 196.5t169 136t209.5 51.5q185 0 297 -141l131 131l14 -14l-133 -134q76 -116 76 -268q0 -160 -70.5 -304t-193.5 -233t-266 -89q-187 0 -297 145l-142 -141zM172 418q0 -150 70 -262l719 718q-47 66 -120 102t-161 36 q-140 0 -258 -84t-184 -220t-66 -290zM254 141q101 -141 281 -141q137 0 255 87t185 226.5t67 292.5q0 151 -69 252zM637 1204l182 250h33l-188 -250h-27z" />
<glyph unicode="&#x218;" horiz-adv-x="1030" d="M66 61l53 308h22l-51 -291q162 -74 344 -74q168 0 286 114.5t118 278.5q0 68 -32 126.5t-83 101t-112.5 81.5t-123 78.5t-112.5 82.5t-83 102t-32 129q0 156 109.5 256t267.5 100q154 0 340 -72l-53 -301h-23l51 285q-159 64 -313 64q-152 0 -253 -92.5t-101 -239.5 q0 -59 25 -110t65.5 -88t92 -74.5t106 -68t106 -69t92 -78t65.5 -94t25 -117.5q0 -174 -126 -296.5t-302 -122.5q-187 0 -368 81zM328 -369q36 29 57 67.5t21 72.5q0 37 -25 69l70 33q24 -36 24 -76q0 -86 -135 -180z" />
<glyph unicode="&#x219;" horiz-adv-x="974" d="M88 47l47 256h21l-45 -240q146 -63 319 -63q131 0 227.5 79.5t96.5 203.5q0 55 -29.5 99.5t-76 75t-103.5 57t-113.5 51.5t-103 53t-76 68.5t-29.5 90.5q0 115 93.5 184.5t220.5 69.5q159 0 301 -63l-37 -213h-21l35 198q-129 58 -276 58q-119 0 -206 -64t-87 -168 q0 -40 23 -74.5t60 -58.5t84.5 -48t97.5 -44.5t97.5 -47.5t84.5 -55.5t60 -71t23 -93.5q0 -133 -102.5 -220t-245.5 -87q-172 0 -340 67zM297 -369q36 29 57 67.5t21 72.5q0 37 -25 69l70 33q24 -36 24 -76q0 -86 -135 -180z" />
<glyph unicode="&#x21a;" horiz-adv-x="1161" d="M174 1079l64 355h1013l-63 -355h-23l60 334h-473l-246 -1393h213l-4 -20h-449l4 20h213l246 1393h-473l-59 -334h-23zM379 -369q36 29 57 67.5t21 72.5q0 37 -25 69l70 33q24 -36 24 -76q0 -86 -135 -180z" />
<glyph unicode="&#x21b;" horiz-adv-x="649" d="M156 993l4 19h188l43 243h21l-43 -243h258l-4 -19h-256l-134 -755q-6 -30 -6 -62q0 -75 40 -117.5t110 -42.5q51 0 115 25l6 -21q-63 -24 -125 -24q-75 0 -120.5 47t-45.5 133q0 32 6 66l133 751h-190zM201 -369q36 29 57 67.5t21 72.5q0 37 -25 69l70 33q24 -36 24 -76 q0 -86 -135 -180z" />
<glyph unicode="&#x237;" horiz-adv-x="555" d="M-131 -377l4 21q42 -11 84 -11q81 0 144.5 67.5t84.5 184.5l197 1108h-188l4 19h209l-201 -1131q-23 -126 -90.5 -197t-159.5 -71q-46 0 -88 10z" />
<glyph unicode="&#x2c6;" horiz-adv-x="643" d="M236 1192l231 244h33l149 -244h-28l-138 227l-215 -227h-32z" />
<glyph unicode="&#x2c7;" horiz-adv-x="643" d="M279 1436h28l137 -228l215 228h33l-231 -244h-33z" />
<glyph unicode="&#x2d8;" horiz-adv-x="651" d="M285 1358q0 15 4 43h20q-4 -28 -4 -41q0 -61 37 -98t111 -37q83 0 136 49.5t66 126.5h23q-14 -87 -73.5 -141t-153.5 -54q-79 0 -122.5 42t-43.5 110z" />
<glyph unicode="&#x2d9;" horiz-adv-x="366" d="M274 1313q0 22 14 36.5t36 14.5q23 0 38 -14.5t15 -36.5t-15 -36.5t-38 -14.5q-22 0 -36 14.5t-14 36.5z" />
<glyph unicode="&#x2da;" horiz-adv-x="532" d="M272 1298q0 64 47 110t113 46q52 0 83.5 -31.5t31.5 -79.5q0 -68 -46.5 -113.5t-113.5 -45.5q-52 0 -83.5 32t-31.5 82zM293 1298q0 -42 25.5 -69t68.5 -27q59 0 99 39.5t40 99.5q0 41 -25 68t-69 27q-58 0 -98.5 -41t-40.5 -97z" />
<glyph unicode="&#x2db;" horiz-adv-x="546" d="M2 -244q0 83 61.5 151.5t159.5 108.5l13 -10q-97 -47 -154 -110t-57 -138q0 -51 30.5 -83.5t79.5 -32.5q29 0 63.5 15.5t61.5 39.5l10 -19q-60 -57 -141 -57q-53 0 -90 40t-37 95z" />
<glyph unicode="&#x2dc;" horiz-adv-x="794" d="M264 1262q23 61 64 97t96 36q32 0 65.5 -17t57 -37.5t56 -37.5t63.5 -17q83 0 135 113h20q-23 -61 -63.5 -97t-95.5 -36q-33 0 -66.5 17t-57 37t-55.5 37t-63 17q-83 0 -135 -112h-21z" />
<glyph unicode="&#x2dd;" horiz-adv-x="569" d="M238 1204l163 238h33l-170 -238h-26zM440 1204l164 238h33l-170 -238h-27z" />
<glyph unicode="&#x1e80;" horiz-adv-x="2056" d="M168 1413l4 21h428l-4 -21h-231l141 -1395l668 1416h26l162 -1416l647 1395h-231l4 21h430l-4 -21h-174l-660 -1417h-31l-161 1407l-664 -1407h-31l-145 1417h-174zM1118 1843h29l92 -250h-22z" />
<glyph unicode="&#x1e81;" horiz-adv-x="1671" d="M49 993l4 19h191l129 -996q220 225 364 469t144 428v11l-13 88h23l131 -996q522 508 522 904q0 23 -4 73h-184l2 19h201q8 -54 8 -92q0 -406 -543 -928h-18l-115 852q-26 -195 -164 -414t-352 -438h-19l-133 1001h-174zM813 1442h29l92 -250h-23z" />
<glyph unicode="&#x1e82;" horiz-adv-x="2056" d="M168 1413l4 21h428l-4 -21h-231l141 -1395l668 1416h26l162 -1416l647 1395h-231l4 21h430l-4 -21h-174l-660 -1417h-31l-161 1407l-664 -1407h-31l-145 1417h-174zM1161 1593l182 250h33l-188 -250h-27z" />
<glyph unicode="&#x1e83;" horiz-adv-x="1671" d="M49 993l4 19h191l129 -996q220 225 364 469t144 428v11l-13 88h23l131 -996q522 508 522 904q0 23 -4 73h-184l2 19h201q8 -54 8 -92q0 -406 -543 -928h-18l-115 852q-26 -195 -164 -414t-352 -438h-19l-133 1001h-174zM856 1192l182 250h33l-188 -250h-27z" />
<glyph unicode="&#x1e84;" horiz-adv-x="2056" d="M168 1413l4 21h428l-4 -21h-231l141 -1395l668 1416h26l162 -1416l647 1395h-231l4 21h430l-4 -21h-174l-660 -1417h-31l-161 1407l-664 -1407h-31l-145 1417h-174zM1010 1722q0 22 14 37t35 15q23 0 38 -15t15 -37t-15 -36.5t-38 -14.5q-22 0 -35.5 14.5t-13.5 36.5z M1337 1722q0 22 14 37t35 15q23 0 38.5 -15t15.5 -37t-15.5 -36.5t-38.5 -14.5q-22 0 -35.5 14.5t-13.5 36.5z" />
<glyph unicode="&#x1e85;" horiz-adv-x="1671" d="M49 993l4 19h191l129 -996q220 225 364 469t144 428v11l-13 88h23l131 -996q522 508 522 904q0 23 -4 73h-184l2 19h201q8 -54 8 -92q0 -406 -543 -928h-18l-115 852q-26 -195 -164 -414t-352 -438h-19l-133 1001h-174zM705 1321q0 22 13.5 36.5t35.5 14.5q23 0 38 -14.5 t15 -36.5t-15 -36.5t-38 -14.5q-22 0 -35.5 14.5t-13.5 36.5zM1032 1321q0 22 13.5 36.5t35.5 14.5q23 0 38.5 -14.5t15.5 -36.5t-15.5 -36.5t-38.5 -14.5q-22 0 -35.5 14.5t-13.5 36.5z" />
<glyph unicode="&#x1ef2;" horiz-adv-x="1261" d="M168 1413l4 21h406l-5 -21h-208l288 -756l564 756h-211l4 21h407l-4 -21h-170l-581 -782l-107 -611h209l-4 -20h-441l5 20h208l107 611l-299 782h-172zM717 1843h28l93 -250h-23z" />
<glyph unicode="&#x1ef3;" horiz-adv-x="1060" d="M-121 -369l6 21q59 -19 109 -19q76 0 203 92.5t264 249.5l-248 1018h-162l2 19h178l246 -1018q201 249 329 496.5t128 431.5q0 21 -4 71h-178l4 19h192q8 -36 8 -99q0 -104 -50.5 -245.5t-131.5 -283t-186 -282t-210.5 -248t-208.5 -174.5t-177 -67q-54 0 -113 18z M463 1442h29l92 -250h-23z" />
<glyph unicode="&#x2000;" horiz-adv-x="945" />
<glyph unicode="&#x2001;" horiz-adv-x="1890" />
<glyph unicode="&#x2002;" horiz-adv-x="945" />
<glyph unicode="&#x2003;" horiz-adv-x="1890" />
<glyph unicode="&#x2004;" horiz-adv-x="630" />
<glyph unicode="&#x2005;" horiz-adv-x="472" />
<glyph unicode="&#x2006;" horiz-adv-x="315" />
<glyph unicode="&#x2007;" horiz-adv-x="315" />
<glyph unicode="&#x2008;" horiz-adv-x="236" />
<glyph unicode="&#x2009;" horiz-adv-x="378" />
<glyph unicode="&#x200a;" horiz-adv-x="105" />
<glyph unicode="&#x2010;" horiz-adv-x="681" d="M104 586l5 22h501l-4 -22h-502z" />
<glyph unicode="&#x2011;" horiz-adv-x="681" d="M104 586l5 22h501l-4 -22h-502z" />
<glyph unicode="&#x2012;" horiz-adv-x="681" d="M104 586l5 22h501l-4 -22h-502z" />
<glyph unicode="&#x2013;" horiz-adv-x="1101" d="M104 586l5 20h921l-4 -20h-922z" />
<glyph unicode="&#x2014;" horiz-adv-x="1644" d="M104 586l5 20h1464l-4 -20h-1465z" />
<glyph unicode="&#x2018;" horiz-adv-x="370" d="M256 1321q0 90 139 203l13 -15q-78 -75 -78 -157q0 -43 26 -76l-73 -35q-27 39 -27 80z" />
<glyph unicode="&#x2019;" horiz-adv-x="368" d="M240 1241q77 74 77 158q0 43 -26 76l74 34q26 -37 26 -79q0 -90 -139 -203z" />
<glyph unicode="&#x201a;" horiz-adv-x="368" d="M-6 -154q78 75 78 158q0 41 -27 76l74 35q26 -37 26 -80q0 -90 -139 -203z" />
<glyph unicode="&#x201c;" horiz-adv-x="583" d="M256 1319q0 90 139 203l13 -15q-78 -75 -78 -157q0 -43 26 -76l-73 -35q-27 39 -27 80zM469 1319q0 90 139 203l13 -15q-78 -75 -78 -157q0 -43 26 -76l-73 -35q-27 39 -27 80z" />
<glyph unicode="&#x201d;" horiz-adv-x="581" d="M240 1241q77 74 77 158q0 43 -26 76l74 34q26 -37 26 -79q0 -90 -139 -203zM453 1241q77 74 77 158q0 43 -26 76l74 34q26 -37 26 -79q0 -90 -139 -203z" />
<glyph unicode="&#x201e;" horiz-adv-x="581" d="M-6 -152q78 75 78 158q0 41 -27 76l74 35q26 -37 26 -80q0 -90 -139 -203zM207 -152q78 75 78 158q0 41 -27 76l74 35q26 -37 26 -80q0 -90 -139 -203z" />
<glyph unicode="&#x2020;" horiz-adv-x="770" d="M137 985v19h301v430h21v-430h301v-19h-301v-1098h-21v1098h-301z" />
<glyph unicode="&#x2021;" horiz-adv-x="864" d="M137 444v19h301v522h-301v19h301v430h21v-430h301v-19h-301v-522h301v-19h-301v-557h-21v557h-301z" />
<glyph unicode="&#x2022;" horiz-adv-x="757" d="M233 659q0 68 53.5 120t119.5 52q69 0 120.5 -51.5t51.5 -120.5t-51.5 -120.5t-120.5 -51.5q-66 0 -119.5 52t-53.5 120z" />
<glyph unicode="&#x2026;" horiz-adv-x="1222" d="M59 49q0 24 19 43t43 19q25 0 43 -18.5t18 -43.5t-18 -43t-43 -18q-24 0 -43 18.5t-19 42.5zM469 49q0 25 18.5 43.5t42.5 18.5q25 0 43.5 -18.5t18.5 -43.5t-18.5 -43t-43.5 -18q-24 0 -42.5 18.5t-18.5 42.5zM879 49q0 25 18.5 43.5t42.5 18.5q25 0 43 -18.5t18 -43.5 t-18 -43t-43 -18q-24 0 -42.5 18.5t-18.5 42.5z" />
<glyph unicode="&#x202f;" horiz-adv-x="378" />
<glyph unicode="&#x2030;" horiz-adv-x="1982" d="M72 0l1265 1434h29l-1266 -1434h-28zM258 1090q0 144 71.5 246t188.5 102q81 0 125.5 -57.5t44.5 -149.5q0 -140 -74.5 -245t-189.5 -105q-80 0 -123 58t-43 151zM281 1090q0 -86 36.5 -137.5t108.5 -51.5q104 0 172 100.5t68 229.5q0 83 -38 134.5t-112 51.5 q-72 0 -126.5 -47t-81.5 -120.5t-27 -159.5zM768 205q0 144 71.5 246t188.5 102q81 0 125.5 -57.5t44.5 -149.5q0 -140 -74.5 -245t-189.5 -105q-80 0 -123 58t-43 151zM791 205q0 -86 36.5 -137.5t108.5 -51.5q104 0 172 100.5t68 229.5q0 83 -38 134.5t-112 51.5 q-72 0 -126.5 -47t-81.5 -120.5t-27 -159.5zM1370 205q0 144 71.5 246t188.5 102q81 0 125.5 -57.5t44.5 -149.5q0 -140 -74.5 -245t-189.5 -105q-80 0 -123 58t-43 151zM1393 205q0 -86 36.5 -137.5t108.5 -51.5q104 0 172 100.5t68 229.5q0 83 -38 134.5t-112 51.5 q-72 0 -126.5 -47t-81.5 -120.5t-27 -159.5z" />
<glyph unicode="&#x2039;" horiz-adv-x="466" d="M104 588l338 356h25l-338 -360l209 -351h-23z" />
<glyph unicode="&#x203a;" horiz-adv-x="481" d="M43 233l338 361l-209 350h23l211 -354l-338 -357h-25z" />
<glyph unicode="&#x2044;" horiz-adv-x="856" d="M-104 -84l1114 1602h24l-1114 -1602h-24z" />
<glyph unicode="&#x205f;" horiz-adv-x="472" />
<glyph unicode="&#x2074;" horiz-adv-x="819" d="M186 915l2 11l461 512h17l-88 -504h155l-4 -19h-156l-38 -233h155l-4 -18h-342l4 18h166l39 233h-367zM219 934h338l82 467z" />
<glyph unicode="&#x20ac;" horiz-adv-x="1280" d="M76 590l4 20h209q9 126 39 242h-205l4 20h207q33 123 87.5 228t126 184.5t163 124.5t192.5 45q170 0 367 -96l-45 -264h-23l45 247q-178 93 -344 93q-96 0 -184 -44t-156.5 -121.5t-121 -178t-85.5 -218.5h594l-4 -20h-596q-31 -135 -39 -242h547l-4 -20h-543 q-2 -23 -2 -68q0 -111 21 -203t63.5 -163t112.5 -110.5t162 -39.5q129 0 248.5 80.5t187.5 204.5l20 -12q-74 -130 -197.5 -211.5t-260.5 -81.5q-96 0 -170 41.5t-119 115.5t-67.5 169.5t-22.5 209.5q0 45 2 68h-213z" />
<glyph unicode="&#x2116;" horiz-adv-x="2277" d="M18 0l5 20h188l244 1393h-189l4 21h213l680 -1399l242 1378h-188l4 21h399l-4 -21h-189l-247 -1413h-25l-680 1397l-242 -1377h189l-4 -20h-400zM1622 606l4 21h565l-4 -21h-565zM1679 1071q0 155 100 265t249 110q112 0 178.5 -71.5t66.5 -182.5q0 -99 -44.5 -188 t-125.5 -145t-178 -56q-110 0 -178 76.5t-68 191.5zM1700 1071q0 -104 62.5 -176t164.5 -72q91 0 166.5 54t116.5 138.5t41 176.5q0 103 -61 168t-165 65q-139 0 -232 -106t-93 -248z" />
<glyph unicode="&#x2122;" horiz-adv-x="1796" d="M229 1284v197h533v-197h-21v178h-235v-643h141v-16h-303v16h141v643h-235v-178h-21zM866 803v18h115v641h-115v19h148l305 -559l305 559h148v-19h-115v-641h115v-18h-263v18h127v639l-307 -561h-20l-308 561v-639h115v-18h-250z" />
<glyph unicode="&#x2212;" horiz-adv-x="1087" d="M125 639v18h887v-18h-887z" />
<glyph unicode="&#x25fc;" horiz-adv-x="1013" d="M0 0v1014h1014v-1014h-1014z" />
<glyph unicode="&#xf6c3;" horiz-adv-x="0" d="M-406 -369q36 29 57 67.5t21 72.5q0 38 -24 69l69 33q25 -38 25 -76q0 -86 -135 -180z" />
<glyph horiz-adv-x="681" d="M125 709l4 22h502l-4 -22h-502z" />
<glyph horiz-adv-x="1101" d="M125 709l4 20h922l-4 -20h-922z" />
<glyph horiz-adv-x="1644" d="M125 709l4 20h1464l-4 -20h-1464z" />
<glyph horiz-adv-x="741" d="M125 702l338 357h24l-337 -361l208 -350h-22zM381 682l356 377h25l-356 -381l194 -330h-22z" />
<glyph horiz-adv-x="741" d="M49 348l357 381l-195 330h22l197 -334l-356 -377h-25zM324 348l338 361l-209 350h22l211 -354l-338 -357h-24z" />
<glyph horiz-adv-x="466" d="M125 702l338 357h24l-337 -361l208 -350h-22z" />
<glyph horiz-adv-x="466" d="M49 348l338 361l-209 350h23l211 -354l-338 -357h-25z" />
<glyph horiz-adv-x="471" d="M139 492q0 291 134.5 580.5t357.5 533.5l14 -15q-220 -245 -351.5 -530t-131.5 -572q0 -166 46.5 -337t123.5 -320l-17 -12q-176 330 -176 672z" />
<glyph horiz-adv-x="468" d="M-102 -166q220 245 351.5 530t131.5 572q0 166 -46.5 337t-123.5 320l16 13q176 -330 176 -672q0 -291 -134 -580.5t-357 -533.5z" />
<glyph horiz-adv-x="497" d="M90 -172l311 1769h213l-4 -18h-190l-307 -1733h194l-4 -18h-213z" />
<glyph horiz-adv-x="495" d="M-45 -172l4 18h191l307 1733h-195l4 18h213l-311 -1769h-213z" />
<glyph horiz-adv-x="489" d="M121 715l4 33q73 12 118.5 67t65.5 162l76 430q15 90 72.5 141t150.5 51l-4 -20q-81 0 -133.5 -47.5t-64.5 -122.5l-76 -436q-19 -108 -68.5 -169.5t-124.5 -72.5q115 -18 115 -160q0 -41 -8 -82l-82 -471q-4 -24 -4 -38q0 -62 35.5 -98t105.5 -36l-4 -20q-78 0 -118 41 t-40 108q0 13 4 45l82 465q8 41 8 84q0 131 -110 146z" />
<glyph horiz-adv-x="614" d="M342 -313v1964h20v-1964h-20z" />
<glyph horiz-adv-x="487" d="M-47 -174l4 20q81 0 134 47.5t65 122.5l75 437q38 219 193 241q-115 18 -115 160q0 41 8 82l82 471q4 24 4 39q0 62 -35.5 97.5t-105.5 35.5l4 20q78 0 118 -41t40 -108q0 -13 -4 -45l-82 -465q-8 -41 -8 -84q0 -130 110 -145l-4 -33q-73 -12 -118.5 -67t-65.5 -162 l-76 -431q-15 -90 -72.5 -141t-150.5 -51z" />
<glyph horiz-adv-x="643" d="M-119 -143l932 1757h25l-932 -1757h-25z" />
<glyph horiz-adv-x="636" d="M195 1614h22l309 -1757h-22z" />
<glyph horiz-adv-x="485" d="M139 -23l209 1170h21l-207 -1170h-23zM346 1413q0 25 16 41t41 16t41.5 -16t16.5 -41t-16.5 -41t-41.5 -16t-41 16t-16 41z" />
<glyph horiz-adv-x="755" d="M33 291q0 68 25.5 131t67 113t92.5 98t104 94.5t99 93t80 102.5t44 115l20 115h21l-21 -117q-11 -62 -45 -120t-79 -105t-98 -93t-103 -93t-91.5 -95.5t-66.5 -109.5t-25 -127q0 -121 79.5 -206t209.5 -85q108 0 197.5 69.5t142.5 168.5l21 -11q-58 -105 -151.5 -176 t-211.5 -71q-136 0 -223.5 91t-87.5 218zM561 1425q0 25 17 41.5t43 16.5q24 0 39.5 -16.5t15.5 -41.5t-15 -41t-40 -16q-26 0 -43 16t-17 41z" />
<glyph horiz-adv-x="428" d="M188 705q0 24 19 42.5t43 18.5q25 0 43 -18t18 -43t-18 -43.5t-43 -18.5q-24 0 -43 19t-19 43z" />
<glyph horiz-adv-x="757" d="M246 733q0 68 53 120t119 52q69 0 120.5 -51.5t51.5 -120.5t-51.5 -120.5t-120.5 -51.5q-66 0 -119 52t-53 120z" />
<glyph horiz-adv-x="1093" d="M145 406q0 190 37 374.5t104.5 336t174.5 244.5t235 93q162 0 242 -113.5t80 -304.5q0 -149 -23.5 -298t-71 -284t-112.5 -239.5t-155.5 -166.5t-192.5 -62q-108 0 -181 55t-105 147t-32 218zM166 408q0 -88 17 -159.5t52 -127t93 -85.5t135 -30q98 0 184.5 61.5 t149 164.5t108 236t68 278.5t22.5 289.5q0 181 -73.5 289.5t-225.5 108.5q-122 0 -225 -92.5t-168 -242t-101 -329.5t-36 -362z" />
<glyph horiz-adv-x="1093" d="M121 0l4 20h381l244 1391l-476 -256l-10 21l486 260l26 -6l-248 -1410h365l-4 -20h-768z" />
<glyph horiz-adv-x="1093" d="M74 0l2 12q18 107 78.5 207.5t142.5 180t177.5 155.5t187 147t166.5 140.5t121 149t46 161.5q0 119 -78.5 200t-209.5 81q-132 0 -242 -88.5t-164 -219.5l-20 7q58 141 172.5 231t255.5 90q138 0 223.5 -86.5t85.5 -212.5q0 -67 -28.5 -132.5t-77 -122t-111.5 -113 t-135 -111.5t-144.5 -111t-142 -118t-126 -126t-97.5 -142t-56 -159h715l55 322h21l-60 -342h-757z" />
<glyph horiz-adv-x="1093" d="M92 276l23 7q24 -125 107.5 -204t207.5 -79q187 0 320 134.5t133 322.5q0 144 -108 233.5t-290 89.5h-32l4 21q216 30 348.5 130.5t132.5 248.5q0 107 -72.5 180.5t-197.5 73.5q-103 0 -198 -63t-157 -163l-20 11q68 105 166 170t215 65q128 0 207.5 -79.5t79.5 -192.5 q0 -103 -64 -188t-170 -135.5t-235 -63.5q186 6 299.5 -91t113.5 -247q0 -95 -37 -182.5t-99.5 -152.5t-151.5 -103.5t-187 -38.5q-133 0 -222.5 83.5t-115.5 212.5z" />
<glyph horiz-adv-x="1093" d="M88 465l2 12l836 961h16l-168 -955h215l-4 -18h-215l-78 -447h213l-4 -18h-475l4 18h242l78 447h-662zM121 483h633l161 914z" />
<glyph horiz-adv-x="1093" d="M100 270l23 6q26 -122 107.5 -199t226.5 -77q130 0 238 71.5t167.5 188.5t59.5 250q0 150 -93.5 249t-248.5 99q-80 0 -165.5 -36.5t-146.5 -86.5l-18 8l168 691h602l-45 -252h-21l41 233h-561l-162 -655q156 119 316 119q158 0 257 -106.5t99 -262.5q0 -141 -63 -262.5 t-175.5 -194.5t-248.5 -73q-151 0 -241.5 81.5t-115.5 208.5z" />
<glyph horiz-adv-x="1093" d="M160 373q0 120 18 245t52.5 246t88 227.5t119.5 187.5t153 128t183 47q76 0 149.5 -24.5t127.5 -63.5l-13 -18q-51 38 -123 62t-143 24q-144 0 -266.5 -114t-204.5 -319t-115 -473q52 158 171.5 257.5t269.5 99.5q145 0 233 -100t90 -253q2 -143 -52.5 -268 t-161.5 -204.5t-244 -79.5q-158 0 -245 106.5t-87 286.5zM180 367q0 -101 32.5 -182t105 -133t174.5 -52q129 0 231 76.5t154.5 197t52.5 258.5q0 142 -84.5 237t-218.5 95q-85 0 -166.5 -38.5t-143 -104t-99.5 -158.5t-38 -196z" />
<glyph horiz-adv-x="1093" d="M225 1096l62 338h878l-4 -19q-302 -305 -518.5 -666t-320.5 -749h-25q113 399 327 758t513 657h-834l-57 -319h-21z" />
<glyph horiz-adv-x="1093" d="M129 309q0 170 107.5 293.5t269.5 159.5q-90 19 -149.5 91.5t-59.5 188.5q0 171 116 291.5t287 120.5q137 0 219 -78.5t82 -204.5q0 -152 -96.5 -267.5t-234.5 -145.5q105 -13 178.5 -91t73.5 -208q0 -199 -131.5 -339t-329.5 -140q-155 0 -243.5 93t-88.5 236zM152 311 q0 -135 82.5 -223t228.5 -88q124 0 224.5 62.5t156 167.5t55.5 229q0 133 -85.5 212t-223.5 79q-178 0 -308 -131t-130 -308zM319 1042q0 -123 73.5 -198.5t199.5 -75.5q78 0 150 34.5t123.5 90t82.5 128.5t31 148q0 118 -76 191.5t-205 73.5q-160 0 -269.5 -114.5 t-109.5 -277.5z" />
<glyph horiz-adv-x="1093" d="M104 78l15 18q42 -41 115.5 -68.5t148.5 -27.5q118 0 222.5 78t179 209.5t123 303t63.5 359.5q-46 -157 -160 -260.5t-281 -103.5q-143 0 -228 96t-85 242q0 105 33.5 201.5t93 169t146.5 116t188 43.5q145 0 232 -98.5t87 -255.5q0 -212 -44 -413.5t-121.5 -358.5 t-194.5 -252.5t-252 -95.5q-83 0 -159.5 28t-121.5 70zM240 926q0 -140 79.5 -230t219.5 -90q122 0 223.5 72.5t157 187t55.5 240.5q0 140 -81 234t-216 94q-127 0 -228.5 -71.5t-155.5 -187t-54 -249.5z" />
</font>
</defs>
</svg>
