<?xml version="1.0" standalone="no"?>
<!DOCTYPE svg PUBLIC "-//W3C//DTD SVG 1.1//EN" "http://www.w3.org/Graphics/SVG/1.1/DTD/svg11.dtd" >
<svg xmlns="http://www.w3.org/2000/svg">
<metadata></metadata>
<defs>
<font id="knilebold_italic" horiz-adv-x="1232" >
<font-face units-per-em="2048" ascent="1536" descent="-512" />
<missing-glyph horiz-adv-x="501" />
<glyph unicode=" "  horiz-adv-x="501" />
<glyph unicode="&#x09;" horiz-adv-x="501" />
<glyph unicode="&#xa0;" horiz-adv-x="501" />
<glyph unicode="!" horiz-adv-x="690" d="M88 170q0 79 57 135.5t138 56.5t138.5 -57t57.5 -135q0 -85 -57 -143t-139 -58t-138.5 58t-56.5 143zM195 487l116 994h391l-229 -994h-278z" />
<glyph unicode="&#x22;" horiz-adv-x="897" d="M215 944l59 537h283l-125 -537h-217zM616 944l60 537h282l-124 -537h-218z" />
<glyph unicode="#" horiz-adv-x="1425" d="M43 379v201h274l113 288h-197v201h275l139 365h264l-141 -365h221l139 365h265l-140 -365h197v-201h-274l-113 -288h197v-201h-275l-147 -379h-265l148 379h-221l-146 -379h-264l148 379h-197zM580 580h221l112 288h-221z" />
<glyph unicode="$" horiz-adv-x="1218" d="M35 49l74 424h249l-36 -215q109 -51 227 -51q88 0 146.5 53.5t58.5 138.5q0 50 -30 91t-77.5 71.5t-105 60.5t-115.5 65.5t-105.5 78t-77.5 105.5t-30 141q0 124 66 225t172 158.5t231 66.5l31 176h192l-33 -184q155 -18 340 -84l-65 -373h-250l33 183q-90 55 -201 55 q-73 0 -121.5 -47.5t-48.5 -120.5q0 -46 30 -83t78 -64.5t106.5 -55t116.5 -62t106 -76.5t78 -107t30 -146q0 -211 -140 -347t-352 -151l-32 -192h-193l33 197q-205 18 -385 69z" />
<glyph unicode="%" horiz-adv-x="1681" d="M80 0l1278 1434h307l-1278 -1434h-307zM158 1049q0 179 106.5 295t284.5 116q137 0 219 -75.5t82 -194.5q0 -182 -107.5 -299t-285.5 -117q-139 0 -219 76.5t-80 198.5zM395 1051q0 -52 19 -83.5t57 -31.5q43 0 76.5 41t49 97.5t15.5 113.5q0 49 -21 79.5t-59 30.5 q-44 0 -76.5 -40t-46.5 -94.5t-14 -112.5zM899 246q0 179 106.5 295t284.5 116q137 0 219 -75.5t82 -194.5q0 -182 -107.5 -299t-285.5 -117q-139 0 -219 76.5t-80 198.5zM1137 248q0 -52 18.5 -83.5t56.5 -31.5q43 0 77 41t49.5 97.5t15.5 113.5q0 49 -21 80t-59 31 q-44 0 -76.5 -40t-46.5 -95t-14 -113z" />
<glyph unicode="&#x26;" horiz-adv-x="1490" d="M37 377q0 150 105 267.5t276 176.5q-99 146 -99 269q0 160 130 265t317 105q245 0 457 -102l-62 -340h-250l31 176q-69 37 -141 37q-60 0 -103 -39t-43 -96q0 -84 76 -181l275 -364q43 101 55 211h401l-35 -201h-129q-47 -115 -129 -227l97 -133h145l-35 -201l-366 -2 l-78 108q-188 -133 -408 -133q-217 0 -352 116.5t-135 287.5zM389 408q0 -79 55.5 -135t141.5 -56q108 0 211 74l-248 346q-73 -38 -116.5 -98.5t-43.5 -130.5z" />
<glyph unicode="'" horiz-adv-x="471" d="M113 926q133 133 133 299q0 78 -43 159l286 138q56 -95 56 -189q0 -254 -342 -497z" />
<glyph unicode="(" horiz-adv-x="684" d="M78 455q0 315 172 608t465 498l127 -121q-213 -223 -333 -476.5t-120 -517.5q0 -322 166 -616l-156 -109q-147 154 -234 345t-87 389z" />
<glyph unicode=")" horiz-adv-x="684" d="M-121 -170q213 223 333 476t120 517q0 323 -166 617l156 108q147 -155 234 -345t87 -388q0 -315 -172 -608t-465 -498z" />
<glyph unicode="*" horiz-adv-x="935" d="M147 995l267 95l-226 104l144 184l172 -170l14 273h230l-86 -264l235 167l88 -204l-268 -103l227 -96l-143 -184l-172 168l-17 -271h-229l86 260l-233 -163z" />
<glyph unicode="+" horiz-adv-x="1204" d="M131 510v258h350v375h279v-375h352v-258h-352v-379h-279v379h-350z" />
<glyph unicode="," horiz-adv-x="587" d="M-33 -217q133 133 133 299q0 79 -43 160l287 137q55 -93 55 -189q0 -254 -342 -497z" />
<glyph unicode="-" horiz-adv-x="733" d="M78 481l49 279h561l-49 -279h-561z" />
<glyph unicode="." horiz-adv-x="663" d="M63 176q0 82 63 142.5t146 60.5t143 -60.5t60 -142.5q0 -83 -60 -143t-143 -60q-84 0 -146.5 60t-62.5 143z" />
<glyph unicode="/" horiz-adv-x="915" d="M-137 -221l932 1757h297l-932 -1757h-297z" />
<glyph unicode="0" horiz-adv-x="1323" d="M119 463q0 159 26.5 304t81.5 270t134.5 216.5t193 144t248.5 52.5q227 0 347 -126t120 -353q0 -158 -26.5 -303.5t-82.5 -272t-135.5 -219t-192.5 -146t-247 -53.5q-226 0 -346.5 128.5t-120.5 357.5zM467 461q0 -108 36.5 -172t108.5 -64t133 73t98 186t58 240.5 t21 244.5q0 107 -37 170t-109 63q-73 0 -134 -72t-98 -184t-57 -239t-20 -246z" />
<glyph unicode="1" horiz-adv-x="899" d="M53 0l37 209h195l161 917l-210 -165l-136 174l426 299h310l-218 -1225h170l-36 -209h-699z" />
<glyph unicode="2" horiz-adv-x="1140" d="M-23 0l21 111q19 105 73 203.5t123.5 173.5t149.5 143.5t156 126.5t138 111t100 106.5t38 103.5q0 58 -35.5 93.5t-97.5 35.5q-75 0 -133.5 -62.5t-89.5 -160.5l-277 100q70 171 212.5 271t336.5 100q186 0 311 -108.5t125 -260.5q0 -86 -33 -162.5t-89 -136 t-124.5 -113.5t-143 -106.5t-141 -103t-123.5 -114t-85 -130.5h361l32 182h260l-71 -403h-994z" />
<glyph unicode="3" horiz-adv-x="1126" d="M-37 305l275 113q20 -83 76.5 -139t134.5 -56q103 0 172 68t69 176q0 93 -67.5 149t-173.5 56h-74l35 200q144 9 245 71.5t101 152.5q0 59 -38 93t-100 34q-66 0 -124.5 -44t-94.5 -106l-262 135q87 121 220 188.5t300 67.5q118 0 217 -40t160.5 -119t61.5 -181 q0 -138 -107.5 -227.5t-283.5 -110.5q156 -11 247.5 -95.5t91.5 -225.5t-85 -254.5t-223 -174.5t-298 -61q-184 0 -305 87.5t-170 242.5z" />
<glyph unicode="4" horiz-adv-x="1228" d="M2 410l33 186l776 838h342l-143 -816h164l-37 -208h-164l-37 -205h164l-35 -205h-672l35 205h184l37 205h-647zM326 618h360l84 484z" />
<glyph unicode="5" horiz-adv-x="1179" d="M8 295l277 113q21 -81 78.5 -135t132.5 -54q115 0 186.5 80t71.5 201q0 90 -52.5 146t-136.5 56q-104 0 -186 -86l-227 80l186 738h831l-61 -353h-260l22 129h-292l-89 -325q94 63 213 63q166 0 286 -126.5t120 -299.5q0 -122 -48 -225.5t-131.5 -174.5t-197.5 -111 t-244 -40q-181 0 -304.5 87t-174.5 237z" />
<glyph unicode="6" horiz-adv-x="1267" d="M117 473q0 207 49.5 385t142.5 312t237 211t322 77q197 0 379 -92l-131 -229q-122 73 -258 73q-128 0 -224 -116t-124 -299q47 64 123.5 105.5t167.5 41.5q165 0 275 -112.5t110 -278.5q0 -172 -77 -304t-214 -204t-313 -72q-220 0 -342.5 130.5t-122.5 371.5zM453 418 q0 -83 41.5 -141t109.5 -58q72 0 125 45.5t77.5 114t24.5 149.5q0 77 -38.5 122.5t-108.5 45.5q-103 0 -167 -82t-64 -196z" />
<glyph unicode="7" horiz-adv-x="1095" d="M102 1014l74 420h1067l-41 -226q-519 -516 -663 -1208h-359q156 728 637 1212h-414l-34 -198h-267z" />
<glyph unicode="8" horiz-adv-x="1275" d="M72 360q0 151 102 259t264 149q-91 33 -151 106t-60 160q0 123 74 221t196.5 150.5t266.5 52.5q185 0 315.5 -100t130.5 -244q0 -125 -86.5 -215.5t-224.5 -132.5q109 -26 186.5 -106t77.5 -185q0 -147 -80.5 -263.5t-217.5 -179.5t-304 -63q-137 0 -249.5 52.5 t-176 142.5t-63.5 196zM420 375q0 -74 41 -119t117 -45q105 0 170 77.5t67 184.5q0 75 -44.5 118.5t-119.5 43.5q-98 0 -164.5 -72.5t-66.5 -187.5zM557 1020q0 -62 35 -100.5t96 -38.5q77 0 134 62.5t57 150.5q0 58 -34 92.5t-97 34.5q-83 0 -137 -57t-54 -144z" />
<glyph unicode="9" horiz-adv-x="1249" d="M78 74l139 225q103 -78 252 -78q129 0 223 124.5t119 318.5q-48 -66 -124.5 -107t-164.5 -41q-157 0 -266 117t-109 278q0 238 167 392.5t425 154.5q221 0 341 -127t120 -354q0 -165 -28.5 -313t-87.5 -275t-144 -219t-204.5 -144.5t-262.5 -52.5q-231 0 -395 101z M500 928q0 -72 39.5 -121t107.5 -49q97 0 159 80.5t62 193.5q0 77 -42.5 127.5t-108.5 50.5q-98 0 -157.5 -83.5t-59.5 -198.5z" />
<glyph unicode=":" horiz-adv-x="671" d="M72 176q0 82 63 142.5t146 60.5t142.5 -60.5t59.5 -142.5q0 -83 -59.5 -143t-142.5 -60q-84 0 -146.5 60t-62.5 143zM188 881q0 81 62.5 141.5t146.5 60.5q83 0 143 -60t60 -142q0 -83 -60 -143t-143 -60q-84 0 -146.5 60t-62.5 143z" />
<glyph unicode=";" horiz-adv-x="638" d="M-12 -217q133 133 133 299q0 79 -43 160l287 137q55 -93 55 -189q0 -254 -342 -497zM164 881q0 81 62.5 141.5t146.5 60.5q83 0 142.5 -60t59.5 -142q0 -83 -59.5 -143t-142.5 -60q-84 0 -146.5 60t-62.5 143z" />
<glyph unicode="&#x3c;" horiz-adv-x="1150" d="M125 524v234l889 399v-287l-578 -229l578 -229v-287z" />
<glyph unicode="=" horiz-adv-x="1298" d="M176 274v258h981v-258h-981zM176 731v258h981v-258h-981z" />
<glyph unicode="&#x3e;" horiz-adv-x="1148" d="M176 125v287l578 229l-578 229v287l889 -399v-234z" />
<glyph unicode="?" horiz-adv-x="987" d="M82 1182q69 151 207.5 234t335.5 83q186 0 308 -103.5t122 -258.5q0 -64 -23.5 -123t-62 -104t-85 -86.5t-94.5 -77.5t-89 -69t-70.5 -68.5t-36.5 -69.5l-10 -52h-318l21 109q11 60 46 115t78.5 93.5t92 79t88.5 74.5t66 77t26 89q0 55 -33.5 89t-89.5 34q-70 0 -119 -51 t-75 -129zM195 168q0 83 57 138.5t139 55.5t139.5 -55.5t57.5 -138.5t-57.5 -141t-139.5 -58t-139 58t-57 141z" />
<glyph unicode="@" horiz-adv-x="1949" d="M106 410q0 210 77 393t211 312.5t320.5 203.5t399.5 74q168 0 310.5 -52.5t238 -142.5t148.5 -209t53 -252q0 -156 -59 -294.5t-171 -227t-250 -88.5q-200 0 -256 149q-45 -69 -114.5 -109t-157.5 -40q-118 0 -199.5 101.5t-81.5 240.5q0 126 52.5 233t144.5 169.5 t201 62.5q70 0 124 -36t85 -95l20 117h221l-84 -480q-2 -10 -2 -30q0 -35 20 -56.5t60 -21.5q64 0 113.5 64.5t72.5 153t23 177.5q0 206 -144 329.5t-395 123.5q-155 0 -291.5 -58.5t-234 -159.5t-153.5 -241.5t-56 -298.5q0 -223 139 -368.5t369 -145.5q187 0 377 106 l100 -186q-100 -64 -233 -98.5t-273 -34.5q-154 0 -289.5 56.5t-230.5 153t-150 228t-55 277.5zM823 489q0 -67 33.5 -108t91.5 -41q87 0 140 73t53 169q0 66 -36.5 102.5t-100.5 36.5q-75 0 -128 -69t-53 -163z" />
<glyph unicode="A" horiz-adv-x="1548" d="M-92 0l37 209h133l674 1225h393l209 -1225h135l-37 -209h-643l37 209h147l-26 209h-488l-110 -209h147l-37 -209h-571zM600 651h338l-64 535z" />
<glyph unicode="B" horiz-adv-x="1390" d="M-2 0l37 209h149l181 1016h-150l37 209h680q174 0 288.5 -88.5t114.5 -231.5q0 -125 -85.5 -217.5t-219.5 -132.5q115 -21 192.5 -102t77.5 -189q0 -141 -77.5 -250t-207 -166t-288.5 -57h-729zM526 201h117q124 0 203.5 73t79.5 189q0 85 -56 132.5t-149 47.5h-115z M639 838h106q103 0 167.5 67t64.5 174q0 71 -46 112.5t-118 41.5h-104z" />
<glyph unicode="C" horiz-adv-x="1429" d="M117 614q0 183 66 343t177 270.5t261.5 173.5t316.5 63q279 0 541 -118l-76 -433h-250l39 228q-121 69 -256 69q-121 0 -222 -78.5t-158.5 -213t-57.5 -295.5q0 -165 75.5 -274t200.5 -109q108 0 203.5 66.5t161.5 172.5l217 -176q-99 -159 -263.5 -246.5t-371.5 -87.5 q-175 0 -314.5 88.5t-214.5 235.5t-75 321z" />
<glyph unicode="D" horiz-adv-x="1579" d="M0 0l37 209h149l179 1016h-150l37 209h639q288 0 466.5 -153t178.5 -415q0 -256 -105.5 -452.5t-300 -305t-450.5 -108.5h-680zM530 215h138q133 0 245 87t177 235.5t65 322.5q0 167 -91.5 263t-232.5 96h-122z" />
<glyph unicode="E" d="M0 0l37 209h149l179 1016h-150l37 209h1034l-65 -369h-250l28 164h-290l-64 -373h385l-39 -221h-385l-76 -430h306l34 190h250l-69 -395h-1051z" />
<glyph unicode="F" horiz-adv-x="1208" d="M-2 0l37 209h149l181 1016h-150l37 209h1055l-68 -383h-250l31 178h-311l-72 -408h389l-37 -217h-389l-72 -395h211l-37 -209h-704z" />
<glyph unicode="G" horiz-adv-x="1581" d="M117 621q0 245 115 439t309.5 299t431.5 105q303 0 588 -110l-66 -377h-250l29 166q-134 67 -293 67q-140 0 -250.5 -75.5t-171.5 -208.5t-61 -299q0 -167 77.5 -279t206.5 -112q139 0 244 81t143 220h-288l41 241h583l-137 -778h-278l30 170q-85 -95 -198 -148t-240 -53 q-159 0 -289.5 90.5t-203 239.5t-72.5 322z" />
<glyph unicode="H" horiz-adv-x="1746" d="M0 0l37 209h149l179 1016h-150l37 209h639l-37 -209h-145l-64 -359h574l63 359h-145l37 209h638l-36 -209h-150l-178 -1016h149l-36 -209h-639l36 209h146l70 395h-574l-70 -395h146l-37 -209h-639z" />
<glyph unicode="I" horiz-adv-x="827" d="M-2 0l37 209h149l181 1016h-150l37 209h643l-37 -209h-149l-181 -1016h150l-37 -209h-643z" />
<glyph unicode="J" horiz-adv-x="815" d="M-215 -276l74 206q54 -26 127 -26q74 0 127.5 49.5t68.5 132.5l201 1139h-193l37 209h686l-36 -209h-150l-203 -1157q-33 -184 -175 -287t-337 -103q-122 0 -227 46z" />
<glyph unicode="K" horiz-adv-x="1558" d="M2 0l37 209h149l179 1016h-150l37 209h608l-37 -209h-114l-78 -445l489 455h-133l35 199h621l-37 -209h-148l-499 -439l380 -577h160l-37 -209h-682l35 199h123l-317 528l-91 -518h117l-37 -209h-610z" />
<glyph unicode="L" horiz-adv-x="1210" d="M0 0l37 209h149l179 1016h-150l37 209h653l-37 -209h-159l-179 -1016h312l43 240h250l-80 -449h-1055z" />
<glyph unicode="M" horiz-adv-x="2078" d="M0 0l37 209h149l179 1016h-150l37 209h584l202 -854l502 854h604l-37 -209h-149l-178 -1016h149l-37 -209l-624 -2l39 211h139l158 891l-551 -938h-224l-219 938l-157 -891h139l-37 -209h-555z" />
<glyph unicode="N" horiz-adv-x="1714" d="M-2 0l37 209h149l181 1016h-150l37 209h506l446 -992l137 783h-149l37 209h575l-37 -209h-149l-215 -1225h-365l-440 993l-137 -784h149l-37 -209h-575z" />
<glyph unicode="O" horiz-adv-x="1662" d="M115 606q0 185 64 344.5t176 272.5t270.5 177t341.5 64q294 0 471.5 -171.5t177.5 -448.5q0 -252 -106.5 -451t-301.5 -311.5t-446 -112.5q-295 0 -471 176.5t-176 460.5zM496 612q0 -171 77 -279t207 -108q93 0 177 48.5t145 130t97 194.5t36 238q0 171 -76.5 271.5 t-212.5 100.5q-120 0 -223 -76.5t-165 -214.5t-62 -305z" />
<glyph unicode="P" horiz-adv-x="1351" d="M0 0l37 209h149l179 1016h-150l37 209h672q202 0 334.5 -104t132.5 -269q0 -114 -50.5 -213.5t-135 -167.5t-197 -106.5t-234.5 -38.5h-186l-58 -326h211l-36 -209h-705zM625 743h96q123 0 208 86t85 218q0 85 -57 132.5t-148 47.5h-100z" />
<glyph unicode="Q" horiz-adv-x="1667" d="M115 606q0 185 64 344.5t176 272.5t270.5 177t341.5 64q294 0 471.5 -171.5t177.5 -448.5q0 -182 -58 -339t-161.5 -271.5t-253 -184t-326.5 -78.5l-76 -102q93 -27 189 -27q235 0 422 174l141 -198q-101 -103 -231 -157t-275 -54q-196 0 -360 114q-66 -77 -148 -77 q-61 0 -102 43t-41 108q0 64 45 108t108 44q40 0 82 -21l45 56q-233 43 -367 210.5t-134 413.5zM496 612q0 -171 77 -279t207 -108q93 0 177 48.5t145 130t97 194.5t36 238q0 171 -76.5 271.5t-212.5 100.5q-120 0 -223 -76.5t-165 -214.5t-62 -305z" />
<glyph unicode="R" horiz-adv-x="1454" d="M0 0l37 209h149l179 1016h-150l37 209h700q192 0 316.5 -97.5t124.5 -261.5q0 -142 -105 -254t-256 -166l201 -446h164l-37 -209h-422l-223 594h-119l-66 -385h138l-37 -209h-631zM631 784h112q110 0 191.5 79.5t81.5 199.5q0 81 -51.5 126.5t-133.5 45.5h-122z" />
<glyph unicode="S" horiz-adv-x="1212" d="M20 49l76 426h250l-37 -211q107 -51 234 -51q93 0 154 51.5t61 136.5q0 50 -30.5 90.5t-79.5 71t-108 60t-118.5 65t-108.5 78t-80 106.5q-32 67 -32 148q0 97 43 181q44 85 117.5 142t169 89t198.5 32q231 0 490 -88l-66 -375h-250l33 185q-93 49 -201 49 q-76 0 -131 -47t-55 -117q0 -45 31 -82t80.5 -64.5t109.5 -55t119.5 -62t109 -77t80.5 -109t31 -148.5q0 -227 -156.5 -364.5t-394.5 -137.5q-265 0 -539 78z" />
<glyph unicode="T" horiz-adv-x="1363" d="M121 981l80 453h1282l-80 -453h-250l43 244h-219l-180 -1016h174l-37 -209h-692l37 209h174l180 1016h-219l-43 -244h-250z" />
<glyph unicode="U" horiz-adv-x="1630" d="M180 1225l37 209h639l-37 -209h-149l-127 -717q-6 -34 -6 -68q0 -92 62 -152.5t173 -60.5q117 0 198.5 73.5t102.5 184.5l133 740h-149l37 209h639l-37 -209h-146l-131 -740q-44 -249 -219 -381.5t-461 -132.5q-248 0 -398.5 124.5t-150.5 316.5q0 56 9 108l127 705h-146 z" />
<glyph unicode="V" horiz-adv-x="1544" d="M123 1225l37 209h669l-36 -209h-154l121 -912l438 912h-158l37 209h623l-37 -209h-145l-639 -1227h-398l-211 1227h-147z" />
<glyph unicode="W" horiz-adv-x="2299" d="M123 1225l37 209h682l-37 -209h-176l49 -949l463 1158h389l67 -1155l375 946h-176l37 209h623l-37 -209h-144l-536 -1225h-424l-78 1012l-428 -1012h-424l-115 1225h-147z" />
<glyph unicode="X" horiz-adv-x="1411" d="M-92 0l37 209h139l465 541l-248 475h-154l37 209h621l-33 -185h-121l172 -325l271 325h-131l32 185h553l-37 -209h-143l-436 -510l266 -506h154l-37 -209h-637l33 190h131l-183 351l-292 -351h129l-33 -190h-555z" />
<glyph unicode="Y" horiz-adv-x="1435" d="M123 1225l37 209h633l-33 -191h-129l164 -420l323 420h-141l33 191h579l-37 -209h-143l-510 -641l-65 -375h176l-37 -209h-697l37 209h176l66 381l-276 635h-156z" />
<glyph unicode="Z" horiz-adv-x="1284" d="M-16 0l34 190l865 1035h-406l-39 -221h-250l76 430h1086l-33 -189l-866 -1036h454l45 256h250l-82 -465h-1134z" />
<glyph unicode="[" horiz-adv-x="675" d="M20 -291l328 1852h481l-32 -185h-195l-262 -1482h195l-33 -185h-482z" />
<glyph unicode="\" horiz-adv-x="892" d="M188 1536h273l311 -1757h-272z" />
<glyph unicode="]" horiz-adv-x="675" d="M-117 -291l33 185h195l262 1482h-195l33 185h481l-327 -1852h-482z" />
<glyph unicode="^" horiz-adv-x="1107" d="M66 651l520 783h256l241 -783h-292l-125 471l-295 -471h-305z" />
<glyph unicode="_" horiz-adv-x="1312" d="M-84 -250l37 209h1206l-39 -209h-1204z" />
<glyph unicode="`" horiz-adv-x="694" d="M274 1499h338l86 -301h-235z" />
<glyph unicode="a" horiz-adv-x="1357" d="M76 436q0 181 73.5 331t200.5 236.5t279 86.5q97 0 172 -51t112 -132l27 152h326l-152 -858h150l-35 -201h-467l26 158q-57 -84 -148 -134.5t-198 -50.5q-105 0 -189.5 64.5t-130.5 170t-46 228.5zM416 451q0 -111 46 -177.5t128 -66.5q81 0 146 61.5t98.5 155.5 t33.5 197q0 113 -46 174t-130 61q-78 0 -142.5 -58.5t-99 -151t-34.5 -195.5z" />
<glyph unicode="b" horiz-adv-x="1349" d="M88 -2l225 1282h-149l39 201h471l-101 -566q62 77 149.5 126t188.5 49q159 0 266 -133t107 -322q0 -178 -71 -329.5t-199.5 -242t-286.5 -90.5q-99 0 -176.5 55t-114.5 140l-30 -170h-318zM487 440q0 -109 47 -171t130 -62q81 0 146.5 61t99.5 156t34 201q0 105 -48 168 t-128 63t-145.5 -61.5t-100.5 -156.5t-35 -198z" />
<glyph unicode="c" horiz-adv-x="1144" d="M76 440q0 138 49 259t131.5 205t194.5 132.5t235 48.5q219 0 436 -92l-59 -338h-221l30 168q-80 41 -163 41q-81 0 -149 -58.5t-106 -153.5t-38 -201q0 -105 52 -171.5t136 -66.5q70 0 133 44t109 114l198 -138q-77 -128 -202.5 -195t-292.5 -67q-213 0 -343 132 t-130 337z" />
<glyph unicode="d" horiz-adv-x="1357" d="M76 436q0 181 73.5 331t200.5 236.5t279 86.5q97 0 172 -51t112 -132l66 373h-150l35 201h477l-227 -1280h150l-35 -201h-467l26 158q-57 -84 -148 -134.5t-198 -50.5q-105 0 -189.5 64.5t-130.5 170t-46 228.5zM416 451q0 -111 46 -177.5t128 -66.5q81 0 146 61.5 t98.5 155.5t33.5 197q0 113 -46 174t-130 61q-78 0 -142.5 -58.5t-99 -151t-34.5 -195.5z" />
<glyph unicode="e" d="M78 457q0 140 50 259.5t135.5 200.5t201 127t244.5 46q196 0 323 -125.5t127 -309.5q0 -89 -33 -194l-720 -2q0 -114 58.5 -184t158.5 -70q156 0 276 127l186 -142q-89 -106 -220.5 -162.5t-289.5 -56.5q-225 0 -361 136.5t-136 349.5zM430 639h401q5 35 5 61 q0 78 -41.5 127.5t-112.5 49.5q-87 0 -156 -67t-96 -171z" />
<glyph unicode="f" horiz-adv-x="851" d="M-188 -367l59 207q50 -24 102 -24q65 0 109 39t55 104l158 899h-164l35 201h164l18 98q29 157 155 247.5t310 90.5q120 0 225 -20l-49 -211q-74 18 -133 18q-76 0 -125.5 -37.5t-60.5 -101.5l-15 -84h242l-35 -201h-241l-162 -917q-28 -159 -150 -248.5t-305 -89.5 q-100 0 -192 30z" />
<glyph unicode="g" horiz-adv-x="1320" d="M18 -268l138 176q113 -98 270 -98q132 0 227 62.5t115 168.5l25 137q-55 -80 -147.5 -129t-194.5 -49q-160 0 -266.5 131.5t-106.5 314.5q0 174 74 322.5t201.5 235t277.5 86.5q95 0 169 -50.5t113 -130.5l27 150h326l-181 -1010q-40 -223 -218.5 -340t-442.5 -117 q-233 0 -406 140zM418 463q0 -107 45.5 -171.5t126.5 -64.5t146 59.5t98.5 150t33.5 190.5q0 112 -46.5 170.5t-131.5 58.5q-116 0 -194 -118.5t-78 -274.5z" />
<glyph unicode="h" horiz-adv-x="1370" d="M92 0l225 1280h-149l35 201h475l-103 -590q57 86 145 138t191 52q132 0 226 -91.5t94 -217.5q0 -28 -8 -74l-88 -497h149l-35 -201h-475l119 666q4 24 4 41q0 59 -36 94t-101 35q-83 0 -150.5 -62.5t-81.5 -146.5l-110 -627h-326z" />
<glyph unicode="i" horiz-adv-x="694" d="M90 0l152 858h-150l37 201h473l-151 -858h149l-35 -201h-475zM297 1380q0 76 50.5 125t131.5 49q83 0 135 -49t52 -125q0 -77 -52 -125.5t-135 -48.5q-82 0 -132 48.5t-50 125.5z" />
<glyph unicode="j" horiz-adv-x="714" d="M-188 -371l57 209q49 -22 100 -22q64 0 105.5 38t52.5 103l160 901h-160l37 201h483l-196 -1116q-29 -159 -149.5 -249.5t-301.5 -90.5q-102 0 -188 26zM340 1380q0 76 50.5 125t131.5 49q83 0 135 -49t52 -125q0 -77 -52 -125.5t-135 -48.5q-82 0 -132 48.5t-50 125.5z " />
<glyph unicode="k" horiz-adv-x="1251" d="M88 0l227 1280h-149l39 201h471l-139 -789q122 38 211.5 136t128.5 231h374q-50 -155 -171.5 -271.5t-280.5 -181.5l235 -405h156l-35 -201h-377l-266 545l-98 -545h-326z" />
<glyph unicode="l" horiz-adv-x="694" d="M90 0l227 1280h-149l35 201h475l-227 -1280h149l-35 -201h-475z" />
<glyph unicode="m" horiz-adv-x="1986" d="M92 0l152 858h-150l35 201h471l-31 -180q60 91 143 146.5t183 55.5q98 0 171.5 -53t100.5 -135q63 86 154.5 137t208.5 51q129 0 222 -90t93 -215q0 -42 -6 -80l-88 -495h150l-35 -201h-475l118 672q4 24 4 39q0 56 -34.5 90.5t-92.5 34.5q-75 0 -133.5 -58.5 t-72.5 -138.5l-113 -639h-326l119 674q4 24 4 39q0 57 -33.5 90t-93.5 33q-76 0 -135 -62.5t-74 -152.5l-110 -621h-326z" />
<glyph unicode="n" horiz-adv-x="1370" d="M92 0l152 858h-150l35 201h477l-31 -168q57 86 145 138t191 52q132 0 226 -91.5t94 -217.5q0 -28 -8 -74l-88 -497h149l-35 -201h-475l119 666q4 24 4 41q0 59 -36 94t-101 35q-83 0 -150.5 -62.5t-81.5 -146.5l-110 -627h-326z" />
<glyph unicode="o" horiz-adv-x="1288" d="M78 455q0 284 179.5 459.5t465.5 175.5q145 0 259.5 -63t176.5 -170.5t62 -238.5q0 -290 -177 -469.5t-469 -179.5q-223 0 -360 139t-137 347zM418 459q0 -113 47 -184.5t129 -71.5q80 0 146.5 58t103.5 152t37 201q0 108 -47 175t-129 67q-122 0 -204.5 -116.5 t-82.5 -280.5z" />
<glyph unicode="p" horiz-adv-x="1353" d="M25 -383l219 1241h-150l35 201h475l-24 -144q62 77 149.5 126t188.5 49q159 0 265.5 -133t106.5 -322q0 -178 -70.5 -329.5t-198.5 -242t-286 -90.5q-99 0 -175.5 53.5t-113.5 137.5l-96 -547h-325zM494 440q0 -109 46.5 -171t129.5 -62q81 0 146.5 61t99.5 156t34 201 q0 105 -48 168t-128 63t-145.5 -61.5t-100 -156.5t-34.5 -198z" />
<glyph unicode="q" horiz-adv-x="1323" d="M76 436q0 181 73.5 331t200.5 236.5t279 86.5q98 0 175 -52t114 -135l28 156h326l-254 -1442h-326l96 541q-57 -84 -148 -134.5t-198 -50.5q-105 0 -189.5 64.5t-130.5 170t-46 228.5zM416 451q0 -111 46 -177.5t128 -66.5q81 0 146 61.5t98.5 155.5t33.5 197 q0 113 -46 174t-130 61q-78 0 -142.5 -58.5t-99 -151t-34.5 -195.5z" />
<glyph unicode="r" horiz-adv-x="1015" d="M92 0l152 858h-150l35 201h471l-43 -244q66 120 162 196t196 76q91 0 168 -43l-170 -317q-76 51 -161 51q-91 0 -153 -52.5t-77 -141.5l-104 -584h-326z" />
<glyph unicode="s" horiz-adv-x="1081" d="M25 47l53 309h221l-23 -133q99 -47 207 -47q64 0 106 32t42 85q0 33 -26.5 58.5t-68.5 44t-93 37t-102 43.5t-93 56.5t-69 83t-27 117.5q0 157 126 254.5t308 97.5q209 0 430 -77l-45 -267h-221l20 107q-82 45 -174 45q-53 0 -89 -29t-36 -73q0 -31 27 -55t69.5 -42 t94.5 -36t103.5 -43.5t94.5 -58t70.5 -85t27.5 -119.5q0 -176 -133 -278.5t-336 -102.5q-239 0 -464 76z" />
<glyph unicode="t" horiz-adv-x="813" d="M84 858l35 201h151l43 252h326l-43 -252h211l-35 -201h-213l-88 -506q-4 -24 -4 -41q0 -48 31 -75t77 -27q41 0 107 16l33 -205q-118 -32 -242 -32q-153 0 -244.5 77t-91.5 205q0 26 8 80l88 508h-149z" />
<glyph unicode="u" horiz-adv-x="1343" d="M84 858l35 201h477l-119 -664q-4 -24 -4 -43q0 -59 32.5 -94t86.5 -35q77 0 140.5 60.5t78.5 146.5l113 629h325l-151 -858h149l-35 -201h-471l31 166q-62 -84 -153 -135t-195 -51q-122 0 -202.5 90t-80.5 213q0 27 9 92l83 483h-149z" />
<glyph unicode="v" horiz-adv-x="1241" d="M18 858l35 201h439l69 -791q149 125 241.5 268.5t92.5 286.5q0 6 -1 17.5t-1 17.5h-180l35 201h426q26 -102 26 -219q0 -212 -163 -436.5t-437 -409.5h-319l-99 864h-164z" />
<glyph unicode="w" horiz-adv-x="1859" d="M18 858l35 201h432l45 -797q136 134 222 298.5t86 320.5q0 21 -4 71l-13 107h318l61 -797q144 125 233 271t89 282q0 7 -1 21.5t-1 21.5h-172l34 201h404q26 -107 26 -221q0 -209 -156.5 -432t-430.5 -412h-277l-51 444q-126 -229 -365 -444h-274l-82 864h-158z" />
<glyph unicode="x" horiz-adv-x="1163" d="M-39 0l25 143l422 410l-146 305h-149l34 201h359l170 -357l190 183h-129l31 174h434l-24 -144l-418 -385l155 -329h158l-35 -201h-366l-178 375l-197 -201h135l-31 -174h-440z" />
<glyph unicode="y" horiz-adv-x="1245" d="M-158 -369l74 211q54 -26 135 -26q72 0 156 46t153 118l-176 878h-164l35 201h414l160 -846q120 137 192 298.5t72 307.5v39h-180l35 201h423q27 -106 27 -211q0 -118 -50.5 -260t-135 -279.5t-200 -268t-240.5 -228.5t-262 -158t-259 -60q-121 0 -209 37z" />
<glyph unicode="z" horiz-adv-x="1107" d="M2 0l31 174l622 690h-266l-22 -135h-222l60 330h887l-31 -170l-621 -694h299l27 147h221l-59 -342h-926z" />
<glyph unicode="{" horiz-adv-x="688" d="M55 561l35 191q73 0 120 47.5t62 138.5l50 285q58 338 518 338l-33 -191q-83 0 -135.5 -49t-65.5 -125l-49 -278q-20 -116 -87 -186t-175 -89q85 -19 128.5 -73t43.5 -138q0 -31 -6 -61l-53 -301q-5 -35 -5 -45q0 -125 144 -125l-33 -191q-178 0 -288.5 77t-110.5 216 q0 26 8 80l49 289q6 30 6 61q0 64 -32 96.5t-91 32.5z" />
<glyph unicode="|" horiz-adv-x="759" d="M268 -422v2026h283v-2026h-283z" />
<glyph unicode="}" horiz-adv-x="688" d="M-115 -291l33 191q83 0 135.5 49t65.5 125l49 278q20 116 87 186t175 89q-85 19 -128.5 73t-43.5 138q0 31 6 61l53 301q5 35 5 45q0 125 -144 125l33 191q178 0 288.5 -77t110.5 -216q0 -26 -8 -80l-49 -289q-6 -30 -6 -61q0 -64 32 -96.5t91 -32.5l-35 -191 q-73 0 -120 -47.5t-62 -138.5l-50 -285q-58 -338 -518 -338z" />
<glyph unicode="~" horiz-adv-x="1105" d="M66 438q28 164 121.5 272.5t230.5 108.5q53 0 105.5 -18.5t86 -41t73.5 -41t71 -18.5q46 0 76 32.5t40 78.5h205q-28 -164 -121.5 -272.5t-230.5 -108.5q-53 0 -105.5 18.5t-86 41t-73.5 41t-71 18.5q-44 0 -75.5 -33t-41.5 -78h-204z" />
<glyph unicode="&#xa1;" horiz-adv-x="690" d="M-6 -383l229 993h279l-117 -993h-391zM217 928q0 84 57.5 142t139.5 58t138 -57.5t56 -142.5q0 -79 -56.5 -136t-137.5 -57t-139 57.5t-58 135.5z" />
<glyph unicode="&#xa2;" horiz-adv-x="1204" d="M137 610q0 126 41.5 239.5t113 196t167.5 136.5t205 69l30 189h193l-33 -187q177 -18 328 -90l-60 -336h-221l29 168q-80 41 -162 41q-81 0 -148.5 -59.5t-105 -154.5t-37.5 -201q0 -105 52.5 -172.5t136.5 -67.5q71 0 136 44t107 112l195 -131q-69 -118 -184 -185 t-261 -76l-30 -180h-193l35 195q-155 38 -244.5 159.5t-89.5 290.5z" />
<glyph unicode="&#xa3;" horiz-adv-x="1239" d="M37 0l37 199q97 88 166.5 202t89.5 228h-209l35 209h166q-19 105 -19 168q0 133 67.5 237.5t180 160.5t248.5 56q247 0 491 -88l-63 -364h-250l29 168q-82 45 -177 45q-90 0 -143 -63.5t-53 -166.5q0 -51 16 -153h275l-35 -209h-236q-17 -110 -69.5 -215.5t-130.5 -192.5 h387l32 182h261l-72 -403h-1024z" />
<glyph unicode="&#xa5;" horiz-adv-x="1349" d="M129 1225l35 209h586l-33 -191h-119l143 -426l303 426h-120l32 191h547l-35 -209h-135l-364 -463h227l-25 -144h-323l-19 -106h324l-25 -143h-323l-31 -168h172l-35 -201h-659l35 201h168l30 168h-323l24 143h324l18 106h-323l24 144h238l-201 463h-137z" />
<glyph unicode="&#xa7;" horiz-adv-x="1290" d="M158 578q0 177 184 299q-113 98 -113 266q0 150 103 254t258 104q88 0 160 -35t114 -96v107h242v-381h-217q-20 83 -80 127.5t-145 44.5q-59 0 -95.5 -33.5t-36.5 -83.5q0 -36 27 -65.5t71 -50t100.5 -44.5t115 -46t115 -57t100.5 -76.5t71 -106t27 -142.5 q0 -184 -178 -307q115 -100 115 -270q0 -164 -103 -271.5t-266 -107.5q-97 0 -169.5 38t-115.5 105v-117h-241v402h217q18 -88 82.5 -139.5t150.5 -51.5q62 0 102 33t40 90q0 33 -21.5 60.5t-58.5 49t-84.5 42t-100 43t-105.5 48t-100.5 60.5t-84.5 77t-58.5 101.5 t-21.5 129.5zM463 637q0 -26 8.5 -50t20.5 -42t36 -37t43 -31.5t54 -29.5t56.5 -26t63.5 -26t62 -26q47 50 47 120q0 25 -8.5 48.5t-20.5 41.5t-35.5 37t-42.5 32t-53 30t-56 27t-62.5 27.5t-61.5 27.5q-51 -48 -51 -123z" />
<glyph unicode="&#xa8;" horiz-adv-x="1019" d="M276 1364q0 65 46 107t116 42q72 0 117 -42t45 -107q0 -66 -45 -109t-117 -43q-74 0 -118 42.5t-44 109.5zM715 1364q0 65 45 107t117 42q70 0 115.5 -42t45.5 -107t-45.5 -108.5t-115.5 -43.5q-74 0 -118 43t-44 109z" />
<glyph unicode="&#xa9;" horiz-adv-x="1740" d="M123 723q0 153 58 289.5t160 236.5t248 158.5t314 58.5t314 -58.5t248 -158.5t160 -236.5t58 -289.5q0 -156 -58 -295t-160 -240t-248 -160t-314 -59t-314 59t-248 160t-160 240t-58 295zM354 723q0 -160 68.5 -289t194.5 -203.5t286 -74.5t286 74.5t194.5 203.5 t68.5 289q0 157 -68.5 283.5t-194.5 200t-286 73.5t-286 -73.5t-194.5 -200t-68.5 -283.5zM532 723q0 155 99.5 262t247.5 107q115 0 186 -88v69h156v-270h-138q-13 58 -52.5 90.5t-94.5 32.5q-70 0 -117 -55t-47 -148q0 -92 48.5 -151.5t121.5 -59.5q49 0 89 26t63 68 l151 -94q-47 -83 -132 -129.5t-189 -46.5q-175 0 -283.5 107.5t-108.5 279.5z" />
<glyph unicode="&#xaa;" horiz-adv-x="1011" d="M158 977q0 202 118 339.5t287 137.5q70 0 125 -35t82 -92l18 107h240l-108 -621h106l-27 -147h-342l21 114q-42 -62 -108.5 -97.5t-143.5 -35.5q-113 0 -190.5 96.5t-77.5 233.5zM416 989q0 -77 31.5 -121.5t89.5 -44.5q85 0 141.5 90.5t56.5 202.5q0 79 -31 120.5 t-90 41.5q-84 0 -141 -87.5t-57 -201.5z" />
<glyph unicode="&#xab;" horiz-adv-x="1210" d="M70 602l338 391h317l-356 -413l192 -379h-287zM553 561l373 432h317l-393 -454l172 -338h-287z" />
<glyph unicode="&#xad;" horiz-adv-x="733" d="M78 481l49 279h561l-49 -279h-561z" />
<glyph unicode="&#xae;" horiz-adv-x="1030" d="M168 1096q0 118 54 215t156.5 155t235.5 58q200 0 323.5 -123.5t123.5 -304.5q0 -119 -54 -217t-157 -156.5t-236 -58.5q-199 0 -322.5 124.5t-123.5 307.5zM301 1096q0 -140 85 -230t228 -90q145 0 229.5 90t84.5 230q0 139 -84 227t-230 88q-142 0 -227.5 -88.5 t-85.5 -226.5zM440 903v66h33v276h-33v66h195q65 0 106 -31.5t41 -85.5q0 -36 -23 -65.5t-59 -41.5l74 -118h43v-66h-129l-86 166h-27v-100h31v-66h-166zM575 1128h27q29 0 48.5 16t19.5 46q0 26 -19 41.5t-45 15.5h-31v-119z" />
<glyph unicode="&#xaf;" horiz-adv-x="931" d="M254 1227l37 194h667l-34 -194h-670z" />
<glyph unicode="&#xb0;" horiz-adv-x="800" d="M158 1124q0 141 99 239.5t249 98.5q153 0 250.5 -97t97.5 -239q0 -145 -97 -241.5t-251 -96.5q-153 0 -250.5 96.5t-97.5 239.5zM377 1124q0 -58 35 -95.5t94 -37.5q60 0 94.5 37.5t34.5 97.5q0 59 -34.5 96.5t-94.5 37.5q-58 0 -93.5 -38.5t-35.5 -97.5z" />
<glyph unicode="&#xb2;" horiz-adv-x="776" d="M106 627l13 75q11 70 48.5 134t84.5 108t99.5 86t95.5 72t71.5 62t28.5 59q0 33 -18 52t-50 19q-35 0 -65.5 -33t-44.5 -79l-181 59q40 98 128 155.5t206 57.5q112 0 186 -66.5t74 -154.5q0 -50 -27 -97t-68.5 -82.5t-91.5 -73t-94.5 -68t-79.5 -67t-44 -71.5h160l14 88 h180l-43 -235h-582z" />
<glyph unicode="&#xb3;" horiz-adv-x="765" d="M76 809l178 74q9 -45 42 -78t75 -33q56 0 92.5 35t36.5 90q0 50 -37.5 77t-93.5 27h-45l24 129q81 7 136 36t55 77q0 32 -20 51t-54 19q-74 0 -119 -80l-162 84q51 67 129 106t172 39q115 0 197 -53t82 -141q0 -82 -59 -132t-160 -61q88 -8 139 -57t51 -131 q0 -124 -108.5 -199.5t-264.5 -75.5q-107 0 -182.5 53.5t-103.5 143.5z" />
<glyph unicode="&#xb4;" horiz-adv-x="720" d="M233 1198l195 299h360l-307 -299h-248z" />
<glyph unicode="&#xb6;" horiz-adv-x="1411" d="M137 1047q0 163 112 275t275 112h813v-209h-166v-1317h-241v1317h-158v-1317h-242v751q-110 1 -200 53t-141.5 140.5t-51.5 194.5z" />
<glyph unicode="&#xb7;" horiz-adv-x="663" d="M143 631q0 82 63 142.5t146 60.5t143 -60.5t60 -142.5q0 -83 -60 -143t-143 -60q-84 0 -146.5 60t-62.5 143z" />
<glyph unicode="&#xb8;" horiz-adv-x="634" d="M-49 -449l61 150q31 -23 80 -23q36 0 61 16.5t25 47.5q0 30 -20.5 46.5t-51.5 16.5q-29 0 -57 -8l86 223h148l-45 -114q66 -3 110.5 -47.5t44.5 -108.5q0 -108 -88 -168.5t-217 -60.5q-82 0 -137 30z" />
<glyph unicode="&#xb9;" horiz-adv-x="681" d="M158 627l24 143h115l86 485l-139 -100l-80 121l260 158h211l-119 -664h109l-25 -143h-442z" />
<glyph unicode="&#xba;" horiz-adv-x="978" d="M156 975q0 204 131.5 342.5t335.5 138.5q172 0 278.5 -91.5t106.5 -244.5q0 -204 -133.5 -345.5t-337.5 -141.5q-172 0 -276.5 93t-104.5 249zM414 987q0 -74 35.5 -120t95.5 -46q91 0 148 89.5t57 197.5q0 71 -37 115.5t-99 44.5q-90 0 -145 -83.5t-55 -197.5z" />
<glyph unicode="&#xbb;" horiz-adv-x="1212" d="M-8 201l393 454l-172 338h287l182 -360l-373 -432h-317zM510 201l356 413l-192 379h287l204 -401l-338 -391h-317z" />
<glyph unicode="&#xbc;" horiz-adv-x="1841" d="M182 627l25 143h115l86 485l-140 -100l-80 121l261 158h210l-118 -664h108l-24 -143h-443zM297 -84l1073 1602h246l-1073 -1602h-246zM983 231l18 113l441 467h211l-80 -449h106l-22 -131h-107l-18 -100h106l-22 -131h-436l22 131h119l18 100h-356zM1167 362h195l45 254z " />
<glyph unicode="&#xbd;" horiz-adv-x="1857" d="M182 627l25 143h115l86 485l-140 -100l-80 121l261 158h210l-118 -664h108l-24 -143h-443zM297 -84l1073 1602h246l-1073 -1602h-246zM1051 0l12 76q10 61 39 116.5t67.5 97t82.5 79t86 67.5t76.5 56.5t55.5 53t21 50.5q0 33 -18 52.5t-50 19.5q-35 0 -65 -33.5 t-45 -79.5l-180 59q40 99 127.5 156t205.5 57q112 0 186 -66.5t74 -154.5q0 -50 -27 -97t-68.5 -82.5t-91.5 -73t-94.5 -68t-79.5 -67t-44 -71.5h160l14 89h180l-43 -236h-581z" />
<glyph unicode="&#xbe;" horiz-adv-x="1845" d="M82 809l178 74q9 -45 42 -78t75 -33q56 0 92.5 35t36.5 90q0 50 -37.5 77t-93.5 27h-45l24 129q81 7 136 36t55 77q0 32 -20 51t-54 19q-74 0 -119 -80l-162 84q51 67 129.5 106t172.5 39q115 0 196.5 -53t81.5 -141q0 -82 -59 -132t-160 -61q88 -8 139 -57t51 -131 q0 -124 -108 -199.5t-264 -75.5q-107 0 -183 53.5t-104 143.5zM299 -84l1073 1602h246l-1073 -1602h-246zM987 231l19 113l440 467h211l-80 -449h106l-22 -131h-107l-18 -100h106l-22 -131h-436l22 131h119l18 100h-356zM1171 362h195l45 254z" />
<glyph unicode="&#xbf;" horiz-adv-x="989" d="M-59 -39q0 74 31.5 141.5t79.5 115.5t106 96t108.5 84.5t88.5 79t46 81.5l11 51h317l-20 -108q-10 -52 -37.5 -100t-63 -84t-76.5 -70.5t-80 -66t-70.5 -63t-51 -68.5t-19.5 -77q0 -55 33.5 -89t89.5 -34q70 0 119.5 51.5t75.5 129.5l284 -115q-69 -151 -207 -234 t-335 -83q-186 0 -308 103.5t-122 258.5zM408 930q0 83 57 140.5t139 57.5t139.5 -57.5t57.5 -140.5t-57.5 -139t-139.5 -56t-139 56t-57 139z" />
<glyph unicode="&#xc0;" horiz-adv-x="1548" d="M-92 0l37 209h133l674 1225h393l209 -1225h135l-37 -209h-643l37 209h147l-26 209h-488l-110 -209h147l-37 -209h-571zM600 651h338l-64 535zM655 1874h338l86 -301h-235z" />
<glyph unicode="&#xc1;" horiz-adv-x="1548" d="M-92 0l37 209h133l674 1225h393l209 -1225h135l-37 -209h-643l37 209h147l-26 209h-488l-110 -209h147l-37 -209h-571zM600 651h338l-64 535zM776 1573l195 299h360l-307 -299h-248z" />
<glyph unicode="&#xc2;" horiz-adv-x="1548" d="M-92 0l37 209h133l674 1225h393l209 -1225h135l-37 -209h-643l37 209h147l-26 209h-488l-110 -209h147l-37 -209h-571zM563 1573l291 280h272l193 -280h-250l-90 147l-133 -147h-283zM600 651h338l-64 535z" />
<glyph unicode="&#xc3;" horiz-adv-x="1548" d="M-92 0l37 209h133l674 1225h393l209 -1225h135l-37 -209h-643l37 209h147l-26 209h-488l-110 -209h147l-37 -209h-571zM588 1577q24 121 99.5 201t172.5 80q51 0 101.5 -21.5t93.5 -43t75 -21.5t55.5 22.5t31.5 54.5h159q-25 -120 -100.5 -199t-171.5 -79 q-51 0 -101 21.5t-93 43t-76 21.5q-30 0 -53 -23.5t-33 -56.5h-160zM600 651h338l-64 535z" />
<glyph unicode="&#xc4;" horiz-adv-x="1548" d="M-92 0l37 209h133l674 1225h393l209 -1225h135l-37 -209h-643l37 209h147l-26 209h-488l-110 -209h147l-37 -209h-571zM590 1739q0 65 46 107t116 42q71 0 116 -42t45 -107q0 -66 -44.5 -109t-116.5 -43q-74 0 -118 42.5t-44 109.5zM600 651h338l-64 535zM1028 1739 q0 65 45 107t117 42q70 0 116 -42t46 -107t-46 -108.5t-116 -43.5q-74 0 -118 43t-44 109z" />
<glyph unicode="&#xc5;" horiz-adv-x="1548" d="M-92 0l37 209h133l674 1225h393l209 -1225h135l-37 -209h-643l37 209h147l-26 209h-488l-110 -209h147l-37 -209h-571zM600 651h338l-64 535zM743 1745q0 99 81 165t192 66q91 0 154 -53.5t63 -132.5q0 -101 -80.5 -169.5t-191.5 -68.5q-91 0 -154.5 56t-63.5 137z M901 1749q0 -31 19.5 -51.5t52.5 -20.5q43 0 72.5 29.5t29.5 73.5q0 31 -19 51t-52 20q-43 0 -73 -29t-30 -73z" />
<glyph unicode="&#xc6;" horiz-adv-x="2043" d="M-98 0l37 209h139l983 1225h1050l-67 -375h-250l31 170h-289l-68 -387h387l-38 -221h-385l-76 -416h305l33 184h250l-68 -389h-1051l37 209h150l73 412h-368l-316 -412h127l-36 -209h-590zM852 797h264l80 448z" />
<glyph unicode="&#xc7;" horiz-adv-x="1429" d="M117 614q0 183 66 343t177 270.5t261.5 173.5t316.5 63q279 0 541 -118l-76 -433h-250l39 228q-121 69 -256 69q-121 0 -222 -78.5t-158.5 -213t-57.5 -295.5q0 -165 75.5 -274t200.5 -109q108 0 203.5 66.5t161.5 172.5l217 -176q-96 -154 -254 -241t-357 -93l-24 -63 q66 -3 111 -47.5t45 -108.5q0 -72 -43 -125t-111.5 -78.5t-151.5 -25.5q-82 0 -137 30l62 150q31 -23 79 -23q36 0 61.5 16.5t25.5 47.5q0 30 -20.5 46.5t-51.5 16.5q-30 0 -58 -8l70 183q-144 28 -255 120t-170.5 226t-59.5 288z" />
<glyph unicode="&#xc8;" d="M0 0l37 209h149l179 1016h-150l37 209h1034l-65 -369h-250l28 164h-290l-64 -373h385l-39 -221h-385l-76 -430h306l34 190h250l-69 -395h-1051zM514 1874h338l86 -301h-236z" />
<glyph unicode="&#xc9;" d="M0 0l37 209h149l179 1016h-150l37 209h1034l-65 -369h-250l28 164h-290l-64 -373h385l-39 -221h-385l-76 -430h306l34 190h250l-69 -395h-1051zM635 1573l194 299h361l-307 -299h-248z" />
<glyph unicode="&#xca;" d="M0 0l37 209h149l179 1016h-150l37 209h1034l-65 -369h-250l28 164h-290l-64 -373h385l-39 -221h-385l-76 -430h306l34 190h250l-69 -395h-1051zM422 1573l291 280h272l193 -280h-250l-90 147l-133 -147h-283z" />
<glyph unicode="&#xcb;" d="M0 0l37 209h149l179 1016h-150l37 209h1034l-65 -369h-250l28 164h-290l-64 -373h385l-39 -221h-385l-76 -430h306l34 190h250l-69 -395h-1051zM449 1739q0 65 45.5 107t115.5 42q72 0 117 -42t45 -107q0 -66 -45 -109t-117 -43q-74 0 -117.5 42.5t-43.5 109.5zM887 1739 q0 65 45 107t117 42q70 0 115.5 -42t45.5 -107t-45.5 -108.5t-115.5 -43.5q-74 0 -118 43t-44 109z" />
<glyph unicode="&#xcc;" horiz-adv-x="827" d="M-2 0l37 209h149l181 1016h-150l37 209h643l-37 -209h-149l-181 -1016h150l-37 -209h-643zM307 1874h338l86 -301h-235z" />
<glyph unicode="&#xcd;" horiz-adv-x="827" d="M-2 0l37 209h149l181 1016h-150l37 209h643l-37 -209h-149l-181 -1016h150l-37 -209h-643zM428 1573l195 299h360l-307 -299h-248z" />
<glyph unicode="&#xce;" horiz-adv-x="827" d="M-2 0l37 209h149l181 1016h-150l37 209h643l-37 -209h-149l-181 -1016h150l-37 -209h-643zM215 1573l291 280h272l193 -280h-250l-90 147l-133 -147h-283z" />
<glyph unicode="&#xcf;" horiz-adv-x="827" d="M-2 0l37 209h149l181 1016h-150l37 209h643l-37 -209h-149l-181 -1016h150l-37 -209h-643zM242 1739q0 65 45.5 107t115.5 42q72 0 117 -42t45 -107q0 -66 -45 -109t-117 -43q-74 0 -117.5 42.5t-43.5 109.5zM680 1739q0 65 45 107t117 42q70 0 116 -42t46 -107 t-46 -108.5t-116 -43.5q-74 0 -118 43t-44 109z" />
<glyph unicode="&#xd0;" horiz-adv-x="1622" d="M43 0l37 209h149l76 434h-192l37 201h190l68 381h-150l37 209h639q288 0 466.5 -153t178.5 -415q0 -256 -105.5 -452.5t-300 -305t-450.5 -108.5h-680zM573 215h138q133 0 245 87t177 235.5t65 322.5q0 167 -91.5 263t-232.5 96h-122l-66 -375h246l-33 -201h-250z" />
<glyph unicode="&#xd1;" horiz-adv-x="1714" d="M-2 0l37 209h149l181 1016h-150l37 209h506l446 -992l137 783h-149l37 209h575l-37 -209h-149l-215 -1225h-365l-440 993l-137 -784h149l-37 -209h-575zM672 1577q24 121 99.5 201t172.5 80q51 0 101.5 -21.5t93.5 -43t75 -21.5t55 22.5t31 54.5h160 q-25 -120 -100.5 -199t-171.5 -79q-51 0 -101 21.5t-93 43t-76 21.5q-30 0 -53.5 -23.5t-33.5 -56.5h-159z" />
<glyph unicode="&#xd2;" horiz-adv-x="1662" d="M115 606q0 185 64 344.5t176 272.5t270.5 177t341.5 64q294 0 471.5 -171.5t177.5 -448.5q0 -252 -106.5 -451t-301.5 -311.5t-446 -112.5q-295 0 -471 176.5t-176 460.5zM496 612q0 -171 77 -279t207 -108q93 0 177 48.5t145 130t97 194.5t36 238q0 171 -76.5 271.5 t-212.5 100.5q-120 0 -223 -76.5t-165 -214.5t-62 -305zM713 1874h338l86 -301h-236z" />
<glyph unicode="&#xd3;" horiz-adv-x="1662" d="M115 606q0 185 64 344.5t176 272.5t270.5 177t341.5 64q294 0 471.5 -171.5t177.5 -448.5q0 -252 -106.5 -451t-301.5 -311.5t-446 -112.5q-295 0 -471 176.5t-176 460.5zM496 612q0 -171 77 -279t207 -108q93 0 177 48.5t145 130t97 194.5t36 238q0 171 -76.5 271.5 t-212.5 100.5q-120 0 -223 -76.5t-165 -214.5t-62 -305zM834 1573l194 299h361l-308 -299h-247z" />
<glyph unicode="&#xd4;" horiz-adv-x="1662" d="M115 606q0 185 64 344.5t176 272.5t270.5 177t341.5 64q294 0 471.5 -171.5t177.5 -448.5q0 -252 -106.5 -451t-301.5 -311.5t-446 -112.5q-295 0 -471 176.5t-176 460.5zM496 612q0 -171 77 -279t207 -108q93 0 177 48.5t145 130t97 194.5t36 238q0 171 -76.5 271.5 t-212.5 100.5q-120 0 -223 -76.5t-165 -214.5t-62 -305zM621 1573l290 280h273l192 -280h-250l-90 147l-133 -147h-282z" />
<glyph unicode="&#xd5;" horiz-adv-x="1662" d="M115 606q0 185 64 344.5t176 272.5t270.5 177t341.5 64q294 0 471.5 -171.5t177.5 -448.5q0 -252 -106.5 -451t-301.5 -311.5t-446 -112.5q-295 0 -471 176.5t-176 460.5zM496 612q0 -171 77 -279t207 -108q93 0 177 48.5t145 130t97 194.5t36 238q0 171 -76.5 271.5 t-212.5 100.5q-120 0 -223 -76.5t-165 -214.5t-62 -305zM645 1577q24 120 100 200.5t173 80.5q51 0 101.5 -21.5t93.5 -43t75 -21.5t55 22.5t31 54.5h160q-25 -120 -101 -199t-172 -79q-51 0 -101 21.5t-93 43t-76 21.5q-30 0 -53 -23.5t-33 -56.5h-160z" />
<glyph unicode="&#xd6;" horiz-adv-x="1662" d="M115 606q0 185 64 344.5t176 272.5t270.5 177t341.5 64q294 0 471.5 -171.5t177.5 -448.5q0 -252 -106.5 -451t-301.5 -311.5t-446 -112.5q-295 0 -471 176.5t-176 460.5zM496 612q0 -171 77 -279t207 -108q93 0 177 48.5t145 130t97 194.5t36 238q0 171 -76.5 271.5 t-212.5 100.5q-120 0 -223 -76.5t-165 -214.5t-62 -305zM647 1739q0 65 46 107t116 42q72 0 117 -42t45 -107q0 -66 -45 -109t-117 -43q-74 0 -118 42.5t-44 109.5zM1085 1739q0 65 45 107t117 42q70 0 116 -42t46 -107t-46 -108.5t-116 -43.5q-74 0 -118 43t-44 109z" />
<glyph unicode="&#xd7;" horiz-adv-x="1292" d="M176 307l307 332l-307 330l195 184l297 -317l295 317l194 -184l-307 -330l307 -332l-194 -184l-295 317l-297 -317z" />
<glyph unicode="&#xd8;" horiz-adv-x="1662" d="M86 72l145 145q-116 159 -116 389q0 185 64 344.5t176 272.5t270.5 177t341.5 64q234 0 399 -112l135 135l127 -125l-133 -133q121 -158 121 -385q0 -252 -106.5 -451t-301.5 -311.5t-446 -112.5q-242 0 -406 121l-143 -143zM496 612q0 -62 12 -118l635 634 q-77 80 -197 80t-223 -76.5t-165 -214.5t-62 -305zM584 317q79 -92 196 -92q93 0 177 48.5t145 130t97 194.5t36 238q0 64 -12 120z" />
<glyph unicode="&#xd9;" horiz-adv-x="1630" d="M180 1225l37 209h639l-37 -209h-149l-127 -717q-6 -34 -6 -68q0 -92 62 -152.5t173 -60.5q117 0 198.5 73.5t102.5 184.5l133 740h-149l37 209h639l-37 -209h-146l-131 -740q-44 -249 -219 -381.5t-461 -132.5q-248 0 -398.5 124.5t-150.5 316.5q0 56 9 108l127 705h-146 zM692 1874h338l86 -301h-235z" />
<glyph unicode="&#xda;" horiz-adv-x="1630" d="M180 1225l37 209h639l-37 -209h-149l-127 -717q-6 -34 -6 -68q0 -92 62 -152.5t173 -60.5q117 0 198.5 73.5t102.5 184.5l133 740h-149l37 209h639l-37 -209h-146l-131 -740q-44 -249 -219 -381.5t-461 -132.5q-248 0 -398.5 124.5t-150.5 316.5q0 56 9 108l127 705h-146 zM813 1573l195 299h360l-307 -299h-248z" />
<glyph unicode="&#xdb;" horiz-adv-x="1630" d="M180 1225l37 209h639l-37 -209h-149l-127 -717q-6 -34 -6 -68q0 -92 62 -152.5t173 -60.5q117 0 198.5 73.5t102.5 184.5l133 740h-149l37 209h639l-37 -209h-146l-131 -740q-44 -249 -219 -381.5t-461 -132.5q-248 0 -398.5 124.5t-150.5 316.5q0 56 9 108l127 705h-146 zM600 1573l291 280h272l193 -280h-250l-90 147l-133 -147h-283z" />
<glyph unicode="&#xdc;" horiz-adv-x="1630" d="M180 1225l37 209h639l-37 -209h-149l-127 -717q-6 -34 -6 -68q0 -92 62 -152.5t173 -60.5q117 0 198.5 73.5t102.5 184.5l133 740h-149l37 209h639l-37 -209h-146l-131 -740q-44 -249 -219 -381.5t-461 -132.5q-248 0 -398.5 124.5t-150.5 316.5q0 56 9 108l127 705h-146 zM627 1739q0 65 45.5 107t115.5 42q72 0 117 -42t45 -107q0 -66 -45 -109t-117 -43q-74 0 -117.5 42.5t-43.5 109.5zM1065 1739q0 65 45 107t117 42q70 0 116 -42t46 -107t-46 -108.5t-116 -43.5q-74 0 -118 43t-44 109z" />
<glyph unicode="&#xdd;" horiz-adv-x="1435" d="M123 1225l37 209h633l-33 -191h-129l164 -420l323 420h-141l33 191h579l-37 -209h-143l-510 -641l-65 -375h176l-37 -209h-697l37 209h176l66 381l-276 635h-156zM721 1573l194 299h361l-307 -299h-248z" />
<glyph unicode="&#xde;" horiz-adv-x="1355" d="M-2 0l37 209h149l181 1016h-150l37 209h645l-35 -191h-151l-25 -139h229q188 0 309 -89.5t122 -242.5q1 -99 -45.5 -181t-126.5 -134.5t-184.5 -81.5t-221.5 -29h-215l-27 -156h152l-33 -190h-647zM586 535h123q115 0 189.5 62t74.5 157q0 77 -49.5 119t-132.5 42h-138z " />
<glyph unicode="&#xdf;" horiz-adv-x="1415" d="M-188 -367l59 207q50 -24 102 -24q65 0 109 39t55 104l158 899h-160l35 201h160l14 82q30 166 164.5 260t355.5 94q180 0 304 -92.5t124 -216.5q0 -105 -72 -187t-184 -120q129 -27 212 -118t83 -218q0 -120 -53.5 -223t-144 -172t-209.5 -108.5t-248 -39.5h-60l39 221 q143 8 239.5 99.5t96.5 218.5q0 97 -65.5 160.5t-171.5 72.5l30 178q83 8 136 61t53 134q0 58 -38 93.5t-97 35.5q-69 0 -113 -38.5t-57 -113.5l-209 -1181q-28 -159 -150 -248.5t-305 -89.5q-100 0 -192 30z" />
<glyph unicode="&#xe0;" horiz-adv-x="1357" d="M76 436q0 181 73.5 331t200.5 236.5t279 86.5q97 0 172 -51t112 -132l27 152h326l-152 -858h150l-35 -201h-467l26 158q-57 -84 -148 -134.5t-198 -50.5q-105 0 -189.5 64.5t-130.5 170t-46 228.5zM416 451q0 -111 46 -177.5t128 -66.5q81 0 146 61.5t98.5 155.5 t33.5 197q0 113 -46 174t-130 61q-78 0 -142.5 -58.5t-99 -151t-34.5 -195.5zM449 1499h337l86 -301h-235z" />
<glyph unicode="&#xe1;" horiz-adv-x="1357" d="M76 436q0 181 73.5 331t200.5 236.5t279 86.5q97 0 172 -51t112 -132l27 152h326l-152 -858h150l-35 -201h-467l26 158q-57 -84 -148 -134.5t-198 -50.5q-105 0 -189.5 64.5t-130.5 170t-46 228.5zM416 451q0 -111 46 -177.5t128 -66.5q81 0 146 61.5t98.5 155.5 t33.5 197q0 113 -46 174t-130 61q-78 0 -142.5 -58.5t-99 -151t-34.5 -195.5zM569 1198l195 299h360l-307 -299h-248z" />
<glyph unicode="&#xe2;" horiz-adv-x="1357" d="M76 436q0 181 73.5 331t200.5 236.5t279 86.5q97 0 172 -51t112 -132l27 152h326l-152 -858h150l-35 -201h-467l26 158q-57 -84 -148 -134.5t-198 -50.5q-105 0 -189.5 64.5t-130.5 170t-46 228.5zM356 1198l291 281h273l192 -281h-250l-90 148l-133 -148h-283zM416 451 q0 -111 46 -177.5t128 -66.5q81 0 146 61.5t98.5 155.5t33.5 197q0 113 -46 174t-130 61q-78 0 -142.5 -58.5t-99 -151t-34.5 -195.5z" />
<glyph unicode="&#xe3;" horiz-adv-x="1357" d="M76 436q0 181 73.5 331t200.5 236.5t279 86.5q97 0 172 -51t112 -132l27 152h326l-152 -858h150l-35 -201h-467l26 158q-57 -84 -148 -134.5t-198 -50.5q-105 0 -189.5 64.5t-130.5 170t-46 228.5zM381 1202q24 121 99.5 201t172.5 80q51 0 101.5 -21.5t94 -43 t75.5 -21.5t55 23t31 55h159q-25 -120 -100.5 -199.5t-171.5 -79.5q-51 0 -101 21.5t-93 43t-76 21.5q-30 0 -53 -23.5t-33 -56.5h-160zM416 451q0 -111 46 -177.5t128 -66.5q81 0 146 61.5t98.5 155.5t33.5 197q0 113 -46 174t-130 61q-78 0 -142.5 -58.5t-99 -151 t-34.5 -195.5z" />
<glyph unicode="&#xe4;" horiz-adv-x="1357" d="M76 436q0 181 73.5 331t200.5 236.5t279 86.5q97 0 172 -51t112 -132l27 152h326l-152 -858h150l-35 -201h-467l26 158q-57 -84 -148 -134.5t-198 -50.5q-105 0 -189.5 64.5t-130.5 170t-46 228.5zM383 1364q0 65 46 107t116 42q72 0 117 -42t45 -107q0 -66 -45 -109 t-117 -43q-74 0 -118 42.5t-44 109.5zM416 451q0 -111 46 -177.5t128 -66.5q81 0 146 61.5t98.5 155.5t33.5 197q0 113 -46 174t-130 61q-78 0 -142.5 -58.5t-99 -151t-34.5 -195.5zM821 1364q0 65 45 107t117 42q70 0 116 -42t46 -107t-46 -108.5t-116 -43.5q-74 0 -118 43 t-44 109z" />
<glyph unicode="&#xe5;" horiz-adv-x="1357" d="M76 436q0 181 73.5 331t200.5 236.5t279 86.5q97 0 172 -51t112 -132l27 152h326l-152 -858h150l-35 -201h-467l26 158q-57 -84 -148 -134.5t-198 -50.5q-105 0 -189.5 64.5t-130.5 170t-46 228.5zM416 451q0 -111 46 -177.5t128 -66.5q81 0 146 61.5t98.5 155.5 t33.5 197q0 113 -46 174t-130 61q-78 0 -142.5 -58.5t-99 -151t-34.5 -195.5zM537 1370q0 99 80.5 165.5t191.5 66.5q91 0 154 -54t63 -133q0 -101 -80.5 -169t-191.5 -68q-91 0 -154 55.5t-63 136.5zM694 1374q0 -31 19.5 -51t52.5 -20q43 0 72.5 29t29.5 73q0 32 -19 52 t-52 20q-43 0 -73 -29.5t-30 -73.5z" />
<glyph unicode="&#xe6;" horiz-adv-x="2021" d="M74 430q0 181 79 332.5t216.5 239.5t300.5 88q230 0 440 -125q166 125 387 125q196 0 323.5 -125.5t127.5 -309.5q0 -89 -33 -194l-721 -2q0 -114 58.5 -184t158.5 -70q157 0 277 127l186 -142q-89 -106 -220.5 -162.5t-289.5 -56.5q-149 0 -261.5 62.5t-174.5 171.5 q-176 -232 -434 -232q-192 0 -306 128t-114 329zM414 446q0 -105 39 -170t104 -65q175 0 340 457l35 96q-47 41 -109 66.5t-125 25.5q-78 0 -144 -59.5t-103 -153.5t-37 -197zM1219 639h401q4 28 4 61q0 78 -41.5 127.5t-112.5 49.5q-86 0 -155 -67t-96 -171z" />
<glyph unicode="&#xe7;" horiz-adv-x="1144" d="M76 440q0 138 49 259t131.5 205t194.5 132.5t235 48.5q219 0 436 -92l-59 -338h-221l30 168q-80 41 -163 41q-81 0 -149 -58.5t-106 -153.5t-38 -201q0 -105 52 -171.5t136 -66.5q70 0 133 44t109 114l198 -138q-147 -245 -452 -260l-27 -67q66 -3 111 -47.5t45 -108.5 q0 -108 -88 -168.5t-217 -60.5q-82 0 -137 30l61 150q31 -23 80 -23q36 0 61 16.5t25 47.5q0 30 -20.5 46.5t-51.5 16.5q-29 0 -57 -8l69 183q-170 32 -270 156.5t-100 303.5z" />
<glyph unicode="&#xe8;" d="M78 457q0 140 50 259.5t135.5 200.5t201 127t244.5 46q196 0 323 -125.5t127 -309.5q0 -89 -33 -194l-720 -2q0 -114 58.5 -184t158.5 -70q156 0 276 127l186 -142q-89 -106 -220.5 -162.5t-289.5 -56.5q-225 0 -361 136.5t-136 349.5zM430 639h401q5 35 5 61 q0 78 -41.5 127.5t-112.5 49.5q-87 0 -156 -67t-96 -171zM432 1499h338l86 -301h-235z" />
<glyph unicode="&#xe9;" d="M78 457q0 140 50 259.5t135.5 200.5t201 127t244.5 46q196 0 323 -125.5t127 -309.5q0 -89 -33 -194l-720 -2q0 -114 58.5 -184t158.5 -70q156 0 276 127l186 -142q-89 -106 -220.5 -162.5t-289.5 -56.5q-225 0 -361 136.5t-136 349.5zM430 639h401q5 35 5 61 q0 78 -41.5 127.5t-112.5 49.5q-87 0 -156 -67t-96 -171zM553 1198l195 299h360l-307 -299h-248z" />
<glyph unicode="&#xea;" d="M78 457q0 140 50 259.5t135.5 200.5t201 127t244.5 46q196 0 323 -125.5t127 -309.5q0 -89 -33 -194l-720 -2q0 -114 58.5 -184t158.5 -70q156 0 276 127l186 -142q-89 -106 -220.5 -162.5t-289.5 -56.5q-225 0 -361 136.5t-136 349.5zM340 1198l291 281h272l193 -281 h-250l-90 148l-133 -148h-283zM430 639h401q5 35 5 61q0 78 -41.5 127.5t-112.5 49.5q-87 0 -156 -67t-96 -171z" />
<glyph unicode="&#xeb;" d="M78 457q0 140 50 259.5t135.5 200.5t201 127t244.5 46q196 0 323 -125.5t127 -309.5q0 -89 -33 -194l-720 -2q0 -114 58.5 -184t158.5 -70q156 0 276 127l186 -142q-89 -106 -220.5 -162.5t-289.5 -56.5q-225 0 -361 136.5t-136 349.5zM367 1364q0 65 45.5 107t115.5 42 q72 0 117 -42t45 -107q0 -66 -45 -109t-117 -43q-74 0 -117.5 42.5t-43.5 109.5zM430 639h401q5 35 5 61q0 78 -41.5 127.5t-112.5 49.5q-87 0 -156 -67t-96 -171zM805 1364q0 65 45 107t117 42q70 0 115.5 -42t45.5 -107t-45.5 -108.5t-115.5 -43.5q-74 0 -118 43t-44 109z " />
<glyph unicode="&#xec;" horiz-adv-x="698" d="M90 0l152 858h-150l37 201h473l-151 -858h149l-35 -201h-475zM190 1499h338l86 -301h-235z" />
<glyph unicode="&#xed;" horiz-adv-x="698" d="M90 0l152 858h-150l37 201h473l-151 -858h149l-35 -201h-475zM258 1198l195 299h360l-307 -299h-248z" />
<glyph unicode="&#xee;" horiz-adv-x="694" d="M82 1198l291 281h272l193 -281h-250l-90 148l-133 -148h-283zM90 0l152 858h-150l37 201h473l-151 -858h149l-35 -201h-475z" />
<glyph unicode="&#xef;" horiz-adv-x="733" d="M115 0l151 858h-149l37 201h473l-152 -858h150l-35 -201h-475zM115 1356q0 62 43 101.5t110 39.5q69 0 112.5 -39.5t43.5 -101.5q0 -63 -43.5 -103.5t-112.5 -40.5q-70 0 -111.5 40t-41.5 104zM524 1358q0 60 43.5 99.5t112.5 39.5q67 0 110.5 -39.5t43.5 -99.5 q0 -63 -43.5 -104.5t-110.5 -41.5q-71 0 -113.5 41t-42.5 105z" />
<glyph unicode="&#xf0;" horiz-adv-x="1300" d="M72 432q0 165 76 298t206.5 206.5t288.5 73.5q84 0 155 -37.5t117 -100.5q-46 171 -182 304l-293 -123l-61 135l223 92q-93 60 -182 94l166 146q153 -54 270 -134l293 123l59 -135l-221 -92q240 -232 240 -555q0 -161 -43 -298.5t-123 -239.5t-203 -160t-276 -58 q-228 0 -369 130.5t-141 330.5zM412 436q0 -104 48.5 -169.5t131.5 -65.5q78 0 144 58t102 146t36 181q0 100 -49 155.5t-141 55.5q-118 0 -195 -107t-77 -254z" />
<glyph unicode="&#xf1;" horiz-adv-x="1370" d="M92 0l152 858h-150l35 201h477l-31 -168q57 86 145 138t191 52q132 0 226 -91.5t94 -217.5q0 -28 -8 -74l-88 -497h149l-35 -201h-475l119 666q4 24 4 41q0 59 -36 94t-101 35q-83 0 -150.5 -62.5t-81.5 -146.5l-110 -627h-326zM457 1202q24 121 99.5 201t172.5 80 q51 0 101.5 -21.5t93.5 -43t75 -21.5t55 23t31 55h160q-25 -120 -100.5 -199.5t-171.5 -79.5q-51 0 -101 21.5t-93.5 43t-76.5 21.5q-30 0 -53 -23.5t-33 -56.5h-159z" />
<glyph unicode="&#xf2;" horiz-adv-x="1288" d="M78 455q0 284 179.5 459.5t465.5 175.5q145 0 259.5 -63t176.5 -170.5t62 -238.5q0 -290 -177 -469.5t-469 -179.5q-223 0 -360 139t-137 347zM418 459q0 -113 47 -184.5t129 -71.5q80 0 146.5 58t103.5 152t37 201q0 108 -47 175t-129 67q-122 0 -204.5 -116.5 t-82.5 -280.5zM461 1499h338l86 -301h-236z" />
<glyph unicode="&#xf3;" horiz-adv-x="1288" d="M78 455q0 284 179.5 459.5t465.5 175.5q145 0 259.5 -63t176.5 -170.5t62 -238.5q0 -290 -177 -469.5t-469 -179.5q-223 0 -360 139t-137 347zM418 459q0 -113 47 -184.5t129 -71.5q80 0 146.5 58t103.5 152t37 201q0 108 -47 175t-129 67q-122 0 -204.5 -116.5 t-82.5 -280.5zM582 1198l194 299h361l-308 -299h-247z" />
<glyph unicode="&#xf4;" horiz-adv-x="1288" d="M78 455q0 284 179.5 459.5t465.5 175.5q145 0 259.5 -63t176.5 -170.5t62 -238.5q0 -290 -177 -469.5t-469 -179.5q-223 0 -360 139t-137 347zM369 1198l290 281h273l192 -281h-250l-90 148l-133 -148h-282zM418 459q0 -113 47 -184.5t129 -71.5q80 0 146.5 58t103.5 152 t37 201q0 108 -47 175t-129 67q-122 0 -204.5 -116.5t-82.5 -280.5z" />
<glyph unicode="&#xf5;" horiz-adv-x="1288" d="M78 455q0 284 179.5 459.5t465.5 175.5q145 0 259.5 -63t176.5 -170.5t62 -238.5q0 -290 -177 -469.5t-469 -179.5q-223 0 -360 139t-137 347zM393 1202q24 120 100 200.5t173 80.5q51 0 101.5 -21.5t93.5 -43t75 -21.5t55 23t31 55h160q-25 -120 -101 -199.5t-172 -79.5 q-51 0 -101 21.5t-93 43t-76 21.5q-30 0 -53 -23.5t-33 -56.5h-160zM418 459q0 -113 47 -184.5t129 -71.5q80 0 146.5 58t103.5 152t37 201q0 108 -47 175t-129 67q-122 0 -204.5 -116.5t-82.5 -280.5z" />
<glyph unicode="&#xf6;" horiz-adv-x="1288" d="M78 455q0 284 179.5 459.5t465.5 175.5q145 0 259.5 -63t176.5 -170.5t62 -238.5q0 -290 -177 -469.5t-469 -179.5q-223 0 -360 139t-137 347zM395 1364q0 65 46 107t116 42q72 0 117 -42t45 -107q0 -66 -45 -109t-117 -43q-74 0 -118 42.5t-44 109.5zM418 459 q0 -113 47 -184.5t129 -71.5q80 0 146.5 58t103.5 152t37 201q0 108 -47 175t-129 67q-122 0 -204.5 -116.5t-82.5 -280.5zM834 1364q0 65 45 107t116 42q70 0 116 -42t46 -107t-46 -108.5t-116 -43.5q-73 0 -117 43t-44 109z" />
<glyph unicode="&#xf7;" horiz-adv-x="1204" d="M131 510v258h981v-258h-981zM455 240q0 65 45.5 107t117.5 42t119 -42t47 -107t-47 -108.5t-119 -43.5t-117.5 43.5t-45.5 108.5zM455 1040q0 64 46 107t117 43t118.5 -43.5t47.5 -106.5q0 -66 -47 -108.5t-119 -42.5q-73 0 -118 42.5t-45 108.5z" />
<glyph unicode="&#xf8;" horiz-adv-x="1288" d="M49 37l123 121q-94 126 -94 297q0 284 179.5 459.5t465.5 175.5q167 0 297 -84l115 114l102 -100l-113 -113q97 -127 97 -289q0 -290 -177 -469.5t-469 -179.5q-175 0 -301 90l-122 -122zM418 459q0 -35 2 -51l399 399q-46 49 -114 49q-122 0 -204.5 -116.5t-82.5 -280.5 zM475 260q48 -57 119 -57q80 0 146.5 58t103.5 152t37 201q0 34 -2 48z" />
<glyph unicode="&#xf9;" horiz-adv-x="1343" d="M84 858l35 201h477l-119 -664q-4 -24 -4 -43q0 -59 32.5 -94t86.5 -35q77 0 140.5 60.5t78.5 146.5l113 629h325l-151 -858h149l-35 -201h-471l31 166q-62 -84 -153 -135t-195 -51q-122 0 -202.5 90t-80.5 213q0 27 9 92l83 483h-149zM475 1499h338l86 -301h-235z" />
<glyph unicode="&#xfa;" horiz-adv-x="1343" d="M84 858l35 201h477l-119 -664q-4 -24 -4 -43q0 -59 32.5 -94t86.5 -35q77 0 140.5 60.5t78.5 146.5l113 629h325l-151 -858h149l-35 -201h-471l31 166q-62 -84 -153 -135t-195 -51q-122 0 -202.5 90t-80.5 213q0 27 9 92l83 483h-149zM596 1198l195 299h360l-307 -299 h-248z" />
<glyph unicode="&#xfb;" horiz-adv-x="1343" d="M84 858l35 201h477l-119 -664q-4 -24 -4 -43q0 -59 32.5 -94t86.5 -35q77 0 140.5 60.5t78.5 146.5l113 629h325l-151 -858h149l-35 -201h-471l31 166q-62 -84 -153 -135t-195 -51q-122 0 -202.5 90t-80.5 213q0 27 9 92l83 483h-149zM383 1198l291 281h272l193 -281 h-250l-90 148l-133 -148h-283z" />
<glyph unicode="&#xfc;" horiz-adv-x="1343" d="M84 858l35 201h477l-119 -664q-4 -24 -4 -43q0 -59 32.5 -94t86.5 -35q77 0 140.5 60.5t78.5 146.5l113 629h325l-151 -858h149l-35 -201h-471l31 166q-62 -84 -153 -135t-195 -51q-122 0 -202.5 90t-80.5 213q0 27 9 92l83 483h-149zM410 1364q0 65 45.5 107t115.5 42 q72 0 117 -42t45 -107q0 -66 -45 -109t-117 -43q-74 0 -117.5 42.5t-43.5 109.5zM848 1364q0 65 45 107t117 42q70 0 115.5 -42t45.5 -107t-45.5 -108.5t-115.5 -43.5q-74 0 -118 43t-44 109z" />
<glyph unicode="&#xfd;" horiz-adv-x="1245" d="M-158 -369l74 211q54 -26 135 -26q72 0 156 46t153 118l-176 878h-164l35 201h414l160 -846q120 137 192 298.5t72 307.5v39h-180l35 201h423q27 -106 27 -211q0 -118 -50.5 -260t-135 -279.5t-200 -268t-240.5 -228.5t-262 -158t-259 -60q-121 0 -209 37zM496 1198 l194 299h361l-308 -299h-247z" />
<glyph unicode="&#xfe;" horiz-adv-x="1353" d="M25 -383l292 1663h-149l35 201h475l-98 -566q62 77 149.5 126t188.5 49q159 0 265.5 -133t106.5 -322q0 -178 -70.5 -329.5t-198.5 -242t-286 -90.5q-99 0 -175.5 53.5t-113.5 137.5l-96 -547h-325zM494 440q0 -109 46.5 -171t129.5 -62q81 0 146.5 61t99.5 156t34 201 q0 105 -48 168t-128 63t-145.5 -61.5t-100 -156.5t-34.5 -198z" />
<glyph unicode="&#xff;" horiz-adv-x="1245" d="M-158 -369l74 211q54 -26 135 -26q72 0 156 46t153 118l-176 878h-164l35 201h414l160 -846q120 137 192 298.5t72 307.5v39h-180l35 201h423q27 -106 27 -211q0 -118 -50.5 -260t-135 -279.5t-200 -268t-240.5 -228.5t-262 -158t-259 -60q-121 0 -209 37zM309 1364 q0 65 46 107t116 42q72 0 117 -42t45 -107q0 -66 -45 -109t-117 -43q-74 0 -118 42.5t-44 109.5zM748 1364q0 65 45 107t116 42q70 0 116 -42t46 -107t-46 -108.5t-116 -43.5q-73 0 -117 43t-44 109z" />
<glyph unicode="&#x100;" horiz-adv-x="1548" d="M-92 0l37 209h133l674 1225h393l209 -1225h135l-37 -209h-643l37 209h147l-26 209h-488l-110 -209h147l-37 -209h-571zM600 651h338l-64 535zM621 1602l36 194h668l-35 -194h-669z" />
<glyph unicode="&#x101;" horiz-adv-x="1357" d="M76 436q0 181 73.5 331t200.5 236.5t279 86.5q97 0 172 -51t112 -132l27 152h326l-152 -858h150l-35 -201h-467l26 158q-57 -84 -148 -134.5t-198 -50.5q-105 0 -189.5 64.5t-130.5 170t-46 228.5zM414 1227l37 194h667l-35 -194h-669zM416 451q0 -111 46 -177.5 t128 -66.5q81 0 146 61.5t98.5 155.5t33.5 197q0 113 -46 174t-130 61q-78 0 -142.5 -58.5t-99 -151t-34.5 -195.5z" />
<glyph unicode="&#x102;" horiz-adv-x="1548" d="M-92 0l37 209h133l674 1225h393l209 -1225h135l-37 -209h-643l37 209h147l-26 209h-488l-110 -209h147l-37 -209h-571zM600 651h338l-64 535zM659 1800q0 32 9 62h209q-7 -21 -7 -39q0 -44 23.5 -70.5t73.5 -26.5q54 0 87.5 39.5t39.5 96.5h229q-25 -143 -125 -225.5 t-250 -82.5q-126 0 -207.5 71.5t-81.5 174.5z" />
<glyph unicode="&#x103;" horiz-adv-x="1357" d="M76 436q0 181 73.5 331t200.5 236.5t279 86.5q97 0 172 -51t112 -132l27 152h326l-152 -858h150l-35 -201h-467l26 158q-57 -84 -148 -134.5t-198 -50.5q-105 0 -189.5 64.5t-130.5 170t-46 228.5zM416 451q0 -111 46 -177.5t128 -66.5q81 0 146 61.5t98.5 155.5 t33.5 197q0 113 -46 174t-130 61q-78 0 -142.5 -58.5t-99 -151t-34.5 -195.5zM453 1425q0 35 8 62h209q-6 -18 -6 -39q0 -96 96 -96q54 0 87.5 39t39.5 96h229q-25 -143 -125 -225t-250 -82q-126 0 -207 71t-81 174z" />
<glyph unicode="&#x104;" horiz-adv-x="1548" d="M-92 0l37 209h133l674 1225h393l209 -1225h135l-37 -209h-80q-85 -14 -150 -65.5t-65 -110.5q0 -30 20 -50t48 -20q51 0 96 45l84 -141q-104 -90 -254 -90q-92 0 -157.5 57.5t-65.5 141.5q0 135 139 233h-258l37 209h147l-26 209h-488l-110 -209h147l-37 -209h-571z M600 651h338l-64 535z" />
<glyph unicode="&#x105;" horiz-adv-x="1357" d="M76 436q0 181 73.5 331t200.5 236.5t279 86.5q97 0 172 -51t112 -132l27 152h326l-152 -858h150l-35 -201h-129q-85 -14 -150 -65.5t-65 -110.5q0 -30 19.5 -50t47.5 -20q52 0 97 45l84 -141q-104 -90 -254 -90q-92 0 -158 57.5t-66 141.5q0 138 144 235l-11 156 q-57 -84 -148 -134.5t-198 -50.5q-105 0 -189.5 64.5t-130.5 170t-46 228.5zM416 451q0 -111 46 -177.5t128 -66.5q81 0 146 61.5t98.5 155.5t33.5 197q0 113 -46 174t-130 61q-78 0 -142.5 -58.5t-99 -151t-34.5 -195.5z" />
<glyph unicode="&#x106;" horiz-adv-x="1429" d="M117 614q0 183 66 343t177 270.5t261.5 173.5t316.5 63q279 0 541 -118l-76 -433h-250l39 228q-121 69 -256 69q-121 0 -222 -78.5t-158.5 -213t-57.5 -295.5q0 -165 75.5 -274t200.5 -109q108 0 203.5 66.5t161.5 172.5l217 -176q-99 -159 -263.5 -246.5t-371.5 -87.5 q-175 0 -314.5 88.5t-214.5 235.5t-75 321zM731 1573l195 299h360l-307 -299h-248z" />
<glyph unicode="&#x107;" horiz-adv-x="1144" d="M76 440q0 138 49 259t131.5 205t194.5 132.5t235 48.5q219 0 436 -92l-59 -338h-221l30 168q-80 41 -163 41q-81 0 -149 -58.5t-106 -153.5t-38 -201q0 -105 52 -171.5t136 -66.5q70 0 133 44t109 114l198 -138q-77 -128 -202.5 -195t-292.5 -67q-213 0 -343 132 t-130 337zM514 1198l195 299h360l-307 -299h-248z" />
<glyph unicode="&#x108;" horiz-adv-x="1429" d="M117 614q0 183 66 343t177 270.5t261.5 173.5t316.5 63q279 0 541 -118l-76 -433h-250l39 228q-121 69 -256 69q-121 0 -222 -78.5t-158.5 -213t-57.5 -295.5q0 -165 75.5 -274t200.5 -109q108 0 203.5 66.5t161.5 172.5l217 -176q-99 -159 -263.5 -246.5t-371.5 -87.5 q-175 0 -314.5 88.5t-214.5 235.5t-75 321zM518 1573l291 280h272l193 -280h-250l-90 147l-133 -147h-283z" />
<glyph unicode="&#x109;" horiz-adv-x="1144" d="M76 440q0 138 49 259t131.5 205t194.5 132.5t235 48.5q219 0 436 -92l-59 -338h-221l30 168q-80 41 -163 41q-81 0 -149 -58.5t-106 -153.5t-38 -201q0 -105 52 -171.5t136 -66.5q70 0 133 44t109 114l198 -138q-77 -128 -202.5 -195t-292.5 -67q-213 0 -343 132 t-130 337zM301 1198l291 281h272l193 -281h-250l-90 148l-133 -148h-283z" />
<glyph unicode="&#x10a;" horiz-adv-x="1429" d="M117 614q0 183 66 343t177 270.5t261.5 173.5t316.5 63q279 0 541 -118l-76 -433h-250l39 228q-121 69 -256 69q-121 0 -222 -78.5t-158.5 -213t-57.5 -295.5q0 -165 75.5 -274t200.5 -109q108 0 203.5 66.5t161.5 172.5l217 -176q-99 -159 -263.5 -246.5t-371.5 -87.5 q-175 0 -314.5 88.5t-214.5 235.5t-75 321zM766 1745q0 66 47.5 108.5t120.5 42.5q75 0 122.5 -42.5t47.5 -108.5q0 -69 -47.5 -112.5t-122.5 -43.5q-76 0 -122 43.5t-46 112.5z" />
<glyph unicode="&#x10b;" horiz-adv-x="1144" d="M76 440q0 138 49 259t131.5 205t194.5 132.5t235 48.5q219 0 436 -92l-59 -338h-221l30 168q-80 41 -163 41q-81 0 -149 -58.5t-106 -153.5t-38 -201q0 -105 52 -171.5t136 -66.5q70 0 133 44t109 114l198 -138q-77 -128 -202.5 -195t-292.5 -67q-213 0 -343 132 t-130 337zM549 1370q0 66 47.5 109t120.5 43q75 0 122.5 -43t47.5 -109q0 -69 -47.5 -112.5t-122.5 -43.5q-76 0 -122 43.5t-46 112.5z" />
<glyph unicode="&#x10c;" horiz-adv-x="1429" d="M117 614q0 183 66 343t177 270.5t261.5 173.5t316.5 63q279 0 541 -118l-76 -433h-250l39 228q-121 69 -256 69q-121 0 -222 -78.5t-158.5 -213t-57.5 -295.5q0 -165 75.5 -274t200.5 -109q108 0 203.5 66.5t161.5 172.5l217 -176q-99 -159 -263.5 -246.5t-371.5 -87.5 q-175 0 -314.5 88.5t-214.5 235.5t-75 321zM575 1853h250l90 -147l134 147h282l-291 -280h-272z" />
<glyph unicode="&#x10d;" horiz-adv-x="1144" d="M76 440q0 138 49 259t131.5 205t194.5 132.5t235 48.5q219 0 436 -92l-59 -338h-221l30 168q-80 41 -163 41q-81 0 -149 -58.5t-106 -153.5t-38 -201q0 -105 52 -171.5t136 -66.5q70 0 133 44t109 114l198 -138q-77 -128 -202.5 -195t-292.5 -67q-213 0 -343 132 t-130 337zM358 1479h250l90 -148l133 148h283l-291 -281h-272z" />
<glyph unicode="&#x10e;" horiz-adv-x="1579" d="M0 0l37 209h149l179 1016h-150l37 209h639q288 0 466.5 -153t178.5 -415q0 -256 -105.5 -452.5t-300 -305t-450.5 -108.5h-680zM530 215h138q133 0 245 87t177 235.5t65 322.5q0 167 -91.5 263t-232.5 96h-122zM610 1853h250l90 -147l133 147h283l-291 -280h-272z" />
<glyph unicode="&#x10f;" horiz-adv-x="1533" d="M76 436q0 181 73.5 331t200.5 236.5t279 86.5q97 0 172 -51t112 -132l66 373h-150l35 201h477l-227 -1280h150l-35 -201h-467l26 158q-57 -84 -148 -134.5t-198 -50.5q-105 0 -189.5 64.5t-130.5 170t-46 228.5zM416 451q0 -111 46 -177.5t128 -66.5q81 0 146 61.5 t98.5 155.5t33.5 197q0 113 -46 174t-130 61q-78 0 -142.5 -58.5t-99 -151t-34.5 -195.5zM1389 1098l96 383h278l-182 -383h-192z" />
<glyph unicode="&#x110;" horiz-adv-x="1622" d="M43 0l37 209h149l76 434h-192l37 201h190l68 381h-150l37 209h639q288 0 466.5 -153t178.5 -415q0 -256 -105.5 -452.5t-300 -305t-450.5 -108.5h-680zM573 215h138q133 0 245 87t177 235.5t65 322.5q0 167 -91.5 263t-232.5 96h-122l-66 -375h246l-33 -201h-250z" />
<glyph unicode="&#x111;" horiz-adv-x="1357" d="M76 436q0 178 73.5 327t200.5 234.5t279 85.5q96 0 171.5 -50t112.5 -130l41 234h-233l20 118h234l16 91h-149l24 135h475l-41 -226h148l-21 -118h-147l-166 -936h150l-35 -201h-467l26 158q-57 -84 -148 -134.5t-198 -50.5q-105 0 -189.5 64.5t-130.5 170t-46 228.5z M416 451q0 -111 46 -177.5t128 -66.5q81 0 146 60.5t98.5 153.5t33.5 195q0 113 -46 174.5t-130 61.5q-78 0 -142.5 -58t-99 -149.5t-34.5 -193.5z" />
<glyph unicode="&#x112;" d="M0 0l37 209h149l179 1016h-150l37 209h1034l-65 -369h-250l28 164h-290l-64 -373h385l-39 -221h-385l-76 -430h306l34 190h250l-69 -395h-1051zM479 1602l37 194h668l-35 -194h-670z" />
<glyph unicode="&#x113;" d="M78 457q0 140 50 259.5t135.5 200.5t201 127t244.5 46q196 0 323 -125.5t127 -309.5q0 -89 -33 -194l-720 -2q0 -114 58.5 -184t158.5 -70q156 0 276 127l186 -142q-89 -106 -220.5 -162.5t-289.5 -56.5q-225 0 -361 136.5t-136 349.5zM397 1227l37 194h668l-35 -194 h-670zM430 639h401q5 35 5 61q0 78 -41.5 127.5t-112.5 49.5q-87 0 -156 -67t-96 -171z" />
<glyph unicode="&#x114;" d="M0 0l37 209h149l179 1016h-150l37 209h1034l-65 -369h-250l28 164h-290l-64 -373h385l-39 -221h-385l-76 -430h306l34 190h250l-69 -395h-1051zM518 1800q0 35 8 62h209q-6 -18 -6 -39q0 -97 96 -97q54 0 87.5 39.5t39.5 96.5h230q-25 -143 -125 -225.5t-250 -82.5 q-126 0 -207.5 71.5t-81.5 174.5z" />
<glyph unicode="&#x115;" d="M78 457q0 140 50 259.5t135.5 200.5t201 127t244.5 46q196 0 323 -125.5t127 -309.5q0 -89 -33 -194l-720 -2q0 -114 58.5 -184t158.5 -70q156 0 276 127l186 -142q-89 -106 -220.5 -162.5t-289.5 -56.5q-225 0 -361 136.5t-136 349.5zM430 639h401q5 35 5 61 q0 78 -41.5 127.5t-112.5 49.5q-87 0 -156 -67t-96 -171zM436 1425q0 35 8 62h209q-6 -18 -6 -39q0 -96 96 -96q54 0 87.5 39t39.5 96h230q-25 -143 -125 -225t-250 -82q-126 0 -207.5 71t-81.5 174z" />
<glyph unicode="&#x116;" d="M0 0l37 209h149l179 1016h-150l37 209h1034l-65 -369h-250l28 164h-290l-64 -373h385l-39 -221h-385l-76 -430h306l34 190h250l-69 -395h-1051zM670 1745q0 66 47.5 108.5t120.5 42.5q75 0 122.5 -42.5t47.5 -108.5q0 -69 -47.5 -112.5t-122.5 -43.5q-76 0 -122 43.5 t-46 112.5z" />
<glyph unicode="&#x117;" d="M78 457q0 140 50 259.5t135.5 200.5t201 127t244.5 46q196 0 323 -125.5t127 -309.5q0 -89 -33 -194l-720 -2q0 -114 58.5 -184t158.5 -70q156 0 276 127l186 -142q-89 -106 -220.5 -162.5t-289.5 -56.5q-225 0 -361 136.5t-136 349.5zM430 639h401q5 35 5 61 q0 78 -41.5 127.5t-112.5 49.5q-87 0 -156 -67t-96 -171zM588 1370q0 66 47.5 109t120.5 43q75 0 122.5 -43t47.5 -109q0 -69 -47.5 -112.5t-122.5 -43.5q-76 0 -122 43.5t-46 112.5z" />
<glyph unicode="&#x118;" d="M0 0l37 209h149l179 1016h-150l37 209h1034l-65 -369h-250l28 164h-290l-64 -373h385l-39 -221h-385l-76 -430h306l34 190h250l-69 -395h-68q-85 -14 -150 -65.5t-65 -110.5q0 -30 20 -50t48 -20q51 0 96 45l84 -141q-104 -90 -254 -90q-92 0 -157.5 57.5t-65.5 141.5 q0 135 139 233h-678z" />
<glyph unicode="&#x119;" horiz-adv-x="1241" d="M78 457q0 140 50 259.5t135.5 200.5t201 127t244.5 46q196 0 323 -125.5t127 -309.5q0 -89 -33 -194l-720 -2q0 -114 58.5 -184t158.5 -70q156 0 276 127l186 -142q-80 -96 -200 -153q-137 -87 -137 -205q0 -31 20 -53.5t49 -22.5q53 0 98 45l84 -141q-104 -90 -254 -90 q-93 0 -158 54.5t-65 137.5q0 115 96 211q-14 -2 -43 -2q-225 0 -361 136.5t-136 349.5zM430 639h401q5 35 5 61q0 78 -41.5 127.5t-112.5 49.5q-87 0 -156 -67t-96 -171z" />
<glyph unicode="&#x11a;" d="M0 0l37 209h149l179 1016h-150l37 209h1034l-65 -369h-250l28 164h-290l-64 -373h385l-39 -221h-385l-76 -430h306l34 190h250l-69 -395h-1051zM479 1853h250l90 -147l133 147h283l-291 -280h-272z" />
<glyph unicode="&#x11b;" d="M78 457q0 140 50 259.5t135.5 200.5t201 127t244.5 46q196 0 323 -125.5t127 -309.5q0 -89 -33 -194l-720 -2q0 -114 58.5 -184t158.5 -70q156 0 276 127l186 -142q-89 -106 -220.5 -162.5t-289.5 -56.5q-225 0 -361 136.5t-136 349.5zM397 1479h250l90 -148l133 148h283 l-291 -281h-272zM430 639h401q5 35 5 61q0 78 -41.5 127.5t-112.5 49.5q-87 0 -156 -67t-96 -171z" />
<glyph unicode="&#x11c;" horiz-adv-x="1581" d="M117 621q0 245 115 439t309.5 299t431.5 105q303 0 588 -110l-66 -377h-250l29 166q-134 67 -293 67q-140 0 -250.5 -75.5t-171.5 -208.5t-61 -299q0 -167 77.5 -279t206.5 -112q139 0 244 81t143 220h-288l41 241h583l-137 -778h-278l30 170q-85 -95 -198 -148t-240 -53 q-159 0 -289.5 90.5t-203 239.5t-72.5 322zM582 1573l290 280h273l192 -280h-250l-90 147l-133 -147h-282z" />
<glyph unicode="&#x11d;" horiz-adv-x="1320" d="M18 -268l138 176q113 -98 270 -98q132 0 227 62.5t115 168.5l25 137q-55 -80 -147.5 -129t-194.5 -49q-160 0 -266.5 131.5t-106.5 314.5q0 174 74 322.5t201.5 235t277.5 86.5q95 0 169 -50.5t113 -130.5l27 150h326l-181 -1010q-40 -223 -218.5 -340t-442.5 -117 q-233 0 -406 140zM319 1198l291 281h273l192 -281h-250l-90 148l-133 -148h-283zM418 463q0 -107 45.5 -171.5t126.5 -64.5t146 59.5t98.5 150t33.5 190.5q0 112 -46.5 170.5t-131.5 58.5q-116 0 -194 -118.5t-78 -274.5z" />
<glyph unicode="&#x11e;" horiz-adv-x="1581" d="M117 621q0 245 115 439t309.5 299t431.5 105q303 0 588 -110l-66 -377h-250l29 166q-134 67 -293 67q-140 0 -250.5 -75.5t-171.5 -208.5t-61 -299q0 -167 77.5 -279t206.5 -112q139 0 244 81t143 220h-288l41 241h583l-137 -778h-278l30 170q-85 -95 -198 -148t-240 -53 q-159 0 -289.5 90.5t-203 239.5t-72.5 322zM678 1800q0 35 8 62h209q-6 -18 -6 -39q0 -97 96 -97q54 0 87.5 39.5t39.5 96.5h229q-25 -143 -124.5 -225.5t-249.5 -82.5q-126 0 -207.5 71.5t-81.5 174.5z" />
<glyph unicode="&#x11f;" horiz-adv-x="1320" d="M18 -268l138 176q113 -98 270 -98q132 0 227 62.5t115 168.5l25 137q-55 -80 -147.5 -129t-194.5 -49q-160 0 -266.5 131.5t-106.5 314.5q0 174 74 322.5t201.5 235t277.5 86.5q95 0 169 -50.5t113 -130.5l27 150h326l-181 -1010q-40 -223 -218.5 -340t-442.5 -117 q-233 0 -406 140zM416 1425q0 35 8 62h209q-6 -18 -6 -39q0 -96 96 -96q54 0 87.5 39t39.5 96h229q-25 -143 -124.5 -225t-249.5 -82q-126 0 -207.5 71t-81.5 174zM418 463q0 -107 45.5 -171.5t126.5 -64.5t146 59.5t98.5 150t33.5 190.5q0 112 -46.5 170.5t-131.5 58.5 q-116 0 -194 -118.5t-78 -274.5z" />
<glyph unicode="&#x120;" horiz-adv-x="1581" d="M117 621q0 245 115 439t309.5 299t431.5 105q303 0 588 -110l-66 -377h-250l29 166q-134 67 -293 67q-140 0 -250.5 -75.5t-171.5 -208.5t-61 -299q0 -167 77.5 -279t206.5 -112q139 0 244 81t143 220h-288l41 241h583l-137 -778h-278l30 170q-85 -95 -198 -148t-240 -53 q-159 0 -289.5 90.5t-203 239.5t-72.5 322zM829 1745q0 66 47.5 108.5t120.5 42.5q75 0 122.5 -42.5t47.5 -108.5q0 -69 -47.5 -112.5t-122.5 -43.5q-76 0 -122 43.5t-46 112.5z" />
<glyph unicode="&#x121;" horiz-adv-x="1320" d="M18 -268l138 176q113 -98 270 -98q132 0 227 62.5t115 168.5l25 137q-55 -80 -147.5 -129t-194.5 -49q-160 0 -266.5 131.5t-106.5 314.5q0 174 74 322.5t201.5 235t277.5 86.5q95 0 169 -50.5t113 -130.5l27 150h326l-181 -1010q-40 -223 -218.5 -340t-442.5 -117 q-233 0 -406 140zM418 463q0 -107 45.5 -171.5t126.5 -64.5t146 59.5t98.5 150t33.5 190.5q0 112 -46.5 170.5t-131.5 58.5q-116 0 -194 -118.5t-78 -274.5zM567 1370q0 66 47.5 109t120.5 43q75 0 122.5 -43t47.5 -109q0 -69 -47.5 -112.5t-122.5 -43.5q-76 0 -122 43.5 t-46 112.5z" />
<glyph unicode="&#x122;" horiz-adv-x="1581" d="M117 621q0 245 115 439t309.5 299t431.5 105q303 0 588 -110l-66 -377h-250l29 166q-134 67 -293 67q-140 0 -250.5 -75.5t-171.5 -208.5t-61 -299q0 -167 77.5 -279t206.5 -112q139 0 244 81t143 220h-288l41 241h583l-137 -778h-278l30 170q-85 -95 -198 -148t-240 -53 q-159 0 -289.5 90.5t-203 239.5t-72.5 322zM479 -514q105 92 105 211q0 66 -37 119l237 112q50 -74 50 -147q0 -190 -291 -371z" />
<glyph unicode="&#x123;" horiz-adv-x="1320" d="M18 -268l138 176q113 -98 270 -98q132 0 227 62.5t115 168.5l25 137q-55 -80 -147.5 -129t-194.5 -49q-160 0 -266.5 131.5t-106.5 314.5q0 174 74 322.5t201.5 235t277.5 86.5q95 0 169 -50.5t113 -130.5l27 150h326l-181 -1010q-40 -223 -218.5 -340t-442.5 -117 q-233 0 -406 140zM418 463q0 -107 45.5 -171.5t126.5 -64.5t146 59.5t98.5 150t33.5 190.5q0 112 -46.5 170.5t-131.5 58.5q-116 0 -194 -118.5t-78 -274.5zM543 1305q0 189 291 370l63 -76q-104 -91 -104 -210q0 -67 36 -119l-237 -113q-49 73 -49 148z" />
<glyph unicode="&#x124;" horiz-adv-x="1746" d="M0 0l37 209h149l179 1016h-150l37 209h639l-37 -209h-145l-64 -359h574l63 359h-145l37 209h638l-36 -209h-150l-178 -1016h149l-36 -209h-639l36 209h146l70 395h-574l-70 -395h146l-37 -209h-639zM664 1573l290 280h273l192 -280h-250l-90 147l-133 -147h-282z" />
<glyph unicode="&#x125;" horiz-adv-x="1366" d="M92 0l225 1280h-149l35 201h475l-103 -590q57 86 145 138t191 52q132 0 226 -91.5t94 -217.5q0 -28 -8 -74l-88 -497h149l-35 -201h-475l119 666q4 24 4 41q0 59 -36 94t-101 35q-83 0 -150.5 -62.5t-81.5 -146.5l-110 -627h-326zM535 1567l290 280h273l192 -280h-250 l-90 147l-133 -147h-282z" />
<glyph unicode="&#x126;" horiz-adv-x="1744" d="M-2 0l37 209h149l138 778h-150l27 143h149l21 119h-150l33 185h639l-33 -185h-145l-21 -119h574l20 119h-145l33 185h638l-32 -185h-150l-20 -119h149l-26 -143h-150l-137 -778h149l-36 -209h-639l36 209h146l69 395h-573l-70 -395h146l-37 -209h-639zM645 866h574 l20 121h-573z" />
<glyph unicode="&#x127;" horiz-adv-x="1370" d="M92 0l201 1137h-150l21 118h149l17 91h-150l25 135h473l-39 -226h231l-20 -118h-232l-45 -254q57 86 145 138t191 52q132 0 226 -91.5t94 -217.5q0 -28 -8 -74l-86 -489h149l-35 -201h-475l117 657q4 24 4 41q0 59 -36 94t-101 35q-83 0 -150.5 -62.5t-81.5 -146.5 l-108 -618h-326z" />
<glyph unicode="&#x128;" horiz-adv-x="827" d="M-2 0l37 209h149l181 1016h-150l37 209h643l-37 -209h-149l-181 -1016h150l-37 -209h-643zM240 1577q24 121 99.5 201t172.5 80q51 0 101.5 -21.5t93.5 -43t75 -21.5t55 22.5t31 54.5h160q-25 -120 -100.5 -199t-171.5 -79q-51 0 -101 21.5t-93.5 43t-76.5 21.5 q-30 0 -53 -23.5t-33 -56.5h-159z" />
<glyph unicode="&#x129;" horiz-adv-x="698" d="M59 1202q24 120 100 200.5t173 80.5q51 0 101.5 -21.5t93.5 -43t75 -21.5t55 23t31 55h160q-25 -120 -101 -199.5t-172 -79.5q-51 0 -101 21.5t-93 43t-76 21.5q-30 0 -53 -23.5t-33 -56.5h-160zM90 0l152 858h-150l37 201h473l-151 -858h149l-35 -201h-475z" />
<glyph unicode="&#x12a;" horiz-adv-x="827" d="M-2 0l37 209h149l181 1016h-150l37 209h643l-37 -209h-149l-181 -1016h150l-37 -209h-643zM272 1602l37 194h668l-35 -194h-670z" />
<glyph unicode="&#x12b;" horiz-adv-x="698" d="M90 0l152 858h-150l37 201h473l-151 -858h149l-35 -201h-475zM106 1227l37 194h668l-35 -194h-670z" />
<glyph unicode="&#x12c;" horiz-adv-x="827" d="M-2 0l37 209h149l181 1016h-150l37 209h643l-37 -209h-149l-181 -1016h150l-37 -209h-643zM311 1800q0 35 8 62h209q-6 -18 -6 -39q0 -97 96 -97q54 0 87.5 39.5t39.5 96.5h230q-25 -143 -125 -225.5t-250 -82.5q-126 0 -207.5 71.5t-81.5 174.5z" />
<glyph unicode="&#x12d;" horiz-adv-x="698" d="M90 0l152 858h-150l37 201h473l-151 -858h149l-35 -201h-475zM164 1425q0 35 8 62h209q-6 -18 -6 -39q0 -96 96 -96q54 0 87.5 39t39.5 96h229q-25 -143 -124.5 -225t-249.5 -82q-126 0 -207.5 71t-81.5 174z" />
<glyph unicode="&#x12e;" horiz-adv-x="827" d="M-2 0l37 209h149l181 1016h-150l37 209h643l-37 -209h-149l-181 -1016h150l-37 -209h-80q-85 -14 -150 -65.5t-65 -110.5q0 -30 20 -50t48 -20q51 0 96 45l84 -141q-104 -90 -254 -90q-92 0 -157.5 57.5t-65.5 141.5q0 135 139 233h-258z" />
<glyph unicode="&#x12f;" horiz-adv-x="694" d="M33 -233q0 135 139 233h-82l152 858h-150l37 201h473l-151 -858h149l-35 -201h-88q-85 -14 -150 -65.5t-65 -110.5q0 -30 20 -50t48 -20q51 0 96 45l84 -141q-104 -90 -254 -90q-92 0 -157.5 57.5t-65.5 141.5zM297 1380q0 76 50.5 125t131.5 49q83 0 135 -49t52 -125 q0 -77 -52 -125.5t-135 -48.5q-82 0 -132 48.5t-50 125.5z" />
<glyph unicode="&#x130;" horiz-adv-x="827" d="M-2 0l37 209h149l181 1016h-150l37 209h643l-37 -209h-149l-181 -1016h150l-37 -209h-643zM463 1745q0 66 47.5 108.5t120.5 42.5q75 0 122.5 -42.5t47.5 -108.5q0 -69 -47.5 -112.5t-122.5 -43.5q-76 0 -122 43.5t-46 112.5z" />
<glyph unicode="&#x131;" horiz-adv-x="694" d="M90 0l152 858h-150l37 201h473l-151 -858h149l-35 -201h-475z" />
<glyph unicode="&#x132;" horiz-adv-x="1642" d="M-2 0l37 209h149l181 1016h-150l37 209h643l-37 -209h-149l-181 -1016h150l-37 -209h-643zM612 -276l74 206q54 -26 127 -26q74 0 128 49.5t69 132.5l200 1139h-192l37 209h686l-37 -209h-150l-202 -1157q-33 -184 -175 -287t-337 -103q-123 0 -228 46z" />
<glyph unicode="&#x133;" horiz-adv-x="1409" d="M90 0l152 858h-150l37 201h473l-151 -858h149l-35 -201h-475zM297 1380q0 76 50.5 125t131.5 49q83 0 135 -49t52 -125q0 -77 -52 -125.5t-135 -48.5q-82 0 -132 48.5t-50 125.5zM506 -371l57 209q49 -22 101 -22q64 0 105 38t52 103l160 901h-160l37 201h483l-196 -1116 q-29 -159 -149.5 -249.5t-301.5 -90.5q-102 0 -188 26zM1034 1380q0 76 51 125t132 49q83 0 134.5 -49t51.5 -125q0 -77 -51.5 -125.5t-134.5 -48.5t-133 48.5t-50 125.5z" />
<glyph unicode="&#x134;" horiz-adv-x="815" d="M-215 -276l74 206q54 -26 127 -26q74 0 127.5 49.5t68.5 132.5l201 1139h-193l37 209h686l-36 -209h-150l-203 -1157q-33 -184 -175 -287t-337 -103q-122 0 -227 46zM197 1573l290 280h273l192 -280h-250l-90 147l-133 -147h-282z" />
<glyph unicode="&#x135;" horiz-adv-x="714" d="M-188 -371l57 209q49 -22 100 -22q64 0 105.5 38t52.5 103l160 901h-160l37 201h483l-196 -1116q-29 -159 -149.5 -249.5t-301.5 -90.5q-102 0 -188 26zM82 1198l291 281h272l193 -281h-250l-90 148l-133 -148h-283z" />
<glyph unicode="&#x136;" horiz-adv-x="1558" d="M2 0l37 209h149l179 1016h-150l37 209h608l-37 -209h-114l-78 -445l489 455h-133l35 199h621l-37 -209h-148l-499 -439l380 -577h160l-37 -209h-682l35 199h123l-317 528l-91 -518h117l-37 -209h-610zM467 -514q104 91 104 211q0 67 -36 119l237 112q49 -73 49 -147 q0 -190 -291 -371z" />
<glyph unicode="&#x137;" horiz-adv-x="1251" d="M88 0l227 1280h-149l39 201h471l-139 -789q122 38 211.5 136t128.5 231h374q-50 -155 -171.5 -271.5t-280.5 -181.5l235 -405h156l-35 -201h-377l-266 545l-98 -545h-326zM313 -514q105 92 105 211q0 66 -37 119l237 112q50 -74 50 -147q0 -190 -291 -371z" />
<glyph unicode="&#x138;" horiz-adv-x="1253" d="M90 0l152 858h-150l39 201h471l-63 -367q122 38 211.5 136t128.5 231h374q-50 -155 -171.5 -271.5t-280.5 -181.5l235 -405h156l-35 -201h-377l-266 545l-98 -545h-326z" />
<glyph unicode="&#x139;" horiz-adv-x="1210" d="M0 0l37 209h149l179 1016h-150l37 209h653l-37 -209h-159l-179 -1016h312l43 240h250l-80 -449h-1055zM442 1573l195 299h360l-307 -299h-248z" />
<glyph unicode="&#x13a;" horiz-adv-x="694" d="M90 0l227 1280h-149l35 201h475l-227 -1280h149l-35 -201h-475zM328 1606l194 299h361l-308 -299h-247z" />
<glyph unicode="&#x13b;" horiz-adv-x="1210" d="M0 0l37 209h149l179 1016h-150l37 209h653l-37 -209h-159l-179 -1016h312l43 240h250l-80 -449h-1055zM334 -514q104 91 104 211q0 66 -37 119l238 112q49 -73 49 -147q0 -190 -291 -371z" />
<glyph unicode="&#x13c;" horiz-adv-x="694" d="M27 -514q104 91 104 211q0 66 -37 119l238 112q49 -73 49 -147q0 -190 -291 -371zM90 0l227 1280h-149l35 201h475l-227 -1280h149l-35 -201h-475z" />
<glyph unicode="&#x13d;" horiz-adv-x="1210" d="M0 0l37 209h149l179 1016h-150l37 209h653l-37 -209h-159l-179 -1016h312l43 240h250l-80 -449h-1055zM942 1098l96 383h279l-182 -383h-193z" />
<glyph unicode="&#x13e;" horiz-adv-x="872" d="M90 0l227 1280h-149l35 201h475l-227 -1280h149l-35 -201h-475zM727 1098l96 383h279l-182 -383h-193z" />
<glyph unicode="&#x13f;" horiz-adv-x="1261" d="M0 0l37 209h149l179 1016h-150l37 209h653l-37 -209h-159l-179 -1016h312l41 231h250l-78 -440h-1055zM877 793q0 75 59 132.5t137 57.5q76 0 133.5 -57.5t57.5 -132.5q0 -78 -57 -135.5t-134 -57.5q-78 0 -137 57.5t-59 135.5z" />
<glyph unicode="&#x140;" horiz-adv-x="1183" d="M90 0l227 1280h-149l35 201h475l-227 -1280h149l-35 -201h-475zM774 754q0 81 62.5 141.5t146.5 60.5q83 0 143 -60t60 -142q0 -83 -60 -143t-143 -60q-84 0 -146.5 60t-62.5 143z" />
<glyph unicode="&#x141;" horiz-adv-x="1273" d="M63 0l37 209h150l63 366l-227 -86l35 203l229 86l78 447h-149l36 209h654l-37 -209h-160l-53 -310l311 117l-35 -203l-313 -116l-88 -504h311l43 240h250l-80 -449h-1055z" />
<glyph unicode="&#x142;" horiz-adv-x="794" d="M14 522l33 195l227 92l84 471h-149l35 201h475l-94 -531l249 101l-32 -195l-252 -102l-98 -553h149l-35 -201h-475l109 612z" />
<glyph unicode="&#x143;" horiz-adv-x="1714" d="M-2 0l37 209h149l181 1016h-150l37 209h506l446 -992l137 783h-149l37 209h575l-37 -209h-149l-215 -1225h-365l-440 993l-137 -784h149l-37 -209h-575zM860 1573l195 299h360l-307 -299h-248z" />
<glyph unicode="&#x144;" horiz-adv-x="1370" d="M92 0l152 858h-150l35 201h477l-31 -168q57 86 145 138t191 52q132 0 226 -91.5t94 -217.5q0 -28 -8 -74l-88 -497h149l-35 -201h-475l119 666q4 24 4 41q0 59 -36 94t-101 35q-83 0 -150.5 -62.5t-81.5 -146.5l-110 -627h-326zM645 1198l195 299h360l-307 -299h-248z " />
<glyph unicode="&#x145;" horiz-adv-x="1714" d="M-2 0l37 209h149l181 1016h-150l37 209h506l446 -992l137 783h-149l37 209h575l-37 -209h-149l-215 -1225h-365l-440 993l-137 -784h149l-37 -209h-575zM545 -514q104 91 104 211q0 66 -37 119l238 112q49 -73 49 -147q0 -190 -291 -371z" />
<glyph unicode="&#x146;" horiz-adv-x="1370" d="M92 0l152 858h-150l35 201h477l-31 -168q57 86 145 138t191 52q132 0 226 -91.5t94 -217.5q0 -28 -8 -74l-88 -497h149l-35 -201h-475l119 666q4 24 4 41q0 59 -36 94t-101 35q-83 0 -150.5 -62.5t-81.5 -146.5l-110 -627h-326zM373 -514q104 91 104 211q0 66 -37 119 l238 112q49 -73 49 -147q0 -190 -291 -371z" />
<glyph unicode="&#x147;" horiz-adv-x="1714" d="M-2 0l37 209h149l181 1016h-150l37 209h506l446 -992l137 783h-149l37 209h575l-37 -209h-149l-215 -1225h-365l-440 993l-137 -784h149l-37 -209h-575zM705 1853h249l90 -147l134 147h282l-291 -280h-272z" />
<glyph unicode="&#x148;" horiz-adv-x="1370" d="M92 0l152 858h-150l35 201h477l-31 -168q57 86 145 138t191 52q132 0 226 -91.5t94 -217.5q0 -28 -8 -74l-88 -497h149l-35 -201h-475l119 666q4 24 4 41q0 59 -36 94t-101 35q-83 0 -150.5 -62.5t-81.5 -146.5l-110 -627h-326zM489 1479h250l90 -148l134 148h282 l-291 -281h-272z" />
<glyph unicode="&#x149;" horiz-adv-x="1695" d="M86 1063q131 131 131 293q0 78 -43 155l281 136q23 -37 39 -88.5t16 -96.5q0 -247 -336 -487zM418 0l151 858h-149l35 201h477l-31 -168q57 86 145 138t191 52q132 0 225.5 -91.5t93.5 -217.5q0 -28 -8 -74l-88 -497h150l-35 -201h-475l119 666q4 24 4 41q0 59 -36.5 94 t-101.5 35q-83 0 -150 -62.5t-81 -146.5l-111 -627h-325z" />
<glyph unicode="&#x14a;" horiz-adv-x="1714" d="M-2 0l37 209h149l181 1016h-150l37 209h496l456 -979l137 770h-149l37 209h575l-37 -209h-149l-158 -893h2l-67 -385q-27 -158 -151.5 -251t-301.5 -93q-102 0 -188 26l57 209q49 -22 100 -22q69 0 113.5 37t56.5 104l4 20l-487 1010l-137 -778h149l-37 -209h-575z" />
<glyph unicode="&#x14b;" horiz-adv-x="1347" d="M92 0l152 858h-150l35 201h477l-31 -168q57 86 145 138t191 52q132 0 226 -91.5t94 -217.5q0 -28 -8 -74l-133 -755q-28 -160 -149 -250t-302 -90q-102 0 -188 26l57 209q50 -22 100 -22q63 0 104.5 37.5t53.5 103.5l127 709q4 24 4 41q0 59 -36 94t-101 35 q-83 0 -150.5 -62.5t-81.5 -146.5l-110 -627h-326z" />
<glyph unicode="&#x14c;" horiz-adv-x="1662" d="M115 606q0 185 64 344.5t176 272.5t270.5 177t341.5 64q294 0 471.5 -171.5t177.5 -448.5q0 -252 -106.5 -451t-301.5 -311.5t-446 -112.5q-295 0 -471 176.5t-176 460.5zM496 612q0 -171 77 -279t207 -108q93 0 177 48.5t145 130t97 194.5t36 238q0 171 -76.5 271.5 t-212.5 100.5q-120 0 -223 -76.5t-165 -214.5t-62 -305zM678 1602l37 194h667l-34 -194h-670z" />
<glyph unicode="&#x14d;" horiz-adv-x="1288" d="M78 455q0 284 179.5 459.5t465.5 175.5q145 0 259.5 -63t176.5 -170.5t62 -238.5q0 -290 -177 -469.5t-469 -179.5q-223 0 -360 139t-137 347zM418 459q0 -113 47 -184.5t129 -71.5q80 0 146.5 58t103.5 152t37 201q0 108 -47 175t-129 67q-122 0 -204.5 -116.5 t-82.5 -280.5zM426 1227l37 194h667l-34 -194h-670z" />
<glyph unicode="&#x14e;" horiz-adv-x="1662" d="M115 606q0 185 64 344.5t176 272.5t270.5 177t341.5 64q294 0 471.5 -171.5t177.5 -448.5q0 -252 -106.5 -451t-301.5 -311.5t-446 -112.5q-295 0 -471 176.5t-176 460.5zM496 612q0 -171 77 -279t207 -108q93 0 177 48.5t145 130t97 194.5t36 238q0 171 -76.5 271.5 t-212.5 100.5q-120 0 -223 -76.5t-165 -214.5t-62 -305zM717 1800q0 35 8 62h209q-6 -18 -6 -39q0 -97 96 -97q54 0 87.5 39.5t39.5 96.5h229q-25 -143 -124.5 -225.5t-249.5 -82.5q-126 0 -207.5 71.5t-81.5 174.5z" />
<glyph unicode="&#x14f;" horiz-adv-x="1288" d="M78 455q0 284 179.5 459.5t465.5 175.5q145 0 259.5 -63t176.5 -170.5t62 -238.5q0 -290 -177 -469.5t-469 -179.5q-223 0 -360 139t-137 347zM418 459q0 -113 47 -184.5t129 -71.5q80 0 146.5 58t103.5 152t37 201q0 108 -47 175t-129 67q-122 0 -204.5 -116.5 t-82.5 -280.5zM465 1425q0 35 8 62h209q-6 -18 -6 -39q0 -96 96 -96q54 0 87.5 39t39.5 96h229q-25 -143 -124.5 -225t-249.5 -82q-126 0 -207.5 71t-81.5 174z" />
<glyph unicode="&#x150;" horiz-adv-x="1662" d="M115 606q0 185 64 344.5t176 272.5t270.5 177t341.5 64q294 0 471.5 -171.5t177.5 -448.5q0 -252 -106.5 -451t-301.5 -311.5t-446 -112.5q-295 0 -471 176.5t-176 460.5zM496 612q0 -171 77 -279t207 -108q93 0 177 48.5t145 130t97 194.5t36 238q0 171 -76.5 271.5 t-212.5 100.5q-120 0 -223 -76.5t-165 -214.5t-62 -305zM674 1575l170 299h276l-239 -299h-207zM1051 1575l170 299h276l-240 -299h-206z" />
<glyph unicode="&#x151;" horiz-adv-x="1288" d="M78 455q0 284 179.5 459.5t465.5 175.5q145 0 259.5 -63t176.5 -170.5t62 -238.5q0 -290 -177 -469.5t-469 -179.5q-223 0 -360 139t-137 347zM418 459q0 -113 47 -184.5t129 -71.5q80 0 146.5 58t103.5 152t37 201q0 108 -47 175t-129 67q-122 0 -204.5 -116.5 t-82.5 -280.5zM422 1200l170 299h276l-239 -299h-207zM799 1200l170 299h276l-239 -299h-207z" />
<glyph unicode="&#x152;" horiz-adv-x="2195" d="M115 606q0 185 64 344.5t176 272.5t270.5 177t341.5 64q120 0 219 -30h1063l-66 -369h-250l27 154l-471 -2q103 -148 106 -361h398l-39 -221h-379q-50 -251 -207 -418l434 -2l31 180h250l-70 -395h-1009q-118 -31 -242 -31q-295 0 -471 176.5t-176 460.5zM496 612 q0 -171 77 -279t207 -108q126 0 230.5 82t164.5 222t60 307q0 172 -75 272t-214 100q-120 0 -223 -76.5t-165 -214.5t-62 -305z" />
<glyph unicode="&#x153;" horiz-adv-x="2023" d="M78 455q0 284 179.5 459.5t465.5 175.5q111 0 202.5 -45.5t155.5 -124.5q85 81 192.5 125.5t225.5 44.5q196 0 323.5 -125.5t127.5 -309.5q0 -89 -33 -194l-721 -2q0 -114 58.5 -184t158.5 -70q157 0 277 127l186 -142q-89 -106 -220.5 -162.5t-289.5 -56.5 q-112 0 -204 45t-158 125q-177 -172 -437 -172q-146 0 -258.5 65t-171.5 175t-59 246zM418 459q0 -113 47 -184.5t129 -71.5q80 0 146.5 58t103.5 152t37 201q0 108 -47 175t-129 67q-122 0 -204.5 -116.5t-82.5 -280.5zM1221 639h401q4 28 4 61q0 79 -39.5 128t-109.5 49 q-86 0 -158 -67.5t-98 -170.5z" />
<glyph unicode="&#x154;" horiz-adv-x="1454" d="M0 0l37 209h149l179 1016h-150l37 209h700q192 0 316.5 -97.5t124.5 -261.5q0 -142 -105 -254t-256 -166l201 -446h164l-37 -209h-422l-223 594h-119l-66 -385h138l-37 -209h-631zM631 784h112q110 0 191.5 79.5t81.5 199.5q0 81 -51.5 126.5t-133.5 45.5h-122zM680 1573 l194 299h361l-307 -299h-248z" />
<glyph unicode="&#x155;" horiz-adv-x="1015" d="M92 0l152 858h-150l35 201h471l-43 -244q66 120 162 196t196 76q91 0 168 -43l-170 -317q-76 51 -161 51q-91 0 -153 -52.5t-77 -141.5l-104 -584h-326zM496 1198l194 299h361l-308 -299h-247z" />
<glyph unicode="&#x156;" horiz-adv-x="1454" d="M0 0l37 209h149l179 1016h-150l37 209h700q192 0 316.5 -97.5t124.5 -261.5q0 -142 -105 -254t-256 -166l201 -446h164l-37 -209h-422l-223 594h-119l-66 -385h138l-37 -209h-631zM467 -514q104 91 104 211q0 67 -36 119l237 112q49 -73 49 -147q0 -190 -291 -371z M631 784h112q110 0 191.5 79.5t81.5 199.5q0 81 -51.5 126.5t-133.5 45.5h-122z" />
<glyph unicode="&#x157;" horiz-adv-x="1015" d="M8 -514q105 92 105 211q0 66 -37 119l237 112q49 -73 49 -147q0 -190 -290 -371zM92 0l152 858h-150l35 201h471l-43 -244q66 120 162 196t196 76q91 0 168 -43l-170 -317q-76 51 -161 51q-91 0 -153 -52.5t-77 -141.5l-104 -584h-326z" />
<glyph unicode="&#x158;" horiz-adv-x="1454" d="M0 0l37 209h149l179 1016h-150l37 209h700q192 0 316.5 -97.5t124.5 -261.5q0 -142 -105 -254t-256 -166l201 -446h164l-37 -209h-422l-223 594h-119l-66 -385h138l-37 -209h-631zM524 1853h250l90 -147l133 147h283l-291 -280h-272zM631 784h112q110 0 191.5 79.5 t81.5 199.5q0 81 -51.5 126.5t-133.5 45.5h-122z" />
<glyph unicode="&#x159;" horiz-adv-x="1015" d="M92 0l152 858h-150l35 201h471l-43 -244q66 120 162 196t196 76q91 0 168 -43l-170 -317q-76 51 -161 51q-91 0 -153 -52.5t-77 -141.5l-104 -584h-326zM340 1479h250l90 -148l133 148h283l-291 -281h-273z" />
<glyph unicode="&#x15a;" horiz-adv-x="1212" d="M20 49l76 426h250l-37 -211q107 -51 234 -51q93 0 154 51.5t61 136.5q0 50 -30.5 90.5t-79.5 71t-108 60t-118.5 65t-108.5 78t-80 107t-32 143.5q-1 100 43 185t117.5 142t169 89t198.5 32q231 0 490 -88l-66 -375h-250l33 185q-93 49 -201 49q-76 0 -131 -47t-55 -117 q0 -45 31 -82t80.5 -64.5t109.5 -55t119.5 -62t109 -77t80.5 -109t31 -148.5q0 -227 -156.5 -364.5t-394.5 -137.5q-265 0 -539 78zM592 1573l194 299h361l-307 -299h-248z" />
<glyph unicode="&#x15b;" horiz-adv-x="1081" d="M25 47l53 309h221l-23 -133q99 -47 207 -47q64 0 106 32t42 85q0 33 -26.5 58.5t-68.5 44t-93 37t-102 43.5t-93 56.5t-69 83t-27 117.5q0 157 126 254.5t308 97.5q209 0 430 -77l-45 -267h-221l20 107q-82 45 -174 45q-53 0 -89 -29t-36 -73q0 -31 27 -55t69.5 -42 t94.5 -36t103.5 -43.5t94.5 -58t70.5 -85t27.5 -119.5q0 -176 -133 -278.5t-336 -102.5q-239 0 -464 76zM469 1198l195 299h360l-307 -299h-248z" />
<glyph unicode="&#x15c;" horiz-adv-x="1212" d="M20 49l76 426h250l-37 -211q107 -51 234 -51q93 0 154 51.5t61 136.5q0 50 -30.5 90.5t-79.5 71t-108 60t-118.5 65t-108.5 78t-80 107t-32 143.5q-1 100 43 185t117.5 142t169 89t198.5 32q231 0 490 -88l-66 -375h-250l33 185q-93 49 -201 49q-76 0 -131 -47t-55 -117 q0 -45 31 -82t80.5 -64.5t109.5 -55t119.5 -62t109 -77t80.5 -109t31 -148.5q0 -227 -156.5 -364.5t-394.5 -137.5q-265 0 -539 78zM379 1573l291 280h272l193 -280h-250l-90 147l-133 -147h-283z" />
<glyph unicode="&#x15d;" horiz-adv-x="1081" d="M25 47l53 309h221l-23 -133q99 -47 207 -47q64 0 106 32t42 85q0 33 -26.5 58.5t-68.5 44t-93 37t-102 43.5t-93 56.5t-69 83t-27 117.5q0 157 126 254.5t308 97.5q209 0 430 -77l-45 -267h-221l20 107q-82 45 -174 45q-53 0 -89 -29t-36 -73q0 -31 27 -55t69.5 -42 t94.5 -36t103.5 -43.5t94.5 -58t70.5 -85t27.5 -119.5q0 -176 -133 -278.5t-336 -102.5q-239 0 -464 76zM256 1198l291 281h272l193 -281h-250l-90 148l-133 -148h-283z" />
<glyph unicode="&#x15e;" horiz-adv-x="1212" d="M20 49l76 426h250l-37 -211q107 -51 234 -51q93 0 154 51.5t61 136.5q0 50 -30.5 90.5t-79.5 71t-108 60t-118.5 65t-108.5 78t-80 107t-32 143.5q-1 100 43 185t117.5 142t169 89t198.5 32q231 0 490 -88l-66 -375h-250l33 185q-93 49 -201 49q-76 0 -131 -47t-55 -117 q0 -45 31 -82t80.5 -64.5t109.5 -55t119.5 -62t109 -77t80.5 -109t31 -148.5q0 -146 -68 -258.5t-185 -174.5t-265 -69l-27 -65q66 -3 111 -47.5t45 -108.5q0 -108 -88 -168.5t-217 -60.5q-82 0 -137 30l61 150q31 -23 80 -23q36 0 61 16.5t25 47.5q0 30 -20.5 46.5 t-51.5 16.5q-29 0 -57 -8l67 178q-225 15 -424 74z" />
<glyph unicode="&#x15f;" horiz-adv-x="1081" d="M25 47l53 309h221l-23 -133q99 -47 207 -47q64 0 106 32t42 85q0 33 -26.5 58.5t-68.5 44t-93 37t-102 43.5t-93 56.5t-69 83t-27 117.5q0 157 126 254.5t308 97.5q209 0 430 -77l-45 -267h-221l20 107q-82 45 -174 45q-53 0 -89 -29t-36 -73q0 -31 27 -55t69.5 -42 t94.5 -36t103.5 -43.5t94.5 -58t70.5 -85t27.5 -119.5q0 -164 -115 -264.5t-298 -114.5l-27 -67q66 -3 111 -47.5t45 -108.5q0 -108 -88 -168.5t-217 -60.5q-83 0 -138 30l62 150q31 -23 80 -23q36 0 61 16.5t25 47.5q0 30 -20.5 46.5t-51.5 16.5q-29 0 -57 -8l67 176 q-198 15 -372 74z" />
<glyph unicode="&#x160;" horiz-adv-x="1212" d="M20 49l76 426h250l-37 -211q107 -51 234 -51q93 0 154 51.5t61 136.5q0 50 -30.5 90.5t-79.5 71t-108 60t-118.5 65t-108.5 78t-80 107t-32 143.5q-1 100 43 185t117.5 142t169 89t198.5 32q231 0 490 -88l-66 -375h-250l33 185q-93 49 -201 49q-76 0 -131 -47t-55 -117 q0 -45 31 -82t80.5 -64.5t109.5 -55t119.5 -62t109 -77t80.5 -109t31 -148.5q0 -227 -156.5 -364.5t-394.5 -137.5q-265 0 -539 78zM436 1853h250l90 -147l133 147h283l-291 -280h-272z" />
<glyph unicode="&#x161;" horiz-adv-x="1081" d="M25 47l53 309h221l-23 -133q99 -47 207 -47q64 0 106 32t42 85q0 33 -26.5 58.5t-68.5 44t-93 37t-102 43.5t-93 56.5t-69 83t-27 117.5q0 157 126 254.5t308 97.5q209 0 430 -77l-45 -267h-221l20 107q-82 45 -174 45q-53 0 -89 -29t-36 -73q0 -31 27 -55t69.5 -42 t94.5 -36t103.5 -43.5t94.5 -58t70.5 -85t27.5 -119.5q0 -176 -133 -278.5t-336 -102.5q-239 0 -464 76zM313 1479h250l90 -148l133 148h283l-291 -281h-272z" />
<glyph unicode="&#x162;" horiz-adv-x="1363" d="M121 981l80 453h1282l-80 -453h-250l43 244h-219l-180 -1016h174l-37 -209h-264l-37 -94q66 -3 110.5 -47.5t44.5 -108.5q0 -108 -88 -168.5t-217 -60.5q-82 0 -137 30l62 150q31 -23 79 -23q36 0 61 16.5t25 47.5q0 30 -20 46.5t-51 16.5q-30 0 -58 -8l78 203h-280 l37 209h174l180 1016h-219l-43 -244h-250z" />
<glyph unicode="&#x163;" horiz-adv-x="813" d="M84 858l35 201h151l43 252h326l-43 -252h211l-35 -201h-213l-88 -506q-4 -24 -4 -41q0 -48 31 -75t77 -27q41 0 107 16l33 -205q-118 -32 -242 -32h-20l-33 -82q66 -3 110.5 -47.5t44.5 -108.5q0 -108 -88 -168.5t-217 -60.5q-82 0 -137 30l62 150q31 -23 79 -23 q36 0 61 16.5t25 47.5q0 30 -20 46.5t-51 16.5q-30 0 -58 -8l84 217q-85 32 -131.5 99t-46.5 157q0 26 8 80l88 508h-149z" />
<glyph unicode="&#x164;" horiz-adv-x="1363" d="M121 981l80 453h1282l-80 -453h-250l43 244h-219l-180 -1016h174l-37 -209h-692l37 209h174l180 1016h-219l-43 -244h-250zM528 1853h250l90 -147l133 147h283l-291 -280h-272z" />
<glyph unicode="&#x165;" horiz-adv-x="831" d="M84 858l35 201h151l43 252h326l-43 -252h211l-35 -201h-213l-88 -506q-4 -24 -4 -41q0 -48 31 -75t77 -27q41 0 107 16l33 -205q-118 -32 -242 -32q-153 0 -244.5 77t-91.5 205q0 26 8 80l88 508h-149zM721 1176l96 376h279l-183 -376h-192z" />
<glyph unicode="&#x166;" horiz-adv-x="1363" d="M121 981l80 453h1282l-80 -453h-250l43 244h-219l-78 -437h246l-33 -180h-244l-71 -399h174l-37 -209h-692l37 209h174l71 399h-237l32 180h236l78 437h-219l-43 -244h-250z" />
<glyph unicode="&#x167;" horiz-adv-x="813" d="M27 520l28 164h148l30 174h-149l35 201h151l43 252h326l-43 -252h211l-35 -201h-213l-31 -174h215l-28 -164h-215l-29 -168q-4 -24 -4 -41q0 -48 31 -75t77 -27q41 0 107 16l33 -205q-118 -32 -242 -32q-153 0 -244.5 77t-91.5 205q0 26 8 80l29 170h-147z" />
<glyph unicode="&#x168;" horiz-adv-x="1630" d="M180 1225l37 209h639l-37 -209h-149l-127 -717q-6 -34 -6 -68q0 -92 62 -152.5t173 -60.5q117 0 198.5 73.5t102.5 184.5l133 740h-149l37 209h639l-37 -209h-146l-131 -740q-44 -249 -219 -381.5t-461 -132.5q-248 0 -398.5 124.5t-150.5 316.5q0 56 9 108l127 705h-146 zM625 1577q24 121 99.5 201t172.5 80q51 0 101.5 -21.5t93.5 -43t75 -21.5t55 22.5t31 54.5h160q-25 -120 -100.5 -199t-171.5 -79q-51 0 -101 21.5t-93.5 43t-76.5 21.5q-30 0 -53 -23.5t-33 -56.5h-159z" />
<glyph unicode="&#x169;" horiz-adv-x="1343" d="M84 858l35 201h477l-119 -664q-4 -24 -4 -43q0 -59 32.5 -94t86.5 -35q77 0 140.5 60.5t78.5 146.5l113 629h325l-151 -858h149l-35 -201h-471l31 166q-62 -84 -153 -135t-195 -51q-122 0 -202.5 90t-80.5 213q0 27 9 92l83 483h-149zM408 1202q24 121 99.5 201t172.5 80 q51 0 101.5 -21.5t93.5 -43t75 -21.5t55 23t31 55h160q-25 -120 -100.5 -199.5t-171.5 -79.5q-51 0 -101 21.5t-93.5 43t-76.5 21.5q-30 0 -53 -23.5t-33 -56.5h-159z" />
<glyph unicode="&#x16a;" horiz-adv-x="1630" d="M180 1225l37 209h639l-37 -209h-149l-127 -717q-6 -34 -6 -68q0 -92 62 -152.5t173 -60.5q117 0 198.5 73.5t102.5 184.5l133 740h-149l37 209h639l-37 -209h-146l-131 -740q-44 -249 -219 -381.5t-461 -132.5q-248 0 -398.5 124.5t-150.5 316.5q0 56 9 108l127 705h-146 zM657 1602l37 194h668l-35 -194h-670z" />
<glyph unicode="&#x16b;" horiz-adv-x="1343" d="M84 858l35 201h477l-119 -664q-4 -24 -4 -43q0 -59 32.5 -94t86.5 -35q77 0 140.5 60.5t78.5 146.5l113 629h325l-151 -858h149l-35 -201h-471l31 166q-62 -84 -153 -135t-195 -51q-122 0 -202.5 90t-80.5 213q0 27 9 92l83 483h-149zM440 1227l37 194h668l-35 -194h-670 z" />
<glyph unicode="&#x16c;" horiz-adv-x="1630" d="M180 1225l37 209h639l-37 -209h-149l-127 -717q-6 -34 -6 -68q0 -92 62 -152.5t173 -60.5q117 0 198.5 73.5t102.5 184.5l133 740h-149l37 209h639l-37 -209h-146l-131 -740q-44 -249 -219 -381.5t-461 -132.5q-248 0 -398.5 124.5t-150.5 316.5q0 56 9 108l127 705h-146 zM696 1800q0 32 9 62h208q-6 -18 -6 -39q0 -44 23.5 -70.5t73.5 -26.5q54 0 86.5 39.5t39.5 96.5h230q-25 -143 -125 -225.5t-250 -82.5q-126 0 -207.5 71.5t-81.5 174.5z" />
<glyph unicode="&#x16d;" horiz-adv-x="1343" d="M84 858l35 201h477l-119 -664q-4 -24 -4 -43q0 -59 32.5 -94t86.5 -35q77 0 140.5 60.5t78.5 146.5l113 629h325l-151 -858h149l-35 -201h-471l31 166q-62 -84 -153 -135t-195 -51q-122 0 -202.5 90t-80.5 213q0 27 9 92l83 483h-149zM479 1425q0 35 8 62h209 q-6 -18 -6 -39q0 -96 96 -96q54 0 87.5 39t39.5 96h230q-25 -143 -125 -225t-250 -82q-126 0 -207.5 71t-81.5 174z" />
<glyph unicode="&#x16e;" horiz-adv-x="1630" d="M180 1225l37 209h639l-37 -209h-149l-127 -717q-6 -34 -6 -68q0 -92 62 -152.5t173 -60.5q117 0 198.5 73.5t102.5 184.5l133 740h-149l37 209h639l-37 -209h-146l-131 -740q-44 -249 -219 -381.5t-461 -132.5q-248 0 -398.5 124.5t-150.5 316.5q0 56 9 108l127 705h-146 zM780 1745q0 99 81 165t192 66q91 0 154 -53.5t63 -132.5q0 -101 -81 -169.5t-192 -68.5q-91 0 -154 55.5t-63 137.5zM938 1749q0 -31 19.5 -51.5t52.5 -20.5q43 0 72.5 29.5t29.5 73.5q0 31 -19.5 51t-52.5 20q-43 0 -72.5 -29t-29.5 -73z" />
<glyph unicode="&#x16f;" horiz-adv-x="1343" d="M84 858l35 201h477l-119 -664q-4 -24 -4 -43q0 -59 32.5 -94t86.5 -35q77 0 140.5 60.5t78.5 146.5l113 629h325l-151 -858h149l-35 -201h-471l31 166q-62 -84 -153 -135t-195 -51q-122 0 -202.5 90t-80.5 213q0 27 9 92l83 483h-149zM563 1370q0 99 81 165.5t192 66.5 q91 0 154 -54t63 -133q0 -101 -81 -169t-192 -68q-91 0 -154 55.5t-63 136.5zM721 1374q0 -31 19.5 -51t52.5 -20q43 0 72.5 29t29.5 73q0 31 -19.5 51.5t-52.5 20.5q-43 0 -72.5 -29.5t-29.5 -73.5z" />
<glyph unicode="&#x170;" horiz-adv-x="1630" d="M180 1225l37 209h639l-37 -209h-149l-127 -717q-6 -34 -6 -68q0 -92 62 -152.5t173 -60.5q117 0 198.5 73.5t102.5 184.5l133 740h-149l37 209h639l-37 -209h-146l-131 -740q-44 -249 -219 -381.5t-461 -132.5q-248 0 -398.5 124.5t-150.5 316.5q0 56 9 108l127 705h-146 zM653 1575l170 299h277l-240 -299h-207zM1030 1575l170 299h277l-240 -299h-207z" />
<glyph unicode="&#x171;" horiz-adv-x="1343" d="M84 858l35 201h477l-119 -664q-4 -24 -4 -43q0 -59 32.5 -94t86.5 -35q77 0 140.5 60.5t78.5 146.5l113 629h325l-151 -858h149l-35 -201h-471l31 166q-62 -84 -153 -135t-195 -51q-122 0 -202.5 90t-80.5 213q0 27 9 92l83 483h-149zM436 1200l170 299h277l-240 -299 h-207zM813 1200l170 299h277l-240 -299h-207z" />
<glyph unicode="&#x172;" horiz-adv-x="1630" d="M180 1225l37 209h639l-37 -209h-149l-127 -717q-6 -34 -6 -68q0 -92 62 -152.5t173 -60.5q117 0 198.5 73.5t102.5 184.5l133 740h-149l37 209h639l-37 -209h-146l-131 -740q-37 -204 -161.5 -330.5t-327.5 -164.5q-70 -24 -119 -70.5t-49 -95.5q0 -30 19.5 -50t47.5 -20 q52 0 97 45l84 -141q-104 -90 -254 -90q-92 0 -158 57.5t-66 141.5q0 120 111 210q-209 25 -331 144t-122 291q0 56 9 108l127 705h-146z" />
<glyph unicode="&#x173;" horiz-adv-x="1343" d="M84 858l35 201h477l-119 -664q-4 -24 -4 -43q0 -59 32.5 -94t86.5 -35q77 0 140.5 60.5t78.5 146.5l113 629h325l-151 -858h149l-35 -201h-131q-85 -14 -150 -65.5t-65 -110.5q0 -30 20 -50t48 -20q51 0 96 45l84 -141q-104 -90 -254 -90q-92 0 -157.5 57.5t-65.5 141.5 q0 69 39 131.5t108 105.5l-12 162q-62 -84 -153 -135t-195 -51q-122 0 -202.5 90t-80.5 213q0 27 9 92l83 483h-149z" />
<glyph unicode="&#x174;" horiz-adv-x="2299" d="M123 1225l37 209h682l-37 -209h-176l49 -949l463 1158h389l67 -1155l375 946h-176l37 209h623l-37 -209h-144l-536 -1225h-424l-78 1012l-428 -1012h-424l-115 1225h-147zM940 1573l291 280h272l193 -280h-250l-90 147l-133 -147h-283z" />
<glyph unicode="&#x175;" horiz-adv-x="1859" d="M18 858l35 201h432l45 -797q136 134 222 298.5t86 320.5q0 21 -4 71l-13 107h318l61 -797q144 125 233 271t89 282q0 7 -1 21.5t-1 21.5h-172l34 201h404q26 -107 26 -221q0 -209 -156.5 -432t-430.5 -412h-277l-51 444q-126 -229 -365 -444h-274l-82 864h-158zM612 1198 l291 281h273l192 -281h-250l-90 148l-133 -148h-283z" />
<glyph unicode="&#x176;" horiz-adv-x="1435" d="M123 1225l37 209h633l-33 -191h-129l164 -420l323 420h-141l33 191h579l-37 -209h-143l-510 -641l-65 -375h176l-37 -209h-697l37 209h176l66 381l-276 635h-156zM508 1573l291 280h272l193 -280h-250l-90 147l-133 -147h-283z" />
<glyph unicode="&#x177;" horiz-adv-x="1245" d="M-158 -369l74 211q54 -26 135 -26q72 0 156 46t153 118l-176 878h-164l35 201h414l160 -846q120 137 192 298.5t72 307.5v39h-180l35 201h423q27 -106 27 -211q0 -118 -50.5 -260t-135 -279.5t-200 -268t-240.5 -228.5t-262 -158t-259 -60q-121 0 -209 37zM283 1198 l290 281h273l192 -281h-250l-90 148l-133 -148h-282z" />
<glyph unicode="&#x178;" horiz-adv-x="1435" d="M123 1225l37 209h633l-33 -191h-129l164 -420l323 420h-141l33 191h579l-37 -209h-143l-510 -641l-65 -375h176l-37 -209h-697l37 209h176l66 381l-276 635h-156zM535 1739q0 65 45.5 107t115.5 42q72 0 117 -42t45 -107q0 -66 -45 -109t-117 -43q-74 0 -117.5 42.5 t-43.5 109.5zM973 1739q0 65 45 107t117 42q70 0 115.5 -42t45.5 -107t-45.5 -108.5t-115.5 -43.5q-74 0 -118 43t-44 109z" />
<glyph unicode="&#x179;" horiz-adv-x="1284" d="M-16 0l34 190l865 1035h-406l-39 -221h-250l76 430h1086l-33 -189l-866 -1036h454l45 256h250l-82 -465h-1134zM635 1573l194 299h361l-307 -299h-248z" />
<glyph unicode="&#x17a;" horiz-adv-x="1107" d="M2 0l31 174l622 690h-266l-22 -135h-222l60 330h887l-31 -170l-621 -694h299l27 147h221l-59 -342h-926zM479 1198l195 299h360l-307 -299h-248z" />
<glyph unicode="&#x17b;" horiz-adv-x="1284" d="M-16 0l34 190l865 1035h-406l-39 -221h-250l76 430h1086l-33 -189l-866 -1036h454l45 256h250l-82 -465h-1134zM670 1745q0 66 47.5 108.5t120.5 42.5q75 0 122.5 -42.5t47.5 -108.5q0 -69 -47.5 -112.5t-122.5 -43.5q-76 0 -122 43.5t-46 112.5z" />
<glyph unicode="&#x17c;" horiz-adv-x="1107" d="M2 0l31 174l622 690h-266l-22 -135h-222l60 330h887l-31 -170l-621 -694h299l27 147h221l-59 -342h-926zM514 1370q0 66 47.5 109t120.5 43q75 0 122.5 -43t47.5 -109q0 -69 -47.5 -112.5t-122.5 -43.5q-76 0 -122 43.5t-46 112.5z" />
<glyph unicode="&#x17d;" horiz-adv-x="1284" d="M-16 0l34 190l865 1035h-406l-39 -221h-250l76 430h1086l-33 -189l-866 -1036h454l45 256h250l-82 -465h-1134zM479 1853h250l90 -147l133 147h283l-291 -280h-272z" />
<glyph unicode="&#x17e;" horiz-adv-x="1107" d="M2 0l31 174l622 690h-266l-22 -135h-222l60 330h887l-31 -170l-621 -694h299l27 147h221l-59 -342h-926zM324 1479h249l91 -148l133 148h282l-291 -281h-272z" />
<glyph unicode="&#x192;" horiz-adv-x="915" d="M-133 -369l37 211q43 -24 98 -24q136 0 166 188l119 678h-172l35 201h174l36 211q22 127 89 211t159.5 120.5t210.5 36.5q94 0 185 -24l-37 -209q-45 20 -107 20q-69 0 -117 -48t-63 -140l-31 -178h223l-34 -201h-226l-127 -727q-31 -180 -149 -266t-297 -86 q-88 0 -172 26z" />
<glyph unicode="&#x1fa;" horiz-adv-x="1581" d="M-92 0l37 209h133l663 1198q-26 44 -26 90q0 96 82.5 159.5t197.5 63.5q95 0 160.5 -51t65.5 -127q0 -90 -72 -156l205 -1177h135l-37 -209h-643l37 209h147l-26 209h-488l-110 -209h147l-37 -209h-571zM600 651h338l-61 537zM844 1784l194 217h357l-299 -217h-252z M872 1501q0 -30 21.5 -48.5t58.5 -18.5q46 0 78.5 28t32.5 70q0 30 -21.5 48.5t-58.5 18.5q-46 0 -78.5 -28t-32.5 -70z" />
<glyph unicode="&#x1fb;" horiz-adv-x="1357" d="M76 436q0 181 73.5 331t200.5 236.5t279 86.5q97 0 172 -51t112 -132l27 152h326l-152 -858h150l-35 -201h-467l26 158q-57 -84 -148 -134.5t-198 -50.5q-105 0 -189.5 64.5t-130.5 170t-46 228.5zM416 451q0 -111 46 -177.5t128 -66.5q81 0 146 61.5t98.5 155.5 t33.5 197q0 113 -46 174t-130 61q-78 0 -142.5 -58.5t-99 -151t-34.5 -195.5zM545 1321q0 89 73 149t173 60q82 0 139 -48t57 -120q0 -91 -73 -153t-173 -62q-82 0 -139 50.5t-57 123.5zM653 1595l174 265h324l-277 -265h-221zM688 1325q0 -29 17 -47t47 -18q39 0 65.5 26.5 t26.5 65.5q0 29 -17 47t-47 18q-39 0 -65.5 -26.5t-26.5 -65.5z" />
<glyph unicode="&#x1fc;" horiz-adv-x="2043" d="M-98 0l37 209h139l983 1225h1050l-67 -375h-250l31 170h-289l-68 -387h387l-38 -221h-385l-76 -416h305l33 184h250l-68 -389h-1051l37 209h150l73 412h-368l-316 -412h127l-36 -209h-590zM852 797h264l80 448zM1253 1573l195 299h360l-307 -299h-248z" />
<glyph unicode="&#x1fd;" horiz-adv-x="2021" d="M74 430q0 181 79 332.5t216.5 239.5t300.5 88q230 0 440 -125q166 125 387 125q196 0 323.5 -125.5t127.5 -309.5q0 -89 -33 -194l-721 -2q0 -114 58.5 -184t158.5 -70q157 0 277 127l186 -142q-89 -106 -220.5 -162.5t-289.5 -56.5q-149 0 -261.5 62.5t-174.5 171.5 q-176 -232 -434 -232q-192 0 -306 128t-114 329zM414 446q0 -105 39 -170t104 -65q175 0 340 457l35 96q-47 41 -109 66.5t-125 25.5q-78 0 -144 -59.5t-103 -153.5t-37 -197zM969 1198l194 299h361l-307 -299h-248zM1219 639h401q4 28 4 61q0 78 -41.5 127.5t-112.5 49.5 q-86 0 -155 -67t-96 -171z" />
<glyph unicode="&#x1fe;" horiz-adv-x="1662" d="M86 72l145 145q-116 159 -116 389q0 185 64 344.5t176 272.5t270.5 177t341.5 64q234 0 399 -112l135 135l127 -125l-133 -133q121 -158 121 -385q0 -252 -106.5 -451t-301.5 -311.5t-446 -112.5q-242 0 -406 121l-143 -143zM496 612q0 -62 12 -118l635 634 q-77 80 -197 80t-223 -76.5t-165 -214.5t-62 -305zM584 317q79 -92 196 -92q93 0 177 48.5t145 130t97 194.5t36 238q0 64 -12 120zM821 1573l195 299h360l-307 -299h-248z" />
<glyph unicode="&#x1ff;" horiz-adv-x="1288" d="M49 37l123 121q-94 126 -94 297q0 284 179.5 459.5t465.5 175.5q167 0 297 -84l115 114l102 -100l-113 -113q97 -127 97 -289q0 -290 -177 -469.5t-469 -179.5q-175 0 -301 90l-122 -122zM418 459q0 -35 2 -51l399 399q-46 49 -114 49q-122 0 -204.5 -116.5t-82.5 -280.5 zM475 260q48 -57 119 -57q80 0 146.5 58t103.5 152t37 201q0 34 -2 48zM561 1198l195 299h360l-307 -299h-248z" />
<glyph unicode="&#x218;" horiz-adv-x="1212" d="M20 49l76 426h250l-37 -211q107 -51 234 -51q93 0 154 51.5t61 136.5q0 50 -30.5 90.5t-79.5 71t-108 60t-118.5 65t-108.5 78t-80 107t-32 143.5q-1 100 43 185t117.5 142t169 89t198.5 32q231 0 490 -88l-66 -375h-250l33 185q-93 49 -201 49q-76 0 -131 -47t-55 -117 q0 -45 31 -82t80.5 -64.5t109.5 -55t119.5 -62t109 -77t80.5 -109t31 -148.5q0 -227 -156.5 -364.5t-394.5 -137.5q-265 0 -539 78zM301 -514q105 92 105 211q0 66 -37 119l237 112q49 -73 49 -147q0 -190 -290 -371z" />
<glyph unicode="&#x219;" horiz-adv-x="1081" d="M25 47l53 309h221l-23 -133q99 -47 207 -47q64 0 106 32t42 85q0 33 -26.5 58.5t-68.5 44t-93 37t-102 43.5t-93 56.5t-69 83t-27 117.5q0 157 126 254.5t308 97.5q209 0 430 -77l-45 -267h-221l20 107q-82 45 -174 45q-53 0 -89 -29t-36 -73q0 -31 27 -55t69.5 -42 t94.5 -36t103.5 -43.5t94.5 -58t70.5 -85t27.5 -119.5q0 -176 -133 -278.5t-336 -102.5q-239 0 -464 76zM254 -514q104 91 104 211q0 67 -36 119l237 112q49 -73 49 -147q0 -190 -291 -371z" />
<glyph unicode="&#x21a;" horiz-adv-x="1363" d="M121 981l80 453h1282l-80 -453h-250l43 244h-219l-180 -1016h174l-37 -209h-692l37 209h174l180 1016h-219l-43 -244h-250zM369 -514q104 91 104 211q0 66 -37 119l238 112q49 -73 49 -147q0 -190 -291 -371z" />
<glyph unicode="&#x21b;" horiz-adv-x="813" d="M84 858l35 201h151l43 252h326l-43 -252h211l-35 -201h-213l-88 -506q-4 -24 -4 -41q0 -48 31 -75t77 -27q41 0 107 16l33 -205q-118 -32 -242 -32q-153 0 -244.5 77t-91.5 205q0 26 8 80l88 508h-149zM156 -514q104 91 104 211q0 66 -37 119l238 112q49 -73 49 -147 q0 -190 -291 -371z" />
<glyph unicode="&#x237;" horiz-adv-x="714" d="M-188 -371l57 209q49 -22 100 -22q64 0 105.5 38t52.5 103l160 901h-160l37 201h483l-196 -1116q-29 -159 -149.5 -249.5t-301.5 -90.5q-102 0 -188 26z" />
<glyph unicode="&#x2c6;" horiz-adv-x="976" d="M229 1198l291 281h273l192 -281h-250l-90 148l-133 -148h-283z" />
<glyph unicode="&#x2c7;" horiz-adv-x="976" d="M279 1479h249l90 -148l134 148h282l-291 -281h-272z" />
<glyph unicode="&#x2d8;" horiz-adv-x="909" d="M289 1425q0 35 8 62h209q-6 -18 -6 -39q0 -96 96 -96q54 0 87.5 39t39.5 96h229q-25 -143 -124.5 -225t-249.5 -82q-126 0 -207.5 71t-81.5 174z" />
<glyph unicode="&#x2d9;" horiz-adv-x="598" d="M279 1370q0 66 47 109t120 43q75 0 122.5 -43t47.5 -109q0 -69 -47.5 -112.5t-122.5 -43.5q-76 0 -121.5 43t-45.5 113z" />
<glyph unicode="&#x2da;" horiz-adv-x="739" d="M276 1370q0 99 81 165.5t192 66.5q91 0 154 -54t63 -133q0 -101 -80.5 -169t-191.5 -68q-91 0 -154.5 55.5t-63.5 136.5zM434 1374q0 -31 19.5 -51t52.5 -20q43 0 72.5 29t29.5 73q0 32 -19 52t-52 20q-43 0 -73 -29.5t-30 -73.5z" />
<glyph unicode="&#x2db;" horiz-adv-x="722" d="M-29 -233q0 122 113 212.5t276 108.5l56 -88q-85 -14 -150 -65.5t-65 -110.5q0 -30 19.5 -50t47.5 -20q52 0 97 45l84 -141q-104 -90 -254 -90q-92 0 -158 57.5t-66 141.5z" />
<glyph unicode="&#x2dc;" horiz-adv-x="993" d="M246 1202q24 121 99.5 201t172.5 80q51 0 101.5 -21.5t93.5 -43t75 -21.5t55 23t31 55h160q-25 -120 -100.5 -199.5t-171.5 -79.5q-51 0 -101 21.5t-93 43t-76 21.5q-30 0 -53 -23.5t-33 -56.5h-160z" />
<glyph unicode="&#x2dd;" horiz-adv-x="993" d="M233 1200l170 299h277l-240 -299h-207zM610 1200l170 299h277l-240 -299h-207z" />
<glyph unicode="&#x326;" horiz-adv-x="0" d="M-616 -514q104 91 104 211q0 66 -37 119l238 112q49 -73 49 -147q0 -190 -291 -371z" />
<glyph unicode="&#x1e80;" horiz-adv-x="2299" d="M123 1225l37 209h682l-37 -209h-176l49 -949l463 1158h389l67 -1155l375 946h-176l37 209h623l-37 -209h-144l-536 -1225h-424l-78 1012l-428 -1012h-424l-115 1225h-147zM1032 1874h338l86 -301h-235z" />
<glyph unicode="&#x1e81;" horiz-adv-x="1859" d="M18 858l35 201h432l45 -797q136 134 222 298.5t86 320.5q0 21 -4 71l-13 107h318l61 -797q144 125 233 271t89 282q0 7 -1 21.5t-1 21.5h-172l34 201h404q26 -107 26 -221q0 -209 -156.5 -432t-430.5 -412h-277l-51 444q-126 -229 -365 -444h-274l-82 864h-158zM705 1499 h337l86 -301h-235z" />
<glyph unicode="&#x1e82;" horiz-adv-x="2299" d="M123 1225l37 209h682l-37 -209h-176l49 -949l463 1158h389l67 -1155l375 946h-176l37 209h623l-37 -209h-144l-536 -1225h-424l-78 1012l-428 -1012h-424l-115 1225h-147zM1153 1573l195 299h360l-307 -299h-248z" />
<glyph unicode="&#x1e83;" horiz-adv-x="1859" d="M18 858l35 201h432l45 -797q136 134 222 298.5t86 320.5q0 21 -4 71l-13 107h318l61 -797q144 125 233 271t89 282q0 7 -1 21.5t-1 21.5h-172l34 201h404q26 -107 26 -221q0 -209 -156.5 -432t-430.5 -412h-277l-51 444q-126 -229 -365 -444h-274l-82 864h-158zM825 1198 l195 299h360l-307 -299h-248z" />
<glyph unicode="&#x1e84;" horiz-adv-x="2299" d="M123 1225l37 209h682l-37 -209h-176l49 -949l463 1158h389l67 -1155l375 946h-176l37 209h623l-37 -209h-144l-536 -1225h-424l-78 1012l-428 -1012h-424l-115 1225h-147zM967 1739q0 65 45.5 107t115.5 42q72 0 117 -42t45 -107q0 -66 -45 -109t-117 -43 q-74 0 -117.5 42.5t-43.5 109.5zM1405 1739q0 65 45 107t117 42q70 0 116 -42t46 -107t-46 -108.5t-116 -43.5q-74 0 -118 43t-44 109z" />
<glyph unicode="&#x1e85;" horiz-adv-x="1859" d="M18 858l35 201h432l45 -797q136 134 222 298.5t86 320.5q0 21 -4 71l-13 107h318l61 -797q144 125 233 271t89 282q0 7 -1 21.5t-1 21.5h-172l34 201h404q26 -107 26 -221q0 -209 -156.5 -432t-430.5 -412h-277l-51 444q-126 -229 -365 -444h-274l-82 864h-158zM639 1364 q0 65 46 107t116 42q72 0 117 -42t45 -107q0 -66 -45 -109t-117 -43q-74 0 -118 42.5t-44 109.5zM1077 1364q0 65 45 107t117 42q70 0 116 -42t46 -107t-46 -108.5t-116 -43.5q-74 0 -118 43t-44 109z" />
<glyph unicode="&#x1ef2;" horiz-adv-x="1435" d="M123 1225l37 209h633l-33 -191h-129l164 -420l323 420h-141l33 191h579l-37 -209h-143l-510 -641l-65 -375h176l-37 -209h-697l37 209h176l66 381l-276 635h-156zM600 1874h338l86 -301h-236z" />
<glyph unicode="&#x1ef3;" horiz-adv-x="1245" d="M-158 -369l74 211q54 -26 135 -26q72 0 156 46t153 118l-176 878h-164l35 201h414l160 -846q120 137 192 298.5t72 307.5v39h-180l35 201h423q27 -106 27 -211q0 -118 -50.5 -260t-135 -279.5t-200 -268t-240.5 -228.5t-262 -158t-259 -60q-121 0 -209 37zM375 1499h338 l86 -301h-236z" />
<glyph unicode="&#x2000;" horiz-adv-x="1000" />
<glyph unicode="&#x2001;" horiz-adv-x="2001" />
<glyph unicode="&#x2002;" horiz-adv-x="1000" />
<glyph unicode="&#x2003;" horiz-adv-x="2001" />
<glyph unicode="&#x2004;" horiz-adv-x="667" />
<glyph unicode="&#x2005;" horiz-adv-x="500" />
<glyph unicode="&#x2006;" horiz-adv-x="333" />
<glyph unicode="&#x2007;" horiz-adv-x="333" />
<glyph unicode="&#x2008;" horiz-adv-x="250" />
<glyph unicode="&#x2009;" horiz-adv-x="400" />
<glyph unicode="&#x200a;" horiz-adv-x="111" />
<glyph unicode="&#x2010;" horiz-adv-x="733" d="M78 481l49 279h561l-49 -279h-561z" />
<glyph unicode="&#x2011;" horiz-adv-x="733" d="M78 481l49 279h561l-49 -279h-561z" />
<glyph unicode="&#x2012;" horiz-adv-x="733" d="M78 481l49 279h561l-49 -279h-561z" />
<glyph unicode="&#x2013;" horiz-adv-x="1363" d="M80 498l43 245h1192l-43 -245h-1192z" />
<glyph unicode="&#x2014;" horiz-adv-x="1912" d="M80 498l43 245h1741l-43 -245h-1741z" />
<glyph unicode="&#x2018;" horiz-adv-x="559" d="M186 1024q0 255 342 498l90 -90q-133 -133 -133 -299q0 -79 43 -160l-286 -137q-56 95 -56 188z" />
<glyph unicode="&#x2019;" horiz-adv-x="561" d="M170 926q133 133 133 299q0 78 -43 159l287 138q55 -93 55 -189q0 -254 -342 -497z" />
<glyph unicode="&#x201a;" horiz-adv-x="587" d="M-33 -217q133 133 133 299q0 79 -43 160l287 137q55 -93 55 -189q0 -254 -342 -497z" />
<glyph unicode="&#x201c;" horiz-adv-x="1021" d="M186 1024q0 255 342 498l90 -90q-133 -133 -133 -299q0 -79 43 -160l-286 -137q-56 95 -56 188zM649 1024q0 255 342 498l90 -90q-133 -133 -133 -299q0 -79 43 -160l-286 -137q-56 95 -56 188z" />
<glyph unicode="&#x201d;" horiz-adv-x="1024" d="M170 926q133 133 133 299q0 78 -43 159l287 138q55 -93 55 -189q0 -254 -342 -497zM633 926q133 133 133 299q0 78 -43 159l287 138q55 -93 55 -189q0 -254 -342 -497z" />
<glyph unicode="&#x201e;" horiz-adv-x="1050" d="M-33 -215q133 133 133 299q0 79 -43 160l287 137q55 -93 55 -188q0 -255 -342 -498zM430 -215q133 133 133 299q0 79 -43 160l287 137q55 -93 55 -188q0 -255 -342 -498z" />
<glyph unicode="&#x2020;" horiz-adv-x="1011" d="M154 817v307l278 -49l-35 359h340l-35 -359l279 49v-307l-279 51l35 -991h-340l35 991z" />
<glyph unicode="&#x2021;" horiz-adv-x="1105" d="M154 270v308l278 -50v340l-278 -51v307l278 -49l-35 359h340l-35 -359l279 49v-307l-279 51v-340l279 50v-308l-279 52l35 -445h-340l33 445z" />
<glyph unicode="&#x2022;" horiz-adv-x="1181" d="M190 672q0 110 60.5 207t161 154t213.5 57q112 0 208.5 -57t152.5 -153.5t56 -207.5q0 -171 -123 -295.5t-294 -124.5q-113 0 -213.5 57t-161 154.5t-60.5 208.5z" />
<glyph unicode="&#x2026;" horiz-adv-x="1974" d="M63 176q0 82 63 142.5t146 60.5t143 -60.5t60 -142.5q0 -83 -60 -143t-143 -60q-84 0 -146.5 60t-62.5 143zM719 176q0 82 63 142.5t146 60.5t142.5 -60.5t59.5 -142.5q0 -83 -59.5 -143t-142.5 -60q-84 0 -146.5 60t-62.5 143zM1374 176q0 82 63 142.5t146 60.5 t143 -60.5t60 -142.5q0 -83 -60 -143t-143 -60q-84 0 -146.5 60t-62.5 143z" />
<glyph unicode="&#x202f;" horiz-adv-x="400" />
<glyph unicode="&#x2030;" horiz-adv-x="2467" d="M80 0l1278 1434h307l-1278 -1434h-307zM158 1049q0 179 106.5 295t284.5 116q137 0 219 -75.5t82 -194.5q0 -182 -107.5 -299t-285.5 -117q-139 0 -219 76.5t-80 198.5zM395 1051q0 -52 19 -83.5t57 -31.5q43 0 76.5 41t49 97.5t15.5 113.5q0 49 -21 79.5t-59 30.5 q-44 0 -76.5 -40t-46.5 -94.5t-14 -112.5zM899 246q0 179 106.5 295t284.5 116q137 0 219 -75.5t82 -194.5q0 -182 -107.5 -299t-285.5 -117q-139 0 -219 76.5t-80 198.5zM1137 248q0 -52 18.5 -83.5t56.5 -31.5q43 0 77 41t49.5 97.5t15.5 113.5q0 49 -21 80t-59 31 q-44 0 -76.5 -40t-46.5 -95t-14 -113zM1686 246q0 179 106.5 295t284.5 116q137 0 219 -75.5t82 -194.5q0 -182 -107.5 -299t-285.5 -117q-139 0 -219 76.5t-80 198.5zM1923 248q0 -52 19 -83.5t57 -31.5q43 0 76.5 41t49 97.5t15.5 113.5q0 49 -21 80t-59 31 q-44 0 -76.5 -40t-46.5 -95t-14 -113z" />
<glyph unicode="&#x2039;" horiz-adv-x="692" d="M70 604l338 391h317l-356 -413l192 -379h-287z" />
<glyph unicode="&#x203a;" horiz-adv-x="692" d="M-8 203l356 413l-192 379h286l205 -401l-338 -391h-317z" />
<glyph unicode="&#x2044;" horiz-adv-x="1034" d="M-109 -84l1074 1602h245l-1073 -1602h-246z" />
<glyph unicode="&#x205f;" horiz-adv-x="500" />
<glyph unicode="&#x2074;" horiz-adv-x="806" d="M92 858l19 113l440 467h211l-80 -449h106l-22 -131h-107l-18 -100h107l-23 -131h-436l22 131h119l19 100h-357zM276 989h195l45 254z" />
<glyph unicode="&#x20ac;" horiz-adv-x="1413" d="M47 520l55 162h148q3 34 16 111h-174l55 161h164q84 233 257 372.5t403 139.5q250 0 504 -102l-60 -342h-250l27 160q-98 45 -215 45q-103 0 -182.5 -74t-132.5 -199h430l-56 -161h-422q-12 -55 -18 -111h403l-55 -162h-354q6 -139 61.5 -220t155.5 -81q99 0 180 60 t137 159l209 -139q-193 -330 -592 -330q-225 0 -356.5 153.5t-140.5 397.5h-197z" />
<glyph unicode="&#x2116;" horiz-adv-x="2566" d="M-2 0l37 209h149l181 1016h-150l37 209h506l446 -992l137 783h-149l37 209h575l-37 -209h-149l-215 -1225h-365l-440 993l-137 -784h149l-37 -209h-575zM1747 418l37 209h698l-37 -209h-698zM1821 1028q0 183 122.5 303.5t311.5 120.5q144 0 236 -85t92 -216 q0 -187 -124 -308.5t-313 -121.5q-147 0 -236 85.5t-89 221.5zM2058 1034q0 -60 29.5 -95.5t81.5 -35.5q53 0 95 39t61.5 92t19.5 107q0 59 -30 94t-83 35q-76 0 -125 -71t-49 -165z" />
<glyph unicode="&#x2122;" horiz-adv-x="1978" d="M190 1235v246h701v-246h-148v121h-92v-477h86v-129h-393v129h86v477h-92v-121h-148zM977 750v129h65v473h-65v129h344l162 -379l159 379h332v-129h-65v-473h65v-129h-340v129h70v391l-172 -402h-148l-170 402v-391h70v-129h-307z" />
<glyph unicode="&#x2212;" horiz-adv-x="1204" d="M131 510v258h981v-258h-981z" />
<glyph unicode="&#x25fc;" horiz-adv-x="1054" d="M0 0v1055h1055v-1055h-1055z" />
<glyph horiz-adv-x="733" d="M96 592l49 278h562l-50 -278h-561z" />
<glyph horiz-adv-x="1363" d="M100 610l43 246h1192l-43 -246h-1192z" />
<glyph horiz-adv-x="1912" d="M100 610l43 246h1741l-43 -246h-1741z" />
<glyph horiz-adv-x="1210" d="M92 727l338 391h318l-357 -413l193 -379h-287zM575 686l373 432h318l-394 -454l172 -338h-286z" />
<glyph horiz-adv-x="1210" d="M12 326l394 454l-173 338h287l182 -360l-372 -432h-318zM530 326l357 413l-193 379h287l205 -401l-338 -391h-318z" />
<glyph horiz-adv-x="692" d="M92 727l338 391h318l-357 -413l193 -379h-287z" />
<glyph horiz-adv-x="692" d="M12 326l357 413l-193 379h287l205 -401l-338 -391h-318z" />
<glyph horiz-adv-x="681" d="M90 530q0 315 172 608t465 498l127 -120q-213 -223 -333 -476.5t-120 -517.5q0 -322 166 -616l-155 -109q-148 155 -235 345t-87 388z" />
<glyph horiz-adv-x="684" d="M-109 -98q213 223 333 476t120 517q0 322 -166 616l156 109q147 -155 234 -345t87 -388q0 -315 -172 -608t-465 -498z" />
<glyph horiz-adv-x="677" d="M35 -219l327 1851h482l-33 -184h-195l-262 -1483h195l-33 -184h-481z" />
<glyph horiz-adv-x="677" d="M-102 -219l32 184h195l262 1483h-194l32 184h482l-328 -1851h-481z" />
<glyph horiz-adv-x="686" d="M68 633l34 190q73 0 120.5 48t62.5 139l49 284q58 338 518 338l-33 -190q-83 0 -135.5 -49t-65.5 -125l-49 -279q-41 -235 -262 -274q85 -19 128.5 -73t43.5 -138q0 -32 -6 -62l-53 -301q-4 -28 -4 -45q0 -125 143 -125l-33 -190q-178 0 -288.5 77t-110.5 216q0 26 8 80 l49 288q6 30 6 62q0 129 -122 129z" />
<glyph horiz-adv-x="759" d="M283 -342v2025h282v-2025h-282z" />
<glyph horiz-adv-x="686" d="M-102 -219l32 190q83 0 135.5 49t65.5 125l49 279q41 235 262 274q-85 19 -128.5 73t-43.5 138q0 32 6 62l54 301q4 28 4 45q0 125 -144 125l33 190q179 0 289.5 -77t110.5 -216q0 -18 -9 -79l-49 -289q-6 -30 -6 -62q0 -64 32 -96.5t91 -32.5l-35 -190q-73 0 -120 -48 t-62 -139l-49 -284q-58 -338 -518 -338z" />
<glyph horiz-adv-x="917" d="M-127 -170l932 1757h297l-932 -1757h-297z" />
<glyph horiz-adv-x="890" d="M197 1587h272l311 -1757h-272z" />
<glyph horiz-adv-x="690" d="M61 0l230 993h278l-116 -993h-392zM285 1311q0 84 57 142t139 58t138.5 -57.5t56.5 -142.5q0 -79 -57 -136t-138 -57t-138.5 57t-57.5 136z" />
<glyph horiz-adv-x="987" d="M6 340q0 64 23.5 123t62 104t85 86.5t94.5 77.5t89 69t70.5 68.5t36.5 69.5l10 51h318l-21 -108q-11 -60 -46 -115t-78.5 -93.5t-92 -79.5t-88.5 -74.5t-66 -77t-26 -89.5q0 -55 33.5 -89t89.5 -34q70 0 119 51t75 130l285 -115q-69 -151 -207.5 -234.5t-335.5 -83.5 q-186 0 -308 104t-122 259zM473 1309q0 83 57.5 140.5t139.5 57.5t139 -57.5t57 -140.5t-57 -139t-139 -56t-139.5 56t-57.5 139z" />
<glyph horiz-adv-x="661" d="M160 727q0 82 63 142.5t146 60.5t142.5 -60.5t59.5 -142.5q0 -83 -59.5 -143t-142.5 -60q-84 0 -146.5 60t-62.5 143z" />
<glyph horiz-adv-x="1181" d="M201 729q0 110 60.5 207t160.5 154t213 57q171 0 294.5 -124.5t123.5 -293.5q0 -171 -123.5 -295.5t-294.5 -124.5q-113 0 -213 57t-160.5 154.5t-60.5 208.5z" />
<glyph horiz-adv-x="1228" d="M94 463q0 160 25.5 305t79.5 270t130.5 216.5t185.5 143.5t239 52q219 0 332.5 -125t113.5 -352q0 -160 -26 -306t-80 -272t-130.5 -219t-185 -146t-237.5 -53q-218 0 -332.5 128.5t-114.5 357.5zM436 461q0 -109 32.5 -172.5t98.5 -63.5q67 0 124 73t92.5 186t55 241 t19.5 246q0 108 -32.5 169.5t-100.5 61.5q-55 0 -103 -47.5t-81 -125.5t-57.5 -175.5t-36 -198.5t-11.5 -194z" />
<glyph horiz-adv-x="1228" d="M129 0l39 209h297l168 946l-326 -186l-112 200l520 283l295 -33l-211 -1210h293l-37 -209h-926z" />
<glyph horiz-adv-x="1228" d="M27 0l20 111q19 105 73 203.5t123.5 173.5t149.5 143.5t156 126.5t138 111t100 106.5t38 103.5q0 58 -35.5 93.5t-97.5 35.5q-75 0 -133.5 -62.5t-89.5 -160.5l-276 100q70 171 212 271t336 100q186 0 311.5 -108.5t125.5 -260.5q0 -86 -33.5 -162.5t-89 -136 t-124 -113.5t-143.5 -106.5t-141.5 -103t-123.5 -114t-85 -130.5h361l32 182h261l-72 -403h-993z" />
<glyph horiz-adv-x="1228" d="M14 305l275 113q20 -83 76.5 -139t134.5 -56q103 0 172 68t69 176q0 93 -67.5 149t-173.5 56h-74l35 200q144 9 245 71.5t101 152.5q0 59 -37.5 93t-99.5 34q-66 0 -124.5 -44t-94.5 -106l-263 135q87 121 220.5 188.5t300.5 67.5q118 0 216.5 -40t160 -119t61.5 -181 q0 -138 -107.5 -227.5t-283.5 -110.5q156 -11 248 -95.5t92 -225.5t-85.5 -254.5t-223.5 -174.5t-298 -61q-184 0 -305 87.5t-170 242.5z" />
<glyph horiz-adv-x="1228" d="M25 414l30 182l762 838h336l-143 -818h164l-35 -202h-164l-39 -213h164l-35 -201h-668l35 201h184l39 213h-630zM340 616h350l86 488z" />
<glyph horiz-adv-x="1228" d="M49 295l277 113q21 -81 78.5 -135t132.5 -54q115 0 186.5 80t71.5 201q0 90 -52.5 146t-136.5 56q-104 0 -186 -86l-227 80l186 738h831l-61 -353h-260l22 129h-293l-88 -325q94 63 213 63q166 0 286 -126.5t120 -299.5q0 -122 -48 -225.5t-131.5 -174.5t-197.5 -111 t-244 -40q-181 0 -304.5 87t-174.5 237z" />
<glyph horiz-adv-x="1228" d="M113 473q0 165 29.5 312.5t90 270.5t147 212.5t206.5 139.5t262 50q197 0 379 -92l-131 -229q-122 73 -258 73q-127 0 -225.5 -117.5t-123.5 -297.5q46 63 125.5 103t169.5 40q163 0 267 -111t104 -278q0 -261 -160.5 -419.5t-425.5 -158.5q-219 0 -337.5 130t-118.5 372 zM444 418q0 -83 40 -141t108 -58q72 0 122 45.5t71.5 113.5t21.5 150q0 78 -34.5 123t-104.5 45q-102 0 -163 -81.5t-61 -196.5z" />
<glyph horiz-adv-x="1228" d="M150 1001l75 433h1100l-41 -232q-541 -517 -680 -1202h-358q78 359 248.5 665.5t416.5 544.5h-458l-37 -209h-266z" />
<glyph horiz-adv-x="1228" d="M78 356q0 151 97.5 261t256.5 151q-89 30 -147 104t-58 162q0 184 148.5 304t367.5 120q184 0 309.5 -98.5t125.5 -243.5q0 -125 -84.5 -216t-221.5 -134q107 -22 179.5 -103.5t72.5 -187.5q0 -225 -161 -365.5t-414 -140.5q-206 0 -338.5 111.5t-132.5 275.5zM416 377 q0 -75 38 -120.5t113 -45.5q101 0 160 76t59 184q0 76 -41.5 120t-115.5 44q-94 0 -153.5 -71t-59.5 -187zM549 1022q0 -62 33 -101.5t94 -39.5q76 0 127 62.5t51 152.5q0 59 -32 94t-95 35q-81 0 -129.5 -57.5t-48.5 -145.5z" />
<glyph horiz-adv-x="1228" d="M68 74l139 225q103 -78 252 -78q129 0 223 124.5t119 318.5q-48 -66 -124.5 -107t-164.5 -41q-157 0 -266 117t-109 278q0 238 167 392.5t425 154.5q221 0 341 -127t120 -354q0 -165 -28.5 -313t-87.5 -275t-144 -219t-204.5 -144.5t-262.5 -52.5q-231 0 -395 101z M489 928q0 -72 40 -121t108 -49q97 0 159 80.5t62 193.5q0 77 -42.5 127.5t-108.5 50.5q-99 0 -158.5 -83.5t-59.5 -198.5z" />
</font>
</defs>
</svg>
