<?xml version="1.0" encoding="utf-8"?>
<!-- Generator: Adobe Illustrator 22.0.1, SVG Export Plug-In . SVG Version: 6.00 Build 0)  -->
<svg version="1.1" id="Layer_1" xmlns="http://www.w3.org/2000/svg" xmlns:xlink="http://www.w3.org/1999/xlink" x="0px" y="0px"
	 viewBox="0 0 120 120" style="enable-background:new 0 0 120 120;" xml:space="preserve">
<g id="Layer_3_Copy_Copy">
	<g>
		<path d="M0,0h60v10H0V0z"/>
		<path d="M10,0v60H0V0H10z"/>
		<path d="M20,20h40v10H20V20z"/>
		<path d="M30,20v40H20V20H30z"/>
		<path d="M40,40h20v10H40V40z"/>
		<path d="M50,40v20H40V40H50z"/>
	</g>
	<g>
		<path d="M120,0H60v10h60V0z"/>
		<path d="M110,0v60h10V0H110z"/>
		<path d="M100,20H60v10h40V20z"/>
		<path d="M90,20v40h10V20H90z"/>
		<path d="M80,40H60v10h20V40z"/>
		<path d="M70,40v20h10V40H70z"/>
	</g>
	<g>
		<path d="M0,60h60v10H0V60z"/>
		<path d="M10,60v60H0V60H10z"/>
		<path d="M20,80h40v10H20V80z"/>
		<path d="M30,80v40H20V80H30z"/>
		<path d="M40,100h20v10H40V100z"/>
		<path d="M50,100v20H40v-20H50z"/>
	</g>
	<g>
		<path d="M120,60H60v10h60V60z"/>
		<path d="M110,60v60h10V60H110z"/>
		<path d="M100,80H60v10h40V80z"/>
		<path d="M90,80v40h10V80H90z"/>
		<path d="M80,100H60v10h20V100z"/>
		<path d="M70,100v20h10v-20H70z"/>
	</g>
</g>
</svg>
