<?xml version="1.0" encoding="utf-8"?>
<!-- Generator: Adobe Illustrator 22.0.1, SVG Export Plug-In . SVG Version: 6.00 Build 0)  -->
<svg version="1.1" id="Layer_1" xmlns="http://www.w3.org/2000/svg" xmlns:xlink="http://www.w3.org/1999/xlink" x="0px" y="0px"
	 viewBox="0 0 120 120" style="enable-background:new 0 0 120 120;" xml:space="preserve">
<g id="Layer_3_Copy">
	<path d="M10,20C4.5,20,0,15.5,0,10S4.5,0,10,0s10,4.5,10,10S15.5,20,10,20z"/>
	<path d="M30,40c-5.5,0-10-4.5-10-10s4.5-10,10-10s10,4.5,10,10S35.5,40,30,40z"/>
	<path d="M10,60C4.5,60,0,55.5,0,50s4.5-10,10-10s10,4.5,10,10S15.5,60,10,60z"/>
	<path d="M30,80c-5.5,0-10-4.5-10-10s4.5-10,10-10s10,4.5,10,10S35.5,80,30,80z"/>
	<path d="M10,100c-5.5,0-10-4.5-10-10s4.5-10,10-10s10,4.5,10,10S15.5,100,10,100z"/>
	<path d="M30,120c-5.5,0-10-4.5-10-10s4.5-10,10-10s10,4.5,10,10S35.5,120,30,120z"/>
	<path d="M50,20c-5.5,0-10-4.5-10-10S44.5,0,50,0s10,4.5,10,10S55.5,20,50,20z"/>
	<path d="M70,40c-5.5,0-10-4.5-10-10s4.5-10,10-10s10,4.5,10,10S75.5,40,70,40z"/>
	<path d="M50,60c-5.5,0-10-4.5-10-10s4.5-10,10-10s10,4.5,10,10S55.5,60,50,60z"/>
	<path d="M70,80c-5.5,0-10-4.5-10-10s4.5-10,10-10s10,4.5,10,10S75.5,80,70,80z"/>
	<path d="M50,100c-5.5,0-10-4.5-10-10s4.5-10,10-10s10,4.5,10,10S55.5,100,50,100z"/>
	<path d="M70,120c-5.5,0-10-4.5-10-10s4.5-10,10-10s10,4.5,10,10S75.5,120,70,120z"/>
	<path d="M90,20c-5.5,0-10-4.5-10-10S84.5,0,90,0s10,4.5,10,10S95.5,20,90,20z"/>
	<path d="M110,40c-5.5,0-10-4.5-10-10s4.5-10,10-10s10,4.5,10,10S115.5,40,110,40z"/>
	<path d="M90,60c-5.5,0-10-4.5-10-10s4.5-10,10-10s10,4.5,10,10S95.5,60,90,60z"/>
	<path d="M110,80c-5.5,0-10-4.5-10-10s4.5-10,10-10s10,4.5,10,10S115.5,80,110,80z"/>
	<path d="M90,100c-5.5,0-10-4.5-10-10s4.5-10,10-10s10,4.5,10,10S95.5,100,90,100z"/>
	<path d="M110,120c-5.5,0-10-4.5-10-10s4.5-10,10-10s10,4.5,10,10S115.5,120,110,120z"/>
</g>
</svg>
