<?xml version="1.0" encoding="utf-8"?>
<!-- Generator: Adobe Illustrator 22.0.1, SVG Export Plug-In . SVG Version: 6.00 Build 0)  -->
<svg version="1.1" id="Layer_1" xmlns="http://www.w3.org/2000/svg" xmlns:xlink="http://www.w3.org/1999/xlink" x="0px" y="0px"
	 viewBox="0 0 120 120" style="enable-background:new 0 0 120 120;" xml:space="preserve">
<g id="Layer_3_Copy_Copy_Copy_Copy">
	<g>
		<path d="M110,110H60v-10h50V110z"/>
		<path d="M100,110V60h10v50H100z"/>
		<path d="M90,90H60V80h30V90z"/>
		<path d="M70,70H60V60h10V70z"/>
		<path d="M80,90V60h10v30H80z"/>
	</g>
	<g>
		<path d="M120,0H60v10h60V0z"/>
		<path d="M110,0v60h10V0H110z"/>
		<path d="M100,20H60v10h40V20z"/>
		<path d="M90,20v40h10V20H90z"/>
		<path d="M80,40H60v10h20V40z"/>
		<path d="M70,40v20h10V40H70z"/>
	</g>
	<g>
		<path d="M10,110h50v-10H10V110z"/>
		<path d="M20,110V60H10v50H20z"/>
		<path d="M30,90h30V80H30V90z"/>
		<path d="M50,70h10V60H50V70z"/>
		<path d="M40,90V60H30v30H40z"/>
	</g>
	<g>
		<path d="M0,0h60v10H0V0z"/>
		<path d="M10,0v60H0V0H10z"/>
		<path d="M20,20h40v10H20V20z"/>
		<path d="M30,20v40H20V20H30z"/>
		<path d="M40,40h20v10H40V40z"/>
		<path d="M50,40v20H40V40H50z"/>
	</g>
</g>
</svg>
