<?xml version="1.0" encoding="utf-8"?>
<!-- Generator: Adobe Illustrator 22.0.1, SVG Export Plug-In . SVG Version: 6.00 Build 0)  -->
<svg version="1.1" id="Layer_1" xmlns="http://www.w3.org/2000/svg" xmlns:xlink="http://www.w3.org/1999/xlink" x="0px" y="0px"
	 viewBox="0 0 120 120" style="enable-background:new 0 0 120 120;" xml:space="preserve">
<g id="Layer_1_Copy_Copy_Copy">
	<path d="M70,60h10L60,40v10L70,60z"/>
	<path d="M60,30l30,30h10L60,20V30z"/>
	<path d="M110,60h10L60,0v9.9L110,60z"/>
	<path d="M120,40L80,0H70l50,50V40z"/>
	<path d="M120,30V20L100,0H90L120,30z"/>
	<path d="M120,9.9L110,0h10V9.9z"/>
	<path d="M50,60H40l20-20v10L50,60z"/>
	<path d="M60,30L30,60H20l40-40V30z"/>
	<path d="M10,60H0L60,0v9.9L10,60z"/>
	<path d="M0,40L40,0h10L0,50V40z"/>
	<path d="M0,30V20L20,0h10L0,30z"/>
	<path d="M0,9.9L10,0H0V9.9z"/>
	<path d="M50,60H40l20,20V70L50,60z"/>
	<path d="M60,90L30,60H20l40,40V90z"/>
	<path d="M10,60H0l60,60v-9.9L10,60z"/>
	<path d="M0,80l40,40h10L0,70V80z"/>
	<path d="M0,90v10l20,20h10L0,90z"/>
	<path d="M0,110.1l10,9.9H0V110.1z"/>
	<path d="M70,60h10L60,80V70L70,60z"/>
	<path d="M60,90l30-30h10l-40,40V90z"/>
	<path d="M110,60h10l-60,60v-9.9L110,60z"/>
	<path d="M120,80l-40,40H70l50-50V80z"/>
	<path d="M120,90v10l-20,20H90L120,90z"/>
	<path d="M120,110.1l-10,9.9h10V110.1z"/>
</g>
</svg>
