<?xml version="1.0" encoding="utf-8"?>
<!-- Generator: Adobe Illustrator 22.0.1, SVG Export Plug-In . SVG Version: 6.00 Build 0)  -->
<svg version="1.1" id="Layer_1" xmlns="http://www.w3.org/2000/svg" xmlns:xlink="http://www.w3.org/1999/xlink" x="0px" y="0px"
	 viewBox="0 0 120 120" style="enable-background:new 0 0 120 120;" xml:space="preserve">
<path d="M70,0h10L60,20V10L70,0z"/>
<path d="M60,30L90,0h10L60,40V30z"/>
<path d="M110,0h10L60,60v-9.9L110,0z"/>
<path d="M120,20L80,60H70l50-50V20z"/>
<path d="M120,30v10l-20,20H90L120,30z"/>
<path d="M120,50.1L110,60h10V50.1z"/>
<path d="M50,0H40l20,20V10L50,0z"/>
<path d="M60,30L30,0H20l40,40V30z"/>
<path d="M10,0H0l60,60v-9.9L10,0z"/>
<path d="M0,20l40,40h10L0,10V20z"/>
<path d="M0,30v10l20,20h10L0,30z"/>
<path d="M0,50.1L10,60H0V50.1z"/>
<path d="M50,60H40l20,20V70L50,60z"/>
<path d="M60,90L30,60H20l40,40V90z"/>
<path d="M10,60H0l60,60v-9.9L10,60z"/>
<path d="M0,80l40,40h10L0,70V80z"/>
<path d="M0,90v10l20,20h10L0,90z"/>
<path d="M0,110.1l10,9.9H0V110.1z"/>
<path d="M70,60h10L60,80V70L70,60z"/>
<path d="M60,90l30-30h10l-40,40V90z"/>
<path d="M110,60h10l-60,60v-9.9L110,60z"/>
<path d="M120,80l-40,40H70l50-50V80z"/>
<path d="M120,90v10l-20,20H90L120,90z"/>
<path d="M120,110.1l-10,9.9h10V110.1z"/>
</svg>
