<?xml version="1.0" encoding="UTF-8"?>
<!DOCTYPE svg PUBLIC "-//W3C//DTD SVG 1.1//EN" "http://www.w3.org/Graphics/SVG/1.1/DTD/svg11.dtd">
<svg version="1.1" xmlns="http://www.w3.org/2000/svg" xmlns:xlink="http://www.w3.org/1999/xlink" x="0" y="0" width="120" height="120" viewBox="0, 0, 120, 120">
  <g id="Background">
    <rect x="0" y="0" width="120" height="120" fill="#FFFFFF"/>
  </g>
  <g id="Layer_2" display="none">
    <g>
      <path d="M0,0 L5,0 L5,5 L0,5 z" fill="#FF8080" fill-opacity="0.328"/>
      <path d="M10,0 L15,0 L15,5 L10,5 z" fill="#FF8080" fill-opacity="0.328"/>
      <path d="M20,0 L25,0 L25,5 L20,5 z" fill="#FF8080" fill-opacity="0.328"/>
      <path d="M5,5 L10,5 L10,10 L5,10 z" fill="#FF8080" fill-opacity="0.328"/>
      <path d="M15,5 L20,5 L20,10 L15,10 z" fill="#FF8080" fill-opacity="0.328"/>
      <path d="M25,5 L30,5 L30,10 L25,10 z" fill="#FF8080" fill-opacity="0.328"/>
      <path d="M0,10 L5,10 L5,15 L0,15 z" fill="#FF8080" fill-opacity="0.328"/>
      <path d="M10,10 L15,10 L15,15 L10,15 z" fill="#FF8080" fill-opacity="0.328"/>
      <path d="M20,10 L25,10 L25,15 L20,15 z" fill="#FF8080" fill-opacity="0.328"/>
      <path d="M5,15 L10,15 L10,20 L5,20 z" fill="#FF8080" fill-opacity="0.328"/>
      <path d="M15,15 L20,15 L20,20 L15,20 z" fill="#FF8080" fill-opacity="0.328"/>
      <path d="M25,15 L30,15 L30,20 L25,20 z" fill="#FF8080" fill-opacity="0.328"/>
      <path d="M0,20 L5,20 L5,25 L0,25 z" fill="#FF8080" fill-opacity="0.328"/>
      <path d="M10,20 L15,20 L15,25 L10,25 z" fill="#FF8080" fill-opacity="0.328"/>
      <path d="M20,20 L25,20 L25,25 L20,25 z" fill="#FF8080" fill-opacity="0.328"/>
      <path d="M5,25 L10,25 L10,30 L5,30 z" fill="#FF8080" fill-opacity="0.328"/>
      <path d="M15,25 L20,25 L20,30 L15,30 z" fill="#FF8080" fill-opacity="0.328"/>
      <path d="M25,25 L30,25 L30,30 L25,30 z" fill="#FF8080" fill-opacity="0.328"/>
      <path d="M30,-0 L35,-0 L35,5 L30,5 z" fill="#FF8080" fill-opacity="0.328"/>
      <path d="M40,0 L45,0 L45,5 L40,5 z" fill="#FF8080" fill-opacity="0.328"/>
      <path d="M50,0 L55,0 L55,5 L50,5 z" fill="#FF8080" fill-opacity="0.328"/>
      <path d="M35,5 L40,5 L40,10 L35,10 z" fill="#FF8080" fill-opacity="0.328"/>
      <path d="M45,5 L50,5 L50,10 L45,10 z" fill="#FF8080" fill-opacity="0.328"/>
      <path d="M55,5 L60,5 L60,10 L55,10 z" fill="#FF8080" fill-opacity="0.328"/>
      <path d="M30,10 L35,10 L35,15 L30,15 z" fill="#FF8080" fill-opacity="0.328"/>
      <path d="M40,10 L45,10 L45,15 L40,15 z" fill="#FF8080" fill-opacity="0.328"/>
      <path d="M50,10 L55,10 L55,15 L50,15 z" fill="#FF8080" fill-opacity="0.328"/>
      <path d="M35,15 L40,15 L40,20 L35,20 z" fill="#FF8080" fill-opacity="0.328"/>
      <path d="M45,15 L50,15 L50,20 L45,20 z" fill="#FF8080" fill-opacity="0.328"/>
      <path d="M55,15 L60,15 L60,20 L55,20 z" fill="#FF8080" fill-opacity="0.328"/>
      <path d="M30,20 L35,20 L35,25 L30,25 z" fill="#FF8080" fill-opacity="0.328"/>
      <path d="M40,20 L45,20 L45,25 L40,25 z" fill="#FF8080" fill-opacity="0.328"/>
      <path d="M50,20 L55,20 L55,25 L50,25 z" fill="#FF8080" fill-opacity="0.328"/>
      <path d="M35,25 L40,25 L40,30 L35,30 z" fill="#FF8080" fill-opacity="0.328"/>
      <path d="M45,25 L50,25 L50,30 L45,30 z" fill="#FF8080" fill-opacity="0.328"/>
      <path d="M55,25 L60,25 L60,30 L55,30 z" fill="#FF8080" fill-opacity="0.328"/>
      <path d="M30,30 L35,30 L35,35 L30,35 z" fill="#FF8080" fill-opacity="0.328"/>
      <path d="M40,30 L45,30 L45,35 L40,35 z" fill="#FF8080" fill-opacity="0.328"/>
      <path d="M50,30 L55,30 L55,35 L50,35 z" fill="#FF8080" fill-opacity="0.328"/>
      <path d="M35,35 L40,35 L40,40 L35,40 z" fill="#FF8080" fill-opacity="0.328"/>
      <path d="M45,35 L50,35 L50,40 L45,40 z" fill="#FF8080" fill-opacity="0.328"/>
      <path d="M55,35 L60,35 L60,40 L55,40 z" fill="#FF8080" fill-opacity="0.328"/>
      <path d="M30,40 L35,40 L35,45 L30,45 z" fill="#FF8080" fill-opacity="0.328"/>
      <path d="M40,40 L45,40 L45,45 L40,45 z" fill="#FF8080" fill-opacity="0.328"/>
      <path d="M50,40 L55,40 L55,45 L50,45 z" fill="#FF8080" fill-opacity="0.328"/>
      <path d="M35,45 L40,45 L40,50 L35,50 z" fill="#FF8080" fill-opacity="0.328"/>
      <path d="M45,45 L50,45 L50,50 L45,50 z" fill="#FF8080" fill-opacity="0.328"/>
      <path d="M55,45 L60,45 L60,50 L55,50 z" fill="#FF8080" fill-opacity="0.328"/>
      <path d="M30,50 L35,50 L35,55 L30,55 z" fill="#FF8080" fill-opacity="0.328"/>
      <path d="M40,50 L45,50 L45,55 L40,55 z" fill="#FF8080" fill-opacity="0.328"/>
      <path d="M50,50 L55,50 L55,55 L50,55 z" fill="#FF8080" fill-opacity="0.328"/>
      <path d="M35,55 L40,55 L40,60 L35,60 z" fill="#FF8080" fill-opacity="0.328"/>
      <path d="M45,55 L50,55 L50,60 L45,60 z" fill="#FF8080" fill-opacity="0.328"/>
      <path d="M55,55 L60,55 L60,60 L55,60 z" fill="#FF8080" fill-opacity="0.328"/>
      <path d="M0,30 L5,30 L5,35 L0,35 z" fill="#FF8080" fill-opacity="0.328"/>
      <path d="M10,30 L15,30 L15,35 L10,35 z" fill="#FF8080" fill-opacity="0.328"/>
      <path d="M20,30 L25,30 L25,35 L20,35 z" fill="#FF8080" fill-opacity="0.328"/>
      <path d="M5,35 L10,35 L10,40 L5,40 z" fill="#FF8080" fill-opacity="0.328"/>
      <path d="M15,35 L20,35 L20,40 L15,40 z" fill="#FF8080" fill-opacity="0.328"/>
      <path d="M25,35 L30,35 L30,40 L25,40 z" fill="#FF8080" fill-opacity="0.328"/>
      <path d="M0,40 L5,40 L5,45 L0,45 z" fill="#FF8080" fill-opacity="0.328"/>
      <path d="M10,40 L15,40 L15,45 L10,45 z" fill="#FF8080" fill-opacity="0.328"/>
      <path d="M20,40 L25,40 L25,45 L20,45 z" fill="#FF8080" fill-opacity="0.328"/>
      <path d="M5,45 L10,45 L10,50 L5,50 z" fill="#FF8080" fill-opacity="0.328"/>
      <path d="M15,45 L20,45 L20,50 L15,50 z" fill="#FF8080" fill-opacity="0.328"/>
      <path d="M25,45 L30,45 L30,50 L25,50 z" fill="#FF8080" fill-opacity="0.328"/>
      <path d="M0,50 L5,50 L5,55 L0,55 z" fill="#FF8080" fill-opacity="0.328"/>
      <path d="M10,50 L15,50 L15,55 L10,55 z" fill="#FF8080" fill-opacity="0.328"/>
      <path d="M20,50 L25,50 L25,55 L20,55 z" fill="#FF8080" fill-opacity="0.328"/>
      <path d="M5,55 L10,55 L10,60 L5,60 z" fill="#FF8080" fill-opacity="0.328"/>
      <path d="M15,55 L20,55 L20,60 L15,60 z" fill="#FF8080" fill-opacity="0.328"/>
      <path d="M25,55 L30,55 L30,60 L25,60 z" fill="#FF8080" fill-opacity="0.328"/>
      <path d="M60,0 L65,0 L65,5 L60,5 z" fill="#FF8080" fill-opacity="0.328"/>
      <path d="M70,0 L75,0 L75,5 L70,5 z" fill="#FF8080" fill-opacity="0.328"/>
      <path d="M80,0 L85,0 L85,5 L80,5 z" fill="#FF8080" fill-opacity="0.328"/>
      <path d="M65,5 L70,5 L70,10 L65,10 z" fill="#FF8080" fill-opacity="0.328"/>
      <path d="M75,5 L80,5 L80,10 L75,10 z" fill="#FF8080" fill-opacity="0.328"/>
      <path d="M85,5 L90,5 L90,10 L85,10 z" fill="#FF8080" fill-opacity="0.328"/>
      <path d="M60,10 L65,10 L65,15 L60,15 z" fill="#FF8080" fill-opacity="0.328"/>
      <path d="M70,10 L75,10 L75,15 L70,15 z" fill="#FF8080" fill-opacity="0.328"/>
      <path d="M80,10 L85,10 L85,15 L80,15 z" fill="#FF8080" fill-opacity="0.328"/>
      <path d="M65,15 L70,15 L70,20 L65,20 z" fill="#FF8080" fill-opacity="0.328"/>
      <path d="M75,15 L80,15 L80,20 L75,20 z" fill="#FF8080" fill-opacity="0.328"/>
      <path d="M85,15 L90,15 L90,20 L85,20 z" fill="#FF8080" fill-opacity="0.328"/>
      <path d="M60,20 L65,20 L65,25 L60,25 z" fill="#FF8080" fill-opacity="0.328"/>
      <path d="M70,20 L75,20 L75,25 L70,25 z" fill="#FF8080" fill-opacity="0.328"/>
      <path d="M80,20 L85,20 L85,25 L80,25 z" fill="#FF8080" fill-opacity="0.328"/>
      <path d="M65,25 L70,25 L70,30 L65,30 z" fill="#FF8080" fill-opacity="0.328"/>
      <path d="M75,25 L80,25 L80,30 L75,30 z" fill="#FF8080" fill-opacity="0.328"/>
      <path d="M85,25 L90,25 L90,30 L85,30 z" fill="#FF8080" fill-opacity="0.328"/>
      <path d="M90,0 L95,0 L95,5 L90,5 z" fill="#FF8080" fill-opacity="0.328"/>
      <path d="M100,0 L105,0 L105,5 L100,5 z" fill="#FF8080" fill-opacity="0.328"/>
      <path d="M110,0 L115,0 L115,5 L110,5 z" fill="#FF8080" fill-opacity="0.328"/>
      <path d="M95,5 L100,5 L100,10 L95,10 z" fill="#FF8080" fill-opacity="0.328"/>
      <path d="M105,5 L110,5 L110,10 L105,10 z" fill="#FF8080" fill-opacity="0.328"/>
      <path d="M115,5 L120,5 L120,10 L115,10 z" fill="#FF8080" fill-opacity="0.328"/>
      <path d="M90,10 L95,10 L95,15 L90,15 z" fill="#FF8080" fill-opacity="0.328"/>
      <path d="M100,10 L105,10 L105,15 L100,15 z" fill="#FF8080" fill-opacity="0.328"/>
      <path d="M110,10 L115,10 L115,15 L110,15 z" fill="#FF8080" fill-opacity="0.328"/>
      <path d="M95,15 L100,15 L100,20 L95,20 z" fill="#FF8080" fill-opacity="0.328"/>
      <path d="M105,15 L110,15 L110,20 L105,20 z" fill="#FF8080" fill-opacity="0.328"/>
      <path d="M115,15 L120,15 L120,20 L115,20 z" fill="#FF8080" fill-opacity="0.328"/>
      <path d="M90,20 L95,20 L95,25 L90,25 z" fill="#FF8080" fill-opacity="0.328"/>
      <path d="M100,20 L105,20 L105,25 L100,25 z" fill="#FF8080" fill-opacity="0.328"/>
      <path d="M110,20 L115,20 L115,25 L110,25 z" fill="#FF8080" fill-opacity="0.328"/>
      <path d="M95,25 L100,25 L100,30 L95,30 z" fill="#FF8080" fill-opacity="0.328"/>
      <path d="M105,25 L110,25 L110,30 L105,30 z" fill="#FF8080" fill-opacity="0.328"/>
      <path d="M115,25 L120,25 L120,30 L115,30 z" fill="#FF8080" fill-opacity="0.328"/>
      <path d="M90,30 L95,30 L95,35 L90,35 z" fill="#FF8080" fill-opacity="0.328"/>
      <path d="M100,30 L105,30 L105,35 L100,35 z" fill="#FF8080" fill-opacity="0.328"/>
      <path d="M110,30 L115,30 L115,35 L110,35 z" fill="#FF8080" fill-opacity="0.328"/>
      <path d="M95,35 L100,35 L100,40 L95,40 z" fill="#FF8080" fill-opacity="0.328"/>
      <path d="M105,35 L110,35 L110,40 L105,40 z" fill="#FF8080" fill-opacity="0.328"/>
      <path d="M115,35 L120,35 L120,40 L115,40 z" fill="#FF8080" fill-opacity="0.328"/>
      <path d="M90,40 L95,40 L95,45 L90,45 z" fill="#FF8080" fill-opacity="0.328"/>
      <path d="M100,40 L105,40 L105,45 L100,45 z" fill="#FF8080" fill-opacity="0.328"/>
      <path d="M110,40 L115,40 L115,45 L110,45 z" fill="#FF8080" fill-opacity="0.328"/>
      <path d="M95,45 L100,45 L100,50 L95,50 z" fill="#FF8080" fill-opacity="0.328"/>
      <path d="M105,45 L110,45 L110,50 L105,50 z" fill="#FF8080" fill-opacity="0.328"/>
      <path d="M115,45 L120,45 L120,50 L115,50 z" fill="#FF8080" fill-opacity="0.328"/>
      <path d="M90,50 L95,50 L95,55 L90,55 z" fill="#FF8080" fill-opacity="0.328"/>
      <path d="M100,50 L105,50 L105,55 L100,55 z" fill="#FF8080" fill-opacity="0.328"/>
      <path d="M110,50 L115,50 L115,55 L110,55 z" fill="#FF8080" fill-opacity="0.328"/>
      <path d="M95,55 L100,55 L100,60 L95,60 z" fill="#FF8080" fill-opacity="0.328"/>
      <path d="M105,55 L110,55 L110,60 L105,60 z" fill="#FF8080" fill-opacity="0.328"/>
      <path d="M115,55 L120,55 L120,60 L115,60 z" fill="#FF8080" fill-opacity="0.328"/>
      <path d="M60,30 L65,30 L65,35 L60,35 z" fill="#FF8080" fill-opacity="0.328"/>
      <path d="M70,30 L75,30 L75,35 L70,35 z" fill="#FF8080" fill-opacity="0.328"/>
      <path d="M80,30 L85,30 L85,35 L80,35 z" fill="#FF8080" fill-opacity="0.328"/>
      <path d="M65,35 L70,35 L70,40 L65,40 z" fill="#FF8080" fill-opacity="0.328"/>
      <path d="M75,35 L80,35 L80,40 L75,40 z" fill="#FF8080" fill-opacity="0.328"/>
      <path d="M85,35 L90,35 L90,40 L85,40 z" fill="#FF8080" fill-opacity="0.328"/>
      <path d="M60,40 L65,40 L65,45 L60,45 z" fill="#FF8080" fill-opacity="0.328"/>
      <path d="M70,40 L75,40 L75,45 L70,45 z" fill="#FF8080" fill-opacity="0.328"/>
      <path d="M80,40 L85,40 L85,45 L80,45 z" fill="#FF8080" fill-opacity="0.328"/>
      <path d="M65,45 L70,45 L70,50 L65,50 z" fill="#FF8080" fill-opacity="0.328"/>
      <path d="M75,45 L80,45 L80,50 L75,50 z" fill="#FF8080" fill-opacity="0.328"/>
      <path d="M85,45 L90,45 L90,50 L85,50 z" fill="#FF8080" fill-opacity="0.328"/>
      <path d="M60,50 L65,50 L65,55 L60,55 z" fill="#FF8080" fill-opacity="0.328"/>
      <path d="M70,50 L75,50 L75,55 L70,55 z" fill="#FF8080" fill-opacity="0.328"/>
      <path d="M80,50 L85,50 L85,55 L80,55 z" fill="#FF8080" fill-opacity="0.328"/>
      <path d="M65,55 L70,55 L70,60 L65,60 z" fill="#FF8080" fill-opacity="0.328"/>
      <path d="M75,55 L80,55 L80,60 L75,60 z" fill="#FF8080" fill-opacity="0.328"/>
      <path d="M85,55 L90,55 L90,60 L85,60 z" fill="#FF8080" fill-opacity="0.328"/>
    </g>
    <g>
      <path d="M-0,60 L5,60 L5,65 L-0,65 z" fill="#FF8080" fill-opacity="0.328"/>
      <path d="M10,60 L15,60 L15,65 L10,65 z" fill="#FF8080" fill-opacity="0.328"/>
      <path d="M20,60 L25,60 L25,65 L20,65 z" fill="#FF8080" fill-opacity="0.328"/>
      <path d="M5,65 L10,65 L10,70 L5,70 z" fill="#FF8080" fill-opacity="0.328"/>
      <path d="M15,65 L20,65 L20,70 L15,70 z" fill="#FF8080" fill-opacity="0.328"/>
      <path d="M25,65 L30,65 L30,70 L25,70 z" fill="#FF8080" fill-opacity="0.328"/>
      <path d="M-0,70 L5,70 L5,75 L-0,75 z" fill="#FF8080" fill-opacity="0.328"/>
      <path d="M10,70 L15,70 L15,75 L10,75 z" fill="#FF8080" fill-opacity="0.328"/>
      <path d="M20,70 L25,70 L25,75 L20,75 z" fill="#FF8080" fill-opacity="0.328"/>
      <path d="M5,75 L10,75 L10,80 L5,80 z" fill="#FF8080" fill-opacity="0.328"/>
      <path d="M15,75 L20,75 L20,80 L15,80 z" fill="#FF8080" fill-opacity="0.328"/>
      <path d="M25,75 L30,75 L30,80 L25,80 z" fill="#FF8080" fill-opacity="0.328"/>
      <path d="M-0,80 L5,80 L5,85 L-0,85 z" fill="#FF8080" fill-opacity="0.328"/>
      <path d="M10,80 L15,80 L15,85 L10,85 z" fill="#FF8080" fill-opacity="0.328"/>
      <path d="M20,80 L25,80 L25,85 L20,85 z" fill="#FF8080" fill-opacity="0.328"/>
      <path d="M5,85 L10,85 L10,90 L5,90 z" fill="#FF8080" fill-opacity="0.328"/>
      <path d="M15,85 L20,85 L20,90 L15,90 z" fill="#FF8080" fill-opacity="0.328"/>
      <path d="M25,85 L30,85 L30,90 L25,90 z" fill="#FF8080" fill-opacity="0.328"/>
      <path d="M30,60 L35,60 L35,65 L30,65 z" fill="#FF8080" fill-opacity="0.328"/>
      <path d="M40,60 L45,60 L45,65 L40,65 z" fill="#FF8080" fill-opacity="0.328"/>
      <path d="M50,60 L55,60 L55,65 L50,65 z" fill="#FF8080" fill-opacity="0.328"/>
      <path d="M35,65 L40,65 L40,70 L35,70 z" fill="#FF8080" fill-opacity="0.328"/>
      <path d="M45,65 L50,65 L50,70 L45,70 z" fill="#FF8080" fill-opacity="0.328"/>
      <path d="M55,65 L60,65 L60,70 L55,70 z" fill="#FF8080" fill-opacity="0.328"/>
      <path d="M30,70 L35,70 L35,75 L30,75 z" fill="#FF8080" fill-opacity="0.328"/>
      <path d="M40,70 L45,70 L45,75 L40,75 z" fill="#FF8080" fill-opacity="0.328"/>
      <path d="M50,70 L55,70 L55,75 L50,75 z" fill="#FF8080" fill-opacity="0.328"/>
      <path d="M35,75 L40,75 L40,80 L35,80 z" fill="#FF8080" fill-opacity="0.328"/>
      <path d="M45,75 L50,75 L50,80 L45,80 z" fill="#FF8080" fill-opacity="0.328"/>
      <path d="M55,75 L60,75 L60,80 L55,80 z" fill="#FF8080" fill-opacity="0.328"/>
      <path d="M30,80 L35,80 L35,85 L30,85 z" fill="#FF8080" fill-opacity="0.328"/>
      <path d="M40,80 L45,80 L45,85 L40,85 z" fill="#FF8080" fill-opacity="0.328"/>
      <path d="M50,80 L55,80 L55,85 L50,85 z" fill="#FF8080" fill-opacity="0.328"/>
      <path d="M35,85 L40,85 L40,90 L35,90 z" fill="#FF8080" fill-opacity="0.328"/>
      <path d="M45,85 L50,85 L50,90 L45,90 z" fill="#FF8080" fill-opacity="0.328"/>
      <path d="M55,85 L60,85 L60,90 L55,90 z" fill="#FF8080" fill-opacity="0.328"/>
      <path d="M30,90 L35,90 L35,95 L30,95 z" fill="#FF8080" fill-opacity="0.328"/>
      <path d="M40,90 L45,90 L45,95 L40,95 z" fill="#FF8080" fill-opacity="0.328"/>
      <path d="M50,90 L55,90 L55,95 L50,95 z" fill="#FF8080" fill-opacity="0.328"/>
      <path d="M35,95 L40,95 L40,100 L35,100 z" fill="#FF8080" fill-opacity="0.328"/>
      <path d="M45,95 L50,95 L50,100 L45,100 z" fill="#FF8080" fill-opacity="0.328"/>
      <path d="M55,95 L60,95 L60,100 L55,100 z" fill="#FF8080" fill-opacity="0.328"/>
      <path d="M30,100 L35,100 L35,105 L30,105 z" fill="#FF8080" fill-opacity="0.328"/>
      <path d="M40,100 L45,100 L45,105 L40,105 z" fill="#FF8080" fill-opacity="0.328"/>
      <path d="M50,100 L55,100 L55,105 L50,105 z" fill="#FF8080" fill-opacity="0.328"/>
      <path d="M35,105 L40,105 L40,110 L35,110 z" fill="#FF8080" fill-opacity="0.328"/>
      <path d="M45,105 L50,105 L50,110 L45,110 z" fill="#FF8080" fill-opacity="0.328"/>
      <path d="M55,105 L60,105 L60,110 L55,110 z" fill="#FF8080" fill-opacity="0.328"/>
      <path d="M30,110 L35,110 L35,115 L30,115 z" fill="#FF8080" fill-opacity="0.328"/>
      <path d="M40,110 L45,110 L45,115 L40,115 z" fill="#FF8080" fill-opacity="0.328"/>
      <path d="M50,110 L55,110 L55,115 L50,115 z" fill="#FF8080" fill-opacity="0.328"/>
      <path d="M35,115 L40,115 L40,120 L35,120 z" fill="#FF8080" fill-opacity="0.328"/>
      <path d="M45,115 L50,115 L50,120 L45,120 z" fill="#FF8080" fill-opacity="0.328"/>
      <path d="M55,115 L60,115 L60,120 L55,120 z" fill="#FF8080" fill-opacity="0.328"/>
      <path d="M-0,90 L5,90 L5,95 L-0,95 z" fill="#FF8080" fill-opacity="0.328"/>
      <path d="M10,90 L15,90 L15,95 L10,95 z" fill="#FF8080" fill-opacity="0.328"/>
      <path d="M20,90 L25,90 L25,95 L20,95 z" fill="#FF8080" fill-opacity="0.328"/>
      <path d="M5,95 L10,95 L10,100 L5,100 z" fill="#FF8080" fill-opacity="0.328"/>
      <path d="M15,95 L20,95 L20,100 L15,100 z" fill="#FF8080" fill-opacity="0.328"/>
      <path d="M25,95 L30,95 L30,100 L25,100 z" fill="#FF8080" fill-opacity="0.328"/>
      <path d="M-0,100 L5,100 L5,105 L-0,105 z" fill="#FF8080" fill-opacity="0.328"/>
      <path d="M10,100 L15,100 L15,105 L10,105 z" fill="#FF8080" fill-opacity="0.328"/>
      <path d="M20,100 L25,100 L25,105 L20,105 z" fill="#FF8080" fill-opacity="0.328"/>
      <path d="M5,105 L10,105 L10,110 L5,110 z" fill="#FF8080" fill-opacity="0.328"/>
      <path d="M15,105 L20,105 L20,110 L15,110 z" fill="#FF8080" fill-opacity="0.328"/>
      <path d="M25,105 L30,105 L30,110 L25,110 z" fill="#FF8080" fill-opacity="0.328"/>
      <path d="M-0,110 L5,110 L5,115 L-0,115 z" fill="#FF8080" fill-opacity="0.328"/>
      <path d="M10,110 L15,110 L15,115 L10,115 z" fill="#FF8080" fill-opacity="0.328"/>
      <path d="M20,110 L25,110 L25,115 L20,115 z" fill="#FF8080" fill-opacity="0.328"/>
      <path d="M5,115 L10,115 L10,120 L5,120 z" fill="#FF8080" fill-opacity="0.328"/>
      <path d="M15,115 L20,115 L20,120 L15,120 z" fill="#FF8080" fill-opacity="0.328"/>
      <path d="M25,115 L30,115 L30,120 L25,120 z" fill="#FF8080" fill-opacity="0.328"/>
      <path d="M60,60 L65,60 L65,65 L60,65 z" fill="#FF8080" fill-opacity="0.328"/>
      <path d="M70,60 L75,60 L75,65 L70,65 z" fill="#FF8080" fill-opacity="0.328"/>
      <path d="M80,60 L85,60 L85,65 L80,65 z" fill="#FF8080" fill-opacity="0.328"/>
      <path d="M65,65 L70,65 L70,70 L65,70 z" fill="#FF8080" fill-opacity="0.328"/>
      <path d="M75,65 L80,65 L80,70 L75,70 z" fill="#FF8080" fill-opacity="0.328"/>
      <path d="M85,65 L90,65 L90,70 L85,70 z" fill="#FF8080" fill-opacity="0.328"/>
      <path d="M60,70 L65,70 L65,75 L60,75 z" fill="#FF8080" fill-opacity="0.328"/>
      <path d="M70,70 L75,70 L75,75 L70,75 z" fill="#FF8080" fill-opacity="0.328"/>
      <path d="M80,70 L85,70 L85,75 L80,75 z" fill="#FF8080" fill-opacity="0.328"/>
      <path d="M65,75 L70,75 L70,80 L65,80 z" fill="#FF8080" fill-opacity="0.328"/>
      <path d="M75,75 L80,75 L80,80 L75,80 z" fill="#FF8080" fill-opacity="0.328"/>
      <path d="M85,75 L90,75 L90,80 L85,80 z" fill="#FF8080" fill-opacity="0.328"/>
      <path d="M60,80 L65,80 L65,85 L60,85 z" fill="#FF8080" fill-opacity="0.328"/>
      <path d="M70,80 L75,80 L75,85 L70,85 z" fill="#FF8080" fill-opacity="0.328"/>
      <path d="M80,80 L85,80 L85,85 L80,85 z" fill="#FF8080" fill-opacity="0.328"/>
      <path d="M65,85 L70,85 L70,90 L65,90 z" fill="#FF8080" fill-opacity="0.328"/>
      <path d="M75,85 L80,85 L80,90 L75,90 z" fill="#FF8080" fill-opacity="0.328"/>
      <path d="M85,85 L90,85 L90,90 L85,90 z" fill="#FF8080" fill-opacity="0.328"/>
      <path d="M90,60 L95,60 L95,65 L90,65 z" fill="#FF8080" fill-opacity="0.328"/>
      <path d="M100,60 L105,60 L105,65 L100,65 z" fill="#FF8080" fill-opacity="0.328"/>
      <path d="M110,60 L115,60 L115,65 L110,65 z" fill="#FF8080" fill-opacity="0.328"/>
      <path d="M95,65 L100,65 L100,70 L95,70 z" fill="#FF8080" fill-opacity="0.328"/>
      <path d="M105,65 L110,65 L110,70 L105,70 z" fill="#FF8080" fill-opacity="0.328"/>
      <path d="M115,65 L120,65 L120,70 L115,70 z" fill="#FF8080" fill-opacity="0.328"/>
      <path d="M90,70 L95,70 L95,75 L90,75 z" fill="#FF8080" fill-opacity="0.328"/>
      <path d="M100,70 L105,70 L105,75 L100,75 z" fill="#FF8080" fill-opacity="0.328"/>
      <path d="M110,70 L115,70 L115,75 L110,75 z" fill="#FF8080" fill-opacity="0.328"/>
      <path d="M95,75 L100,75 L100,80 L95,80 z" fill="#FF8080" fill-opacity="0.328"/>
      <path d="M105,75 L110,75 L110,80 L105,80 z" fill="#FF8080" fill-opacity="0.328"/>
      <path d="M115,75 L120,75 L120,80 L115,80 z" fill="#FF8080" fill-opacity="0.328"/>
      <path d="M90,80 L95,80 L95,85 L90,85 z" fill="#FF8080" fill-opacity="0.328"/>
      <path d="M100,80 L105,80 L105,85 L100,85 z" fill="#FF8080" fill-opacity="0.328"/>
      <path d="M110,80 L115,80 L115,85 L110,85 z" fill="#FF8080" fill-opacity="0.328"/>
      <path d="M95,85 L100,85 L100,90 L95,90 z" fill="#FF8080" fill-opacity="0.328"/>
      <path d="M105,85 L110,85 L110,90 L105,90 z" fill="#FF8080" fill-opacity="0.328"/>
      <path d="M115,85 L120,85 L120,90 L115,90 z" fill="#FF8080" fill-opacity="0.328"/>
      <path d="M90,90 L95,90 L95,95 L90,95 z" fill="#FF8080" fill-opacity="0.328"/>
      <path d="M100,90 L105,90 L105,95 L100,95 z" fill="#FF8080" fill-opacity="0.328"/>
      <path d="M110,90 L115,90 L115,95 L110,95 z" fill="#FF8080" fill-opacity="0.328"/>
      <path d="M95,95 L100,95 L100,100 L95,100 z" fill="#FF8080" fill-opacity="0.328"/>
      <path d="M105,95 L110,95 L110,100 L105,100 z" fill="#FF8080" fill-opacity="0.328"/>
      <path d="M115,95 L120,95 L120,100 L115,100 z" fill="#FF8080" fill-opacity="0.328"/>
      <path d="M90,100 L95,100 L95,105 L90,105 z" fill="#FF8080" fill-opacity="0.328"/>
      <path d="M100,100 L105,100 L105,105 L100,105 z" fill="#FF8080" fill-opacity="0.328"/>
      <path d="M110,100 L115,100 L115,105 L110,105 z" fill="#FF8080" fill-opacity="0.328"/>
      <path d="M95,105 L100,105 L100,110 L95,110 z" fill="#FF8080" fill-opacity="0.328"/>
      <path d="M105,105 L110,105 L110,110 L105,110 z" fill="#FF8080" fill-opacity="0.328"/>
      <path d="M115,105 L120,105 L120,110 L115,110 z" fill="#FF8080" fill-opacity="0.328"/>
      <path d="M90,110 L95,110 L95,115 L90,115 z" fill="#FF8080" fill-opacity="0.328"/>
      <path d="M100,110 L105,110 L105,115 L100,115 z" fill="#FF8080" fill-opacity="0.328"/>
      <path d="M110,110 L115,110 L115,115 L110,115 z" fill="#FF8080" fill-opacity="0.328"/>
      <path d="M95,115 L100,115 L100,120 L95,120 z" fill="#FF8080" fill-opacity="0.328"/>
      <path d="M105,115 L110,115 L110,120 L105,120 z" fill="#FF8080" fill-opacity="0.328"/>
      <path d="M115,115 L120,115 L120,120 L115,120 z" fill="#FF8080" fill-opacity="0.328"/>
      <path d="M60,90 L65,90 L65,95 L60,95 z" fill="#FF8080" fill-opacity="0.328"/>
      <path d="M70,90 L75,90 L75,95 L70,95 z" fill="#FF8080" fill-opacity="0.328"/>
      <path d="M80,90 L85,90 L85,95 L80,95 z" fill="#FF8080" fill-opacity="0.328"/>
      <path d="M65,95 L70,95 L70,100 L65,100 z" fill="#FF8080" fill-opacity="0.328"/>
      <path d="M75,95 L80,95 L80,100 L75,100 z" fill="#FF8080" fill-opacity="0.328"/>
      <path d="M85,95 L90,95 L90,100 L85,100 z" fill="#FF8080" fill-opacity="0.328"/>
      <path d="M60,100 L65,100 L65,105 L60,105 z" fill="#FF8080" fill-opacity="0.328"/>
      <path d="M70,100 L75,100 L75,105 L70,105 z" fill="#FF8080" fill-opacity="0.328"/>
      <path d="M80,100 L85,100 L85,105 L80,105 z" fill="#FF8080" fill-opacity="0.328"/>
      <path d="M65,105 L70,105 L70,110 L65,110 z" fill="#FF8080" fill-opacity="0.328"/>
      <path d="M75,105 L80,105 L80,110 L75,110 z" fill="#FF8080" fill-opacity="0.328"/>
      <path d="M85,105 L90,105 L90,110 L85,110 z" fill="#FF8080" fill-opacity="0.328"/>
      <path d="M60,110 L65,110 L65,115 L60,115 z" fill="#FF8080" fill-opacity="0.328"/>
      <path d="M70,110 L75,110 L75,115 L70,115 z" fill="#FF8080" fill-opacity="0.328"/>
      <path d="M80,110 L85,110 L85,115 L80,115 z" fill="#FF8080" fill-opacity="0.328"/>
      <path d="M65,115 L70,115 L70,120 L65,120 z" fill="#FF8080" fill-opacity="0.328"/>
      <path d="M75,115 L80,115 L80,120 L75,120 z" fill="#FF8080" fill-opacity="0.328"/>
      <path d="M85,115 L90,115 L90,120 L85,120 z" fill="#FF8080" fill-opacity="0.328"/>
    </g>
  </g>
  <g id="Layer_1" display="none">
    <path d="M10,0 L20,0 L0,20 L0,10 L10,0 z" fill="#000000"/>
    <path d="M0,30 L30,0 L40,0 L0,40 L0,30 z" fill="#000000"/>
    <path d="M50,0 L60,0 L0,60 L0,50.056 L50,0 z" fill="#000000"/>
    <path d="M60,20 L20,60 L10,60 L60,10 L60,20 z" fill="#000000"/>
    <path d="M60,30 L60,40 L40,60 L30,60 L60,30 z" fill="#000000"/>
    <path d="M60,50.056 L50,60 L60,60 L60,50.056 z" fill="#000000"/>
    <path d="M70,-0 L80,-0 L60,20 L60,10 L70,-0 z" fill="#000000"/>
    <path d="M60,30 L90,-0 L100,-0 L60,40 L60,30 z" fill="#000000"/>
    <path d="M110,-0 L120,-0 L60,60 L60,50.056 L110,-0 z" fill="#000000"/>
    <path d="M120,20 L80,60 L70,60 L120,10 L120,20 z" fill="#000000"/>
    <path d="M120,30 L120,40 L100,60 L90,60 L120,30 z" fill="#000000"/>
    <path d="M120,50.056 L110,60 L120,60 L120,50.056 z" fill="#000000"/>
    <path d="M70,60 L80,60 L60,80 L60,70 L70,60 z" fill="#000000"/>
    <path d="M60,90 L90,60 L100,60 L60,100 L60,90 z" fill="#000000"/>
    <path d="M110,60 L120,60 L60,120 L60,110.056 L110,60 z" fill="#000000"/>
    <path d="M120,80 L80,120 L70,120 L120,70 L120,80 z" fill="#000000"/>
    <path d="M120,90 L120,100 L100,120 L90,120 L120,90 z" fill="#000000"/>
    <path d="M120,110.056 L110,120 L120,120 L120,110.056 z" fill="#000000"/>
    <path d="M10,60 L20,60 L-0,80 L-0,70 L10,60 z" fill="#000000"/>
    <path d="M-0,90 L30,60 L40,60 L-0,100 L-0,90 z" fill="#000000"/>
    <path d="M50,60 L60,60 L-0,120 L-0,110.056 L50,60 z" fill="#000000"/>
    <path d="M60,80 L20,120 L10,120 L60,70 L60,80 z" fill="#000000"/>
    <path d="M60,90 L60,100 L40,120 L30,120 L60,90 z" fill="#000000"/>
    <path d="M60,110.056 L50,120 L60,120 L60,110.056 z" fill="#000000"/>
  </g>
  <g id="Layer_1_Copy" display="none">
    <path d="M110,0 L100,0 L120,20 L120,10 L110,0 z" fill="#000000"/>
    <path d="M120,30 L90,0 L80,0 L120,40 L120,30 z" fill="#000000"/>
    <path d="M70,0 L60,0 L120,60 L120,50.056 L70,0 z" fill="#000000"/>
    <path d="M60,20 L100,60 L110,60 L60,10 L60,20 z" fill="#000000"/>
    <path d="M60,30 L60,40 L80,60 L90,60 L60,30 z" fill="#000000"/>
    <path d="M60,50.056 L70,60 L60,60 L60,50.056 z" fill="#000000"/>
    <path d="M50,-0 L40,-0 L60,20 L60,10 L50,-0 z" fill="#000000"/>
    <path d="M60,30 L30,-0 L20,-0 L60,40 L60,30 z" fill="#000000"/>
    <path d="M10,-0 L-0,-0 L60,60 L60,50.056 L10,-0 z" fill="#000000"/>
    <path d="M-0,20 L40,60 L50,60 L-0,10 L-0,20 z" fill="#000000"/>
    <path d="M-0,30 L-0,40 L20,60 L30,60 L-0,30 z" fill="#000000"/>
    <path d="M0,50.056 L10,60 L0,60 L0,50.056 z" fill="#000000"/>
    <path d="M50,60 L40,60 L60,80 L60,70 L50,60 z" fill="#000000"/>
    <path d="M60,90 L30,60 L20,60 L60,100 L60,90 z" fill="#000000"/>
    <path d="M10,60 L-0,60 L60,120 L60,110.056 L10,60 z" fill="#000000"/>
    <path d="M-0,80 L40,120 L50,120 L-0,70 L-0,80 z" fill="#000000"/>
    <path d="M-0,90 L-0,100 L20,120 L30,120 L-0,90 z" fill="#000000"/>
    <path d="M0,110.056 L10,120 L0,120 L0,110.056 z" fill="#000000"/>
    <path d="M110,60 L100,60 L120,80 L120,70 L110,60 z" fill="#000000"/>
    <path d="M120,90 L90,60 L80,60 L120,100 L120,90 z" fill="#000000"/>
    <path d="M70,60 L60,60 L120,120 L120,110.056 L70,60 z" fill="#000000"/>
    <path d="M60,80 L100,120 L110,120 L60,70 L60,80 z" fill="#000000"/>
    <path d="M60,90 L60,100 L80,120 L90,120 L60,90 z" fill="#000000"/>
    <path d="M60,110.056 L70,120 L60,120 L60,110.056 z" fill="#000000"/>
  </g>
  <g id="Layer_1_Copy_Copy">
    <path d="M70,-0 L80,-0 L60,20 L60,10 L70,-0 z" fill="#000000"/>
    <path d="M60,30 L90,-0 L100,-0 L60,40 L60,30 z" fill="#000000"/>
    <path d="M110,0 L120,0 L60,60 L60,50.056 L110,0 z" fill="#000000"/>
    <path d="M120,20 L80,60 L70,60 L120,10 L120,20 z" fill="#000000"/>
    <path d="M120,30 L120,40 L100,60 L90,60 L120,30 z" fill="#000000"/>
    <path d="M120,50.056 L110,60 L120,60 L120,50.056 z" fill="#000000"/>
    <path d="M50,-0 L40,-0 L60,20 L60,10 L50,-0 z" fill="#000000"/>
    <path d="M60,30 L30,-0 L20,-0 L60,40 L60,30 z" fill="#000000"/>
    <path d="M10,-0 L-0,-0 L60,60 L60,50.056 L10,-0 z" fill="#000000"/>
    <path d="M-0,20 L40,60 L50,60 L-0,10 L-0,20 z" fill="#000000"/>
    <path d="M-0,30 L-0,40 L20,60 L30,60 L-0,30 z" fill="#000000"/>
    <path d="M0,50.056 L10,60 L0,60 L0,50.056 z" fill="#000000"/>
    <path d="M50,60 L40,60 L60,80 L60,70 L50,60 z" fill="#000000"/>
    <path d="M60,90 L30,60 L20,60 L60,100 L60,90 z" fill="#000000"/>
    <path d="M10,60 L-0,60 L60,120 L60,110.056 L10,60 z" fill="#000000"/>
    <path d="M-0,80 L40,120 L50,120 L-0,70 L-0,80 z" fill="#000000"/>
    <path d="M-0,90 L-0,100 L20,120 L30,120 L-0,90 z" fill="#000000"/>
    <path d="M0,110.056 L10,120 L0,120 L0,110.056 z" fill="#000000"/>
    <path d="M70,60 L80,60 L60,80 L60,70 L70,60 z" fill="#000000"/>
    <path d="M60,90 L90,60 L100,60 L60,100 L60,90 z" fill="#000000"/>
    <path d="M110,60 L120,60 L60,120 L60,110.056 L110,60 z" fill="#000000"/>
    <path d="M120,80 L80,120 L70,120 L120,70 L120,80 z" fill="#000000"/>
    <path d="M120,90 L120,100 L100,120 L90,120 L120,90 z" fill="#000000"/>
    <path d="M120,110.056 L110,120 L120,120 L120,110.056 z" fill="#000000"/>
  </g>
</svg>
