<?xml version="1.0" standalone="no"?>
<!DOCTYPE svg PUBLIC "-//W3C//DTD SVG 1.1//EN" "http://www.w3.org/Graphics/SVG/1.1/DTD/svg11.dtd" >
<svg xmlns="http://www.w3.org/2000/svg">
<metadata></metadata>
<defs>
<font id="knileblack_italic" horiz-adv-x="1400" >
<font-face units-per-em="2048" ascent="1536" descent="-512" />
<missing-glyph horiz-adv-x="487" />
<glyph unicode=" "  horiz-adv-x="487" />
<glyph unicode="&#x09;" horiz-adv-x="487" />
<glyph unicode="&#xa0;" horiz-adv-x="487" />
<glyph unicode="!" horiz-adv-x="745" d="M90 207q0 93 69 161t165 68t164.5 -68t68.5 -161q0 -97 -68 -165.5t-165 -68.5t-165.5 68.5t-68.5 165.5zM211 528l80 953h502l-258 -953h-324z" />
<glyph unicode="&#x22;" horiz-adv-x="1026" d="M213 885l61 596h349l-144 -596h-266zM676 885l63 596h346l-143 -596h-266z" />
<glyph unicode="#" horiz-adv-x="1501" d="M45 371v239h274l95 236h-183v239h275l135 349h324l-136 -349h189l137 349h324l-136 -349h183v-239h-275l-92 -236h182v-239h-274l-145 -371h-324l143 371h-188l-145 -371h-324l145 371h-184zM645 610h189l94 236h-191z" />
<glyph unicode="$" horiz-adv-x="1300" d="M33 47l80 449h290l-34 -197q98 -45 215 -45q73 0 121.5 38.5t48.5 104.5q0 45 -30.5 82t-79 64.5t-107.5 55t-117.5 62t-107 76.5t-79 107t-30.5 145q0 131 71.5 236.5t184 164.5t246.5 72l30 176h223l-32 -184q176 -23 364 -84l-71 -397h-291l30 164q-90 55 -186 55 q-58 0 -95.5 -35.5t-37.5 -91.5q0 -42 30.5 -75.5t79.5 -57.5t108.5 -49t118.5 -57.5t108 -73.5t79.5 -107t30.5 -149q0 -151 -71.5 -268t-189.5 -181t-265 -74l-33 -184h-225l32 188q-197 17 -409 70z" />
<glyph unicode="%" horiz-adv-x="1787" d="M92 0l1288 1434h377l-1290 -1434h-375zM139 1040q0 184 115.5 302t306.5 118q153 0 240.5 -77.5t87.5 -202.5q0 -187 -115 -305.5t-309 -118.5q-153 0 -239.5 78t-86.5 206zM426 1040q0 -98 57 -98q37 0 65 40t41 93t13 105q0 43 -15.5 68.5t-45.5 25.5q-37 0 -64 -39.5 t-39 -91t-12 -103.5zM963 256q0 184 115 302t306 118q154 0 242 -77.5t88 -203.5q0 -187 -115.5 -305.5t-308.5 -118.5q-154 0 -240.5 78t-86.5 207zM1249 256q0 -43 15 -70.5t43 -27.5q37 0 65 40t40.5 93t12.5 104q0 43 -15.5 68.5t-43.5 25.5q-37 0 -64.5 -38.5 t-40 -90.5t-12.5 -104z" />
<glyph unicode="&#x26;" horiz-adv-x="1542" d="M18 379q0 149 105 264t278 172q-92 137 -92 256q0 109 67 199.5t176.5 140t235.5 49.5q262 0 498 -114l-61 -347h-291l29 160q-67 29 -121 29q-44 0 -75.5 -29.5t-31.5 -73.5q0 -59 56 -135l247 -321q30 86 41 159h447l-43 -237h-117q-60 -113 -123 -189l98 -124h109 l-43 -238l-408 -2l-65 88q-202 -113 -391 -113q-237 0 -381 115.5t-144 290.5zM463 412q0 -60 48 -102t120 -42q77 0 147 33l-215 293q-45 -32 -72.5 -80t-27.5 -102z" />
<glyph unicode="'" horiz-adv-x="524" d="M90 844q143 140 143 332q0 100 -51 184l348 168q64 -107 64 -215q0 -159 -105 -300.5t-292 -275.5z" />
<glyph unicode="(" horiz-adv-x="735" d="M70 457q0 315 187.5 611t487.5 491l148 -134q-210 -219 -328.5 -468t-118.5 -511q0 -335 168 -604l-188 -129q-164 153 -260 345t-96 399z" />
<glyph unicode=")" horiz-adv-x="735" d="M-121 -152q210 219 328.5 468t118.5 511q0 336 -168 605l188 129q164 -153 260 -345t96 -399q0 -315 -187.5 -611t-487.5 -491z" />
<glyph unicode="*" horiz-adv-x="999" d="M145 981l269 86l-236 92l180 232l160 -183l6 273h281l-100 -258l233 176l104 -246l-270 -98l236 -80l-181 -234l-159 181l-6 -271h-281l96 256l-227 -172z" />
<glyph unicode="+" horiz-adv-x="1214" d="M131 479v320h324v344h344v-344h321v-320h-321v-348h-344v348h-324z" />
<glyph unicode="," horiz-adv-x="622" d="M-45 -231q143 140 143 331q0 101 -51 185l348 168q64 -107 64 -215q0 -159 -105 -300.5t-293 -275.5z" />
<glyph unicode="-" horiz-adv-x="743" d="M68 451l61 344h580l-60 -344h-581z" />
<glyph unicode="." horiz-adv-x="706" d="M51 215q0 97 75 168.5t175 71.5q99 0 170.5 -71.5t71.5 -168.5q0 -99 -71.5 -170.5t-170.5 -71.5q-100 0 -175 72t-75 170z" />
<glyph unicode="/" horiz-adv-x="983" d="M-137 -221l932 1757h364l-932 -1757h-364z" />
<glyph unicode="0" horiz-adv-x="1366" d="M106 479q0 207 47 383t135.5 307.5t226.5 206t310 74.5q251 0 376.5 -125.5t125.5 -361.5q0 -164 -29.5 -311.5t-89.5 -270t-145 -212t-201.5 -139.5t-253.5 -50q-250 0 -376 129.5t-126 369.5zM543 471q0 -197 96 -197q56 0 105.5 71.5t80.5 178t48.5 223t17.5 214.5 q0 194 -98 194q-58 0 -107 -70t-79 -176.5t-47 -222t-17 -215.5z" />
<glyph unicode="1" horiz-adv-x="962" d="M59 0l45 248h183l145 817l-188 -145l-156 202l451 312h379l-209 -1186h155l-45 -248h-760z" />
<glyph unicode="2" horiz-adv-x="1191" d="M-37 0l23 131q18 102 70 197t119.5 167t145 138.5t151.5 122t134.5 105.5t97.5 101t37 99q0 45 -27 74.5t-71 29.5q-61 0 -107 -58.5t-69 -152.5l-334 115q71 177 225.5 282t366.5 105q200 0 330.5 -112.5t130.5 -272.5q0 -86 -29.5 -160.5t-80 -131t-112.5 -106.5 t-131.5 -97t-132.5 -92.5t-120.5 -103.5t-90.5 -120h271l28 158h318l-76 -418h-1067z" />
<glyph unicode="3" horiz-adv-x="1185" d="M-43 307l334 137q15 -79 66.5 -130.5t121.5 -51.5q84 0 139.5 61t55.5 148q0 86 -59.5 136t-151.5 50h-88l41 224q143 9 237.5 62.5t94.5 127.5q0 52 -32 83.5t-85 31.5q-62 0 -110 -41t-75 -98l-315 167q242 252 557 252q131 0 239.5 -42.5t174 -123.5t65.5 -186 q0 -129 -106.5 -216t-296.5 -110q162 -12 258 -94t96 -225q0 -107 -55.5 -201t-146.5 -158.5t-209 -101.5t-242 -37q-197 0 -323.5 88.5t-184.5 247.5z" />
<glyph unicode="4" horiz-adv-x="1261" d="M-4 399l39 224l743 811h424l-139 -789h160l-43 -246h-160l-29 -155h160l-43 -244h-735l43 244h170l28 155h-618zM369 645h288l74 402z" />
<glyph unicode="5" horiz-adv-x="1234" d="M-4 299l336 141q18 -73 70.5 -125.5t117.5 -52.5q98 0 154.5 67.5t56.5 172.5q0 74 -42 121t-111 47q-92 0 -160 -80l-279 94l191 750h891l-66 -371h-317l18 106h-229l-74 -270q85 62 205 62q175 0 296.5 -124.5t121.5 -297.5q0 -171 -90 -302t-240.5 -198.5 t-335.5 -67.5q-192 0 -321 86.5t-193 241.5z" />
<glyph unicode="6" horiz-adv-x="1329" d="M104 483q0 209 54 387.5t154 309.5t250 205.5t333 74.5q225 0 414 -94l-170 -270q-126 75 -258 75q-110 0 -191 -102t-102 -256q44 60 114 97.5t154 37.5q172 0 284.5 -111t112.5 -280q0 -177 -84 -311.5t-229 -204.5t-330 -70q-241 0 -373.5 132t-132.5 380zM524 416 q0 -67 30.5 -110.5t84.5 -43.5q56 0 96.5 41.5t58 100t17.5 124.5q0 61 -28.5 97.5t-84.5 36.5q-78 0 -126 -74t-48 -172z" />
<glyph unicode="7" horiz-adv-x="1157" d="M84 975l82 459h1143l-47 -269q-486 -467 -637 -1165h-443q159 702 621 1174h-359l-34 -199h-326z" />
<glyph unicode="8" horiz-adv-x="1306" d="M61 369q0 151 108 254.5t280 138.5q-107 37 -170.5 106t-63.5 160q0 93 46.5 173.5t124.5 136t182 87t218 31.5q201 0 336 -98t135 -246q0 -128 -92 -219.5t-237 -128.5q122 -24 201 -102t79 -185q0 -149 -87 -266t-231.5 -178.5t-318.5 -61.5q-217 0 -363.5 116.5 t-146.5 281.5zM487 389q0 -62 28.5 -98.5t82.5 -36.5q81 0 128.5 65.5t49.5 155.5q0 62 -31 99.5t-83 37.5q-72 0 -123.5 -60.5t-51.5 -162.5zM621 1010q0 -49 24 -81t66 -32q59 0 100 52.5t41 127.5q0 45 -24.5 73t-69.5 28q-61 0 -99 -48t-38 -120z" />
<glyph unicode="9" horiz-adv-x="1314" d="M76 72l178 270q118 -82 250 -82q116 0 192 106.5t99 278.5q-42 -58 -116.5 -94.5t-158.5 -36.5q-159 0 -269 114t-110 277q0 120 48 223.5t131.5 176t201 114t252.5 41.5q246 0 373 -127t127 -370q0 -168 -31 -316.5t-94.5 -272.5t-154 -213.5t-216.5 -139.5t-276 -50 q-123 0 -235.5 27t-190.5 74zM580 924q0 -58 28 -92.5t80 -34.5q73 0 121.5 67.5t48.5 165.5q0 60 -32 100.5t-83 40.5q-79 0 -121 -74t-42 -173z" />
<glyph unicode=":" horiz-adv-x="724" d="M72 215q0 97 75 168.5t175 71.5q99 0 170 -71.5t71 -168.5q0 -99 -71 -170.5t-170 -71.5q-100 0 -175 72t-75 170zM166 872q0 97 75 168.5t175 71.5q99 0 170 -71.5t71 -168.5q0 -99 -71 -170t-170 -71q-100 0 -175 71.5t-75 169.5z" />
<glyph unicode=";" horiz-adv-x="690" d="M-20 -231q143 140 143 331q0 101 -51 185l348 168q63 -105 63 -215q0 -159 -105 -300.5t-292 -275.5zM152 872q0 97 74.5 168.5t174.5 71.5q99 0 170.5 -71.5t71.5 -168.5q0 -98 -71.5 -169.5t-170.5 -71.5q-100 0 -174.5 71.5t-74.5 169.5z" />
<glyph unicode="&#x3c;" horiz-adv-x="1177" d="M125 498v286l915 408v-352l-536 -199l536 -199v-352z" />
<glyph unicode="=" horiz-adv-x="1312" d="M178 223v318h989v-318h-989zM178 725v319h989v-319h-989z" />
<glyph unicode="&#x3e;" horiz-adv-x="1179" d="M176 90v352l537 199l-537 199v352l916 -408v-286z" />
<glyph unicode="?" horiz-adv-x="1069" d="M72 1141q79 169 231.5 262.5t370.5 93.5q202 0 334.5 -105.5t132.5 -265.5q0 -58 -24 -113.5t-63.5 -98.5t-87 -83.5t-96.5 -75t-90 -65t-70 -62t-34 -59.5l-8 -41h-371l14 88q12 64 54 125t93 106.5t100.5 88.5t82.5 88t33 88q0 38 -23 62t-63 24q-114 0 -152 -182z M211 207q0 92 69 159.5t164 67.5q96 0 165 -67t69 -160q0 -97 -68.5 -165.5t-165.5 -68.5q-96 0 -164.5 68.5t-68.5 165.5z" />
<glyph unicode="@" horiz-adv-x="1990" d="M96 414q0 287 136 512.5t372.5 349t530.5 123.5q174 0 321.5 -53.5t247 -144.5t155.5 -212t56 -254q0 -161 -63.5 -299.5t-182 -223.5t-266.5 -85q-214 0 -281 147q-45 -70 -114.5 -108.5t-155.5 -38.5q-116 0 -196.5 106t-80.5 244q0 123 53.5 228.5t145 167t199.5 61.5 q68 0 119.5 -33t76.5 -88l19 109h268l-80 -461q-2 -8 -2 -25q0 -67 74 -67q53 0 96 59.5t63.5 138.5t20.5 152q0 192 -141 307t-385 115q-201 0 -363 -91t-254 -254.5t-92 -369.5t135 -342.5t357 -136.5q187 0 375 96l116 -215q-104 -68 -242 -103.5t-286 -35.5 q-158 0 -299 58.5t-239.5 157t-156 231.5t-57.5 278zM877 496q0 -49 27 -78t73 -29q68 0 106.5 55.5t38.5 128.5q0 47 -27 74t-73 27q-59 0 -102 -52t-43 -126z" />
<glyph unicode="A" horiz-adv-x="1669" d="M-90 0l45 248h137l666 1186h514l203 -1186h139l-45 -248h-733l45 248h131l-13 139h-479l-71 -139h131l-45 -248h-625zM668 670h301l-51 481z" />
<glyph unicode="B" horiz-adv-x="1476" d="M-12 0l43 248h139l166 938h-139l43 248h743q188 0 312 -91t124 -239q0 -128 -92.5 -216.5t-232.5 -125.5q126 -19 206 -99t80 -190q0 -108 -48 -198t-130 -149.5t-191.5 -92.5t-232.5 -33h-790zM598 233h64q116 0 182.5 60t66.5 168q0 76 -49 119t-133 43h-61zM707 844 h53q96 0 152.5 56t56.5 161q0 65 -41 102t-105 37h-55z" />
<glyph unicode="C" horiz-adv-x="1462" d="M109 629q0 183 67.5 340.5t182 265.5t269 169.5t326.5 61.5q271 0 564 -123l-82 -462h-291l39 217q-100 59 -228 59q-107 0 -191 -68.5t-130.5 -189t-46.5 -270.5q0 -137 66 -232.5t161 -95.5q104 0 188 61.5t136 163.5l272 -221q-110 -163 -283.5 -248.5t-394.5 -85.5 q-136 0 -253.5 52.5t-198 141.5t-126.5 209.5t-46 254.5z" />
<glyph unicode="D" horiz-adv-x="1646" d="M-12 0l41 248h141l160 938h-133l43 248h680q200 0 355 -66t245 -197t90 -309q0 -254 -108.5 -449.5t-309 -304t-463.5 -108.5h-741zM604 258h113q111 0 206 78.5t151 216t56 301.5q0 162 -71 242t-195 80h-98z" />
<glyph unicode="E" horiz-adv-x="1257" d="M-12 0l43 248h139l166 938h-141l43 248h1081l-70 -383h-288l24 139h-217l-55 -320h364l-47 -254h-360l-68 -372h240l28 162h291l-74 -406h-1099z" />
<glyph unicode="F" horiz-adv-x="1245" d="M-12 0l43 248h139l168 938h-143l45 248h1106l-70 -406h-291l29 162h-246l-59 -350h362l-47 -254h-362l-60 -338h215l-43 -248h-786z" />
<glyph unicode="G" horiz-adv-x="1636" d="M111 637q0 189 68.5 346t188 262t282 163t349.5 58q289 0 621 -110l-70 -395h-290l24 143q-118 59 -262 59q-196 0 -314 -144.5t-118 -381.5q0 -143 72.5 -243.5t185.5 -100.5q114 0 194.5 61t118.5 168h-270l53 287h639l-143 -809h-348l26 150q-192 -179 -426 -179 q-167 0 -301.5 93.5t-207 245.5t-72.5 327z" />
<glyph unicode="H" horiz-adv-x="1802" d="M-12 0l41 248h141l166 938h-139l41 248h710l-43 -248h-137l-51 -291h495l54 291h-138l43 248h709l-43 -248h-141l-166 -938h141l-43 -248h-708l47 248h131l59 330h-498l-57 -330h137l-43 -248h-708z" />
<glyph unicode="I" horiz-adv-x="870" d="M-16 0l45 248h141l164 938h-139l43 248h714l-45 -248h-141l-164 -938h141l-45 -248h-714z" />
<glyph unicode="J" horiz-adv-x="870" d="M-240 -307l93 244q60 -25 127 -25q72 0 123.5 46.5t64.5 127.5l197 1100h-191l45 248h762l-45 -248h-143l-199 -1129q-34 -194 -192.5 -303.5t-378.5 -109.5q-159 0 -263 49z" />
<glyph unicode="K" horiz-adv-x="1650" d="M-12 0l41 248h143l168 938h-141l43 248h676l-44 -248h-106l-70 -395l428 405h-127l41 238h686l-45 -248h-143l-428 -377l340 -561h152l-46 -248h-765l40 233h119l-260 500l-86 -485h103l-41 -248h-678z" />
<glyph unicode="L" horiz-adv-x="1247" d="M-12 0l43 248h139l168 938h-143l45 248h725l-45 -248h-152l-166 -938h244l39 223h291l-82 -471h-1106z" />
<glyph unicode="M" horiz-adv-x="2131" d="M-16 0l45 248h141l164 938h-139l45 248h684l163 -732l416 732h709l-45 -248h-142l-163 -938h141l-45 -248h-682l43 248h123l137 780l-489 -858h-267l-192 858l-139 -780h126l-45 -248h-589z" />
<glyph unicode="N" horiz-adv-x="1787" d="M-12 0l41 248h143l164 938h-139l43 248h598l403 -899l115 651h-144l45 248h623l-45 -248h-139l-209 -1186h-467l-395 897l-115 -649h143l-45 -248h-620z" />
<glyph unicode="O" horiz-adv-x="1716" d="M106 616q0 184 67.5 342t185 268.5t281 173t351.5 62.5q312 0 498 -175t186 -456q0 -250 -111.5 -446t-313.5 -305t-462 -109q-157 0 -286 48.5t-215.5 134t-133.5 204t-47 258.5zM586 616q0 -148 62.5 -241.5t164.5 -93.5q103 0 190.5 72.5t139 199t51.5 278.5 q0 148 -60 235t-167 87q-152 0 -266.5 -154t-114.5 -383z" />
<glyph unicode="P" horiz-adv-x="1425" d="M-12 0l41 248h141l166 938h-139l43 248h735q136 0 248.5 -50t178.5 -141q66 -90 66 -208q0 -149 -90 -269q-91 -122 -238.5 -187t-316.5 -65h-172l-47 -266h217l-47 -248h-786zM694 758h41q113 0 187.5 71t74.5 195q0 77 -50.5 119.5t-129.5 42.5h-49z" />
<glyph unicode="Q" horiz-adv-x="1738" d="M109 625q0 184 67.5 342t184.5 268t280.5 172.5t351.5 62.5q312 0 498 -174.5t186 -455.5q0 -237 -100.5 -426t-284 -302t-422.5 -130l-77 -101q65 -16 161 -16q125 0 242 45t209 131l164 -244q-241 -209 -539 -209q-213 0 -377 119q-78 -78 -164 -78q-69 0 -115 48.5 t-46 117.5q0 71 49.5 119.5t122.5 48.5q50 0 96 -22l43 51q-248 42 -389 214t-141 419zM588 625q0 -148 62.5 -242t164.5 -94q103 0 190.5 72.5t139 199.5t51.5 279q0 148 -60 234.5t-167 86.5q-73 0 -142.5 -40.5t-122 -110t-84.5 -170.5t-32 -215z" />
<glyph unicode="R" horiz-adv-x="1536" d="M-12 0l41 248h141l168 938h-141l43 248h768q204 0 336.5 -101t132.5 -276q0 -68 -29 -131t-78 -112.5t-108 -87.5t-125 -64l192 -414h158l-45 -248h-486l-217 586h-77l-60 -338h129l-43 -248h-700zM702 807h72q95 0 163.5 66t68.5 176q0 72 -43.5 111.5t-116.5 39.5h-76z " />
<glyph unicode="S" horiz-adv-x="1288" d="M20 47l80 449h291l-35 -193q98 -45 219 -45q75 0 126 37.5t51 99.5q0 44 -30.5 80.5t-80 64t-109 55t-119 62.5t-109 77.5t-81.5 108t-33 146.5v7q0 136 81 244q83 110 212.5 167t276.5 57q243 0 534 -94l-71 -397h-291l29 157q-88 56 -189 56q-60 0 -100.5 -33.5 t-40.5 -89.5q0 -36 24.5 -66t64 -50.5t90.5 -44t104.5 -45t104.5 -55t90.5 -73t64 -100.5t24.5 -135q0 -159 -80.5 -279.5t-214 -182t-297.5 -61.5q-282 0 -586 76z" />
<glyph unicode="T" horiz-adv-x="1445" d="M121 956l86 478h1352l-84 -478h-291l41 230h-170l-166 -938h172l-45 -248h-774l45 248h170l166 938h-172l-39 -230h-291z" />
<glyph unicode="U" horiz-adv-x="1683" d="M166 1186l45 248h709l-46 -248h-139l-121 -682q-6 -24 -6 -55q0 -79 49.5 -124.5t145.5 -45.5q97 0 167 60t85 153l123 694h-142l45 248h709l-45 -248h-135l-121 -688q-45 -255 -233 -391t-488 -136q-266 0 -428 128.5t-162 326.5q0 52 8 96l117 664h-137z" />
<glyph unicode="V" horiz-adv-x="1632" d="M121 1186l45 248h739l-45 -248h-133l98 -815l381 815h-135l43 248h674l-45 -248h-141l-623 -1186h-506l-211 1186h-141z" />
<glyph unicode="W" horiz-adv-x="2430" d="M123 1186l43 248h752l-44 -248h-155l29 -850l419 1098h500l39 -1100l326 852h-158l43 248h666l-41 -248h-140l-510 -1186h-549l-55 905l-370 -905h-541l-117 1186h-137z" />
<glyph unicode="X" horiz-adv-x="1495" d="M-90 0l45 248h137l443 510l-240 428h-158l45 248h699l-39 -211h-97l150 -271l225 271h-116l36 211h596l-45 -248h-143l-414 -481l254 -457h154l-45 -248h-711l41 221h102l-157 287l-238 -287h111l-41 -221h-594z" />
<glyph unicode="Y" horiz-adv-x="1527" d="M123 1186l43 248h708l-38 -222h-119l147 -356l275 356h-129l37 222h634l-43 -248h-143l-506 -615l-57 -315h172l-45 -256h-774l45 256h170l57 322l-291 608h-143z" />
<glyph unicode="Z" horiz-adv-x="1341" d="M-27 0l39 225l811 961h-323l-35 -205h-291l80 453h1159l-39 -224l-815 -962h375l43 239h291l-88 -487h-1207z" />
<glyph unicode="[" horiz-adv-x="708" d="M10 -293l328 1856h530l-37 -211h-192l-252 -1434h193l-39 -211h-531z" />
<glyph unicode="\" horiz-adv-x="952" d="M188 1536h336l307 -1757h-333z" />
<glyph unicode="]" horiz-adv-x="708" d="M-123 -293l37 211h192l252 1434h-192l39 211h530l-327 -1856h-531z" />
<glyph unicode="^" horiz-adv-x="1165" d="M59 651l525 783h317l246 -783h-367l-100 398l-242 -398h-379z" />
<glyph unicode="_" horiz-adv-x="1361" d="M-92 -276l43 251h1263l-43 -251h-1263z" />
<glyph unicode="`" horiz-adv-x="774" d="M272 1497h424l78 -305h-280z" />
<glyph unicode="a" d="M61 442q0 178 75 328.5t204.5 238t282.5 87.5q89 0 160.5 -47.5t109.5 -122.5l25 141h411l-147 -829h141l-43 -238h-537l25 150q-53 -79 -144 -127t-190 -48q-105 0 -192 67t-134 173.5t-47 226.5zM489 461q0 -92 37 -149.5t101 -57.5q65 0 116.5 55.5t77 137.5t25.5 171 q0 96 -35.5 147.5t-99.5 51.5q-67 0 -118.5 -52.5t-77.5 -132.5t-26 -171z" />
<glyph unicode="b" horiz-adv-x="1388" d="M74 -2l219 1245h-139l41 238h553l-97 -541q60 68 143 112t173 44q105 0 191.5 -63.5t134.5 -169t48 -228.5q0 -178 -69.5 -328t-197.5 -241t-288 -91q-95 0 -171.5 54t-114.5 133l-29 -164h-397zM559 449q0 -92 35.5 -143.5t99.5 -51.5q67 0 118 55t76 138.5t25 177.5 q0 88 -36.5 140t-100.5 52t-114.5 -55.5t-76.5 -138.5t-26 -174z" />
<glyph unicode="c" horiz-adv-x="1171" d="M61 444q0 141 52.5 263.5t140.5 206t204 131t242 47.5q241 0 465 -93l-63 -362h-260l28 160q-66 32 -137 32q-70 0 -127 -54.5t-87 -139.5t-30 -180q0 -85 45.5 -141t116.5 -56q62 0 117.5 39t89.5 100l234 -155q-76 -131 -212 -201t-309 -70q-232 0 -371 132.5 t-139 340.5z" />
<glyph unicode="d" d="M61 442q0 178 75 328.5t204 238t281 87.5q89 0 161.5 -47.5t110.5 -122.5l55 317h-141l43 238h551l-219 -1243h141l-43 -238h-539l27 150q-54 -79 -145.5 -127t-188.5 -48q-106 0 -193 67t-133.5 173.5t-46.5 226.5zM489 461q0 -93 36.5 -150t99.5 -57q66 0 118 55.5 t77.5 137.5t25.5 171q0 96 -35.5 147.5t-99.5 51.5q-67 0 -118.5 -52.5t-77.5 -132.5t-26 -171z" />
<glyph unicode="e" horiz-adv-x="1271" d="M68 451q0 144 52 266t141.5 204.5t211 128.5t258.5 46q209 0 345 -129t136 -324q0 -114 -36 -209l-695 -4v-4q8 -86 54.5 -136t128.5 -50q74 0 141 29.5t115 78.5l221 -160q-199 -217 -543 -217q-244 0 -387 133.5t-143 346.5zM500 637h305q4 32 4 57q0 68 -30.5 109 t-86.5 41q-73 0 -121.5 -54.5t-70.5 -152.5z" />
<glyph unicode="f" horiz-adv-x="917" d="M-203 -367l76 248q64 -31 115 -31q61 0 97 31t44 86l152 860h-154l43 240h154l14 84q26 160 167.5 253t346.5 93q149 0 258 -14l-61 -250q-75 14 -134 14q-73 0 -118 -31.5t-54 -87.5l-8 -61h238l-43 -240h-238l-155 -880q-30 -163 -166 -254.5t-336 -91.5 q-126 0 -238 32z" />
<glyph unicode="g" horiz-adv-x="1372" d="M-8 -272l164 213q118 -99 266 -99q128 0 215.5 50.5t105.5 148.5l23 127q-52 -76 -140 -119t-186 -43q-106 0 -193 64t-134 166.5t-47 218.5q0 175 74 322.5t201.5 233t279.5 85.5q89 0 160.5 -47.5t109.5 -122.5l24 141h410l-178 -1012q-27 -153 -124.5 -259t-248 -158 t-344.5 -52q-260 0 -438 142zM492 473q0 -89 37.5 -144t101.5 -55t114 54.5t74.5 133.5t24.5 165q0 95 -35.5 142.5t-99.5 47.5q-98 0 -157.5 -102t-59.5 -242z" />
<glyph unicode="h" horiz-adv-x="1415" d="M74 0l219 1243h-137l39 238h553l-105 -586q54 81 145 136.5t189 55.5q132 0 226.5 -90t94.5 -213q0 -29 -8 -75l-84 -471h144l-43 -238h-551l116 653q5 25 5 31q0 46 -29.5 72t-81.5 26q-66 0 -113 -44t-59 -109l-111 -629h-409z" />
<glyph unicode="i" horiz-adv-x="745" d="M74 0l145 827h-141l43 240h551l-146 -829h142l-43 -238h-551zM285 1382q0 92 62 149.5t163 57.5t164 -57.5t63 -149.5t-63 -149t-164 -57q-105 0 -165 56.5t-60 149.5z" />
<glyph unicode="j" horiz-adv-x="794" d="M-203 -365l78 246q60 -31 113 -31q122 0 145 117l152 860h-156l43 240h565l-198 -1122q-29 -163 -165.5 -253.5t-338.5 -90.5q-135 0 -238 34zM344 1382q0 92 63 149.5t164 57.5t163.5 -57.5t62.5 -149.5t-62.5 -149t-163.5 -57q-105 0 -166 56.5t-61 149.5z" />
<glyph unicode="k" horiz-adv-x="1343" d="M74 0l219 1243h-139l41 238h553l-138 -772q103 32 177.5 127.5t107.5 230.5h461q-42 -149 -157 -263.5t-267 -180.5l198 -385h158l-43 -238h-442l-221 545l-97 -545h-411z" />
<glyph unicode="l" horiz-adv-x="747" d="M76 0l217 1243h-139l41 238h553l-218 -1243h140l-41 -238h-553z" />
<glyph unicode="m" horiz-adv-x="2060" d="M76 0l143 827h-141l43 240h547l-37 -184q143 204 334 204q98 0 173.5 -50.5t108.5 -129.5q61 79 158 129.5t211 50.5q135 0 232.5 -90t97.5 -217q0 -9 -11 -78l-82 -464h142l-43 -238h-551l119 664q2 10 2 24q0 45 -26.5 69.5t-74.5 24.5q-59 0 -104.5 -43t-54.5 -98 l-113 -641h-412l119 662q2 10 2 28q0 44 -27 68t-75 24q-62 0 -104.5 -45t-55.5 -114l-111 -623h-409z" />
<glyph unicode="n" horiz-adv-x="1413" d="M74 0l145 827h-141l43 240h551l-31 -172q56 81 146.5 136.5t187.5 55.5q132 0 226.5 -90t94.5 -213q0 -29 -8 -75l-82 -471h144l-43 -238h-551l114 653q4 20 4 31q0 46 -29 72t-81 26q-65 0 -112 -44t-58 -109l-111 -629h-409z" />
<glyph unicode="o" horiz-adv-x="1318" d="M63 457q0 192 89 338t246 223.5t358 77.5q152 0 270 -63t181 -170t63 -238q0 -297 -189.5 -475.5t-502.5 -178.5q-155 0 -273.5 65.5t-180 175t-61.5 245.5zM492 463q0 -96 32.5 -154.5t93.5 -58.5q95 0 159.5 110t64.5 258q0 89 -33 144t-94 55q-94 0 -158.5 -102.5 t-64.5 -251.5z" />
<glyph unicode="p" horiz-adv-x="1388" d="M8 -383l211 1210h-141l43 240h551l-23 -127q60 68 144 112t174 44q105 0 191.5 -63.5t134.5 -169t48 -228.5q0 -178 -69.5 -328.5t-197 -241t-286.5 -90.5q-95 0 -171 51t-111 128l-92 -537h-406zM559 449q0 -92 35.5 -143.5t99.5 -51.5q68 0 119.5 55t76.5 138.5 t25 177.5q0 88 -37.5 140t-101.5 52t-114.5 -55.5t-76.5 -138.5t-26 -174z" />
<glyph unicode="q" horiz-adv-x="1374" d="M61 442q0 178 75 328.5t204 238t281 87.5q89 0 161.5 -47.5t110.5 -122.5l25 141h409l-256 -1450h-405l92 526q-50 -77 -139 -122.5t-185 -45.5q-106 0 -193 67t-133.5 173.5t-46.5 226.5zM489 461q0 -93 36.5 -150t99.5 -57q66 0 118 55.5t77.5 137.5t25.5 171 q0 96 -35.5 147.5t-99.5 51.5q-67 0 -118.5 -52.5t-77.5 -132.5t-26 -171z" />
<glyph unicode="r" horiz-adv-x="1075" d="M74 0l145 827h-141l43 240h543l-43 -254q66 124 164.5 202.5t197.5 78.5q90 0 166 -39l-203 -400q-87 60 -184 60q-153 0 -174 -121l-105 -594h-409z" />
<glyph unicode="s" horiz-adv-x="1148" d="M18 41l60 328h260l-23 -119q97 -43 203 -43q47 0 79 23.5t32 62.5q0 26 -21 46t-55 33.5t-77.5 29t-89 30t-89 39.5t-77.5 55t-55.5 78t-21.5 109q1 171 139 275q140 104 339 104q235 0 471 -70l-50 -283h-260l15 86q-74 41 -162 41q-40 0 -65 -22t-25 -56 q0 -25 27 -43.5t70.5 -32t96.5 -28.5t105.5 -38.5t96.5 -55.5q43 -31 71 -85q27 -54 28 -127q0 -188 -145 -297q-146 -110 -371 -110q-259 0 -506 70z" />
<glyph unicode="t" horiz-adv-x="876" d="M66 827l43 240h139l45 254h412l-46 -254h203l-43 -240h-203l-79 -452q-2 -12 -2 -35q0 -45 29.5 -70.5t76.5 -25.5q54 0 113 16l34 -242q-125 -32 -290 -32q-181 0 -280 81.5t-99 227.5q0 28 8 82l80 450h-141z" />
<glyph unicode="u" horiz-adv-x="1390" d="M66 827l43 240h550l-116 -653q-2 -10 -2 -31q0 -45 25 -72.5t65 -27.5q62 0 107 39t57 106l112 639h410l-146 -829h142l-43 -238h-543l29 164q-59 -81 -153.5 -131.5t-199.5 -50.5q-126 0 -206 87.5t-80 209.5q0 32 8 90l82 458h-141z" />
<glyph unicode="v" horiz-adv-x="1316" d="M12 827l41 240h504l66 -739q125 103 200.5 226t75.5 243q0 5 -1 15.5t-1 14.5h-172l43 240h483q35 -140 35 -250q0 -201 -169 -423t-445 -398h-402l-100 831h-158z" />
<glyph unicode="w" horiz-adv-x="1951" d="M10 827l43 240h500l29 -748q256 235 256 545q0 49 -7 92l-14 111h404l51 -748q121 104 197.5 232t76.5 248l-2 28h-164l43 240h463q35 -140 35 -248q0 -206 -165.5 -428.5t-446.5 -394.5h-359l-45 366q-123 -193 -325 -366h-338l-78 831h-154z" />
<glyph unicode="x" horiz-adv-x="1228" d="M-41 0l25 145l415 396l-137 286h-158l43 240h435l163 -336l134 131h-109l37 205h471l-25 -141l-417 -381l147 -307h162l-43 -238h-438l-168 348l-136 -143h121l-37 -205h-485z" />
<glyph unicode="y" horiz-adv-x="1310" d="M-168 -367l96 250q75 -33 164 -33q67 0 137 35.5t123 91.5l-180 850h-160l41 240h484l145 -803q98 114 156.5 256.5t58.5 276.5q0 22 2 30h-164l43 240h469q33 -132 33 -240q0 -116 -50.5 -256t-135.5 -276t-203 -265.5t-246.5 -227t-273 -157t-275.5 -59.5 q-142 0 -264 47z" />
<glyph unicode="z" horiz-adv-x="1163" d="M0 0l35 209l579 633h-194l-21 -117h-256l62 342h946l-35 -205l-577 -633h229l23 127h256l-64 -356h-983z" />
<glyph unicode="{" horiz-adv-x="729" d="M49 543l37 215q72 0 118.5 46t61.5 132l45 256q18 99 68 171.5t127 115.5t171.5 63.5t209.5 20.5l-37 -217q-85 0 -136.5 -51t-64.5 -128l-47 -252q-20 -112 -97.5 -183.5t-203.5 -94.5q211 -42 211 -219q0 -28 -6 -58l-47 -268q-4 -28 -4 -43q0 -56 35.5 -90.5 t109.5 -34.5l-39 -217q-203 0 -323.5 81.5t-120.5 240.5q0 48 4 75l45 261q6 30 6 53q0 61 -32 93t-91 32z" />
<glyph unicode="|" horiz-adv-x="811" d="M260 -422v2026h344v-2026h-344z" />
<glyph unicode="}" horiz-adv-x="731" d="M-121 -293l37 217q85 0 136.5 50.5t64.5 127.5l47 252q20 112 97.5 184t203.5 95q-211 42 -211 219q0 27 6 57l47 269q4 28 4 43q0 56 -35.5 90.5t-109.5 34.5l39 217q203 0 323.5 -81.5t120.5 -240.5q0 -49 -4 -76l-45 -260q-6 -30 -6 -53q0 -61 32 -93t91 -32l-37 -215 q-72 0 -118.5 -46t-61.5 -132l-45 -256q-18 -99 -68 -171.5t-127 -115.5t-171.5 -63.5t-209.5 -20.5z" />
<glyph unicode="~" horiz-adv-x="1161" d="M59 414q22 118 74.5 213.5t135.5 155t182 59.5q55 0 107 -16.5t85 -37t70.5 -37t66.5 -16.5q42 0 70.5 30t38.5 71h244q-22 -118 -73.5 -213.5t-134 -155t-180.5 -59.5q-55 0 -108 16.5t-86.5 36.5t-71.5 36.5t-67 16.5q-40 0 -68.5 -29.5t-40.5 -70.5h-244z" />
<glyph unicode="&#xa1;" horiz-adv-x="743" d="M-43 -383l258 952h324l-80 -952h-502zM193 891q0 97 68 165t165 68t165 -68t68 -165q0 -93 -68.5 -161t-164.5 -68t-164.5 68t-68.5 161z" />
<glyph unicode="&#xa2;" horiz-adv-x="1259" d="M133 614q0 128 43 241t117 194.5t172.5 135t210.5 70.5l31 177h213l-29 -177q180 -17 346 -86l-63 -362h-261l29 160q-66 32 -137 32q-70 0 -127 -54.5t-87 -139.5t-30 -180q0 -85 45.5 -141t116.5 -56q62 0 117.5 39t89.5 100l233 -155q-70 -121 -191.5 -190.5 t-275.5 -78.5l-30 -170h-213l30 187q-164 43 -257 164t-93 290z" />
<glyph unicode="&#xa3;" horiz-adv-x="1294" d="M25 0l43 240q85 72 150 169t91 195h-207l43 248h160q-20 106 -20 152q0 132 74 237.5t196 162t266 56.5q279 0 539 -82l-70 -393h-291l27 152q-73 37 -158 37q-74 0 -116.5 -52t-42.5 -139q0 -41 16 -131h266l-43 -248h-221q-47 -194 -190 -344h319l27 158h319l-76 -418 h-1101z" />
<glyph unicode="&#xa5;" horiz-adv-x="1398" d="M115 1186l43 248h643l-37 -222h-102l122 -364l254 364h-108l37 222h592l-43 -248h-134l-333 -412h208l-26 -160h-309l-15 -86h310l-31 -159h-309l-21 -121h156l-43 -248h-729l43 248h159l21 121h-311l28 159h309l17 86h-309l26 160h217l-190 412h-135z" />
<glyph unicode="&#xa7;" horiz-adv-x="1351" d="M147 567q0 168 175 293q-101 108 -101 268q0 156 109.5 264.5t273.5 108.5q91 0 165.5 -34t117.5 -95v105h268v-398h-254q-19 62 -72.5 100t-126.5 38q-46 0 -75 -25t-29 -59q0 -32 35 -57t90.5 -44.5t123 -41t134.5 -54.5t122.5 -77t90.5 -116t35 -165q0 -179 -170 -299 q105 -105 102 -279q-2 -171 -110 -282t-281 -111q-196 0 -293 141v-115h-268v418h254q17 -70 74.5 -113.5t136.5 -43.5q48 0 79 24t31 66q0 33 -35 60t-91.5 49t-124 46.5t-135.5 60t-124.5 81.5t-91.5 119.5t-35 166.5zM526 643q0 -25 7.5 -46.5t18 -38t32 -33t37.5 -26.5 t48 -24t50.5 -21t57.5 -21t57 -21q16 31 16 71q0 24 -7.5 45t-18 37t-31 32.5t-38 27t-47.5 25t-50.5 23t-57 23t-57.5 23.5q-17 -39 -17 -76z" />
<glyph unicode="&#xa8;" horiz-adv-x="1103" d="M270 1370q0 74 54.5 122t138.5 48t138 -48t54 -122q0 -78 -53.5 -127t-138.5 -49q-88 0 -140.5 48.5t-52.5 127.5zM745 1370q0 74 53.5 122t137.5 48q85 0 138.5 -48t53.5 -122q0 -77 -53 -126.5t-139 -49.5q-88 0 -139.5 49t-51.5 127z" />
<glyph unicode="&#xa9;" horiz-adv-x="1763" d="M121 723q0 153 59 289.5t162.5 236.5t252 158.5t318.5 58.5q171 0 320 -58.5t252.5 -158.5t163 -236.5t59.5 -289.5q0 -156 -59.5 -294.5t-163 -239.5t-252.5 -159.5t-320 -58.5q-170 0 -318.5 58.5t-252 159.5t-162.5 239.5t-59 294.5zM387 723q0 -233 147 -386 t379 -153q155 0 275.5 70.5t186 193t65.5 275.5q0 150 -65.5 270.5t-186.5 190t-275 69.5q-232 0 -379 -151t-147 -379zM547 721q0 153 94.5 257.5t239.5 104.5q102 0 184 -82v64h180v-279h-162q-14 49 -46.5 78t-78.5 29q-50 0 -84 -45.5t-34 -126.5q0 -77 37 -127.5 t92 -50.5q41 0 71.5 23.5t46.5 62.5l183 -109q-50 -85 -135 -131.5t-193 -46.5q-178 0 -286.5 104.5t-108.5 274.5z" />
<glyph unicode="&#xaa;" horiz-adv-x="1038" d="M152 979q0 199 117.5 336t285.5 137q66 0 120 -32.5t81 -84.5l16 97h295l-104 -592h98l-29 -168h-385l17 106q-38 -59 -105 -92t-143 -33q-108 0 -186 100t-78 226zM467 995q0 -67 25 -104t71 -37q71 0 114.5 80t43.5 180q0 68 -25 103.5t-71 35.5q-67 0 -112.5 -79.5 t-45.5 -178.5z" />
<glyph unicode="&#xab;" horiz-adv-x="1339" d="M55 598l355 408h391l-375 -433l195 -380h-355zM604 553l391 455h391l-413 -480l172 -335h-357z" />
<glyph unicode="&#xad;" horiz-adv-x="743" d="M68 451l61 344h580l-60 -344h-581z" />
<glyph unicode="&#xae;" horiz-adv-x="1030" d="M162 1090q0 184 124.5 307t327.5 123t328 -123t125 -307q0 -119 -55 -217t-159 -156t-239 -58q-202 0 -327 124t-125 307zM313 1090q0 -133 82 -218.5t219 -85.5q138 0 219.5 85.5t81.5 218.5q0 135 -80.5 220t-220.5 85q-137 0 -219 -85.5t-82 -219.5zM428 897v70h29 v268h-29v70h211q67 0 110.5 -30t43.5 -85q0 -37 -22 -64.5t-56 -40.5l73 -118h39v-70h-141l-80 166h-24v-98h30v-68h-184zM582 1122h20q27 0 43.5 16t16.5 46q0 25 -17 40t-43 15h-20v-117z" />
<glyph unicode="&#xaf;" horiz-adv-x="970" d="M242 1208l43 230h725l-43 -230h-725z" />
<glyph unicode="&#xb0;" horiz-adv-x="837" d="M147 1106q0 150 104 253t267 103q165 0 270 -102t105 -252q0 -156 -104 -258t-271 -102q-166 0 -268.5 101.5t-102.5 256.5zM406 1106q0 -51 29.5 -83t82.5 -32t83 32.5t30 84.5q0 49 -30 80t-83 31q-52 0 -82 -31.5t-30 -81.5z" />
<glyph unicode="&#xb2;" horiz-adv-x="817" d="M104 627l15 90q11 65 48 126.5t83.5 104.5t99 84.5t95.5 70.5t71.5 58.5t28.5 52.5q0 27 -13.5 42.5t-37.5 15.5q-29 0 -53 -31t-35 -76l-224 66q42 105 140.5 165t232.5 60q122 0 202.5 -67t80.5 -160q0 -58 -37.5 -112t-93.5 -96t-112.5 -79t-101 -75t-53.5 -70h113 l14 71h209l-43 -241h-629z" />
<glyph unicode="&#xb3;" horiz-adv-x="813" d="M74 817l215 88q6 -43 34.5 -74.5t65.5 -31.5q50 0 81.5 31.5t31.5 82.5q0 43 -37 67t-90 24h-45l24 137q79 6 132 32.5t53 67.5q0 57 -64 57q-31 0 -58.5 -20.5t-43.5 -50.5l-199 96q57 66 146 105.5t194 39.5q129 0 216 -51.5t87 -140.5q0 -76 -59 -127t-164 -64 q93 -8 147 -53t54 -125q0 -88 -60 -156.5t-153.5 -102.5t-200.5 -34q-118 0 -197.5 55t-109.5 148z" />
<glyph unicode="&#xb4;" horiz-adv-x="792" d="M231 1192l191 305h438l-332 -305h-297z" />
<glyph unicode="&#xb6;" horiz-adv-x="1495" d="M127 1044q0 163 113 276.5t276 113.5h909v-248h-155v-1278h-295v1278h-156v-1278h-297v743q-167 1 -281 115t-114 278z" />
<glyph unicode="&#xb7;" horiz-adv-x="753" d="M150 637q0 97 74.5 168.5t174.5 71.5q99 0 170.5 -71.5t71.5 -168.5q0 -99 -71.5 -170.5t-170.5 -71.5q-100 0 -174.5 72t-74.5 170z" />
<glyph unicode="&#xb8;" horiz-adv-x="673" d="M-53 -461l73 166q29 -22 80 -22q33 0 56.5 14t23.5 43q0 25 -19.5 40t-45.5 15q-38 0 -66 -14l90 239h166l-45 -118q70 -3 120 -47t50 -107q0 -112 -98.5 -176t-239.5 -64q-78 0 -145 31z" />
<glyph unicode="&#xb9;" horiz-adv-x="720" d="M156 1268l270 166h260l-113 -641h101l-31 -166h-475l31 166h104l78 434l-131 -97z" />
<glyph unicode="&#xba;" horiz-adv-x="1009" d="M150 977q0 203 139 342t348 139q177 0 290 -90t113 -244q0 -102 -38 -192.5t-102.5 -155.5t-155 -103t-191.5 -38q-181 0 -292 91.5t-111 250.5zM465 985q0 -61 26 -96t70 -35q51 0 90 42t56.5 99.5t17.5 116.5q0 61 -25.5 96t-72.5 35q-73 0 -117.5 -78t-44.5 -180z" />
<glyph unicode="&#xbb;" horiz-adv-x="1337" d="M-25 193l414 479l-172 336h356l185 -361l-391 -454h-392zM561 195l375 432l-195 381h355l211 -406l-355 -407h-391z" />
<glyph unicode="&#xbc;" horiz-adv-x="1918" d="M190 1268l271 166h260l-113 -641h101l-31 -166h-475l30 166h105l78 434l-131 -97zM324 -84l1081 1602h289l-1082 -1602h-288zM1018 240l22 127l424 444h265l-74 -426h100l-24 -145h-103l-14 -93h100l-28 -147h-474l27 147h111l16 93h-348zM1225 385h168l37 215z" />
<glyph unicode="&#xbd;" horiz-adv-x="1929" d="M190 1268l271 166h260l-113 -641h101l-31 -166h-475l30 166h105l78 434l-131 -97zM330 -84l1081 1602h289l-1082 -1602h-288zM1071 0l14 90q13 77 62 148t109 120t118 90.5t97.5 77t39.5 62.5t-13.5 42t-37.5 15q-29 0 -53 -30.5t-35 -75.5l-223 65q42 105 140.5 165 t232.5 60q122 0 202 -67t80 -160q0 -58 -37.5 -112t-93 -96t-112 -79t-101 -75t-53.5 -70h113l14 72h209l-43 -242h-629z" />
<glyph unicode="&#xbe;" horiz-adv-x="1972" d="M117 817l215 88q6 -43 34.5 -74.5t65.5 -31.5q50 0 81.5 31.5t31.5 82.5q0 43 -37 67t-90 24h-45l24 137q79 6 132 32.5t53 67.5q0 57 -64 57q-31 0 -58.5 -20.5t-43.5 -50.5l-199 96q57 66 146 105.5t194 39.5q129 0 216 -51.5t87 -140.5q0 -76 -59 -127t-164 -64 q93 -8 147 -53t54 -125q0 -88 -60 -156.5t-153.5 -102.5t-200.5 -34q-118 0 -197.5 55t-109.5 148zM373 -84l1081 1602h289l-1081 -1602h-289zM1073 240l23 127l424 444h264l-74 -426h100l-24 -145h-103l-14 -93h100l-28 -147h-473l26 147h111l16 93h-348zM1280 385h168 l37 215z" />
<glyph unicode="&#xbf;" horiz-adv-x="1069" d="M-63 -12q0 58 24 113.5t63.5 98.5t86.5 83.5t96 75t90 65t70 62t34 59.5l9 41h370l-14 -88q-12 -64 -54 -125t-93 -106.5t-100.5 -88.5t-82.5 -88t-33 -88q0 -38 23 -62t63 -24q114 0 152 182l365 -125q-79 -169 -232 -262.5t-371 -93.5q-202 0 -334 105.5t-132 265.5z M399 907q0 97 68.5 165.5t165.5 68.5q95 0 164 -68.5t69 -165.5q0 -92 -69 -159.5t-164 -67.5q-96 0 -165 67t-69 160z" />
<glyph unicode="&#xc0;" horiz-adv-x="1669" d="M-90 0l45 248h137l666 1186h514l203 -1186h139l-45 -248h-733l45 248h131l-13 139h-479l-71 -139h131l-45 -248h-625zM668 670h301l-51 481zM698 1866h424l78 -305h-280z" />
<glyph unicode="&#xc1;" horiz-adv-x="1669" d="M-90 0l45 248h137l666 1186h514l203 -1186h139l-45 -248h-733l45 248h131l-13 139h-479l-71 -139h131l-45 -248h-625zM668 670h301l-51 481zM809 1561l190 305h439l-332 -305h-297z" />
<glyph unicode="&#xc2;" horiz-adv-x="1669" d="M-90 0l45 248h137l666 1186h514l203 -1186h139l-45 -248h-733l45 248h131l-13 139h-479l-71 -139h131l-45 -248h-625zM594 1561l299 288h330l202 -288h-309l-80 137l-127 -137h-315zM668 670h301l-51 481z" />
<glyph unicode="&#xc3;" horiz-adv-x="1669" d="M-90 0l45 248h137l666 1186h514l203 -1186h139l-45 -248h-733l45 248h131l-13 139h-479l-71 -139h131l-45 -248h-625zM610 1554q28 134 111 224t188 90q52 0 104.5 -20.5t97 -41t77.5 -20.5q32 0 55 22t31 52h184q-27 -134 -110 -224t-189 -90q-51 0 -103.5 20t-97 40 t-77.5 20q-32 0 -55 -21.5t-31 -50.5h-185zM668 670h301l-51 481z" />
<glyph unicode="&#xc4;" horiz-adv-x="1669" d="M-90 0l45 248h137l666 1186h514l203 -1186h139l-45 -248h-733l45 248h131l-13 139h-479l-71 -139h131l-45 -248h-625zM578 1739q0 74 54 122t138 48t138.5 -48t54.5 -122q0 -78 -54 -127t-139 -49q-88 0 -140 48.5t-52 127.5zM668 670h301l-51 481zM1053 1739 q0 74 53 122t137 48q86 0 139.5 -48t53.5 -122q0 -77 -53.5 -126.5t-139.5 -49.5q-88 0 -139 49t-51 127z" />
<glyph unicode="&#xc5;" horiz-adv-x="1669" d="M-90 0l45 248h137l666 1186h514l203 -1186h139l-45 -248h-733l45 248h131l-13 139h-479l-71 -139h131l-45 -248h-625zM668 670h301l-51 481zM776 1755q0 108 89.5 178t215.5 70q106 0 178 -58.5t72 -146.5q0 -111 -90 -182.5t-217 -71.5q-108 0 -178 60.5t-70 150.5z M965 1761q0 -33 19 -52t54 -19q43 0 73 27t30 67q0 32 -20 53t-54 21q-43 0 -72.5 -28t-29.5 -69z" />
<glyph unicode="&#xc6;" horiz-adv-x="2041" d="M-94 0l45 248h141l809 1186h1208l-69 -396h-291l29 152h-219l-60 -338h367l-43 -250h-369l-63 -358h237l29 164h291l-74 -408h-1094l45 248h133l64 354h-320l-225 -354h119l-45 -248h-645zM834 807h225l84 487z" />
<glyph unicode="&#xc7;" horiz-adv-x="1462" d="M109 629q0 183 67.5 340.5t182 265.5t269 169.5t326.5 61.5q271 0 564 -123l-82 -462h-291l39 217q-100 59 -228 59q-107 0 -191 -68.5t-130.5 -189t-46.5 -270.5q0 -137 66 -232.5t161 -95.5q104 0 188 61.5t136 163.5l272 -221q-104 -154 -263.5 -238.5t-361.5 -93.5 l-26 -71q70 -3 120 -47t50 -107q0 -112 -98.5 -176t-239.5 -64q-79 0 -146 31l74 166q29 -22 80 -22q33 0 56.5 14t23.5 43q0 25 -20 40t-46 15q-37 0 -65 -14l76 199q-153 26 -271 118.5t-181.5 231t-63.5 299.5z" />
<glyph unicode="&#xc8;" horiz-adv-x="1257" d="M-12 0l43 248h139l166 938h-141l43 248h1081l-70 -383h-288l24 139h-217l-55 -320h364l-47 -254h-360l-68 -372h240l28 162h291l-74 -406h-1099zM516 1864h424l78 -305h-281z" />
<glyph unicode="&#xc9;" horiz-adv-x="1257" d="M-12 0l43 248h139l166 938h-141l43 248h1081l-70 -383h-288l24 139h-217l-55 -320h364l-47 -254h-360l-68 -372h240l28 162h291l-74 -406h-1099zM627 1559l190 305h438l-331 -305h-297z" />
<glyph unicode="&#xca;" horiz-adv-x="1257" d="M-12 0l43 248h139l166 938h-141l43 248h1081l-70 -383h-288l24 139h-217l-55 -320h364l-47 -254h-360l-68 -372h240l28 162h291l-74 -406h-1099zM412 1559l299 288h329l203 -288h-309l-80 137l-127 -137h-315z" />
<glyph unicode="&#xcb;" horiz-adv-x="1257" d="M-12 0l43 248h139l166 938h-141l43 248h1081l-70 -383h-288l24 139h-217l-55 -320h364l-47 -254h-360l-68 -372h240l28 162h291l-74 -406h-1099zM395 1737q0 74 54.5 122t138.5 48t138 -48t54 -122q0 -78 -53.5 -127t-138.5 -49q-88 0 -140.5 48.5t-52.5 127.5zM870 1737 q0 74 53.5 122t137.5 48q85 0 138.5 -48t53.5 -122q0 -77 -53 -126.5t-139 -49.5q-88 0 -139.5 49t-51.5 127z" />
<glyph unicode="&#xcc;" horiz-adv-x="870" d="M-16 0l45 248h141l164 938h-139l43 248h714l-45 -248h-141l-164 -938h141l-45 -248h-714zM315 1864h424l78 -305h-280z" />
<glyph unicode="&#xcd;" horiz-adv-x="870" d="M-16 0l45 248h141l164 938h-139l43 248h714l-45 -248h-141l-164 -938h141l-45 -248h-714zM426 1559l190 305h439l-332 -305h-297z" />
<glyph unicode="&#xce;" horiz-adv-x="870" d="M-16 0l45 248h141l164 938h-139l43 248h714l-45 -248h-141l-164 -938h141l-45 -248h-714zM211 1559l299 288h330l202 -288h-309l-80 137l-127 -137h-315z" />
<glyph unicode="&#xcf;" horiz-adv-x="870" d="M-16 0l45 248h141l164 938h-139l43 248h714l-45 -248h-141l-164 -938h141l-45 -248h-714zM195 1737q0 74 54 122t138 48t138.5 -48t54.5 -122q0 -78 -54 -127t-139 -49q-88 0 -140 48.5t-52 127.5zM670 1737q0 74 53 122t137 48q86 0 139.5 -48t53.5 -122 q0 -77 -53.5 -126.5t-139.5 -49.5q-88 0 -139 49t-51 127z" />
<glyph unicode="&#xd0;" horiz-adv-x="1679" d="M20 0l41 248h142l63 377h-172l43 237h170l55 324h-133l43 248h680q200 0 355 -66t245 -197t90 -309q0 -254 -108.5 -449.5t-308.5 -304t-463 -108.5h-742zM637 258h113q111 0 206 78.5t151 216t56 301.5q0 162 -71 242t-195 80h-98l-56 -314h222l-43 -237h-220z" />
<glyph unicode="&#xd1;" horiz-adv-x="1787" d="M-12 0l41 248h143l164 938h-139l43 248h598l403 -899l115 651h-144l45 248h623l-45 -248h-139l-209 -1186h-467l-395 897l-115 -649h143l-45 -248h-620zM680 1554q28 134 111 224t188 90q52 0 104.5 -20.5t96.5 -41t77 -20.5q32 0 55 22t31 52h185q-27 -134 -110 -224 t-189 -90q-52 0 -104 20t-97 40t-78 20q-32 0 -55 -21.5t-31 -50.5h-184z" />
<glyph unicode="&#xd2;" horiz-adv-x="1716" d="M106 616q0 184 67.5 342t185 268.5t281 173t351.5 62.5q312 0 498 -175t186 -456q0 -250 -111.5 -446t-313.5 -305t-462 -109q-157 0 -286 48.5t-215.5 134t-133.5 204t-47 258.5zM586 616q0 -148 62.5 -241.5t164.5 -93.5q103 0 190.5 72.5t139 199t51.5 278.5 q0 148 -60 235t-167 87q-152 0 -266.5 -154t-114.5 -383zM705 1866h423l78 -305h-280z" />
<glyph unicode="&#xd3;" horiz-adv-x="1716" d="M106 616q0 184 67.5 342t185 268.5t281 173t351.5 62.5q312 0 498 -175t186 -456q0 -250 -111.5 -446t-313.5 -305t-462 -109q-157 0 -286 48.5t-215.5 134t-133.5 204t-47 258.5zM586 616q0 -148 62.5 -241.5t164.5 -93.5q103 0 190.5 72.5t139 199t51.5 278.5 q0 148 -60 235t-167 87q-152 0 -266.5 -154t-114.5 -383zM815 1561l191 305h438l-332 -305h-297z" />
<glyph unicode="&#xd4;" horiz-adv-x="1716" d="M106 616q0 184 67.5 342t185 268.5t281 173t351.5 62.5q312 0 498 -175t186 -456q0 -250 -111.5 -446t-313.5 -305t-462 -109q-157 0 -286 48.5t-215.5 134t-133.5 204t-47 258.5zM586 616q0 -148 62.5 -241.5t164.5 -93.5q103 0 190.5 72.5t139 199t51.5 278.5 q0 148 -60 235t-167 87q-152 0 -266.5 -154t-114.5 -383zM600 1561l299 288h330l203 -288h-310l-80 137l-127 -137h-315z" />
<glyph unicode="&#xd5;" horiz-adv-x="1716" d="M106 616q0 184 67.5 342t185 268.5t281 173t351.5 62.5q312 0 498 -175t186 -456q0 -250 -111.5 -446t-313.5 -305t-462 -109q-157 0 -286 48.5t-215.5 134t-133.5 204t-47 258.5zM586 616q0 -148 62.5 -241.5t164.5 -93.5q103 0 190.5 72.5t139 199t51.5 278.5 q0 148 -60 235t-167 87q-152 0 -266.5 -154t-114.5 -383zM616 1554q28 134 111 224t188 90q52 0 104.5 -20.5t97 -41t77.5 -20.5q32 0 55 22t31 52h184q-27 -134 -110 -224t-189 -90q-52 0 -104 20t-96.5 40t-77.5 20q-32 0 -55 -21.5t-31 -50.5h-185z" />
<glyph unicode="&#xd6;" horiz-adv-x="1716" d="M106 616q0 184 67.5 342t185 268.5t281 173t351.5 62.5q312 0 498 -175t186 -456q0 -250 -111.5 -446t-313.5 -305t-462 -109q-157 0 -286 48.5t-215.5 134t-133.5 204t-47 258.5zM584 1739q0 74 54 122t138 48t138.5 -48t54.5 -122q0 -78 -54 -127t-139 -49 q-88 0 -140 48.5t-52 127.5zM586 616q0 -148 62.5 -241.5t164.5 -93.5q103 0 190.5 72.5t139 199t51.5 278.5q0 148 -60 235t-167 87q-152 0 -266.5 -154t-114.5 -383zM1059 1739q0 74 53 122t137 48q86 0 139.5 -48t53.5 -122q0 -77 -53.5 -126.5t-139.5 -49.5 q-88 0 -139 49t-51 127z" />
<glyph unicode="&#xd7;" horiz-adv-x="1306" d="M160 332l286 307l-286 305l241 225l271 -290l270 290l240 -225l-285 -305l285 -307l-240 -226l-270 291l-271 -291z" />
<glyph unicode="&#xd8;" horiz-adv-x="1716" d="M106 616q0 184 67.5 342t185 268.5t281 173t351.5 62.5q239 0 406 -104l137 137l139 -139l-129 -129q131 -162 131 -396q0 -250 -111.5 -446t-313.5 -305t-462 -109q-229 0 -399 103l-137 -137l-139 137l129 129q-136 172 -136 413zM586 616q0 -25 4 -65l532 532 q-61 70 -155 70q-152 0 -266.5 -154t-114.5 -383zM668 350q59 -69 145 -69q103 0 190.5 72.5t139 199t51.5 278.5q0 32 -2 46z" />
<glyph unicode="&#xd9;" horiz-adv-x="1683" d="M166 1186l45 248h709l-46 -248h-139l-121 -682q-6 -24 -6 -55q0 -79 49.5 -124.5t145.5 -45.5q97 0 167 60t85 153l123 694h-142l45 248h709l-45 -248h-135l-121 -688q-45 -255 -233 -391t-488 -136q-266 0 -428 128.5t-162 326.5q0 52 8 96l117 664h-137zM705 1866h423 l78 -305h-280z" />
<glyph unicode="&#xda;" horiz-adv-x="1683" d="M166 1186l45 248h709l-46 -248h-139l-121 -682q-6 -24 -6 -55q0 -79 49.5 -124.5t145.5 -45.5q97 0 167 60t85 153l123 694h-142l45 248h709l-45 -248h-135l-121 -688q-45 -255 -233 -391t-488 -136q-266 0 -428 128.5t-162 326.5q0 52 8 96l117 664h-137zM815 1561 l191 305h438l-332 -305h-297z" />
<glyph unicode="&#xdb;" horiz-adv-x="1683" d="M166 1186l45 248h709l-46 -248h-139l-121 -682q-6 -24 -6 -55q0 -79 49.5 -124.5t145.5 -45.5q97 0 167 60t85 153l123 694h-142l45 248h709l-45 -248h-135l-121 -688q-45 -255 -233 -391t-488 -136q-266 0 -428 128.5t-162 326.5q0 52 8 96l117 664h-137zM600 1561 l299 288h330l203 -288h-310l-80 137l-127 -137h-315z" />
<glyph unicode="&#xdc;" horiz-adv-x="1683" d="M166 1186l45 248h709l-46 -248h-139l-121 -682q-6 -24 -6 -55q0 -79 49.5 -124.5t145.5 -45.5q97 0 167 60t85 153l123 694h-142l45 248h709l-45 -248h-135l-121 -688q-45 -255 -233 -391t-488 -136q-266 0 -428 128.5t-162 326.5q0 52 8 96l117 664h-137zM584 1739 q0 74 54 122t138 48t138.5 -48t54.5 -122q0 -78 -54 -127t-139 -49q-88 0 -140 48.5t-52 127.5zM1059 1739q0 74 53 122t137 48q86 0 139.5 -48t53.5 -122q0 -77 -53.5 -126.5t-139.5 -49.5q-88 0 -139 49t-51 127z" />
<glyph unicode="&#xdd;" horiz-adv-x="1527" d="M123 1186l43 248h708l-38 -222h-119l147 -356l275 356h-129l37 222h634l-43 -248h-143l-506 -615l-57 -315h172l-45 -256h-774l45 256h170l57 322l-291 608h-143zM764 1561l190 305h439l-332 -305h-297z" />
<glyph unicode="&#xde;" horiz-adv-x="1437" d="M-16 0l45 248h141l164 938h-139l43 248h714l-41 -222h-139l-20 -108h213q132 0 236 -39t166 -116.5t63 -182.5q1 -130 -86 -229.5t-224.5 -149t-298.5 -49.5h-205l-20 -117h143l-41 -221h-714zM653 553h78q106 0 169 52.5t63 142.5q0 68 -42.5 104.5t-117.5 36.5h-90z " />
<glyph unicode="&#xdf;" horiz-adv-x="1499" d="M-203 -367l76 248q64 -31 115 -31q60 0 96 31t45 86l152 860h-154l43 240h152l14 80q25 161 177 255.5t402 94.5q203 0 340.5 -96.5t137.5 -229.5q0 -102 -73.5 -183.5t-191.5 -117.5q133 -28 217.5 -111.5t84.5 -207.5q0 -123 -57 -228t-152.5 -175t-219.5 -109 t-258 -39h-67l43 246q126 12 204 99.5t78 203.5q0 85 -52.5 138t-139.5 61l35 204q69 11 110 55t41 117q0 53 -32 88t-82 35q-53 0 -92 -34.5t-48 -92.5l-204 -1173q-30 -163 -166 -254.5t-336 -91.5q-126 0 -238 32z" />
<glyph unicode="&#xe0;" d="M61 442q0 178 75 328.5t204.5 238t282.5 87.5q89 0 160.5 -47.5t109.5 -122.5l25 141h411l-147 -829h141l-43 -238h-537l25 150q-53 -79 -144 -127t-190 -48q-105 0 -192 67t-134 173.5t-47 226.5zM461 1497h424l78 -305h-281zM489 461q0 -92 37 -149.5t101 -57.5 q65 0 116.5 55.5t77 137.5t25.5 171q0 96 -35.5 147.5t-99.5 51.5q-67 0 -118.5 -52.5t-77.5 -132.5t-26 -171z" />
<glyph unicode="&#xe1;" d="M61 442q0 178 75 328.5t204.5 238t282.5 87.5q89 0 160.5 -47.5t109.5 -122.5l25 141h411l-147 -829h141l-43 -238h-537l25 150q-53 -79 -144 -127t-190 -48q-105 0 -192 67t-134 173.5t-47 226.5zM489 461q0 -92 37 -149.5t101 -57.5q65 0 116.5 55.5t77 137.5t25.5 171 q0 96 -35.5 147.5t-99.5 51.5q-67 0 -118.5 -52.5t-77.5 -132.5t-26 -171zM571 1192l191 305h438l-332 -305h-297z" />
<glyph unicode="&#xe2;" d="M61 442q0 178 75 328.5t204.5 238t282.5 87.5q89 0 160.5 -47.5t109.5 -122.5l25 141h411l-147 -829h141l-43 -238h-537l25 150q-53 -79 -144 -127t-190 -48q-105 0 -192 67t-134 173.5t-47 226.5zM356 1192l299 289h330l203 -289h-309l-80 137l-127 -137h-316zM489 461 q0 -92 37 -149.5t101 -57.5q65 0 116.5 55.5t77 137.5t25.5 171q0 96 -35.5 147.5t-99.5 51.5q-67 0 -118.5 -52.5t-77.5 -132.5t-26 -171z" />
<glyph unicode="&#xe3;" d="M61 442q0 178 75 328.5t204.5 238t282.5 87.5q89 0 160.5 -47.5t109.5 -122.5l25 141h411l-147 -829h141l-43 -238h-537l25 150q-53 -79 -144 -127t-190 -48q-105 0 -192 67t-134 173.5t-47 226.5zM373 1186q28 134 111 223.5t188 89.5q52 0 104.5 -20.5t96.5 -41 t77 -20.5q32 0 55 22t31 52h185q-27 -134 -110 -223.5t-189 -89.5q-52 0 -104 20t-97 39.5t-78 19.5q-32 0 -55 -21t-31 -50h-184zM489 461q0 -92 37 -149.5t101 -57.5q65 0 116.5 55.5t77 137.5t25.5 171q0 96 -35.5 147.5t-99.5 51.5q-67 0 -118.5 -52.5t-77.5 -132.5 t-26 -171z" />
<glyph unicode="&#xe4;" d="M61 442q0 178 75 328.5t204.5 238t282.5 87.5q89 0 160.5 -47.5t109.5 -122.5l25 141h411l-147 -829h141l-43 -238h-537l25 150q-53 -79 -144 -127t-190 -48q-105 0 -192 67t-134 173.5t-47 226.5zM340 1370q0 74 54 122t138 48t138.5 -48t54.5 -122q0 -78 -54 -127 t-139 -49q-88 0 -140 48.5t-52 127.5zM489 461q0 -92 37 -149.5t101 -57.5q65 0 116.5 55.5t77 137.5t25.5 171q0 96 -35.5 147.5t-99.5 51.5q-67 0 -118.5 -52.5t-77.5 -132.5t-26 -171zM815 1370q0 74 53.5 122t137.5 48q85 0 138.5 -48t53.5 -122q0 -77 -53 -126.5 t-139 -49.5q-88 0 -139.5 49t-51.5 127z" />
<glyph unicode="&#xe5;" d="M61 442q0 178 75 328.5t204.5 238t282.5 87.5q89 0 160.5 -47.5t109.5 -122.5l25 141h411l-147 -829h141l-43 -238h-537l25 150q-53 -79 -144 -127t-190 -48q-105 0 -192 67t-134 173.5t-47 226.5zM489 461q0 -92 37 -149.5t101 -57.5q65 0 116.5 55.5t77 137.5t25.5 171 q0 96 -35.5 147.5t-99.5 51.5q-67 0 -118.5 -52.5t-77.5 -132.5t-26 -171zM539 1386q0 108 89.5 178t215.5 70q106 0 178 -58.5t72 -145.5q0 -111 -90.5 -182.5t-217.5 -71.5q-108 0 -177.5 60t-69.5 150zM727 1393q0 -33 19.5 -52.5t54.5 -19.5q43 0 72.5 27t29.5 67 q0 32 -20 53t-54 21q-43 0 -72.5 -27.5t-29.5 -68.5z" />
<glyph unicode="&#xe6;" horiz-adv-x="2060" d="M59 440q0 135 49.5 257t132.5 209t197 138.5t238 51.5q234 0 452 -113q170 113 392 113q209 0 345 -129t136 -324q0 -111 -37 -209l-694 -4v-4q8 -86 54 -136t128 -50q74 0 141 29.5t115 78.5l221 -160q-199 -217 -543 -217q-162 0 -281.5 61.5t-184.5 170.5 q-157 -228 -424 -228q-202 0 -319.5 131t-117.5 334zM487 457q0 -90 31.5 -146.5t79.5 -56.5q135 0 279 412l30 96q-94 55 -194 55q-97 0 -161.5 -110t-64.5 -250zM1288 637h305q4 32 4 57q0 68 -30 109t-86 41q-73 0 -122 -54.5t-71 -152.5z" />
<glyph unicode="&#xe7;" horiz-adv-x="1171" d="M61 444q0 141 52.5 263.5t140.5 206t204 131t242 47.5q241 0 465 -93l-63 -362h-260l28 160q-66 32 -137 32q-70 0 -127 -54.5t-87 -139.5t-30 -180q0 -85 45.5 -141t116.5 -56q62 0 117.5 39t89.5 100l234 -155q-70 -121 -189.5 -189.5t-273.5 -79.5l-27 -71 q70 -3 120 -47t50 -107q0 -112 -98.5 -176t-239.5 -64q-78 0 -145 31l73 166q29 -22 80 -22q33 0 56.5 14t23.5 43q0 25 -19.5 40t-45.5 15q-38 0 -66 -14l74 199q-186 29 -295 155t-109 309z" />
<glyph unicode="&#xe8;" horiz-adv-x="1271" d="M68 451q0 144 52 266t141.5 204.5t211 128.5t258.5 46q209 0 345 -129t136 -324q0 -114 -36 -209l-695 -4v-4q8 -86 54.5 -136t128.5 -50q74 0 141 29.5t115 78.5l221 -160q-199 -217 -543 -217q-244 0 -387 133.5t-143 346.5zM463 1497h424l78 -305h-281zM500 637h305 q4 32 4 57q0 68 -30.5 109t-86.5 41q-73 0 -121.5 -54.5t-70.5 -152.5z" />
<glyph unicode="&#xe9;" horiz-adv-x="1271" d="M68 451q0 144 52 266t141.5 204.5t211 128.5t258.5 46q209 0 345 -129t136 -324q0 -114 -36 -209l-695 -4v-4q8 -86 54.5 -136t128.5 -50q74 0 141 29.5t115 78.5l221 -160q-199 -217 -543 -217q-244 0 -387 133.5t-143 346.5zM500 637h305q4 32 4 57q0 68 -30.5 109 t-86.5 41q-73 0 -121.5 -54.5t-70.5 -152.5zM573 1192l191 305h438l-332 -305h-297z" />
<glyph unicode="&#xea;" horiz-adv-x="1271" d="M68 451q0 144 52 266t141.5 204.5t211 128.5t258.5 46q209 0 345 -129t136 -324q0 -114 -36 -209l-695 -4v-4q8 -86 54.5 -136t128.5 -50q74 0 141 29.5t115 78.5l221 -160q-199 -217 -543 -217q-244 0 -387 133.5t-143 346.5zM358 1192l299 289h330l203 -289h-309 l-80 137l-127 -137h-316zM500 637h305q4 32 4 57q0 68 -30.5 109t-86.5 41q-73 0 -121.5 -54.5t-70.5 -152.5z" />
<glyph unicode="&#xeb;" horiz-adv-x="1271" d="M68 451q0 144 52 266t141.5 204.5t211 128.5t258.5 46q209 0 345 -129t136 -324q0 -114 -36 -209l-695 -4v-4q8 -86 54.5 -136t128.5 -50q74 0 141 29.5t115 78.5l221 -160q-199 -217 -543 -217q-244 0 -387 133.5t-143 346.5zM342 1370q0 74 54.5 122t138.5 48t138 -48 t54 -122q0 -78 -53.5 -127t-138.5 -49q-88 0 -140.5 48.5t-52.5 127.5zM500 637h305q4 32 4 57q0 68 -30.5 109t-86.5 41q-73 0 -121.5 -54.5t-70.5 -152.5zM817 1370q0 74 53.5 122t137.5 48q85 0 138.5 -48t53.5 -122q0 -77 -53 -126.5t-139 -49.5q-88 0 -139.5 49 t-51.5 127z" />
<glyph unicode="&#xec;" horiz-adv-x="745" d="M74 0l145 827h-141l43 240h551l-146 -829h142l-43 -238h-551zM154 1497h424l77 -305h-280z" />
<glyph unicode="&#xed;" horiz-adv-x="745" d="M74 0l145 827h-141l43 240h551l-146 -829h142l-43 -238h-551zM264 1192l191 305h438l-332 -305h-297z" />
<glyph unicode="&#xee;" horiz-adv-x="745" d="M49 1192l299 289h330l203 -289h-310l-79 137l-127 -137h-316zM74 0l145 827h-141l43 240h551l-146 -829h142l-43 -238h-551z" />
<glyph unicode="&#xef;" horiz-adv-x="823" d="M131 0l145 827h-141l43 240h551l-145 -829h141l-43 -238h-551zM131 1362q0 69 50.5 114.5t129.5 45.5t130 -45.5t51 -114.5q0 -73 -50.5 -119.5t-130.5 -46.5q-84 0 -132 45.5t-48 120.5zM580 1360q0 71 51.5 116.5t130.5 45.5t129.5 -45.5t50.5 -116.5t-50.5 -117.5 t-129.5 -46.5q-83 0 -132.5 46t-49.5 118z" />
<glyph unicode="&#xf0;" horiz-adv-x="1349" d="M57 436q0 164 81 296.5t217 205t298 72.5q140 0 234 -101q-52 137 -156 244l-287 -115l-61 140l207 84q-91 54 -182 88l200 180q177 -54 307 -135l281 112l61 -139l-200 -82q239 -225 239 -551q0 -222 -79 -394t-235 -271t-368 -99q-249 0 -403 131.5t-154 333.5z M485 440q0 -86 38.5 -141t103.5 -55q95 0 159 104.5t64 231.5q0 178 -143 178q-97 0 -159.5 -94.5t-62.5 -223.5z" />
<glyph unicode="&#xf1;" horiz-adv-x="1413" d="M74 0l145 827h-141l43 240h551l-31 -172q56 81 146.5 136.5t187.5 55.5q132 0 226.5 -90t94.5 -213q0 -29 -8 -75l-82 -471h144l-43 -238h-551l114 653q4 20 4 31q0 46 -29 72t-81 26q-65 0 -112 -44t-58 -109l-111 -629h-409zM467 1186q28 134 111 223.5t188 89.5 q52 0 104.5 -20.5t96.5 -41t77 -20.5q32 0 55 22t31 52h185q-27 -134 -110 -223.5t-189 -89.5q-52 0 -104 20t-97 39.5t-78 19.5q-32 0 -55 -21t-31 -50h-184z" />
<glyph unicode="&#xf2;" horiz-adv-x="1318" d="M63 457q0 192 89 338t246 223.5t358 77.5q152 0 270 -63t181 -170t63 -238q0 -297 -189.5 -475.5t-502.5 -178.5q-155 0 -273.5 65.5t-180 175t-61.5 245.5zM461 1497h424l78 -305h-281zM492 463q0 -96 32.5 -154.5t93.5 -58.5q95 0 159.5 110t64.5 258q0 89 -33 144 t-94 55q-94 0 -158.5 -102.5t-64.5 -251.5z" />
<glyph unicode="&#xf3;" horiz-adv-x="1318" d="M63 457q0 192 89 338t246 223.5t358 77.5q152 0 270 -63t181 -170t63 -238q0 -297 -189.5 -475.5t-502.5 -178.5q-155 0 -273.5 65.5t-180 175t-61.5 245.5zM492 463q0 -96 32.5 -154.5t93.5 -58.5q95 0 159.5 110t64.5 258q0 89 -33 144t-94 55q-94 0 -158.5 -102.5 t-64.5 -251.5zM571 1192l191 305h438l-332 -305h-297z" />
<glyph unicode="&#xf4;" horiz-adv-x="1318" d="M63 457q0 192 89 338t246 223.5t358 77.5q152 0 270 -63t181 -170t63 -238q0 -297 -189.5 -475.5t-502.5 -178.5q-155 0 -273.5 65.5t-180 175t-61.5 245.5zM356 1192l299 289h330l203 -289h-309l-80 137l-127 -137h-316zM492 463q0 -96 32.5 -154.5t93.5 -58.5 q95 0 159.5 110t64.5 258q0 89 -33 144t-94 55q-94 0 -158.5 -102.5t-64.5 -251.5z" />
<glyph unicode="&#xf5;" horiz-adv-x="1318" d="M63 457q0 192 89 338t246 223.5t358 77.5q152 0 270 -63t181 -170t63 -238q0 -297 -189.5 -475.5t-502.5 -178.5q-155 0 -273.5 65.5t-180 175t-61.5 245.5zM373 1186q28 134 111 223.5t188 89.5q52 0 104.5 -20.5t96.5 -41t77 -20.5q32 0 55 22t31 52h185 q-27 -134 -110 -223.5t-189 -89.5q-52 0 -104 20t-97 39.5t-78 19.5q-32 0 -55 -21t-31 -50h-184zM492 463q0 -96 32.5 -154.5t93.5 -58.5q95 0 159.5 110t64.5 258q0 89 -33 144t-94 55q-94 0 -158.5 -102.5t-64.5 -251.5z" />
<glyph unicode="&#xf6;" horiz-adv-x="1318" d="M63 457q0 192 89 338t246 223.5t358 77.5q152 0 270 -63t181 -170t63 -238q0 -297 -189.5 -475.5t-502.5 -178.5q-155 0 -273.5 65.5t-180 175t-61.5 245.5zM340 1370q0 74 54 122t138 48t138.5 -48t54.5 -122q0 -78 -54 -127t-139 -49q-88 0 -140 48.5t-52 127.5z M492 463q0 -96 32.5 -154.5t93.5 -58.5q95 0 159.5 110t64.5 258q0 89 -33 144t-94 55q-94 0 -158.5 -102.5t-64.5 -251.5zM815 1370q0 74 53.5 122t137.5 48q85 0 138.5 -48t53.5 -122q0 -77 -53 -126.5t-139 -49.5q-88 0 -139.5 49t-51.5 127z" />
<glyph unicode="&#xf7;" horiz-adv-x="1214" d="M131 479v320h989v-320h-989zM436 221q0 72 53.5 119t137.5 47t137 -47t53 -119q0 -75 -53 -123.5t-137 -48.5q-87 0 -139 48t-52 124zM436 1063q0 72 53.5 119t137.5 47t137 -47t53 -119q0 -75 -53 -123.5t-137 -48.5q-87 0 -139 48t-52 124z" />
<glyph unicode="&#xf8;" horiz-adv-x="1318" d="M55 27l117 116q-109 131 -109 314q0 192 89 338t246 223.5t358 77.5q162 0 295 -76l104 104l102 -100l-98 -98q111 -123 111 -301q0 -297 -189.5 -475.5t-502.5 -178.5q-170 0 -297 78l-121 -121zM492 463l311 309q-36 45 -88 45q-94 0 -158.5 -102.5t-64.5 -251.5z M530 299q32 -49 88 -49q93 0 157 106.5t67 251.5z" />
<glyph unicode="&#xf9;" horiz-adv-x="1390" d="M66 827l43 240h550l-116 -653q-2 -10 -2 -31q0 -45 25 -72.5t65 -27.5q62 0 107 39t57 106l112 639h410l-146 -829h142l-43 -238h-543l29 164q-59 -81 -153.5 -131.5t-199.5 -50.5q-126 0 -206 87.5t-80 209.5q0 32 8 90l82 458h-141zM467 1497h424l78 -305h-281z" />
<glyph unicode="&#xfa;" horiz-adv-x="1390" d="M66 827l43 240h550l-116 -653q-2 -10 -2 -31q0 -45 25 -72.5t65 -27.5q62 0 107 39t57 106l112 639h410l-146 -829h142l-43 -238h-543l29 164q-59 -81 -153.5 -131.5t-199.5 -50.5q-126 0 -206 87.5t-80 209.5q0 32 8 90l82 458h-141zM578 1192l190 305h438l-332 -305 h-296z" />
<glyph unicode="&#xfb;" horiz-adv-x="1390" d="M66 827l43 240h550l-116 -653q-2 -10 -2 -31q0 -45 25 -72.5t65 -27.5q62 0 107 39t57 106l112 639h410l-146 -829h142l-43 -238h-543l29 164q-59 -81 -153.5 -131.5t-199.5 -50.5q-126 0 -206 87.5t-80 209.5q0 32 8 90l82 458h-141zM362 1192l300 289h329l203 -289 h-309l-80 137l-127 -137h-316z" />
<glyph unicode="&#xfc;" horiz-adv-x="1390" d="M66 827l43 240h550l-116 -653q-2 -10 -2 -31q0 -45 25 -72.5t65 -27.5q62 0 107 39t57 106l112 639h410l-146 -829h142l-43 -238h-543l29 164q-59 -81 -153.5 -131.5t-199.5 -50.5q-126 0 -206 87.5t-80 209.5q0 32 8 90l82 458h-141zM346 1370q0 74 54.5 122t138.5 48 t138 -48t54 -122q0 -78 -53.5 -127t-138.5 -49q-88 0 -140.5 48.5t-52.5 127.5zM821 1370q0 74 53.5 122t137.5 48q85 0 138.5 -48t53.5 -122q0 -77 -53 -126.5t-139 -49.5q-88 0 -139.5 49t-51.5 127z" />
<glyph unicode="&#xfd;" horiz-adv-x="1310" d="M-168 -367l96 250q75 -33 164 -33q67 0 137 35.5t123 91.5l-180 850h-160l41 240h484l145 -803q98 114 156.5 256.5t58.5 276.5q0 22 2 30h-164l43 240h469q33 -132 33 -240q0 -116 -50.5 -256t-135.5 -276t-203 -265.5t-246.5 -227t-273 -157t-275.5 -59.5 q-142 0 -264 47zM508 1192l190 305h439l-332 -305h-297z" />
<glyph unicode="&#xfe;" horiz-adv-x="1390" d="M8 -383l277 1579h-140l41 238h553l-88 -494q60 68 144 112t174 44q105 0 192 -63.5t136 -169t49 -228.5q0 -177 -70 -328t-198 -241.5t-287 -90.5q-94 0 -170 51t-113 128l-92 -537h-408zM561 449q0 -92 35.5 -143.5t99.5 -51.5q68 0 119.5 55t77 138.5t25.5 177.5 q0 88 -37 140t-103 52q-64 0 -114.5 -55.5t-76.5 -138.5t-26 -174z" />
<glyph unicode="&#xff;" horiz-adv-x="1310" d="M-168 -367l96 250q75 -33 164 -33q67 0 137 35.5t123 91.5l-180 850h-160l41 240h484l145 -803q98 114 156.5 256.5t58.5 276.5q0 22 2 30h-164l43 240h469q33 -132 33 -240q0 -116 -50.5 -256t-135.5 -276t-203 -265.5t-246.5 -227t-273 -157t-275.5 -59.5 q-142 0 -264 47zM276 1370q0 74 54.5 122t138.5 48t138.5 -48t54.5 -122q0 -78 -54 -127t-139 -49q-88 0 -140.5 48.5t-52.5 127.5zM752 1370q0 74 53 122t137 48q86 0 139.5 -48t53.5 -122q0 -77 -53.5 -126.5t-139.5 -49.5q-88 0 -139 49t-51 127z" />
<glyph unicode="&#x100;" horiz-adv-x="1669" d="M-90 0l45 248h137l666 1186h514l203 -1186h139l-45 -248h-733l45 248h131l-13 139h-479l-71 -139h131l-45 -248h-625zM633 1577l43 229h725l-43 -229h-725zM668 670h301l-51 481z" />
<glyph unicode="&#x101;" d="M61 442q0 178 75 328.5t204.5 238t282.5 87.5q89 0 160.5 -47.5t109.5 -122.5l25 141h411l-147 -829h141l-43 -238h-537l25 150q-53 -79 -144 -127t-190 -48q-105 0 -192 67t-134 173.5t-47 226.5zM395 1208l43 230h725l-43 -230h-725zM489 461q0 -92 37 -149.5 t101 -57.5q65 0 116.5 55.5t77 137.5t25.5 171q0 96 -35.5 147.5t-99.5 51.5q-67 0 -118.5 -52.5t-77.5 -132.5t-26 -171z" />
<glyph unicode="&#x102;" horiz-adv-x="1669" d="M-90 0l45 248h137l666 1186h514l203 -1186h139l-45 -248h-733l45 248h131l-13 139h-479l-71 -139h131l-45 -248h-625zM668 670h301l-51 481zM698 1808q0 24 7 64h251q-4 -28 -4 -39q0 -90 86 -90q50 0 84.5 37.5t44.5 91.5h271q-40 -158 -152.5 -246t-275.5 -88 q-136 0 -224 78t-88 192z" />
<glyph unicode="&#x103;" d="M61 442q0 178 75 328.5t204.5 238t282.5 87.5q89 0 160.5 -47.5t109.5 -122.5l25 141h411l-147 -829h141l-43 -238h-537l25 150q-53 -79 -144 -127t-190 -48q-105 0 -192 67t-134 173.5t-47 226.5zM461 1440q0 28 6 63h252q-4 -28 -4 -39q0 -90 86 -90q50 0 84.5 37.5 t44.5 91.5h270q-40 -158 -152.5 -246t-275.5 -88q-136 0 -223.5 78.5t-87.5 192.5zM489 461q0 -92 37 -149.5t101 -57.5q65 0 116.5 55.5t77 137.5t25.5 171q0 96 -35.5 147.5t-99.5 51.5q-67 0 -118.5 -52.5t-77.5 -132.5t-26 -171z" />
<glyph unicode="&#x104;" horiz-adv-x="1669" d="M-90 0l45 248h137l666 1186h514l203 -1186h139l-45 -248h-113q-93 -15 -155 -63.5t-62 -108.5q0 -28 17 -47t42 -19q47 0 95 52l94 -154q-112 -109 -283 -109q-100 0 -170.5 57.5t-70.5 145.5q0 151 155 246h-282l45 248h131l-13 139h-479l-71 -139h131l-45 -248h-625z M668 670h301l-51 481z" />
<glyph unicode="&#x105;" d="M61 442q0 178 75 328.5t204.5 238t282.5 87.5q89 0 160.5 -47.5t109.5 -122.5l25 141h411l-147 -829h141l-43 -238h-147q-93 -15 -155.5 -64t-62.5 -108q0 -28 17.5 -47t42.5 -19q46 0 94 52l94 -154q-112 -109 -282 -109q-100 0 -171 57.5t-71 145.5q0 148 156 246 l-27 150q-53 -79 -144 -127t-190 -48q-105 0 -192 67t-134 173.5t-47 226.5zM489 461q0 -92 37 -149.5t101 -57.5q65 0 116.5 55.5t77 137.5t25.5 171q0 96 -35.5 147.5t-99.5 51.5q-67 0 -118.5 -52.5t-77.5 -132.5t-26 -171z" />
<glyph unicode="&#x106;" horiz-adv-x="1462" d="M109 629q0 183 67.5 340.5t182 265.5t269 169.5t326.5 61.5q271 0 564 -123l-82 -462h-291l39 217q-100 59 -228 59q-107 0 -191 -68.5t-130.5 -189t-46.5 -270.5q0 -137 66 -232.5t161 -95.5q104 0 188 61.5t136 163.5l272 -221q-110 -163 -283.5 -248.5t-394.5 -85.5 q-136 0 -253.5 52.5t-198 141.5t-126.5 209.5t-46 254.5zM727 1561l191 305h438l-332 -305h-297z" />
<glyph unicode="&#x107;" horiz-adv-x="1171" d="M61 444q0 141 52.5 263.5t140.5 206t204 131t242 47.5q241 0 465 -93l-63 -362h-260l28 160q-66 32 -137 32q-70 0 -127 -54.5t-87 -139.5t-30 -180q0 -85 45.5 -141t116.5 -56q62 0 117.5 39t89.5 100l234 -155q-76 -131 -212 -201t-309 -70q-232 0 -371 132.5 t-139 340.5zM535 1192l190 305h438l-332 -305h-296z" />
<glyph unicode="&#x108;" horiz-adv-x="1462" d="M109 629q0 183 67.5 340.5t182 265.5t269 169.5t326.5 61.5q271 0 564 -123l-82 -462h-291l39 217q-100 59 -228 59q-107 0 -191 -68.5t-130.5 -189t-46.5 -270.5q0 -137 66 -232.5t161 -95.5q104 0 188 61.5t136 163.5l272 -221q-110 -163 -283.5 -248.5t-394.5 -85.5 q-136 0 -253.5 52.5t-198 141.5t-126.5 209.5t-46 254.5zM512 1561l299 288h330l202 -288h-309l-80 137l-127 -137h-315z" />
<glyph unicode="&#x109;" horiz-adv-x="1171" d="M61 444q0 141 52.5 263.5t140.5 206t204 131t242 47.5q241 0 465 -93l-63 -362h-260l28 160q-66 32 -137 32q-70 0 -127 -54.5t-87 -139.5t-30 -180q0 -85 45.5 -141t116.5 -56q62 0 117.5 39t89.5 100l234 -155q-76 -131 -212 -201t-309 -70q-232 0 -371 132.5 t-139 340.5zM319 1192l299 289h330l203 -289h-309l-80 137l-127 -137h-316z" />
<glyph unicode="&#x10a;" horiz-adv-x="1462" d="M109 629q0 183 67.5 340.5t182 265.5t269 169.5t326.5 61.5q271 0 564 -123l-82 -462h-291l39 217q-100 59 -228 59q-107 0 -191 -68.5t-130.5 -189t-46.5 -270.5q0 -137 66 -232.5t161 -95.5q104 0 188 61.5t136 163.5l272 -221q-110 -163 -283.5 -248.5t-394.5 -85.5 q-136 0 -253.5 52.5t-198 141.5t-126.5 209.5t-46 254.5zM756 1741q0 75 55 121.5t143 46.5t142.5 -46.5t54.5 -121.5q0 -78 -54.5 -127t-142.5 -49q-92 0 -145 48.5t-53 127.5z" />
<glyph unicode="&#x10b;" horiz-adv-x="1171" d="M61 444q0 141 52.5 263.5t140.5 206t204 131t242 47.5q241 0 465 -93l-63 -362h-260l28 160q-66 32 -137 32q-70 0 -127 -54.5t-87 -139.5t-30 -180q0 -85 45.5 -141t116.5 -56q62 0 117.5 39t89.5 100l234 -155q-76 -131 -212 -201t-309 -70q-232 0 -371 132.5 t-139 340.5zM563 1372q0 75 55.5 121.5t143.5 46.5t142 -46.5t54 -121.5q0 -78 -54 -127t-142 -49q-92 0 -145.5 48.5t-53.5 127.5z" />
<glyph unicode="&#x10c;" horiz-adv-x="1462" d="M109 629q0 183 67.5 340.5t182 265.5t269 169.5t326.5 61.5q271 0 564 -123l-82 -462h-291l39 217q-100 59 -228 59q-107 0 -191 -68.5t-130.5 -189t-46.5 -270.5q0 -137 66 -232.5t161 -95.5q104 0 188 61.5t136 163.5l272 -221q-110 -163 -283.5 -248.5t-394.5 -85.5 q-136 0 -253.5 52.5t-198 141.5t-126.5 209.5t-46 254.5zM532 1849h310l80 -137l127 137h315l-299 -288h-330z" />
<glyph unicode="&#x10d;" horiz-adv-x="1171" d="M61 444q0 141 52.5 263.5t140.5 206t204 131t242 47.5q241 0 465 -93l-63 -362h-260l28 160q-66 32 -137 32q-70 0 -127 -54.5t-87 -139.5t-30 -180q0 -85 45.5 -141t116.5 -56q62 0 117.5 39t89.5 100l234 -155q-76 -131 -212 -201t-309 -70q-232 0 -371 132.5 t-139 340.5zM340 1481h309l80 -138l127 138h315l-299 -289h-329z" />
<glyph unicode="&#x10e;" horiz-adv-x="1646" d="M-12 0l41 248h141l160 938h-133l43 248h680q200 0 355 -66t245 -197t90 -309q0 -254 -108.5 -449.5t-309 -304t-463.5 -108.5h-741zM590 1847h309l80 -137l127 137h315l-299 -288h-329zM604 258h113q111 0 206 78.5t151 216t56 301.5q0 162 -71 242t-195 80h-98z" />
<glyph unicode="&#x10f;" horiz-adv-x="1613" d="M61 442q0 178 75 328.5t204 238t281 87.5q89 0 161.5 -47.5t110.5 -122.5l55 317h-141l43 238h551l-219 -1243h141l-43 -238h-539l27 150q-54 -79 -145.5 -127t-188.5 -48q-106 0 -193 67t-133.5 173.5t-46.5 226.5zM489 461q0 -93 36.5 -150t99.5 -57q66 0 118 55.5 t77.5 137.5t25.5 171q0 96 -35.5 147.5t-99.5 51.5q-67 0 -118.5 -52.5t-77.5 -132.5t-26 -171zM1425 1081l99 400h340l-211 -400h-228z" />
<glyph unicode="&#x110;" horiz-adv-x="1679" d="M20 0l41 248h142l63 377h-172l43 237h170l55 324h-133l43 248h680q200 0 355 -66t245 -197t90 -309q0 -254 -108.5 -449.5t-308.5 -304t-463 -108.5h-742zM637 258h113q111 0 206 78.5t151 216t56 301.5q0 162 -71 242t-195 80h-98l-56 -314h222l-43 -237h-220z" />
<glyph unicode="&#x111;" d="M61 442q0 176 75 324t204 233.5t281 85.5q89 0 160.5 -46t109.5 -121l37 204h-207l22 123h207l21 117h-142l21 119h551l-41 -236h141l-22 -123h-142l-155 -884h141l-43 -238h-537l25 150q-53 -79 -144 -127t-190 -48q-105 0 -192 67t-134 173.5t-47 226.5zM489 461 q0 -92 37 -149.5t101 -57.5t115 54t76.5 134t25.5 166q0 97 -35.5 149t-99.5 52q-98 0 -159 -105t-61 -243z" />
<glyph unicode="&#x112;" horiz-adv-x="1257" d="M-12 0l43 248h139l166 938h-141l43 248h1081l-70 -383h-288l24 139h-217l-55 -320h364l-47 -254h-360l-68 -372h240l28 162h291l-74 -406h-1099zM451 1575l43 229h725l-43 -229h-725z" />
<glyph unicode="&#x113;" horiz-adv-x="1271" d="M68 451q0 144 52 266t141.5 204.5t211 128.5t258.5 46q209 0 345 -129t136 -324q0 -114 -36 -209l-695 -4v-4q8 -86 54.5 -136t128.5 -50q74 0 141 29.5t115 78.5l221 -160q-199 -217 -543 -217q-244 0 -387 133.5t-143 346.5zM397 1208l43 230h725l-43 -230h-725z M500 637h305q4 32 4 57q0 68 -30.5 109t-86.5 41q-73 0 -121.5 -54.5t-70.5 -152.5z" />
<glyph unicode="&#x114;" horiz-adv-x="1257" d="M-12 0l43 248h139l166 938h-141l43 248h1081l-70 -383h-288l24 139h-217l-55 -320h364l-47 -254h-360l-68 -372h240l28 162h291l-74 -406h-1099zM516 1806q0 30 6 64h252q-4 -28 -4 -39q0 -90 86 -90q50 0 84.5 37.5t44.5 91.5h270q-40 -158 -152.5 -246t-275.5 -88 q-136 0 -223.5 78t-87.5 192z" />
<glyph unicode="&#x115;" horiz-adv-x="1271" d="M68 451q0 144 52 266t141.5 204.5t211 128.5t258.5 46q209 0 345 -129t136 -324q0 -114 -36 -209l-695 -4v-4q8 -86 54.5 -136t128.5 -50q74 0 141 29.5t115 78.5l221 -160q-199 -217 -543 -217q-244 0 -387 133.5t-143 346.5zM463 1440q0 28 6 63h252q-4 -28 -4 -39 q0 -90 86 -90q50 0 84.5 37.5t44.5 91.5h270q-40 -158 -152.5 -246t-275.5 -88q-136 0 -223.5 78.5t-87.5 192.5zM500 637h305q4 32 4 57q0 68 -30.5 109t-86.5 41q-73 0 -121.5 -54.5t-70.5 -152.5z" />
<glyph unicode="&#x116;" horiz-adv-x="1257" d="M-12 0l43 248h139l166 938h-141l43 248h1081l-70 -383h-288l24 139h-217l-55 -320h364l-47 -254h-360l-68 -372h240l28 162h291l-74 -406h-1099zM655 1739q0 75 55.5 121.5t143.5 46.5t142.5 -46.5t54.5 -121.5q0 -78 -54.5 -127t-142.5 -49q-92 0 -145.5 48.5 t-53.5 127.5z" />
<glyph unicode="&#x117;" horiz-adv-x="1271" d="M68 451q0 144 52 266t141.5 204.5t211 128.5t258.5 46q209 0 345 -129t136 -324q0 -114 -36 -209l-695 -4v-4q8 -86 54.5 -136t128.5 -50q74 0 141 29.5t115 78.5l221 -160q-199 -217 -543 -217q-244 0 -387 133.5t-143 346.5zM500 637h305q4 32 4 57q0 68 -30.5 109 t-86.5 41q-73 0 -121.5 -54.5t-70.5 -152.5zM602 1372q0 75 55.5 121.5t143.5 46.5t142 -46.5t54 -121.5q0 -78 -54 -127t-142 -49q-92 0 -145.5 48.5t-53.5 127.5z" />
<glyph unicode="&#x118;" horiz-adv-x="1257" d="M-12 0l43 248h139l166 938h-141l43 248h1081l-70 -383h-288l24 139h-217l-55 -320h364l-47 -254h-360l-68 -372h240l28 162h291l-74 -406h-51q-93 -15 -155 -63.5t-62 -108.5q0 -28 17.5 -47t42.5 -19q46 0 94 52l94 -154q-112 -109 -283 -109q-100 0 -170.5 57.5 t-70.5 145.5q0 151 155 246h-710z" />
<glyph unicode="&#x119;" horiz-adv-x="1271" d="M68 451q0 144 52 266t141.5 204.5t211 128.5t258.5 46q209 0 345 -129t136 -324q0 -114 -36 -209l-695 -4v-4q8 -86 54.5 -136t128.5 -50q74 0 141 29.5t115 78.5l221 -160q-90 -100 -221 -155q-127 -96 -127 -191q0 -33 20 -56.5t49 -23.5q46 0 92 50l95 -152 q-46 -48 -116 -76t-147 -28q-107 0 -178 56.5t-71 151.5q0 107 120 209q-20 -2 -59 -2q-244 0 -387 133.5t-143 346.5zM500 637h305q4 32 4 57q0 68 -30.5 109t-86.5 41q-73 0 -121.5 -54.5t-70.5 -152.5z" />
<glyph unicode="&#x11a;" horiz-adv-x="1257" d="M-12 0l43 248h139l166 938h-141l43 248h1081l-70 -383h-288l24 139h-217l-55 -320h364l-47 -254h-360l-68 -372h240l28 162h291l-74 -406h-1099zM432 1847h309l80 -137l127 137h316l-299 -288h-330z" />
<glyph unicode="&#x11b;" horiz-adv-x="1271" d="M68 451q0 144 52 266t141.5 204.5t211 128.5t258.5 46q209 0 345 -129t136 -324q0 -114 -36 -209l-695 -4v-4q8 -86 54.5 -136t128.5 -50q74 0 141 29.5t115 78.5l221 -160q-199 -217 -543 -217q-244 0 -387 133.5t-143 346.5zM379 1481h309l80 -138l127 138h315 l-299 -289h-329zM500 637h305q4 32 4 57q0 68 -30.5 109t-86.5 41q-73 0 -121.5 -54.5t-70.5 -152.5z" />
<glyph unicode="&#x11c;" horiz-adv-x="1636" d="M111 637q0 189 68.5 346t188 262t282 163t349.5 58q289 0 621 -110l-70 -395h-290l24 143q-118 59 -262 59q-196 0 -314 -144.5t-118 -381.5q0 -143 72.5 -243.5t185.5 -100.5q114 0 194.5 61t118.5 168h-270l53 287h639l-143 -809h-348l26 150q-192 -179 -426 -179 q-167 0 -301.5 93.5t-207 245.5t-72.5 327zM567 1561l299 288h330l203 -288h-309l-80 137l-127 -137h-316z" />
<glyph unicode="&#x11d;" horiz-adv-x="1372" d="M-8 -272l164 213q118 -99 266 -99q128 0 215.5 50.5t105.5 148.5l23 127q-52 -76 -140 -119t-186 -43q-106 0 -193 64t-134 166.5t-47 218.5q0 175 74 322.5t201.5 233t279.5 85.5q89 0 160.5 -47.5t109.5 -122.5l24 141h410l-178 -1012q-27 -153 -124.5 -259t-248 -158 t-344.5 -52q-260 0 -438 142zM272 1192l299 289h330l203 -289h-309l-80 137l-127 -137h-316zM492 473q0 -89 37.5 -144t101.5 -55t114 54.5t74.5 133.5t24.5 165q0 95 -35.5 142.5t-99.5 47.5q-98 0 -157.5 -102t-59.5 -242z" />
<glyph unicode="&#x11e;" horiz-adv-x="1636" d="M111 637q0 189 68.5 346t188 262t282 163t349.5 58q289 0 621 -110l-70 -395h-290l24 143q-118 59 -262 59q-196 0 -314 -144.5t-118 -381.5q0 -143 72.5 -243.5t185.5 -100.5q114 0 194.5 61t118.5 168h-270l53 287h639l-143 -809h-348l26 150q-192 -179 -426 -179 q-167 0 -301.5 93.5t-207 245.5t-72.5 327zM672 1808q0 30 6 64h252q-4 -28 -4 -39q0 -90 86 -90q50 0 84.5 37.5t44.5 91.5h270q-40 -158 -152.5 -246t-275.5 -88q-136 0 -223.5 78t-87.5 192z" />
<glyph unicode="&#x11f;" horiz-adv-x="1372" d="M-8 -272l164 213q118 -99 266 -99q128 0 215.5 50.5t105.5 148.5l23 127q-52 -76 -140 -119t-186 -43q-106 0 -193 64t-134 166.5t-47 218.5q0 175 74 322.5t201.5 233t279.5 85.5q89 0 160.5 -47.5t109.5 -122.5l24 141h410l-178 -1012q-27 -153 -124.5 -259t-248 -158 t-344.5 -52q-260 0 -438 142zM377 1440q0 28 6 63h252q-4 -28 -4 -39q0 -90 86 -90q50 0 84.5 37.5t44.5 91.5h270q-40 -158 -152.5 -246t-275.5 -88q-136 0 -223.5 78.5t-87.5 192.5zM492 473q0 -89 37.5 -144t101.5 -55t114 54.5t74.5 133.5t24.5 165q0 95 -35.5 142.5 t-99.5 47.5q-98 0 -157.5 -102t-59.5 -242z" />
<glyph unicode="&#x120;" horiz-adv-x="1636" d="M111 637q0 189 68.5 346t188 262t282 163t349.5 58q289 0 621 -110l-70 -395h-290l24 143q-118 59 -262 59q-196 0 -314 -144.5t-118 -381.5q0 -143 72.5 -243.5t185.5 -100.5q114 0 194.5 61t118.5 168h-270l53 287h639l-143 -809h-348l26 150q-192 -179 -426 -179 q-167 0 -301.5 93.5t-207 245.5t-72.5 327zM811 1741q0 75 55.5 121.5t143.5 46.5t142 -46.5t54 -121.5q0 -78 -54 -127t-142 -49q-92 0 -145.5 48.5t-53.5 127.5z" />
<glyph unicode="&#x121;" horiz-adv-x="1372" d="M-8 -272l164 213q118 -99 266 -99q128 0 215.5 50.5t105.5 148.5l23 127q-52 -76 -140 -119t-186 -43q-106 0 -193 64t-134 166.5t-47 218.5q0 175 74 322.5t201.5 233t279.5 85.5q89 0 160.5 -47.5t109.5 -122.5l24 141h410l-178 -1012q-27 -153 -124.5 -259t-248 -158 t-344.5 -52q-260 0 -438 142zM492 473q0 -89 37.5 -144t101.5 -55t114 54.5t74.5 133.5t24.5 165q0 95 -35.5 142.5t-99.5 47.5q-98 0 -157.5 -102t-59.5 -242zM516 1372q0 75 55.5 121.5t143.5 46.5t142 -46.5t54 -121.5q0 -78 -54 -127t-142 -49q-92 0 -145.5 48.5 t-53.5 127.5z" />
<glyph unicode="&#x122;" horiz-adv-x="1636" d="M111 637q0 189 68.5 346t188 262t282 163t349.5 58q289 0 621 -110l-70 -395h-290l24 143q-118 59 -262 59q-196 0 -314 -144.5t-118 -381.5q0 -143 72.5 -243.5t185.5 -100.5q114 0 194.5 61t118.5 168h-270l53 287h639l-143 -809h-348l26 150q-192 -179 -426 -179 q-167 0 -301.5 93.5t-207 245.5t-72.5 327zM459 -543q106 88 106 213q0 73 -45 131l285 142q59 -82 59 -168q0 -220 -338 -408z" />
<glyph unicode="&#x123;" horiz-adv-x="1372" d="M-8 -272l164 213q118 -99 266 -99q128 0 215.5 50.5t105.5 148.5l23 127q-52 -76 -140 -119t-186 -43q-106 0 -193 64t-134 166.5t-47 218.5q0 175 74 322.5t201.5 233t279.5 85.5q89 0 160.5 -47.5t109.5 -122.5l24 141h410l-178 -1012q-27 -153 -124.5 -259t-248 -158 t-344.5 -52q-260 0 -438 142zM492 473q0 -89 37.5 -144t101.5 -55t114 54.5t74.5 133.5t24.5 165q0 95 -35.5 142.5t-99.5 47.5q-98 0 -157.5 -102t-59.5 -242zM516 1315q0 219 338 407l68 -90q-107 -89 -107 -213q0 -73 45 -131l-285 -141q-59 82 -59 168z" />
<glyph unicode="&#x124;" horiz-adv-x="1802" d="M-12 0l41 248h141l166 938h-139l41 248h710l-43 -248h-137l-51 -291h495l54 291h-138l43 248h709l-43 -248h-141l-166 -938h141l-43 -248h-708l47 248h131l59 330h-498l-57 -330h137l-43 -248h-708zM657 1559l299 288h330l203 -288h-309l-80 137l-127 -137h-316z" />
<glyph unicode="&#x125;" horiz-adv-x="1415" d="M74 0l219 1243h-137l39 238h553l-105 -586q54 81 145 136.5t189 55.5q132 0 226.5 -90t94.5 -213q0 -29 -8 -75l-84 -471h144l-43 -238h-551l116 653q5 25 5 31q0 46 -29.5 72t-81.5 26q-66 0 -113 -44t-59 -109l-111 -629h-409zM588 1561l299 288h330l202 -288h-309 l-80 137l-127 -137h-315z" />
<glyph unicode="&#x126;" horiz-adv-x="1781" d="M-12 0l41 248h141l125 702h-143l28 160h142l20 113h-139l35 211h710l-37 -211h-139l-18 -113h479l18 113h-133l35 211h709l-35 -211h-144l-18 -113h139l-26 -160h-142l-125 -702h142l-43 -248h-709l47 248h133l58 330h-480l-57 -330h137l-43 -248h-708zM707 846h479 l20 104h-479z" />
<glyph unicode="&#x127;" horiz-adv-x="1415" d="M74 0l198 1122h-141l23 123h141l18 113h-141l23 123h553l-43 -236h208l-22 -123h-209l-41 -235q54 81 145 135.5t189 54.5q133 0 226 -89.5t93 -213.5q0 -30 -8 -76l-80 -460h144l-43 -238h-551l114 645q4 16 4 31q0 45 -29 71.5t-81 26.5q-66 0 -113 -44t-59 -109 l-109 -621h-409z" />
<glyph unicode="&#x128;" horiz-adv-x="870" d="M-16 0l45 248h141l164 938h-139l43 248h714l-45 -248h-141l-164 -938h141l-45 -248h-714zM227 1552q28 134 111 224t188 90q52 0 104.5 -20.5t97 -41t77.5 -20.5q32 0 55 22t31 52h184q-27 -134 -110 -224t-189 -90q-52 0 -104 20t-96.5 40t-77.5 20q-32 0 -55 -21.5 t-31 -50.5h-185z" />
<glyph unicode="&#x129;" horiz-adv-x="745" d="M66 1186q28 134 111 223.5t188 89.5q52 0 104.5 -20.5t96.5 -41t77 -20.5q32 0 55 22t31 52h184q-27 -134 -110 -223.5t-189 -89.5q-52 0 -104 20t-96.5 39.5t-77.5 19.5q-32 0 -55 -21t-31 -50h-184zM74 0l145 827h-141l43 240h551l-146 -829h142l-43 -238h-551z" />
<glyph unicode="&#x12a;" horiz-adv-x="870" d="M-16 0l45 248h141l164 938h-139l43 248h714l-45 -248h-141l-164 -938h141l-45 -248h-714zM250 1575l43 229h725l-43 -229h-725z" />
<glyph unicode="&#x12b;" horiz-adv-x="745" d="M74 0l145 827h-141l43 240h551l-146 -829h142l-43 -238h-551zM88 1208l43 230h725l-43 -230h-725z" />
<glyph unicode="&#x12c;" horiz-adv-x="870" d="M-16 0l45 248h141l164 938h-139l43 248h714l-45 -248h-141l-164 -938h141l-45 -248h-714zM315 1806q0 24 7 64h251q-4 -28 -4 -39q0 -90 86 -90q50 0 84.5 37.5t44.5 91.5h271q-40 -158 -152.5 -246t-275.5 -88q-136 0 -224 78t-88 192z" />
<glyph unicode="&#x12d;" horiz-adv-x="745" d="M74 0l145 827h-141l43 240h551l-146 -829h142l-43 -238h-551zM154 1440q0 28 6 63h252q-4 -28 -4 -39q0 -90 86 -90q50 0 84.5 37.5t44.5 91.5h270q-40 -158 -152.5 -246t-275.5 -88q-136 0 -223.5 78.5t-87.5 192.5z" />
<glyph unicode="&#x12e;" horiz-adv-x="870" d="M-16 0l45 248h141l164 938h-139l43 248h714l-45 -248h-141l-164 -938h141l-45 -248h-86q-93 -15 -155 -63.5t-62 -108.5q0 -28 17.5 -47t42.5 -19q46 0 94 52l94 -154q-112 -109 -283 -109q-100 0 -170.5 57.5t-70.5 145.5q0 151 155 246h-290z" />
<glyph unicode="&#x12f;" horiz-adv-x="753" d="M49 -246q0 150 156 246h-131l145 827h-141l43 240h551l-146 -829h142l-43 -238h-82q-93 -15 -155 -63.5t-62 -108.5q0 -28 17 -47t42 -19q46 0 94 52l94 -154q-112 -109 -282 -109q-100 0 -171 57.5t-71 145.5zM285 1382q0 92 62 149.5t163 57.5t164 -57.5t63 -149.5 t-63 -149t-164 -57q-105 0 -165 56.5t-60 149.5z" />
<glyph unicode="&#x130;" horiz-adv-x="870" d="M-16 0l45 248h141l164 938h-139l43 248h714l-45 -248h-141l-164 -938h141l-45 -248h-714zM455 1739q0 75 55 121.5t143 46.5t142.5 -46.5t54.5 -121.5q0 -78 -54.5 -127t-142.5 -49q-92 0 -145 48.5t-53 127.5z" />
<glyph unicode="&#x131;" horiz-adv-x="745" d="M74 0l145 827h-141l43 240h551l-146 -829h142l-43 -238h-551z" />
<glyph unicode="&#x132;" horiz-adv-x="1740" d="M-16 0l45 248h141l164 938h-139l43 248h714l-45 -248h-141l-164 -938h141l-45 -248h-714zM631 -307l92 244q60 -25 127 -25q72 0 123.5 46.5t64.5 127.5l197 1100h-191l46 248h761l-45 -248h-143l-199 -1129q-34 -194 -192.5 -303.5t-378.5 -109.5q-158 0 -262 49z" />
<glyph unicode="&#x133;" horiz-adv-x="1540" d="M74 0l145 827h-141l43 240h551l-146 -829h142l-43 -238h-551zM285 1382q0 92 62 149.5t163 57.5t164 -57.5t63 -149.5t-63 -149t-164 -57q-105 0 -165 56.5t-60 149.5zM543 -365l78 246q60 -31 112 -31q123 0 146 117l151 860h-156l44 240h565l-199 -1122 q-29 -163 -165.5 -253.5t-338.5 -90.5q-134 0 -237 34zM1090 1382q0 92 63 149.5t164 57.5t163 -57.5t62 -149.5t-62 -149t-163 -57q-105 0 -166 56.5t-61 149.5z" />
<glyph unicode="&#x134;" horiz-adv-x="870" d="M-240 -307l93 244q60 -25 127 -25q72 0 123.5 46.5t64.5 127.5l197 1100h-191l45 248h762l-45 -248h-143l-199 -1129q-34 -194 -192.5 -303.5t-378.5 -109.5q-159 0 -263 49zM182 1559l299 288h330l203 -288h-309l-80 137l-127 -137h-316z" />
<glyph unicode="&#x135;" horiz-adv-x="784" d="M-203 -365l78 246q60 -31 113 -31q122 0 145 117l152 860h-156l43 240h565l-198 -1122q-29 -163 -165.5 -253.5t-338.5 -90.5q-135 0 -238 34zM82 1192l299 289h330l202 -289h-309l-80 137l-127 -137h-315z" />
<glyph unicode="&#x136;" horiz-adv-x="1650" d="M-12 0l41 248h143l168 938h-141l43 248h676l-44 -248h-106l-70 -395l428 405h-127l41 238h686l-45 -248h-143l-428 -377l340 -561h152l-46 -248h-765l40 233h119l-260 500l-86 -485h103l-41 -248h-678zM485 -543q107 89 107 213q0 73 -45 131l284 142q60 -83 60 -168 q0 -220 -338 -408z" />
<glyph unicode="&#x137;" horiz-adv-x="1343" d="M74 0l219 1243h-139l41 238h553l-138 -772q103 32 177.5 127.5t107.5 230.5h461q-42 -149 -157 -263.5t-267 -180.5l198 -385h158l-43 -238h-442l-221 545l-97 -545h-411zM373 -543q106 88 106 213q0 73 -45 131l285 142q59 -82 59 -168q0 -220 -338 -408z" />
<glyph unicode="&#x138;" horiz-adv-x="1341" d="M74 0l145 827h-141l43 240h551l-64 -356q105 31 179.5 126.5t107.5 229.5h459q-42 -149 -156 -262.5t-266 -181.5l196 -385h158l-43 -238h-442l-221 547l-97 -547h-409z" />
<glyph unicode="&#x139;" horiz-adv-x="1247" d="M-12 0l43 248h139l168 938h-143l45 248h725l-45 -248h-152l-166 -938h244l39 223h291l-82 -471h-1106zM401 1559l191 305h438l-332 -305h-297z" />
<glyph unicode="&#x13a;" horiz-adv-x="747" d="M76 0l217 1243h-139l41 238h553l-218 -1243h140l-41 -238h-553zM379 1602l190 305h439l-332 -305h-297z" />
<glyph unicode="&#x13b;" horiz-adv-x="1247" d="M-12 0l43 248h139l168 938h-143l45 248h725l-45 -248h-152l-166 -938h244l39 223h291l-82 -471h-1106zM350 -543q107 89 107 213q0 73 -45 131l284 142q60 -83 60 -168q0 -220 -338 -408z" />
<glyph unicode="&#x13c;" horiz-adv-x="747" d="M39 -543q106 88 106 213q0 73 -45 131l285 142q59 -82 59 -168q0 -220 -338 -408zM76 0l217 1243h-139l41 238h553l-218 -1243h140l-41 -238h-553z" />
<glyph unicode="&#x13d;" horiz-adv-x="1259" d="M-12 0l43 248h139l168 938h-143l45 248h712l-45 -248h-139l-166 -938h234l41 223h290l-84 -471h-1095zM975 1049l92 432l365 30l-209 -430z" />
<glyph unicode="&#x13e;" horiz-adv-x="976" d="M76 0l217 1243h-139l41 238h553l-218 -1243h140l-41 -238h-553zM791 1081l98 400h338l-209 -400h-227z" />
<glyph unicode="&#x13f;" horiz-adv-x="1308" d="M-12 0l43 248h139l168 938h-143l45 248h725l-45 -248h-152l-166 -938h264l35 201h291l-80 -449h-1124zM920 795q0 86 67 149.5t156 63.5t152 -63t63 -150q0 -88 -63 -151.5t-152 -63.5q-90 0 -156.5 64t-66.5 151z" />
<glyph unicode="&#x140;" horiz-adv-x="1333" d="M76 0l217 1243h-139l41 238h553l-218 -1243h140l-41 -238h-553zM848 760q0 96 75 167.5t175 71.5q99 0 170 -71t71 -168q0 -99 -71 -170.5t-170 -71.5q-100 0 -175 72t-75 170z" />
<glyph unicode="&#x141;" horiz-adv-x="1312" d="M53 0l43 248h140l55 303l-223 -80l41 231l223 80l71 404h-143l45 248h725l-45 -248h-151l-41 -238l303 111l-39 -232l-305 -110l-84 -469h243l39 223h291l-82 -471h-1106z" />
<glyph unicode="&#x142;" horiz-adv-x="849" d="M-2 496l41 225l221 84l76 438h-139l41 238h553l-89 -506l244 94l-41 -227l-241 -92l-91 -512h140l-41 -238h-553l100 580z" />
<glyph unicode="&#x143;" horiz-adv-x="1787" d="M-12 0l41 248h143l164 938h-139l43 248h598l403 -899l115 651h-144l45 248h623l-45 -248h-139l-209 -1186h-467l-395 897l-115 -649h143l-45 -248h-620zM879 1561l190 305h438l-331 -305h-297z" />
<glyph unicode="&#x144;" horiz-adv-x="1413" d="M74 0l145 827h-141l43 240h551l-31 -172q56 81 146.5 136.5t187.5 55.5q132 0 226.5 -90t94.5 -213q0 -29 -8 -75l-82 -471h144l-43 -238h-551l114 653q4 20 4 31q0 46 -29 72t-81 26q-65 0 -112 -44t-58 -109l-111 -629h-409zM666 1192l190 305h438l-331 -305h-297z" />
<glyph unicode="&#x145;" horiz-adv-x="1787" d="M-12 0l41 248h143l164 938h-139l43 248h598l403 -899l115 651h-144l45 248h623l-45 -248h-139l-209 -1186h-467l-395 897l-115 -649h143l-45 -248h-620zM537 -543q106 88 106 213q0 73 -45 131l285 142q59 -82 59 -168q0 -220 -338 -408z" />
<glyph unicode="&#x146;" horiz-adv-x="1413" d="M74 0l145 827h-141l43 240h551l-31 -172q56 81 146.5 136.5t187.5 55.5q132 0 226.5 -90t94.5 -213q0 -29 -8 -75l-82 -471h144l-43 -238h-551l114 653q4 20 4 31q0 46 -29 72t-81 26q-65 0 -112 -44t-58 -109l-111 -629h-409zM385 -543q107 89 107 213q0 71 -46 131 l285 142q60 -83 60 -168q0 -220 -338 -408z" />
<glyph unicode="&#x147;" horiz-adv-x="1787" d="M-12 0l41 248h143l164 938h-139l43 248h598l403 -899l115 651h-144l45 248h623l-45 -248h-139l-209 -1186h-467l-395 897l-115 -649h143l-45 -248h-620zM684 1849h309l80 -137l127 137h316l-299 -288h-330z" />
<glyph unicode="&#x148;" horiz-adv-x="1413" d="M74 0l145 827h-141l43 240h551l-31 -172q56 81 146.5 136.5t187.5 55.5q132 0 226.5 -90t94.5 -213q0 -29 -8 -75l-82 -471h144l-43 -238h-551l114 653q4 20 4 31q0 46 -29 72t-81 26q-65 0 -112 -44t-58 -109l-111 -629h-409zM471 1481h309l80 -138l127 138h316 l-299 -289h-330z" />
<glyph unicode="&#x149;" horiz-adv-x="1738" d="M100 1100q129 126 129 295q0 90 -47 166l312 149q55 -93 55 -192q0 -261 -352 -512zM399 0l146 827h-142l43 240h551l-30 -172q56 82 146.5 137t186.5 55q133 0 227.5 -90.5t94.5 -212.5q0 -29 -8 -75l-82 -471h143l-43 -238h-551l115 653q4 20 4 31q0 46 -29 72t-81 26 q-65 0 -112 -44t-58 -109l-111 -629h-410z" />
<glyph unicode="&#x14a;" horiz-adv-x="1789" d="M-12 0l41 248h143l164 938h-139l43 248h577l426 -893l115 645h-141l43 248h622l-45 -248h-139l-219 -1241q-29 -162 -165 -253t-337 -91q-135 0 -238 34l76 246q64 -31 115 -31q63 0 103 28t54 79l3 4l-465 938l-115 -651h143l-45 -248h-620z" />
<glyph unicode="&#x14b;" d="M74 0l145 827h-141l43 240h551l-31 -172q56 82 146 137t186 55q133 0 227 -92t94 -217q0 -36 -8 -76l-131 -757q-29 -166 -164.5 -255t-339.5 -89q-134 0 -235 34l76 246q60 -31 114 -31q122 0 144 117l118 686q4 20 4 31q0 46 -28.5 72t-79.5 26q-65 0 -112 -44 t-58 -109l-111 -629h-409z" />
<glyph unicode="&#x14c;" horiz-adv-x="1716" d="M106 616q0 184 67.5 342t185 268.5t281 173t351.5 62.5q312 0 498 -175t186 -456q0 -250 -111.5 -446t-313.5 -305t-462 -109q-157 0 -286 48.5t-215.5 134t-133.5 204t-47 258.5zM586 616q0 -148 62.5 -241.5t164.5 -93.5q103 0 190.5 72.5t139 199t51.5 278.5 q0 148 -60 235t-167 87q-152 0 -266.5 -154t-114.5 -383zM639 1577l43 229h725l-43 -229h-725z" />
<glyph unicode="&#x14d;" horiz-adv-x="1318" d="M63 457q0 192 89 338t246 223.5t358 77.5q152 0 270 -63t181 -170t63 -238q0 -297 -189.5 -475.5t-502.5 -178.5q-155 0 -273.5 65.5t-180 175t-61.5 245.5zM395 1208l43 230h725l-43 -230h-725zM492 463q0 -96 32.5 -154.5t93.5 -58.5q95 0 159.5 110t64.5 258 q0 89 -33 144t-94 55q-94 0 -158.5 -102.5t-64.5 -251.5z" />
<glyph unicode="&#x14e;" horiz-adv-x="1716" d="M106 616q0 184 67.5 342t185 268.5t281 173t351.5 62.5q312 0 498 -175t186 -456q0 -250 -111.5 -446t-313.5 -305t-462 -109q-157 0 -286 48.5t-215.5 134t-133.5 204t-47 258.5zM586 616q0 -148 62.5 -241.5t164.5 -93.5q103 0 190.5 72.5t139 199t51.5 278.5 q0 148 -60 235t-167 87q-152 0 -266.5 -154t-114.5 -383zM705 1808q0 30 6 64h252q-5 -35 -5 -39q0 -90 86 -90q50 0 85 37.5t45 91.5h270q-40 -158 -152.5 -246t-275.5 -88q-136 0 -223.5 78t-87.5 192z" />
<glyph unicode="&#x14f;" horiz-adv-x="1318" d="M63 457q0 192 89 338t246 223.5t358 77.5q152 0 270 -63t181 -170t63 -238q0 -297 -189.5 -475.5t-502.5 -178.5q-155 0 -273.5 65.5t-180 175t-61.5 245.5zM461 1440q0 28 6 63h252q-4 -28 -4 -39q0 -90 86 -90q50 0 84.5 37.5t44.5 91.5h270q-40 -158 -152.5 -246 t-275.5 -88q-136 0 -223.5 78.5t-87.5 192.5zM492 463q0 -96 32.5 -154.5t93.5 -58.5q95 0 159.5 110t64.5 258q0 89 -33 144t-94 55q-94 0 -158.5 -102.5t-64.5 -251.5z" />
<glyph unicode="&#x150;" horiz-adv-x="1716" d="M106 616q0 184 67.5 342t185 268.5t281 173t351.5 62.5q312 0 498 -175t186 -456q0 -250 -111.5 -446t-313.5 -305t-462 -109q-157 0 -286 48.5t-215.5 134t-133.5 204t-47 258.5zM586 616q0 -148 62.5 -241.5t164.5 -93.5q103 0 190.5 72.5t139 199t51.5 278.5 q0 148 -60 235t-167 87q-152 0 -266.5 -154t-114.5 -383zM631 1561l166 305h342l-254 -305h-254zM1059 1561l166 305h342l-254 -305h-254z" />
<glyph unicode="&#x151;" horiz-adv-x="1318" d="M63 457q0 192 89 338t246 223.5t358 77.5q152 0 270 -63t181 -170t63 -238q0 -297 -189.5 -475.5t-502.5 -178.5q-155 0 -273.5 65.5t-180 175t-61.5 245.5zM387 1192l166 305h342l-254 -305h-254zM492 463q0 -96 32.5 -154.5t93.5 -58.5q95 0 159.5 110t64.5 258 q0 89 -33 144t-94 55q-94 0 -158.5 -102.5t-64.5 -251.5zM815 1192l166 305h342l-254 -305h-254z" />
<glyph unicode="&#x152;" horiz-adv-x="2211" d="M109 621q0 186 66 343.5t182 266.5t278 170t350 61q109 0 207 -28h1085l-67 -383h-289l23 127h-404q84 -135 100 -297v-4h396l-49 -269h-367q-50 -202 -170 -352h348l29 150h289l-72 -406h-1010q-116 -29 -235 -29q-156 0 -286.5 50.5t-218.5 137.5t-136.5 206.5 t-48.5 255.5zM588 623q0 -144 65.5 -243t167.5 -99q156 0 259.5 152.5t103.5 391.5q0 144 -59.5 236t-161.5 92q-154 0 -264.5 -148.5t-110.5 -381.5z" />
<glyph unicode="&#x153;" horiz-adv-x="2033" d="M63 457q0 192 89 338t244 223.5t352 77.5q196 0 346 -150q173 150 399 150q209 0 345 -129t136 -324q0 -111 -37 -209l-694 -4v-8q9 -82 58.5 -132t130.5 -50q143 0 249 106l222 -160q-203 -215 -533 -215q-219 0 -364 152q-182 -152 -426 -152q-117 0 -215 38 t-163.5 103.5t-102 154.5t-36.5 190zM492 463q0 -95 34 -154t95 -59q62 0 113.5 51.5t80.5 136t29 180.5q0 89 -33.5 144t-93.5 55q-95 0 -160 -102.5t-65 -251.5zM1262 637h305q4 32 4 57q0 68 -30.5 109t-86.5 41q-73 0 -121.5 -54.5t-70.5 -152.5z" />
<glyph unicode="&#x154;" horiz-adv-x="1536" d="M-12 0l41 248h141l168 938h-141l43 248h768q204 0 336.5 -101t132.5 -276q0 -68 -29 -131t-78 -112.5t-108 -87.5t-125 -64l192 -414h158l-45 -248h-486l-217 586h-77l-60 -338h129l-43 -248h-700zM702 807h72q95 0 163.5 66t68.5 176q0 72 -43.5 111.5t-116.5 39.5h-76z M719 1559l190 305h439l-332 -305h-297z" />
<glyph unicode="&#x155;" horiz-adv-x="1075" d="M74 0l145 827h-141l43 240h543l-43 -254q66 124 164.5 202.5t197.5 78.5q90 0 166 -39l-203 -400q-87 60 -184 60q-153 0 -174 -121l-105 -594h-409zM522 1192l191 305h438l-332 -305h-297z" />
<glyph unicode="&#x156;" horiz-adv-x="1536" d="M-12 0l41 248h141l168 938h-141l43 248h768q204 0 336.5 -101t132.5 -276q0 -68 -29 -131t-78 -112.5t-108 -87.5t-125 -64l192 -414h158l-45 -248h-486l-217 586h-77l-60 -338h129l-43 -248h-700zM467 -543q106 88 106 213q0 73 -45 131l285 142q59 -82 59 -168 q0 -220 -337 -408zM702 807h72q95 0 163.5 66t68.5 176q0 72 -43.5 111.5t-116.5 39.5h-76z" />
<glyph unicode="&#x157;" horiz-adv-x="1075" d="M16 -543q107 89 107 213q0 73 -45 131l284 142q60 -83 60 -168q0 -220 -338 -408zM74 0l145 827h-141l43 240h543l-43 -254q66 124 164.5 202.5t197.5 78.5q90 0 166 -39l-203 -400q-87 60 -184 60q-153 0 -174 -121l-105 -594h-409z" />
<glyph unicode="&#x158;" horiz-adv-x="1536" d="M-12 0l41 248h141l168 938h-141l43 248h768q204 0 336.5 -101t132.5 -276q0 -68 -29 -131t-78 -112.5t-108 -87.5t-125 -64l192 -414h158l-45 -248h-486l-217 586h-77l-60 -338h129l-43 -248h-700zM524 1847h310l79 -137l127 137h316l-299 -288h-330zM702 807h72 q95 0 163.5 66t68.5 176q0 72 -43.5 111.5t-116.5 39.5h-76z" />
<glyph unicode="&#x159;" horiz-adv-x="1075" d="M74 0l145 827h-141l43 240h543l-43 -254q66 124 164.5 202.5t197.5 78.5q90 0 166 -39l-203 -400q-87 60 -184 60q-153 0 -174 -121l-105 -594h-409zM328 1481h309l80 -138l127 138h315l-299 -289h-330z" />
<glyph unicode="&#x15a;" horiz-adv-x="1288" d="M20 47l80 449h291l-35 -193q98 -45 219 -45q75 0 126 37.5t51 99.5q0 44 -30.5 80.5t-80 64t-109 55t-119 62.5t-109 77.5t-81.5 108t-33 146.5q-2 141 81 251.5t212.5 167t276.5 56.5q243 0 534 -94l-71 -397h-291l29 157q-88 56 -189 56q-60 0 -100.5 -33.5 t-40.5 -89.5q0 -36 24.5 -66t64 -50.5t90.5 -44t104.5 -45t104.5 -55t90.5 -73t64 -100.5t24.5 -135q0 -159 -80.5 -279.5t-214 -182t-297.5 -61.5q-282 0 -586 76zM582 1561l190 305h438l-331 -305h-297z" />
<glyph unicode="&#x15b;" horiz-adv-x="1148" d="M18 41l60 328h260l-23 -119q97 -43 203 -43q47 0 79 23.5t32 62.5q0 26 -21 46t-55 33.5t-77.5 29t-89 30t-89 39.5t-77.5 55t-55.5 78t-21.5 107q-1 172 138.5 276.5t339.5 104.5q235 0 471 -70l-50 -283h-260l15 86q-74 41 -162 41q-40 0 -65 -22t-25 -56 q0 -25 27 -43.5t70.5 -32t96.5 -28.5t105.5 -38.5t96.5 -55t71.5 -85.5t27.5 -124q1 -190 -145 -300t-371 -110q-259 0 -506 70zM457 1192l190 305h438l-331 -305h-297z" />
<glyph unicode="&#x15c;" horiz-adv-x="1288" d="M20 47l80 449h291l-35 -193q98 -45 219 -45q75 0 126 37.5t51 99.5q0 44 -30.5 80.5t-80 64t-109 55t-119 62.5t-109 77.5t-81.5 108t-33 146.5q-2 141 81 251.5t212.5 167t276.5 56.5q243 0 534 -94l-71 -397h-291l29 157q-88 56 -189 56q-60 0 -100.5 -33.5 t-40.5 -89.5q0 -36 24.5 -66t64 -50.5t90.5 -44t104.5 -45t104.5 -55t90.5 -73t64 -100.5t24.5 -135q0 -159 -80.5 -279.5t-214 -182t-297.5 -61.5q-282 0 -586 76zM367 1561l299 288h329l203 -288h-309l-80 137l-127 -137h-315z" />
<glyph unicode="&#x15d;" horiz-adv-x="1148" d="M18 41l60 328h260l-23 -119q97 -43 203 -43q47 0 79 23.5t32 62.5q0 26 -21 46t-55 33.5t-77.5 29t-89 30t-89 39.5t-77.5 55t-55.5 78t-21.5 107q-1 172 138.5 276.5t339.5 104.5q235 0 471 -70l-50 -283h-260l15 86q-74 41 -162 41q-40 0 -65 -22t-25 -56 q0 -25 27 -43.5t70.5 -32t96.5 -28.5t105.5 -38.5t96.5 -55t71.5 -85.5t27.5 -124q1 -190 -145 -300t-371 -110q-259 0 -506 70zM242 1192l299 289h329l203 -289h-309l-80 137l-127 -137h-315z" />
<glyph unicode="&#x15e;" horiz-adv-x="1288" d="M20 47l80 449h291l-35 -193q98 -45 219 -45q75 0 126 37.5t51 99.5q0 44 -30.5 80.5t-80 64t-109 55t-119 62.5t-109 77.5t-81.5 108t-33 146.5q-2 141 81 251.5t212.5 167t276.5 56.5q243 0 534 -94l-71 -397h-291l29 157q-88 56 -189 56q-60 0 -100.5 -33.5 t-40.5 -89.5q0 -36 24.5 -66t64 -50.5t90.5 -44t104.5 -45t104.5 -55t90.5 -73t64 -100.5t24.5 -135q0 -215 -139 -352.5t-357 -164.5l-28 -75q70 -3 120 -47t50 -107q0 -112 -98.5 -176t-239.5 -64q-79 0 -146 31l74 166q29 -22 80 -22q33 0 56.5 14t23.5 43q0 25 -20 40 t-46 15q-37 0 -65 -14l72 192q-260 9 -515 74z" />
<glyph unicode="&#x15f;" horiz-adv-x="1148" d="M18 41l60 328h260l-23 -119q97 -43 203 -43q47 0 79 23.5t32 62.5q0 26 -21 46t-55 33.5t-77.5 29t-89 30t-89 39.5t-77.5 55t-55.5 78t-21.5 107q-1 172 138.5 276.5t339.5 104.5q235 0 471 -70l-50 -283h-260l15 86q-74 41 -162 41q-40 0 -65 -22t-25 -56 q0 -25 27 -43.5t70.5 -32t96.5 -28.5t105.5 -38.5t96.5 -55t71.5 -85.5t27.5 -124q1 -168 -116 -275t-306 -129l-28 -75q70 -3 120 -47t50 -107q0 -112 -98.5 -176t-239.5 -64q-79 0 -146 31l74 166q29 -22 80 -22q33 0 56.5 14t23.5 43q0 25 -20 40t-46 15q-37 0 -65 -14 l72 192q-223 9 -433 68z" />
<glyph unicode="&#x160;" horiz-adv-x="1288" d="M20 47l80 449h291l-35 -193q98 -45 219 -45q75 0 126 37.5t51 99.5q0 44 -30.5 80.5t-80 64t-109 55t-119 62.5t-109 77.5t-81.5 108t-33 146.5q-2 141 81 251.5t212.5 167t276.5 56.5q243 0 534 -94l-71 -397h-291l29 157q-88 56 -189 56q-60 0 -100.5 -33.5 t-40.5 -89.5q0 -36 24.5 -66t64 -50.5t90.5 -44t104.5 -45t104.5 -55t90.5 -73t64 -100.5t24.5 -135q0 -159 -80.5 -279.5t-214 -182t-297.5 -61.5q-282 0 -586 76zM387 1849h309l80 -137l127 137h316l-299 -288h-330z" />
<glyph unicode="&#x161;" horiz-adv-x="1148" d="M18 41l60 328h260l-23 -119q97 -43 203 -43q47 0 79 23.5t32 62.5q0 26 -21 46t-55 33.5t-77.5 29t-89 30t-89 39.5t-77.5 55t-55.5 78t-21.5 107q-1 172 138.5 276.5t339.5 104.5q235 0 471 -70l-50 -283h-260l15 86q-74 41 -162 41q-40 0 -65 -22t-25 -56 q0 -25 27 -43.5t70.5 -32t96.5 -28.5t105.5 -38.5t96.5 -55t71.5 -85.5t27.5 -124q1 -190 -145 -300t-371 -110q-259 0 -506 70zM262 1481h309l80 -138l127 138h316l-299 -289h-330z" />
<glyph unicode="&#x162;" horiz-adv-x="1445" d="M121 956l86 478h1352l-84 -478h-291l41 230h-170l-166 -938h172l-45 -248h-275l-36 -98q70 -3 119.5 -47t49.5 -107q0 -112 -98 -176t-239 -64q-79 0 -146 31l74 166q29 -22 80 -22q33 0 56.5 14t23.5 43q0 25 -20 40t-46 15q-37 0 -65 -14l81 219h-333l45 248h170 l166 938h-172l-39 -230h-291z" />
<glyph unicode="&#x163;" horiz-adv-x="876" d="M66 827l43 240h139l45 254h412l-46 -254h203l-43 -240h-203l-79 -452q-2 -12 -2 -35q0 -45 29.5 -70.5t76.5 -25.5q54 0 113 16l34 -242q-125 -32 -290 -32h-19l-33 -84q70 -3 120 -47t50 -107q0 -112 -98 -176t-239 -64q-79 0 -146 31l74 166q29 -22 80 -22 q33 0 56.5 14t23.5 43q0 25 -20 40t-46 15q-37 0 -65 -14l86 231q-98 32 -150.5 105.5t-52.5 177.5q0 28 8 82l80 450h-141z" />
<glyph unicode="&#x164;" horiz-adv-x="1445" d="M121 956l86 478h1352l-84 -478h-291l41 230h-170l-166 -938h172l-45 -248h-774l45 248h170l166 938h-172l-39 -230h-291zM516 1849h309l80 -137l127 137h316l-299 -288h-330z" />
<glyph unicode="&#x165;" horiz-adv-x="905" d="M66 827l43 240h139l45 254h412l-46 -254h203l-43 -240h-203l-79 -452q-2 -12 -2 -35q0 -45 29.5 -70.5t76.5 -25.5q54 0 113 16l34 -242q-125 -32 -290 -32q-181 0 -280 81.5t-99 227.5q0 28 8 82l80 450h-141zM786 1178l99 401h340l-211 -401h-228z" />
<glyph unicode="&#x166;" horiz-adv-x="1445" d="M121 956l86 478h1352l-84 -478h-291l41 230h-170l-70 -398h244l-37 -213h-246l-57 -327h172l-45 -248h-774l45 248h170l57 327h-221l37 213h223l70 398h-172l-39 -230h-291z" />
<glyph unicode="&#x167;" horiz-adv-x="874" d="M27 496l32 190h123l25 141h-141l43 240h139l45 254h412l-46 -254h203l-43 -240h-203l-24 -141h221l-33 -190h-223l-20 -121q-2 -12 -2 -35q0 -45 29.5 -70.5t76.5 -25.5q54 0 113 16l34 -242q-125 -32 -290 -32q-181 0 -280 81.5t-99 227.5q0 28 8 82l20 119h-120z" />
<glyph unicode="&#x168;" horiz-adv-x="1683" d="M166 1186l45 248h709l-46 -248h-139l-121 -682q-6 -24 -6 -55q0 -79 49.5 -124.5t145.5 -45.5q97 0 167 60t85 153l123 694h-142l45 248h709l-45 -248h-135l-121 -688q-45 -255 -233 -391t-488 -136q-266 0 -428 128.5t-162 326.5q0 52 8 96l117 664h-137zM616 1554 q28 134 111 224t188 90q52 0 104.5 -20.5t97 -41t77.5 -20.5q32 0 55 22t31 52h184q-27 -134 -110 -224t-189 -90q-52 0 -104 20t-96.5 40t-77.5 20q-32 0 -55 -21.5t-31 -50.5h-185z" />
<glyph unicode="&#x169;" horiz-adv-x="1390" d="M66 827l43 240h550l-116 -653q-2 -10 -2 -31q0 -45 25 -72.5t65 -27.5q62 0 107 39t57 106l112 639h410l-146 -829h142l-43 -238h-543l29 164q-59 -81 -153.5 -131.5t-199.5 -50.5q-126 0 -206 87.5t-80 209.5q0 32 8 90l82 458h-141zM379 1186q28 134 111 223.5 t188 89.5q52 0 104.5 -20.5t96.5 -41t77 -20.5q32 0 55 22t31 52h185q-27 -134 -110 -223.5t-189 -89.5q-52 0 -104 20t-97 39.5t-78 19.5q-32 0 -55 -21t-31 -50h-184z" />
<glyph unicode="&#x16a;" horiz-adv-x="1683" d="M166 1186l45 248h709l-46 -248h-139l-121 -682q-6 -24 -6 -55q0 -79 49.5 -124.5t145.5 -45.5q97 0 167 60t85 153l123 694h-142l45 248h709l-45 -248h-135l-121 -688q-45 -255 -233 -391t-488 -136q-266 0 -428 128.5t-162 326.5q0 52 8 96l117 664h-137zM639 1577 l43 229h725l-43 -229h-725z" />
<glyph unicode="&#x16b;" horiz-adv-x="1390" d="M66 827l43 240h550l-116 -653q-2 -10 -2 -31q0 -45 25 -72.5t65 -27.5q62 0 107 39t57 106l112 639h410l-146 -829h142l-43 -238h-543l29 164q-59 -81 -153.5 -131.5t-199.5 -50.5q-126 0 -206 87.5t-80 209.5q0 32 8 90l82 458h-141zM401 1208l43 230h725l-43 -230h-725 z" />
<glyph unicode="&#x16c;" horiz-adv-x="1683" d="M166 1186l45 248h709l-46 -248h-139l-121 -682q-6 -24 -6 -55q0 -79 49.5 -124.5t145.5 -45.5q97 0 167 60t85 153l123 694h-142l45 248h709l-45 -248h-135l-121 -688q-45 -255 -233 -391t-488 -136q-266 0 -428 128.5t-162 326.5q0 52 8 96l117 664h-137zM705 1808 q0 30 6 64h252q-5 -35 -5 -39q0 -90 86 -90q50 0 85 37.5t45 91.5h270q-40 -158 -152.5 -246t-275.5 -88q-136 0 -223.5 78t-87.5 192z" />
<glyph unicode="&#x16d;" horiz-adv-x="1390" d="M66 827l43 240h550l-116 -653q-2 -10 -2 -31q0 -45 25 -72.5t65 -27.5q62 0 107 39t57 106l112 639h410l-146 -829h142l-43 -238h-543l29 164q-59 -81 -153.5 -131.5t-199.5 -50.5q-126 0 -206 87.5t-80 209.5q0 32 8 90l82 458h-141zM467 1440q0 28 6 63h252 q-4 -28 -4 -39q0 -90 86 -90q50 0 84.5 37.5t44.5 91.5h270q-40 -158 -152.5 -246t-275.5 -88q-136 0 -223.5 78.5t-87.5 192.5z" />
<glyph unicode="&#x16e;" horiz-adv-x="1683" d="M166 1186l45 248h709l-46 -248h-139l-121 -682q-6 -24 -6 -55q0 -79 49.5 -124.5t145.5 -45.5q97 0 167 60t85 153l123 694h-142l45 248h709l-45 -248h-135l-121 -688q-45 -255 -233 -391t-488 -136q-266 0 -428 128.5t-162 326.5q0 52 8 96l117 664h-137zM782 1755 q0 108 89.5 178t215.5 70q106 0 178 -58.5t72 -146.5q0 -111 -90 -182.5t-217 -71.5q-108 0 -178 60.5t-70 150.5zM971 1761q0 -33 19 -52t54 -19q43 0 73 27t30 67q0 32 -20 53t-54 21q-43 0 -72.5 -28t-29.5 -69z" />
<glyph unicode="&#x16f;" horiz-adv-x="1390" d="M66 827l43 240h550l-116 -653q-2 -10 -2 -31q0 -45 25 -72.5t65 -27.5q62 0 107 39t57 106l112 639h410l-146 -829h142l-43 -238h-543l29 164q-59 -81 -153.5 -131.5t-199.5 -50.5q-126 0 -206 87.5t-80 209.5q0 32 8 90l82 458h-141zM545 1386q0 108 89.5 178t215.5 70 q106 0 178 -58.5t72 -145.5q0 -111 -90 -182.5t-217 -71.5q-108 0 -178 60t-70 150zM733 1393q0 -33 19.5 -52.5t54.5 -19.5q43 0 72.5 27t29.5 67q0 32 -19.5 53t-53.5 21q-43 0 -73 -27.5t-30 -68.5z" />
<glyph unicode="&#x170;" horiz-adv-x="1683" d="M166 1186l45 248h709l-46 -248h-139l-121 -682q-6 -24 -6 -55q0 -79 49.5 -124.5t145.5 -45.5q97 0 167 60t85 153l123 694h-142l45 248h709l-45 -248h-135l-121 -688q-45 -255 -233 -391t-488 -136q-266 0 -428 128.5t-162 326.5q0 52 8 96l117 664h-137zM631 1561 l166 305h342l-254 -305h-254zM1059 1561l166 305h342l-254 -305h-254z" />
<glyph unicode="&#x171;" horiz-adv-x="1390" d="M66 827l43 240h550l-116 -653q-2 -10 -2 -31q0 -45 25 -72.5t65 -27.5q62 0 107 39t57 106l112 639h410l-146 -829h142l-43 -238h-543l29 164q-59 -81 -153.5 -131.5t-199.5 -50.5q-126 0 -206 87.5t-80 209.5q0 32 8 90l82 458h-141zM393 1192l166 305h342l-254 -305 h-254zM821 1192l166 305h342l-254 -305h-254z" />
<glyph unicode="&#x172;" horiz-adv-x="1683" d="M166 1186l45 248h709l-46 -248h-139l-121 -682q-6 -24 -6 -55q0 -79 49.5 -124.5t145.5 -45.5q97 0 167 60t85 153l123 694h-142l45 248h709l-45 -248h-135l-121 -688q-35 -197 -155.5 -323.5t-313.5 -174.5h-4q-11 -4 -37 -8q-78 -22 -127 -66.5t-49 -97.5q0 -28 17 -47 t42 -19q46 0 94 52l95 -154q-112 -109 -283 -109q-100 0 -171 57.5t-71 145.5q0 131 125 226q-218 28 -345.5 149.5t-127.5 296.5q0 52 8 96l117 664h-137z" />
<glyph unicode="&#x173;" horiz-adv-x="1390" d="M66 827l43 240h550l-116 -653q-2 -10 -2 -31q0 -45 25 -72.5t65 -27.5q62 0 107 38t57 105l112 641h410l-146 -829h142l-43 -238h-152q-93 -15 -155 -63.5t-62 -108.5q0 -28 17.5 -47t42.5 -19q46 0 94 52l94 -154q-112 -109 -283 -109q-100 0 -170.5 57.5t-70.5 145.5 q0 75 42 139t117 109l-28 160q-59 -80 -153.5 -130t-199.5 -50q-126 0 -206 87.5t-80 209.5q0 32 8 90l82 458h-141z" />
<glyph unicode="&#x174;" horiz-adv-x="2430" d="M123 1186l43 248h752l-44 -248h-155l29 -850l419 1098h500l39 -1100l326 852h-158l43 248h666l-41 -248h-140l-510 -1186h-549l-55 905l-370 -905h-541l-117 1186h-137zM1018 1561l299 288h330l202 -288h-309l-80 137l-127 -137h-315z" />
<glyph unicode="&#x175;" horiz-adv-x="1951" d="M10 827l43 240h500l29 -748q256 235 256 545q0 49 -7 92l-14 111h404l51 -748q121 104 197.5 232t76.5 248l-2 28h-164l43 240h463q35 -140 35 -248q0 -206 -165.5 -428.5t-446.5 -394.5h-359l-45 366q-123 -193 -325 -366h-338l-78 831h-154zM606 1192l299 289h330 l203 -289h-310l-79 137l-127 -137h-316z" />
<glyph unicode="&#x176;" horiz-adv-x="1527" d="M123 1186l43 248h708l-38 -222h-119l147 -356l275 356h-129l37 222h634l-43 -248h-143l-506 -615l-57 -315h172l-45 -256h-774l45 256h170l57 322l-291 608h-143zM549 1561l299 288h330l202 -288h-309l-80 137l-127 -137h-315z" />
<glyph unicode="&#x177;" horiz-adv-x="1310" d="M-168 -367l96 250q75 -33 164 -33q67 0 137 35.5t123 91.5l-180 850h-160l41 240h484l145 -803q98 114 156.5 256.5t58.5 276.5q0 22 2 30h-164l43 240h469q33 -132 33 -240q0 -116 -50.5 -256t-135.5 -276t-203 -265.5t-246.5 -227t-273 -157t-275.5 -59.5 q-142 0 -264 47zM293 1192l299 289h330l202 -289h-309l-80 137l-127 -137h-315z" />
<glyph unicode="&#x178;" horiz-adv-x="1527" d="M123 1186l43 248h708l-38 -222h-119l147 -356l275 356h-129l37 222h634l-43 -248h-143l-506 -615l-57 -315h172l-45 -256h-774l45 256h170l57 322l-291 608h-143zM532 1739q0 74 54.5 122t138.5 48t138.5 -48t54.5 -122q0 -78 -54 -127t-139 -49q-88 0 -140.5 48.5 t-52.5 127.5zM1008 1739q0 74 53 122t137 48q86 0 139.5 -48t53.5 -122q0 -77 -53.5 -126.5t-139.5 -49.5q-88 0 -139 49t-51 127z" />
<glyph unicode="&#x179;" horiz-adv-x="1341" d="M-27 0l39 225l811 961h-323l-35 -205h-291l80 453h1159l-39 -224l-815 -962h375l43 239h291l-88 -487h-1207zM643 1561l191 305h438l-332 -305h-297z" />
<glyph unicode="&#x17a;" horiz-adv-x="1163" d="M0 0l35 209l579 633h-194l-21 -117h-256l62 342h946l-35 -205l-577 -633h229l23 127h256l-64 -356h-983zM494 1192l190 305h438l-331 -305h-297z" />
<glyph unicode="&#x17b;" horiz-adv-x="1341" d="M-27 0l39 225l811 961h-323l-35 -205h-291l80 453h1159l-39 -224l-815 -962h375l43 239h291l-88 -487h-1207zM672 1741q0 75 55 121.5t143 46.5t142.5 -46.5t54.5 -121.5q0 -78 -54.5 -127t-142.5 -49q-92 0 -145 48.5t-53 127.5z" />
<glyph unicode="&#x17c;" horiz-adv-x="1163" d="M0 0l35 209l579 633h-194l-21 -117h-256l62 342h946l-35 -205l-577 -633h229l23 127h256l-64 -356h-983zM522 1372q0 75 55.5 121.5t143.5 46.5t142.5 -46.5t54.5 -121.5q0 -78 -54.5 -127t-142.5 -49q-92 0 -145.5 48.5t-53.5 127.5z" />
<glyph unicode="&#x17d;" horiz-adv-x="1341" d="M-27 0l39 225l811 961h-323l-35 -205h-291l80 453h1159l-39 -224l-815 -962h375l43 239h291l-88 -487h-1207zM449 1849h309l80 -137l127 137h315l-299 -288h-330z" />
<glyph unicode="&#x17e;" horiz-adv-x="1163" d="M0 0l35 209l579 633h-194l-21 -117h-256l62 342h946l-35 -205l-577 -633h229l23 127h256l-64 -356h-983zM299 1481h309l80 -138l127 138h315l-299 -289h-329z" />
<glyph unicode="&#x192;" horiz-adv-x="970" d="M-137 -362l43 253q51 -28 102 -28q57 0 94.5 35.5t49.5 101.5l118 662h-170l41 239h168l33 178q67 387 508 387q104 0 211 -28l-45 -256q-50 26 -105 26q-58 0 -104 -39.5t-59 -111.5l-27 -156h217l-41 -239h-217l-123 -689q-68 -370 -496 -370q-105 0 -198 35z" />
<glyph unicode="&#x1fa;" horiz-adv-x="1669" d="M-90 0l45 248h137l666 1186h2q-23 41 -23 84q0 105 94.5 171t229.5 66q115 0 190.5 -54t75.5 -140q0 -77 -53 -136l201 -1177h139l-45 -248h-733l45 248h131l-13 139h-479l-71 -139h131l-45 -248h-625zM668 670h301l-51 481zM866 1812l207 226h430l-340 -226h-297z M928 1520q0 -34 23.5 -54t66.5 -20q50 0 83.5 27t33.5 69q0 32 -23.5 53t-64.5 21q-51 0 -85 -27.5t-34 -68.5z" />
<glyph unicode="&#x1fb;" d="M61 442q0 178 75 328.5t204.5 238t282.5 87.5q89 0 160.5 -47.5t109.5 -122.5l25 141h411l-147 -829h141l-43 -238h-537l25 150q-53 -79 -144 -127t-190 -48q-105 0 -192 67t-134 173.5t-47 226.5zM489 461q0 -92 37 -149.5t101 -57.5q65 0 116.5 55.5t77 137.5t25.5 171 q0 96 -35.5 147.5t-99.5 51.5q-67 0 -118.5 -52.5t-77.5 -132.5t-26 -171zM496 1337q0 96 80.5 159t193.5 63q94 0 158.5 -52.5t64.5 -130.5q0 -100 -81 -163.5t-195 -63.5q-96 0 -158.5 54t-62.5 134zM588 1622l170 274h395l-299 -274h-266zM664 1343q0 -30 17.5 -47.5 t49.5 -17.5q38 0 65 24.5t27 59.5q0 29 -18 48.5t-49 19.5q-38 0 -65 -25t-27 -62z" />
<glyph unicode="&#x1fc;" horiz-adv-x="2041" d="M-94 0l45 248h141l809 1186h1208l-69 -396h-291l29 152h-219l-60 -338h367l-43 -250h-369l-63 -358h237l29 164h291l-74 -408h-1094l45 248h133l64 354h-320l-225 -354h119l-45 -248h-645zM834 807h225l84 487zM1239 1561l191 305h438l-332 -305h-297z" />
<glyph unicode="&#x1fd;" horiz-adv-x="2060" d="M59 440q0 135 49.5 257t132.5 209t197 138.5t238 51.5q234 0 452 -113q170 113 392 113q209 0 345 -129t136 -324q0 -111 -37 -209l-694 -4v-4q8 -86 54 -136t128 -50q74 0 141 29.5t115 78.5l221 -160q-199 -217 -543 -217q-162 0 -281.5 61.5t-184.5 170.5 q-157 -228 -424 -228q-202 0 -319.5 131t-117.5 334zM487 457q0 -90 31.5 -146.5t79.5 -56.5q135 0 279 412l30 96q-94 55 -194 55q-97 0 -161.5 -110t-64.5 -250zM963 1192l190 305h438l-331 -305h-297zM1288 637h305q4 32 4 57q0 68 -30 109t-86 41q-73 0 -122 -54.5 t-71 -152.5z" />
<glyph unicode="&#x1fe;" horiz-adv-x="1716" d="M106 616q0 184 67.5 342t185 268.5t281 173t351.5 62.5q239 0 406 -104l137 137l139 -139l-129 -129q131 -162 131 -396q0 -250 -111.5 -446t-313.5 -305t-462 -109q-229 0 -399 103l-137 -137l-139 137l129 129q-136 172 -136 413zM586 616q0 -25 4 -65l532 532 q-61 70 -155 70q-152 0 -266.5 -154t-114.5 -383zM668 350q59 -69 145 -69q103 0 190.5 72.5t139 199t51.5 278.5q0 32 -2 46zM821 1561l191 305h438l-332 -305h-297z" />
<glyph unicode="&#x1ff;" horiz-adv-x="1318" d="M55 27l117 116q-109 131 -109 314q0 192 89 338t246 223.5t358 77.5q162 0 295 -76l104 104l102 -100l-98 -98q111 -123 111 -301q0 -297 -189.5 -475.5t-502.5 -178.5q-170 0 -297 78l-121 -121zM492 463l311 309q-36 45 -88 45q-94 0 -158.5 -102.5t-64.5 -251.5z M530 299q32 -49 88 -49q93 0 157 106.5t67 251.5zM551 1214l190 306h439l-332 -306h-297z" />
<glyph unicode="&#x218;" horiz-adv-x="1288" d="M20 47l80 449h291l-35 -193q98 -45 219 -45q75 0 126 37.5t51 99.5q0 44 -30.5 80.5t-80 64t-109 55t-119 62.5t-109 77.5t-81.5 108t-33 146.5q-2 141 81 251.5t212.5 167t276.5 56.5q243 0 534 -94l-71 -397h-291l29 157q-88 56 -189 56q-60 0 -100.5 -33.5 t-40.5 -89.5q0 -36 24.5 -66t64 -50.5t90.5 -44t104.5 -45t104.5 -55t90.5 -73t64 -100.5t24.5 -135q0 -159 -80.5 -279.5t-214 -182t-297.5 -61.5q-282 0 -586 76zM350 -543q107 89 107 213q0 73 -45 131l284 142q60 -83 60 -168q0 -220 -338 -408z" />
<glyph unicode="&#x219;" horiz-adv-x="1148" d="M18 41l60 328h260l-23 -119q97 -43 203 -43q47 0 79 23.5t32 62.5q0 26 -21 46t-55 33.5t-77.5 29t-89 30t-89 39.5t-77.5 55t-55.5 78t-21.5 107q-1 172 138.5 276.5t339.5 104.5q235 0 471 -70l-50 -283h-260l15 86q-74 41 -162 41q-40 0 -65 -22t-25 -56 q0 -25 27 -43.5t70.5 -32t96.5 -28.5t105.5 -38.5t96.5 -55t71.5 -85.5t27.5 -124q1 -190 -145 -300t-371 -110q-259 0 -506 70zM266 -543q107 89 107 213q0 73 -45 131l284 142q60 -83 60 -168q0 -220 -338 -408z" />
<glyph unicode="&#x21a;" horiz-adv-x="1445" d="M121 956l86 478h1352l-84 -478h-291l41 230h-170l-166 -938h172l-45 -248h-774l45 248h170l166 938h-172l-39 -230h-291zM381 -543q106 88 106 213q0 73 -45 131l285 142q59 -82 59 -168q0 -220 -337 -408z" />
<glyph unicode="&#x21b;" horiz-adv-x="876" d="M66 827l43 240h139l45 254h412l-46 -254h203l-43 -240h-203l-79 -452q-2 -12 -2 -35q0 -45 29.5 -70.5t76.5 -25.5q54 0 113 16l34 -242q-125 -32 -290 -32q-181 0 -280 81.5t-99 227.5q0 28 8 82l80 450h-141zM123 -543q106 88 106 213q0 73 -45 131l285 142 q59 -82 59 -168q0 -220 -338 -408z" />
<glyph unicode="&#x237;" horiz-adv-x="784" d="M-203 -365l78 246q60 -31 113 -31q122 0 145 117l152 860h-156l43 240h565l-198 -1122q-29 -163 -165.5 -253.5t-338.5 -90.5q-135 0 -238 34z" />
<glyph unicode="&#x2c6;" horiz-adv-x="1060" d="M231 1192l299 289h330l203 -289h-309l-80 137l-127 -137h-316z" />
<glyph unicode="&#x2c7;" horiz-adv-x="1060" d="M283 1481h309l80 -138l127 138h315l-299 -289h-330z" />
<glyph unicode="&#x2d8;" horiz-adv-x="976" d="M287 1440q0 28 6 63h252q-4 -28 -4 -39q0 -90 86 -90q50 0 84.5 37.5t44.5 91.5h270q-40 -158 -152.5 -246t-275.5 -88q-136 0 -223.5 78.5t-87.5 192.5z" />
<glyph unicode="&#x2d9;" horiz-adv-x="645" d="M272 1372q0 75 55.5 121.5t143.5 46.5t142.5 -46.5t54.5 -121.5q0 -78 -54.5 -127t-142.5 -49q-92 0 -145.5 48.5t-53.5 127.5z" />
<glyph unicode="&#x2da;" horiz-adv-x="798" d="M276 1386q0 108 90 178t216 70q106 0 177.5 -58.5t71.5 -145.5q0 -111 -90 -182.5t-217 -71.5q-108 0 -178 60t-70 150zM465 1393q0 -33 19.5 -52.5t54.5 -19.5q43 0 72.5 27t29.5 67q0 32 -20 53t-54 21q-43 0 -72.5 -27.5t-29.5 -68.5z" />
<glyph unicode="&#x2db;" horiz-adv-x="770" d="M-31 -246q0 91 62.5 165.5t165.5 118.5t229 56l37 -94q-93 -15 -155 -63.5t-62 -108.5q0 -28 17 -47t42 -19q46 0 94 52l95 -154q-112 -109 -283 -109q-100 0 -171 57.5t-71 145.5z" />
<glyph unicode="&#x2dc;" horiz-adv-x="1040" d="M238 1186q28 134 111 223.5t188 89.5q52 0 104.5 -20.5t96.5 -41t77 -20.5q32 0 55 22t31 52h184q-27 -134 -110 -223.5t-189 -89.5q-52 0 -104 20t-96.5 39.5t-77.5 19.5q-32 0 -55 -21t-31 -50h-184z" />
<glyph unicode="&#x2dd;" horiz-adv-x="1099" d="M231 1192l166 305h342l-254 -305h-254zM659 1192l166 305h342l-254 -305h-254z" />
<glyph unicode="&#x1e80;" horiz-adv-x="2430" d="M123 1186l43 248h752l-44 -248h-155l29 -850l419 1098h500l39 -1100l326 852h-158l43 248h666l-41 -248h-140l-510 -1186h-549l-55 905l-370 -905h-541l-117 1186h-137zM1122 1866h424l78 -305h-281z" />
<glyph unicode="&#x1e81;" horiz-adv-x="1951" d="M10 827l43 240h500l29 -748q256 235 256 545q0 49 -7 92l-14 111h404l51 -748q121 104 197.5 232t76.5 248l-2 28h-164l43 240h463q35 -140 35 -248q0 -206 -165.5 -428.5t-446.5 -394.5h-359l-45 366q-123 -193 -325 -366h-338l-78 831h-154zM711 1497h424l77 -305h-280 z" />
<glyph unicode="&#x1e82;" horiz-adv-x="2430" d="M123 1186l43 248h752l-44 -248h-155l29 -850l419 1098h500l39 -1100l326 852h-158l43 248h666l-41 -248h-140l-510 -1186h-549l-55 905l-370 -905h-541l-117 1186h-137zM1233 1561l190 305h439l-332 -305h-297z" />
<glyph unicode="&#x1e83;" horiz-adv-x="1951" d="M10 827l43 240h500l29 -748q256 235 256 545q0 49 -7 92l-14 111h404l51 -748q121 104 197.5 232t76.5 248l-2 28h-164l43 240h463q35 -140 35 -248q0 -206 -165.5 -428.5t-446.5 -394.5h-359l-45 366q-123 -193 -325 -366h-338l-78 831h-154zM821 1192l191 305h438 l-332 -305h-297z" />
<glyph unicode="&#x1e84;" horiz-adv-x="2430" d="M123 1186l43 248h752l-44 -248h-155l29 -850l419 1098h500l39 -1100l326 852h-158l43 248h666l-41 -248h-140l-510 -1186h-549l-55 905l-370 -905h-541l-117 1186h-137zM1001 1739q0 74 54.5 122t138.5 48t138 -48t54 -122q0 -78 -53.5 -127t-138.5 -49 q-88 0 -140.5 48.5t-52.5 127.5zM1477 1739q0 74 53 122t137 48q86 0 139.5 -48t53.5 -122q0 -77 -53.5 -126.5t-139.5 -49.5q-88 0 -139 49t-51 127z" />
<glyph unicode="&#x1e85;" horiz-adv-x="1951" d="M10 827l43 240h500l29 -748q256 235 256 545q0 49 -7 92l-14 111h404l51 -748q121 104 197.5 232t76.5 248l-2 28h-164l43 240h463q35 -140 35 -248q0 -206 -165.5 -428.5t-446.5 -394.5h-359l-45 366q-123 -193 -325 -366h-338l-78 831h-154zM590 1370q0 74 54 122 t138 48t138.5 -48t54.5 -122q0 -78 -54 -127t-139 -49q-88 0 -140 48.5t-52 127.5zM1065 1370q0 74 53 122t137 48q86 0 139.5 -48t53.5 -122q0 -77 -53.5 -126.5t-139.5 -49.5q-88 0 -139 49t-51 127z" />
<glyph unicode="&#x1ef2;" horiz-adv-x="1527" d="M123 1186l43 248h708l-38 -222h-119l147 -356l275 356h-129l37 222h634l-43 -248h-143l-506 -615l-57 -315h172l-45 -256h-774l45 256h170l57 322l-291 608h-143zM653 1866h424l78 -305h-281z" />
<glyph unicode="&#x1ef3;" horiz-adv-x="1310" d="M-168 -367l96 250q75 -33 164 -33q67 0 137 35.5t123 91.5l-180 850h-160l41 240h484l145 -803q98 114 156.5 256.5t58.5 276.5q0 22 2 30h-164l43 240h469q33 -132 33 -240q0 -116 -50.5 -256t-135.5 -276t-203 -265.5t-246.5 -227t-273 -157t-275.5 -59.5 q-142 0 -264 47zM397 1497h424l78 -305h-281z" />
<glyph unicode="&#x2000;" horiz-adv-x="1019" />
<glyph unicode="&#x2001;" horiz-adv-x="2038" />
<glyph unicode="&#x2002;" horiz-adv-x="1019" />
<glyph unicode="&#x2003;" horiz-adv-x="2038" />
<glyph unicode="&#x2004;" horiz-adv-x="679" />
<glyph unicode="&#x2005;" horiz-adv-x="509" />
<glyph unicode="&#x2006;" horiz-adv-x="339" />
<glyph unicode="&#x2007;" horiz-adv-x="339" />
<glyph unicode="&#x2008;" horiz-adv-x="254" />
<glyph unicode="&#x2009;" horiz-adv-x="407" />
<glyph unicode="&#x200a;" horiz-adv-x="113" />
<glyph unicode="&#x2010;" horiz-adv-x="743" d="M68 451l61 344h580l-60 -344h-581z" />
<glyph unicode="&#x2011;" horiz-adv-x="743" d="M68 451l61 344h580l-60 -344h-581z" />
<glyph unicode="&#x2012;" horiz-adv-x="743" d="M68 451l61 344h580l-60 -344h-581z" />
<glyph unicode="&#x2013;" horiz-adv-x="1433" d="M72 473l53 301h1268l-52 -301h-1269z" />
<glyph unicode="&#x2014;" horiz-adv-x="1988" d="M72 473l53 301h1821l-52 -301h-1822z" />
<glyph unicode="&#x2018;" horiz-adv-x="626" d="M166 934q0 159 104.5 300t292.5 275l107 -106q-144 -141 -144 -332q0 -98 52 -184l-349 -168q-63 105 -63 215z" />
<glyph unicode="&#x2019;" horiz-adv-x="626" d="M145 844q144 141 144 332q0 100 -51 184l348 168q63 -105 63 -215q0 -159 -105 -300.5t-292 -275.5z" />
<glyph unicode="&#x201a;" horiz-adv-x="622" d="M-45 -231q143 140 143 331q0 101 -51 185l348 168q64 -107 64 -215q0 -159 -105 -300.5t-293 -275.5z" />
<glyph unicode="&#x201c;" horiz-adv-x="1140" d="M168 938q0 159 104.5 300t292.5 275l107 -106q-144 -141 -144 -332q0 -98 52 -184l-349 -168q-63 105 -63 215zM686 938q0 159 104.5 300t292.5 275l107 -106q-143 -140 -143 -332q0 -100 51 -184l-348 -168q-64 107 -64 215z" />
<glyph unicode="&#x201d;" horiz-adv-x="1144" d="M145 844q144 141 144 332q0 100 -51 184l348 168q63 -105 63 -215q0 -159 -105 -300.5t-292 -275.5zM664 844q143 140 143 332q0 100 -51 184l348 168q63 -105 63 -215q0 -159 -105 -300.5t-292 -275.5z" />
<glyph unicode="&#x201e;" horiz-adv-x="1140" d="M-45 -231q143 140 143 331q0 101 -51 185l348 168q64 -107 64 -215q0 -159 -105 -300.5t-293 -275.5zM473 -231q143 140 143 331q0 101 -51 185l348 168q64 -107 64 -215q0 -159 -105 -300.5t-292 -275.5z" />
<glyph unicode="&#x2020;" horiz-adv-x="1126" d="M160 766v389l295 -65l-47 344h434l-47 -344l295 65v-389l-295 63l47 -966h-434l47 966z" />
<glyph unicode="&#x2021;" horiz-adv-x="1222" d="M160 215v389l295 -65v290l-295 -63v389l295 -65l-47 344h434l-47 -344l295 65v-389l-295 63v-290l295 65v-389l-291 66l43 -418h-434l45 418z" />
<glyph unicode="&#x2022;" horiz-adv-x="1214" d="M205 696q0 107 58.5 201.5t157 150.5t210.5 56q169 0 291 -121.5t122 -286.5q0 -169 -121.5 -291t-291.5 -122q-112 0 -210 56t-157 151.5t-59 205.5z" />
<glyph unicode="&#x2026;" horiz-adv-x="2127" d="M51 215q0 97 75 168.5t175 71.5q99 0 170.5 -71.5t71.5 -168.5q0 -99 -71.5 -170.5t-170.5 -71.5q-100 0 -175 72t-75 170zM762 215q0 97 75 168.5t175 71.5q99 0 170 -71.5t71 -168.5q0 -99 -71 -170.5t-170 -71.5q-100 0 -175 72t-75 170zM1473 215q0 97 74.5 168.5 t174.5 71.5q99 0 170.5 -71.5t71.5 -168.5q0 -99 -71.5 -170.5t-170.5 -71.5q-100 0 -174.5 72t-74.5 170z" />
<glyph unicode="&#x202f;" horiz-adv-x="407" />
<glyph unicode="&#x2030;" horiz-adv-x="2623" d="M92 0l1288 1434h377l-1290 -1434h-375zM139 1040q0 184 115.5 302t306.5 118q153 0 240.5 -77.5t87.5 -202.5q0 -187 -115 -305.5t-309 -118.5q-153 0 -239.5 78t-86.5 206zM426 1040q0 -98 57 -98q37 0 65 40t41 93t13 105q0 43 -15.5 68.5t-45.5 25.5q-37 0 -64 -39.5 t-39 -91t-12 -103.5zM963 256q0 184 115 302t306 118q154 0 242 -77.5t88 -203.5q0 -187 -115.5 -305.5t-308.5 -118.5q-154 0 -240.5 78t-86.5 207zM1249 256q0 -43 15 -70.5t43 -27.5q37 0 65 40t40.5 93t12.5 104q0 43 -15.5 68.5t-43.5 25.5q-37 0 -64.5 -38.5 t-40 -90.5t-12.5 -104zM1800 256q0 184 115.5 302t306.5 118q153 0 240.5 -78t87.5 -203q0 -187 -115 -305.5t-309 -118.5q-153 0 -239.5 78.5t-86.5 206.5zM2087 256q0 -98 57 -98q37 0 65 40t41 93t13 104q0 43 -15.5 68.5t-45.5 25.5q-37 0 -64 -38.5t-39 -90.5t-12 -104 z" />
<glyph unicode="&#x2039;" horiz-adv-x="751" d="M55 598l355 408h391l-375 -433l195 -380h-355z" />
<glyph unicode="&#x203a;" horiz-adv-x="759" d="M-16 193l374 432l-194 381h354l211 -406l-354 -407h-391z" />
<glyph unicode="&#x2044;" horiz-adv-x="1089" d="M-109 -84l1082 1602h289l-1082 -1602h-289z" />
<glyph unicode="&#x205f;" horiz-adv-x="509" />
<glyph unicode="&#x2074;" horiz-adv-x="833" d="M86 866l23 127l423 445h265l-74 -426h100l-24 -146h-103l-14 -92h100l-28 -147h-473l26 147h111l16 92h-348zM293 1012h168l37 215z" />
<glyph unicode="&#x20ac;" horiz-adv-x="1460" d="M41 516l59 178h142l12 84h-170l59 176h158q87 236 266.5 374t419.5 138q263 0 535 -98l-64 -373h-291l27 152q-97 33 -190 33q-84 0 -150.5 -61t-110.5 -165h365l-59 -176h-359l-12 -84h344l-59 -178h-289q8 -111 53.5 -178.5t120.5 -67.5q97 0 170.5 58.5t120.5 152.5 l258 -164q-201 -346 -639 -346q-232 0 -370 150.5t-150 394.5h-197z" />
<glyph unicode="&#x2116;" horiz-adv-x="2656" d="M-12 0l41 248h143l164 938h-139l43 248h598l403 -899l115 651h-144l45 248h623l-45 -248h-139l-209 -1186h-467l-395 897l-115 -649h143l-45 -248h-620zM1810 395l41 248h715l-41 -248h-715zM1884 1038q0 186 127.5 304t327.5 118q151 0 245.5 -87t94.5 -220 q0 -190 -129 -310t-326 -120q-156 0 -248 87.5t-92 227.5zM2171 1042q0 -48 21 -77t59 -29q65 0 103 66.5t38 140.5q0 49 -22 76.5t-62 27.5q-64 0 -100.5 -62t-36.5 -143z" />
<glyph unicode="&#x2122;" horiz-adv-x="2019" d="M193 1233v248h747v-248h-170v110h-68v-458h76v-144h-426v144h78v458h-68v-110h-169zM997 741v144h52v452h-52v144h385l131 -330l134 330h368v-144h-51v-452h51v-144h-358v144h55v342l-141 -355h-170l-144 355v-342h56v-144h-316z" />
<glyph unicode="&#x2212;" horiz-adv-x="1214" d="M131 479v320h989v-320h-989z" />
<glyph unicode="&#x25fc;" horiz-adv-x="1064" d="M0 0v1065h1065v-1065h-1065z" />
<glyph unicode="&#xf6c3;" horiz-adv-x="0" d="M-666 -543q107 89 107 213q0 73 -45 131l285 142q59 -82 59 -168q0 -220 -338 -408z" />
<glyph horiz-adv-x="743" d="M86 561l61 344h580l-59 -344h-582z" />
<glyph horiz-adv-x="1433" d="M92 584l53 301h1268l-51 -301h-1270z" />
<glyph horiz-adv-x="1988" d="M92 584l53 301h1821l-51 -301h-1823z" />
<glyph horiz-adv-x="1339" d="M76 721l354 407h391l-375 -432l195 -381h-354zM625 676l391 454h391l-414 -479l172 -336h-356z" />
<glyph horiz-adv-x="1339" d="M-2 313l414 480l-172 335h356l184 -360l-391 -455h-391zM584 315l374 433l-194 380h354l211 -405l-354 -408h-391z" />
<glyph horiz-adv-x="751" d="M76 721l354 407h391l-375 -432l195 -381h-354z" />
<glyph horiz-adv-x="751" d="M-4 315l375 433l-195 380h354l211 -405l-354 -408h-391z" />
<glyph horiz-adv-x="735" d="M82 526q0 315 188 610.5t488 491.5l147 -133q-210 -218 -328 -467.5t-118 -511.5q0 -335 168 -604l-189 -129q-164 153 -260 344.5t-96 398.5z" />
<glyph horiz-adv-x="737" d="M-109 -82q210 219 328.5 468t118.5 511q0 335 -168 604l188 129q165 -154 261 -345t96 -398q0 -315 -188 -610.5t-488 -491.5z" />
<glyph horiz-adv-x="708" d="M23 -223l327 1855h531l-37 -211h-193l-252 -1433h193l-39 -211h-530z" />
<glyph horiz-adv-x="708" d="M-111 -223l37 211h193l252 1433h-193l39 211h531l-328 -1855h-531z" />
<glyph horiz-adv-x="729" d="M61 612l37 215q72 0 119 46.5t62 132.5l45 256q18 99 68 171.5t126.5 115.5t170.5 63t210 20l-37 -217q-85 0 -136 -50.5t-64 -127.5l-48 -252q-20 -112 -97.5 -183.5t-203.5 -94.5q211 -42 211 -220q0 -27 -6 -57l-47 -268q-4 -28 -4 -43q0 -56 35.5 -90.5t109.5 -34.5 l-39 -217q-203 0 -323.5 81t-120.5 240q0 49 4 76l45 260q6 30 6 53q0 61 -32 93t-91 32z" />
<glyph horiz-adv-x="811" d="M272 -356v2025h344v-2025h-344z" />
<glyph horiz-adv-x="731" d="M-109 -225l37 217q85 0 136.5 50.5t64.5 127.5l47 252q20 112 97.5 183.5t203.5 94.5q-211 42 -211 220q0 27 6 57l47 268q5 35 5 43q0 56 -36 90.5t-110 34.5l39 217q203 0 324 -81t121 -240q0 -42 -5 -76l-45 -260q-6 -30 -6 -53q0 -61 32 -93t91 -32l-37 -215 q-72 0 -118.5 -46.5t-61.5 -132.5l-45 -256q-24 -131 -105.5 -215.5t-198 -119.5t-272.5 -35z" />
<glyph horiz-adv-x="980" d="M-129 -172l932 1757h364l-931 -1757h-365z" />
<glyph horiz-adv-x="952" d="M186 1585h336l307 -1757h-333z" />
<glyph horiz-adv-x="743" d="M25 0l258 952h323l-80 -952h-501zM260 1274q0 97 68.5 165t165.5 68t165 -68t68 -165q0 -93 -68.5 -161.5t-164.5 -68.5t-165 68.5t-69 161.5z" />
<glyph horiz-adv-x="1067" d="M0 354q0 58 24 113.5t63.5 98.5t87 83.5t96.5 75t90 65t70 62t34 59.5l8 41h371l-15 -88q-9 -47 -33.5 -92t-57 -81t-70 -70t-73 -65t-64.5 -61t-46.5 -62t-17.5 -64q0 -38 23 -62t63 -24q114 0 152 182l364 -125q-79 -169 -231.5 -262.5t-370.5 -93.5q-202 0 -334.5 105 t-132.5 265zM463 1274q0 97 68 165t165 68q96 0 165 -68.5t69 -164.5q0 -92 -69.5 -159.5t-164.5 -67.5q-96 0 -164.5 67t-68.5 160z" />
<glyph horiz-adv-x="753" d="M166 725q0 97 75 168.5t175 71.5q99 0 170 -71.5t71 -168.5q0 -99 -71 -170.5t-170 -71.5q-100 0 -175 72t-75 170z" />
<glyph horiz-adv-x="1214" d="M211 723q0 107 58.5 201.5t157 150t210.5 55.5q83 0 160 -33t132.5 -88t88.5 -130t33 -156q0 -169 -122 -291.5t-292 -122.5q-112 0 -210 56t-157 152t-59 206z" />
<glyph horiz-adv-x="1296" d="M88 479q0 208 45.5 384.5t132 307.5t219.5 205t299 74q244 0 367 -126t123 -361q0 -165 -29 -313t-88 -270.5t-141.5 -211.5t-195.5 -138.5t-245 -49.5q-242 0 -364.5 129.5t-122.5 369.5zM516 471q0 -197 94 -197q52 0 98.5 71.5t76 178t46.5 223.5t17 214 q0 194 -98 194q-54 0 -100 -70t-74.5 -176.5t-44 -222t-15.5 -215.5z" />
<glyph horiz-adv-x="1296" d="M152 0l43 248h272l151 858l-292 -172l-125 235l516 285l375 -41l-205 -1165h272l-45 -248h-962z" />
<glyph horiz-adv-x="1296" d="M29 0l22 131q18 102 70 197t119.5 167t145.5 138.5t152 122t134.5 105.5t97.5 101t37 99q0 45 -27 74.5t-71 29.5q-61 0 -107.5 -59t-69.5 -152l-333 115q71 177 225.5 282t366.5 105q200 0 330 -112.5t130 -272.5q0 -86 -29.5 -160.5t-79.5 -131t-112 -106.5t-131.5 -97 t-132.5 -92.5t-120.5 -103.5t-90.5 -120h270l29 158h317l-75 -418h-1067z" />
<glyph horiz-adv-x="1282" d="M-4 307l334 137q15 -79 66.5 -130.5t121.5 -51.5q84 0 139.5 61t55.5 148q0 86 -59.5 136t-151.5 50h-88l41 224q142 9 236.5 62.5t94.5 127.5q0 52 -31.5 83.5t-84.5 31.5q-62 0 -110 -41t-75 -98l-315 167q242 252 557 252q131 0 239.5 -42.5t174 -123.5t65.5 -186 q0 -129 -106.5 -216t-296.5 -110q162 -12 258 -94t96 -225q0 -107 -55.5 -201t-146.5 -158.5t-209 -101.5t-242 -37q-197 0 -323.5 88.5t-184.5 247.5z" />
<glyph horiz-adv-x="1296" d="M33 403l39 220l729 811h424l-140 -789h158l-41 -242h-160l-28 -159h160l-44 -244h-737l43 244h174l29 159h-606zM399 645h283l70 408z" />
<glyph horiz-adv-x="1296" d="M45 299l336 141q18 -73 70.5 -125.5t117.5 -52.5q98 0 154.5 67.5t56.5 172.5q0 74 -42 121t-111 47q-92 0 -160 -80l-279 94l191 750h891l-66 -371h-317l18 106h-229l-74 -270q85 62 205 62q175 0 296.5 -124.5t121.5 -297.5q0 -171 -90 -302t-240.5 -198.5 t-335.5 -67.5q-192 0 -321 86.5t-193 241.5z" />
<glyph horiz-adv-x="1296" d="M104 485q0 209 53 387.5t151.5 309t247 204.5t329.5 74q212 0 409 -90l-172 -270q-116 71 -252 71q-112 0 -193 -102t-102 -256q43 60 114.5 97.5t154.5 37.5q165 0 276 -111.5t111 -279.5q0 -177 -83 -311.5t-226 -204.5t-324 -70q-233 0 -363.5 132.5t-130.5 381.5z M520 416q0 -66 29.5 -110t77.5 -44q54 0 92.5 41.5t55 100t16.5 124.5q0 61 -26.5 97.5t-78.5 36.5q-74 0 -120 -74t-46 -172z" />
<glyph horiz-adv-x="1296" d="M139 963l84 471h1174l-51 -275q-507 -470 -652 -1159h-438q159 714 627 1167h-381l-37 -204h-326z" />
<glyph horiz-adv-x="1296" d="M66 371q0 151 104.5 253.5t271.5 137.5q-102 37 -163.5 106t-61.5 160q0 123 78.5 222.5t207 152.5t279.5 53q197 0 330 -99t133 -245q0 -130 -89 -220.5t-232 -127.5q117 -24 192.5 -101.5t75.5 -185.5q0 -150 -84.5 -266.5t-227 -178t-315.5 -61.5q-213 0 -356 117 t-143 283zM489 389q0 -62 27.5 -98.5t81.5 -36.5q74 0 119 65.5t47 155.5q0 62 -28.5 99.5t-78.5 37.5q-70 0 -119 -60t-49 -163zM618 1010q0 -49 23.5 -81t63.5 -32q58 0 98.5 52.5t40.5 127.5q0 46 -23.5 73.5t-66.5 27.5q-60 0 -98 -48t-38 -120z" />
<glyph horiz-adv-x="1296" d="M61 72l179 270q118 -82 249 -82q116 0 192 106.5t99 278.5q-42 -58 -116 -94.5t-158 -36.5q-159 0 -269 114t-110 277q0 120 48 223.5t131.5 176t201 114t252.5 41.5q246 0 373 -127t127 -370q0 -167 -31 -316t-94.5 -273t-154.5 -213.5t-217 -139.5t-276 -50 q-123 0 -235.5 27t-190.5 74zM565 924q0 -57 28 -92t81 -35q73 0 121.5 67.5t48.5 165.5q0 60 -32 100.5t-83 40.5q-79 0 -121.5 -74t-42.5 -173z" />
</font>
</defs>
</svg>
